<?xml version="1.0" encoding="utf-8" standalone="no"?>
<!DOCTYPE svg PUBLIC "-//W3C//DTD SVG 1.1//EN"
  "http://www.w3.org/Graphics/SVG/1.1/DTD/svg11.dtd">
<svg xmlns:xlink="http://www.w3.org/1999/xlink" width="1296pt" height="576pt" viewBox="0 0 1296 576" xmlns="http://www.w3.org/2000/svg" version="1.1">
 <metadata>
  <rdf:RDF xmlns:dc="http://purl.org/dc/elements/1.1/" xmlns:cc="http://creativecommons.org/ns#" xmlns:rdf="http://www.w3.org/1999/02/22-rdf-syntax-ns#">
   <cc:Work>
    <dc:type rdf:resource="http://purl.org/dc/dcmitype/StillImage"/>
    <dc:date>2024-09-24T23:01:14.036333</dc:date>
    <dc:format>image/svg+xml</dc:format>
    <dc:creator>
     <cc:Agent>
      <dc:title>Matplotlib v3.6.2, https://matplotlib.org/</dc:title>
     </cc:Agent>
    </dc:creator>
   </cc:Work>
  </rdf:RDF>
 </metadata>
 <defs>
  <style type="text/css">*{stroke-linejoin: round; stroke-linecap: butt}</style>
 </defs>
 <g id="figure_1">
  <g id="patch_1">
   <path d="M 0 576 
L 1296 576 
L 1296 0 
L 0 0 
z
" style="fill: #ffffff"/>
  </g>
  <g id="axes_1">
   <g id="patch_2">
    <path d="M 162 512.64 
L 1166.4 512.64 
L 1166.4 69.12 
L 162 69.12 
z
" style="fill: #ffffff"/>
   </g>
   <g id="matplotlib.axis_1">
    <g id="xtick_1">
     <g id="line2d_1">
      <path d="M 207.654545 512.64 
L 207.654545 69.12 
" clip-path="url(#p851654cb42)" style="fill: none; stroke: #b0b0b0; stroke-width: 0.8; stroke-linecap: square"/>
     </g>
     <g id="line2d_2">
      <defs>
       <path id="mc55d82151d" d="M 0 0 
L 0 3.5 
" style="stroke: #000000; stroke-width: 0.8"/>
      </defs>
      <g>
       <use xlink:href="#mc55d82151d" x="207.654545" y="512.64" style="stroke: #000000; stroke-width: 0.8"/>
      </g>
     </g>
     <g id="text_1">
      <!-- 0 -->
      <g transform="translate(204.154545 529.265) scale(0.14 -0.14)">
       <defs>
        <path id="SimHei-30" d="M 225 2537 
Q 250 3200 412 3587 
Q 575 3975 875 4225 
Q 1175 4475 1612 4475 
Q 2050 4475 2375 4112 
Q 2700 3750 2800 3200 
Q 2900 2650 2862 1937 
Q 2825 1225 2612 775 
Q 2400 325 1975 150 
Q 1550 -25 1125 187 
Q 700 400 525 750 
Q 350 1100 275 1487 
Q 200 1875 225 2537 
z
M 750 2687 
Q 675 2000 800 1462 
Q 925 925 1212 700 
Q 1500 475 1800 612 
Q 2100 750 2237 1162 
Q 2375 1575 2375 2062 
Q 2375 2550 2337 2950 
Q 2300 3350 2112 3675 
Q 1925 4000 1612 4012 
Q 1300 4025 1062 3700 
Q 825 3375 750 2687 
z
" transform="scale(0.015625)"/>
       </defs>
       <use xlink:href="#SimHei-30"/>
      </g>
     </g>
    </g>
    <g id="xtick_2">
     <g id="line2d_3">
      <path d="M 417.079066 512.64 
L 417.079066 69.12 
" clip-path="url(#p851654cb42)" style="fill: none; stroke: #b0b0b0; stroke-width: 0.8; stroke-linecap: square"/>
     </g>
     <g id="line2d_4">
      <g>
       <use xlink:href="#mc55d82151d" x="417.079066" y="512.64" style="stroke: #000000; stroke-width: 0.8"/>
      </g>
     </g>
     <g id="text_2">
      <!-- 50 -->
      <g transform="translate(410.079066 529.265) scale(0.14 -0.14)">
       <defs>
        <path id="SimHei-35" d="M 550 1325 
Q 725 650 1150 575 
Q 1575 500 1837 662 
Q 2100 825 2212 1087 
Q 2325 1350 2312 1675 
Q 2300 2000 2137 2225 
Q 1975 2450 1725 2525 
Q 1475 2600 1162 2525 
Q 850 2450 650 2175 
L 225 2225 
Q 275 2375 700 4375 
L 2675 4375 
L 2675 3925 
L 1075 3925 
Q 950 3250 825 2850 
Q 1200 3025 1525 3012 
Q 1850 3000 2150 2862 
Q 2450 2725 2587 2487 
Q 2725 2250 2787 2012 
Q 2850 1775 2837 1500 
Q 2825 1225 2725 937 
Q 2625 650 2425 462 
Q 2225 275 1937 162 
Q 1650 50 1275 75 
Q 900 100 562 350 
Q 225 600 100 1200 
L 550 1325 
z
" transform="scale(0.015625)"/>
       </defs>
       <use xlink:href="#SimHei-35"/>
       <use xlink:href="#SimHei-30" x="50"/>
      </g>
     </g>
    </g>
    <g id="xtick_3">
     <g id="line2d_5">
      <path d="M 626.503586 512.64 
L 626.503586 69.12 
" clip-path="url(#p851654cb42)" style="fill: none; stroke: #b0b0b0; stroke-width: 0.8; stroke-linecap: square"/>
     </g>
     <g id="line2d_6">
      <g>
       <use xlink:href="#mc55d82151d" x="626.503586" y="512.64" style="stroke: #000000; stroke-width: 0.8"/>
      </g>
     </g>
     <g id="text_3">
      <!-- 100 -->
      <g transform="translate(616.003586 529.265) scale(0.14 -0.14)">
       <defs>
        <path id="SimHei-31" d="M 1400 3600 
Q 1075 3275 575 2975 
L 575 3450 
Q 1200 3875 1600 4450 
L 1900 4450 
L 1900 150 
L 1400 150 
L 1400 3600 
z
" transform="scale(0.015625)"/>
       </defs>
       <use xlink:href="#SimHei-31"/>
       <use xlink:href="#SimHei-30" x="50"/>
       <use xlink:href="#SimHei-30" x="100"/>
      </g>
     </g>
    </g>
    <g id="xtick_4">
     <g id="line2d_7">
      <path d="M 835.928107 512.64 
L 835.928107 69.12 
" clip-path="url(#p851654cb42)" style="fill: none; stroke: #b0b0b0; stroke-width: 0.8; stroke-linecap: square"/>
     </g>
     <g id="line2d_8">
      <g>
       <use xlink:href="#mc55d82151d" x="835.928107" y="512.64" style="stroke: #000000; stroke-width: 0.8"/>
      </g>
     </g>
     <g id="text_4">
      <!-- 150 -->
      <g transform="translate(825.428107 529.265) scale(0.14 -0.14)">
       <use xlink:href="#SimHei-31"/>
       <use xlink:href="#SimHei-35" x="50"/>
       <use xlink:href="#SimHei-30" x="100"/>
      </g>
     </g>
    </g>
    <g id="xtick_5">
     <g id="line2d_9">
      <path d="M 1045.352627 512.64 
L 1045.352627 69.12 
" clip-path="url(#p851654cb42)" style="fill: none; stroke: #b0b0b0; stroke-width: 0.8; stroke-linecap: square"/>
     </g>
     <g id="line2d_10">
      <g>
       <use xlink:href="#mc55d82151d" x="1045.352627" y="512.64" style="stroke: #000000; stroke-width: 0.8"/>
      </g>
     </g>
     <g id="text_5">
      <!-- 200 -->
      <g transform="translate(1034.852627 529.265) scale(0.14 -0.14)">
       <defs>
        <path id="SimHei-32" d="M 300 250 
Q 325 625 650 925 
Q 975 1225 1475 1862 
Q 1975 2500 2125 2850 
Q 2275 3200 2237 3450 
Q 2200 3700 2000 3862 
Q 1800 4025 1537 4000 
Q 1275 3975 1037 3800 
Q 800 3625 675 3275 
L 200 3350 
Q 400 3925 712 4187 
Q 1025 4450 1450 4475 
Q 1700 4500 1900 4462 
Q 2100 4425 2312 4287 
Q 2525 4150 2662 3875 
Q 2800 3600 2762 3212 
Q 2725 2825 2375 2287 
Q 2025 1750 1025 600 
L 2825 600 
L 2825 150 
L 300 150 
L 300 250 
z
" transform="scale(0.015625)"/>
       </defs>
       <use xlink:href="#SimHei-32"/>
       <use xlink:href="#SimHei-30" x="50"/>
       <use xlink:href="#SimHei-30" x="100"/>
      </g>
     </g>
    </g>
   </g>
   <g id="matplotlib.axis_2">
    <g id="ytick_1">
     <g id="line2d_11">
      <path d="M 162 485.094386 
L 1166.4 485.094386 
" clip-path="url(#p851654cb42)" style="fill: none; stroke: #b0b0b0; stroke-width: 0.8; stroke-linecap: square"/>
     </g>
     <g id="line2d_12">
      <defs>
       <path id="ma0ae426500" d="M 0 0 
L -3.5 0 
" style="stroke: #000000; stroke-width: 0.8"/>
      </defs>
      <g>
       <use xlink:href="#ma0ae426500" x="162" y="485.094386" style="stroke: #000000; stroke-width: 0.8"/>
      </g>
     </g>
     <g id="text_6">
      <!-- 10 -->
      <g transform="translate(141 489.906886) scale(0.14 -0.14)">
       <use xlink:href="#SimHei-31"/>
       <use xlink:href="#SimHei-30" x="50"/>
      </g>
     </g>
    </g>
    <g id="ytick_2">
     <g id="line2d_13">
      <path d="M 162 415.287041 
L 1166.4 415.287041 
" clip-path="url(#p851654cb42)" style="fill: none; stroke: #b0b0b0; stroke-width: 0.8; stroke-linecap: square"/>
     </g>
     <g id="line2d_14">
      <g>
       <use xlink:href="#ma0ae426500" x="162" y="415.287041" style="stroke: #000000; stroke-width: 0.8"/>
      </g>
     </g>
     <g id="text_7">
      <!-- 20 -->
      <g transform="translate(141 420.099541) scale(0.14 -0.14)">
       <use xlink:href="#SimHei-32"/>
       <use xlink:href="#SimHei-30" x="50"/>
      </g>
     </g>
    </g>
    <g id="ytick_3">
     <g id="line2d_15">
      <path d="M 162 345.479697 
L 1166.4 345.479697 
" clip-path="url(#p851654cb42)" style="fill: none; stroke: #b0b0b0; stroke-width: 0.8; stroke-linecap: square"/>
     </g>
     <g id="line2d_16">
      <g>
       <use xlink:href="#ma0ae426500" x="162" y="345.479697" style="stroke: #000000; stroke-width: 0.8"/>
      </g>
     </g>
     <g id="text_8">
      <!-- 30 -->
      <g transform="translate(141 350.292197) scale(0.14 -0.14)">
       <defs>
        <path id="SimHei-33" d="M 250 1225 
L 700 1300 
Q 800 975 1025 762 
Q 1250 550 1587 562 
Q 1925 575 2125 837 
Q 2325 1100 2300 1437 
Q 2275 1775 2037 1962 
Q 1800 2150 1275 2225 
L 1275 2550 
Q 1800 2600 2037 2825 
Q 2275 3050 2250 3412 
Q 2225 3775 1925 3937 
Q 1625 4100 1287 3975 
Q 950 3850 750 3275 
L 300 3350 
Q 450 3800 712 4100 
Q 975 4400 1425 4450 
Q 1875 4500 2212 4337 
Q 2550 4175 2687 3837 
Q 2825 3500 2725 3100 
Q 2625 2700 2150 2400 
Q 2500 2250 2687 1950 
Q 2875 1650 2812 1162 
Q 2750 675 2375 375 
Q 2000 75 1525 87 
Q 1050 100 700 387 
Q 350 675 250 1225 
z
" transform="scale(0.015625)"/>
       </defs>
       <use xlink:href="#SimHei-33"/>
       <use xlink:href="#SimHei-30" x="50"/>
      </g>
     </g>
    </g>
    <g id="ytick_4">
     <g id="line2d_17">
      <path d="M 162 275.672352 
L 1166.4 275.672352 
" clip-path="url(#p851654cb42)" style="fill: none; stroke: #b0b0b0; stroke-width: 0.8; stroke-linecap: square"/>
     </g>
     <g id="line2d_18">
      <g>
       <use xlink:href="#ma0ae426500" x="162" y="275.672352" style="stroke: #000000; stroke-width: 0.8"/>
      </g>
     </g>
     <g id="text_9">
      <!-- 40 -->
      <g transform="translate(141 280.484852) scale(0.14 -0.14)">
       <defs>
        <path id="SimHei-34" d="M 2000 1100 
L 75 1100 
L 75 1525 
L 2100 4450 
L 2475 4450 
L 2475 1525 
L 3075 1525 
L 3075 1100 
L 2475 1100 
L 2475 150 
L 2000 150 
L 2000 1100 
z
M 2000 1525 
L 2000 3500 
L 600 1525 
L 2000 1525 
z
" transform="scale(0.015625)"/>
       </defs>
       <use xlink:href="#SimHei-34"/>
       <use xlink:href="#SimHei-30" x="50"/>
      </g>
     </g>
    </g>
    <g id="ytick_5">
     <g id="line2d_19">
      <path d="M 162 205.865008 
L 1166.4 205.865008 
" clip-path="url(#p851654cb42)" style="fill: none; stroke: #b0b0b0; stroke-width: 0.8; stroke-linecap: square"/>
     </g>
     <g id="line2d_20">
      <g>
       <use xlink:href="#ma0ae426500" x="162" y="205.865008" style="stroke: #000000; stroke-width: 0.8"/>
      </g>
     </g>
     <g id="text_10">
      <!-- 50 -->
      <g transform="translate(141 210.677508) scale(0.14 -0.14)">
       <use xlink:href="#SimHei-35"/>
       <use xlink:href="#SimHei-30" x="50"/>
      </g>
     </g>
    </g>
    <g id="ytick_6">
     <g id="line2d_21">
      <path d="M 162 136.057663 
L 1166.4 136.057663 
" clip-path="url(#p851654cb42)" style="fill: none; stroke: #b0b0b0; stroke-width: 0.8; stroke-linecap: square"/>
     </g>
     <g id="line2d_22">
      <g>
       <use xlink:href="#ma0ae426500" x="162" y="136.057663" style="stroke: #000000; stroke-width: 0.8"/>
      </g>
     </g>
     <g id="text_11">
      <!-- 60 -->
      <g transform="translate(141 140.870163) scale(0.14 -0.14)">
       <defs>
        <path id="SimHei-36" d="M 250 1612 
Q 275 1975 387 2225 
Q 500 2475 725 2850 
L 1750 4450 
L 2325 4450 
L 1275 2800 
Q 1950 2975 2350 2750 
Q 2750 2525 2887 2237 
Q 3025 1950 3037 1612 
Q 3050 1275 2937 950 
Q 2825 625 2537 362 
Q 2250 100 1737 75 
Q 1225 50 862 262 
Q 500 475 362 862 
Q 225 1250 250 1612 
z
M 1025 787 
Q 1250 550 1625 525 
Q 2000 500 2250 775 
Q 2500 1050 2500 1575 
Q 2500 2100 2187 2300 
Q 1875 2500 1487 2450 
Q 1100 2400 925 2075 
Q 750 1750 775 1387 
Q 800 1025 1025 787 
z
" transform="scale(0.015625)"/>
       </defs>
       <use xlink:href="#SimHei-36"/>
       <use xlink:href="#SimHei-30" x="50"/>
      </g>
     </g>
    </g>
    <g id="text_12">
     <!-- 充电量(Ah) -->
     <g transform="translate(135 330.88) rotate(-90) scale(0.16 -0.16)">
      <defs>
       <path id="SimHei-5145" d="M 3325 5175 
Q 3425 4825 3600 4300 
L 4900 4300 
Q 5425 4300 5775 4325 
L 5775 3825 
Q 5525 3850 4925 3850 
L 2675 3850 
Q 2850 3700 3100 3550 
Q 2775 3400 1875 2675 
L 4475 2750 
Q 4275 2975 3900 3275 
Q 4150 3450 4275 3600 
Q 5250 2775 5625 2350 
Q 5400 2200 5200 1975 
Q 5000 2225 4800 2425 
Q 4475 2400 4100 2375 
L 4100 325 
Q 4100 0 4425 0 
L 5125 0 
Q 5325 0 5375 175 
Q 5425 350 5475 800 
Q 5850 625 6075 600 
Q 5875 -250 5700 -350 
Q 5525 -450 5275 -450 
L 4225 -450 
Q 3650 -450 3650 75 
L 3650 2325 
L 2650 2250 
Q 2675 -75 800 -650 
Q 650 -375 400 -225 
Q 2225 275 2175 2200 
Q 1550 2150 1175 2050 
Q 1100 2450 1025 2725 
Q 1575 2875 1900 3200 
Q 2225 3525 2475 3850 
L 1450 3850 
Q 1025 3850 575 3825 
L 575 4325 
Q 1025 4300 1450 4300 
L 3000 4300 
Q 2875 4725 2750 5025 
Q 3075 5100 3325 5175 
z
" transform="scale(0.015625)"/>
       <path id="SimHei-7535" d="M 6150 325 
Q 5975 -250 5825 -412 
Q 5675 -575 5325 -575 
L 3375 -575 
Q 2700 -600 2675 100 
L 2675 975 
L 1225 975 
L 1225 500 
L 650 500 
Q 675 750 675 2225 
Q 675 3700 650 4150 
L 2675 4150 
Q 2675 4825 2650 5200 
L 3200 5200 
Q 3175 4875 3175 4150 
L 5200 4150 
Q 5175 3775 5175 2600 
Q 5175 1450 5200 975 
L 3175 975 
L 3175 300 
Q 3175 -150 3650 -150 
L 4975 -150 
Q 5375 -150 5450 25 
Q 5525 200 5575 575 
Q 5825 400 6150 325 
z
M 4675 1400 
L 4675 2400 
L 3175 2400 
L 3175 1400 
L 4675 1400 
z
M 2675 1400 
L 2675 2400 
L 1225 2400 
L 1225 1400 
L 2675 1400 
z
M 4675 2800 
L 4675 3725 
L 3175 3725 
L 3175 2800 
L 4675 2800 
z
M 2675 2800 
L 2675 3725 
L 1225 3725 
L 1225 2800 
L 2675 2800 
z
" transform="scale(0.015625)"/>
       <path id="SimHei-91cf" d="M 5250 2500 
Q 5225 2200 5225 1700 
Q 5225 1225 5250 950 
L 3425 950 
L 3425 625 
L 4575 625 
Q 5000 625 5375 650 
L 5375 275 
Q 5025 300 4575 300 
L 3425 300 
L 3425 -75 
L 5125 -75 
Q 5525 -75 5925 -50 
L 5925 -425 
Q 5525 -400 5125 -400 
L 1275 -400 
Q 900 -400 475 -425 
L 475 -50 
Q 925 -50 1275 -75 
L 2975 -75 
L 2975 300 
L 1725 300 
Q 1350 300 975 250 
L 975 650 
Q 1375 625 1725 625 
L 2975 625 
L 2975 950 
L 1150 950 
Q 1175 1375 1175 1775 
Q 1175 2175 1150 2500 
L 5250 2500 
z
M 5200 4950 
Q 5175 4575 5175 4250 
Q 5175 3925 5200 3400 
L 1200 3400 
Q 1225 3925 1225 4250 
Q 1225 4575 1200 4950 
L 5200 4950 
z
M 4900 3100 
Q 5500 3125 6000 3150 
L 6000 2750 
Q 5500 2775 4925 2775 
L 1650 2775 
Q 975 2775 325 2750 
L 325 3150 
Q 975 3125 1650 3100 
L 4900 3100 
z
M 4725 3700 
L 4725 4025 
L 1675 4025 
L 1675 3700 
L 4725 3700 
z
M 4725 4350 
L 4725 4650 
L 1675 4650 
L 1675 4350 
L 4725 4350 
z
M 4750 1875 
L 4750 2175 
L 3425 2175 
L 3425 1875 
L 4750 1875 
z
M 2975 1875 
L 2975 2175 
L 1650 2175 
L 1650 1875 
L 2975 1875 
z
M 2975 1275 
L 2975 1550 
L 1650 1550 
L 1650 1275 
L 2975 1275 
z
M 4750 1275 
L 4750 1550 
L 3425 1550 
L 3425 1275 
L 4750 1275 
z
" transform="scale(0.015625)"/>
       <path id="SimHei-28" d="M 2975 -200 
L 2700 -475 
Q 2075 125 1762 775 
Q 1450 1425 1450 2250 
Q 1450 3075 1762 3725 
Q 2075 4375 2700 5000 
L 2975 4725 
Q 2400 4175 2112 3587 
Q 1825 3000 1825 2250 
Q 1825 1500 2112 912 
Q 2400 325 2975 -200 
z
" transform="scale(0.015625)"/>
       <path id="SimHei-41" d="M 3075 125 
L 2475 125 
L 2125 1450 
L 1025 1450 
L 675 125 
L 75 125 
L 1325 4450 
L 1825 4450 
L 3075 125 
z
M 2000 1925 
L 1600 3450 
L 1550 3450 
L 1150 1925 
L 2000 1925 
z
" transform="scale(0.015625)"/>
       <path id="SimHei-68" d="M 2800 125 
L 2300 125 
L 2300 1925 
Q 2300 2225 2150 2400 
Q 2000 2575 1750 2575 
Q 1425 2575 1137 2237 
Q 850 1900 850 1400 
L 850 125 
L 350 125 
L 350 4400 
L 850 4400 
L 850 2400 
Q 1050 2675 1287 2825 
Q 1525 2975 1900 2975 
Q 2350 2975 2575 2725 
Q 2800 2475 2800 2100 
L 2800 125 
z
" transform="scale(0.015625)"/>
       <path id="SimHei-29" d="M 1675 2250 
Q 1675 1425 1362 775 
Q 1050 125 425 -475 
L 150 -200 
Q 725 325 1012 912 
Q 1300 1500 1300 2250 
Q 1300 3000 1012 3587 
Q 725 4175 150 4725 
L 425 5000 
Q 1050 4375 1362 3725 
Q 1675 3075 1675 2250 
z
" transform="scale(0.015625)"/>
      </defs>
      <use xlink:href="#SimHei-5145"/>
      <use xlink:href="#SimHei-7535" x="100"/>
      <use xlink:href="#SimHei-91cf" x="200"/>
      <use xlink:href="#SimHei-28" x="300"/>
      <use xlink:href="#SimHei-41" x="350"/>
      <use xlink:href="#SimHei-68" x="400"/>
      <use xlink:href="#SimHei-29" x="450"/>
     </g>
    </g>
   </g>
   <g id="line2d_23">
    <path d="M 207.654545 135.806362 
L 211.843036 165.949179 
L 216.031526 191.058881 
L 220.220017 123.925154 
L 224.408507 171.331324 
L 228.596997 164.490208 
L 232.785488 107.946243 
L 236.973978 110.654771 
L 241.162469 134.193819 
L 245.350959 124.839634 
L 249.53945 134.863948 
L 253.72794 158.577525 
L 257.91643 167.980575 
L 262.104921 121.021166 
L 266.293411 122.228835 
L 270.481902 156.197071 
L 274.670392 144.581145 
L 278.858882 169.362747 
L 283.047373 121.663387 
L 287.235863 164.106265 
L 291.424354 108.518668 
L 295.612844 98.243026 
L 299.801334 168.378471 
L 303.989825 130.417239 
L 308.178315 150.005178 
L 312.366806 178.228283 
L 316.555296 176.853088 
L 320.743786 164.748486 
L 324.932277 130.773248 
L 329.120767 130.012339 
L 333.309258 148.727687 
L 337.497748 160.106291 
L 341.686239 142.270513 
L 345.874729 122.270723 
L 350.063219 147.457199 
L 354.25171 110.061415 
L 358.4402 119.031658 
L 362.628691 161.662992 
L 366.817181 109.258619 
L 371.005671 154.13079 
L 375.194162 159.254657 
L 379.382652 143.464228 
L 383.571143 133.411954 
L 387.759633 107.373817 
L 391.948123 160.587964 
L 396.136614 167.01723 
L 400.325104 150.444963 
L 404.513595 137.949442 
L 408.702085 166.49367 
L 412.890575 118.424321 
L 417.079066 94.633998 
L 421.267556 232.859512 
L 425.456047 179.847802 
L 433.833028 268.607842 
L 438.021518 195.93142 
L 442.210008 125.272441 
L 446.398499 163.903802 
L 450.586989 155.959749 
L 454.77548 237.145672 
L 458.96397 356.907153 
L 463.15246 460.347682 
L 467.340951 462.518689 
L 471.529441 442.672465 
L 475.717932 428.285165 
L 479.906422 469.855445 
L 484.094912 105.600726 
L 488.283403 161.397737 
L 492.471893 109.035252 
L 496.660384 115.436584 
L 500.848874 328.32105 
L 505.037364 112.748986 
L 509.225855 162.947461 
L 513.414345 118.096221 
L 517.602836 118.654692 
L 521.791326 128.672056 
L 525.979817 186.877402 
L 530.168307 144.427573 
L 534.356797 112.56748 
L 538.545288 125.921639 
L 542.733778 184.538862 
L 546.922269 142.563702 
L 551.110759 137.670206 
L 555.299249 176.629694 
L 559.48774 109.551808 
L 563.67623 174.989217 
L 567.864721 110.787412 
L 572.053211 144.113426 
L 576.241701 123.115381 
L 580.430192 147.722481 
L 584.618682 123.038582 
L 588.807173 180.880969 
L 592.995663 112.344113 
L 597.184153 118.773353 
L 601.372644 275.609534 
L 605.561134 280.09813 
L 609.749625 447.202956 
L 613.938115 421.827991 
L 618.126606 445.646255 
L 622.315096 443.391478 
L 626.503586 459.558859 
L 630.692077 434.854036 
L 634.880567 434.218792 
L 639.069058 455.747375 
L 643.257548 438.162911 
L 647.446038 433.241494 
L 651.634529 141.600358 
L 655.823019 144.155314 
L 664.2 119.30389 
L 668.38849 154.65435 
L 672.576981 103.715898 
L 676.765471 180.37834 
L 680.953962 140.092522 
L 685.142452 163.477998 
L 689.330942 103.380847 
L 693.519433 126.626679 
L 697.707923 162.647268 
L 701.896414 187.072861 
L 706.084904 118.417344 
L 710.273394 97.824199 
L 714.461885 150.235523 
L 718.650375 154.109832 
L 722.838866 137.984353 
L 727.027356 151.869023 
L 731.215847 128.70694 
L 735.404337 150.410052 
L 739.592827 124.32305 
L 743.781318 122.801261 
L 747.969808 140.609105 
L 752.158299 182.73086 
L 756.346789 176.182933 
L 760.535279 173.572134 
L 764.72377 130.382328 
L 768.91226 115.876368 
L 773.100751 259.874947 
L 777.289241 251.428265 
L 781.477731 269.277997 
L 785.666222 206.779488 
L 789.854712 327.664875 
L 794.043203 452.857354 
L 798.231693 183.526652 
L 802.420183 460.787466 
L 806.608674 459.08417 
L 810.797164 441.408954 
L 814.985655 440.431642 
L 819.174145 451.32159 
L 823.362636 207.763763 
L 827.551126 245.103705 
L 831.739616 226.15101 
L 835.928107 196.091969 
L 840.116597 142.200717 
L 844.305088 94.38267 
L 848.493578 165.488437 
L 852.682068 130.815136 
L 856.870559 118.675623 
L 861.059049 295.993265 
L 865.24754 391.140683 
L 869.43603 268.328633 
L 873.62452 122.773327 
L 877.813011 133.747031 
L 882.001501 139.450301 
L 886.189992 206.451387 
L 890.378482 352.956057 
L 894.566972 357.758814 
L 898.755463 402.875296 
L 902.943953 248.908219 
L 907.132444 146.026162 
L 911.320934 154.200585 
L 915.509425 123.5063 
L 919.697915 127.750599 
L 923.886405 272.363491 
L 928.074896 172.664631 
L 932.263386 240.140413 
L 936.451877 180.476069 
L 940.640367 181.453368 
L 944.828857 141.907528 
L 949.017348 99.415784 
L 953.205838 140.567217 
L 957.394329 137.628318 
L 961.582819 349.891521 
L 965.771309 162.598403 
L 969.9598 166.137635 
L 974.14829 131.603951 
L 978.336781 173.03462 
L 982.525271 358.456877 
L 986.713761 492.48 
L 990.902252 348.788571 
L 995.090742 154.389068 
L 999.279233 144.504346 
L 1003.467723 134.075132 
L 1007.656214 108.169637 
L 1011.844704 122.549933 
L 1016.033194 154.270408 
L 1020.221685 265.403687 
L 1024.410175 245.801794 
L 1028.598666 251.553902 
L 1032.787156 263.721322 
L 1036.975646 251.721454 
L 1041.164137 454.581593 
L 1045.352627 417.960658 
L 1049.541118 439.14021 
L 1053.729608 439.244916 
L 1057.918098 454.190674 
L 1062.106589 451.531017 
L 1066.295079 462.567554 
L 1070.48357 452.145317 
L 1074.67206 438.937773 
L 1078.86055 146.158776 
L 1083.049041 157.865482 
L 1087.237531 125.921639 
L 1091.426022 167.631517 
L 1095.614512 145.314119 
L 1099.803003 184.043236 
L 1103.991493 169.076534 
L 1108.179983 155.408255 
L 1112.368474 94.661906 
L 1116.556964 120.853614 
L 1120.745455 119.659925 
L 1120.745455 119.659925 
" clip-path="url(#p851654cb42)" style="fill: none; stroke: #ff0000; stroke-width: 1.5; stroke-linecap: square"/>
    <defs>
     <path id="md81ecf4ab8" d="M 0 2 
C 0.530406 2 1.03916 1.789267 1.414214 1.414214 
C 1.789267 1.03916 2 0.530406 2 0 
C 2 -0.530406 1.789267 -1.03916 1.414214 -1.414214 
C 1.03916 -1.789267 0.530406 -2 0 -2 
C -0.530406 -2 -1.03916 -1.789267 -1.414214 -1.414214 
C -1.789267 -1.03916 -2 -0.530406 -2 0 
C -2 0.530406 -1.789267 1.03916 -1.414214 1.414214 
C -1.03916 1.789267 -0.530406 2 0 2 
z
" style="stroke: #ff0000"/>
    </defs>
    <g clip-path="url(#p851654cb42)">
     <use xlink:href="#md81ecf4ab8" x="207.654545" y="135.806362" style="fill: #ff0000; stroke: #ff0000"/>
     <use xlink:href="#md81ecf4ab8" x="211.843036" y="165.949179" style="fill: #ff0000; stroke: #ff0000"/>
     <use xlink:href="#md81ecf4ab8" x="216.031526" y="191.058881" style="fill: #ff0000; stroke: #ff0000"/>
     <use xlink:href="#md81ecf4ab8" x="220.220017" y="123.925154" style="fill: #ff0000; stroke: #ff0000"/>
     <use xlink:href="#md81ecf4ab8" x="224.408507" y="171.331324" style="fill: #ff0000; stroke: #ff0000"/>
     <use xlink:href="#md81ecf4ab8" x="228.596997" y="164.490208" style="fill: #ff0000; stroke: #ff0000"/>
     <use xlink:href="#md81ecf4ab8" x="232.785488" y="107.946243" style="fill: #ff0000; stroke: #ff0000"/>
     <use xlink:href="#md81ecf4ab8" x="236.973978" y="110.654771" style="fill: #ff0000; stroke: #ff0000"/>
     <use xlink:href="#md81ecf4ab8" x="241.162469" y="134.193819" style="fill: #ff0000; stroke: #ff0000"/>
     <use xlink:href="#md81ecf4ab8" x="245.350959" y="124.839634" style="fill: #ff0000; stroke: #ff0000"/>
     <use xlink:href="#md81ecf4ab8" x="249.53945" y="134.863948" style="fill: #ff0000; stroke: #ff0000"/>
     <use xlink:href="#md81ecf4ab8" x="253.72794" y="158.577525" style="fill: #ff0000; stroke: #ff0000"/>
     <use xlink:href="#md81ecf4ab8" x="257.91643" y="167.980575" style="fill: #ff0000; stroke: #ff0000"/>
     <use xlink:href="#md81ecf4ab8" x="262.104921" y="121.021166" style="fill: #ff0000; stroke: #ff0000"/>
     <use xlink:href="#md81ecf4ab8" x="266.293411" y="122.228835" style="fill: #ff0000; stroke: #ff0000"/>
     <use xlink:href="#md81ecf4ab8" x="270.481902" y="156.197071" style="fill: #ff0000; stroke: #ff0000"/>
     <use xlink:href="#md81ecf4ab8" x="274.670392" y="144.581145" style="fill: #ff0000; stroke: #ff0000"/>
     <use xlink:href="#md81ecf4ab8" x="278.858882" y="169.362747" style="fill: #ff0000; stroke: #ff0000"/>
     <use xlink:href="#md81ecf4ab8" x="283.047373" y="121.663387" style="fill: #ff0000; stroke: #ff0000"/>
     <use xlink:href="#md81ecf4ab8" x="287.235863" y="164.106265" style="fill: #ff0000; stroke: #ff0000"/>
     <use xlink:href="#md81ecf4ab8" x="291.424354" y="108.518668" style="fill: #ff0000; stroke: #ff0000"/>
     <use xlink:href="#md81ecf4ab8" x="295.612844" y="98.243026" style="fill: #ff0000; stroke: #ff0000"/>
     <use xlink:href="#md81ecf4ab8" x="299.801334" y="168.378471" style="fill: #ff0000; stroke: #ff0000"/>
     <use xlink:href="#md81ecf4ab8" x="303.989825" y="130.417239" style="fill: #ff0000; stroke: #ff0000"/>
     <use xlink:href="#md81ecf4ab8" x="308.178315" y="150.005178" style="fill: #ff0000; stroke: #ff0000"/>
     <use xlink:href="#md81ecf4ab8" x="312.366806" y="178.228283" style="fill: #ff0000; stroke: #ff0000"/>
     <use xlink:href="#md81ecf4ab8" x="316.555296" y="176.853088" style="fill: #ff0000; stroke: #ff0000"/>
     <use xlink:href="#md81ecf4ab8" x="320.743786" y="164.748486" style="fill: #ff0000; stroke: #ff0000"/>
     <use xlink:href="#md81ecf4ab8" x="324.932277" y="130.773248" style="fill: #ff0000; stroke: #ff0000"/>
     <use xlink:href="#md81ecf4ab8" x="329.120767" y="130.012339" style="fill: #ff0000; stroke: #ff0000"/>
     <use xlink:href="#md81ecf4ab8" x="333.309258" y="148.727687" style="fill: #ff0000; stroke: #ff0000"/>
     <use xlink:href="#md81ecf4ab8" x="337.497748" y="160.106291" style="fill: #ff0000; stroke: #ff0000"/>
     <use xlink:href="#md81ecf4ab8" x="341.686239" y="142.270513" style="fill: #ff0000; stroke: #ff0000"/>
     <use xlink:href="#md81ecf4ab8" x="345.874729" y="122.270723" style="fill: #ff0000; stroke: #ff0000"/>
     <use xlink:href="#md81ecf4ab8" x="350.063219" y="147.457199" style="fill: #ff0000; stroke: #ff0000"/>
     <use xlink:href="#md81ecf4ab8" x="354.25171" y="110.061415" style="fill: #ff0000; stroke: #ff0000"/>
     <use xlink:href="#md81ecf4ab8" x="358.4402" y="119.031658" style="fill: #ff0000; stroke: #ff0000"/>
     <use xlink:href="#md81ecf4ab8" x="362.628691" y="161.662992" style="fill: #ff0000; stroke: #ff0000"/>
     <use xlink:href="#md81ecf4ab8" x="366.817181" y="109.258619" style="fill: #ff0000; stroke: #ff0000"/>
     <use xlink:href="#md81ecf4ab8" x="371.005671" y="154.13079" style="fill: #ff0000; stroke: #ff0000"/>
     <use xlink:href="#md81ecf4ab8" x="375.194162" y="159.254657" style="fill: #ff0000; stroke: #ff0000"/>
     <use xlink:href="#md81ecf4ab8" x="379.382652" y="143.464228" style="fill: #ff0000; stroke: #ff0000"/>
     <use xlink:href="#md81ecf4ab8" x="383.571143" y="133.411954" style="fill: #ff0000; stroke: #ff0000"/>
     <use xlink:href="#md81ecf4ab8" x="387.759633" y="107.373817" style="fill: #ff0000; stroke: #ff0000"/>
     <use xlink:href="#md81ecf4ab8" x="391.948123" y="160.587964" style="fill: #ff0000; stroke: #ff0000"/>
     <use xlink:href="#md81ecf4ab8" x="396.136614" y="167.01723" style="fill: #ff0000; stroke: #ff0000"/>
     <use xlink:href="#md81ecf4ab8" x="400.325104" y="150.444963" style="fill: #ff0000; stroke: #ff0000"/>
     <use xlink:href="#md81ecf4ab8" x="404.513595" y="137.949442" style="fill: #ff0000; stroke: #ff0000"/>
     <use xlink:href="#md81ecf4ab8" x="408.702085" y="166.49367" style="fill: #ff0000; stroke: #ff0000"/>
     <use xlink:href="#md81ecf4ab8" x="412.890575" y="118.424321" style="fill: #ff0000; stroke: #ff0000"/>
     <use xlink:href="#md81ecf4ab8" x="417.079066" y="94.633998" style="fill: #ff0000; stroke: #ff0000"/>
     <use xlink:href="#md81ecf4ab8" x="421.267556" y="232.859512" style="fill: #ff0000; stroke: #ff0000"/>
     <use xlink:href="#md81ecf4ab8" x="425.456047" y="179.847802" style="fill: #ff0000; stroke: #ff0000"/>
     <use xlink:href="#md81ecf4ab8" x="429.644537" y="223.69381" style="fill: #ff0000; stroke: #ff0000"/>
     <use xlink:href="#md81ecf4ab8" x="433.833028" y="268.607842" style="fill: #ff0000; stroke: #ff0000"/>
     <use xlink:href="#md81ecf4ab8" x="438.021518" y="195.93142" style="fill: #ff0000; stroke: #ff0000"/>
     <use xlink:href="#md81ecf4ab8" x="442.210008" y="125.272441" style="fill: #ff0000; stroke: #ff0000"/>
     <use xlink:href="#md81ecf4ab8" x="446.398499" y="163.903802" style="fill: #ff0000; stroke: #ff0000"/>
     <use xlink:href="#md81ecf4ab8" x="450.586989" y="155.959749" style="fill: #ff0000; stroke: #ff0000"/>
     <use xlink:href="#md81ecf4ab8" x="454.77548" y="237.145672" style="fill: #ff0000; stroke: #ff0000"/>
     <use xlink:href="#md81ecf4ab8" x="458.96397" y="356.907153" style="fill: #ff0000; stroke: #ff0000"/>
     <use xlink:href="#md81ecf4ab8" x="463.15246" y="460.347682" style="fill: #ff0000; stroke: #ff0000"/>
     <use xlink:href="#md81ecf4ab8" x="467.340951" y="462.518689" style="fill: #ff0000; stroke: #ff0000"/>
     <use xlink:href="#md81ecf4ab8" x="471.529441" y="442.672465" style="fill: #ff0000; stroke: #ff0000"/>
     <use xlink:href="#md81ecf4ab8" x="475.717932" y="428.285165" style="fill: #ff0000; stroke: #ff0000"/>
     <use xlink:href="#md81ecf4ab8" x="479.906422" y="469.855445" style="fill: #ff0000; stroke: #ff0000"/>
     <use xlink:href="#md81ecf4ab8" x="484.094912" y="105.600726" style="fill: #ff0000; stroke: #ff0000"/>
     <use xlink:href="#md81ecf4ab8" x="488.283403" y="161.397737" style="fill: #ff0000; stroke: #ff0000"/>
     <use xlink:href="#md81ecf4ab8" x="492.471893" y="109.035252" style="fill: #ff0000; stroke: #ff0000"/>
     <use xlink:href="#md81ecf4ab8" x="496.660384" y="115.436584" style="fill: #ff0000; stroke: #ff0000"/>
     <use xlink:href="#md81ecf4ab8" x="500.848874" y="328.32105" style="fill: #ff0000; stroke: #ff0000"/>
     <use xlink:href="#md81ecf4ab8" x="505.037364" y="112.748986" style="fill: #ff0000; stroke: #ff0000"/>
     <use xlink:href="#md81ecf4ab8" x="509.225855" y="162.947461" style="fill: #ff0000; stroke: #ff0000"/>
     <use xlink:href="#md81ecf4ab8" x="513.414345" y="118.096221" style="fill: #ff0000; stroke: #ff0000"/>
     <use xlink:href="#md81ecf4ab8" x="517.602836" y="118.654692" style="fill: #ff0000; stroke: #ff0000"/>
     <use xlink:href="#md81ecf4ab8" x="521.791326" y="128.672056" style="fill: #ff0000; stroke: #ff0000"/>
     <use xlink:href="#md81ecf4ab8" x="525.979817" y="186.877402" style="fill: #ff0000; stroke: #ff0000"/>
     <use xlink:href="#md81ecf4ab8" x="530.168307" y="144.427573" style="fill: #ff0000; stroke: #ff0000"/>
     <use xlink:href="#md81ecf4ab8" x="534.356797" y="112.56748" style="fill: #ff0000; stroke: #ff0000"/>
     <use xlink:href="#md81ecf4ab8" x="538.545288" y="125.921639" style="fill: #ff0000; stroke: #ff0000"/>
     <use xlink:href="#md81ecf4ab8" x="542.733778" y="184.538862" style="fill: #ff0000; stroke: #ff0000"/>
     <use xlink:href="#md81ecf4ab8" x="546.922269" y="142.563702" style="fill: #ff0000; stroke: #ff0000"/>
     <use xlink:href="#md81ecf4ab8" x="551.110759" y="137.670206" style="fill: #ff0000; stroke: #ff0000"/>
     <use xlink:href="#md81ecf4ab8" x="555.299249" y="176.629694" style="fill: #ff0000; stroke: #ff0000"/>
     <use xlink:href="#md81ecf4ab8" x="559.48774" y="109.551808" style="fill: #ff0000; stroke: #ff0000"/>
     <use xlink:href="#md81ecf4ab8" x="563.67623" y="174.989217" style="fill: #ff0000; stroke: #ff0000"/>
     <use xlink:href="#md81ecf4ab8" x="567.864721" y="110.787412" style="fill: #ff0000; stroke: #ff0000"/>
     <use xlink:href="#md81ecf4ab8" x="572.053211" y="144.113426" style="fill: #ff0000; stroke: #ff0000"/>
     <use xlink:href="#md81ecf4ab8" x="576.241701" y="123.115381" style="fill: #ff0000; stroke: #ff0000"/>
     <use xlink:href="#md81ecf4ab8" x="580.430192" y="147.722481" style="fill: #ff0000; stroke: #ff0000"/>
     <use xlink:href="#md81ecf4ab8" x="584.618682" y="123.038582" style="fill: #ff0000; stroke: #ff0000"/>
     <use xlink:href="#md81ecf4ab8" x="588.807173" y="180.880969" style="fill: #ff0000; stroke: #ff0000"/>
     <use xlink:href="#md81ecf4ab8" x="592.995663" y="112.344113" style="fill: #ff0000; stroke: #ff0000"/>
     <use xlink:href="#md81ecf4ab8" x="597.184153" y="118.773353" style="fill: #ff0000; stroke: #ff0000"/>
     <use xlink:href="#md81ecf4ab8" x="601.372644" y="275.609534" style="fill: #ff0000; stroke: #ff0000"/>
     <use xlink:href="#md81ecf4ab8" x="605.561134" y="280.09813" style="fill: #ff0000; stroke: #ff0000"/>
     <use xlink:href="#md81ecf4ab8" x="609.749625" y="447.202956" style="fill: #ff0000; stroke: #ff0000"/>
     <use xlink:href="#md81ecf4ab8" x="613.938115" y="421.827991" style="fill: #ff0000; stroke: #ff0000"/>
     <use xlink:href="#md81ecf4ab8" x="618.126606" y="445.646255" style="fill: #ff0000; stroke: #ff0000"/>
     <use xlink:href="#md81ecf4ab8" x="622.315096" y="443.391478" style="fill: #ff0000; stroke: #ff0000"/>
     <use xlink:href="#md81ecf4ab8" x="626.503586" y="459.558859" style="fill: #ff0000; stroke: #ff0000"/>
     <use xlink:href="#md81ecf4ab8" x="630.692077" y="434.854036" style="fill: #ff0000; stroke: #ff0000"/>
     <use xlink:href="#md81ecf4ab8" x="634.880567" y="434.218792" style="fill: #ff0000; stroke: #ff0000"/>
     <use xlink:href="#md81ecf4ab8" x="639.069058" y="455.747375" style="fill: #ff0000; stroke: #ff0000"/>
     <use xlink:href="#md81ecf4ab8" x="643.257548" y="438.162911" style="fill: #ff0000; stroke: #ff0000"/>
     <use xlink:href="#md81ecf4ab8" x="647.446038" y="433.241494" style="fill: #ff0000; stroke: #ff0000"/>
     <use xlink:href="#md81ecf4ab8" x="651.634529" y="141.600358" style="fill: #ff0000; stroke: #ff0000"/>
     <use xlink:href="#md81ecf4ab8" x="655.823019" y="144.155314" style="fill: #ff0000; stroke: #ff0000"/>
     <use xlink:href="#md81ecf4ab8" x="660.01151" y="131.680751" style="fill: #ff0000; stroke: #ff0000"/>
     <use xlink:href="#md81ecf4ab8" x="664.2" y="119.30389" style="fill: #ff0000; stroke: #ff0000"/>
     <use xlink:href="#md81ecf4ab8" x="668.38849" y="154.65435" style="fill: #ff0000; stroke: #ff0000"/>
     <use xlink:href="#md81ecf4ab8" x="672.576981" y="103.715898" style="fill: #ff0000; stroke: #ff0000"/>
     <use xlink:href="#md81ecf4ab8" x="676.765471" y="180.37834" style="fill: #ff0000; stroke: #ff0000"/>
     <use xlink:href="#md81ecf4ab8" x="680.953962" y="140.092522" style="fill: #ff0000; stroke: #ff0000"/>
     <use xlink:href="#md81ecf4ab8" x="685.142452" y="163.477998" style="fill: #ff0000; stroke: #ff0000"/>
     <use xlink:href="#md81ecf4ab8" x="689.330942" y="103.380847" style="fill: #ff0000; stroke: #ff0000"/>
     <use xlink:href="#md81ecf4ab8" x="693.519433" y="126.626679" style="fill: #ff0000; stroke: #ff0000"/>
     <use xlink:href="#md81ecf4ab8" x="697.707923" y="162.647268" style="fill: #ff0000; stroke: #ff0000"/>
     <use xlink:href="#md81ecf4ab8" x="701.896414" y="187.072861" style="fill: #ff0000; stroke: #ff0000"/>
     <use xlink:href="#md81ecf4ab8" x="706.084904" y="118.417344" style="fill: #ff0000; stroke: #ff0000"/>
     <use xlink:href="#md81ecf4ab8" x="710.273394" y="97.824199" style="fill: #ff0000; stroke: #ff0000"/>
     <use xlink:href="#md81ecf4ab8" x="714.461885" y="150.235523" style="fill: #ff0000; stroke: #ff0000"/>
     <use xlink:href="#md81ecf4ab8" x="718.650375" y="154.109832" style="fill: #ff0000; stroke: #ff0000"/>
     <use xlink:href="#md81ecf4ab8" x="722.838866" y="137.984353" style="fill: #ff0000; stroke: #ff0000"/>
     <use xlink:href="#md81ecf4ab8" x="727.027356" y="151.869023" style="fill: #ff0000; stroke: #ff0000"/>
     <use xlink:href="#md81ecf4ab8" x="731.215847" y="128.70694" style="fill: #ff0000; stroke: #ff0000"/>
     <use xlink:href="#md81ecf4ab8" x="735.404337" y="150.410052" style="fill: #ff0000; stroke: #ff0000"/>
     <use xlink:href="#md81ecf4ab8" x="739.592827" y="124.32305" style="fill: #ff0000; stroke: #ff0000"/>
     <use xlink:href="#md81ecf4ab8" x="743.781318" y="122.801261" style="fill: #ff0000; stroke: #ff0000"/>
     <use xlink:href="#md81ecf4ab8" x="747.969808" y="140.609105" style="fill: #ff0000; stroke: #ff0000"/>
     <use xlink:href="#md81ecf4ab8" x="752.158299" y="182.73086" style="fill: #ff0000; stroke: #ff0000"/>
     <use xlink:href="#md81ecf4ab8" x="756.346789" y="176.182933" style="fill: #ff0000; stroke: #ff0000"/>
     <use xlink:href="#md81ecf4ab8" x="760.535279" y="173.572134" style="fill: #ff0000; stroke: #ff0000"/>
     <use xlink:href="#md81ecf4ab8" x="764.72377" y="130.382328" style="fill: #ff0000; stroke: #ff0000"/>
     <use xlink:href="#md81ecf4ab8" x="768.91226" y="115.876368" style="fill: #ff0000; stroke: #ff0000"/>
     <use xlink:href="#md81ecf4ab8" x="773.100751" y="259.874947" style="fill: #ff0000; stroke: #ff0000"/>
     <use xlink:href="#md81ecf4ab8" x="777.289241" y="251.428265" style="fill: #ff0000; stroke: #ff0000"/>
     <use xlink:href="#md81ecf4ab8" x="781.477731" y="269.277997" style="fill: #ff0000; stroke: #ff0000"/>
     <use xlink:href="#md81ecf4ab8" x="785.666222" y="206.779488" style="fill: #ff0000; stroke: #ff0000"/>
     <use xlink:href="#md81ecf4ab8" x="789.854712" y="327.664875" style="fill: #ff0000; stroke: #ff0000"/>
     <use xlink:href="#md81ecf4ab8" x="794.043203" y="452.857354" style="fill: #ff0000; stroke: #ff0000"/>
     <use xlink:href="#md81ecf4ab8" x="798.231693" y="183.526652" style="fill: #ff0000; stroke: #ff0000"/>
     <use xlink:href="#md81ecf4ab8" x="802.420183" y="460.787466" style="fill: #ff0000; stroke: #ff0000"/>
     <use xlink:href="#md81ecf4ab8" x="806.608674" y="459.08417" style="fill: #ff0000; stroke: #ff0000"/>
     <use xlink:href="#md81ecf4ab8" x="810.797164" y="441.408954" style="fill: #ff0000; stroke: #ff0000"/>
     <use xlink:href="#md81ecf4ab8" x="814.985655" y="440.431642" style="fill: #ff0000; stroke: #ff0000"/>
     <use xlink:href="#md81ecf4ab8" x="819.174145" y="451.32159" style="fill: #ff0000; stroke: #ff0000"/>
     <use xlink:href="#md81ecf4ab8" x="823.362636" y="207.763763" style="fill: #ff0000; stroke: #ff0000"/>
     <use xlink:href="#md81ecf4ab8" x="827.551126" y="245.103705" style="fill: #ff0000; stroke: #ff0000"/>
     <use xlink:href="#md81ecf4ab8" x="831.739616" y="226.15101" style="fill: #ff0000; stroke: #ff0000"/>
     <use xlink:href="#md81ecf4ab8" x="835.928107" y="196.091969" style="fill: #ff0000; stroke: #ff0000"/>
     <use xlink:href="#md81ecf4ab8" x="840.116597" y="142.200717" style="fill: #ff0000; stroke: #ff0000"/>
     <use xlink:href="#md81ecf4ab8" x="844.305088" y="94.38267" style="fill: #ff0000; stroke: #ff0000"/>
     <use xlink:href="#md81ecf4ab8" x="848.493578" y="165.488437" style="fill: #ff0000; stroke: #ff0000"/>
     <use xlink:href="#md81ecf4ab8" x="852.682068" y="130.815136" style="fill: #ff0000; stroke: #ff0000"/>
     <use xlink:href="#md81ecf4ab8" x="856.870559" y="118.675623" style="fill: #ff0000; stroke: #ff0000"/>
     <use xlink:href="#md81ecf4ab8" x="861.059049" y="295.993265" style="fill: #ff0000; stroke: #ff0000"/>
     <use xlink:href="#md81ecf4ab8" x="865.24754" y="391.140683" style="fill: #ff0000; stroke: #ff0000"/>
     <use xlink:href="#md81ecf4ab8" x="869.43603" y="268.328633" style="fill: #ff0000; stroke: #ff0000"/>
     <use xlink:href="#md81ecf4ab8" x="873.62452" y="122.773327" style="fill: #ff0000; stroke: #ff0000"/>
     <use xlink:href="#md81ecf4ab8" x="877.813011" y="133.747031" style="fill: #ff0000; stroke: #ff0000"/>
     <use xlink:href="#md81ecf4ab8" x="882.001501" y="139.450301" style="fill: #ff0000; stroke: #ff0000"/>
     <use xlink:href="#md81ecf4ab8" x="886.189992" y="206.451387" style="fill: #ff0000; stroke: #ff0000"/>
     <use xlink:href="#md81ecf4ab8" x="890.378482" y="352.956057" style="fill: #ff0000; stroke: #ff0000"/>
     <use xlink:href="#md81ecf4ab8" x="894.566972" y="357.758814" style="fill: #ff0000; stroke: #ff0000"/>
     <use xlink:href="#md81ecf4ab8" x="898.755463" y="402.875296" style="fill: #ff0000; stroke: #ff0000"/>
     <use xlink:href="#md81ecf4ab8" x="902.943953" y="248.908219" style="fill: #ff0000; stroke: #ff0000"/>
     <use xlink:href="#md81ecf4ab8" x="907.132444" y="146.026162" style="fill: #ff0000; stroke: #ff0000"/>
     <use xlink:href="#md81ecf4ab8" x="911.320934" y="154.200585" style="fill: #ff0000; stroke: #ff0000"/>
     <use xlink:href="#md81ecf4ab8" x="915.509425" y="123.5063" style="fill: #ff0000; stroke: #ff0000"/>
     <use xlink:href="#md81ecf4ab8" x="919.697915" y="127.750599" style="fill: #ff0000; stroke: #ff0000"/>
     <use xlink:href="#md81ecf4ab8" x="923.886405" y="272.363491" style="fill: #ff0000; stroke: #ff0000"/>
     <use xlink:href="#md81ecf4ab8" x="928.074896" y="172.664631" style="fill: #ff0000; stroke: #ff0000"/>
     <use xlink:href="#md81ecf4ab8" x="932.263386" y="240.140413" style="fill: #ff0000; stroke: #ff0000"/>
     <use xlink:href="#md81ecf4ab8" x="936.451877" y="180.476069" style="fill: #ff0000; stroke: #ff0000"/>
     <use xlink:href="#md81ecf4ab8" x="940.640367" y="181.453368" style="fill: #ff0000; stroke: #ff0000"/>
     <use xlink:href="#md81ecf4ab8" x="944.828857" y="141.907528" style="fill: #ff0000; stroke: #ff0000"/>
     <use xlink:href="#md81ecf4ab8" x="949.017348" y="99.415784" style="fill: #ff0000; stroke: #ff0000"/>
     <use xlink:href="#md81ecf4ab8" x="953.205838" y="140.567217" style="fill: #ff0000; stroke: #ff0000"/>
     <use xlink:href="#md81ecf4ab8" x="957.394329" y="137.628318" style="fill: #ff0000; stroke: #ff0000"/>
     <use xlink:href="#md81ecf4ab8" x="961.582819" y="349.891521" style="fill: #ff0000; stroke: #ff0000"/>
     <use xlink:href="#md81ecf4ab8" x="965.771309" y="162.598403" style="fill: #ff0000; stroke: #ff0000"/>
     <use xlink:href="#md81ecf4ab8" x="969.9598" y="166.137635" style="fill: #ff0000; stroke: #ff0000"/>
     <use xlink:href="#md81ecf4ab8" x="974.14829" y="131.603951" style="fill: #ff0000; stroke: #ff0000"/>
     <use xlink:href="#md81ecf4ab8" x="978.336781" y="173.03462" style="fill: #ff0000; stroke: #ff0000"/>
     <use xlink:href="#md81ecf4ab8" x="982.525271" y="358.456877" style="fill: #ff0000; stroke: #ff0000"/>
     <use xlink:href="#md81ecf4ab8" x="986.713761" y="492.48" style="fill: #ff0000; stroke: #ff0000"/>
     <use xlink:href="#md81ecf4ab8" x="990.902252" y="348.788571" style="fill: #ff0000; stroke: #ff0000"/>
     <use xlink:href="#md81ecf4ab8" x="995.090742" y="154.389068" style="fill: #ff0000; stroke: #ff0000"/>
     <use xlink:href="#md81ecf4ab8" x="999.279233" y="144.504346" style="fill: #ff0000; stroke: #ff0000"/>
     <use xlink:href="#md81ecf4ab8" x="1003.467723" y="134.075132" style="fill: #ff0000; stroke: #ff0000"/>
     <use xlink:href="#md81ecf4ab8" x="1007.656214" y="108.169637" style="fill: #ff0000; stroke: #ff0000"/>
     <use xlink:href="#md81ecf4ab8" x="1011.844704" y="122.549933" style="fill: #ff0000; stroke: #ff0000"/>
     <use xlink:href="#md81ecf4ab8" x="1016.033194" y="154.270408" style="fill: #ff0000; stroke: #ff0000"/>
     <use xlink:href="#md81ecf4ab8" x="1020.221685" y="265.403687" style="fill: #ff0000; stroke: #ff0000"/>
     <use xlink:href="#md81ecf4ab8" x="1024.410175" y="245.801794" style="fill: #ff0000; stroke: #ff0000"/>
     <use xlink:href="#md81ecf4ab8" x="1028.598666" y="251.553902" style="fill: #ff0000; stroke: #ff0000"/>
     <use xlink:href="#md81ecf4ab8" x="1032.787156" y="263.721322" style="fill: #ff0000; stroke: #ff0000"/>
     <use xlink:href="#md81ecf4ab8" x="1036.975646" y="251.721454" style="fill: #ff0000; stroke: #ff0000"/>
     <use xlink:href="#md81ecf4ab8" x="1041.164137" y="454.581593" style="fill: #ff0000; stroke: #ff0000"/>
     <use xlink:href="#md81ecf4ab8" x="1045.352627" y="417.960658" style="fill: #ff0000; stroke: #ff0000"/>
     <use xlink:href="#md81ecf4ab8" x="1049.541118" y="439.14021" style="fill: #ff0000; stroke: #ff0000"/>
     <use xlink:href="#md81ecf4ab8" x="1053.729608" y="439.244916" style="fill: #ff0000; stroke: #ff0000"/>
     <use xlink:href="#md81ecf4ab8" x="1057.918098" y="454.190674" style="fill: #ff0000; stroke: #ff0000"/>
     <use xlink:href="#md81ecf4ab8" x="1062.106589" y="451.531017" style="fill: #ff0000; stroke: #ff0000"/>
     <use xlink:href="#md81ecf4ab8" x="1066.295079" y="462.567554" style="fill: #ff0000; stroke: #ff0000"/>
     <use xlink:href="#md81ecf4ab8" x="1070.48357" y="452.145317" style="fill: #ff0000; stroke: #ff0000"/>
     <use xlink:href="#md81ecf4ab8" x="1074.67206" y="438.937773" style="fill: #ff0000; stroke: #ff0000"/>
     <use xlink:href="#md81ecf4ab8" x="1078.86055" y="146.158776" style="fill: #ff0000; stroke: #ff0000"/>
     <use xlink:href="#md81ecf4ab8" x="1083.049041" y="157.865482" style="fill: #ff0000; stroke: #ff0000"/>
     <use xlink:href="#md81ecf4ab8" x="1087.237531" y="125.921639" style="fill: #ff0000; stroke: #ff0000"/>
     <use xlink:href="#md81ecf4ab8" x="1091.426022" y="167.631517" style="fill: #ff0000; stroke: #ff0000"/>
     <use xlink:href="#md81ecf4ab8" x="1095.614512" y="145.314119" style="fill: #ff0000; stroke: #ff0000"/>
     <use xlink:href="#md81ecf4ab8" x="1099.803003" y="184.043236" style="fill: #ff0000; stroke: #ff0000"/>
     <use xlink:href="#md81ecf4ab8" x="1103.991493" y="169.076534" style="fill: #ff0000; stroke: #ff0000"/>
     <use xlink:href="#md81ecf4ab8" x="1108.179983" y="155.408255" style="fill: #ff0000; stroke: #ff0000"/>
     <use xlink:href="#md81ecf4ab8" x="1112.368474" y="94.661906" style="fill: #ff0000; stroke: #ff0000"/>
     <use xlink:href="#md81ecf4ab8" x="1116.556964" y="120.853614" style="fill: #ff0000; stroke: #ff0000"/>
     <use xlink:href="#md81ecf4ab8" x="1120.745455" y="119.659925" style="fill: #ff0000; stroke: #ff0000"/>
    </g>
   </g>
   <g id="line2d_24">
    <path d="M 207.654545 116.537762 
L 211.843036 157.365675 
L 216.031526 173.036191 
L 220.220017 110.592059 
L 224.408507 167.189016 
L 228.596997 149.666319 
L 232.785488 97.208421 
L 236.973978 90.468523 
L 241.162469 125.098152 
L 245.350959 111.422816 
L 249.53945 113.146456 
L 253.72794 153.24696 
L 257.91643 157.472831 
L 262.104921 112.29586 
L 266.293411 110.435105 
L 270.481902 143.404046 
L 274.670392 119.214548 
L 278.858882 163.75252 
L 283.047373 114.61544 
L 287.235863 145.313 
L 291.424354 106.866687 
L 295.612844 104.849458 
L 299.801334 169.913602 
L 303.989825 117.086594 
L 308.178315 142.100298 
L 312.366806 167.963053 
L 316.555296 153.05166 
L 320.743786 146.942825 
L 324.932277 116.699909 
L 329.120767 109.371794 
L 333.309258 144.572757 
L 337.497748 144.226921 
L 341.686239 130.617652 
L 345.874729 109.203842 
L 350.063219 133.959454 
L 354.25171 113.549572 
L 358.4402 114.810633 
L 362.628691 146.649636 
L 366.817181 107.683411 
L 371.005671 146.361745 
L 375.194162 147.116715 
L 379.382652 132.825362 
L 383.571143 124.906554 
L 387.759633 97.582138 
L 391.948123 151.216549 
L 396.136614 162.080301 
L 400.325104 137.090697 
L 404.513595 131.215322 
L 408.702085 163.019467 
L 412.890575 112.073186 
L 417.079066 89.884647 
L 421.267556 214.870534 
L 425.456047 162.407124 
L 429.644537 204.416369 
L 433.833028 265.620424 
L 438.021518 177.00365 
L 442.210008 121.962382 
L 446.398499 147.785805 
L 450.586989 140.845334 
L 454.77548 236.426785 
L 458.96397 395.815419 
L 463.15246 463.987366 
L 467.340951 457.333068 
L 471.529441 442.09968 
L 475.717932 411.040346 
L 479.906422 459.159618 
L 484.094912 89.28 
L 488.283403 146.873323 
L 492.471893 101.065528 
L 496.660384 105.177212 
L 500.848874 333.973923 
L 505.037364 98.19765 
L 509.225855 164.895054 
L 513.414345 101.774935 
L 517.602836 102.040057 
L 521.791326 116.600821 
L 525.979817 163.291672 
L 530.168307 134.031992 
L 534.356797 103.069922 
L 538.545288 111.089815 
L 542.733778 158.106078 
L 546.922269 128.826559 
L 551.110759 140.599625 
L 555.299249 166.631264 
L 559.48774 113.845851 
L 563.67623 157.413128 
L 567.864721 99.24541 
L 572.053211 121.39672 
L 576.241701 121.40865 
L 580.430192 126.33775 
L 584.618682 109.087019 
L 588.807173 156.136968 
L 592.995663 101.541076 
L 597.184153 93.734671 
L 601.372644 262.718886 
L 605.561134 269.560082 
L 609.749625 427.751739 
L 613.938115 409.160671 
L 618.126606 429.607022 
L 622.315096 416.441625 
L 626.503586 444.162406 
L 630.692077 418.981443 
L 634.880567 423.760792 
L 639.069058 434.276591 
L 643.257548 420.282928 
L 647.446038 412.810575 
L 651.634529 122.933289 
L 655.823019 138.216801 
L 660.01151 119.650285 
L 664.2 110.561169 
L 668.38849 126.845892 
L 672.576981 111.083877 
L 676.765471 158.344677 
L 680.953962 134.561731 
L 685.142452 150.964183 
L 689.330942 101.348972 
L 693.519433 114.494223 
L 697.707923 152.415591 
L 701.896414 161.232768 
L 706.084904 126.164739 
L 710.273394 93.625277 
L 714.461885 138.278661 
L 718.650375 142.652192 
L 722.838866 139.167923 
L 727.027356 139.145714 
L 731.215847 120.795668 
L 735.404337 129.146165 
L 739.592827 111.504275 
L 743.781318 110.320998 
L 747.969808 139.365167 
L 752.158299 164.474816 
L 756.346789 167.345571 
L 760.535279 165.747967 
L 764.72377 125.860232 
L 768.91226 96.907669 
L 773.100751 234.044999 
L 777.289241 236.42769 
L 781.477731 260.396909 
L 785.666222 184.429921 
L 789.854712 270.171227 
L 794.043203 428.251586 
L 798.231693 182.402892 
L 802.420183 445.745649 
L 806.608674 448.50263 
L 810.797164 437.109586 
L 814.985655 419.951938 
L 819.174145 431.171445 
L 823.362636 197.575838 
L 827.551126 208.237979 
L 831.739616 182.578699 
L 835.928107 118.878805 
L 840.116597 135.385058 
L 844.305088 143.674494 
L 848.493578 138.915423 
L 852.682068 168.243514 
L 856.870559 160.463525 
L 861.059049 159.70512 
L 865.24754 163.694788 
L 869.43603 217.780408 
L 873.62452 158.752267 
L 877.813011 143.628825 
L 882.001501 143.20619 
L 886.189992 160.826377 
L 890.378482 181.19224 
L 894.566972 262.032593 
L 898.755463 182.085257 
L 902.943953 155.776885 
L 907.132444 177.049426 
L 911.320934 238.963793 
L 915.509425 126.112039 
L 919.697915 131.034136 
L 923.886405 160.66186 
L 928.074896 113.649273 
L 932.263386 127.313983 
L 936.451877 175.111712 
L 940.640367 179.135679 
L 944.828857 191.889505 
L 949.017348 110.820326 
L 953.205838 138.766884 
L 957.394329 131.845453 
L 961.582819 143.338884 
L 965.771309 139.760373 
L 969.9598 127.831286 
L 974.14829 126.739055 
L 978.336781 103.880361 
L 982.525271 121.671376 
L 986.713761 162.882352 
L 990.902252 165.202597 
L 995.090742 234.720427 
L 999.279233 155.917142 
L 1003.467723 134.836147 
L 1007.656214 125.162782 
L 1011.844704 130.937205 
L 1016.033194 155.770521 
L 1020.221685 161.502603 
L 1024.410175 136.460167 
L 1028.598666 154.285027 
L 1032.787156 185.086176 
L 1036.975646 125.357975 
L 1041.164137 162.680688 
L 1045.352627 249.642631 
L 1049.541118 408.882673 
L 1053.729608 168.010986 
L 1057.918098 154.295785 
L 1062.106589 149.782903 
L 1066.295079 257.263003 
L 1070.48357 167.065616 
L 1074.67206 274.546462 
L 1078.86055 203.628006 
L 1083.049041 198.969461 
L 1087.237531 128.096302 
L 1091.426022 108.230352 
L 1095.614512 117.815707 
L 1099.803003 114.674025 
L 1103.991493 125.027691 
L 1108.179983 129.048302 
L 1112.368474 114.366881 
L 1116.556964 137.806176 
L 1120.745455 182.750938 
L 1120.745455 182.750938 
" clip-path="url(#p851654cb42)" style="fill: none; stroke-dasharray: 5.55,2.4; stroke-dashoffset: 0; stroke: #bfbf00; stroke-width: 1.5"/>
    <defs>
     <path id="mbbd3eccdc6" d="M -2 2 
L 2 -2 
M -2 -2 
L 2 2 
" style="stroke: #bfbf00"/>
    </defs>
    <g clip-path="url(#p851654cb42)">
     <use xlink:href="#mbbd3eccdc6" x="207.654545" y="116.537762" style="fill: #bfbf00; stroke: #bfbf00"/>
     <use xlink:href="#mbbd3eccdc6" x="211.843036" y="157.365675" style="fill: #bfbf00; stroke: #bfbf00"/>
     <use xlink:href="#mbbd3eccdc6" x="216.031526" y="173.036191" style="fill: #bfbf00; stroke: #bfbf00"/>
     <use xlink:href="#mbbd3eccdc6" x="220.220017" y="110.592059" style="fill: #bfbf00; stroke: #bfbf00"/>
     <use xlink:href="#mbbd3eccdc6" x="224.408507" y="167.189016" style="fill: #bfbf00; stroke: #bfbf00"/>
     <use xlink:href="#mbbd3eccdc6" x="228.596997" y="149.666319" style="fill: #bfbf00; stroke: #bfbf00"/>
     <use xlink:href="#mbbd3eccdc6" x="232.785488" y="97.208421" style="fill: #bfbf00; stroke: #bfbf00"/>
     <use xlink:href="#mbbd3eccdc6" x="236.973978" y="90.468523" style="fill: #bfbf00; stroke: #bfbf00"/>
     <use xlink:href="#mbbd3eccdc6" x="241.162469" y="125.098152" style="fill: #bfbf00; stroke: #bfbf00"/>
     <use xlink:href="#mbbd3eccdc6" x="245.350959" y="111.422816" style="fill: #bfbf00; stroke: #bfbf00"/>
     <use xlink:href="#mbbd3eccdc6" x="249.53945" y="113.146456" style="fill: #bfbf00; stroke: #bfbf00"/>
     <use xlink:href="#mbbd3eccdc6" x="253.72794" y="153.24696" style="fill: #bfbf00; stroke: #bfbf00"/>
     <use xlink:href="#mbbd3eccdc6" x="257.91643" y="157.472831" style="fill: #bfbf00; stroke: #bfbf00"/>
     <use xlink:href="#mbbd3eccdc6" x="262.104921" y="112.29586" style="fill: #bfbf00; stroke: #bfbf00"/>
     <use xlink:href="#mbbd3eccdc6" x="266.293411" y="110.435105" style="fill: #bfbf00; stroke: #bfbf00"/>
     <use xlink:href="#mbbd3eccdc6" x="270.481902" y="143.404046" style="fill: #bfbf00; stroke: #bfbf00"/>
     <use xlink:href="#mbbd3eccdc6" x="274.670392" y="119.214548" style="fill: #bfbf00; stroke: #bfbf00"/>
     <use xlink:href="#mbbd3eccdc6" x="278.858882" y="163.75252" style="fill: #bfbf00; stroke: #bfbf00"/>
     <use xlink:href="#mbbd3eccdc6" x="283.047373" y="114.61544" style="fill: #bfbf00; stroke: #bfbf00"/>
     <use xlink:href="#mbbd3eccdc6" x="287.235863" y="145.313" style="fill: #bfbf00; stroke: #bfbf00"/>
     <use xlink:href="#mbbd3eccdc6" x="291.424354" y="106.866687" style="fill: #bfbf00; stroke: #bfbf00"/>
     <use xlink:href="#mbbd3eccdc6" x="295.612844" y="104.849458" style="fill: #bfbf00; stroke: #bfbf00"/>
     <use xlink:href="#mbbd3eccdc6" x="299.801334" y="169.913602" style="fill: #bfbf00; stroke: #bfbf00"/>
     <use xlink:href="#mbbd3eccdc6" x="303.989825" y="117.086594" style="fill: #bfbf00; stroke: #bfbf00"/>
     <use xlink:href="#mbbd3eccdc6" x="308.178315" y="142.100298" style="fill: #bfbf00; stroke: #bfbf00"/>
     <use xlink:href="#mbbd3eccdc6" x="312.366806" y="167.963053" style="fill: #bfbf00; stroke: #bfbf00"/>
     <use xlink:href="#mbbd3eccdc6" x="316.555296" y="153.05166" style="fill: #bfbf00; stroke: #bfbf00"/>
     <use xlink:href="#mbbd3eccdc6" x="320.743786" y="146.942825" style="fill: #bfbf00; stroke: #bfbf00"/>
     <use xlink:href="#mbbd3eccdc6" x="324.932277" y="116.699909" style="fill: #bfbf00; stroke: #bfbf00"/>
     <use xlink:href="#mbbd3eccdc6" x="329.120767" y="109.371794" style="fill: #bfbf00; stroke: #bfbf00"/>
     <use xlink:href="#mbbd3eccdc6" x="333.309258" y="144.572757" style="fill: #bfbf00; stroke: #bfbf00"/>
     <use xlink:href="#mbbd3eccdc6" x="337.497748" y="144.226921" style="fill: #bfbf00; stroke: #bfbf00"/>
     <use xlink:href="#mbbd3eccdc6" x="341.686239" y="130.617652" style="fill: #bfbf00; stroke: #bfbf00"/>
     <use xlink:href="#mbbd3eccdc6" x="345.874729" y="109.203842" style="fill: #bfbf00; stroke: #bfbf00"/>
     <use xlink:href="#mbbd3eccdc6" x="350.063219" y="133.959454" style="fill: #bfbf00; stroke: #bfbf00"/>
     <use xlink:href="#mbbd3eccdc6" x="354.25171" y="113.549572" style="fill: #bfbf00; stroke: #bfbf00"/>
     <use xlink:href="#mbbd3eccdc6" x="358.4402" y="114.810633" style="fill: #bfbf00; stroke: #bfbf00"/>
     <use xlink:href="#mbbd3eccdc6" x="362.628691" y="146.649636" style="fill: #bfbf00; stroke: #bfbf00"/>
     <use xlink:href="#mbbd3eccdc6" x="366.817181" y="107.683411" style="fill: #bfbf00; stroke: #bfbf00"/>
     <use xlink:href="#mbbd3eccdc6" x="371.005671" y="146.361745" style="fill: #bfbf00; stroke: #bfbf00"/>
     <use xlink:href="#mbbd3eccdc6" x="375.194162" y="147.116715" style="fill: #bfbf00; stroke: #bfbf00"/>
     <use xlink:href="#mbbd3eccdc6" x="379.382652" y="132.825362" style="fill: #bfbf00; stroke: #bfbf00"/>
     <use xlink:href="#mbbd3eccdc6" x="383.571143" y="124.906554" style="fill: #bfbf00; stroke: #bfbf00"/>
     <use xlink:href="#mbbd3eccdc6" x="387.759633" y="97.582138" style="fill: #bfbf00; stroke: #bfbf00"/>
     <use xlink:href="#mbbd3eccdc6" x="391.948123" y="151.216549" style="fill: #bfbf00; stroke: #bfbf00"/>
     <use xlink:href="#mbbd3eccdc6" x="396.136614" y="162.080301" style="fill: #bfbf00; stroke: #bfbf00"/>
     <use xlink:href="#mbbd3eccdc6" x="400.325104" y="137.090697" style="fill: #bfbf00; stroke: #bfbf00"/>
     <use xlink:href="#mbbd3eccdc6" x="404.513595" y="131.215322" style="fill: #bfbf00; stroke: #bfbf00"/>
     <use xlink:href="#mbbd3eccdc6" x="408.702085" y="163.019467" style="fill: #bfbf00; stroke: #bfbf00"/>
     <use xlink:href="#mbbd3eccdc6" x="412.890575" y="112.073186" style="fill: #bfbf00; stroke: #bfbf00"/>
     <use xlink:href="#mbbd3eccdc6" x="417.079066" y="89.884647" style="fill: #bfbf00; stroke: #bfbf00"/>
     <use xlink:href="#mbbd3eccdc6" x="421.267556" y="214.870534" style="fill: #bfbf00; stroke: #bfbf00"/>
     <use xlink:href="#mbbd3eccdc6" x="425.456047" y="162.407124" style="fill: #bfbf00; stroke: #bfbf00"/>
     <use xlink:href="#mbbd3eccdc6" x="429.644537" y="204.416369" style="fill: #bfbf00; stroke: #bfbf00"/>
     <use xlink:href="#mbbd3eccdc6" x="433.833028" y="265.620424" style="fill: #bfbf00; stroke: #bfbf00"/>
     <use xlink:href="#mbbd3eccdc6" x="438.021518" y="177.00365" style="fill: #bfbf00; stroke: #bfbf00"/>
     <use xlink:href="#mbbd3eccdc6" x="442.210008" y="121.962382" style="fill: #bfbf00; stroke: #bfbf00"/>
     <use xlink:href="#mbbd3eccdc6" x="446.398499" y="147.785805" style="fill: #bfbf00; stroke: #bfbf00"/>
     <use xlink:href="#mbbd3eccdc6" x="450.586989" y="140.845334" style="fill: #bfbf00; stroke: #bfbf00"/>
     <use xlink:href="#mbbd3eccdc6" x="454.77548" y="236.426785" style="fill: #bfbf00; stroke: #bfbf00"/>
     <use xlink:href="#mbbd3eccdc6" x="458.96397" y="395.815419" style="fill: #bfbf00; stroke: #bfbf00"/>
     <use xlink:href="#mbbd3eccdc6" x="463.15246" y="463.987366" style="fill: #bfbf00; stroke: #bfbf00"/>
     <use xlink:href="#mbbd3eccdc6" x="467.340951" y="457.333068" style="fill: #bfbf00; stroke: #bfbf00"/>
     <use xlink:href="#mbbd3eccdc6" x="471.529441" y="442.09968" style="fill: #bfbf00; stroke: #bfbf00"/>
     <use xlink:href="#mbbd3eccdc6" x="475.717932" y="411.040346" style="fill: #bfbf00; stroke: #bfbf00"/>
     <use xlink:href="#mbbd3eccdc6" x="479.906422" y="459.159618" style="fill: #bfbf00; stroke: #bfbf00"/>
     <use xlink:href="#mbbd3eccdc6" x="484.094912" y="89.28" style="fill: #bfbf00; stroke: #bfbf00"/>
     <use xlink:href="#mbbd3eccdc6" x="488.283403" y="146.873323" style="fill: #bfbf00; stroke: #bfbf00"/>
     <use xlink:href="#mbbd3eccdc6" x="492.471893" y="101.065528" style="fill: #bfbf00; stroke: #bfbf00"/>
     <use xlink:href="#mbbd3eccdc6" x="496.660384" y="105.177212" style="fill: #bfbf00; stroke: #bfbf00"/>
     <use xlink:href="#mbbd3eccdc6" x="500.848874" y="333.973923" style="fill: #bfbf00; stroke: #bfbf00"/>
     <use xlink:href="#mbbd3eccdc6" x="505.037364" y="98.19765" style="fill: #bfbf00; stroke: #bfbf00"/>
     <use xlink:href="#mbbd3eccdc6" x="509.225855" y="164.895054" style="fill: #bfbf00; stroke: #bfbf00"/>
     <use xlink:href="#mbbd3eccdc6" x="513.414345" y="101.774935" style="fill: #bfbf00; stroke: #bfbf00"/>
     <use xlink:href="#mbbd3eccdc6" x="517.602836" y="102.040057" style="fill: #bfbf00; stroke: #bfbf00"/>
     <use xlink:href="#mbbd3eccdc6" x="521.791326" y="116.600821" style="fill: #bfbf00; stroke: #bfbf00"/>
     <use xlink:href="#mbbd3eccdc6" x="525.979817" y="163.291672" style="fill: #bfbf00; stroke: #bfbf00"/>
     <use xlink:href="#mbbd3eccdc6" x="530.168307" y="134.031992" style="fill: #bfbf00; stroke: #bfbf00"/>
     <use xlink:href="#mbbd3eccdc6" x="534.356797" y="103.069922" style="fill: #bfbf00; stroke: #bfbf00"/>
     <use xlink:href="#mbbd3eccdc6" x="538.545288" y="111.089815" style="fill: #bfbf00; stroke: #bfbf00"/>
     <use xlink:href="#mbbd3eccdc6" x="542.733778" y="158.106078" style="fill: #bfbf00; stroke: #bfbf00"/>
     <use xlink:href="#mbbd3eccdc6" x="546.922269" y="128.826559" style="fill: #bfbf00; stroke: #bfbf00"/>
     <use xlink:href="#mbbd3eccdc6" x="551.110759" y="140.599625" style="fill: #bfbf00; stroke: #bfbf00"/>
     <use xlink:href="#mbbd3eccdc6" x="555.299249" y="166.631264" style="fill: #bfbf00; stroke: #bfbf00"/>
     <use xlink:href="#mbbd3eccdc6" x="559.48774" y="113.845851" style="fill: #bfbf00; stroke: #bfbf00"/>
     <use xlink:href="#mbbd3eccdc6" x="563.67623" y="157.413128" style="fill: #bfbf00; stroke: #bfbf00"/>
     <use xlink:href="#mbbd3eccdc6" x="567.864721" y="99.24541" style="fill: #bfbf00; stroke: #bfbf00"/>
     <use xlink:href="#mbbd3eccdc6" x="572.053211" y="121.39672" style="fill: #bfbf00; stroke: #bfbf00"/>
     <use xlink:href="#mbbd3eccdc6" x="576.241701" y="121.40865" style="fill: #bfbf00; stroke: #bfbf00"/>
     <use xlink:href="#mbbd3eccdc6" x="580.430192" y="126.33775" style="fill: #bfbf00; stroke: #bfbf00"/>
     <use xlink:href="#mbbd3eccdc6" x="584.618682" y="109.087019" style="fill: #bfbf00; stroke: #bfbf00"/>
     <use xlink:href="#mbbd3eccdc6" x="588.807173" y="156.136968" style="fill: #bfbf00; stroke: #bfbf00"/>
     <use xlink:href="#mbbd3eccdc6" x="592.995663" y="101.541076" style="fill: #bfbf00; stroke: #bfbf00"/>
     <use xlink:href="#mbbd3eccdc6" x="597.184153" y="93.734671" style="fill: #bfbf00; stroke: #bfbf00"/>
     <use xlink:href="#mbbd3eccdc6" x="601.372644" y="262.718886" style="fill: #bfbf00; stroke: #bfbf00"/>
     <use xlink:href="#mbbd3eccdc6" x="605.561134" y="269.560082" style="fill: #bfbf00; stroke: #bfbf00"/>
     <use xlink:href="#mbbd3eccdc6" x="609.749625" y="427.751739" style="fill: #bfbf00; stroke: #bfbf00"/>
     <use xlink:href="#mbbd3eccdc6" x="613.938115" y="409.160671" style="fill: #bfbf00; stroke: #bfbf00"/>
     <use xlink:href="#mbbd3eccdc6" x="618.126606" y="429.607022" style="fill: #bfbf00; stroke: #bfbf00"/>
     <use xlink:href="#mbbd3eccdc6" x="622.315096" y="416.441625" style="fill: #bfbf00; stroke: #bfbf00"/>
     <use xlink:href="#mbbd3eccdc6" x="626.503586" y="444.162406" style="fill: #bfbf00; stroke: #bfbf00"/>
     <use xlink:href="#mbbd3eccdc6" x="630.692077" y="418.981443" style="fill: #bfbf00; stroke: #bfbf00"/>
     <use xlink:href="#mbbd3eccdc6" x="634.880567" y="423.760792" style="fill: #bfbf00; stroke: #bfbf00"/>
     <use xlink:href="#mbbd3eccdc6" x="639.069058" y="434.276591" style="fill: #bfbf00; stroke: #bfbf00"/>
     <use xlink:href="#mbbd3eccdc6" x="643.257548" y="420.282928" style="fill: #bfbf00; stroke: #bfbf00"/>
     <use xlink:href="#mbbd3eccdc6" x="647.446038" y="412.810575" style="fill: #bfbf00; stroke: #bfbf00"/>
     <use xlink:href="#mbbd3eccdc6" x="651.634529" y="122.933289" style="fill: #bfbf00; stroke: #bfbf00"/>
     <use xlink:href="#mbbd3eccdc6" x="655.823019" y="138.216801" style="fill: #bfbf00; stroke: #bfbf00"/>
     <use xlink:href="#mbbd3eccdc6" x="660.01151" y="119.650285" style="fill: #bfbf00; stroke: #bfbf00"/>
     <use xlink:href="#mbbd3eccdc6" x="664.2" y="110.561169" style="fill: #bfbf00; stroke: #bfbf00"/>
     <use xlink:href="#mbbd3eccdc6" x="668.38849" y="126.845892" style="fill: #bfbf00; stroke: #bfbf00"/>
     <use xlink:href="#mbbd3eccdc6" x="672.576981" y="111.083877" style="fill: #bfbf00; stroke: #bfbf00"/>
     <use xlink:href="#mbbd3eccdc6" x="676.765471" y="158.344677" style="fill: #bfbf00; stroke: #bfbf00"/>
     <use xlink:href="#mbbd3eccdc6" x="680.953962" y="134.561731" style="fill: #bfbf00; stroke: #bfbf00"/>
     <use xlink:href="#mbbd3eccdc6" x="685.142452" y="150.964183" style="fill: #bfbf00; stroke: #bfbf00"/>
     <use xlink:href="#mbbd3eccdc6" x="689.330942" y="101.348972" style="fill: #bfbf00; stroke: #bfbf00"/>
     <use xlink:href="#mbbd3eccdc6" x="693.519433" y="114.494223" style="fill: #bfbf00; stroke: #bfbf00"/>
     <use xlink:href="#mbbd3eccdc6" x="697.707923" y="152.415591" style="fill: #bfbf00; stroke: #bfbf00"/>
     <use xlink:href="#mbbd3eccdc6" x="701.896414" y="161.232768" style="fill: #bfbf00; stroke: #bfbf00"/>
     <use xlink:href="#mbbd3eccdc6" x="706.084904" y="126.164739" style="fill: #bfbf00; stroke: #bfbf00"/>
     <use xlink:href="#mbbd3eccdc6" x="710.273394" y="93.625277" style="fill: #bfbf00; stroke: #bfbf00"/>
     <use xlink:href="#mbbd3eccdc6" x="714.461885" y="138.278661" style="fill: #bfbf00; stroke: #bfbf00"/>
     <use xlink:href="#mbbd3eccdc6" x="718.650375" y="142.652192" style="fill: #bfbf00; stroke: #bfbf00"/>
     <use xlink:href="#mbbd3eccdc6" x="722.838866" y="139.167923" style="fill: #bfbf00; stroke: #bfbf00"/>
     <use xlink:href="#mbbd3eccdc6" x="727.027356" y="139.145714" style="fill: #bfbf00; stroke: #bfbf00"/>
     <use xlink:href="#mbbd3eccdc6" x="731.215847" y="120.795668" style="fill: #bfbf00; stroke: #bfbf00"/>
     <use xlink:href="#mbbd3eccdc6" x="735.404337" y="129.146165" style="fill: #bfbf00; stroke: #bfbf00"/>
     <use xlink:href="#mbbd3eccdc6" x="739.592827" y="111.504275" style="fill: #bfbf00; stroke: #bfbf00"/>
     <use xlink:href="#mbbd3eccdc6" x="743.781318" y="110.320998" style="fill: #bfbf00; stroke: #bfbf00"/>
     <use xlink:href="#mbbd3eccdc6" x="747.969808" y="139.365167" style="fill: #bfbf00; stroke: #bfbf00"/>
     <use xlink:href="#mbbd3eccdc6" x="752.158299" y="164.474816" style="fill: #bfbf00; stroke: #bfbf00"/>
     <use xlink:href="#mbbd3eccdc6" x="756.346789" y="167.345571" style="fill: #bfbf00; stroke: #bfbf00"/>
     <use xlink:href="#mbbd3eccdc6" x="760.535279" y="165.747967" style="fill: #bfbf00; stroke: #bfbf00"/>
     <use xlink:href="#mbbd3eccdc6" x="764.72377" y="125.860232" style="fill: #bfbf00; stroke: #bfbf00"/>
     <use xlink:href="#mbbd3eccdc6" x="768.91226" y="96.907669" style="fill: #bfbf00; stroke: #bfbf00"/>
     <use xlink:href="#mbbd3eccdc6" x="773.100751" y="234.044999" style="fill: #bfbf00; stroke: #bfbf00"/>
     <use xlink:href="#mbbd3eccdc6" x="777.289241" y="236.42769" style="fill: #bfbf00; stroke: #bfbf00"/>
     <use xlink:href="#mbbd3eccdc6" x="781.477731" y="260.396909" style="fill: #bfbf00; stroke: #bfbf00"/>
     <use xlink:href="#mbbd3eccdc6" x="785.666222" y="184.429921" style="fill: #bfbf00; stroke: #bfbf00"/>
     <use xlink:href="#mbbd3eccdc6" x="789.854712" y="270.171227" style="fill: #bfbf00; stroke: #bfbf00"/>
     <use xlink:href="#mbbd3eccdc6" x="794.043203" y="428.251586" style="fill: #bfbf00; stroke: #bfbf00"/>
     <use xlink:href="#mbbd3eccdc6" x="798.231693" y="182.402892" style="fill: #bfbf00; stroke: #bfbf00"/>
     <use xlink:href="#mbbd3eccdc6" x="802.420183" y="445.745649" style="fill: #bfbf00; stroke: #bfbf00"/>
     <use xlink:href="#mbbd3eccdc6" x="806.608674" y="448.50263" style="fill: #bfbf00; stroke: #bfbf00"/>
     <use xlink:href="#mbbd3eccdc6" x="810.797164" y="437.109586" style="fill: #bfbf00; stroke: #bfbf00"/>
     <use xlink:href="#mbbd3eccdc6" x="814.985655" y="419.951938" style="fill: #bfbf00; stroke: #bfbf00"/>
     <use xlink:href="#mbbd3eccdc6" x="819.174145" y="431.171445" style="fill: #bfbf00; stroke: #bfbf00"/>
     <use xlink:href="#mbbd3eccdc6" x="823.362636" y="197.575838" style="fill: #bfbf00; stroke: #bfbf00"/>
     <use xlink:href="#mbbd3eccdc6" x="827.551126" y="208.237979" style="fill: #bfbf00; stroke: #bfbf00"/>
     <use xlink:href="#mbbd3eccdc6" x="831.739616" y="182.578699" style="fill: #bfbf00; stroke: #bfbf00"/>
     <use xlink:href="#mbbd3eccdc6" x="835.928107" y="118.878805" style="fill: #bfbf00; stroke: #bfbf00"/>
     <use xlink:href="#mbbd3eccdc6" x="840.116597" y="135.385058" style="fill: #bfbf00; stroke: #bfbf00"/>
     <use xlink:href="#mbbd3eccdc6" x="844.305088" y="143.674494" style="fill: #bfbf00; stroke: #bfbf00"/>
     <use xlink:href="#mbbd3eccdc6" x="848.493578" y="138.915423" style="fill: #bfbf00; stroke: #bfbf00"/>
     <use xlink:href="#mbbd3eccdc6" x="852.682068" y="168.243514" style="fill: #bfbf00; stroke: #bfbf00"/>
     <use xlink:href="#mbbd3eccdc6" x="856.870559" y="160.463525" style="fill: #bfbf00; stroke: #bfbf00"/>
     <use xlink:href="#mbbd3eccdc6" x="861.059049" y="159.70512" style="fill: #bfbf00; stroke: #bfbf00"/>
     <use xlink:href="#mbbd3eccdc6" x="865.24754" y="163.694788" style="fill: #bfbf00; stroke: #bfbf00"/>
     <use xlink:href="#mbbd3eccdc6" x="869.43603" y="217.780408" style="fill: #bfbf00; stroke: #bfbf00"/>
     <use xlink:href="#mbbd3eccdc6" x="873.62452" y="158.752267" style="fill: #bfbf00; stroke: #bfbf00"/>
     <use xlink:href="#mbbd3eccdc6" x="877.813011" y="143.628825" style="fill: #bfbf00; stroke: #bfbf00"/>
     <use xlink:href="#mbbd3eccdc6" x="882.001501" y="143.20619" style="fill: #bfbf00; stroke: #bfbf00"/>
     <use xlink:href="#mbbd3eccdc6" x="886.189992" y="160.826377" style="fill: #bfbf00; stroke: #bfbf00"/>
     <use xlink:href="#mbbd3eccdc6" x="890.378482" y="181.19224" style="fill: #bfbf00; stroke: #bfbf00"/>
     <use xlink:href="#mbbd3eccdc6" x="894.566972" y="262.032593" style="fill: #bfbf00; stroke: #bfbf00"/>
     <use xlink:href="#mbbd3eccdc6" x="898.755463" y="182.085257" style="fill: #bfbf00; stroke: #bfbf00"/>
     <use xlink:href="#mbbd3eccdc6" x="902.943953" y="155.776885" style="fill: #bfbf00; stroke: #bfbf00"/>
     <use xlink:href="#mbbd3eccdc6" x="907.132444" y="177.049426" style="fill: #bfbf00; stroke: #bfbf00"/>
     <use xlink:href="#mbbd3eccdc6" x="911.320934" y="238.963793" style="fill: #bfbf00; stroke: #bfbf00"/>
     <use xlink:href="#mbbd3eccdc6" x="915.509425" y="126.112039" style="fill: #bfbf00; stroke: #bfbf00"/>
     <use xlink:href="#mbbd3eccdc6" x="919.697915" y="131.034136" style="fill: #bfbf00; stroke: #bfbf00"/>
     <use xlink:href="#mbbd3eccdc6" x="923.886405" y="160.66186" style="fill: #bfbf00; stroke: #bfbf00"/>
     <use xlink:href="#mbbd3eccdc6" x="928.074896" y="113.649273" style="fill: #bfbf00; stroke: #bfbf00"/>
     <use xlink:href="#mbbd3eccdc6" x="932.263386" y="127.313983" style="fill: #bfbf00; stroke: #bfbf00"/>
     <use xlink:href="#mbbd3eccdc6" x="936.451877" y="175.111712" style="fill: #bfbf00; stroke: #bfbf00"/>
     <use xlink:href="#mbbd3eccdc6" x="940.640367" y="179.135679" style="fill: #bfbf00; stroke: #bfbf00"/>
     <use xlink:href="#mbbd3eccdc6" x="944.828857" y="191.889505" style="fill: #bfbf00; stroke: #bfbf00"/>
     <use xlink:href="#mbbd3eccdc6" x="949.017348" y="110.820326" style="fill: #bfbf00; stroke: #bfbf00"/>
     <use xlink:href="#mbbd3eccdc6" x="953.205838" y="138.766884" style="fill: #bfbf00; stroke: #bfbf00"/>
     <use xlink:href="#mbbd3eccdc6" x="957.394329" y="131.845453" style="fill: #bfbf00; stroke: #bfbf00"/>
     <use xlink:href="#mbbd3eccdc6" x="961.582819" y="143.338884" style="fill: #bfbf00; stroke: #bfbf00"/>
     <use xlink:href="#mbbd3eccdc6" x="965.771309" y="139.760373" style="fill: #bfbf00; stroke: #bfbf00"/>
     <use xlink:href="#mbbd3eccdc6" x="969.9598" y="127.831286" style="fill: #bfbf00; stroke: #bfbf00"/>
     <use xlink:href="#mbbd3eccdc6" x="974.14829" y="126.739055" style="fill: #bfbf00; stroke: #bfbf00"/>
     <use xlink:href="#mbbd3eccdc6" x="978.336781" y="103.880361" style="fill: #bfbf00; stroke: #bfbf00"/>
     <use xlink:href="#mbbd3eccdc6" x="982.525271" y="121.671376" style="fill: #bfbf00; stroke: #bfbf00"/>
     <use xlink:href="#mbbd3eccdc6" x="986.713761" y="162.882352" style="fill: #bfbf00; stroke: #bfbf00"/>
     <use xlink:href="#mbbd3eccdc6" x="990.902252" y="165.202597" style="fill: #bfbf00; stroke: #bfbf00"/>
     <use xlink:href="#mbbd3eccdc6" x="995.090742" y="234.720427" style="fill: #bfbf00; stroke: #bfbf00"/>
     <use xlink:href="#mbbd3eccdc6" x="999.279233" y="155.917142" style="fill: #bfbf00; stroke: #bfbf00"/>
     <use xlink:href="#mbbd3eccdc6" x="1003.467723" y="134.836147" style="fill: #bfbf00; stroke: #bfbf00"/>
     <use xlink:href="#mbbd3eccdc6" x="1007.656214" y="125.162782" style="fill: #bfbf00; stroke: #bfbf00"/>
     <use xlink:href="#mbbd3eccdc6" x="1011.844704" y="130.937205" style="fill: #bfbf00; stroke: #bfbf00"/>
     <use xlink:href="#mbbd3eccdc6" x="1016.033194" y="155.770521" style="fill: #bfbf00; stroke: #bfbf00"/>
     <use xlink:href="#mbbd3eccdc6" x="1020.221685" y="161.502603" style="fill: #bfbf00; stroke: #bfbf00"/>
     <use xlink:href="#mbbd3eccdc6" x="1024.410175" y="136.460167" style="fill: #bfbf00; stroke: #bfbf00"/>
     <use xlink:href="#mbbd3eccdc6" x="1028.598666" y="154.285027" style="fill: #bfbf00; stroke: #bfbf00"/>
     <use xlink:href="#mbbd3eccdc6" x="1032.787156" y="185.086176" style="fill: #bfbf00; stroke: #bfbf00"/>
     <use xlink:href="#mbbd3eccdc6" x="1036.975646" y="125.357975" style="fill: #bfbf00; stroke: #bfbf00"/>
     <use xlink:href="#mbbd3eccdc6" x="1041.164137" y="162.680688" style="fill: #bfbf00; stroke: #bfbf00"/>
     <use xlink:href="#mbbd3eccdc6" x="1045.352627" y="249.642631" style="fill: #bfbf00; stroke: #bfbf00"/>
     <use xlink:href="#mbbd3eccdc6" x="1049.541118" y="408.882673" style="fill: #bfbf00; stroke: #bfbf00"/>
     <use xlink:href="#mbbd3eccdc6" x="1053.729608" y="168.010986" style="fill: #bfbf00; stroke: #bfbf00"/>
     <use xlink:href="#mbbd3eccdc6" x="1057.918098" y="154.295785" style="fill: #bfbf00; stroke: #bfbf00"/>
     <use xlink:href="#mbbd3eccdc6" x="1062.106589" y="149.782903" style="fill: #bfbf00; stroke: #bfbf00"/>
     <use xlink:href="#mbbd3eccdc6" x="1066.295079" y="257.263003" style="fill: #bfbf00; stroke: #bfbf00"/>
     <use xlink:href="#mbbd3eccdc6" x="1070.48357" y="167.065616" style="fill: #bfbf00; stroke: #bfbf00"/>
     <use xlink:href="#mbbd3eccdc6" x="1074.67206" y="274.546462" style="fill: #bfbf00; stroke: #bfbf00"/>
     <use xlink:href="#mbbd3eccdc6" x="1078.86055" y="203.628006" style="fill: #bfbf00; stroke: #bfbf00"/>
     <use xlink:href="#mbbd3eccdc6" x="1083.049041" y="198.969461" style="fill: #bfbf00; stroke: #bfbf00"/>
     <use xlink:href="#mbbd3eccdc6" x="1087.237531" y="128.096302" style="fill: #bfbf00; stroke: #bfbf00"/>
     <use xlink:href="#mbbd3eccdc6" x="1091.426022" y="108.230352" style="fill: #bfbf00; stroke: #bfbf00"/>
     <use xlink:href="#mbbd3eccdc6" x="1095.614512" y="117.815707" style="fill: #bfbf00; stroke: #bfbf00"/>
     <use xlink:href="#mbbd3eccdc6" x="1099.803003" y="114.674025" style="fill: #bfbf00; stroke: #bfbf00"/>
     <use xlink:href="#mbbd3eccdc6" x="1103.991493" y="125.027691" style="fill: #bfbf00; stroke: #bfbf00"/>
     <use xlink:href="#mbbd3eccdc6" x="1108.179983" y="129.048302" style="fill: #bfbf00; stroke: #bfbf00"/>
     <use xlink:href="#mbbd3eccdc6" x="1112.368474" y="114.366881" style="fill: #bfbf00; stroke: #bfbf00"/>
     <use xlink:href="#mbbd3eccdc6" x="1116.556964" y="137.806176" style="fill: #bfbf00; stroke: #bfbf00"/>
     <use xlink:href="#mbbd3eccdc6" x="1120.745455" y="182.750938" style="fill: #bfbf00; stroke: #bfbf00"/>
    </g>
   </g>
   <g id="patch_3">
    <path d="M 162 512.64 
L 162 69.12 
" style="fill: none; stroke: #000000; stroke-width: 0.8; stroke-linejoin: miter; stroke-linecap: square"/>
   </g>
   <g id="patch_4">
    <path d="M 1166.4 512.64 
L 1166.4 69.12 
" style="fill: none; stroke: #000000; stroke-width: 0.8; stroke-linejoin: miter; stroke-linecap: square"/>
   </g>
   <g id="patch_5">
    <path d="M 162 512.64 
L 1166.4 512.64 
" style="fill: none; stroke: #000000; stroke-width: 0.8; stroke-linejoin: miter; stroke-linecap: square"/>
   </g>
   <g id="patch_6">
    <path d="M 162 69.12 
L 1166.4 69.12 
" style="fill: none; stroke: #000000; stroke-width: 0.8; stroke-linejoin: miter; stroke-linecap: square"/>
   </g>
   <g id="text_13">
    <!-- Informer Comparison of True Values and Predictions -->
    <g transform="translate(414.2 63.12) scale(0.2 -0.2)">
     <defs>
      <path id="SimHei-49" d="M 1850 125 
L 1275 125 
L 1275 4400 
L 1850 4400 
L 1850 125 
z
" transform="scale(0.015625)"/>
      <path id="SimHei-6e" d="M 2800 125 
L 2300 125 
L 2300 1925 
Q 2300 2225 2150 2400 
Q 2000 2575 1750 2575 
Q 1425 2575 1137 2237 
Q 850 1900 850 1400 
L 850 125 
L 350 125 
L 350 2925 
L 850 2925 
L 850 2400 
Q 1050 2675 1287 2825 
Q 1525 2975 1900 2975 
Q 2350 2975 2575 2725 
Q 2800 2475 2800 2100 
L 2800 125 
z
" transform="scale(0.015625)"/>
      <path id="SimHei-66" d="M 2850 3825 
Q 2725 3900 2550 3950 
Q 2375 4000 2100 4000 
Q 1825 4000 1725 3862 
Q 1625 3725 1625 3525 
L 1625 2925 
L 2650 2925 
L 2650 2525 
L 1625 2525 
L 1625 125 
L 1125 125 
L 1125 2525 
L 275 2525 
L 275 2925 
L 1125 2925 
L 1125 3500 
Q 1125 3950 1400 4200 
Q 1675 4450 2125 4450 
Q 2400 4450 2562 4412 
Q 2725 4375 2850 4325 
L 2850 3825 
z
" transform="scale(0.015625)"/>
      <path id="SimHei-6f" d="M 2925 1525 
Q 2925 875 2525 475 
Q 2125 75 1575 75 
Q 1025 75 625 475 
Q 225 875 225 1525 
Q 225 2175 625 2575 
Q 1025 2975 1575 2975 
Q 2125 2975 2525 2575 
Q 2925 2175 2925 1525 
z
M 2375 1525 
Q 2375 2025 2125 2275 
Q 1875 2525 1575 2525 
Q 1275 2525 1025 2275 
Q 775 2025 775 1525 
Q 775 1025 1025 775 
Q 1275 525 1575 525 
Q 1875 525 2125 775 
Q 2375 1025 2375 1525 
z
" transform="scale(0.015625)"/>
      <path id="SimHei-72" d="M 2500 2425 
Q 2025 2500 1700 2287 
Q 1375 2075 1150 1550 
L 1150 125 
L 650 125 
L 650 2925 
L 1150 2925 
L 1150 2200 
Q 1375 2600 1712 2787 
Q 2050 2975 2500 2975 
L 2500 2425 
z
" transform="scale(0.015625)"/>
      <path id="SimHei-6d" d="M 3050 125 
L 2550 125 
L 2550 2150 
Q 2550 2300 2500 2400 
Q 2450 2500 2300 2500 
Q 2125 2500 1975 2312 
Q 1825 2125 1825 1825 
L 1825 125 
L 1325 125 
L 1325 2150 
Q 1325 2300 1275 2400 
Q 1225 2500 1075 2500 
Q 900 2500 750 2312 
Q 600 2125 600 1825 
L 600 125 
L 100 125 
L 100 2925 
L 600 2925 
L 600 2550 
Q 725 2750 900 2862 
Q 1075 2975 1275 2975 
Q 1475 2975 1612 2862 
Q 1750 2750 1800 2550 
Q 1925 2750 2087 2862 
Q 2250 2975 2450 2975 
Q 2750 2975 2900 2812 
Q 3050 2650 3050 2350 
L 3050 125 
z
" transform="scale(0.015625)"/>
      <path id="SimHei-65" d="M 2850 1075 
Q 2800 625 2450 350 
Q 2100 75 1625 75 
Q 1025 75 637 462 
Q 250 850 250 1525 
Q 250 2200 637 2587 
Q 1025 2975 1625 2975 
Q 2150 2975 2487 2637 
Q 2825 2300 2825 1525 
L 800 1525 
Q 800 975 1037 750 
Q 1275 525 1625 525 
Q 1900 525 2075 662 
Q 2250 800 2300 1075 
L 2850 1075 
z
M 2250 1925 
Q 2200 2275 2025 2412 
Q 1850 2550 1575 2550 
Q 1325 2550 1125 2412 
Q 925 2275 825 1925 
L 2250 1925 
z
" transform="scale(0.015625)"/>
      <path id="SimHei-20" transform="scale(0.015625)"/>
      <path id="SimHei-43" d="M 2975 1825 
Q 2950 875 2575 475 
Q 2200 75 1675 75 
Q 1075 75 650 562 
Q 225 1050 225 2125 
Q 225 3300 637 3875 
Q 1050 4450 1700 4450 
Q 2250 4450 2612 4037 
Q 2975 3625 2950 2875 
L 2400 2875 
Q 2400 3425 2225 3700 
Q 2050 3975 1700 3975 
Q 1300 3975 1062 3562 
Q 825 3150 825 2175 
Q 825 1275 1062 912 
Q 1300 550 1675 550 
Q 1950 550 2175 812 
Q 2400 1075 2400 1825 
L 2975 1825 
z
" transform="scale(0.015625)"/>
      <path id="SimHei-70" d="M 2825 1525 
Q 2825 800 2475 425 
Q 2125 50 1625 50 
Q 1350 50 1150 162 
Q 950 275 800 500 
L 800 -800 
L 300 -800 
L 300 2925 
L 800 2925 
L 800 2550 
Q 950 2775 1150 2875 
Q 1350 2975 1625 2975 
Q 2125 2975 2475 2612 
Q 2825 2250 2825 1525 
z
M 2275 1525 
Q 2275 2000 2087 2262 
Q 1900 2525 1525 2525 
Q 1225 2525 1012 2262 
Q 800 2000 800 1525 
Q 800 1050 1012 775 
Q 1225 500 1525 500 
Q 1900 500 2087 775 
Q 2275 1050 2275 1525 
z
" transform="scale(0.015625)"/>
      <path id="SimHei-61" d="M 2875 125 
L 2275 125 
Q 2225 175 2200 262 
Q 2175 350 2175 475 
Q 2000 275 1750 175 
Q 1500 75 1225 75 
Q 825 75 550 275 
Q 275 475 275 850 
Q 275 1225 525 1450 
Q 775 1675 1300 1750 
Q 1650 1800 1912 1875 
Q 2175 1950 2175 2075 
Q 2175 2225 2062 2375 
Q 1950 2525 1575 2525 
Q 1275 2525 1137 2412 
Q 1000 2300 950 2100 
L 400 2100 
Q 450 2500 762 2737 
Q 1075 2975 1575 2975 
Q 2125 2975 2400 2725 
Q 2675 2475 2675 2025 
L 2675 650 
Q 2675 500 2725 375 
Q 2775 250 2875 125 
z
M 2175 1050 
L 2175 1550 
Q 2025 1500 1887 1462 
Q 1750 1425 1425 1375 
Q 1050 1325 937 1200 
Q 825 1075 825 900 
Q 825 750 937 637 
Q 1050 525 1275 525 
Q 1500 525 1762 650 
Q 2025 775 2175 1050 
z
" transform="scale(0.015625)"/>
      <path id="SimHei-69" d="M 1800 3725 
L 1300 3725 
L 1300 4375 
L 1800 4375 
L 1800 3725 
z
M 1800 125 
L 1300 125 
L 1300 2925 
L 1800 2925 
L 1800 125 
z
" transform="scale(0.015625)"/>
      <path id="SimHei-73" d="M 2750 900 
Q 2750 500 2437 287 
Q 2125 75 1650 75 
Q 1050 75 725 312 
Q 400 550 400 1000 
L 900 1000 
Q 900 700 1112 600 
Q 1325 500 1625 500 
Q 1925 500 2075 612 
Q 2225 725 2225 900 
Q 2225 1025 2100 1150 
Q 1975 1275 1475 1350 
Q 900 1425 687 1637 
Q 475 1850 475 2200 
Q 475 2500 762 2737 
Q 1050 2975 1600 2975 
Q 2100 2975 2387 2750 
Q 2675 2525 2675 2150 
L 2175 2150 
Q 2175 2375 2012 2462 
Q 1850 2550 1600 2550 
Q 1275 2550 1137 2437 
Q 1000 2325 1000 2175 
Q 1000 2000 1125 1900 
Q 1250 1800 1650 1750 
Q 2300 1650 2525 1437 
Q 2750 1225 2750 900 
z
" transform="scale(0.015625)"/>
      <path id="SimHei-54" d="M 2850 3925 
L 1850 3925 
L 1850 125 
L 1275 125 
L 1275 3925 
L 275 3925 
L 275 4400 
L 2850 4400 
L 2850 3925 
z
" transform="scale(0.015625)"/>
      <path id="SimHei-75" d="M 2800 125 
L 2300 125 
L 2300 650 
Q 2100 375 1862 225 
Q 1625 75 1250 75 
Q 800 75 575 325 
Q 350 575 350 950 
L 350 2925 
L 850 2925 
L 850 1125 
Q 850 825 1000 650 
Q 1150 475 1400 475 
Q 1725 475 2012 812 
Q 2300 1150 2300 1650 
L 2300 2925 
L 2800 2925 
L 2800 125 
z
" transform="scale(0.015625)"/>
      <path id="SimHei-56" d="M 3050 4400 
L 1800 75 
L 1300 75 
L 50 4400 
L 650 4400 
L 1525 1125 
L 1575 1125 
L 2450 4400 
L 3050 4400 
z
" transform="scale(0.015625)"/>
      <path id="SimHei-6c" d="M 1825 125 
L 1325 125 
L 1325 4400 
L 1825 4400 
L 1825 125 
z
" transform="scale(0.015625)"/>
      <path id="SimHei-64" d="M 2750 125 
L 2250 125 
L 2250 500 
Q 2100 275 1900 175 
Q 1700 75 1425 75 
Q 925 75 575 437 
Q 225 800 225 1525 
Q 225 2250 575 2625 
Q 925 3000 1425 3000 
Q 1700 3000 1900 2887 
Q 2100 2775 2250 2550 
L 2250 4400 
L 2750 4400 
L 2750 125 
z
M 2250 1525 
Q 2250 2000 2037 2275 
Q 1825 2550 1525 2550 
Q 1150 2550 962 2275 
Q 775 2000 775 1525 
Q 775 1050 962 787 
Q 1150 525 1525 525 
Q 1825 525 2037 787 
Q 2250 1050 2250 1525 
z
" transform="scale(0.015625)"/>
      <path id="SimHei-50" d="M 2950 3100 
Q 2950 2500 2600 2150 
Q 2250 1800 1625 1800 
L 900 1800 
L 900 125 
L 325 125 
L 325 4400 
L 1625 4400 
Q 2250 4400 2600 4050 
Q 2950 3700 2950 3100 
z
M 2375 3100 
Q 2375 3575 2150 3750 
Q 1925 3925 1475 3925 
L 900 3925 
L 900 2275 
L 1475 2275 
Q 1925 2275 2150 2450 
Q 2375 2625 2375 3100 
z
" transform="scale(0.015625)"/>
      <path id="SimHei-63" d="M 2850 1250 
Q 2850 725 2487 400 
Q 2125 75 1575 75 
Q 1025 75 625 462 
Q 225 850 225 1525 
Q 225 2200 625 2587 
Q 1025 2975 1575 2975 
Q 2125 2975 2450 2687 
Q 2775 2400 2775 2000 
L 2225 2000 
Q 2200 2300 2012 2412 
Q 1825 2525 1575 2525 
Q 1275 2525 1025 2287 
Q 775 2050 775 1525 
Q 775 1000 1025 762 
Q 1275 525 1575 525 
Q 1900 525 2100 700 
Q 2300 875 2300 1250 
L 2850 1250 
z
" transform="scale(0.015625)"/>
      <path id="SimHei-74" d="M 2750 200 
Q 2625 150 2462 112 
Q 2300 75 2025 75 
Q 1575 75 1300 325 
Q 1025 575 1025 1025 
L 1025 2525 
L 175 2525 
L 175 2925 
L 1025 2925 
L 1025 3900 
L 1525 3900 
L 1525 2925 
L 2550 2925 
L 2550 2525 
L 1525 2525 
L 1525 1000 
Q 1525 800 1625 662 
Q 1725 525 2000 525 
Q 2275 525 2450 575 
Q 2625 625 2750 700 
L 2750 200 
z
" transform="scale(0.015625)"/>
     </defs>
     <use xlink:href="#SimHei-49"/>
     <use xlink:href="#SimHei-6e" x="50"/>
     <use xlink:href="#SimHei-66" x="100"/>
     <use xlink:href="#SimHei-6f" x="150"/>
     <use xlink:href="#SimHei-72" x="200"/>
     <use xlink:href="#SimHei-6d" x="250"/>
     <use xlink:href="#SimHei-65" x="300"/>
     <use xlink:href="#SimHei-72" x="350"/>
     <use xlink:href="#SimHei-20" x="400"/>
     <use xlink:href="#SimHei-43" x="450"/>
     <use xlink:href="#SimHei-6f" x="500"/>
     <use xlink:href="#SimHei-6d" x="550"/>
     <use xlink:href="#SimHei-70" x="600"/>
     <use xlink:href="#SimHei-61" x="650"/>
     <use xlink:href="#SimHei-72" x="700"/>
     <use xlink:href="#SimHei-69" x="750"/>
     <use xlink:href="#SimHei-73" x="800"/>
     <use xlink:href="#SimHei-6f" x="850"/>
     <use xlink:href="#SimHei-6e" x="900"/>
     <use xlink:href="#SimHei-20" x="950"/>
     <use xlink:href="#SimHei-6f" x="1000"/>
     <use xlink:href="#SimHei-66" x="1050"/>
     <use xlink:href="#SimHei-20" x="1100"/>
     <use xlink:href="#SimHei-54" x="1150"/>
     <use xlink:href="#SimHei-72" x="1200"/>
     <use xlink:href="#SimHei-75" x="1250"/>
     <use xlink:href="#SimHei-65" x="1300"/>
     <use xlink:href="#SimHei-20" x="1350"/>
     <use xlink:href="#SimHei-56" x="1400"/>
     <use xlink:href="#SimHei-61" x="1450"/>
     <use xlink:href="#SimHei-6c" x="1500"/>
     <use xlink:href="#SimHei-75" x="1550"/>
     <use xlink:href="#SimHei-65" x="1600"/>
     <use xlink:href="#SimHei-73" x="1650"/>
     <use xlink:href="#SimHei-20" x="1700"/>
     <use xlink:href="#SimHei-61" x="1750"/>
     <use xlink:href="#SimHei-6e" x="1800"/>
     <use xlink:href="#SimHei-64" x="1850"/>
     <use xlink:href="#SimHei-20" x="1900"/>
     <use xlink:href="#SimHei-50" x="1950"/>
     <use xlink:href="#SimHei-72" x="2000"/>
     <use xlink:href="#SimHei-65" x="2050"/>
     <use xlink:href="#SimHei-64" x="2100"/>
     <use xlink:href="#SimHei-69" x="2150"/>
     <use xlink:href="#SimHei-63" x="2200"/>
     <use xlink:href="#SimHei-74" x="2250"/>
     <use xlink:href="#SimHei-69" x="2300"/>
     <use xlink:href="#SimHei-6f" x="2350"/>
     <use xlink:href="#SimHei-6e" x="2400"/>
     <use xlink:href="#SimHei-73" x="2450"/>
    </g>
   </g>
   <g id="legend_1">
    <g id="patch_7">
     <path d="M 169 507.64 
L 256 507.64 
Q 258 507.64 258 505.64 
L 258 480.14 
Q 258 478.14 256 478.14 
L 169 478.14 
Q 167 478.14 167 480.14 
L 167 505.64 
Q 167 507.64 169 507.64 
z
" style="fill: #ffffff; opacity: 0.8; stroke: #cccccc; stroke-linejoin: miter"/>
    </g>
    <g id="line2d_25">
     <path d="M 171 485.64 
L 181 485.64 
L 191 485.64 
" style="fill: none; stroke: #ff0000; stroke-width: 1.5; stroke-linecap: square"/>
     <g>
      <use xlink:href="#md81ecf4ab8" x="181" y="485.64" style="fill: #ff0000; stroke: #ff0000"/>
     </g>
    </g>
    <g id="text_14">
     <!-- True Values -->
     <g transform="translate(199 489.14) scale(0.1 -0.1)">
      <use xlink:href="#SimHei-54"/>
      <use xlink:href="#SimHei-72" x="50"/>
      <use xlink:href="#SimHei-75" x="100"/>
      <use xlink:href="#SimHei-65" x="150"/>
      <use xlink:href="#SimHei-20" x="200"/>
      <use xlink:href="#SimHei-56" x="250"/>
      <use xlink:href="#SimHei-61" x="300"/>
      <use xlink:href="#SimHei-6c" x="350"/>
      <use xlink:href="#SimHei-75" x="400"/>
      <use xlink:href="#SimHei-65" x="450"/>
      <use xlink:href="#SimHei-73" x="500"/>
     </g>
    </g>
    <g id="line2d_26">
     <path d="M 171 498.89 
L 181 498.89 
L 191 498.89 
" style="fill: none; stroke-dasharray: 5.55,2.4; stroke-dashoffset: 0; stroke: #bfbf00; stroke-width: 1.5"/>
     <g>
      <use xlink:href="#mbbd3eccdc6" x="181" y="498.89" style="fill: #bfbf00; stroke: #bfbf00"/>
     </g>
    </g>
    <g id="text_15">
     <!-- Predictions -->
     <g transform="translate(199 502.39) scale(0.1 -0.1)">
      <use xlink:href="#SimHei-50"/>
      <use xlink:href="#SimHei-72" x="50"/>
      <use xlink:href="#SimHei-65" x="100"/>
      <use xlink:href="#SimHei-64" x="150"/>
      <use xlink:href="#SimHei-69" x="200"/>
      <use xlink:href="#SimHei-63" x="250"/>
      <use xlink:href="#SimHei-74" x="300"/>
      <use xlink:href="#SimHei-69" x="350"/>
      <use xlink:href="#SimHei-6f" x="400"/>
      <use xlink:href="#SimHei-6e" x="450"/>
      <use xlink:href="#SimHei-73" x="500"/>
     </g>
    </g>
   </g>
  </g>
 </g>
 <defs>
  <clipPath id="p851654cb42">
   <rect x="162" y="69.12" width="1004.4" height="443.52"/>
  </clipPath>
 </defs>
</svg>
