<?xml version="1.0" encoding="utf-8" standalone="no"?>
<!DOCTYPE svg PUBLIC "-//W3C//DTD SVG 1.1//EN"
  "http://www.w3.org/Graphics/SVG/1.1/DTD/svg11.dtd">
<svg xmlns:xlink="http://www.w3.org/1999/xlink" width="1296pt" height="576pt" viewBox="0 0 1296 576" xmlns="http://www.w3.org/2000/svg" version="1.1">
 <metadata>
  <rdf:RDF xmlns:dc="http://purl.org/dc/elements/1.1/" xmlns:cc="http://creativecommons.org/ns#" xmlns:rdf="http://www.w3.org/1999/02/22-rdf-syntax-ns#">
   <cc:Work>
    <dc:type rdf:resource="http://purl.org/dc/dcmitype/StillImage"/>
    <dc:date>2024-09-23T23:46:12.701094</dc:date>
    <dc:format>image/svg+xml</dc:format>
    <dc:creator>
     <cc:Agent>
      <dc:title>Matplotlib v3.6.2, https://matplotlib.org/</dc:title>
     </cc:Agent>
    </dc:creator>
   </cc:Work>
  </rdf:RDF>
 </metadata>
 <defs>
  <style type="text/css">*{stroke-linejoin: round; stroke-linecap: butt}</style>
 </defs>
 <g id="figure_1">
  <g id="patch_1">
   <path d="M 0 576 
L 1296 576 
L 1296 0 
L 0 0 
z
" style="fill: #ffffff"/>
  </g>
  <g id="axes_1">
   <g id="patch_2">
    <path d="M 162 512.64 
L 1166.4 512.64 
L 1166.4 69.12 
L 162 69.12 
z
" style="fill: #ffffff"/>
   </g>
   <g id="matplotlib.axis_1">
    <g id="xtick_1">
     <g id="line2d_1">
      <path d="M 207.654545 512.64 
L 207.654545 69.12 
" clip-path="url(#pf6d5cd2cae)" style="fill: none; stroke: #b0b0b0; stroke-width: 0.8; stroke-linecap: square"/>
     </g>
     <g id="line2d_2">
      <defs>
       <path id="m73f84240b4" d="M 0 0 
L 0 3.5 
" style="stroke: #000000; stroke-width: 0.8"/>
      </defs>
      <g>
       <use xlink:href="#m73f84240b4" x="207.654545" y="512.64" style="stroke: #000000; stroke-width: 0.8"/>
      </g>
     </g>
     <g id="text_1">
      <!-- 0 -->
      <g transform="translate(204.154545 529.265) scale(0.14 -0.14)">
       <defs>
        <path id="SimHei-30" d="M 225 2537 
Q 250 3200 412 3587 
Q 575 3975 875 4225 
Q 1175 4475 1612 4475 
Q 2050 4475 2375 4112 
Q 2700 3750 2800 3200 
Q 2900 2650 2862 1937 
Q 2825 1225 2612 775 
Q 2400 325 1975 150 
Q 1550 -25 1125 187 
Q 700 400 525 750 
Q 350 1100 275 1487 
Q 200 1875 225 2537 
z
M 750 2687 
Q 675 2000 800 1462 
Q 925 925 1212 700 
Q 1500 475 1800 612 
Q 2100 750 2237 1162 
Q 2375 1575 2375 2062 
Q 2375 2550 2337 2950 
Q 2300 3350 2112 3675 
Q 1925 4000 1612 4012 
Q 1300 4025 1062 3700 
Q 825 3375 750 2687 
z
" transform="scale(0.015625)"/>
       </defs>
       <use xlink:href="#SimHei-30"/>
      </g>
     </g>
    </g>
    <g id="xtick_2">
     <g id="line2d_3">
      <path d="M 417.079066 512.64 
L 417.079066 69.12 
" clip-path="url(#pf6d5cd2cae)" style="fill: none; stroke: #b0b0b0; stroke-width: 0.8; stroke-linecap: square"/>
     </g>
     <g id="line2d_4">
      <g>
       <use xlink:href="#m73f84240b4" x="417.079066" y="512.64" style="stroke: #000000; stroke-width: 0.8"/>
      </g>
     </g>
     <g id="text_2">
      <!-- 50 -->
      <g transform="translate(410.079066 529.265) scale(0.14 -0.14)">
       <defs>
        <path id="SimHei-35" d="M 550 1325 
Q 725 650 1150 575 
Q 1575 500 1837 662 
Q 2100 825 2212 1087 
Q 2325 1350 2312 1675 
Q 2300 2000 2137 2225 
Q 1975 2450 1725 2525 
Q 1475 2600 1162 2525 
Q 850 2450 650 2175 
L 225 2225 
Q 275 2375 700 4375 
L 2675 4375 
L 2675 3925 
L 1075 3925 
Q 950 3250 825 2850 
Q 1200 3025 1525 3012 
Q 1850 3000 2150 2862 
Q 2450 2725 2587 2487 
Q 2725 2250 2787 2012 
Q 2850 1775 2837 1500 
Q 2825 1225 2725 937 
Q 2625 650 2425 462 
Q 2225 275 1937 162 
Q 1650 50 1275 75 
Q 900 100 562 350 
Q 225 600 100 1200 
L 550 1325 
z
" transform="scale(0.015625)"/>
       </defs>
       <use xlink:href="#SimHei-35"/>
       <use xlink:href="#SimHei-30" x="50"/>
      </g>
     </g>
    </g>
    <g id="xtick_3">
     <g id="line2d_5">
      <path d="M 626.503586 512.64 
L 626.503586 69.12 
" clip-path="url(#pf6d5cd2cae)" style="fill: none; stroke: #b0b0b0; stroke-width: 0.8; stroke-linecap: square"/>
     </g>
     <g id="line2d_6">
      <g>
       <use xlink:href="#m73f84240b4" x="626.503586" y="512.64" style="stroke: #000000; stroke-width: 0.8"/>
      </g>
     </g>
     <g id="text_3">
      <!-- 100 -->
      <g transform="translate(616.003586 529.265) scale(0.14 -0.14)">
       <defs>
        <path id="SimHei-31" d="M 1400 3600 
Q 1075 3275 575 2975 
L 575 3450 
Q 1200 3875 1600 4450 
L 1900 4450 
L 1900 150 
L 1400 150 
L 1400 3600 
z
" transform="scale(0.015625)"/>
       </defs>
       <use xlink:href="#SimHei-31"/>
       <use xlink:href="#SimHei-30" x="50"/>
       <use xlink:href="#SimHei-30" x="100"/>
      </g>
     </g>
    </g>
    <g id="xtick_4">
     <g id="line2d_7">
      <path d="M 835.928107 512.64 
L 835.928107 69.12 
" clip-path="url(#pf6d5cd2cae)" style="fill: none; stroke: #b0b0b0; stroke-width: 0.8; stroke-linecap: square"/>
     </g>
     <g id="line2d_8">
      <g>
       <use xlink:href="#m73f84240b4" x="835.928107" y="512.64" style="stroke: #000000; stroke-width: 0.8"/>
      </g>
     </g>
     <g id="text_4">
      <!-- 150 -->
      <g transform="translate(825.428107 529.265) scale(0.14 -0.14)">
       <use xlink:href="#SimHei-31"/>
       <use xlink:href="#SimHei-35" x="50"/>
       <use xlink:href="#SimHei-30" x="100"/>
      </g>
     </g>
    </g>
    <g id="xtick_5">
     <g id="line2d_9">
      <path d="M 1045.352627 512.64 
L 1045.352627 69.12 
" clip-path="url(#pf6d5cd2cae)" style="fill: none; stroke: #b0b0b0; stroke-width: 0.8; stroke-linecap: square"/>
     </g>
     <g id="line2d_10">
      <g>
       <use xlink:href="#m73f84240b4" x="1045.352627" y="512.64" style="stroke: #000000; stroke-width: 0.8"/>
      </g>
     </g>
     <g id="text_5">
      <!-- 200 -->
      <g transform="translate(1034.852627 529.265) scale(0.14 -0.14)">
       <defs>
        <path id="SimHei-32" d="M 300 250 
Q 325 625 650 925 
Q 975 1225 1475 1862 
Q 1975 2500 2125 2850 
Q 2275 3200 2237 3450 
Q 2200 3700 2000 3862 
Q 1800 4025 1537 4000 
Q 1275 3975 1037 3800 
Q 800 3625 675 3275 
L 200 3350 
Q 400 3925 712 4187 
Q 1025 4450 1450 4475 
Q 1700 4500 1900 4462 
Q 2100 4425 2312 4287 
Q 2525 4150 2662 3875 
Q 2800 3600 2762 3212 
Q 2725 2825 2375 2287 
Q 2025 1750 1025 600 
L 2825 600 
L 2825 150 
L 300 150 
L 300 250 
z
" transform="scale(0.015625)"/>
       </defs>
       <use xlink:href="#SimHei-32"/>
       <use xlink:href="#SimHei-30" x="50"/>
       <use xlink:href="#SimHei-30" x="100"/>
      </g>
     </g>
    </g>
   </g>
   <g id="matplotlib.axis_2">
    <g id="ytick_1">
     <g id="line2d_11">
      <path d="M 162 479.887998 
L 1166.4 479.887998 
" clip-path="url(#pf6d5cd2cae)" style="fill: none; stroke: #b0b0b0; stroke-width: 0.8; stroke-linecap: square"/>
     </g>
     <g id="line2d_12">
      <defs>
       <path id="ma8ecfbd652" d="M 0 0 
L -3.5 0 
" style="stroke: #000000; stroke-width: 0.8"/>
      </defs>
      <g>
       <use xlink:href="#ma8ecfbd652" x="162" y="479.887998" style="stroke: #000000; stroke-width: 0.8"/>
      </g>
     </g>
     <g id="text_6">
      <!-- 10 -->
      <g transform="translate(141 484.700498) scale(0.14 -0.14)">
       <use xlink:href="#SimHei-31"/>
       <use xlink:href="#SimHei-30" x="50"/>
      </g>
     </g>
    </g>
    <g id="ytick_2">
     <g id="line2d_13">
      <path d="M 162 415.706419 
L 1166.4 415.706419 
" clip-path="url(#pf6d5cd2cae)" style="fill: none; stroke: #b0b0b0; stroke-width: 0.8; stroke-linecap: square"/>
     </g>
     <g id="line2d_14">
      <g>
       <use xlink:href="#ma8ecfbd652" x="162" y="415.706419" style="stroke: #000000; stroke-width: 0.8"/>
      </g>
     </g>
     <g id="text_7">
      <!-- 20 -->
      <g transform="translate(141 420.518919) scale(0.14 -0.14)">
       <use xlink:href="#SimHei-32"/>
       <use xlink:href="#SimHei-30" x="50"/>
      </g>
     </g>
    </g>
    <g id="ytick_3">
     <g id="line2d_15">
      <path d="M 162 351.52484 
L 1166.4 351.52484 
" clip-path="url(#pf6d5cd2cae)" style="fill: none; stroke: #b0b0b0; stroke-width: 0.8; stroke-linecap: square"/>
     </g>
     <g id="line2d_16">
      <g>
       <use xlink:href="#ma8ecfbd652" x="162" y="351.52484" style="stroke: #000000; stroke-width: 0.8"/>
      </g>
     </g>
     <g id="text_8">
      <!-- 30 -->
      <g transform="translate(141 356.33734) scale(0.14 -0.14)">
       <defs>
        <path id="SimHei-33" d="M 250 1225 
L 700 1300 
Q 800 975 1025 762 
Q 1250 550 1587 562 
Q 1925 575 2125 837 
Q 2325 1100 2300 1437 
Q 2275 1775 2037 1962 
Q 1800 2150 1275 2225 
L 1275 2550 
Q 1800 2600 2037 2825 
Q 2275 3050 2250 3412 
Q 2225 3775 1925 3937 
Q 1625 4100 1287 3975 
Q 950 3850 750 3275 
L 300 3350 
Q 450 3800 712 4100 
Q 975 4400 1425 4450 
Q 1875 4500 2212 4337 
Q 2550 4175 2687 3837 
Q 2825 3500 2725 3100 
Q 2625 2700 2150 2400 
Q 2500 2250 2687 1950 
Q 2875 1650 2812 1162 
Q 2750 675 2375 375 
Q 2000 75 1525 87 
Q 1050 100 700 387 
Q 350 675 250 1225 
z
" transform="scale(0.015625)"/>
       </defs>
       <use xlink:href="#SimHei-33"/>
       <use xlink:href="#SimHei-30" x="50"/>
      </g>
     </g>
    </g>
    <g id="ytick_4">
     <g id="line2d_17">
      <path d="M 162 287.343261 
L 1166.4 287.343261 
" clip-path="url(#pf6d5cd2cae)" style="fill: none; stroke: #b0b0b0; stroke-width: 0.8; stroke-linecap: square"/>
     </g>
     <g id="line2d_18">
      <g>
       <use xlink:href="#ma8ecfbd652" x="162" y="287.343261" style="stroke: #000000; stroke-width: 0.8"/>
      </g>
     </g>
     <g id="text_9">
      <!-- 40 -->
      <g transform="translate(141 292.155761) scale(0.14 -0.14)">
       <defs>
        <path id="SimHei-34" d="M 2000 1100 
L 75 1100 
L 75 1525 
L 2100 4450 
L 2475 4450 
L 2475 1525 
L 3075 1525 
L 3075 1100 
L 2475 1100 
L 2475 150 
L 2000 150 
L 2000 1100 
z
M 2000 1525 
L 2000 3500 
L 600 1525 
L 2000 1525 
z
" transform="scale(0.015625)"/>
       </defs>
       <use xlink:href="#SimHei-34"/>
       <use xlink:href="#SimHei-30" x="50"/>
      </g>
     </g>
    </g>
    <g id="ytick_5">
     <g id="line2d_19">
      <path d="M 162 223.161682 
L 1166.4 223.161682 
" clip-path="url(#pf6d5cd2cae)" style="fill: none; stroke: #b0b0b0; stroke-width: 0.8; stroke-linecap: square"/>
     </g>
     <g id="line2d_20">
      <g>
       <use xlink:href="#ma8ecfbd652" x="162" y="223.161682" style="stroke: #000000; stroke-width: 0.8"/>
      </g>
     </g>
     <g id="text_10">
      <!-- 50 -->
      <g transform="translate(141 227.974182) scale(0.14 -0.14)">
       <use xlink:href="#SimHei-35"/>
       <use xlink:href="#SimHei-30" x="50"/>
      </g>
     </g>
    </g>
    <g id="ytick_6">
     <g id="line2d_21">
      <path d="M 162 158.980104 
L 1166.4 158.980104 
" clip-path="url(#pf6d5cd2cae)" style="fill: none; stroke: #b0b0b0; stroke-width: 0.8; stroke-linecap: square"/>
     </g>
     <g id="line2d_22">
      <g>
       <use xlink:href="#ma8ecfbd652" x="162" y="158.980104" style="stroke: #000000; stroke-width: 0.8"/>
      </g>
     </g>
     <g id="text_11">
      <!-- 60 -->
      <g transform="translate(141 163.792604) scale(0.14 -0.14)">
       <defs>
        <path id="SimHei-36" d="M 250 1612 
Q 275 1975 387 2225 
Q 500 2475 725 2850 
L 1750 4450 
L 2325 4450 
L 1275 2800 
Q 1950 2975 2350 2750 
Q 2750 2525 2887 2237 
Q 3025 1950 3037 1612 
Q 3050 1275 2937 950 
Q 2825 625 2537 362 
Q 2250 100 1737 75 
Q 1225 50 862 262 
Q 500 475 362 862 
Q 225 1250 250 1612 
z
M 1025 787 
Q 1250 550 1625 525 
Q 2000 500 2250 775 
Q 2500 1050 2500 1575 
Q 2500 2100 2187 2300 
Q 1875 2500 1487 2450 
Q 1100 2400 925 2075 
Q 750 1750 775 1387 
Q 800 1025 1025 787 
z
" transform="scale(0.015625)"/>
       </defs>
       <use xlink:href="#SimHei-36"/>
       <use xlink:href="#SimHei-30" x="50"/>
      </g>
     </g>
    </g>
    <g id="ytick_7">
     <g id="line2d_23">
      <path d="M 162 94.798525 
L 1166.4 94.798525 
" clip-path="url(#pf6d5cd2cae)" style="fill: none; stroke: #b0b0b0; stroke-width: 0.8; stroke-linecap: square"/>
     </g>
     <g id="line2d_24">
      <g>
       <use xlink:href="#ma8ecfbd652" x="162" y="94.798525" style="stroke: #000000; stroke-width: 0.8"/>
      </g>
     </g>
     <g id="text_12">
      <!-- 70 -->
      <g transform="translate(141 99.611025) scale(0.14 -0.14)">
       <defs>
        <path id="SimHei-37" d="M 850 150 
Q 1300 2050 2425 3925 
L 275 3925 
L 275 4375 
L 2950 4375 
L 2950 3950 
Q 1775 2050 1400 150 
L 850 150 
z
" transform="scale(0.015625)"/>
       </defs>
       <use xlink:href="#SimHei-37"/>
       <use xlink:href="#SimHei-30" x="50"/>
      </g>
     </g>
    </g>
    <g id="text_13">
     <!-- 充电量(Ah) -->
     <g transform="translate(135 330.88) rotate(-90) scale(0.16 -0.16)">
      <defs>
       <path id="SimHei-5145" d="M 3325 5175 
Q 3425 4825 3600 4300 
L 4900 4300 
Q 5425 4300 5775 4325 
L 5775 3825 
Q 5525 3850 4925 3850 
L 2675 3850 
Q 2850 3700 3100 3550 
Q 2775 3400 1875 2675 
L 4475 2750 
Q 4275 2975 3900 3275 
Q 4150 3450 4275 3600 
Q 5250 2775 5625 2350 
Q 5400 2200 5200 1975 
Q 5000 2225 4800 2425 
Q 4475 2400 4100 2375 
L 4100 325 
Q 4100 0 4425 0 
L 5125 0 
Q 5325 0 5375 175 
Q 5425 350 5475 800 
Q 5850 625 6075 600 
Q 5875 -250 5700 -350 
Q 5525 -450 5275 -450 
L 4225 -450 
Q 3650 -450 3650 75 
L 3650 2325 
L 2650 2250 
Q 2675 -75 800 -650 
Q 650 -375 400 -225 
Q 2225 275 2175 2200 
Q 1550 2150 1175 2050 
Q 1100 2450 1025 2725 
Q 1575 2875 1900 3200 
Q 2225 3525 2475 3850 
L 1450 3850 
Q 1025 3850 575 3825 
L 575 4325 
Q 1025 4300 1450 4300 
L 3000 4300 
Q 2875 4725 2750 5025 
Q 3075 5100 3325 5175 
z
" transform="scale(0.015625)"/>
       <path id="SimHei-7535" d="M 6150 325 
Q 5975 -250 5825 -412 
Q 5675 -575 5325 -575 
L 3375 -575 
Q 2700 -600 2675 100 
L 2675 975 
L 1225 975 
L 1225 500 
L 650 500 
Q 675 750 675 2225 
Q 675 3700 650 4150 
L 2675 4150 
Q 2675 4825 2650 5200 
L 3200 5200 
Q 3175 4875 3175 4150 
L 5200 4150 
Q 5175 3775 5175 2600 
Q 5175 1450 5200 975 
L 3175 975 
L 3175 300 
Q 3175 -150 3650 -150 
L 4975 -150 
Q 5375 -150 5450 25 
Q 5525 200 5575 575 
Q 5825 400 6150 325 
z
M 4675 1400 
L 4675 2400 
L 3175 2400 
L 3175 1400 
L 4675 1400 
z
M 2675 1400 
L 2675 2400 
L 1225 2400 
L 1225 1400 
L 2675 1400 
z
M 4675 2800 
L 4675 3725 
L 3175 3725 
L 3175 2800 
L 4675 2800 
z
M 2675 2800 
L 2675 3725 
L 1225 3725 
L 1225 2800 
L 2675 2800 
z
" transform="scale(0.015625)"/>
       <path id="SimHei-91cf" d="M 5250 2500 
Q 5225 2200 5225 1700 
Q 5225 1225 5250 950 
L 3425 950 
L 3425 625 
L 4575 625 
Q 5000 625 5375 650 
L 5375 275 
Q 5025 300 4575 300 
L 3425 300 
L 3425 -75 
L 5125 -75 
Q 5525 -75 5925 -50 
L 5925 -425 
Q 5525 -400 5125 -400 
L 1275 -400 
Q 900 -400 475 -425 
L 475 -50 
Q 925 -50 1275 -75 
L 2975 -75 
L 2975 300 
L 1725 300 
Q 1350 300 975 250 
L 975 650 
Q 1375 625 1725 625 
L 2975 625 
L 2975 950 
L 1150 950 
Q 1175 1375 1175 1775 
Q 1175 2175 1150 2500 
L 5250 2500 
z
M 5200 4950 
Q 5175 4575 5175 4250 
Q 5175 3925 5200 3400 
L 1200 3400 
Q 1225 3925 1225 4250 
Q 1225 4575 1200 4950 
L 5200 4950 
z
M 4900 3100 
Q 5500 3125 6000 3150 
L 6000 2750 
Q 5500 2775 4925 2775 
L 1650 2775 
Q 975 2775 325 2750 
L 325 3150 
Q 975 3125 1650 3100 
L 4900 3100 
z
M 4725 3700 
L 4725 4025 
L 1675 4025 
L 1675 3700 
L 4725 3700 
z
M 4725 4350 
L 4725 4650 
L 1675 4650 
L 1675 4350 
L 4725 4350 
z
M 4750 1875 
L 4750 2175 
L 3425 2175 
L 3425 1875 
L 4750 1875 
z
M 2975 1875 
L 2975 2175 
L 1650 2175 
L 1650 1875 
L 2975 1875 
z
M 2975 1275 
L 2975 1550 
L 1650 1550 
L 1650 1275 
L 2975 1275 
z
M 4750 1275 
L 4750 1550 
L 3425 1550 
L 3425 1275 
L 4750 1275 
z
" transform="scale(0.015625)"/>
       <path id="SimHei-28" d="M 2975 -200 
L 2700 -475 
Q 2075 125 1762 775 
Q 1450 1425 1450 2250 
Q 1450 3075 1762 3725 
Q 2075 4375 2700 5000 
L 2975 4725 
Q 2400 4175 2112 3587 
Q 1825 3000 1825 2250 
Q 1825 1500 2112 912 
Q 2400 325 2975 -200 
z
" transform="scale(0.015625)"/>
       <path id="SimHei-41" d="M 3075 125 
L 2475 125 
L 2125 1450 
L 1025 1450 
L 675 125 
L 75 125 
L 1325 4450 
L 1825 4450 
L 3075 125 
z
M 2000 1925 
L 1600 3450 
L 1550 3450 
L 1150 1925 
L 2000 1925 
z
" transform="scale(0.015625)"/>
       <path id="SimHei-68" d="M 2800 125 
L 2300 125 
L 2300 1925 
Q 2300 2225 2150 2400 
Q 2000 2575 1750 2575 
Q 1425 2575 1137 2237 
Q 850 1900 850 1400 
L 850 125 
L 350 125 
L 350 4400 
L 850 4400 
L 850 2400 
Q 1050 2675 1287 2825 
Q 1525 2975 1900 2975 
Q 2350 2975 2575 2725 
Q 2800 2475 2800 2100 
L 2800 125 
z
" transform="scale(0.015625)"/>
       <path id="SimHei-29" d="M 1675 2250 
Q 1675 1425 1362 775 
Q 1050 125 425 -475 
L 150 -200 
Q 725 325 1012 912 
Q 1300 1500 1300 2250 
Q 1300 3000 1012 3587 
Q 725 4175 150 4725 
L 425 5000 
Q 1050 4375 1362 3725 
Q 1675 3075 1675 2250 
z
" transform="scale(0.015625)"/>
      </defs>
      <use xlink:href="#SimHei-5145"/>
      <use xlink:href="#SimHei-7535" x="100"/>
      <use xlink:href="#SimHei-91cf" x="200"/>
      <use xlink:href="#SimHei-28" x="300"/>
      <use xlink:href="#SimHei-41" x="350"/>
      <use xlink:href="#SimHei-68" x="400"/>
      <use xlink:href="#SimHei-29" x="450"/>
     </g>
    </g>
   </g>
   <g id="line2d_25">
    <path d="M 207.654545 179.811698 
L 211.843036 134.804655 
L 216.031526 121.48484 
L 220.220017 175.99265 
L 224.408507 151.87424 
L 228.596997 170.35435 
L 232.785488 194.738376 
L 236.973978 200.789749 
L 241.162469 187.657376 
L 245.350959 158.941145 
L 249.53945 156.487946 
L 253.72794 172.356668 
L 257.91643 151.46127 
L 262.104921 164.34026 
L 266.293411 145.482782 
L 270.481902 175.354686 
L 274.670392 141.220188 
L 278.858882 137.520672 
L 283.047373 184.639982 
L 287.235863 135.6339 
L 291.424354 172.528052 
L 295.612844 183.340209 
L 299.801334 170.819018 
L 303.989825 162.403549 
L 308.178315 130.868893 
L 312.366806 187.205814 
L 316.555296 207.519348 
L 320.743786 174.292288 
L 324.932277 174.543321 
L 329.120767 173.56004 
L 333.309258 153.031216 
L 337.497748 117.733966 
L 341.686239 260.901754 
L 345.874729 214.297539 
L 354.25171 287.882091 
L 358.4402 211.218492 
L 362.628691 151.624086 
L 366.817181 187.826386 
L 371.005671 179.116881 
L 375.194162 251.520281 
L 379.382652 365.50215 
L 383.571143 453.097375 
L 387.759633 458.064464 
L 391.948123 441.472582 
L 396.136614 432.26544 
L 400.325104 467.158127 
L 404.513595 132.901049 
L 408.702085 184.115619 
L 412.890575 129.929724 
L 417.079066 165.830736 
L 421.267556 338.25811 
L 425.456047 138.696478 
L 429.644537 183.64502 
L 433.833028 149.836988 
L 438.021518 142.622016 
L 442.210008 149.84677 
L 446.398499 214.522688 
L 450.586989 169.380574 
L 454.77548 137.736964 
L 458.96397 143.02052 
L 463.15246 210.377482 
L 467.340951 168.429833 
L 471.529441 169.493149 
L 475.717932 208.842849 
L 479.906422 136.111989 
L 484.094912 198.366875 
L 492.471893 162.196133 
L 496.660384 149.227584 
L 500.848874 177.87914 
L 505.037364 153.834493 
L 509.225855 211.775248 
L 513.414345 138.349667 
L 517.602836 140.630314 
L 521.791326 290.587062 
L 525.979817 295.82935 
L 530.168307 439.645378 
L 534.356797 422.63846 
L 538.545288 445.271278 
L 542.733778 440.503293 
L 546.922269 455.762816 
L 551.110759 432.732836 
L 555.299249 429.727424 
L 559.48774 453.615756 
L 563.67623 440.209861 
L 567.864721 439.466279 
L 572.053211 166.18016 
L 576.241701 169.394848 
L 580.430192 154.0869 
L 584.618682 143.567988 
L 588.807173 177.745815 
L 592.995663 135.061824 
L 597.184153 205.051611 
L 601.372644 172.218093 
L 605.561134 186.982815 
L 609.749625 130.147171 
L 613.938115 145.670866 
L 618.126606 186.37171 
L 622.315096 211.533007 
L 626.503586 143.865688 
L 630.692077 197.21868 
L 634.880567 180.713539 
L 639.069058 190.62684 
L 643.257548 159.771161 
L 647.446038 183.087796 
L 651.634529 154.607137 
L 655.823019 181.204516 
L 660.01151 148.29898 
L 664.2 146.256311 
L 668.38849 170.557729 
L 672.576981 207.391177 
L 676.765471 198.227524 
L 680.953962 191.335802 
L 685.142452 160.969476 
L 689.330942 151.452849 
L 693.519433 272.316961 
L 697.707923 268.978344 
L 701.896414 383.781539 
L 706.084904 229.494992 
L 710.273394 330.871015 
L 714.461885 455.989088 
L 718.650375 199.603404 
L 722.838866 460.403523 
L 727.027356 453.251192 
L 731.215847 442.735477 
L 735.404337 438.743274 
L 739.592827 453.474422 
L 743.781318 222.361325 
L 747.969808 160.180042 
L 752.158299 244.526472 
L 756.346789 212.065541 
L 760.535279 167.36087 
L 764.72377 118.534285 
L 768.91226 193.811575 
L 773.100751 165.676341 
L 777.289241 143.028234 
L 781.477731 307.389062 
L 785.666222 395.321637 
L 789.854712 274.351562 
L 794.043203 148.632839 
L 798.231693 157.887155 
L 802.420183 157.236207 
L 806.608674 226.71747 
L 810.797164 359.346521 
L 814.985655 366.32173 
L 819.174145 410.781747 
L 823.362636 263.803788 
L 827.551126 164.539679 
L 831.739616 183.181886 
L 835.928107 149.048197 
L 840.116597 152.061329 
L 844.305088 288.016796 
L 848.493578 195.434996 
L 852.682068 268.205033 
L 856.870559 192.436208 
L 861.059049 216.721343 
L 865.24754 172.837959 
L 869.43603 125.60565 
L 873.62452 162.713912 
L 877.813011 161.87174 
L 882.001501 353.820628 
L 886.189992 183.314549 
L 890.378482 193.230603 
L 894.566972 148.444928 
L 898.755463 190.541716 
L 902.943953 373.092476 
L 907.132444 492.48 
L 911.320934 368.236388 
L 915.509425 168.289667 
L 919.697915 172.314789 
L 928.074896 135.513348 
L 932.263386 146.944196 
L 936.451877 167.623969 
L 940.640367 292.132638 
L 944.828857 269.862484 
L 949.017348 264.962464 
L 953.205838 277.159981 
L 957.394329 268.211695 
L 961.582819 454.213762 
L 965.771309 417.406088 
L 969.9598 436.657513 
L 974.14829 439.604257 
L 978.336781 453.49179 
L 982.525271 451.945212 
L 986.713761 459.61382 
L 990.902252 451.950283 
L 995.090742 444.926963 
L 999.279233 170.436612 
L 1003.467723 177.149427 
L 1007.656214 151.727482 
L 1011.844704 191.745441 
L 1016.033194 170.105576 
L 1020.221685 202.305262 
L 1024.410175 196.001964 
L 1028.598666 188.969331 
L 1032.787156 178.632696 
L 1036.975646 145.237634 
L 1041.164137 387.652651 
L 1045.352627 353.982995 
L 1049.541118 373.455686 
L 1053.729608 405.642747 
L 1057.918098 323.111655 
L 1062.106589 384.847916 
L 1066.295079 394.995023 
L 1070.48357 443.176135 
L 1074.67206 443.869296 
L 1078.86055 276.828676 
L 1083.049041 190.637346 
L 1087.237531 123.40127 
L 1091.426022 176.943911 
L 1095.614512 167.490581 
L 1099.803003 203.098521 
L 1103.991493 145.24246 
L 1108.179983 176.771237 
L 1112.368474 171.984742 
L 1116.556964 160.405384 
L 1120.745455 143.903851 
L 1120.745455 143.903851 
" clip-path="url(#pf6d5cd2cae)" style="fill: none; stroke-dasharray: 6.4,1.6,1,1.6; stroke-dashoffset: 0; stroke: #1f77b4"/>
   </g>
   <g id="line2d_26">
    <path d="M 207.654545 169.585622 
L 211.843036 199.140918 
L 216.031526 204.241274 
L 220.220017 151.932068 
L 224.408507 192.643791 
L 228.596997 171.282429 
L 232.785488 142.507709 
L 236.973978 144.150918 
L 241.162469 153.763906 
L 245.350959 149.072412 
L 249.53945 151.499638 
L 253.72794 183.887973 
L 257.91643 191.244825 
L 262.104921 142.755193 
L 266.293411 138.878241 
L 270.481902 181.582353 
L 274.670392 170.588651 
L 278.858882 189.118554 
L 283.047373 141.983217 
L 287.235863 187.08265 
L 291.424354 141.083552 
L 295.612844 127.692739 
L 299.801334 185.76298 
L 303.989825 156.537526 
L 308.178315 167.756999 
L 312.366806 198.174125 
L 320.743786 182.454965 
L 324.932277 158.681261 
L 329.120767 158.016757 
L 333.309258 175.59192 
L 337.497748 181.049158 
L 341.686239 173.203672 
L 345.874729 143.602807 
L 350.063219 163.50375 
L 354.25171 143.286167 
L 358.4402 146.097487 
L 362.628691 186.289911 
L 366.817181 148.393352 
L 371.005671 178.05259 
L 375.194162 180.335818 
L 379.382652 170.503945 
L 383.571143 152.341674 
L 387.759633 134.817985 
L 391.948123 185.594792 
L 396.136614 188.384534 
L 400.325104 178.223827 
L 404.513595 161.746747 
L 408.702085 180.609976 
L 412.890575 136.143354 
L 417.079066 123.70732 
L 421.267556 254.348538 
L 425.456047 202.848944 
L 429.644537 240.331134 
L 433.833028 281.290078 
L 438.021518 210.949642 
L 442.210008 148.827861 
L 446.398499 185.289481 
L 450.586989 174.706676 
L 454.77548 251.496823 
L 458.96397 370.660116 
L 463.15246 455.643496 
L 467.340951 453.477727 
L 471.529441 442.264326 
L 475.717932 435.068865 
L 479.906422 458.325202 
L 484.094912 134.223831 
L 488.283403 182.921694 
L 492.471893 136.850937 
L 496.660384 145.450075 
L 500.848874 355.505914 
L 505.037364 144.782856 
L 509.225855 184.023858 
L 513.414345 139.519331 
L 517.602836 158.469026 
L 521.791326 152.427774 
L 525.979817 191.733362 
L 530.168307 171.926837 
L 534.356797 133.733753 
L 538.545288 151.549462 
L 542.733778 204.614554 
L 546.922269 165.161579 
L 551.110759 164.419005 
L 555.299249 195.174085 
L 559.48774 135.688609 
L 563.67623 195.412199 
L 567.864721 134.370293 
L 572.053211 172.348151 
L 576.241701 154.743189 
L 580.430192 174.161313 
L 584.618682 148.771048 
L 588.807173 195.171679 
L 592.995663 132.750568 
L 597.184153 156.682615 
L 601.372644 291.425633 
L 605.561134 302.490069 
L 609.749625 451.662525 
L 613.938115 426.368481 
L 618.126606 440.389499 
L 622.315096 450.083767 
L 626.503586 454.495038 
L 630.692077 439.585779 
L 634.880567 439.647149 
L 639.069058 446.108456 
L 647.446038 439.268978 
L 651.634529 158.667526 
L 655.823019 157.693135 
L 660.01151 152.285997 
L 664.2 143.077577 
L 668.38849 174.666768 
L 672.576981 139.852799 
L 676.765471 188.245665 
L 680.953962 163.396951 
L 685.142452 181.554421 
L 689.330942 130.363938 
L 693.519433 147.198015 
L 697.707923 184.168504 
L 701.896414 199.288356 
L 706.084904 147.481877 
L 710.273394 146.947354 
L 714.461885 182.570941 
L 718.650375 182.101184 
L 722.838866 162.893421 
L 727.027356 182.01622 
L 731.215847 154.097445 
L 735.404337 174.132835 
L 739.592827 152.932658 
L 743.781318 158.878793 
L 747.969808 166.159988 
L 752.158299 189.182003 
L 756.346789 197.022772 
L 760.535279 191.694385 
L 764.72377 154.764882 
L 768.91226 144.158241 
L 773.100751 278.112237 
L 777.289241 268.228979 
L 781.477731 276.512491 
L 785.666222 231.168488 
L 789.854712 343.913681 
L 794.043203 447.307259 
L 798.231693 210.706329 
L 802.420183 470.96688 
L 806.608674 451.937921 
L 810.797164 440.304843 
L 814.985655 439.911449 
L 819.174145 446.728572 
L 823.362636 233.926955 
L 827.551126 264.262795 
L 831.739616 242.603502 
L 835.928107 164.941674 
L 840.116597 256.608969 
L 844.305088 181.702757 
L 848.493578 177.830426 
L 852.682068 181.886509 
L 856.870559 188.703453 
L 861.059049 183.971486 
L 865.24754 212.894087 
L 869.43603 305.408534 
L 873.62452 167.707232 
L 877.813011 161.9847 
L 882.001501 257.605542 
L 886.189992 281.445038 
L 890.378482 294.285924 
L 894.566972 176.430946 
L 898.755463 337.972534 
L 902.943953 294.38398 
L 907.132444 224.483412 
L 911.320934 228.585154 
L 915.509425 169.520259 
L 919.697915 168.151683 
L 923.886405 179.352813 
L 928.074896 175.870738 
L 932.263386 160.532932 
L 936.451877 163.07322 
L 940.640367 280.066059 
L 944.828857 329.684266 
L 949.017348 182.460055 
L 953.205838 179.345971 
L 957.394329 196.690208 
L 961.582819 162.970542 
L 965.771309 212.119479 
L 969.9598 173.879113 
L 974.14829 170.412255 
L 978.336781 155.213864 
L 982.525271 177.260211 
L 986.713761 288.415479 
L 990.902252 169.022897 
L 995.090742 370.269006 
L 999.279233 193.712819 
L 1003.467723 193.597375 
L 1007.656214 174.221585 
L 1011.844704 180.582776 
L 1016.033194 196.221696 
L 1020.221685 166.222173 
L 1024.410175 186.675694 
L 1028.598666 204.645746 
L 1032.787156 219.084098 
L 1036.975646 267.754081 
L 1041.164137 169.110909 
L 1045.352627 249.5196 
L 1049.541118 455.944611 
L 1053.729608 248.58113 
L 1057.918098 446.083271 
L 1062.106589 264.417152 
L 1066.295079 261.735216 
L 1070.48357 233.778663 
L 1074.67206 299.540842 
L 1078.86055 249.071805 
L 1083.049041 161.714868 
L 1087.237531 130.397672 
L 1091.426022 152.332387 
L 1095.614512 145.233051 
L 1099.803003 159.851195 
L 1103.991493 179.762067 
L 1108.179983 193.313173 
L 1112.368474 177.220945 
L 1116.556964 191.785426 
L 1120.745455 154.08733 
L 1120.745455 154.08733 
" clip-path="url(#pf6d5cd2cae)" style="fill: none; stroke-dasharray: 6.4,1.6,1,1.6; stroke-dashoffset: 0; stroke: #ff7f0e"/>
   </g>
   <g id="line2d_27">
    <path d="M 207.654545 171.121923 
L 211.843036 171.86693 
L 216.031526 169.30208 
L 220.220017 169.568999 
L 224.408507 168.88377 
L 241.162469 168.874503 
L 245.350959 168.72184 
L 249.53945 168.72202 
L 253.72794 169.035971 
L 257.91643 168.73673 
L 266.293411 168.855338 
L 270.481902 168.729754 
L 283.047373 168.800835 
L 287.235863 171.010876 
L 291.424354 170.36718 
L 295.612844 168.761569 
L 329.120767 168.753726 
L 337.497748 168.751556 
L 341.686239 173.87772 
L 345.874729 170.256101 
L 350.063219 168.871172 
L 354.25171 169.51954 
L 358.4402 170.003502 
L 362.628691 169.098426 
L 366.817181 169.056387 
L 371.005671 168.758328 
L 375.194162 168.731211 
L 379.382652 169.059743 
L 383.571143 168.855081 
L 387.759633 199.772144 
L 391.948123 195.383972 
L 396.136614 180.662714 
L 400.325104 180.661604 
L 404.513595 186.673146 
L 408.702085 182.492383 
L 412.890575 182.494674 
L 417.079066 171.718388 
L 421.267556 169.053723 
L 425.456047 238.185852 
L 429.644537 272.841004 
L 433.833028 293.316236 
L 438.021518 263.597425 
L 442.210008 227.448049 
L 446.398499 225.936278 
L 450.586989 227.440168 
L 454.77548 227.448396 
L 458.96397 274.421584 
L 463.15246 252.794812 
L 467.340951 283.404566 
L 471.529441 302.654098 
L 475.717932 281.472957 
L 479.906422 278.924499 
L 484.094912 283.340166 
L 488.283403 188.39506 
L 492.471893 190.64999 
L 496.660384 190.653007 
L 500.848874 222.641298 
L 505.037364 346.5711 
L 509.225855 222.692515 
L 513.414345 222.689396 
L 517.602836 177.072846 
L 521.791326 188.150914 
L 525.979817 238.813002 
L 530.168307 171.879734 
L 534.356797 172.366584 
L 538.545288 173.821965 
L 546.922269 173.819546 
L 551.110759 177.544882 
L 555.299249 173.816093 
L 559.48774 173.817171 
L 563.67623 177.61285 
L 567.864721 177.607138 
L 572.053211 172.511763 
L 576.241701 172.366584 
L 580.430192 172.512186 
L 584.618682 177.609275 
L 588.807173 172.511763 
L 592.995663 173.818397 
L 597.184153 172.513431 
L 601.372644 175.365866 
L 605.561134 172.942922 
L 609.749625 246.408481 
L 613.938115 268.255146 
L 618.126606 278.990183 
L 622.315096 273.507927 
L 626.503586 261.632827 
L 630.692077 250.829912 
L 634.880567 261.627436 
L 639.069058 266.908591 
L 643.257548 257.500605 
L 647.446038 270.100559 
L 651.634529 263.439217 
L 655.823019 192.067293 
L 660.01151 184.849773 
L 664.2 176.716041 
L 668.38849 181.933939 
L 672.576981 181.924973 
L 676.765471 181.40448 
L 680.953962 182.188612 
L 685.142452 184.629245 
L 689.330942 184.638018 
L 693.519433 184.094663 
L 697.707923 176.742869 
L 701.896414 176.764845 
L 706.084904 177.531635 
L 710.273394 177.225668 
L 714.461885 177.824508 
L 739.592827 177.808476 
L 743.781318 170.783609 
L 747.969808 171.033982 
L 752.158299 170.818588 
L 756.346789 171.082458 
L 760.535279 169.868675 
L 764.72377 169.835423 
L 768.91226 169.465769 
L 773.100751 169.466116 
L 777.289241 179.399601 
L 781.477731 169.698344 
L 785.666222 170.729286 
L 789.854712 169.121884 
L 794.043203 279.255933 
L 798.231693 305.914522 
L 802.420183 198.963302 
L 806.608674 297.020348 
L 810.797164 242.866627 
L 814.985655 247.164566 
L 819.174145 255.473898 
L 823.362636 247.173949 
L 827.551126 170.312773 
L 831.739616 195.608364 
L 835.928107 170.454704 
L 840.116597 177.800536 
L 844.305088 177.816158 
L 848.493578 169.813023 
L 852.682068 169.809493 
L 856.870559 170.194204 
L 861.059049 173.342099 
L 865.24754 193.138413 
L 869.43603 180.752908 
L 873.62452 170.213472 
L 877.813011 170.00605 
L 882.001501 168.954819 
L 886.189992 168.813639 
L 890.378482 170.677389 
L 894.566972 298.027074 
L 898.755463 280.189229 
L 902.943953 271.657861 
L 907.132444 233.64677 
L 911.320934 237.24633 
L 915.509425 237.243737 
L 919.697915 200.854579 
L 923.886405 202.301277 
L 928.074896 272.166051 
L 932.263386 282.35693 
L 936.451877 232.19368 
L 940.640367 232.222196 
L 944.828857 219.870836 
L 949.017348 237.376535 
L 953.205838 200.533453 
L 957.394329 228.752732 
L 961.582819 228.77603 
L 965.771309 268.498651 
L 969.9598 228.750563 
L 974.14829 239.180698 
L 978.336781 228.777911 
L 982.525271 226.359863 
L 986.713761 285.648675 
L 990.902252 179.764396 
L 995.090742 242.738014 
L 999.279233 186.324858 
L 1003.467723 189.818152 
L 1007.656214 189.820013 
L 1011.844704 172.435675 
L 1016.033194 178.873864 
L 1020.221685 172.656171 
L 1024.410175 400.073198 
L 1028.598666 392.811656 
L 1032.787156 175.536685 
L 1036.975646 287.604204 
L 1041.164137 171.923365 
L 1045.352627 239.09508 
L 1049.541118 342.0826 
L 1053.729608 342.068326 
L 1057.918098 177.125629 
L 1062.106589 257.419537 
L 1066.295079 256.103391 
L 1070.48357 263.494542 
L 1074.67206 296.505182 
L 1078.86055 276.828676 
L 1083.049041 173.26949 
L 1087.237531 173.271223 
L 1091.426022 174.927641 
L 1095.614512 173.267911 
L 1099.803003 173.116436 
L 1103.991493 172.11711 
L 1108.179983 171.982489 
L 1112.368474 171.984742 
L 1116.556964 172.617534 
L 1120.745455 174.242592 
L 1120.745455 174.242592 
" clip-path="url(#pf6d5cd2cae)" style="fill: none; stroke-dasharray: 6.4,1.6,1,1.6; stroke-dashoffset: 0; stroke: #2ca02c"/>
   </g>
   <g id="line2d_28">
    <path d="M 207.654545 191.843023 
L 211.843036 194.404985 
L 216.031526 196.226445 
L 220.220017 158.834431 
L 224.408507 160.748069 
L 228.596997 158.345604 
L 232.785488 176.678341 
L 236.973978 155.860044 
L 241.162469 178.336157 
L 245.350959 158.221779 
L 249.53945 177.346753 
L 253.72794 262.196752 
L 257.91643 201.700697 
L 262.104921 169.738926 
L 266.293411 198.660775 
L 270.481902 178.637792 
L 274.670392 170.182401 
L 278.858882 190.339775 
L 283.047373 215.215297 
L 287.235863 214.810953 
L 291.424354 176.560311 
L 295.612844 161.946429 
L 299.801334 251.00946 
L 303.989825 240.028178 
L 308.178315 225.728708 
L 312.366806 281.810642 
L 316.555296 259.099464 
L 320.743786 165.125445 
L 324.932277 181.514975 
L 329.120767 146.528762 
L 333.309258 163.725535 
L 337.497748 169.974408 
L 341.686239 175.026673 
L 345.874729 179.479674 
L 350.063219 266.768329 
L 354.25171 225.753559 
L 358.4402 264.826996 
L 362.628691 269.259505 
L 366.817181 253.809323 
L 371.005671 171.423436 
L 375.194162 218.627344 
L 379.382652 216.864423 
L 383.571143 183.010906 
L 387.759633 188.830231 
L 391.948123 174.557056 
L 396.136614 209.239896 
L 400.325104 267.365307 
L 404.513595 220.838438 
L 408.702085 229.720866 
L 412.890575 179.075728 
L 417.079066 178.253748 
L 421.267556 294.555024 
L 425.456047 328.949483 
L 429.644537 294.825145 
L 433.833028 350.725946 
L 438.021518 311.834502 
L 442.210008 284.995531 
L 446.398499 220.492756 
L 450.586989 263.745941 
L 454.77548 209.626346 
L 458.96397 166.584722 
L 463.15246 303.253579 
L 467.340951 327.389999 
L 471.529441 418.981323 
L 475.717932 372.479766 
L 479.906422 467.604504 
L 484.094912 396.224582 
L 488.283403 207.380485 
L 492.471893 167.646799 
L 496.660384 164.205755 
L 500.848874 200.23427 
L 505.037364 276.14914 
L 509.225855 234.240758 
L 513.414345 233.359237 
L 517.602836 257.762036 
L 521.791326 182.261971 
L 525.979817 305.123131 
L 530.168307 200.010424 
L 534.356797 157.137065 
L 538.545288 175.725398 
L 542.733778 191.677409 
L 546.922269 194.775049 
L 551.110759 168.08161 
L 555.299249 173.530196 
L 559.48774 244.299462 
L 563.67623 170.669668 
L 567.864721 178.51885 
L 572.053211 198.814381 
L 576.241701 203.947322 
L 580.430192 276.679473 
L 584.618682 198.091093 
L 588.807173 189.440617 
L 592.995663 163.333315 
L 597.184153 248.622771 
L 601.372644 171.737585 
L 605.561134 290.387888 
L 609.749625 201.348738 
L 613.938115 288.90892 
L 618.126606 447.539275 
L 622.315096 418.550491 
L 626.503586 321.38485 
L 630.692077 335.089927 
L 634.880567 241.567034 
L 639.069058 392.311707 
L 643.257548 380.188141 
L 647.446038 348.042489 
L 651.634529 408.431078 
L 655.823019 338.349748 
L 660.01151 224.684775 
L 664.2 159.103229 
L 668.38849 156.590559 
L 672.576981 198.059901 
L 676.765471 210.81185 
L 680.953962 191.280895 
L 685.142452 210.681061 
L 689.330942 187.480575 
L 693.519433 176.518747 
L 697.707923 177.798014 
L 701.896414 231.811472 
L 706.084904 177.70187 
L 710.273394 174.558821 
L 714.461885 173.320945 
L 718.650375 189.386704 
L 722.838866 202.375002 
L 727.027356 160.307026 
L 731.215847 177.393574 
L 735.404337 150.210692 
L 743.781318 213.500044 
L 747.969808 178.571659 
L 752.158299 157.707287 
L 756.346789 225.815141 
L 764.72377 157.958121 
L 768.91226 168.18018 
L 773.100751 182.802701 
L 777.289241 161.813014 
L 781.477731 203.763712 
L 785.666222 200.872402 
L 789.854712 176.429278 
L 794.043203 196.073077 
L 798.231693 395.977631 
L 802.420183 314.262973 
L 806.608674 287.133067 
L 810.797164 241.645464 
L 814.985655 276.717487 
L 819.174145 471.830392 
L 823.362636 431.679481 
L 827.551126 336.924134 
L 831.739616 184.100023 
L 835.928107 156.672083 
L 840.116597 150.355126 
L 844.305088 159.736291 
L 848.493578 180.852435 
L 852.682068 162.970978 
L 856.870559 148.949017 
L 861.059049 161.745983 
L 865.24754 180.754449 
L 869.43603 289.707569 
L 873.62452 280.827098 
L 877.813011 170.571855 
L 882.001501 180.855907 
L 886.189992 150.633482 
L 890.378482 171.943306 
L 894.566972 338.375601 
L 898.755463 437.324463 
L 902.943953 413.482367 
L 907.132444 320.942177 
L 911.320934 296.499489 
L 915.509425 196.985623 
L 919.697915 146.486678 
L 923.886405 149.497981 
L 928.074896 227.256961 
L 932.263386 248.968518 
L 936.451877 297.40339 
L 940.640367 229.018187 
L 944.828857 322.359685 
L 949.017348 227.588241 
L 953.205838 170.773404 
L 957.394329 152.693492 
L 961.582819 183.907754 
L 965.771309 218.180062 
L 969.9598 237.256195 
L 974.14829 166.280026 
L 978.336781 164.607326 
L 982.525271 157.913855 
L 986.713761 308.699746 
L 990.902252 417.004812 
L 995.090742 275.614816 
L 999.279233 325.51265 
L 1003.467723 242.685693 
L 1007.656214 193.996867 
L 1011.844704 167.993636 
L 1016.033194 152.846398 
L 1020.221685 203.02615 
L 1024.410175 172.907198 
L 1028.598666 201.989893 
L 1032.787156 295.063394 
L 1036.975646 208.800091 
L 1041.164137 174.254164 
L 1045.352627 194.082832 
L 1049.541118 333.822168 
L 1053.729608 337.428537 
L 1057.918098 422.159427 
L 1062.106589 263.320417 
L 1066.295079 225.285541 
L 1070.48357 258.191693 
L 1074.67206 420.570985 
L 1078.86055 412.317953 
L 1083.049041 283.545124 
L 1087.237531 204.571713 
L 1091.426022 176.943911 
L 1095.614512 180.295127 
L 1099.803003 166.175532 
L 1103.991493 145.24246 
L 1108.179983 191.37625 
L 1112.368474 189.606866 
L 1116.556964 165.386131 
L 1120.745455 308.262579 
L 1120.745455 308.262579 
" clip-path="url(#pf6d5cd2cae)" style="fill: none; stroke-dasharray: 6.4,1.6,1,1.6; stroke-dashoffset: 0; stroke: #d62728"/>
   </g>
   <g id="line2d_29">
    <path d="M 207.654545 278.085582 
L 211.843036 158.118723 
L 216.031526 205.174493 
L 220.220017 170.505575 
L 224.408507 170.548673 
L 228.596997 176.072557 
L 232.785488 161.586306 
L 236.973978 217.10936 
L 241.162469 174.877252 
L 245.350959 170.095044 
L 249.53945 210.724897 
L 253.72794 213.261655 
L 257.91643 201.770893 
L 262.104921 160.561506 
L 266.293411 157.389838 
L 270.481902 242.74017 
L 274.670392 89.28 
L 278.858882 215.039632 
L 283.047373 183.829825 
L 287.235863 206.357135 
L 291.424354 222.698612 
L 295.612844 120.937307 
L 299.801334 182.17032 
L 303.989825 248.388034 
L 308.178315 173.876571 
L 312.366806 164.237794 
L 316.555296 190.750653 
L 320.743786 147.985818 
L 324.932277 158.782424 
L 329.120767 190.4681 
L 333.309258 150.871518 
L 337.497748 160.731003 
L 341.686239 189.715827 
L 345.874729 181.864572 
L 350.063219 134.833569 
L 354.25171 134.957112 
L 358.4402 230.093601 
L 362.628691 179.084611 
L 366.817181 145.110143 
L 371.005671 204.925815 
L 375.194162 206.14533 
L 379.382652 160.549343 
L 383.571143 141.400243 
L 387.759633 176.099487 
L 391.948123 108.577925 
L 396.136614 199.905937 
L 400.325104 175.65942 
L 404.513595 134.002212 
L 408.702085 244.999529 
L 412.890575 139.465759 
L 417.079066 181.358423 
L 421.267556 157.625712 
L 425.456047 255.393735 
L 429.644537 272.376355 
L 433.833028 301.323389 
L 438.021518 256.786206 
L 442.210008 266.574956 
L 446.398499 191.597952 
L 450.586989 147.347192 
L 454.77548 112.822252 
L 458.96397 249.598094 
L 463.15246 263.233156 
L 467.340951 281.706418 
L 471.529441 407.258705 
L 475.717932 363.09864 
L 479.906422 355.108085 
L 484.094912 345.991534 
L 488.283403 268.701433 
L 492.471893 132.940995 
L 496.660384 195.199514 
L 500.848874 120.936152 
L 505.037364 226.113008 
L 509.225855 115.53264 
L 513.414345 164.429774 
L 517.602836 204.364535 
L 521.791326 163.495278 
L 525.979817 250.483973 
L 530.168307 166.555442 
L 534.356797 154.30961 
L 538.545288 139.556319 
L 542.733778 168.332245 
L 546.922269 156.184739 
L 551.110759 135.573255 
L 555.299249 174.581984 
L 559.48774 272.408824 
L 563.67623 158.723121 
L 567.864721 195.582922 
L 572.053211 115.281562 
L 576.241701 214.299811 
L 580.430192 262.530021 
L 584.618682 222.348373 
L 588.807173 186.475274 
L 592.995663 182.757601 
L 597.184153 203.770739 
L 601.372644 186.920578 
L 605.561134 193.841008 
L 609.749625 222.644989 
L 613.938115 339.528437 
L 618.126606 285.907115 
L 622.315096 402.48142 
L 626.503586 344.497792 
L 630.692077 367.081351 
L 634.880567 344.407771 
L 639.069058 309.627876 
L 643.257548 392.714825 
L 647.446038 325.82479 
L 651.634529 350.30763 
L 655.823019 297.922503 
L 660.01151 218.292951 
L 664.2 121.488338 
L 668.38849 142.940979 
L 672.576981 181.515199 
L 676.765471 225.887756 
L 680.953962 207.017204 
L 685.142452 184.950063 
L 689.330942 163.824337 
L 693.519433 144.033671 
L 697.707923 230.146679 
L 701.896414 183.78889 
L 706.084904 205.058074 
L 710.273394 196.278843 
L 714.461885 225.904572 
L 718.650375 166.682792 
L 722.838866 174.468871 
L 727.027356 165.821577 
L 731.215847 158.209796 
L 735.404337 154.736308 
L 739.592827 156.171903 
L 743.781318 164.308997 
L 747.969808 190.916896 
L 752.158299 161.719791 
L 756.346789 222.400835 
L 760.535279 155.435259 
L 764.72377 162.651675 
L 768.91226 117.574642 
L 773.100751 159.928098 
L 777.289241 238.119161 
L 781.477731 211.51709 
L 785.666222 181.266027 
L 789.854712 216.79548 
L 794.043203 205.888449 
L 798.231693 416.575726 
L 802.420183 271.998973 
L 806.608674 331.87305 
L 810.797164 403.099411 
L 814.985655 260.763937 
L 819.174145 260.477302 
L 823.362636 428.215293 
L 827.551126 235.786558 
L 831.739616 234.20266 
L 835.928107 113.479408 
L 840.116597 166.733585 
L 844.305088 209.774689 
L 848.493578 169.927812 
L 852.682068 170.737732 
L 856.870559 154.640042 
L 861.059049 197.611702 
L 865.24754 194.369441 
L 869.43603 410.608842 
L 873.62452 156.919586 
L 877.813011 196.632933 
L 882.001501 148.837514 
L 886.189992 168.743887 
L 890.378482 181.382299 
L 894.566972 181.766682 
L 898.755463 240.188446 
L 902.943953 355.326989 
L 907.132444 262.718856 
L 911.320934 348.455208 
L 915.509425 308.280512 
L 919.697915 142.670191 
L 923.886405 169.334986 
L 928.074896 225.905528 
L 932.263386 228.005723 
L 936.451877 226.200404 
L 940.640367 197.582653 
L 944.828857 332.31745 
L 949.017348 206.782069 
L 953.205838 206.068061 
L 957.394329 153.03506 
L 961.582819 252.994127 
L 965.771309 280.537922 
L 969.9598 195.598582 
L 974.14829 218.016502 
L 978.336781 199.607877 
L 982.525271 208.307254 
L 986.713761 220.295346 
L 990.902252 251.996861 
L 995.090742 257.80093 
L 999.279233 193.813468 
L 1003.467723 171.602971 
L 1007.656214 201.96225 
L 1011.844704 188.978445 
L 1016.033194 169.261479 
L 1020.221685 218.576358 
L 1024.410175 196.614063 
L 1028.598666 204.392742 
L 1032.787156 243.045623 
L 1036.975646 228.37494 
L 1041.164137 159.476137 
L 1045.352627 276.822809 
L 1049.541118 339.725943 
L 1053.729608 323.218068 
L 1057.918098 277.01203 
L 1062.106589 328.291815 
L 1066.295079 256.722294 
L 1070.48357 307.089943 
L 1074.67206 284.045188 
L 1078.86055 274.263364 
L 1083.049041 185.984567 
L 1087.237531 157.208095 
L 1091.426022 149.532793 
L 1095.614512 184.808427 
L 1099.803003 167.41072 
L 1103.991493 185.808151 
L 1108.179983 174.295991 
L 1112.368474 176.024639 
L 1116.556964 233.320574 
L 1120.745455 215.221959 
L 1120.745455 215.221959 
" clip-path="url(#pf6d5cd2cae)" style="fill: none; stroke-dasharray: 6.4,1.6,1,1.6; stroke-dashoffset: 0; stroke: #9467bd"/>
   </g>
   <g id="line2d_30">
    <path d="M 207.654545 170.210288 
L 211.843036 166.31041 
L 216.031526 157.397033 
L 220.220017 132.320937 
L 224.408507 159.290139 
L 228.596997 145.928998 
L 232.785488 144.508935 
L 236.973978 141.512188 
L 241.162469 137.726861 
L 245.350959 139.515756 
L 249.53945 143.017439 
L 253.72794 184.598482 
L 257.91643 191.777166 
L 262.104921 155.807332 
L 266.293411 140.684471 
L 270.481902 165.242493 
L 274.670392 148.820647 
L 278.858882 155.633843 
L 283.047373 148.201417 
L 287.235863 142.017939 
L 291.424354 159.101984 
L 295.612844 155.934688 
L 299.801334 145.190993 
L 303.989825 158.340021 
L 308.178315 143.933361 
L 312.366806 183.211011 
L 316.555296 148.598926 
L 320.743786 184.219477 
L 324.932277 178.048322 
L 329.120767 154.116231 
L 333.309258 160.750912 
L 337.497748 127.24642 
L 341.686239 154.283122 
L 345.874729 116.933121 
L 350.063219 140.659741 
L 354.25171 166.500112 
L 362.628691 139.822416 
L 366.817181 158.893433 
L 371.005671 118.244351 
L 375.194162 145.034525 
L 379.382652 136.287294 
L 383.571143 134.124337 
L 387.759633 178.892182 
L 391.948123 168.412774 
L 396.136614 143.160115 
L 400.325104 172.122071 
L 404.513595 132.542748 
L 408.702085 172.390844 
L 412.890575 265.748548 
L 417.079066 159.843044 
L 421.267556 170.805752 
L 425.456047 142.920191 
L 429.644537 147.846589 
L 433.833028 141.357382 
L 438.021518 147.147113 
L 442.210008 124.565748 
L 446.398499 174.406512 
L 450.586989 173.652398 
L 454.77548 147.99517 
L 458.96397 149.073998 
L 463.15246 176.511366 
L 467.340951 155.069584 
L 471.529441 123.120893 
L 475.717932 135.197876 
L 479.906422 122.290415 
L 484.094912 156.487772 
L 488.283403 144.008916 
L 492.471893 140.229199 
L 496.660384 158.804824 
L 500.848874 136.751006 
L 505.037364 155.64469 
L 509.225855 175.877663 
L 513.414345 155.345372 
L 517.602836 143.548259 
L 521.791326 135.884465 
L 525.979817 136.622733 
L 530.168307 166.040802 
L 534.356797 164.744142 
L 538.545288 169.320654 
L 542.733778 160.783028 
L 546.922269 128.342642 
L 551.110759 129.752326 
L 555.299249 152.434776 
L 559.48774 134.934584 
L 563.67623 137.034862 
L 567.864721 170.124208 
L 572.053211 143.619558 
L 576.241701 158.180305 
L 580.430192 124.684677 
L 584.618682 123.112485 
L 588.807173 185.432772 
L 592.995663 131.238579 
L 597.184153 178.478993 
L 601.372644 172.455828 
L 605.561134 161.591569 
L 609.749625 274.082359 
L 613.938115 173.625274 
L 618.126606 143.494841 
L 622.315096 145.833168 
L 626.503586 160.969251 
L 630.692077 160.080689 
L 634.880567 143.687129 
L 643.257548 118.345206 
L 647.446038 135.387674 
L 651.634529 154.049257 
L 655.823019 149.347238 
L 660.01151 130.359099 
L 664.2 168.769643 
L 668.38849 134.078293 
L 672.576981 149.112808 
L 676.765471 164.70863 
L 680.953962 158.384672 
L 685.142452 164.000335 
L 689.330942 160.380058 
L 693.519433 189.161074 
L 697.707923 166.504906 
L 701.896414 160.921211 
L 706.084904 139.447724 
L 710.273394 156.537057 
L 714.461885 146.97818 
L 718.650375 141.859154 
L 722.838866 134.822607 
L 727.027356 181.628884 
L 731.215847 145.690473 
L 735.404337 138.026487 
L 739.592827 154.906242 
L 743.781318 134.35066 
L 747.969808 139.300895 
L 752.158299 160.892426 
L 756.346789 207.492379 
L 760.535279 126.448419 
L 764.72377 182.043863 
L 768.91226 139.078166 
L 773.100751 124.94397 
L 777.289241 165.878551 
L 781.477731 169.186496 
L 785.666222 144.105798 
L 789.854712 147.627185 
L 794.043203 138.020261 
L 798.231693 129.403884 
L 802.420183 138.334237 
L 806.608674 133.66952 
L 810.797164 135.548654 
L 814.985655 130.834363 
L 819.174145 132.361179 
L 823.362636 126.03249 
L 827.551126 141.649601 
L 831.739616 158.356143 
L 835.928107 158.215123 
L 840.116597 143.662977 
L 844.305088 156.13333 
L 848.493578 161.928239 
L 852.682068 158.593795 
L 856.870559 176.468557 
L 861.059049 130.005651 
L 865.24754 136.919059 
L 869.43603 152.719595 
L 873.62452 243.635221 
L 877.813011 136.478504 
L 882.001501 153.188011 
L 886.189992 148.413858 
L 890.378482 163.153921 
L 894.566972 129.856204 
L 898.755463 178.891123 
L 902.943953 139.103608 
L 907.132444 160.38731 
L 911.320934 138.315047 
L 915.509425 142.143947 
L 919.697915 146.919486 
L 923.886405 142.988326 
L 928.074896 124.065325 
L 932.263386 142.7965 
L 936.451877 202.54059 
L 940.640367 142.773228 
L 944.828857 141.88611 
L 949.017348 136.790157 
L 953.205838 139.042886 
L 957.394329 135.588781 
L 961.582819 170.470423 
L 965.771309 160.286731 
L 969.9598 153.785792 
L 974.14829 143.549485 
L 978.336781 145.832334 
L 982.525271 150.144508 
L 986.713761 161.563759 
L 990.902252 170.258732 
L 995.090742 102.511032 
L 999.279233 144.417984 
L 1003.467723 167.738084 
L 1007.656214 154.254992 
L 1011.844704 144.814613 
L 1016.033194 147.670796 
L 1020.221685 142.272823 
L 1024.410175 125.330857 
L 1028.598666 151.650336 
L 1032.787156 157.508677 
L 1036.975646 145.038023 
L 1041.164137 143.151771 
L 1045.352627 197.337865 
L 1049.541118 165.998841 
L 1057.918098 140.741201 
L 1062.106589 166.717424 
L 1066.295079 184.966904 
L 1070.48357 155.095995 
L 1074.67206 138.030062 
L 1078.86055 151.295617 
L 1083.049041 168.530021 
L 1087.237531 123.40127 
L 1091.426022 117.709782 
L 1095.614512 180.879019 
L 1099.803003 158.491361 
L 1103.991493 141.788747 
L 1108.179983 183.762472 
L 1112.368474 185.908287 
L 1116.556964 160.405384 
L 1120.745455 152.474614 
L 1120.745455 152.474614 
" clip-path="url(#pf6d5cd2cae)" style="fill: none; stroke: #8c564b; stroke-linecap: square"/>
   </g>
   <g id="line2d_31">
    <path d="M 207.654545 158.74905 
L 211.843036 186.462656 
L 216.031526 209.54877 
L 220.220017 147.825345 
L 224.408507 191.411055 
L 228.596997 185.121261 
L 232.785488 133.134182 
L 236.973978 135.624427 
L 241.162469 157.266455 
L 245.350959 148.666124 
L 249.53945 157.882599 
L 253.72794 179.685081 
L 257.91643 188.33034 
L 262.104921 145.155391 
L 266.293411 146.265733 
L 270.481902 177.496489 
L 274.670392 166.816674 
L 278.858882 189.601135 
L 283.047373 145.745862 
L 287.235863 184.768262 
L 291.424354 133.660471 
L 295.612844 124.212942 
L 299.801334 188.696175 
L 303.989825 153.794232 
L 308.178315 171.803583 
L 312.366806 197.752195 
L 316.555296 196.487818 
L 320.743786 185.358732 
L 324.932277 154.121558 
L 329.120767 153.421979 
L 333.309258 170.62906 
L 337.497748 181.090657 
L 341.686239 164.692264 
L 345.874729 146.304242 
L 350.063219 169.460955 
L 354.25171 135.078884 
L 358.4402 143.326216 
L 362.628691 182.521907 
L 366.817181 134.340795 
L 371.005671 175.596714 
L 375.194162 180.307642 
L 379.382652 165.789769 
L 383.571143 156.547622 
L 387.759633 132.607893 
L 391.948123 181.53351 
L 396.136614 187.444634 
L 400.325104 172.207927 
L 404.513595 160.719424 
L 408.702085 186.963272 
L 412.890575 142.767837 
L 417.079066 120.894755 
L 421.267556 247.980699 
L 425.456047 199.241208 
L 433.833028 280.848085 
L 438.021518 214.028644 
L 442.210008 149.06405 
L 446.398499 184.582135 
L 450.586989 177.278272 
L 454.77548 251.921448 
L 458.96397 362.031365 
L 463.15246 457.135628 
L 467.340951 459.131675 
L 471.529441 440.884852 
L 475.717932 427.657029 
L 479.906422 465.877159 
L 484.094912 130.977681 
L 488.283403 182.278017 
L 492.471893 134.135414 
L 496.660384 140.020865 
L 500.848874 335.749008 
L 505.037364 137.549874 
L 509.225855 183.702848 
L 513.414345 142.466183 
L 517.602836 142.979636 
L 521.791326 152.189693 
L 525.979817 205.704293 
L 530.168307 166.675475 
L 534.356797 137.383002 
L 538.545288 149.660938 
L 542.733778 203.55421 
L 546.922269 164.961827 
L 551.110759 160.462698 
L 555.299249 196.282437 
L 559.48774 134.610358 
L 563.67623 194.77417 
L 567.864721 135.746372 
L 572.053211 166.386658 
L 576.241701 147.080839 
L 580.430192 169.704845 
L 584.618682 147.010239 
L 588.807173 200.191095 
L 592.995663 137.177621 
L 597.184153 143.088745 
L 601.372644 287.285498 
L 605.561134 291.412373 
L 609.749625 445.050237 
L 613.938115 421.720233 
L 618.126606 443.618988 
L 622.315096 441.545923 
L 626.503586 456.410376 
L 630.692077 433.696516 
L 634.880567 433.112463 
L 639.069058 452.906062 
L 643.257548 436.738722 
L 647.446038 432.213921 
L 651.634529 164.076121 
L 655.823019 166.425167 
L 664.2 143.576525 
L 668.38849 176.078076 
L 672.576981 129.244778 
L 676.765471 199.728988 
L 680.953962 162.689799 
L 685.142452 184.190628 
L 689.330942 128.936706 
L 693.519433 150.309172 
L 697.707923 183.426867 
L 701.896414 205.884001 
L 706.084904 142.761419 
L 710.273394 123.827853 
L 714.461885 172.015382 
L 718.650375 175.57746 
L 722.838866 160.751515 
L 727.027356 173.517231 
L 731.215847 152.221783 
L 735.404337 172.175836 
L 739.592827 148.19118 
L 743.781318 146.792022 
L 747.969808 163.164742 
L 752.158299 201.891907 
L 756.346789 195.871675 
L 760.535279 193.471284 
L 764.72377 153.762141 
L 768.91226 140.425209 
L 773.100751 272.81897 
L 777.289241 265.052999 
L 781.477731 281.464229 
L 785.666222 224.002461 
L 789.854712 335.145701 
L 794.043203 450.248945 
L 798.231693 202.623577 
L 802.420183 457.539972 
L 806.608674 455.973942 
L 810.797164 439.723166 
L 814.985655 438.824624 
L 819.174145 448.83695 
L 823.362636 224.907421 
L 827.551126 259.238148 
L 831.739616 241.812849 
L 835.928107 214.176261 
L 840.116597 164.628082 
L 844.305088 120.663701 
L 848.493578 186.039057 
L 852.682068 154.160067 
L 856.870559 142.99889 
L 861.059049 306.026519 
L 865.24754 393.506011 
L 869.43603 280.591359 
L 873.62452 146.766349 
L 877.813011 156.855693 
L 882.001501 162.099328 
L 886.189992 223.700808 
L 890.378482 358.398687 
L 894.566972 362.81438 
L 898.755463 404.294934 
L 902.943953 262.736044 
L 907.132444 168.145233 
L 911.320934 175.660896 
L 915.509425 147.440256 
L 919.697915 151.342496 
L 923.886405 284.301054 
L 928.074896 192.636924 
L 932.263386 254.674838 
L 936.451877 199.818842 
L 940.640367 200.717384 
L 944.828857 164.35852 
L 949.017348 125.291193 
L 953.205838 163.126234 
L 957.394329 160.424189 
L 961.582819 355.581116 
L 965.771309 183.38194 
L 969.9598 186.635946 
L 974.14829 154.885319 
L 978.336781 192.977086 
L 982.525271 363.456196 
L 986.713761 486.678409 
L 990.902252 354.567047 
L 995.090742 175.834186 
L 999.279233 166.746075 
L 1003.467723 157.157347 
L 1007.656214 133.339563 
L 1011.844704 146.560968 
L 1016.033194 175.725077 
L 1020.221685 277.902151 
L 1024.410175 259.879964 
L 1028.598666 265.168526 
L 1032.787156 276.355375 
L 1036.975646 265.322562 
L 1041.164137 451.83423 
L 1045.352627 418.164573 
L 1049.541118 437.637264 
L 1053.729608 437.733537 
L 1057.918098 451.474813 
L 1062.106589 449.029495 
L 1066.295079 459.176602 
L 1070.48357 449.594293 
L 1074.67206 437.451138 
L 1078.86055 168.267178 
L 1083.049041 179.030429 
L 1087.237531 149.660938 
L 1091.426022 188.009432 
L 1095.614512 167.490581 
L 1099.803003 203.098521 
L 1103.991493 189.33799 
L 1108.179983 176.771237 
L 1112.368474 120.920427 
L 1116.556964 145.001356 
L 1120.745455 143.903851 
L 1120.745455 143.903851 
" clip-path="url(#pf6d5cd2cae)" style="fill: none; stroke: #ff0000; stroke-linecap: square"/>
    <defs>
     <path id="m158b6c1690" d="M 0 1.5 
C 0.397805 1.5 0.77937 1.341951 1.06066 1.06066 
C 1.341951 0.77937 1.5 0.397805 1.5 0 
C 1.5 -0.397805 1.341951 -0.77937 1.06066 -1.06066 
C 0.77937 -1.341951 0.397805 -1.5 0 -1.5 
C -0.397805 -1.5 -0.77937 -1.341951 -1.06066 -1.06066 
C -1.341951 -0.77937 -1.5 -0.397805 -1.5 0 
C -1.5 0.397805 -1.341951 0.77937 -1.06066 1.06066 
C -0.77937 1.341951 -0.397805 1.5 0 1.5 
z
" style="stroke: #ff0000"/>
    </defs>
    <g clip-path="url(#pf6d5cd2cae)">
     <use xlink:href="#m158b6c1690" x="207.654545" y="158.74905" style="fill: #ff0000; stroke: #ff0000"/>
     <use xlink:href="#m158b6c1690" x="211.843036" y="186.462656" style="fill: #ff0000; stroke: #ff0000"/>
     <use xlink:href="#m158b6c1690" x="216.031526" y="209.54877" style="fill: #ff0000; stroke: #ff0000"/>
     <use xlink:href="#m158b6c1690" x="220.220017" y="147.825345" style="fill: #ff0000; stroke: #ff0000"/>
     <use xlink:href="#m158b6c1690" x="224.408507" y="191.411055" style="fill: #ff0000; stroke: #ff0000"/>
     <use xlink:href="#m158b6c1690" x="228.596997" y="185.121261" style="fill: #ff0000; stroke: #ff0000"/>
     <use xlink:href="#m158b6c1690" x="232.785488" y="133.134182" style="fill: #ff0000; stroke: #ff0000"/>
     <use xlink:href="#m158b6c1690" x="236.973978" y="135.624427" style="fill: #ff0000; stroke: #ff0000"/>
     <use xlink:href="#m158b6c1690" x="241.162469" y="157.266455" style="fill: #ff0000; stroke: #ff0000"/>
     <use xlink:href="#m158b6c1690" x="245.350959" y="148.666124" style="fill: #ff0000; stroke: #ff0000"/>
     <use xlink:href="#m158b6c1690" x="249.53945" y="157.882599" style="fill: #ff0000; stroke: #ff0000"/>
     <use xlink:href="#m158b6c1690" x="253.72794" y="179.685081" style="fill: #ff0000; stroke: #ff0000"/>
     <use xlink:href="#m158b6c1690" x="257.91643" y="188.33034" style="fill: #ff0000; stroke: #ff0000"/>
     <use xlink:href="#m158b6c1690" x="262.104921" y="145.155391" style="fill: #ff0000; stroke: #ff0000"/>
     <use xlink:href="#m158b6c1690" x="266.293411" y="146.265733" style="fill: #ff0000; stroke: #ff0000"/>
     <use xlink:href="#m158b6c1690" x="270.481902" y="177.496489" style="fill: #ff0000; stroke: #ff0000"/>
     <use xlink:href="#m158b6c1690" x="274.670392" y="166.816674" style="fill: #ff0000; stroke: #ff0000"/>
     <use xlink:href="#m158b6c1690" x="278.858882" y="189.601135" style="fill: #ff0000; stroke: #ff0000"/>
     <use xlink:href="#m158b6c1690" x="283.047373" y="145.745862" style="fill: #ff0000; stroke: #ff0000"/>
     <use xlink:href="#m158b6c1690" x="287.235863" y="184.768262" style="fill: #ff0000; stroke: #ff0000"/>
     <use xlink:href="#m158b6c1690" x="291.424354" y="133.660471" style="fill: #ff0000; stroke: #ff0000"/>
     <use xlink:href="#m158b6c1690" x="295.612844" y="124.212942" style="fill: #ff0000; stroke: #ff0000"/>
     <use xlink:href="#m158b6c1690" x="299.801334" y="188.696175" style="fill: #ff0000; stroke: #ff0000"/>
     <use xlink:href="#m158b6c1690" x="303.989825" y="153.794232" style="fill: #ff0000; stroke: #ff0000"/>
     <use xlink:href="#m158b6c1690" x="308.178315" y="171.803583" style="fill: #ff0000; stroke: #ff0000"/>
     <use xlink:href="#m158b6c1690" x="312.366806" y="197.752195" style="fill: #ff0000; stroke: #ff0000"/>
     <use xlink:href="#m158b6c1690" x="316.555296" y="196.487818" style="fill: #ff0000; stroke: #ff0000"/>
     <use xlink:href="#m158b6c1690" x="320.743786" y="185.358732" style="fill: #ff0000; stroke: #ff0000"/>
     <use xlink:href="#m158b6c1690" x="324.932277" y="154.121558" style="fill: #ff0000; stroke: #ff0000"/>
     <use xlink:href="#m158b6c1690" x="329.120767" y="153.421979" style="fill: #ff0000; stroke: #ff0000"/>
     <use xlink:href="#m158b6c1690" x="333.309258" y="170.62906" style="fill: #ff0000; stroke: #ff0000"/>
     <use xlink:href="#m158b6c1690" x="337.497748" y="181.090657" style="fill: #ff0000; stroke: #ff0000"/>
     <use xlink:href="#m158b6c1690" x="341.686239" y="164.692264" style="fill: #ff0000; stroke: #ff0000"/>
     <use xlink:href="#m158b6c1690" x="345.874729" y="146.304242" style="fill: #ff0000; stroke: #ff0000"/>
     <use xlink:href="#m158b6c1690" x="350.063219" y="169.460955" style="fill: #ff0000; stroke: #ff0000"/>
     <use xlink:href="#m158b6c1690" x="354.25171" y="135.078884" style="fill: #ff0000; stroke: #ff0000"/>
     <use xlink:href="#m158b6c1690" x="358.4402" y="143.326216" style="fill: #ff0000; stroke: #ff0000"/>
     <use xlink:href="#m158b6c1690" x="362.628691" y="182.521907" style="fill: #ff0000; stroke: #ff0000"/>
     <use xlink:href="#m158b6c1690" x="366.817181" y="134.340795" style="fill: #ff0000; stroke: #ff0000"/>
     <use xlink:href="#m158b6c1690" x="371.005671" y="175.596714" style="fill: #ff0000; stroke: #ff0000"/>
     <use xlink:href="#m158b6c1690" x="375.194162" y="180.307642" style="fill: #ff0000; stroke: #ff0000"/>
     <use xlink:href="#m158b6c1690" x="379.382652" y="165.789769" style="fill: #ff0000; stroke: #ff0000"/>
     <use xlink:href="#m158b6c1690" x="383.571143" y="156.547622" style="fill: #ff0000; stroke: #ff0000"/>
     <use xlink:href="#m158b6c1690" x="387.759633" y="132.607893" style="fill: #ff0000; stroke: #ff0000"/>
     <use xlink:href="#m158b6c1690" x="391.948123" y="181.53351" style="fill: #ff0000; stroke: #ff0000"/>
     <use xlink:href="#m158b6c1690" x="396.136614" y="187.444634" style="fill: #ff0000; stroke: #ff0000"/>
     <use xlink:href="#m158b6c1690" x="400.325104" y="172.207927" style="fill: #ff0000; stroke: #ff0000"/>
     <use xlink:href="#m158b6c1690" x="404.513595" y="160.719424" style="fill: #ff0000; stroke: #ff0000"/>
     <use xlink:href="#m158b6c1690" x="408.702085" y="186.963272" style="fill: #ff0000; stroke: #ff0000"/>
     <use xlink:href="#m158b6c1690" x="412.890575" y="142.767837" style="fill: #ff0000; stroke: #ff0000"/>
     <use xlink:href="#m158b6c1690" x="417.079066" y="120.894755" style="fill: #ff0000; stroke: #ff0000"/>
     <use xlink:href="#m158b6c1690" x="421.267556" y="247.980699" style="fill: #ff0000; stroke: #ff0000"/>
     <use xlink:href="#m158b6c1690" x="425.456047" y="199.241208" style="fill: #ff0000; stroke: #ff0000"/>
     <use xlink:href="#m158b6c1690" x="429.644537" y="239.553658" style="fill: #ff0000; stroke: #ff0000"/>
     <use xlink:href="#m158b6c1690" x="433.833028" y="280.848085" style="fill: #ff0000; stroke: #ff0000"/>
     <use xlink:href="#m158b6c1690" x="438.021518" y="214.028644" style="fill: #ff0000; stroke: #ff0000"/>
     <use xlink:href="#m158b6c1690" x="442.210008" y="149.06405" style="fill: #ff0000; stroke: #ff0000"/>
     <use xlink:href="#m158b6c1690" x="446.398499" y="184.582135" style="fill: #ff0000; stroke: #ff0000"/>
     <use xlink:href="#m158b6c1690" x="450.586989" y="177.278272" style="fill: #ff0000; stroke: #ff0000"/>
     <use xlink:href="#m158b6c1690" x="454.77548" y="251.921448" style="fill: #ff0000; stroke: #ff0000"/>
     <use xlink:href="#m158b6c1690" x="458.96397" y="362.031365" style="fill: #ff0000; stroke: #ff0000"/>
     <use xlink:href="#m158b6c1690" x="463.15246" y="457.135628" style="fill: #ff0000; stroke: #ff0000"/>
     <use xlink:href="#m158b6c1690" x="467.340951" y="459.131675" style="fill: #ff0000; stroke: #ff0000"/>
     <use xlink:href="#m158b6c1690" x="471.529441" y="440.884852" style="fill: #ff0000; stroke: #ff0000"/>
     <use xlink:href="#m158b6c1690" x="475.717932" y="427.657029" style="fill: #ff0000; stroke: #ff0000"/>
     <use xlink:href="#m158b6c1690" x="479.906422" y="465.877159" style="fill: #ff0000; stroke: #ff0000"/>
     <use xlink:href="#m158b6c1690" x="484.094912" y="130.977681" style="fill: #ff0000; stroke: #ff0000"/>
     <use xlink:href="#m158b6c1690" x="488.283403" y="182.278017" style="fill: #ff0000; stroke: #ff0000"/>
     <use xlink:href="#m158b6c1690" x="492.471893" y="134.135414" style="fill: #ff0000; stroke: #ff0000"/>
     <use xlink:href="#m158b6c1690" x="496.660384" y="140.020865" style="fill: #ff0000; stroke: #ff0000"/>
     <use xlink:href="#m158b6c1690" x="500.848874" y="335.749008" style="fill: #ff0000; stroke: #ff0000"/>
     <use xlink:href="#m158b6c1690" x="505.037364" y="137.549874" style="fill: #ff0000; stroke: #ff0000"/>
     <use xlink:href="#m158b6c1690" x="509.225855" y="183.702848" style="fill: #ff0000; stroke: #ff0000"/>
     <use xlink:href="#m158b6c1690" x="513.414345" y="142.466183" style="fill: #ff0000; stroke: #ff0000"/>
     <use xlink:href="#m158b6c1690" x="517.602836" y="142.979636" style="fill: #ff0000; stroke: #ff0000"/>
     <use xlink:href="#m158b6c1690" x="521.791326" y="152.189693" style="fill: #ff0000; stroke: #ff0000"/>
     <use xlink:href="#m158b6c1690" x="525.979817" y="205.704293" style="fill: #ff0000; stroke: #ff0000"/>
     <use xlink:href="#m158b6c1690" x="530.168307" y="166.675475" style="fill: #ff0000; stroke: #ff0000"/>
     <use xlink:href="#m158b6c1690" x="534.356797" y="137.383002" style="fill: #ff0000; stroke: #ff0000"/>
     <use xlink:href="#m158b6c1690" x="538.545288" y="149.660938" style="fill: #ff0000; stroke: #ff0000"/>
     <use xlink:href="#m158b6c1690" x="542.733778" y="203.55421" style="fill: #ff0000; stroke: #ff0000"/>
     <use xlink:href="#m158b6c1690" x="546.922269" y="164.961827" style="fill: #ff0000; stroke: #ff0000"/>
     <use xlink:href="#m158b6c1690" x="551.110759" y="160.462698" style="fill: #ff0000; stroke: #ff0000"/>
     <use xlink:href="#m158b6c1690" x="555.299249" y="196.282437" style="fill: #ff0000; stroke: #ff0000"/>
     <use xlink:href="#m158b6c1690" x="559.48774" y="134.610358" style="fill: #ff0000; stroke: #ff0000"/>
     <use xlink:href="#m158b6c1690" x="563.67623" y="194.77417" style="fill: #ff0000; stroke: #ff0000"/>
     <use xlink:href="#m158b6c1690" x="567.864721" y="135.746372" style="fill: #ff0000; stroke: #ff0000"/>
     <use xlink:href="#m158b6c1690" x="572.053211" y="166.386658" style="fill: #ff0000; stroke: #ff0000"/>
     <use xlink:href="#m158b6c1690" x="576.241701" y="147.080839" style="fill: #ff0000; stroke: #ff0000"/>
     <use xlink:href="#m158b6c1690" x="580.430192" y="169.704845" style="fill: #ff0000; stroke: #ff0000"/>
     <use xlink:href="#m158b6c1690" x="584.618682" y="147.010239" style="fill: #ff0000; stroke: #ff0000"/>
     <use xlink:href="#m158b6c1690" x="588.807173" y="200.191095" style="fill: #ff0000; stroke: #ff0000"/>
     <use xlink:href="#m158b6c1690" x="592.995663" y="137.177621" style="fill: #ff0000; stroke: #ff0000"/>
     <use xlink:href="#m158b6c1690" x="597.184153" y="143.088745" style="fill: #ff0000; stroke: #ff0000"/>
     <use xlink:href="#m158b6c1690" x="601.372644" y="287.285498" style="fill: #ff0000; stroke: #ff0000"/>
     <use xlink:href="#m158b6c1690" x="605.561134" y="291.412373" style="fill: #ff0000; stroke: #ff0000"/>
     <use xlink:href="#m158b6c1690" x="609.749625" y="445.050237" style="fill: #ff0000; stroke: #ff0000"/>
     <use xlink:href="#m158b6c1690" x="613.938115" y="421.720233" style="fill: #ff0000; stroke: #ff0000"/>
     <use xlink:href="#m158b6c1690" x="618.126606" y="443.618988" style="fill: #ff0000; stroke: #ff0000"/>
     <use xlink:href="#m158b6c1690" x="622.315096" y="441.545923" style="fill: #ff0000; stroke: #ff0000"/>
     <use xlink:href="#m158b6c1690" x="626.503586" y="456.410376" style="fill: #ff0000; stroke: #ff0000"/>
     <use xlink:href="#m158b6c1690" x="630.692077" y="433.696516" style="fill: #ff0000; stroke: #ff0000"/>
     <use xlink:href="#m158b6c1690" x="634.880567" y="433.112463" style="fill: #ff0000; stroke: #ff0000"/>
     <use xlink:href="#m158b6c1690" x="639.069058" y="452.906062" style="fill: #ff0000; stroke: #ff0000"/>
     <use xlink:href="#m158b6c1690" x="643.257548" y="436.738722" style="fill: #ff0000; stroke: #ff0000"/>
     <use xlink:href="#m158b6c1690" x="647.446038" y="432.213921" style="fill: #ff0000; stroke: #ff0000"/>
     <use xlink:href="#m158b6c1690" x="651.634529" y="164.076121" style="fill: #ff0000; stroke: #ff0000"/>
     <use xlink:href="#m158b6c1690" x="655.823019" y="166.425167" style="fill: #ff0000; stroke: #ff0000"/>
     <use xlink:href="#m158b6c1690" x="660.01151" y="154.955919" style="fill: #ff0000; stroke: #ff0000"/>
     <use xlink:href="#m158b6c1690" x="664.2" y="143.576525" style="fill: #ff0000; stroke: #ff0000"/>
     <use xlink:href="#m158b6c1690" x="668.38849" y="176.078076" style="fill: #ff0000; stroke: #ff0000"/>
     <use xlink:href="#m158b6c1690" x="672.576981" y="129.244778" style="fill: #ff0000; stroke: #ff0000"/>
     <use xlink:href="#m158b6c1690" x="676.765471" y="199.728988" style="fill: #ff0000; stroke: #ff0000"/>
     <use xlink:href="#m158b6c1690" x="680.953962" y="162.689799" style="fill: #ff0000; stroke: #ff0000"/>
     <use xlink:href="#m158b6c1690" x="685.142452" y="184.190628" style="fill: #ff0000; stroke: #ff0000"/>
     <use xlink:href="#m158b6c1690" x="689.330942" y="128.936706" style="fill: #ff0000; stroke: #ff0000"/>
     <use xlink:href="#m158b6c1690" x="693.519433" y="150.309172" style="fill: #ff0000; stroke: #ff0000"/>
     <use xlink:href="#m158b6c1690" x="697.707923" y="183.426867" style="fill: #ff0000; stroke: #ff0000"/>
     <use xlink:href="#m158b6c1690" x="701.896414" y="205.884001" style="fill: #ff0000; stroke: #ff0000"/>
     <use xlink:href="#m158b6c1690" x="706.084904" y="142.761419" style="fill: #ff0000; stroke: #ff0000"/>
     <use xlink:href="#m158b6c1690" x="710.273394" y="123.827853" style="fill: #ff0000; stroke: #ff0000"/>
     <use xlink:href="#m158b6c1690" x="714.461885" y="172.015382" style="fill: #ff0000; stroke: #ff0000"/>
     <use xlink:href="#m158b6c1690" x="718.650375" y="175.57746" style="fill: #ff0000; stroke: #ff0000"/>
     <use xlink:href="#m158b6c1690" x="722.838866" y="160.751515" style="fill: #ff0000; stroke: #ff0000"/>
     <use xlink:href="#m158b6c1690" x="727.027356" y="173.517231" style="fill: #ff0000; stroke: #ff0000"/>
     <use xlink:href="#m158b6c1690" x="731.215847" y="152.221783" style="fill: #ff0000; stroke: #ff0000"/>
     <use xlink:href="#m158b6c1690" x="735.404337" y="172.175836" style="fill: #ff0000; stroke: #ff0000"/>
     <use xlink:href="#m158b6c1690" x="739.592827" y="148.19118" style="fill: #ff0000; stroke: #ff0000"/>
     <use xlink:href="#m158b6c1690" x="743.781318" y="146.792022" style="fill: #ff0000; stroke: #ff0000"/>
     <use xlink:href="#m158b6c1690" x="747.969808" y="163.164742" style="fill: #ff0000; stroke: #ff0000"/>
     <use xlink:href="#m158b6c1690" x="752.158299" y="201.891907" style="fill: #ff0000; stroke: #ff0000"/>
     <use xlink:href="#m158b6c1690" x="756.346789" y="195.871675" style="fill: #ff0000; stroke: #ff0000"/>
     <use xlink:href="#m158b6c1690" x="760.535279" y="193.471284" style="fill: #ff0000; stroke: #ff0000"/>
     <use xlink:href="#m158b6c1690" x="764.72377" y="153.762141" style="fill: #ff0000; stroke: #ff0000"/>
     <use xlink:href="#m158b6c1690" x="768.91226" y="140.425209" style="fill: #ff0000; stroke: #ff0000"/>
     <use xlink:href="#m158b6c1690" x="773.100751" y="272.81897" style="fill: #ff0000; stroke: #ff0000"/>
     <use xlink:href="#m158b6c1690" x="777.289241" y="265.052999" style="fill: #ff0000; stroke: #ff0000"/>
     <use xlink:href="#m158b6c1690" x="781.477731" y="281.464229" style="fill: #ff0000; stroke: #ff0000"/>
     <use xlink:href="#m158b6c1690" x="785.666222" y="224.002461" style="fill: #ff0000; stroke: #ff0000"/>
     <use xlink:href="#m158b6c1690" x="789.854712" y="335.145701" style="fill: #ff0000; stroke: #ff0000"/>
     <use xlink:href="#m158b6c1690" x="794.043203" y="450.248945" style="fill: #ff0000; stroke: #ff0000"/>
     <use xlink:href="#m158b6c1690" x="798.231693" y="202.623577" style="fill: #ff0000; stroke: #ff0000"/>
     <use xlink:href="#m158b6c1690" x="802.420183" y="457.539972" style="fill: #ff0000; stroke: #ff0000"/>
     <use xlink:href="#m158b6c1690" x="806.608674" y="455.973942" style="fill: #ff0000; stroke: #ff0000"/>
     <use xlink:href="#m158b6c1690" x="810.797164" y="439.723166" style="fill: #ff0000; stroke: #ff0000"/>
     <use xlink:href="#m158b6c1690" x="814.985655" y="438.824624" style="fill: #ff0000; stroke: #ff0000"/>
     <use xlink:href="#m158b6c1690" x="819.174145" y="448.83695" style="fill: #ff0000; stroke: #ff0000"/>
     <use xlink:href="#m158b6c1690" x="823.362636" y="224.907421" style="fill: #ff0000; stroke: #ff0000"/>
     <use xlink:href="#m158b6c1690" x="827.551126" y="259.238148" style="fill: #ff0000; stroke: #ff0000"/>
     <use xlink:href="#m158b6c1690" x="831.739616" y="241.812849" style="fill: #ff0000; stroke: #ff0000"/>
     <use xlink:href="#m158b6c1690" x="835.928107" y="214.176261" style="fill: #ff0000; stroke: #ff0000"/>
     <use xlink:href="#m158b6c1690" x="840.116597" y="164.628082" style="fill: #ff0000; stroke: #ff0000"/>
     <use xlink:href="#m158b6c1690" x="844.305088" y="120.663701" style="fill: #ff0000; stroke: #ff0000"/>
     <use xlink:href="#m158b6c1690" x="848.493578" y="186.039057" style="fill: #ff0000; stroke: #ff0000"/>
     <use xlink:href="#m158b6c1690" x="852.682068" y="154.160067" style="fill: #ff0000; stroke: #ff0000"/>
     <use xlink:href="#m158b6c1690" x="856.870559" y="142.99889" style="fill: #ff0000; stroke: #ff0000"/>
     <use xlink:href="#m158b6c1690" x="861.059049" y="306.026519" style="fill: #ff0000; stroke: #ff0000"/>
     <use xlink:href="#m158b6c1690" x="865.24754" y="393.506011" style="fill: #ff0000; stroke: #ff0000"/>
     <use xlink:href="#m158b6c1690" x="869.43603" y="280.591359" style="fill: #ff0000; stroke: #ff0000"/>
     <use xlink:href="#m158b6c1690" x="873.62452" y="146.766349" style="fill: #ff0000; stroke: #ff0000"/>
     <use xlink:href="#m158b6c1690" x="877.813011" y="156.855693" style="fill: #ff0000; stroke: #ff0000"/>
     <use xlink:href="#m158b6c1690" x="882.001501" y="162.099328" style="fill: #ff0000; stroke: #ff0000"/>
     <use xlink:href="#m158b6c1690" x="886.189992" y="223.700808" style="fill: #ff0000; stroke: #ff0000"/>
     <use xlink:href="#m158b6c1690" x="890.378482" y="358.398687" style="fill: #ff0000; stroke: #ff0000"/>
     <use xlink:href="#m158b6c1690" x="894.566972" y="362.81438" style="fill: #ff0000; stroke: #ff0000"/>
     <use xlink:href="#m158b6c1690" x="898.755463" y="404.294934" style="fill: #ff0000; stroke: #ff0000"/>
     <use xlink:href="#m158b6c1690" x="902.943953" y="262.736044" style="fill: #ff0000; stroke: #ff0000"/>
     <use xlink:href="#m158b6c1690" x="907.132444" y="168.145233" style="fill: #ff0000; stroke: #ff0000"/>
     <use xlink:href="#m158b6c1690" x="911.320934" y="175.660896" style="fill: #ff0000; stroke: #ff0000"/>
     <use xlink:href="#m158b6c1690" x="915.509425" y="147.440256" style="fill: #ff0000; stroke: #ff0000"/>
     <use xlink:href="#m158b6c1690" x="919.697915" y="151.342496" style="fill: #ff0000; stroke: #ff0000"/>
     <use xlink:href="#m158b6c1690" x="923.886405" y="284.301054" style="fill: #ff0000; stroke: #ff0000"/>
     <use xlink:href="#m158b6c1690" x="928.074896" y="192.636924" style="fill: #ff0000; stroke: #ff0000"/>
     <use xlink:href="#m158b6c1690" x="932.263386" y="254.674838" style="fill: #ff0000; stroke: #ff0000"/>
     <use xlink:href="#m158b6c1690" x="936.451877" y="199.818842" style="fill: #ff0000; stroke: #ff0000"/>
     <use xlink:href="#m158b6c1690" x="940.640367" y="200.717384" style="fill: #ff0000; stroke: #ff0000"/>
     <use xlink:href="#m158b6c1690" x="944.828857" y="164.35852" style="fill: #ff0000; stroke: #ff0000"/>
     <use xlink:href="#m158b6c1690" x="949.017348" y="125.291193" style="fill: #ff0000; stroke: #ff0000"/>
     <use xlink:href="#m158b6c1690" x="953.205838" y="163.126234" style="fill: #ff0000; stroke: #ff0000"/>
     <use xlink:href="#m158b6c1690" x="957.394329" y="160.424189" style="fill: #ff0000; stroke: #ff0000"/>
     <use xlink:href="#m158b6c1690" x="961.582819" y="355.581116" style="fill: #ff0000; stroke: #ff0000"/>
     <use xlink:href="#m158b6c1690" x="965.771309" y="183.38194" style="fill: #ff0000; stroke: #ff0000"/>
     <use xlink:href="#m158b6c1690" x="969.9598" y="186.635946" style="fill: #ff0000; stroke: #ff0000"/>
     <use xlink:href="#m158b6c1690" x="974.14829" y="154.885319" style="fill: #ff0000; stroke: #ff0000"/>
     <use xlink:href="#m158b6c1690" x="978.336781" y="192.977086" style="fill: #ff0000; stroke: #ff0000"/>
     <use xlink:href="#m158b6c1690" x="982.525271" y="363.456196" style="fill: #ff0000; stroke: #ff0000"/>
     <use xlink:href="#m158b6c1690" x="986.713761" y="486.678409" style="fill: #ff0000; stroke: #ff0000"/>
     <use xlink:href="#m158b6c1690" x="990.902252" y="354.567047" style="fill: #ff0000; stroke: #ff0000"/>
     <use xlink:href="#m158b6c1690" x="995.090742" y="175.834186" style="fill: #ff0000; stroke: #ff0000"/>
     <use xlink:href="#m158b6c1690" x="999.279233" y="166.746075" style="fill: #ff0000; stroke: #ff0000"/>
     <use xlink:href="#m158b6c1690" x="1003.467723" y="157.157347" style="fill: #ff0000; stroke: #ff0000"/>
     <use xlink:href="#m158b6c1690" x="1007.656214" y="133.339563" style="fill: #ff0000; stroke: #ff0000"/>
     <use xlink:href="#m158b6c1690" x="1011.844704" y="146.560968" style="fill: #ff0000; stroke: #ff0000"/>
     <use xlink:href="#m158b6c1690" x="1016.033194" y="175.725077" style="fill: #ff0000; stroke: #ff0000"/>
     <use xlink:href="#m158b6c1690" x="1020.221685" y="277.902151" style="fill: #ff0000; stroke: #ff0000"/>
     <use xlink:href="#m158b6c1690" x="1024.410175" y="259.879964" style="fill: #ff0000; stroke: #ff0000"/>
     <use xlink:href="#m158b6c1690" x="1028.598666" y="265.168526" style="fill: #ff0000; stroke: #ff0000"/>
     <use xlink:href="#m158b6c1690" x="1032.787156" y="276.355375" style="fill: #ff0000; stroke: #ff0000"/>
     <use xlink:href="#m158b6c1690" x="1036.975646" y="265.322562" style="fill: #ff0000; stroke: #ff0000"/>
     <use xlink:href="#m158b6c1690" x="1041.164137" y="451.83423" style="fill: #ff0000; stroke: #ff0000"/>
     <use xlink:href="#m158b6c1690" x="1045.352627" y="418.164573" style="fill: #ff0000; stroke: #ff0000"/>
     <use xlink:href="#m158b6c1690" x="1049.541118" y="437.637264" style="fill: #ff0000; stroke: #ff0000"/>
     <use xlink:href="#m158b6c1690" x="1053.729608" y="437.733537" style="fill: #ff0000; stroke: #ff0000"/>
     <use xlink:href="#m158b6c1690" x="1057.918098" y="451.474813" style="fill: #ff0000; stroke: #ff0000"/>
     <use xlink:href="#m158b6c1690" x="1062.106589" y="449.029495" style="fill: #ff0000; stroke: #ff0000"/>
     <use xlink:href="#m158b6c1690" x="1066.295079" y="459.176602" style="fill: #ff0000; stroke: #ff0000"/>
     <use xlink:href="#m158b6c1690" x="1070.48357" y="449.594293" style="fill: #ff0000; stroke: #ff0000"/>
     <use xlink:href="#m158b6c1690" x="1074.67206" y="437.451138" style="fill: #ff0000; stroke: #ff0000"/>
     <use xlink:href="#m158b6c1690" x="1078.86055" y="168.267178" style="fill: #ff0000; stroke: #ff0000"/>
     <use xlink:href="#m158b6c1690" x="1083.049041" y="179.030429" style="fill: #ff0000; stroke: #ff0000"/>
     <use xlink:href="#m158b6c1690" x="1087.237531" y="149.660938" style="fill: #ff0000; stroke: #ff0000"/>
     <use xlink:href="#m158b6c1690" x="1091.426022" y="188.009432" style="fill: #ff0000; stroke: #ff0000"/>
     <use xlink:href="#m158b6c1690" x="1095.614512" y="167.490581" style="fill: #ff0000; stroke: #ff0000"/>
     <use xlink:href="#m158b6c1690" x="1099.803003" y="203.098521" style="fill: #ff0000; stroke: #ff0000"/>
     <use xlink:href="#m158b6c1690" x="1103.991493" y="189.33799" style="fill: #ff0000; stroke: #ff0000"/>
     <use xlink:href="#m158b6c1690" x="1108.179983" y="176.771237" style="fill: #ff0000; stroke: #ff0000"/>
     <use xlink:href="#m158b6c1690" x="1112.368474" y="120.920427" style="fill: #ff0000; stroke: #ff0000"/>
     <use xlink:href="#m158b6c1690" x="1116.556964" y="145.001356" style="fill: #ff0000; stroke: #ff0000"/>
     <use xlink:href="#m158b6c1690" x="1120.745455" y="143.903851" style="fill: #ff0000; stroke: #ff0000"/>
    </g>
   </g>
   <g id="patch_3">
    <path d="M 162 512.64 
L 162 69.12 
" style="fill: none; stroke: #000000; stroke-width: 0.8; stroke-linejoin: miter; stroke-linecap: square"/>
   </g>
   <g id="patch_4">
    <path d="M 1166.4 512.64 
L 1166.4 69.12 
" style="fill: none; stroke: #000000; stroke-width: 0.8; stroke-linejoin: miter; stroke-linecap: square"/>
   </g>
   <g id="patch_5">
    <path d="M 162 512.64 
L 1166.4 512.64 
" style="fill: none; stroke: #000000; stroke-width: 0.8; stroke-linejoin: miter; stroke-linecap: square"/>
   </g>
   <g id="patch_6">
    <path d="M 162 69.12 
L 1166.4 69.12 
" style="fill: none; stroke: #000000; stroke-width: 0.8; stroke-linejoin: miter; stroke-linecap: square"/>
   </g>
   <g id="text_14">
    <!-- Comparison of True Values and Predictions -->
    <g transform="translate(541.2 63.12) scale(0.12 -0.12)">
     <defs>
      <path id="SimHei-43" d="M 2975 1825 
Q 2950 875 2575 475 
Q 2200 75 1675 75 
Q 1075 75 650 562 
Q 225 1050 225 2125 
Q 225 3300 637 3875 
Q 1050 4450 1700 4450 
Q 2250 4450 2612 4037 
Q 2975 3625 2950 2875 
L 2400 2875 
Q 2400 3425 2225 3700 
Q 2050 3975 1700 3975 
Q 1300 3975 1062 3562 
Q 825 3150 825 2175 
Q 825 1275 1062 912 
Q 1300 550 1675 550 
Q 1950 550 2175 812 
Q 2400 1075 2400 1825 
L 2975 1825 
z
" transform="scale(0.015625)"/>
      <path id="SimHei-6f" d="M 2925 1525 
Q 2925 875 2525 475 
Q 2125 75 1575 75 
Q 1025 75 625 475 
Q 225 875 225 1525 
Q 225 2175 625 2575 
Q 1025 2975 1575 2975 
Q 2125 2975 2525 2575 
Q 2925 2175 2925 1525 
z
M 2375 1525 
Q 2375 2025 2125 2275 
Q 1875 2525 1575 2525 
Q 1275 2525 1025 2275 
Q 775 2025 775 1525 
Q 775 1025 1025 775 
Q 1275 525 1575 525 
Q 1875 525 2125 775 
Q 2375 1025 2375 1525 
z
" transform="scale(0.015625)"/>
      <path id="SimHei-6d" d="M 3050 125 
L 2550 125 
L 2550 2150 
Q 2550 2300 2500 2400 
Q 2450 2500 2300 2500 
Q 2125 2500 1975 2312 
Q 1825 2125 1825 1825 
L 1825 125 
L 1325 125 
L 1325 2150 
Q 1325 2300 1275 2400 
Q 1225 2500 1075 2500 
Q 900 2500 750 2312 
Q 600 2125 600 1825 
L 600 125 
L 100 125 
L 100 2925 
L 600 2925 
L 600 2550 
Q 725 2750 900 2862 
Q 1075 2975 1275 2975 
Q 1475 2975 1612 2862 
Q 1750 2750 1800 2550 
Q 1925 2750 2087 2862 
Q 2250 2975 2450 2975 
Q 2750 2975 2900 2812 
Q 3050 2650 3050 2350 
L 3050 125 
z
" transform="scale(0.015625)"/>
      <path id="SimHei-70" d="M 2825 1525 
Q 2825 800 2475 425 
Q 2125 50 1625 50 
Q 1350 50 1150 162 
Q 950 275 800 500 
L 800 -800 
L 300 -800 
L 300 2925 
L 800 2925 
L 800 2550 
Q 950 2775 1150 2875 
Q 1350 2975 1625 2975 
Q 2125 2975 2475 2612 
Q 2825 2250 2825 1525 
z
M 2275 1525 
Q 2275 2000 2087 2262 
Q 1900 2525 1525 2525 
Q 1225 2525 1012 2262 
Q 800 2000 800 1525 
Q 800 1050 1012 775 
Q 1225 500 1525 500 
Q 1900 500 2087 775 
Q 2275 1050 2275 1525 
z
" transform="scale(0.015625)"/>
      <path id="SimHei-61" d="M 2875 125 
L 2275 125 
Q 2225 175 2200 262 
Q 2175 350 2175 475 
Q 2000 275 1750 175 
Q 1500 75 1225 75 
Q 825 75 550 275 
Q 275 475 275 850 
Q 275 1225 525 1450 
Q 775 1675 1300 1750 
Q 1650 1800 1912 1875 
Q 2175 1950 2175 2075 
Q 2175 2225 2062 2375 
Q 1950 2525 1575 2525 
Q 1275 2525 1137 2412 
Q 1000 2300 950 2100 
L 400 2100 
Q 450 2500 762 2737 
Q 1075 2975 1575 2975 
Q 2125 2975 2400 2725 
Q 2675 2475 2675 2025 
L 2675 650 
Q 2675 500 2725 375 
Q 2775 250 2875 125 
z
M 2175 1050 
L 2175 1550 
Q 2025 1500 1887 1462 
Q 1750 1425 1425 1375 
Q 1050 1325 937 1200 
Q 825 1075 825 900 
Q 825 750 937 637 
Q 1050 525 1275 525 
Q 1500 525 1762 650 
Q 2025 775 2175 1050 
z
" transform="scale(0.015625)"/>
      <path id="SimHei-72" d="M 2500 2425 
Q 2025 2500 1700 2287 
Q 1375 2075 1150 1550 
L 1150 125 
L 650 125 
L 650 2925 
L 1150 2925 
L 1150 2200 
Q 1375 2600 1712 2787 
Q 2050 2975 2500 2975 
L 2500 2425 
z
" transform="scale(0.015625)"/>
      <path id="SimHei-69" d="M 1800 3725 
L 1300 3725 
L 1300 4375 
L 1800 4375 
L 1800 3725 
z
M 1800 125 
L 1300 125 
L 1300 2925 
L 1800 2925 
L 1800 125 
z
" transform="scale(0.015625)"/>
      <path id="SimHei-73" d="M 2750 900 
Q 2750 500 2437 287 
Q 2125 75 1650 75 
Q 1050 75 725 312 
Q 400 550 400 1000 
L 900 1000 
Q 900 700 1112 600 
Q 1325 500 1625 500 
Q 1925 500 2075 612 
Q 2225 725 2225 900 
Q 2225 1025 2100 1150 
Q 1975 1275 1475 1350 
Q 900 1425 687 1637 
Q 475 1850 475 2200 
Q 475 2500 762 2737 
Q 1050 2975 1600 2975 
Q 2100 2975 2387 2750 
Q 2675 2525 2675 2150 
L 2175 2150 
Q 2175 2375 2012 2462 
Q 1850 2550 1600 2550 
Q 1275 2550 1137 2437 
Q 1000 2325 1000 2175 
Q 1000 2000 1125 1900 
Q 1250 1800 1650 1750 
Q 2300 1650 2525 1437 
Q 2750 1225 2750 900 
z
" transform="scale(0.015625)"/>
      <path id="SimHei-6e" d="M 2800 125 
L 2300 125 
L 2300 1925 
Q 2300 2225 2150 2400 
Q 2000 2575 1750 2575 
Q 1425 2575 1137 2237 
Q 850 1900 850 1400 
L 850 125 
L 350 125 
L 350 2925 
L 850 2925 
L 850 2400 
Q 1050 2675 1287 2825 
Q 1525 2975 1900 2975 
Q 2350 2975 2575 2725 
Q 2800 2475 2800 2100 
L 2800 125 
z
" transform="scale(0.015625)"/>
      <path id="SimHei-20" transform="scale(0.015625)"/>
      <path id="SimHei-66" d="M 2850 3825 
Q 2725 3900 2550 3950 
Q 2375 4000 2100 4000 
Q 1825 4000 1725 3862 
Q 1625 3725 1625 3525 
L 1625 2925 
L 2650 2925 
L 2650 2525 
L 1625 2525 
L 1625 125 
L 1125 125 
L 1125 2525 
L 275 2525 
L 275 2925 
L 1125 2925 
L 1125 3500 
Q 1125 3950 1400 4200 
Q 1675 4450 2125 4450 
Q 2400 4450 2562 4412 
Q 2725 4375 2850 4325 
L 2850 3825 
z
" transform="scale(0.015625)"/>
      <path id="SimHei-54" d="M 2850 3925 
L 1850 3925 
L 1850 125 
L 1275 125 
L 1275 3925 
L 275 3925 
L 275 4400 
L 2850 4400 
L 2850 3925 
z
" transform="scale(0.015625)"/>
      <path id="SimHei-75" d="M 2800 125 
L 2300 125 
L 2300 650 
Q 2100 375 1862 225 
Q 1625 75 1250 75 
Q 800 75 575 325 
Q 350 575 350 950 
L 350 2925 
L 850 2925 
L 850 1125 
Q 850 825 1000 650 
Q 1150 475 1400 475 
Q 1725 475 2012 812 
Q 2300 1150 2300 1650 
L 2300 2925 
L 2800 2925 
L 2800 125 
z
" transform="scale(0.015625)"/>
      <path id="SimHei-65" d="M 2850 1075 
Q 2800 625 2450 350 
Q 2100 75 1625 75 
Q 1025 75 637 462 
Q 250 850 250 1525 
Q 250 2200 637 2587 
Q 1025 2975 1625 2975 
Q 2150 2975 2487 2637 
Q 2825 2300 2825 1525 
L 800 1525 
Q 800 975 1037 750 
Q 1275 525 1625 525 
Q 1900 525 2075 662 
Q 2250 800 2300 1075 
L 2850 1075 
z
M 2250 1925 
Q 2200 2275 2025 2412 
Q 1850 2550 1575 2550 
Q 1325 2550 1125 2412 
Q 925 2275 825 1925 
L 2250 1925 
z
" transform="scale(0.015625)"/>
      <path id="SimHei-56" d="M 3050 4400 
L 1800 75 
L 1300 75 
L 50 4400 
L 650 4400 
L 1525 1125 
L 1575 1125 
L 2450 4400 
L 3050 4400 
z
" transform="scale(0.015625)"/>
      <path id="SimHei-6c" d="M 1825 125 
L 1325 125 
L 1325 4400 
L 1825 4400 
L 1825 125 
z
" transform="scale(0.015625)"/>
      <path id="SimHei-64" d="M 2750 125 
L 2250 125 
L 2250 500 
Q 2100 275 1900 175 
Q 1700 75 1425 75 
Q 925 75 575 437 
Q 225 800 225 1525 
Q 225 2250 575 2625 
Q 925 3000 1425 3000 
Q 1700 3000 1900 2887 
Q 2100 2775 2250 2550 
L 2250 4400 
L 2750 4400 
L 2750 125 
z
M 2250 1525 
Q 2250 2000 2037 2275 
Q 1825 2550 1525 2550 
Q 1150 2550 962 2275 
Q 775 2000 775 1525 
Q 775 1050 962 787 
Q 1150 525 1525 525 
Q 1825 525 2037 787 
Q 2250 1050 2250 1525 
z
" transform="scale(0.015625)"/>
      <path id="SimHei-50" d="M 2950 3100 
Q 2950 2500 2600 2150 
Q 2250 1800 1625 1800 
L 900 1800 
L 900 125 
L 325 125 
L 325 4400 
L 1625 4400 
Q 2250 4400 2600 4050 
Q 2950 3700 2950 3100 
z
M 2375 3100 
Q 2375 3575 2150 3750 
Q 1925 3925 1475 3925 
L 900 3925 
L 900 2275 
L 1475 2275 
Q 1925 2275 2150 2450 
Q 2375 2625 2375 3100 
z
" transform="scale(0.015625)"/>
      <path id="SimHei-63" d="M 2850 1250 
Q 2850 725 2487 400 
Q 2125 75 1575 75 
Q 1025 75 625 462 
Q 225 850 225 1525 
Q 225 2200 625 2587 
Q 1025 2975 1575 2975 
Q 2125 2975 2450 2687 
Q 2775 2400 2775 2000 
L 2225 2000 
Q 2200 2300 2012 2412 
Q 1825 2525 1575 2525 
Q 1275 2525 1025 2287 
Q 775 2050 775 1525 
Q 775 1000 1025 762 
Q 1275 525 1575 525 
Q 1900 525 2100 700 
Q 2300 875 2300 1250 
L 2850 1250 
z
" transform="scale(0.015625)"/>
      <path id="SimHei-74" d="M 2750 200 
Q 2625 150 2462 112 
Q 2300 75 2025 75 
Q 1575 75 1300 325 
Q 1025 575 1025 1025 
L 1025 2525 
L 175 2525 
L 175 2925 
L 1025 2925 
L 1025 3900 
L 1525 3900 
L 1525 2925 
L 2550 2925 
L 2550 2525 
L 1525 2525 
L 1525 1000 
Q 1525 800 1625 662 
Q 1725 525 2000 525 
Q 2275 525 2450 575 
Q 2625 625 2750 700 
L 2750 200 
z
" transform="scale(0.015625)"/>
     </defs>
     <use xlink:href="#SimHei-43"/>
     <use xlink:href="#SimHei-6f" x="50"/>
     <use xlink:href="#SimHei-6d" x="100"/>
     <use xlink:href="#SimHei-70" x="150"/>
     <use xlink:href="#SimHei-61" x="200"/>
     <use xlink:href="#SimHei-72" x="250"/>
     <use xlink:href="#SimHei-69" x="300"/>
     <use xlink:href="#SimHei-73" x="350"/>
     <use xlink:href="#SimHei-6f" x="400"/>
     <use xlink:href="#SimHei-6e" x="450"/>
     <use xlink:href="#SimHei-20" x="500"/>
     <use xlink:href="#SimHei-6f" x="550"/>
     <use xlink:href="#SimHei-66" x="600"/>
     <use xlink:href="#SimHei-20" x="650"/>
     <use xlink:href="#SimHei-54" x="700"/>
     <use xlink:href="#SimHei-72" x="750"/>
     <use xlink:href="#SimHei-75" x="800"/>
     <use xlink:href="#SimHei-65" x="850"/>
     <use xlink:href="#SimHei-20" x="900"/>
     <use xlink:href="#SimHei-56" x="950"/>
     <use xlink:href="#SimHei-61" x="1000"/>
     <use xlink:href="#SimHei-6c" x="1050"/>
     <use xlink:href="#SimHei-75" x="1100"/>
     <use xlink:href="#SimHei-65" x="1150"/>
     <use xlink:href="#SimHei-73" x="1200"/>
     <use xlink:href="#SimHei-20" x="1250"/>
     <use xlink:href="#SimHei-61" x="1300"/>
     <use xlink:href="#SimHei-6e" x="1350"/>
     <use xlink:href="#SimHei-64" x="1400"/>
     <use xlink:href="#SimHei-20" x="1450"/>
     <use xlink:href="#SimHei-50" x="1500"/>
     <use xlink:href="#SimHei-72" x="1550"/>
     <use xlink:href="#SimHei-65" x="1600"/>
     <use xlink:href="#SimHei-64" x="1650"/>
     <use xlink:href="#SimHei-69" x="1700"/>
     <use xlink:href="#SimHei-63" x="1750"/>
     <use xlink:href="#SimHei-74" x="1800"/>
     <use xlink:href="#SimHei-69" x="1850"/>
     <use xlink:href="#SimHei-6f" x="1900"/>
     <use xlink:href="#SimHei-6e" x="1950"/>
     <use xlink:href="#SimHei-73" x="2000"/>
    </g>
   </g>
   <g id="legend_1">
    <g id="patch_7">
     <path d="M 171.8 505.64 
L 342.6 505.64 
Q 345.4 505.64 345.4 502.84 
L 345.4 374.39 
Q 345.4 371.59 342.6 371.59 
L 171.8 371.59 
Q 169 371.59 169 374.39 
L 169 502.84 
Q 169 505.64 171.8 505.64 
z
" style="fill: #ffffff; opacity: 0.8; stroke: #cccccc; stroke-linejoin: miter"/>
    </g>
    <g id="line2d_32">
     <path d="M 174.6 382.09 
L 188.6 382.09 
L 202.6 382.09 
" style="fill: none; stroke-dasharray: 6.4,1.6,1,1.6; stroke-dashoffset: 0; stroke: #1f77b4"/>
    </g>
    <g id="text_15">
     <!-- Transformer-LSTM -->
     <g transform="translate(213.8 386.99) scale(0.14 -0.14)">
      <defs>
       <path id="SimHei-2d" d="M 2975 2125 
L 125 2125 
L 125 2525 
L 2975 2525 
L 2975 2125 
z
" transform="scale(0.015625)"/>
       <path id="SimHei-4c" d="M 2900 125 
L 300 125 
L 300 4400 
L 875 4400 
L 875 600 
L 2900 600 
L 2900 125 
z
" transform="scale(0.015625)"/>
       <path id="SimHei-53" d="M 2900 1325 
Q 2900 750 2537 412 
Q 2175 75 1550 75 
Q 925 75 575 425 
Q 225 775 225 1300 
L 225 1475 
L 800 1475 
L 800 1325 
Q 800 950 1025 750 
Q 1250 550 1550 550 
Q 1950 550 2137 762 
Q 2325 975 2325 1275 
Q 2325 1525 2100 1737 
Q 1875 1950 1450 2125 
Q 850 2350 587 2625 
Q 325 2900 325 3275 
Q 325 3800 687 4125 
Q 1050 4450 1550 4450 
Q 2200 4450 2487 4062 
Q 2775 3675 2775 3225 
L 2200 3225 
Q 2225 3500 2050 3725 
Q 1875 3950 1550 3950 
Q 1250 3950 1075 3787 
Q 900 3625 900 3350 
Q 900 3125 1037 2962 
Q 1175 2800 1750 2575 
Q 2300 2350 2600 2037 
Q 2900 1725 2900 1325 
z
" transform="scale(0.015625)"/>
       <path id="SimHei-4d" d="M 2925 125 
L 2425 125 
L 2425 3175 
L 2375 3175 
L 1775 125 
L 1375 125 
L 775 3175 
L 725 3175 
L 725 125 
L 225 125 
L 225 4400 
L 1000 4400 
L 1550 1575 
L 1600 1575 
L 2150 4400 
L 2925 4400 
L 2925 125 
z
" transform="scale(0.015625)"/>
      </defs>
      <use xlink:href="#SimHei-54"/>
      <use xlink:href="#SimHei-72" x="50"/>
      <use xlink:href="#SimHei-61" x="100"/>
      <use xlink:href="#SimHei-6e" x="150"/>
      <use xlink:href="#SimHei-73" x="200"/>
      <use xlink:href="#SimHei-66" x="250"/>
      <use xlink:href="#SimHei-6f" x="300"/>
      <use xlink:href="#SimHei-72" x="350"/>
      <use xlink:href="#SimHei-6d" x="400"/>
      <use xlink:href="#SimHei-65" x="450"/>
      <use xlink:href="#SimHei-72" x="500"/>
      <use xlink:href="#SimHei-2d" x="550"/>
      <use xlink:href="#SimHei-4c" x="600"/>
      <use xlink:href="#SimHei-53" x="650"/>
      <use xlink:href="#SimHei-54" x="700"/>
      <use xlink:href="#SimHei-4d" x="750"/>
     </g>
    </g>
    <g id="line2d_33">
     <path d="M 174.6 400.64 
L 188.6 400.64 
L 202.6 400.64 
" style="fill: none; stroke-dasharray: 6.4,1.6,1,1.6; stroke-dashoffset: 0; stroke: #ff7f0e"/>
    </g>
    <g id="text_16">
     <!-- Transformer-BiLSTM -->
     <g transform="translate(213.8 405.54) scale(0.14 -0.14)">
      <defs>
       <path id="SimHei-42" d="M 2950 1400 
Q 2950 675 2550 400 
Q 2150 125 1525 125 
L 275 125 
L 275 4400 
L 1575 4400 
Q 2200 4400 2512 4075 
Q 2825 3750 2825 3300 
Q 2825 2850 2612 2637 
Q 2400 2425 2175 2350 
Q 2475 2275 2712 2037 
Q 2950 1800 2950 1400 
z
M 2250 3300 
Q 2250 3625 2062 3775 
Q 1875 3925 1600 3925 
L 850 3925 
L 850 2600 
L 1575 2600 
Q 1850 2600 2050 2762 
Q 2250 2925 2250 3300 
z
M 2350 1400 
Q 2350 1800 2087 1962 
Q 1825 2125 1500 2125 
L 850 2125 
L 850 600 
L 1425 600 
Q 1875 600 2112 775 
Q 2350 950 2350 1400 
z
" transform="scale(0.015625)"/>
      </defs>
      <use xlink:href="#SimHei-54"/>
      <use xlink:href="#SimHei-72" x="50"/>
      <use xlink:href="#SimHei-61" x="100"/>
      <use xlink:href="#SimHei-6e" x="150"/>
      <use xlink:href="#SimHei-73" x="200"/>
      <use xlink:href="#SimHei-66" x="250"/>
      <use xlink:href="#SimHei-6f" x="300"/>
      <use xlink:href="#SimHei-72" x="350"/>
      <use xlink:href="#SimHei-6d" x="400"/>
      <use xlink:href="#SimHei-65" x="450"/>
      <use xlink:href="#SimHei-72" x="500"/>
      <use xlink:href="#SimHei-2d" x="550"/>
      <use xlink:href="#SimHei-42" x="600"/>
      <use xlink:href="#SimHei-69" x="650"/>
      <use xlink:href="#SimHei-4c" x="700"/>
      <use xlink:href="#SimHei-53" x="750"/>
      <use xlink:href="#SimHei-54" x="800"/>
      <use xlink:href="#SimHei-4d" x="850"/>
     </g>
    </g>
    <g id="line2d_34">
     <path d="M 174.6 419.19 
L 188.6 419.19 
L 202.6 419.19 
" style="fill: none; stroke-dasharray: 6.4,1.6,1,1.6; stroke-dashoffset: 0; stroke: #2ca02c"/>
    </g>
    <g id="text_17">
     <!-- Transformer -->
     <g transform="translate(213.8 424.09) scale(0.14 -0.14)">
      <use xlink:href="#SimHei-54"/>
      <use xlink:href="#SimHei-72" x="50"/>
      <use xlink:href="#SimHei-61" x="100"/>
      <use xlink:href="#SimHei-6e" x="150"/>
      <use xlink:href="#SimHei-73" x="200"/>
      <use xlink:href="#SimHei-66" x="250"/>
      <use xlink:href="#SimHei-6f" x="300"/>
      <use xlink:href="#SimHei-72" x="350"/>
      <use xlink:href="#SimHei-6d" x="400"/>
      <use xlink:href="#SimHei-65" x="450"/>
      <use xlink:href="#SimHei-72" x="500"/>
     </g>
    </g>
    <g id="line2d_35">
     <path d="M 174.6 437.74 
L 188.6 437.74 
L 202.6 437.74 
" style="fill: none; stroke-dasharray: 6.4,1.6,1,1.6; stroke-dashoffset: 0; stroke: #d62728"/>
    </g>
    <g id="text_18">
     <!-- LSTM -->
     <g transform="translate(213.8 442.64) scale(0.14 -0.14)">
      <use xlink:href="#SimHei-4c"/>
      <use xlink:href="#SimHei-53" x="50"/>
      <use xlink:href="#SimHei-54" x="100"/>
      <use xlink:href="#SimHei-4d" x="150"/>
     </g>
    </g>
    <g id="line2d_36">
     <path d="M 174.6 456.29 
L 188.6 456.29 
L 202.6 456.29 
" style="fill: none; stroke-dasharray: 6.4,1.6,1,1.6; stroke-dashoffset: 0; stroke: #9467bd"/>
    </g>
    <g id="text_19">
     <!-- BiLSTM -->
     <g transform="translate(213.8 461.19) scale(0.14 -0.14)">
      <use xlink:href="#SimHei-42"/>
      <use xlink:href="#SimHei-69" x="50"/>
      <use xlink:href="#SimHei-4c" x="100"/>
      <use xlink:href="#SimHei-53" x="150"/>
      <use xlink:href="#SimHei-54" x="200"/>
      <use xlink:href="#SimHei-4d" x="250"/>
     </g>
    </g>
    <g id="line2d_37">
     <path d="M 174.6 474.84 
L 188.6 474.84 
L 202.6 474.84 
" style="fill: none; stroke: #8c564b; stroke-linecap: square"/>
    </g>
    <g id="text_20">
     <!-- GRU -->
     <g transform="translate(213.8 479.74) scale(0.14 -0.14)">
      <defs>
       <path id="SimHei-47" d="M 2850 75 
L 2425 75 
L 2350 425 
Q 2250 275 2037 175 
Q 1825 75 1575 75 
Q 1050 75 637 562 
Q 225 1050 225 2125 
Q 225 3300 600 3875 
Q 975 4450 1625 4450 
Q 2200 4450 2525 4025 
Q 2850 3600 2850 2925 
L 2300 2925 
Q 2300 3450 2125 3712 
Q 1950 3975 1625 3975 
Q 1225 3975 1025 3562 
Q 825 3150 825 2175 
Q 825 1250 1075 900 
Q 1325 550 1650 550 
Q 1975 550 2162 787 
Q 2350 1025 2350 1525 
L 2350 1800 
L 1575 1800 
L 1575 2275 
L 2850 2275 
L 2850 75 
z
" transform="scale(0.015625)"/>
       <path id="SimHei-52" d="M 3000 125 
L 2400 125 
L 1500 1975 
L 850 1975 
L 850 125 
L 275 125 
L 275 4400 
L 1525 4400 
Q 2125 4400 2500 4112 
Q 2875 3825 2875 3175 
Q 2875 2675 2625 2400 
Q 2375 2125 2050 2050 
L 3000 125 
z
M 2300 3175 
Q 2300 3525 2087 3725 
Q 1875 3925 1400 3925 
L 850 3925 
L 850 2450 
L 1550 2450 
Q 1850 2450 2075 2612 
Q 2300 2775 2300 3175 
z
" transform="scale(0.015625)"/>
       <path id="SimHei-55" d="M 2875 1375 
Q 2875 775 2562 425 
Q 2250 75 1575 75 
Q 900 75 587 425 
Q 275 775 275 1375 
L 275 4400 
L 850 4400 
L 850 1375 
Q 850 950 1050 750 
Q 1250 550 1575 550 
Q 1900 550 2100 750 
Q 2300 950 2300 1375 
L 2300 4400 
L 2875 4400 
L 2875 1375 
z
" transform="scale(0.015625)"/>
      </defs>
      <use xlink:href="#SimHei-47"/>
      <use xlink:href="#SimHei-52" x="50"/>
      <use xlink:href="#SimHei-55" x="100"/>
     </g>
    </g>
    <g id="line2d_38">
     <path d="M 174.6 493.39 
L 188.6 493.39 
L 202.6 493.39 
" style="fill: none; stroke: #ff0000; stroke-linecap: square"/>
     <g>
      <use xlink:href="#m158b6c1690" x="188.6" y="493.39" style="fill: #ff0000; stroke: #ff0000"/>
     </g>
    </g>
    <g id="text_21">
     <!-- True Values -->
     <g transform="translate(213.8 498.29) scale(0.14 -0.14)">
      <use xlink:href="#SimHei-54"/>
      <use xlink:href="#SimHei-72" x="50"/>
      <use xlink:href="#SimHei-75" x="100"/>
      <use xlink:href="#SimHei-65" x="150"/>
      <use xlink:href="#SimHei-20" x="200"/>
      <use xlink:href="#SimHei-56" x="250"/>
      <use xlink:href="#SimHei-61" x="300"/>
      <use xlink:href="#SimHei-6c" x="350"/>
      <use xlink:href="#SimHei-75" x="400"/>
      <use xlink:href="#SimHei-65" x="450"/>
      <use xlink:href="#SimHei-73" x="500"/>
     </g>
    </g>
   </g>
  </g>
 </g>
 <defs>
  <clipPath id="pf6d5cd2cae">
   <rect x="162" y="69.12" width="1004.4" height="443.52"/>
  </clipPath>
 </defs>
</svg>
