<?xml version="1.0" encoding="utf-8" standalone="no"?>
<!DOCTYPE svg PUBLIC "-//W3C//DTD SVG 1.1//EN"
  "http://www.w3.org/Graphics/SVG/1.1/DTD/svg11.dtd">
<svg xmlns:xlink="http://www.w3.org/1999/xlink" width="1296pt" height="576pt" viewBox="0 0 1296 576" xmlns="http://www.w3.org/2000/svg" version="1.1">
 <metadata>
  <rdf:RDF xmlns:dc="http://purl.org/dc/elements/1.1/" xmlns:cc="http://creativecommons.org/ns#" xmlns:rdf="http://www.w3.org/1999/02/22-rdf-syntax-ns#">
   <cc:Work>
    <dc:type rdf:resource="http://purl.org/dc/dcmitype/StillImage"/>
    <dc:date>2024-06-22T13:47:13.087629</dc:date>
    <dc:format>image/svg+xml</dc:format>
    <dc:creator>
     <cc:Agent>
      <dc:title>Matplotlib v3.6.2, https://matplotlib.org/</dc:title>
     </cc:Agent>
    </dc:creator>
   </cc:Work>
  </rdf:RDF>
 </metadata>
 <defs>
  <style type="text/css">*{stroke-linejoin: round; stroke-linecap: butt}</style>
 </defs>
 <g id="figure_1">
  <g id="patch_1">
   <path d="M 0 576 
L 1296 576 
L 1296 0 
L 0 0 
z
" style="fill: #ffffff"/>
  </g>
  <g id="axes_1">
   <g id="patch_2">
    <path d="M 162 512.64 
L 1166.4 512.64 
L 1166.4 69.12 
L 162 69.12 
z
" style="fill: #ffffff"/>
   </g>
   <g id="matplotlib.axis_1">
    <g id="xtick_1">
     <g id="line2d_1">
      <path d="M 207.654545 512.64 
L 207.654545 69.12 
" clip-path="url(#p808e4835b3)" style="fill: none; stroke: #b0b0b0; stroke-width: 0.8; stroke-linecap: square"/>
     </g>
     <g id="line2d_2">
      <defs>
       <path id="m5a56e13c62" d="M 0 0 
L 0 3.5 
" style="stroke: #000000; stroke-width: 0.8"/>
      </defs>
      <g>
       <use xlink:href="#m5a56e13c62" x="207.654545" y="512.64" style="stroke: #000000; stroke-width: 0.8"/>
      </g>
     </g>
     <g id="text_1">
      <!-- 0 -->
      <g transform="translate(204.154545 529.265) scale(0.14 -0.14)">
       <defs>
        <path id="SimHei-30" d="M 225 2537 
Q 250 3200 412 3587 
Q 575 3975 875 4225 
Q 1175 4475 1612 4475 
Q 2050 4475 2375 4112 
Q 2700 3750 2800 3200 
Q 2900 2650 2862 1937 
Q 2825 1225 2612 775 
Q 2400 325 1975 150 
Q 1550 -25 1125 187 
Q 700 400 525 750 
Q 350 1100 275 1487 
Q 200 1875 225 2537 
z
M 750 2687 
Q 675 2000 800 1462 
Q 925 925 1212 700 
Q 1500 475 1800 612 
Q 2100 750 2237 1162 
Q 2375 1575 2375 2062 
Q 2375 2550 2337 2950 
Q 2300 3350 2112 3675 
Q 1925 4000 1612 4012 
Q 1300 4025 1062 3700 
Q 825 3375 750 2687 
z
" transform="scale(0.015625)"/>
       </defs>
       <use xlink:href="#SimHei-30"/>
      </g>
     </g>
    </g>
    <g id="xtick_2">
     <g id="line2d_3">
      <path d="M 417.079066 512.64 
L 417.079066 69.12 
" clip-path="url(#p808e4835b3)" style="fill: none; stroke: #b0b0b0; stroke-width: 0.8; stroke-linecap: square"/>
     </g>
     <g id="line2d_4">
      <g>
       <use xlink:href="#m5a56e13c62" x="417.079066" y="512.64" style="stroke: #000000; stroke-width: 0.8"/>
      </g>
     </g>
     <g id="text_2">
      <!-- 50 -->
      <g transform="translate(410.079066 529.265) scale(0.14 -0.14)">
       <defs>
        <path id="SimHei-35" d="M 550 1325 
Q 725 650 1150 575 
Q 1575 500 1837 662 
Q 2100 825 2212 1087 
Q 2325 1350 2312 1675 
Q 2300 2000 2137 2225 
Q 1975 2450 1725 2525 
Q 1475 2600 1162 2525 
Q 850 2450 650 2175 
L 225 2225 
Q 275 2375 700 4375 
L 2675 4375 
L 2675 3925 
L 1075 3925 
Q 950 3250 825 2850 
Q 1200 3025 1525 3012 
Q 1850 3000 2150 2862 
Q 2450 2725 2587 2487 
Q 2725 2250 2787 2012 
Q 2850 1775 2837 1500 
Q 2825 1225 2725 937 
Q 2625 650 2425 462 
Q 2225 275 1937 162 
Q 1650 50 1275 75 
Q 900 100 562 350 
Q 225 600 100 1200 
L 550 1325 
z
" transform="scale(0.015625)"/>
       </defs>
       <use xlink:href="#SimHei-35"/>
       <use xlink:href="#SimHei-30" x="50"/>
      </g>
     </g>
    </g>
    <g id="xtick_3">
     <g id="line2d_5">
      <path d="M 626.503586 512.64 
L 626.503586 69.12 
" clip-path="url(#p808e4835b3)" style="fill: none; stroke: #b0b0b0; stroke-width: 0.8; stroke-linecap: square"/>
     </g>
     <g id="line2d_6">
      <g>
       <use xlink:href="#m5a56e13c62" x="626.503586" y="512.64" style="stroke: #000000; stroke-width: 0.8"/>
      </g>
     </g>
     <g id="text_3">
      <!-- 100 -->
      <g transform="translate(616.003586 529.265) scale(0.14 -0.14)">
       <defs>
        <path id="SimHei-31" d="M 1400 3600 
Q 1075 3275 575 2975 
L 575 3450 
Q 1200 3875 1600 4450 
L 1900 4450 
L 1900 150 
L 1400 150 
L 1400 3600 
z
" transform="scale(0.015625)"/>
       </defs>
       <use xlink:href="#SimHei-31"/>
       <use xlink:href="#SimHei-30" x="50"/>
       <use xlink:href="#SimHei-30" x="100"/>
      </g>
     </g>
    </g>
    <g id="xtick_4">
     <g id="line2d_7">
      <path d="M 835.928107 512.64 
L 835.928107 69.12 
" clip-path="url(#p808e4835b3)" style="fill: none; stroke: #b0b0b0; stroke-width: 0.8; stroke-linecap: square"/>
     </g>
     <g id="line2d_8">
      <g>
       <use xlink:href="#m5a56e13c62" x="835.928107" y="512.64" style="stroke: #000000; stroke-width: 0.8"/>
      </g>
     </g>
     <g id="text_4">
      <!-- 150 -->
      <g transform="translate(825.428107 529.265) scale(0.14 -0.14)">
       <use xlink:href="#SimHei-31"/>
       <use xlink:href="#SimHei-35" x="50"/>
       <use xlink:href="#SimHei-30" x="100"/>
      </g>
     </g>
    </g>
    <g id="xtick_5">
     <g id="line2d_9">
      <path d="M 1045.352627 512.64 
L 1045.352627 69.12 
" clip-path="url(#p808e4835b3)" style="fill: none; stroke: #b0b0b0; stroke-width: 0.8; stroke-linecap: square"/>
     </g>
     <g id="line2d_10">
      <g>
       <use xlink:href="#m5a56e13c62" x="1045.352627" y="512.64" style="stroke: #000000; stroke-width: 0.8"/>
      </g>
     </g>
     <g id="text_5">
      <!-- 200 -->
      <g transform="translate(1034.852627 529.265) scale(0.14 -0.14)">
       <defs>
        <path id="SimHei-32" d="M 300 250 
Q 325 625 650 925 
Q 975 1225 1475 1862 
Q 1975 2500 2125 2850 
Q 2275 3200 2237 3450 
Q 2200 3700 2000 3862 
Q 1800 4025 1537 4000 
Q 1275 3975 1037 3800 
Q 800 3625 675 3275 
L 200 3350 
Q 400 3925 712 4187 
Q 1025 4450 1450 4475 
Q 1700 4500 1900 4462 
Q 2100 4425 2312 4287 
Q 2525 4150 2662 3875 
Q 2800 3600 2762 3212 
Q 2725 2825 2375 2287 
Q 2025 1750 1025 600 
L 2825 600 
L 2825 150 
L 300 150 
L 300 250 
z
" transform="scale(0.015625)"/>
       </defs>
       <use xlink:href="#SimHei-32"/>
       <use xlink:href="#SimHei-30" x="50"/>
       <use xlink:href="#SimHei-30" x="100"/>
      </g>
     </g>
    </g>
   </g>
   <g id="matplotlib.axis_2">
    <g id="ytick_1">
     <g id="line2d_11">
      <path d="M 162 478.931904 
L 1166.4 478.931904 
" clip-path="url(#p808e4835b3)" style="fill: none; stroke: #b0b0b0; stroke-width: 0.8; stroke-linecap: square"/>
     </g>
     <g id="line2d_12">
      <defs>
       <path id="m9d3b2f26ba" d="M 0 0 
L -3.5 0 
" style="stroke: #000000; stroke-width: 0.8"/>
      </defs>
      <g>
       <use xlink:href="#m9d3b2f26ba" x="162" y="478.931904" style="stroke: #000000; stroke-width: 0.8"/>
      </g>
     </g>
     <g id="text_6">
      <!-- 10 -->
      <g transform="translate(141 483.744404) scale(0.14 -0.14)">
       <use xlink:href="#SimHei-31"/>
       <use xlink:href="#SimHei-30" x="50"/>
      </g>
     </g>
    </g>
    <g id="ytick_2">
     <g id="line2d_13">
      <path d="M 162 409.877103 
L 1166.4 409.877103 
" clip-path="url(#p808e4835b3)" style="fill: none; stroke: #b0b0b0; stroke-width: 0.8; stroke-linecap: square"/>
     </g>
     <g id="line2d_14">
      <g>
       <use xlink:href="#m9d3b2f26ba" x="162" y="409.877103" style="stroke: #000000; stroke-width: 0.8"/>
      </g>
     </g>
     <g id="text_7">
      <!-- 20 -->
      <g transform="translate(141 414.689603) scale(0.14 -0.14)">
       <use xlink:href="#SimHei-32"/>
       <use xlink:href="#SimHei-30" x="50"/>
      </g>
     </g>
    </g>
    <g id="ytick_3">
     <g id="line2d_15">
      <path d="M 162 340.822303 
L 1166.4 340.822303 
" clip-path="url(#p808e4835b3)" style="fill: none; stroke: #b0b0b0; stroke-width: 0.8; stroke-linecap: square"/>
     </g>
     <g id="line2d_16">
      <g>
       <use xlink:href="#m9d3b2f26ba" x="162" y="340.822303" style="stroke: #000000; stroke-width: 0.8"/>
      </g>
     </g>
     <g id="text_8">
      <!-- 30 -->
      <g transform="translate(141 345.634803) scale(0.14 -0.14)">
       <defs>
        <path id="SimHei-33" d="M 250 1225 
L 700 1300 
Q 800 975 1025 762 
Q 1250 550 1587 562 
Q 1925 575 2125 837 
Q 2325 1100 2300 1437 
Q 2275 1775 2037 1962 
Q 1800 2150 1275 2225 
L 1275 2550 
Q 1800 2600 2037 2825 
Q 2275 3050 2250 3412 
Q 2225 3775 1925 3937 
Q 1625 4100 1287 3975 
Q 950 3850 750 3275 
L 300 3350 
Q 450 3800 712 4100 
Q 975 4400 1425 4450 
Q 1875 4500 2212 4337 
Q 2550 4175 2687 3837 
Q 2825 3500 2725 3100 
Q 2625 2700 2150 2400 
Q 2500 2250 2687 1950 
Q 2875 1650 2812 1162 
Q 2750 675 2375 375 
Q 2000 75 1525 87 
Q 1050 100 700 387 
Q 350 675 250 1225 
z
" transform="scale(0.015625)"/>
       </defs>
       <use xlink:href="#SimHei-33"/>
       <use xlink:href="#SimHei-30" x="50"/>
      </g>
     </g>
    </g>
    <g id="ytick_4">
     <g id="line2d_17">
      <path d="M 162 271.767503 
L 1166.4 271.767503 
" clip-path="url(#p808e4835b3)" style="fill: none; stroke: #b0b0b0; stroke-width: 0.8; stroke-linecap: square"/>
     </g>
     <g id="line2d_18">
      <g>
       <use xlink:href="#m9d3b2f26ba" x="162" y="271.767503" style="stroke: #000000; stroke-width: 0.8"/>
      </g>
     </g>
     <g id="text_9">
      <!-- 40 -->
      <g transform="translate(141 276.580003) scale(0.14 -0.14)">
       <defs>
        <path id="SimHei-34" d="M 2000 1100 
L 75 1100 
L 75 1525 
L 2100 4450 
L 2475 4450 
L 2475 1525 
L 3075 1525 
L 3075 1100 
L 2475 1100 
L 2475 150 
L 2000 150 
L 2000 1100 
z
M 2000 1525 
L 2000 3500 
L 600 1525 
L 2000 1525 
z
" transform="scale(0.015625)"/>
       </defs>
       <use xlink:href="#SimHei-34"/>
       <use xlink:href="#SimHei-30" x="50"/>
      </g>
     </g>
    </g>
    <g id="ytick_5">
     <g id="line2d_19">
      <path d="M 162 202.712702 
L 1166.4 202.712702 
" clip-path="url(#p808e4835b3)" style="fill: none; stroke: #b0b0b0; stroke-width: 0.8; stroke-linecap: square"/>
     </g>
     <g id="line2d_20">
      <g>
       <use xlink:href="#m9d3b2f26ba" x="162" y="202.712702" style="stroke: #000000; stroke-width: 0.8"/>
      </g>
     </g>
     <g id="text_10">
      <!-- 50 -->
      <g transform="translate(141 207.525202) scale(0.14 -0.14)">
       <use xlink:href="#SimHei-35"/>
       <use xlink:href="#SimHei-30" x="50"/>
      </g>
     </g>
    </g>
    <g id="ytick_6">
     <g id="line2d_21">
      <path d="M 162 133.657902 
L 1166.4 133.657902 
" clip-path="url(#p808e4835b3)" style="fill: none; stroke: #b0b0b0; stroke-width: 0.8; stroke-linecap: square"/>
     </g>
     <g id="line2d_22">
      <g>
       <use xlink:href="#m9d3b2f26ba" x="162" y="133.657902" style="stroke: #000000; stroke-width: 0.8"/>
      </g>
     </g>
     <g id="text_11">
      <!-- 60 -->
      <g transform="translate(141 138.470402) scale(0.14 -0.14)">
       <defs>
        <path id="SimHei-36" d="M 250 1612 
Q 275 1975 387 2225 
Q 500 2475 725 2850 
L 1750 4450 
L 2325 4450 
L 1275 2800 
Q 1950 2975 2350 2750 
Q 2750 2525 2887 2237 
Q 3025 1950 3037 1612 
Q 3050 1275 2937 950 
Q 2825 625 2537 362 
Q 2250 100 1737 75 
Q 1225 50 862 262 
Q 500 475 362 862 
Q 225 1250 250 1612 
z
M 1025 787 
Q 1250 550 1625 525 
Q 2000 500 2250 775 
Q 2500 1050 2500 1575 
Q 2500 2100 2187 2300 
Q 1875 2500 1487 2450 
Q 1100 2400 925 2075 
Q 750 1750 775 1387 
Q 800 1025 1025 787 
z
" transform="scale(0.015625)"/>
       </defs>
       <use xlink:href="#SimHei-36"/>
       <use xlink:href="#SimHei-30" x="50"/>
      </g>
     </g>
    </g>
    <g id="text_12">
     <!-- 充电量(Ah) -->
     <g transform="translate(135 330.88) rotate(-90) scale(0.16 -0.16)">
      <defs>
       <path id="SimHei-5145" d="M 3325 5175 
Q 3425 4825 3600 4300 
L 4900 4300 
Q 5425 4300 5775 4325 
L 5775 3825 
Q 5525 3850 4925 3850 
L 2675 3850 
Q 2850 3700 3100 3550 
Q 2775 3400 1875 2675 
L 4475 2750 
Q 4275 2975 3900 3275 
Q 4150 3450 4275 3600 
Q 5250 2775 5625 2350 
Q 5400 2200 5200 1975 
Q 5000 2225 4800 2425 
Q 4475 2400 4100 2375 
L 4100 325 
Q 4100 0 4425 0 
L 5125 0 
Q 5325 0 5375 175 
Q 5425 350 5475 800 
Q 5850 625 6075 600 
Q 5875 -250 5700 -350 
Q 5525 -450 5275 -450 
L 4225 -450 
Q 3650 -450 3650 75 
L 3650 2325 
L 2650 2250 
Q 2675 -75 800 -650 
Q 650 -375 400 -225 
Q 2225 275 2175 2200 
Q 1550 2150 1175 2050 
Q 1100 2450 1025 2725 
Q 1575 2875 1900 3200 
Q 2225 3525 2475 3850 
L 1450 3850 
Q 1025 3850 575 3825 
L 575 4325 
Q 1025 4300 1450 4300 
L 3000 4300 
Q 2875 4725 2750 5025 
Q 3075 5100 3325 5175 
z
" transform="scale(0.015625)"/>
       <path id="SimHei-7535" d="M 6150 325 
Q 5975 -250 5825 -412 
Q 5675 -575 5325 -575 
L 3375 -575 
Q 2700 -600 2675 100 
L 2675 975 
L 1225 975 
L 1225 500 
L 650 500 
Q 675 750 675 2225 
Q 675 3700 650 4150 
L 2675 4150 
Q 2675 4825 2650 5200 
L 3200 5200 
Q 3175 4875 3175 4150 
L 5200 4150 
Q 5175 3775 5175 2600 
Q 5175 1450 5200 975 
L 3175 975 
L 3175 300 
Q 3175 -150 3650 -150 
L 4975 -150 
Q 5375 -150 5450 25 
Q 5525 200 5575 575 
Q 5825 400 6150 325 
z
M 4675 1400 
L 4675 2400 
L 3175 2400 
L 3175 1400 
L 4675 1400 
z
M 2675 1400 
L 2675 2400 
L 1225 2400 
L 1225 1400 
L 2675 1400 
z
M 4675 2800 
L 4675 3725 
L 3175 3725 
L 3175 2800 
L 4675 2800 
z
M 2675 2800 
L 2675 3725 
L 1225 3725 
L 1225 2800 
L 2675 2800 
z
" transform="scale(0.015625)"/>
       <path id="SimHei-91cf" d="M 5250 2500 
Q 5225 2200 5225 1700 
Q 5225 1225 5250 950 
L 3425 950 
L 3425 625 
L 4575 625 
Q 5000 625 5375 650 
L 5375 275 
Q 5025 300 4575 300 
L 3425 300 
L 3425 -75 
L 5125 -75 
Q 5525 -75 5925 -50 
L 5925 -425 
Q 5525 -400 5125 -400 
L 1275 -400 
Q 900 -400 475 -425 
L 475 -50 
Q 925 -50 1275 -75 
L 2975 -75 
L 2975 300 
L 1725 300 
Q 1350 300 975 250 
L 975 650 
Q 1375 625 1725 625 
L 2975 625 
L 2975 950 
L 1150 950 
Q 1175 1375 1175 1775 
Q 1175 2175 1150 2500 
L 5250 2500 
z
M 5200 4950 
Q 5175 4575 5175 4250 
Q 5175 3925 5200 3400 
L 1200 3400 
Q 1225 3925 1225 4250 
Q 1225 4575 1200 4950 
L 5200 4950 
z
M 4900 3100 
Q 5500 3125 6000 3150 
L 6000 2750 
Q 5500 2775 4925 2775 
L 1650 2775 
Q 975 2775 325 2750 
L 325 3150 
Q 975 3125 1650 3100 
L 4900 3100 
z
M 4725 3700 
L 4725 4025 
L 1675 4025 
L 1675 3700 
L 4725 3700 
z
M 4725 4350 
L 4725 4650 
L 1675 4650 
L 1675 4350 
L 4725 4350 
z
M 4750 1875 
L 4750 2175 
L 3425 2175 
L 3425 1875 
L 4750 1875 
z
M 2975 1875 
L 2975 2175 
L 1650 2175 
L 1650 1875 
L 2975 1875 
z
M 2975 1275 
L 2975 1550 
L 1650 1550 
L 1650 1275 
L 2975 1275 
z
M 4750 1275 
L 4750 1550 
L 3425 1550 
L 3425 1275 
L 4750 1275 
z
" transform="scale(0.015625)"/>
       <path id="SimHei-28" d="M 2975 -200 
L 2700 -475 
Q 2075 125 1762 775 
Q 1450 1425 1450 2250 
Q 1450 3075 1762 3725 
Q 2075 4375 2700 5000 
L 2975 4725 
Q 2400 4175 2112 3587 
Q 1825 3000 1825 2250 
Q 1825 1500 2112 912 
Q 2400 325 2975 -200 
z
" transform="scale(0.015625)"/>
       <path id="SimHei-41" d="M 3075 125 
L 2475 125 
L 2125 1450 
L 1025 1450 
L 675 125 
L 75 125 
L 1325 4450 
L 1825 4450 
L 3075 125 
z
M 2000 1925 
L 1600 3450 
L 1550 3450 
L 1150 1925 
L 2000 1925 
z
" transform="scale(0.015625)"/>
       <path id="SimHei-68" d="M 2800 125 
L 2300 125 
L 2300 1925 
Q 2300 2225 2150 2400 
Q 2000 2575 1750 2575 
Q 1425 2575 1137 2237 
Q 850 1900 850 1400 
L 850 125 
L 350 125 
L 350 4400 
L 850 4400 
L 850 2400 
Q 1050 2675 1287 2825 
Q 1525 2975 1900 2975 
Q 2350 2975 2575 2725 
Q 2800 2475 2800 2100 
L 2800 125 
z
" transform="scale(0.015625)"/>
       <path id="SimHei-29" d="M 1675 2250 
Q 1675 1425 1362 775 
Q 1050 125 425 -475 
L 150 -200 
Q 725 325 1012 912 
Q 1300 1500 1300 2250 
Q 1300 3000 1012 3587 
Q 725 4175 150 4725 
L 425 5000 
Q 1050 4375 1362 3725 
Q 1675 3075 1675 2250 
z
" transform="scale(0.015625)"/>
      </defs>
      <use xlink:href="#SimHei-5145"/>
      <use xlink:href="#SimHei-7535" x="100"/>
      <use xlink:href="#SimHei-91cf" x="200"/>
      <use xlink:href="#SimHei-28" x="300"/>
      <use xlink:href="#SimHei-41" x="350"/>
      <use xlink:href="#SimHei-68" x="400"/>
      <use xlink:href="#SimHei-29" x="450"/>
     </g>
    </g>
   </g>
   <g id="line2d_23">
    <path d="M 207.654545 133.525386 
L 211.843036 164.692282 
L 216.031526 184.835105 
L 220.220017 119.550931 
L 224.408507 167.305281 
L 228.596997 147.197981 
L 232.785488 97.896285 
L 236.973978 110.813635 
L 241.162469 132.561484 
L 245.350959 136.374559 
L 249.53945 137.135294 
L 253.72794 161.414686 
L 257.91643 162.047939 
L 262.104921 123.792181 
L 266.293411 126.558357 
L 270.481902 154.230363 
L 274.670392 150.240238 
L 278.858882 157.376651 
L 283.047373 126.978162 
L 287.235863 151.98459 
L 291.424354 108.633706 
L 295.612844 102.686686 
L 299.801334 149.530203 
L 303.989825 119.512896 
L 308.178315 148.308154 
L 312.366806 168.929554 
L 316.555296 163.954328 
L 320.743786 155.193511 
L 324.932277 126.304629 
L 329.120767 125.13366 
L 333.309258 149.373994 
L 337.497748 156.482122 
L 341.686239 143.055604 
L 345.874729 122.576167 
L 350.063219 137.059355 
L 354.25171 117.523365 
L 358.4402 130.573431 
L 362.628691 165.141739 
L 366.817181 104.158796 
L 371.005671 151.049629 
L 375.194162 148.913764 
L 379.382652 140.211499 
L 383.571143 134.346723 
L 387.759633 100.682715 
L 391.948123 159.053999 
L 396.136614 162.459623 
L 400.325104 148.111879 
L 404.513595 144.530373 
L 408.702085 164.565518 
L 412.890575 115.298965 
L 417.079066 107.01868 
L 421.267556 223.461778 
L 425.456047 168.432946 
L 429.644537 215.36071 
L 433.833028 255.453154 
L 438.021518 186.93426 
L 442.210008 126.550436 
L 446.398499 154.649753 
L 450.586989 152.19375 
L 454.77548 217.649256 
L 458.96397 352.560901 
L 463.15246 445.862409 
L 467.340951 442.81625 
L 471.529441 432.395667 
L 475.717932 429.286792 
L 479.906422 450.06313 
L 484.094912 93.915069 
L 488.283403 157.510997 
L 492.471893 109.678015 
L 496.660384 114.792545 
L 500.848874 310.019788 
L 505.037364 107.201523 
L 509.225855 158.347734 
L 513.414345 107.796465 
L 517.602836 122.61702 
L 521.791326 124.750219 
L 525.979817 180.09798 
L 530.168307 137.268246 
L 534.356797 104.994083 
L 538.545288 127.210807 
L 542.733778 167.963892 
L 546.922269 143.448353 
L 551.110759 134.386844 
L 555.299249 169.13339 
L 559.48774 104.836638 
L 563.67623 157.635703 
L 567.864721 103.524182 
L 572.053211 130.530044 
L 576.241701 109.2666 
L 580.430192 141.543822 
L 584.618682 122.552785 
L 588.807173 168.000353 
L 592.995663 96.306229 
L 597.184153 111.875069 
L 601.372644 274.276554 
L 605.561134 273.480041 
L 609.749625 440.51118 
L 613.938115 430.803746 
L 618.126606 439.161553 
L 622.315096 442.742728 
L 626.503586 442.65451 
L 630.692077 422.736406 
L 634.880567 418.083355 
L 639.069058 433.771756 
L 643.257548 421.37517 
L 647.446038 419.065038 
L 651.634529 119.981253 
L 655.823019 134.435134 
L 660.01151 125.590803 
L 664.2 113.261627 
L 668.38849 141.306943 
L 672.576981 106.042197 
L 676.765471 163.235923 
L 680.953962 135.5345 
L 685.142452 160.544216 
L 689.330942 106.890445 
L 693.519433 125.587509 
L 697.707923 153.354078 
L 701.896414 164.55728 
L 706.084904 122.734454 
L 710.273394 97.071115 
L 714.461885 142.862078 
L 718.650375 150.693721 
L 722.838866 142.448094 
L 727.027356 140.20621 
L 731.215847 118.398773 
L 735.404337 146.413705 
L 739.592827 112.288341 
L 743.781318 119.838883 
L 747.969808 146.409824 
L 752.158299 166.504301 
L 756.346789 168.464532 
L 760.535279 153.784434 
L 764.72377 110.370165 
L 768.91226 111.761301 
L 773.100751 247.025927 
L 777.289241 244.8981 
L 781.477731 259.081673 
L 785.666222 188.367016 
L 789.854712 331.150419 
L 794.043203 442.658308 
L 798.231693 172.515687 
L 802.420183 451.649961 
L 806.608674 442.85914 
L 810.797164 432.159499 
L 814.985655 427.860803 
L 819.174145 440.902776 
L 823.362636 224.13509 
L 827.551126 224.141788 
L 831.739616 188.555315 
L 835.928107 115.766563 
L 840.116597 168.962168 
L 844.305088 158.244214 
L 848.493578 151.12802 
L 852.682068 159.037012 
L 856.870559 159.780297 
L 861.059049 174.972629 
L 865.24754 250.439845 
L 869.43603 237.954681 
L 873.62452 139.860404 
L 877.813011 147.401216 
L 882.001501 133.114461 
L 886.189992 138.367674 
L 890.378482 169.381538 
L 894.566972 300.073549 
L 898.755463 276.894663 
L 902.943953 159.237291 
L 907.132444 135.587638 
L 911.320934 123.415245 
L 915.509425 109.825191 
L 919.697915 136.777066 
L 923.886405 165.636448 
L 928.074896 159.116169 
L 932.263386 197.230683 
L 936.451877 195.344003 
L 940.640367 191.186765 
L 944.828857 130.830135 
L 949.017348 109.435273 
L 953.205838 149.957873 
L 957.394329 155.811075 
L 961.582819 151.536742 
L 965.771309 148.218963 
L 969.9598 158.81605 
L 974.14829 115.294117 
L 978.336781 114.875479 
L 982.525271 129.360863 
L 986.713761 193.982566 
L 990.902252 142.003492 
L 995.090742 264.118233 
L 999.279233 174.545732 
L 1003.467723 147.700651 
L 1007.656214 115.945774 
L 1011.844704 147.184494 
L 1016.033194 170.573355 
L 1020.221685 161.30714 
L 1024.410175 154.184165 
L 1028.598666 163.008353 
L 1032.787156 144.415549 
L 1036.975646 116.557758 
L 1041.164137 157.246366 
L 1045.352627 429.465105 
L 1049.541118 437.69862 
L 1053.729608 304.140669 
L 1057.918098 160.654006 
L 1062.106589 220.20632 
L 1066.295079 411.085804 
L 1070.48357 341.690267 
L 1074.67206 384.106018 
L 1078.86055 196.068249 
L 1083.049041 198.380943 
L 1087.237531 134.481836 
L 1091.426022 127.318492 
L 1095.614512 109.916281 
L 1103.991493 140.857486 
L 1108.179983 139.300715 
L 1112.368474 130.76271 
L 1116.556964 155.433919 
L 1120.745455 156.712745 
L 1120.745455 156.712745 
" clip-path="url(#p808e4835b3)" style="fill: none; stroke: #1f77b4; stroke-linecap: square"/>
   </g>
   <g id="line2d_24">
    <path d="M 207.654545 156.071212 
L 211.843036 107.646844 
L 216.031526 93.315673 
L 220.220017 151.962189 
L 224.408507 126.0125 
L 228.596997 145.89578 
L 232.785488 172.131252 
L 236.973978 178.642098 
L 241.162469 164.512602 
L 245.350959 133.615986 
L 249.53945 130.976518 
L 253.72794 148.050131 
L 257.91643 125.568173 
L 262.104921 139.425048 
L 266.293411 119.135746 
L 270.481902 151.275784 
L 274.670392 114.549499 
L 278.858882 110.569084 
L 283.047373 161.266101 
L 287.235863 108.539052 
L 291.424354 148.234528 
L 295.612844 159.867637 
L 299.801334 146.39573 
L 303.989825 137.341285 
L 308.178315 103.412244 
L 312.366806 164.026753 
L 316.555296 185.882666 
L 320.743786 150.13272 
L 324.932277 150.402814 
L 329.120767 149.344874 
L 333.309258 127.257323 
L 337.497748 89.28 
L 341.686239 243.318327 
L 345.874729 193.175516 
L 354.25171 272.347245 
L 358.4402 189.862681 
L 362.628691 125.743352 
L 366.817181 164.694444 
L 371.005671 155.323638 
L 375.194162 233.224531 
L 379.382652 355.860892 
L 383.571143 450.107104 
L 387.759633 455.451338 
L 391.948123 437.599657 
L 396.136614 427.693428 
L 400.325104 465.235471 
L 404.513595 105.598699 
L 408.702085 160.701923 
L 412.890575 102.401766 
L 417.079066 141.028694 
L 421.267556 326.548248 
L 425.456047 111.834168 
L 429.644537 160.195593 
L 433.833028 123.820562 
L 438.021518 116.057767 
L 442.210008 123.831086 
L 446.398499 193.41776 
L 450.586989 144.848066 
L 454.77548 110.801799 
L 458.96397 116.486528 
L 463.15246 188.957815 
L 467.340951 143.825137 
L 471.529441 144.969189 
L 475.717932 187.306659 
L 479.906422 109.053442 
L 484.094912 176.035258 
L 492.471893 137.11812 
L 496.660384 123.164887 
L 500.848874 153.991916 
L 505.037364 128.121592 
L 509.225855 190.461711 
L 513.414345 111.461023 
L 517.602836 113.914837 
L 521.791326 275.257601 
L 525.979817 280.897928 
L 530.168307 435.633715 
L 534.356797 417.335485 
L 538.545288 441.686783 
L 542.733778 436.556771 
L 546.922269 452.97493 
L 551.110759 428.196313 
L 555.299249 424.962705 
L 559.48774 450.664846 
L 563.67623 436.241059 
L 567.864721 435.441018 
L 572.053211 141.404649 
L 576.241701 144.863424 
L 580.430192 128.393164 
L 584.618682 117.075565 
L 588.807173 153.848469 
L 592.995663 107.923539 
L 597.184153 183.227557 
L 601.372644 147.901034 
L 605.561134 163.786822 
L 609.749625 102.635723 
L 613.938115 119.338111 
L 618.126606 163.129317 
L 622.315096 190.201077 
L 626.503586 117.395869 
L 630.692077 174.799882 
L 634.880567 157.041528 
L 639.069058 167.707533 
L 643.257548 134.509023 
L 647.446038 159.596059 
L 651.634529 128.952901 
L 655.823019 157.569784 
L 660.01151 122.165774 
L 664.2 119.968009 
L 668.38849 146.114601 
L 672.576981 185.744764 
L 676.765471 175.885327 
L 680.953962 168.470326 
L 685.142452 135.798324 
L 689.330942 125.559113 
L 693.519433 255.600275 
L 697.707923 252.008162 
L 701.896414 375.52821 
L 706.084904 209.526892 
L 710.273394 318.600261 
L 714.461885 453.218382 
L 718.650375 177.365675 
L 722.838866 457.967999 
L 727.027356 450.272601 
L 731.215847 438.958442 
L 735.404337 434.663116 
L 739.592827 450.512781 
L 743.781318 201.851575 
L 747.969808 134.94895 
L 752.158299 225.699692 
L 756.346789 190.774046 
L 760.535279 142.675009 
L 764.72377 90.141086 
L 768.91226 171.13408 
L 773.100751 140.862576 
L 777.289241 116.494828 
L 781.477731 293.335354 
L 785.666222 387.944532 
L 789.854712 257.789361 
L 794.043203 122.524984 
L 798.231693 132.481968 
L 802.420183 131.781593 
L 806.608674 206.538476 
L 810.797164 349.237873 
L 814.985655 356.742701 
L 819.174145 404.578508 
L 823.362636 246.440709 
L 827.551126 139.639608 
L 831.739616 159.697293 
L 835.928107 122.971879 
L 840.116597 126.213794 
L 844.305088 272.492178 
L 848.493578 172.880766 
L 852.682068 251.176135 
L 856.870559 169.654284 
L 861.059049 195.783357 
L 865.24754 148.567966 
L 869.43603 97.749371 
L 873.62452 137.675213 
L 877.813011 136.769097 
L 882.001501 343.292407 
L 886.189992 159.840029 
L 890.378482 170.508996 
L 894.566972 122.322805 
L 898.755463 167.615945 
L 902.943953 364.02754 
L 907.132444 492.48 
L 911.320934 358.802737 
L 915.509425 143.674328 
L 919.697915 148.005072 
L 928.074896 108.409347 
L 932.263386 120.708124 
L 936.451877 142.958085 
L 940.640367 276.920531 
L 944.828857 252.959433 
L 949.017348 247.687362 
L 953.205838 260.811019 
L 957.394329 251.183302 
L 961.582819 451.308257 
L 965.771309 411.705827 
L 969.9598 432.418987 
L 974.14829 435.589472 
L 978.336781 450.531467 
L 982.525271 448.86746 
L 986.713761 457.118335 
L 990.902252 448.872916 
L 995.090742 441.316325 
L 999.279233 145.984287 
L 1003.467723 153.206798 
L 1007.656214 125.854599 
L 1011.844704 168.911068 
L 1016.033194 145.628116 
L 1020.221685 180.272682 
L 1024.410175 173.490782 
L 1028.598666 165.924172 
L 1032.787156 154.802689 
L 1036.975646 118.871985 
L 1041.164137 379.69325 
L 1045.352627 343.467102 
L 1049.541118 364.418328 
L 1053.729608 399.049311 
L 1057.918098 310.251743 
L 1062.106589 376.675555 
L 1066.295079 387.593119 
L 1070.48357 439.432558 
L 1074.67206 440.17835 
L 1078.86055 260.454559 
L 1083.049041 167.718837 
L 1087.237531 95.377615 
L 1091.426022 152.985677 
L 1095.614512 142.814568 
L 1099.803003 181.126172 
L 1103.991493 118.877177 
L 1108.179983 152.799892 
L 1112.368474 147.649965 
L 1116.556964 135.191402 
L 1120.745455 117.436929 
L 1120.745455 117.436929 
" clip-path="url(#p808e4835b3)" style="fill: none; stroke-dasharray: 6.4,1.6,1,1.6; stroke-dashoffset: 0; stroke: #ff7f0e"/>
   </g>
   <g id="line2d_25">
    <path d="M 207.654545 169.016059 
L 211.843036 171.772547 
L 216.031526 173.732308 
L 220.220017 133.501168 
L 224.408507 135.560106 
L 228.596997 132.975226 
L 232.785488 152.699943 
L 236.973978 130.300941 
L 241.162469 154.483635 
L 245.350959 132.841999 
L 249.53945 153.419107 
L 253.72794 244.711652 
L 257.91643 179.622213 
L 262.104921 145.233627 
L 266.293411 176.351474 
L 270.481902 154.808172 
L 274.670392 145.710775 
L 278.858882 167.398671 
L 283.047373 194.162958 
L 287.235863 193.727913 
L 291.424354 152.572951 
L 295.612844 136.849456 
L 299.801334 232.674924 
L 303.989825 220.859848 
L 308.178315 205.474639 
L 312.366806 265.814799 
L 316.555296 241.379192 
L 320.743786 140.269851 
L 324.932277 157.903816 
L 329.120767 120.261146 
L 333.309258 138.763648 
L 337.497748 145.486989 
L 341.686239 150.922866 
L 345.874729 155.713977 
L 350.063219 249.630343 
L 354.25171 205.501377 
L 358.4402 247.541608 
L 362.628691 252.31067 
L 366.817181 235.687378 
L 371.005671 147.046039 
L 375.194162 197.834077 
L 379.382652 195.937301 
L 383.571143 159.513331 
L 387.759633 165.774509 
L 391.948123 150.417592 
L 396.136614 187.733853 
L 400.325104 250.272649 
L 404.513595 200.213057 
L 408.702085 209.769916 
L 412.890575 155.27936 
L 417.079066 154.394969 
L 421.267556 279.526845 
L 425.456047 316.532829 
L 429.644537 279.817476 
L 433.833028 339.96275 
L 438.021518 298.118331 
L 442.210008 269.241513 
L 446.398499 199.841127 
L 450.586989 246.378469 
L 454.77548 188.149646 
L 458.96397 141.839929 
L 463.15246 288.88587 
L 467.340951 314.854936 
L 471.529441 413.400666 
L 475.717932 363.368309 
L 479.906422 465.71574 
L 484.094912 388.916037 
L 488.283403 185.733259 
L 492.471893 142.982648 
L 496.660384 139.28033 
L 500.848874 178.044442 
L 505.037364 259.723427 
L 509.225855 214.632997 
L 513.414345 213.684543 
L 517.602836 239.940214 
L 521.791326 158.707531 
L 525.979817 290.897374 
L 530.168307 177.8036 
L 534.356797 131.674924 
L 538.545288 151.674644 
L 542.733778 168.83787 
L 546.922269 172.17071 
L 551.110759 143.450473 
L 555.299249 149.312763 
L 559.48774 225.455445 
L 563.67623 146.235039 
L 567.864721 154.680199 
L 572.053211 176.516743 
L 576.241701 182.039421 
L 580.430192 260.294027 
L 584.618682 175.738537 
L 588.807173 166.431241 
L 592.995663 138.341647 
L 597.184153 230.107018 
L 601.372644 147.384042 
L 605.561134 275.043304 
L 609.749625 179.243531 
L 613.938115 273.452039 
L 618.126606 444.126986 
L 622.315096 412.937122 
L 626.503586 308.393824 
L 630.692077 323.139509 
L 634.880567 222.515547 
L 639.069058 384.706062 
L 643.257548 371.66197 
L 647.446038 337.075542 
L 651.634529 402.049355 
L 655.823019 326.646844 
L 660.01151 204.351442 
L 664.2 133.790376 
L 668.38849 131.086922 
L 672.576981 175.704976 
L 676.765471 189.425164 
L 680.953962 168.411249 
L 685.142452 189.284444 
L 689.330942 164.322376 
L 693.519433 152.528231 
L 697.707923 153.904631 
L 701.896414 212.019259 
L 706.084904 153.801187 
L 710.273394 150.419491 
L 714.461885 149.087624 
L 718.650375 166.373235 
L 722.838866 180.347717 
L 727.027356 135.085575 
L 731.215847 153.469482 
L 735.404337 124.222641 
L 743.781318 192.317469 
L 747.969808 154.737018 
L 752.158299 132.288441 
L 756.346789 205.567635 
L 764.72377 132.558321 
L 768.91226 143.556528 
L 773.100751 159.289317 
L 777.289241 136.705912 
L 781.477731 181.841869 
L 785.666222 178.731027 
L 789.854712 152.431968 
L 794.043203 173.567295 
L 798.231693 388.650335 
L 802.420183 300.731192 
L 806.608674 271.541348 
L 810.797164 222.599932 
L 814.985655 260.334928 
L 819.174145 470.262495 
L 823.362636 427.062979 
L 827.551126 325.112985 
L 831.739616 160.685143 
L 835.928107 131.174636 
L 840.116597 124.378041 
L 844.305088 134.471505 
L 848.493578 157.19097 
L 852.682068 137.951798 
L 856.870559 122.865168 
L 861.059049 136.633791 
L 865.24754 157.085544 
L 869.43603 274.31133 
L 873.62452 264.756576 
L 877.813011 146.129799 
L 882.001501 157.194706 
L 886.189992 124.677532 
L 890.378482 147.605383 
L 894.566972 326.674659 
L 898.755463 433.136576 
L 902.943953 407.484182 
L 907.132444 307.917539 
L 911.320934 281.61895 
L 915.509425 174.54913 
L 919.697915 120.215867 
L 923.886405 123.455815 
L 928.074896 207.11893 
L 932.263386 230.479016 
L 936.451877 282.591484 
L 940.640367 209.013884 
L 944.828857 309.442676 
L 949.017348 207.475363 
L 953.205838 146.346652 
L 957.394329 126.893956 
L 961.582819 160.478275 
L 965.771309 197.352834 
L 969.9598 217.877392 
L 974.14829 141.512098 
L 978.336781 139.712392 
L 982.525271 132.510694 
L 986.713761 294.745557 
L 990.902252 411.274082 
L 995.090742 259.148532 
L 999.279233 312.835042 
L 1003.467723 223.719145 
L 1007.656214 171.333441 
L 1011.844704 143.35582 
L 1016.033194 127.058473 
L 1020.221685 181.048305 
L 1024.410175 148.642462 
L 1028.598666 179.933367 
L 1032.787156 280.073815 
L 1036.975646 187.260655 
L 1041.164137 150.091701 
L 1045.352627 171.425933 
L 1049.541118 321.775491 
L 1053.729608 325.655687 
L 1057.918098 416.82008 
L 1062.106589 245.920636 
L 1066.295079 204.997822 
L 1070.48357 240.402495 
L 1074.67206 415.111029 
L 1078.86055 406.231355 
L 1083.049041 267.680978 
L 1087.237531 182.711221 
L 1091.426022 152.985677 
L 1095.614512 156.591346 
L 1099.803003 141.39967 
L 1103.991493 118.877177 
L 1108.179983 168.513844 
L 1112.368474 166.610114 
L 1116.556964 140.55033 
L 1120.745455 294.275197 
L 1120.745455 294.275197 
" clip-path="url(#p808e4835b3)" style="fill: none; stroke-dasharray: 6.4,1.6,1,1.6; stroke-dashoffset: 0; stroke: #2ca02c"/>
   </g>
   <g id="line2d_26">
    <path d="M 207.654545 133.409304 
L 211.843036 163.227167 
L 216.031526 188.066179 
L 220.220017 121.656177 
L 224.408507 168.551292 
L 228.596997 161.783922 
L 232.785488 105.849534 
L 236.973978 108.52886 
L 241.162469 131.814139 
L 245.350959 122.560795 
L 249.53945 132.477065 
L 253.72794 155.93498 
L 257.91643 165.236662 
L 262.104921 118.783498 
L 266.293411 119.978146 
L 270.481902 153.580212 
L 274.670392 142.089493 
L 278.858882 166.603947 
L 283.047373 119.418802 
L 287.235863 161.404121 
L 291.424354 106.415783 
L 295.612844 96.250916 
L 299.801334 165.630274 
L 303.989825 128.078274 
L 308.178315 147.455051 
L 312.366806 175.373907 
L 316.555296 174.013527 
L 320.743786 162.039425 
L 324.932277 128.430453 
L 329.120767 127.677756 
L 333.309258 146.191348 
L 337.497748 157.447281 
L 341.686239 139.803779 
L 345.874729 120.019579 
L 350.063219 144.934551 
L 354.25171 107.941894 
L 358.4402 116.815436 
L 362.628691 158.987203 
L 366.817181 107.147764 
L 371.005671 151.53619 
L 375.194162 156.604812 
L 379.382652 140.984616 
L 383.571143 131.040725 
L 387.759633 105.283284 
L 391.948123 157.923759 
L 396.136614 164.283706 
L 400.325104 147.890096 
L 404.513595 135.529287 
L 408.702085 163.765795 
L 412.890575 116.214659 
L 417.079066 92.680783 
L 421.267556 229.416194 
L 425.456047 176.975978 
L 433.833028 264.779157 
L 438.021518 192.886204 
L 442.210008 122.988935 
L 446.398499 161.203862 
L 450.586989 153.345425 
L 454.77548 233.656158 
L 458.96397 352.126574 
L 463.15246 454.451977 
L 467.340951 456.599581 
L 471.529441 436.967302 
L 475.717932 422.735107 
L 479.906422 463.857241 
L 484.094912 103.529292 
L 488.283403 158.724794 
L 492.471893 106.926789 
L 496.660384 113.259114 
L 500.848874 323.848633 
L 505.037364 110.600504 
L 509.225855 160.257811 
L 513.414345 115.890102 
L 517.602836 116.44254 
L 521.791326 126.351904 
L 525.979817 183.929796 
L 530.168307 141.937572 
L 534.356797 110.420961 
L 538.545288 123.631145 
L 542.733778 181.616461 
L 546.922269 140.093809 
L 551.110759 135.253068 
L 555.299249 173.792552 
L 559.48774 107.437794 
L 563.67623 172.169764 
L 567.864721 108.660064 
L 572.053211 141.626826 
L 576.241701 120.855142 
L 580.430192 145.196959 
L 584.618682 120.779181 
L 588.807173 177.997989 
L 592.995663 110.199986 
L 597.184153 116.559933 
L 601.372644 271.705353 
L 605.561134 276.145577 
L 609.749625 441.448958 
L 613.938115 416.347538 
L 618.126606 439.909036 
L 622.315096 437.678566 
L 626.503586 453.671658 
L 630.692077 429.233164 
L 634.880567 428.604765 
L 639.069058 449.901266 
L 643.257548 432.506362 
L 647.446038 427.637998 
L 651.634529 139.140853 
L 655.823019 141.668259 
L 664.2 117.08475 
L 668.38849 152.054101 
L 672.576981 101.664813 
L 676.765471 177.500795 
L 680.953962 137.649269 
L 685.142452 160.782627 
L 689.330942 101.33335 
L 693.519433 124.328598 
L 697.707923 159.960875 
L 701.896414 184.12315 
L 706.084904 116.207754 
L 710.273394 95.836588 
L 714.461885 147.682932 
L 718.650375 151.515473 
L 722.838866 135.563814 
L 727.027356 149.298814 
L 731.215847 126.386431 
L 735.404337 147.855569 
L 739.592827 122.04979 
L 743.781318 120.544395 
L 747.969808 138.160275 
L 752.158299 179.827941 
L 756.346789 173.350601 
L 760.535279 170.767952 
L 764.72377 128.043746 
L 768.91226 113.694159 
L 773.100751 256.140401 
L 777.289241 247.78477 
L 781.477731 265.442083 
L 785.666222 203.61732 
L 789.854712 323.199518 
L 794.043203 447.042397 
L 798.231693 180.615166 
L 802.420183 454.887022 
L 806.608674 453.202085 
L 810.797164 435.71741 
L 814.985655 434.750643 
L 819.174145 445.523191 
L 823.362636 204.590993 
L 827.551126 241.528406 
L 831.739616 222.780027 
L 835.928107 193.04503 
L 840.116597 139.734724 
L 844.305088 92.432186 
L 848.493578 162.771406 
L 852.682068 128.471886 
L 856.870559 116.463256 
L 861.059049 291.869355 
L 865.24754 385.991048 
L 869.43603 264.502938 
L 873.62452 120.516773 
L 877.813011 131.372188 
L 882.001501 137.013965 
L 886.189992 203.292763 
L 890.378482 348.218072 
L 894.566972 352.969042 
L 898.755463 397.59916 
L 902.943953 245.291892 
L 907.132444 143.518927 
L 911.320934 151.605244 
L 915.509425 121.241849 
L 919.697915 125.440381 
L 923.886405 268.494305 
L 928.074896 169.870239 
L 932.263386 236.618609 
L 936.451877 177.597471 
L 940.640367 178.564238 
L 944.828857 139.444694 
L 949.017348 97.411037 
L 953.205838 138.118842 
L 957.394329 135.211635 
L 961.582819 345.186566 
L 965.771309 159.912537 
L 969.9598 163.413615 
L 974.14829 129.252205 
L 978.336781 170.23623 
L 982.525271 353.65959 
L 986.713761 486.237902 
L 990.902252 344.095501 
L 995.090742 151.791692 
L 999.279233 142.013533 
L 1003.467723 131.696745 
L 1007.656214 106.070509 
L 1011.844704 120.295798 
L 1016.033194 151.674299 
L 1020.221685 261.609541 
L 1024.410175 242.218954 
L 1028.598666 247.909069 
L 1032.787156 259.945321 
L 1036.975646 248.074801 
L 1041.164137 448.748051 
L 1045.352627 412.521902 
L 1049.541118 433.473129 
L 1053.729608 433.576711 
L 1057.918098 448.361344 
L 1062.106589 445.730356 
L 1066.295079 456.64792 
L 1070.48357 446.338038 
L 1074.67206 433.27287 
L 1078.86055 143.650131 
L 1083.049041 155.230621 
L 1087.237531 123.631145 
L 1091.426022 164.891388 
L 1095.614512 142.814568 
L 1099.803003 181.126172 
L 1103.991493 166.320822 
L 1108.179983 152.799892 
L 1112.368474 92.708405 
L 1116.556964 118.617766 
L 1120.745455 117.436929 
L 1120.745455 117.436929 
" clip-path="url(#p808e4835b3)" style="fill: none; stroke: #ff0000; stroke-linecap: square"/>
    <defs>
     <path id="mccb4a50108" d="M 0 1.5 
C 0.397805 1.5 0.77937 1.341951 1.06066 1.06066 
C 1.341951 0.77937 1.5 0.397805 1.5 0 
C 1.5 -0.397805 1.341951 -0.77937 1.06066 -1.06066 
C 0.77937 -1.341951 0.397805 -1.5 0 -1.5 
C -0.397805 -1.5 -0.77937 -1.341951 -1.06066 -1.06066 
C -1.341951 -0.77937 -1.5 -0.397805 -1.5 0 
C -1.5 0.397805 -1.341951 0.77937 -1.06066 1.06066 
C -0.77937 1.341951 -0.397805 1.5 0 1.5 
z
" style="stroke: #ff0000"/>
    </defs>
    <g clip-path="url(#p808e4835b3)">
     <use xlink:href="#mccb4a50108" x="207.654545" y="133.409304" style="fill: #ff0000; stroke: #ff0000"/>
     <use xlink:href="#mccb4a50108" x="211.843036" y="163.227167" style="fill: #ff0000; stroke: #ff0000"/>
     <use xlink:href="#mccb4a50108" x="216.031526" y="188.066179" style="fill: #ff0000; stroke: #ff0000"/>
     <use xlink:href="#mccb4a50108" x="220.220017" y="121.656177" style="fill: #ff0000; stroke: #ff0000"/>
     <use xlink:href="#mccb4a50108" x="224.408507" y="168.551292" style="fill: #ff0000; stroke: #ff0000"/>
     <use xlink:href="#mccb4a50108" x="228.596997" y="161.783922" style="fill: #ff0000; stroke: #ff0000"/>
     <use xlink:href="#mccb4a50108" x="232.785488" y="105.849534" style="fill: #ff0000; stroke: #ff0000"/>
     <use xlink:href="#mccb4a50108" x="236.973978" y="108.52886" style="fill: #ff0000; stroke: #ff0000"/>
     <use xlink:href="#mccb4a50108" x="241.162469" y="131.814139" style="fill: #ff0000; stroke: #ff0000"/>
     <use xlink:href="#mccb4a50108" x="245.350959" y="122.560795" style="fill: #ff0000; stroke: #ff0000"/>
     <use xlink:href="#mccb4a50108" x="249.53945" y="132.477065" style="fill: #ff0000; stroke: #ff0000"/>
     <use xlink:href="#mccb4a50108" x="253.72794" y="155.93498" style="fill: #ff0000; stroke: #ff0000"/>
     <use xlink:href="#mccb4a50108" x="257.91643" y="165.236662" style="fill: #ff0000; stroke: #ff0000"/>
     <use xlink:href="#mccb4a50108" x="262.104921" y="118.783498" style="fill: #ff0000; stroke: #ff0000"/>
     <use xlink:href="#mccb4a50108" x="266.293411" y="119.978146" style="fill: #ff0000; stroke: #ff0000"/>
     <use xlink:href="#mccb4a50108" x="270.481902" y="153.580212" style="fill: #ff0000; stroke: #ff0000"/>
     <use xlink:href="#mccb4a50108" x="274.670392" y="142.089493" style="fill: #ff0000; stroke: #ff0000"/>
     <use xlink:href="#mccb4a50108" x="278.858882" y="166.603947" style="fill: #ff0000; stroke: #ff0000"/>
     <use xlink:href="#mccb4a50108" x="283.047373" y="119.418802" style="fill: #ff0000; stroke: #ff0000"/>
     <use xlink:href="#mccb4a50108" x="287.235863" y="161.404121" style="fill: #ff0000; stroke: #ff0000"/>
     <use xlink:href="#mccb4a50108" x="291.424354" y="106.415783" style="fill: #ff0000; stroke: #ff0000"/>
     <use xlink:href="#mccb4a50108" x="295.612844" y="96.250916" style="fill: #ff0000; stroke: #ff0000"/>
     <use xlink:href="#mccb4a50108" x="299.801334" y="165.630274" style="fill: #ff0000; stroke: #ff0000"/>
     <use xlink:href="#mccb4a50108" x="303.989825" y="128.078274" style="fill: #ff0000; stroke: #ff0000"/>
     <use xlink:href="#mccb4a50108" x="308.178315" y="147.455051" style="fill: #ff0000; stroke: #ff0000"/>
     <use xlink:href="#mccb4a50108" x="312.366806" y="175.373907" style="fill: #ff0000; stroke: #ff0000"/>
     <use xlink:href="#mccb4a50108" x="316.555296" y="174.013527" style="fill: #ff0000; stroke: #ff0000"/>
     <use xlink:href="#mccb4a50108" x="320.743786" y="162.039425" style="fill: #ff0000; stroke: #ff0000"/>
     <use xlink:href="#mccb4a50108" x="324.932277" y="128.430453" style="fill: #ff0000; stroke: #ff0000"/>
     <use xlink:href="#mccb4a50108" x="329.120767" y="127.677756" style="fill: #ff0000; stroke: #ff0000"/>
     <use xlink:href="#mccb4a50108" x="333.309258" y="146.191348" style="fill: #ff0000; stroke: #ff0000"/>
     <use xlink:href="#mccb4a50108" x="337.497748" y="157.447281" style="fill: #ff0000; stroke: #ff0000"/>
     <use xlink:href="#mccb4a50108" x="341.686239" y="139.803779" style="fill: #ff0000; stroke: #ff0000"/>
     <use xlink:href="#mccb4a50108" x="345.874729" y="120.019579" style="fill: #ff0000; stroke: #ff0000"/>
     <use xlink:href="#mccb4a50108" x="350.063219" y="144.934551" style="fill: #ff0000; stroke: #ff0000"/>
     <use xlink:href="#mccb4a50108" x="354.25171" y="107.941894" style="fill: #ff0000; stroke: #ff0000"/>
     <use xlink:href="#mccb4a50108" x="358.4402" y="116.815436" style="fill: #ff0000; stroke: #ff0000"/>
     <use xlink:href="#mccb4a50108" x="362.628691" y="158.987203" style="fill: #ff0000; stroke: #ff0000"/>
     <use xlink:href="#mccb4a50108" x="366.817181" y="107.147764" style="fill: #ff0000; stroke: #ff0000"/>
     <use xlink:href="#mccb4a50108" x="371.005671" y="151.53619" style="fill: #ff0000; stroke: #ff0000"/>
     <use xlink:href="#mccb4a50108" x="375.194162" y="156.604812" style="fill: #ff0000; stroke: #ff0000"/>
     <use xlink:href="#mccb4a50108" x="379.382652" y="140.984616" style="fill: #ff0000; stroke: #ff0000"/>
     <use xlink:href="#mccb4a50108" x="383.571143" y="131.040725" style="fill: #ff0000; stroke: #ff0000"/>
     <use xlink:href="#mccb4a50108" x="387.759633" y="105.283284" style="fill: #ff0000; stroke: #ff0000"/>
     <use xlink:href="#mccb4a50108" x="391.948123" y="157.923759" style="fill: #ff0000; stroke: #ff0000"/>
     <use xlink:href="#mccb4a50108" x="396.136614" y="164.283706" style="fill: #ff0000; stroke: #ff0000"/>
     <use xlink:href="#mccb4a50108" x="400.325104" y="147.890096" style="fill: #ff0000; stroke: #ff0000"/>
     <use xlink:href="#mccb4a50108" x="404.513595" y="135.529287" style="fill: #ff0000; stroke: #ff0000"/>
     <use xlink:href="#mccb4a50108" x="408.702085" y="163.765795" style="fill: #ff0000; stroke: #ff0000"/>
     <use xlink:href="#mccb4a50108" x="412.890575" y="116.214659" style="fill: #ff0000; stroke: #ff0000"/>
     <use xlink:href="#mccb4a50108" x="417.079066" y="92.680783" style="fill: #ff0000; stroke: #ff0000"/>
     <use xlink:href="#mccb4a50108" x="421.267556" y="229.416194" style="fill: #ff0000; stroke: #ff0000"/>
     <use xlink:href="#mccb4a50108" x="425.456047" y="176.975978" style="fill: #ff0000; stroke: #ff0000"/>
     <use xlink:href="#mccb4a50108" x="429.644537" y="220.349298" style="fill: #ff0000; stroke: #ff0000"/>
     <use xlink:href="#mccb4a50108" x="433.833028" y="264.779157" style="fill: #ff0000; stroke: #ff0000"/>
     <use xlink:href="#mccb4a50108" x="438.021518" y="192.886204" style="fill: #ff0000; stroke: #ff0000"/>
     <use xlink:href="#mccb4a50108" x="442.210008" y="122.988935" style="fill: #ff0000; stroke: #ff0000"/>
     <use xlink:href="#mccb4a50108" x="446.398499" y="161.203862" style="fill: #ff0000; stroke: #ff0000"/>
     <use xlink:href="#mccb4a50108" x="450.586989" y="153.345425" style="fill: #ff0000; stroke: #ff0000"/>
     <use xlink:href="#mccb4a50108" x="454.77548" y="233.656158" style="fill: #ff0000; stroke: #ff0000"/>
     <use xlink:href="#mccb4a50108" x="458.96397" y="352.126574" style="fill: #ff0000; stroke: #ff0000"/>
     <use xlink:href="#mccb4a50108" x="463.15246" y="454.451977" style="fill: #ff0000; stroke: #ff0000"/>
     <use xlink:href="#mccb4a50108" x="467.340951" y="456.599581" style="fill: #ff0000; stroke: #ff0000"/>
     <use xlink:href="#mccb4a50108" x="471.529441" y="436.967302" style="fill: #ff0000; stroke: #ff0000"/>
     <use xlink:href="#mccb4a50108" x="475.717932" y="422.735107" style="fill: #ff0000; stroke: #ff0000"/>
     <use xlink:href="#mccb4a50108" x="479.906422" y="463.857241" style="fill: #ff0000; stroke: #ff0000"/>
     <use xlink:href="#mccb4a50108" x="484.094912" y="103.529292" style="fill: #ff0000; stroke: #ff0000"/>
     <use xlink:href="#mccb4a50108" x="488.283403" y="158.724794" style="fill: #ff0000; stroke: #ff0000"/>
     <use xlink:href="#mccb4a50108" x="492.471893" y="106.926789" style="fill: #ff0000; stroke: #ff0000"/>
     <use xlink:href="#mccb4a50108" x="496.660384" y="113.259114" style="fill: #ff0000; stroke: #ff0000"/>
     <use xlink:href="#mccb4a50108" x="500.848874" y="323.848633" style="fill: #ff0000; stroke: #ff0000"/>
     <use xlink:href="#mccb4a50108" x="505.037364" y="110.600504" style="fill: #ff0000; stroke: #ff0000"/>
     <use xlink:href="#mccb4a50108" x="509.225855" y="160.257811" style="fill: #ff0000; stroke: #ff0000"/>
     <use xlink:href="#mccb4a50108" x="513.414345" y="115.890102" style="fill: #ff0000; stroke: #ff0000"/>
     <use xlink:href="#mccb4a50108" x="517.602836" y="116.44254" style="fill: #ff0000; stroke: #ff0000"/>
     <use xlink:href="#mccb4a50108" x="521.791326" y="126.351904" style="fill: #ff0000; stroke: #ff0000"/>
     <use xlink:href="#mccb4a50108" x="525.979817" y="183.929796" style="fill: #ff0000; stroke: #ff0000"/>
     <use xlink:href="#mccb4a50108" x="530.168307" y="141.937572" style="fill: #ff0000; stroke: #ff0000"/>
     <use xlink:href="#mccb4a50108" x="534.356797" y="110.420961" style="fill: #ff0000; stroke: #ff0000"/>
     <use xlink:href="#mccb4a50108" x="538.545288" y="123.631145" style="fill: #ff0000; stroke: #ff0000"/>
     <use xlink:href="#mccb4a50108" x="542.733778" y="181.616461" style="fill: #ff0000; stroke: #ff0000"/>
     <use xlink:href="#mccb4a50108" x="546.922269" y="140.093809" style="fill: #ff0000; stroke: #ff0000"/>
     <use xlink:href="#mccb4a50108" x="551.110759" y="135.253068" style="fill: #ff0000; stroke: #ff0000"/>
     <use xlink:href="#mccb4a50108" x="555.299249" y="173.792552" style="fill: #ff0000; stroke: #ff0000"/>
     <use xlink:href="#mccb4a50108" x="559.48774" y="107.437794" style="fill: #ff0000; stroke: #ff0000"/>
     <use xlink:href="#mccb4a50108" x="563.67623" y="172.169764" style="fill: #ff0000; stroke: #ff0000"/>
     <use xlink:href="#mccb4a50108" x="567.864721" y="108.660064" style="fill: #ff0000; stroke: #ff0000"/>
     <use xlink:href="#mccb4a50108" x="572.053211" y="141.626826" style="fill: #ff0000; stroke: #ff0000"/>
     <use xlink:href="#mccb4a50108" x="576.241701" y="120.855142" style="fill: #ff0000; stroke: #ff0000"/>
     <use xlink:href="#mccb4a50108" x="580.430192" y="145.196959" style="fill: #ff0000; stroke: #ff0000"/>
     <use xlink:href="#mccb4a50108" x="584.618682" y="120.779181" style="fill: #ff0000; stroke: #ff0000"/>
     <use xlink:href="#mccb4a50108" x="588.807173" y="177.997989" style="fill: #ff0000; stroke: #ff0000"/>
     <use xlink:href="#mccb4a50108" x="592.995663" y="110.199986" style="fill: #ff0000; stroke: #ff0000"/>
     <use xlink:href="#mccb4a50108" x="597.184153" y="116.559933" style="fill: #ff0000; stroke: #ff0000"/>
     <use xlink:href="#mccb4a50108" x="601.372644" y="271.705353" style="fill: #ff0000; stroke: #ff0000"/>
     <use xlink:href="#mccb4a50108" x="605.561134" y="276.145577" style="fill: #ff0000; stroke: #ff0000"/>
     <use xlink:href="#mccb4a50108" x="609.749625" y="441.448958" style="fill: #ff0000; stroke: #ff0000"/>
     <use xlink:href="#mccb4a50108" x="613.938115" y="416.347538" style="fill: #ff0000; stroke: #ff0000"/>
     <use xlink:href="#mccb4a50108" x="618.126606" y="439.909036" style="fill: #ff0000; stroke: #ff0000"/>
     <use xlink:href="#mccb4a50108" x="622.315096" y="437.678566" style="fill: #ff0000; stroke: #ff0000"/>
     <use xlink:href="#mccb4a50108" x="626.503586" y="453.671658" style="fill: #ff0000; stroke: #ff0000"/>
     <use xlink:href="#mccb4a50108" x="630.692077" y="429.233164" style="fill: #ff0000; stroke: #ff0000"/>
     <use xlink:href="#mccb4a50108" x="634.880567" y="428.604765" style="fill: #ff0000; stroke: #ff0000"/>
     <use xlink:href="#mccb4a50108" x="639.069058" y="449.901266" style="fill: #ff0000; stroke: #ff0000"/>
     <use xlink:href="#mccb4a50108" x="643.257548" y="432.506362" style="fill: #ff0000; stroke: #ff0000"/>
     <use xlink:href="#mccb4a50108" x="647.446038" y="427.637998" style="fill: #ff0000; stroke: #ff0000"/>
     <use xlink:href="#mccb4a50108" x="651.634529" y="139.140853" style="fill: #ff0000; stroke: #ff0000"/>
     <use xlink:href="#mccb4a50108" x="655.823019" y="141.668259" style="fill: #ff0000; stroke: #ff0000"/>
     <use xlink:href="#mccb4a50108" x="660.01151" y="129.328166" style="fill: #ff0000; stroke: #ff0000"/>
     <use xlink:href="#mccb4a50108" x="664.2" y="117.08475" style="fill: #ff0000; stroke: #ff0000"/>
     <use xlink:href="#mccb4a50108" x="668.38849" y="152.054101" style="fill: #ff0000; stroke: #ff0000"/>
     <use xlink:href="#mccb4a50108" x="672.576981" y="101.664813" style="fill: #ff0000; stroke: #ff0000"/>
     <use xlink:href="#mccb4a50108" x="676.765471" y="177.500795" style="fill: #ff0000; stroke: #ff0000"/>
     <use xlink:href="#mccb4a50108" x="680.953962" y="137.649269" style="fill: #ff0000; stroke: #ff0000"/>
     <use xlink:href="#mccb4a50108" x="685.142452" y="160.782627" style="fill: #ff0000; stroke: #ff0000"/>
     <use xlink:href="#mccb4a50108" x="689.330942" y="101.33335" style="fill: #ff0000; stroke: #ff0000"/>
     <use xlink:href="#mccb4a50108" x="693.519433" y="124.328598" style="fill: #ff0000; stroke: #ff0000"/>
     <use xlink:href="#mccb4a50108" x="697.707923" y="159.960875" style="fill: #ff0000; stroke: #ff0000"/>
     <use xlink:href="#mccb4a50108" x="701.896414" y="184.12315" style="fill: #ff0000; stroke: #ff0000"/>
     <use xlink:href="#mccb4a50108" x="706.084904" y="116.207754" style="fill: #ff0000; stroke: #ff0000"/>
     <use xlink:href="#mccb4a50108" x="710.273394" y="95.836588" style="fill: #ff0000; stroke: #ff0000"/>
     <use xlink:href="#mccb4a50108" x="714.461885" y="147.682932" style="fill: #ff0000; stroke: #ff0000"/>
     <use xlink:href="#mccb4a50108" x="718.650375" y="151.515473" style="fill: #ff0000; stroke: #ff0000"/>
     <use xlink:href="#mccb4a50108" x="722.838866" y="135.563814" style="fill: #ff0000; stroke: #ff0000"/>
     <use xlink:href="#mccb4a50108" x="727.027356" y="149.298814" style="fill: #ff0000; stroke: #ff0000"/>
     <use xlink:href="#mccb4a50108" x="731.215847" y="126.386431" style="fill: #ff0000; stroke: #ff0000"/>
     <use xlink:href="#mccb4a50108" x="735.404337" y="147.855569" style="fill: #ff0000; stroke: #ff0000"/>
     <use xlink:href="#mccb4a50108" x="739.592827" y="122.04979" style="fill: #ff0000; stroke: #ff0000"/>
     <use xlink:href="#mccb4a50108" x="743.781318" y="120.544395" style="fill: #ff0000; stroke: #ff0000"/>
     <use xlink:href="#mccb4a50108" x="747.969808" y="138.160275" style="fill: #ff0000; stroke: #ff0000"/>
     <use xlink:href="#mccb4a50108" x="752.158299" y="179.827941" style="fill: #ff0000; stroke: #ff0000"/>
     <use xlink:href="#mccb4a50108" x="756.346789" y="173.350601" style="fill: #ff0000; stroke: #ff0000"/>
     <use xlink:href="#mccb4a50108" x="760.535279" y="170.767952" style="fill: #ff0000; stroke: #ff0000"/>
     <use xlink:href="#mccb4a50108" x="764.72377" y="128.043746" style="fill: #ff0000; stroke: #ff0000"/>
     <use xlink:href="#mccb4a50108" x="768.91226" y="113.694159" style="fill: #ff0000; stroke: #ff0000"/>
     <use xlink:href="#mccb4a50108" x="773.100751" y="256.140401" style="fill: #ff0000; stroke: #ff0000"/>
     <use xlink:href="#mccb4a50108" x="777.289241" y="247.78477" style="fill: #ff0000; stroke: #ff0000"/>
     <use xlink:href="#mccb4a50108" x="781.477731" y="265.442083" style="fill: #ff0000; stroke: #ff0000"/>
     <use xlink:href="#mccb4a50108" x="785.666222" y="203.61732" style="fill: #ff0000; stroke: #ff0000"/>
     <use xlink:href="#mccb4a50108" x="789.854712" y="323.199518" style="fill: #ff0000; stroke: #ff0000"/>
     <use xlink:href="#mccb4a50108" x="794.043203" y="447.042397" style="fill: #ff0000; stroke: #ff0000"/>
     <use xlink:href="#mccb4a50108" x="798.231693" y="180.615166" style="fill: #ff0000; stroke: #ff0000"/>
     <use xlink:href="#mccb4a50108" x="802.420183" y="454.887022" style="fill: #ff0000; stroke: #ff0000"/>
     <use xlink:href="#mccb4a50108" x="806.608674" y="453.202085" style="fill: #ff0000; stroke: #ff0000"/>
     <use xlink:href="#mccb4a50108" x="810.797164" y="435.71741" style="fill: #ff0000; stroke: #ff0000"/>
     <use xlink:href="#mccb4a50108" x="814.985655" y="434.750643" style="fill: #ff0000; stroke: #ff0000"/>
     <use xlink:href="#mccb4a50108" x="819.174145" y="445.523191" style="fill: #ff0000; stroke: #ff0000"/>
     <use xlink:href="#mccb4a50108" x="823.362636" y="204.590993" style="fill: #ff0000; stroke: #ff0000"/>
     <use xlink:href="#mccb4a50108" x="827.551126" y="241.528406" style="fill: #ff0000; stroke: #ff0000"/>
     <use xlink:href="#mccb4a50108" x="831.739616" y="222.780027" style="fill: #ff0000; stroke: #ff0000"/>
     <use xlink:href="#mccb4a50108" x="835.928107" y="193.04503" style="fill: #ff0000; stroke: #ff0000"/>
     <use xlink:href="#mccb4a50108" x="840.116597" y="139.734724" style="fill: #ff0000; stroke: #ff0000"/>
     <use xlink:href="#mccb4a50108" x="844.305088" y="92.432186" style="fill: #ff0000; stroke: #ff0000"/>
     <use xlink:href="#mccb4a50108" x="848.493578" y="162.771406" style="fill: #ff0000; stroke: #ff0000"/>
     <use xlink:href="#mccb4a50108" x="852.682068" y="128.471886" style="fill: #ff0000; stroke: #ff0000"/>
     <use xlink:href="#mccb4a50108" x="856.870559" y="116.463256" style="fill: #ff0000; stroke: #ff0000"/>
     <use xlink:href="#mccb4a50108" x="861.059049" y="291.869355" style="fill: #ff0000; stroke: #ff0000"/>
     <use xlink:href="#mccb4a50108" x="865.24754" y="385.991048" style="fill: #ff0000; stroke: #ff0000"/>
     <use xlink:href="#mccb4a50108" x="869.43603" y="264.502938" style="fill: #ff0000; stroke: #ff0000"/>
     <use xlink:href="#mccb4a50108" x="873.62452" y="120.516773" style="fill: #ff0000; stroke: #ff0000"/>
     <use xlink:href="#mccb4a50108" x="877.813011" y="131.372188" style="fill: #ff0000; stroke: #ff0000"/>
     <use xlink:href="#mccb4a50108" x="882.001501" y="137.013965" style="fill: #ff0000; stroke: #ff0000"/>
     <use xlink:href="#mccb4a50108" x="886.189992" y="203.292763" style="fill: #ff0000; stroke: #ff0000"/>
     <use xlink:href="#mccb4a50108" x="890.378482" y="348.218072" style="fill: #ff0000; stroke: #ff0000"/>
     <use xlink:href="#mccb4a50108" x="894.566972" y="352.969042" style="fill: #ff0000; stroke: #ff0000"/>
     <use xlink:href="#mccb4a50108" x="898.755463" y="397.59916" style="fill: #ff0000; stroke: #ff0000"/>
     <use xlink:href="#mccb4a50108" x="902.943953" y="245.291892" style="fill: #ff0000; stroke: #ff0000"/>
     <use xlink:href="#mccb4a50108" x="907.132444" y="143.518927" style="fill: #ff0000; stroke: #ff0000"/>
     <use xlink:href="#mccb4a50108" x="911.320934" y="151.605244" style="fill: #ff0000; stroke: #ff0000"/>
     <use xlink:href="#mccb4a50108" x="915.509425" y="121.241849" style="fill: #ff0000; stroke: #ff0000"/>
     <use xlink:href="#mccb4a50108" x="919.697915" y="125.440381" style="fill: #ff0000; stroke: #ff0000"/>
     <use xlink:href="#mccb4a50108" x="923.886405" y="268.494305" style="fill: #ff0000; stroke: #ff0000"/>
     <use xlink:href="#mccb4a50108" x="928.074896" y="169.870239" style="fill: #ff0000; stroke: #ff0000"/>
     <use xlink:href="#mccb4a50108" x="932.263386" y="236.618609" style="fill: #ff0000; stroke: #ff0000"/>
     <use xlink:href="#mccb4a50108" x="936.451877" y="177.597471" style="fill: #ff0000; stroke: #ff0000"/>
     <use xlink:href="#mccb4a50108" x="940.640367" y="178.564238" style="fill: #ff0000; stroke: #ff0000"/>
     <use xlink:href="#mccb4a50108" x="944.828857" y="139.444694" style="fill: #ff0000; stroke: #ff0000"/>
     <use xlink:href="#mccb4a50108" x="949.017348" y="97.411037" style="fill: #ff0000; stroke: #ff0000"/>
     <use xlink:href="#mccb4a50108" x="953.205838" y="138.118842" style="fill: #ff0000; stroke: #ff0000"/>
     <use xlink:href="#mccb4a50108" x="957.394329" y="135.211635" style="fill: #ff0000; stroke: #ff0000"/>
     <use xlink:href="#mccb4a50108" x="961.582819" y="345.186566" style="fill: #ff0000; stroke: #ff0000"/>
     <use xlink:href="#mccb4a50108" x="965.771309" y="159.912537" style="fill: #ff0000; stroke: #ff0000"/>
     <use xlink:href="#mccb4a50108" x="969.9598" y="163.413615" style="fill: #ff0000; stroke: #ff0000"/>
     <use xlink:href="#mccb4a50108" x="974.14829" y="129.252205" style="fill: #ff0000; stroke: #ff0000"/>
     <use xlink:href="#mccb4a50108" x="978.336781" y="170.23623" style="fill: #ff0000; stroke: #ff0000"/>
     <use xlink:href="#mccb4a50108" x="982.525271" y="353.65959" style="fill: #ff0000; stroke: #ff0000"/>
     <use xlink:href="#mccb4a50108" x="986.713761" y="486.237902" style="fill: #ff0000; stroke: #ff0000"/>
     <use xlink:href="#mccb4a50108" x="990.902252" y="344.095501" style="fill: #ff0000; stroke: #ff0000"/>
     <use xlink:href="#mccb4a50108" x="995.090742" y="151.791692" style="fill: #ff0000; stroke: #ff0000"/>
     <use xlink:href="#mccb4a50108" x="999.279233" y="142.013533" style="fill: #ff0000; stroke: #ff0000"/>
     <use xlink:href="#mccb4a50108" x="1003.467723" y="131.696745" style="fill: #ff0000; stroke: #ff0000"/>
     <use xlink:href="#mccb4a50108" x="1007.656214" y="106.070509" style="fill: #ff0000; stroke: #ff0000"/>
     <use xlink:href="#mccb4a50108" x="1011.844704" y="120.295798" style="fill: #ff0000; stroke: #ff0000"/>
     <use xlink:href="#mccb4a50108" x="1016.033194" y="151.674299" style="fill: #ff0000; stroke: #ff0000"/>
     <use xlink:href="#mccb4a50108" x="1020.221685" y="261.609541" style="fill: #ff0000; stroke: #ff0000"/>
     <use xlink:href="#mccb4a50108" x="1024.410175" y="242.218954" style="fill: #ff0000; stroke: #ff0000"/>
     <use xlink:href="#mccb4a50108" x="1028.598666" y="247.909069" style="fill: #ff0000; stroke: #ff0000"/>
     <use xlink:href="#mccb4a50108" x="1032.787156" y="259.945321" style="fill: #ff0000; stroke: #ff0000"/>
     <use xlink:href="#mccb4a50108" x="1036.975646" y="248.074801" style="fill: #ff0000; stroke: #ff0000"/>
     <use xlink:href="#mccb4a50108" x="1041.164137" y="448.748051" style="fill: #ff0000; stroke: #ff0000"/>
     <use xlink:href="#mccb4a50108" x="1045.352627" y="412.521902" style="fill: #ff0000; stroke: #ff0000"/>
     <use xlink:href="#mccb4a50108" x="1049.541118" y="433.473129" style="fill: #ff0000; stroke: #ff0000"/>
     <use xlink:href="#mccb4a50108" x="1053.729608" y="433.576711" style="fill: #ff0000; stroke: #ff0000"/>
     <use xlink:href="#mccb4a50108" x="1057.918098" y="448.361344" style="fill: #ff0000; stroke: #ff0000"/>
     <use xlink:href="#mccb4a50108" x="1062.106589" y="445.730356" style="fill: #ff0000; stroke: #ff0000"/>
     <use xlink:href="#mccb4a50108" x="1066.295079" y="456.64792" style="fill: #ff0000; stroke: #ff0000"/>
     <use xlink:href="#mccb4a50108" x="1070.48357" y="446.338038" style="fill: #ff0000; stroke: #ff0000"/>
     <use xlink:href="#mccb4a50108" x="1074.67206" y="433.27287" style="fill: #ff0000; stroke: #ff0000"/>
     <use xlink:href="#mccb4a50108" x="1078.86055" y="143.650131" style="fill: #ff0000; stroke: #ff0000"/>
     <use xlink:href="#mccb4a50108" x="1083.049041" y="155.230621" style="fill: #ff0000; stroke: #ff0000"/>
     <use xlink:href="#mccb4a50108" x="1087.237531" y="123.631145" style="fill: #ff0000; stroke: #ff0000"/>
     <use xlink:href="#mccb4a50108" x="1091.426022" y="164.891388" style="fill: #ff0000; stroke: #ff0000"/>
     <use xlink:href="#mccb4a50108" x="1095.614512" y="142.814568" style="fill: #ff0000; stroke: #ff0000"/>
     <use xlink:href="#mccb4a50108" x="1099.803003" y="181.126172" style="fill: #ff0000; stroke: #ff0000"/>
     <use xlink:href="#mccb4a50108" x="1103.991493" y="166.320822" style="fill: #ff0000; stroke: #ff0000"/>
     <use xlink:href="#mccb4a50108" x="1108.179983" y="152.799892" style="fill: #ff0000; stroke: #ff0000"/>
     <use xlink:href="#mccb4a50108" x="1112.368474" y="92.708405" style="fill: #ff0000; stroke: #ff0000"/>
     <use xlink:href="#mccb4a50108" x="1116.556964" y="118.617766" style="fill: #ff0000; stroke: #ff0000"/>
     <use xlink:href="#mccb4a50108" x="1120.745455" y="117.436929" style="fill: #ff0000; stroke: #ff0000"/>
    </g>
   </g>
   <g id="patch_3">
    <path d="M 162 512.64 
L 162 69.12 
" style="fill: none; stroke: #000000; stroke-width: 0.8; stroke-linejoin: miter; stroke-linecap: square"/>
   </g>
   <g id="patch_4">
    <path d="M 1166.4 512.64 
L 1166.4 69.12 
" style="fill: none; stroke: #000000; stroke-width: 0.8; stroke-linejoin: miter; stroke-linecap: square"/>
   </g>
   <g id="patch_5">
    <path d="M 162 512.64 
L 1166.4 512.64 
" style="fill: none; stroke: #000000; stroke-width: 0.8; stroke-linejoin: miter; stroke-linecap: square"/>
   </g>
   <g id="patch_6">
    <path d="M 162 69.12 
L 1166.4 69.12 
" style="fill: none; stroke: #000000; stroke-width: 0.8; stroke-linejoin: miter; stroke-linecap: square"/>
   </g>
   <g id="text_13">
    <!-- Comparison of True Values and Predictions -->
    <g transform="translate(541.2 63.12) scale(0.12 -0.12)">
     <defs>
      <path id="SimHei-43" d="M 2975 1825 
Q 2950 875 2575 475 
Q 2200 75 1675 75 
Q 1075 75 650 562 
Q 225 1050 225 2125 
Q 225 3300 637 3875 
Q 1050 4450 1700 4450 
Q 2250 4450 2612 4037 
Q 2975 3625 2950 2875 
L 2400 2875 
Q 2400 3425 2225 3700 
Q 2050 3975 1700 3975 
Q 1300 3975 1062 3562 
Q 825 3150 825 2175 
Q 825 1275 1062 912 
Q 1300 550 1675 550 
Q 1950 550 2175 812 
Q 2400 1075 2400 1825 
L 2975 1825 
z
" transform="scale(0.015625)"/>
      <path id="SimHei-6f" d="M 2925 1525 
Q 2925 875 2525 475 
Q 2125 75 1575 75 
Q 1025 75 625 475 
Q 225 875 225 1525 
Q 225 2175 625 2575 
Q 1025 2975 1575 2975 
Q 2125 2975 2525 2575 
Q 2925 2175 2925 1525 
z
M 2375 1525 
Q 2375 2025 2125 2275 
Q 1875 2525 1575 2525 
Q 1275 2525 1025 2275 
Q 775 2025 775 1525 
Q 775 1025 1025 775 
Q 1275 525 1575 525 
Q 1875 525 2125 775 
Q 2375 1025 2375 1525 
z
" transform="scale(0.015625)"/>
      <path id="SimHei-6d" d="M 3050 125 
L 2550 125 
L 2550 2150 
Q 2550 2300 2500 2400 
Q 2450 2500 2300 2500 
Q 2125 2500 1975 2312 
Q 1825 2125 1825 1825 
L 1825 125 
L 1325 125 
L 1325 2150 
Q 1325 2300 1275 2400 
Q 1225 2500 1075 2500 
Q 900 2500 750 2312 
Q 600 2125 600 1825 
L 600 125 
L 100 125 
L 100 2925 
L 600 2925 
L 600 2550 
Q 725 2750 900 2862 
Q 1075 2975 1275 2975 
Q 1475 2975 1612 2862 
Q 1750 2750 1800 2550 
Q 1925 2750 2087 2862 
Q 2250 2975 2450 2975 
Q 2750 2975 2900 2812 
Q 3050 2650 3050 2350 
L 3050 125 
z
" transform="scale(0.015625)"/>
      <path id="SimHei-70" d="M 2825 1525 
Q 2825 800 2475 425 
Q 2125 50 1625 50 
Q 1350 50 1150 162 
Q 950 275 800 500 
L 800 -800 
L 300 -800 
L 300 2925 
L 800 2925 
L 800 2550 
Q 950 2775 1150 2875 
Q 1350 2975 1625 2975 
Q 2125 2975 2475 2612 
Q 2825 2250 2825 1525 
z
M 2275 1525 
Q 2275 2000 2087 2262 
Q 1900 2525 1525 2525 
Q 1225 2525 1012 2262 
Q 800 2000 800 1525 
Q 800 1050 1012 775 
Q 1225 500 1525 500 
Q 1900 500 2087 775 
Q 2275 1050 2275 1525 
z
" transform="scale(0.015625)"/>
      <path id="SimHei-61" d="M 2875 125 
L 2275 125 
Q 2225 175 2200 262 
Q 2175 350 2175 475 
Q 2000 275 1750 175 
Q 1500 75 1225 75 
Q 825 75 550 275 
Q 275 475 275 850 
Q 275 1225 525 1450 
Q 775 1675 1300 1750 
Q 1650 1800 1912 1875 
Q 2175 1950 2175 2075 
Q 2175 2225 2062 2375 
Q 1950 2525 1575 2525 
Q 1275 2525 1137 2412 
Q 1000 2300 950 2100 
L 400 2100 
Q 450 2500 762 2737 
Q 1075 2975 1575 2975 
Q 2125 2975 2400 2725 
Q 2675 2475 2675 2025 
L 2675 650 
Q 2675 500 2725 375 
Q 2775 250 2875 125 
z
M 2175 1050 
L 2175 1550 
Q 2025 1500 1887 1462 
Q 1750 1425 1425 1375 
Q 1050 1325 937 1200 
Q 825 1075 825 900 
Q 825 750 937 637 
Q 1050 525 1275 525 
Q 1500 525 1762 650 
Q 2025 775 2175 1050 
z
" transform="scale(0.015625)"/>
      <path id="SimHei-72" d="M 2500 2425 
Q 2025 2500 1700 2287 
Q 1375 2075 1150 1550 
L 1150 125 
L 650 125 
L 650 2925 
L 1150 2925 
L 1150 2200 
Q 1375 2600 1712 2787 
Q 2050 2975 2500 2975 
L 2500 2425 
z
" transform="scale(0.015625)"/>
      <path id="SimHei-69" d="M 1800 3725 
L 1300 3725 
L 1300 4375 
L 1800 4375 
L 1800 3725 
z
M 1800 125 
L 1300 125 
L 1300 2925 
L 1800 2925 
L 1800 125 
z
" transform="scale(0.015625)"/>
      <path id="SimHei-73" d="M 2750 900 
Q 2750 500 2437 287 
Q 2125 75 1650 75 
Q 1050 75 725 312 
Q 400 550 400 1000 
L 900 1000 
Q 900 700 1112 600 
Q 1325 500 1625 500 
Q 1925 500 2075 612 
Q 2225 725 2225 900 
Q 2225 1025 2100 1150 
Q 1975 1275 1475 1350 
Q 900 1425 687 1637 
Q 475 1850 475 2200 
Q 475 2500 762 2737 
Q 1050 2975 1600 2975 
Q 2100 2975 2387 2750 
Q 2675 2525 2675 2150 
L 2175 2150 
Q 2175 2375 2012 2462 
Q 1850 2550 1600 2550 
Q 1275 2550 1137 2437 
Q 1000 2325 1000 2175 
Q 1000 2000 1125 1900 
Q 1250 1800 1650 1750 
Q 2300 1650 2525 1437 
Q 2750 1225 2750 900 
z
" transform="scale(0.015625)"/>
      <path id="SimHei-6e" d="M 2800 125 
L 2300 125 
L 2300 1925 
Q 2300 2225 2150 2400 
Q 2000 2575 1750 2575 
Q 1425 2575 1137 2237 
Q 850 1900 850 1400 
L 850 125 
L 350 125 
L 350 2925 
L 850 2925 
L 850 2400 
Q 1050 2675 1287 2825 
Q 1525 2975 1900 2975 
Q 2350 2975 2575 2725 
Q 2800 2475 2800 2100 
L 2800 125 
z
" transform="scale(0.015625)"/>
      <path id="SimHei-20" transform="scale(0.015625)"/>
      <path id="SimHei-66" d="M 2850 3825 
Q 2725 3900 2550 3950 
Q 2375 4000 2100 4000 
Q 1825 4000 1725 3862 
Q 1625 3725 1625 3525 
L 1625 2925 
L 2650 2925 
L 2650 2525 
L 1625 2525 
L 1625 125 
L 1125 125 
L 1125 2525 
L 275 2525 
L 275 2925 
L 1125 2925 
L 1125 3500 
Q 1125 3950 1400 4200 
Q 1675 4450 2125 4450 
Q 2400 4450 2562 4412 
Q 2725 4375 2850 4325 
L 2850 3825 
z
" transform="scale(0.015625)"/>
      <path id="SimHei-54" d="M 2850 3925 
L 1850 3925 
L 1850 125 
L 1275 125 
L 1275 3925 
L 275 3925 
L 275 4400 
L 2850 4400 
L 2850 3925 
z
" transform="scale(0.015625)"/>
      <path id="SimHei-75" d="M 2800 125 
L 2300 125 
L 2300 650 
Q 2100 375 1862 225 
Q 1625 75 1250 75 
Q 800 75 575 325 
Q 350 575 350 950 
L 350 2925 
L 850 2925 
L 850 1125 
Q 850 825 1000 650 
Q 1150 475 1400 475 
Q 1725 475 2012 812 
Q 2300 1150 2300 1650 
L 2300 2925 
L 2800 2925 
L 2800 125 
z
" transform="scale(0.015625)"/>
      <path id="SimHei-65" d="M 2850 1075 
Q 2800 625 2450 350 
Q 2100 75 1625 75 
Q 1025 75 637 462 
Q 250 850 250 1525 
Q 250 2200 637 2587 
Q 1025 2975 1625 2975 
Q 2150 2975 2487 2637 
Q 2825 2300 2825 1525 
L 800 1525 
Q 800 975 1037 750 
Q 1275 525 1625 525 
Q 1900 525 2075 662 
Q 2250 800 2300 1075 
L 2850 1075 
z
M 2250 1925 
Q 2200 2275 2025 2412 
Q 1850 2550 1575 2550 
Q 1325 2550 1125 2412 
Q 925 2275 825 1925 
L 2250 1925 
z
" transform="scale(0.015625)"/>
      <path id="SimHei-56" d="M 3050 4400 
L 1800 75 
L 1300 75 
L 50 4400 
L 650 4400 
L 1525 1125 
L 1575 1125 
L 2450 4400 
L 3050 4400 
z
" transform="scale(0.015625)"/>
      <path id="SimHei-6c" d="M 1825 125 
L 1325 125 
L 1325 4400 
L 1825 4400 
L 1825 125 
z
" transform="scale(0.015625)"/>
      <path id="SimHei-64" d="M 2750 125 
L 2250 125 
L 2250 500 
Q 2100 275 1900 175 
Q 1700 75 1425 75 
Q 925 75 575 437 
Q 225 800 225 1525 
Q 225 2250 575 2625 
Q 925 3000 1425 3000 
Q 1700 3000 1900 2887 
Q 2100 2775 2250 2550 
L 2250 4400 
L 2750 4400 
L 2750 125 
z
M 2250 1525 
Q 2250 2000 2037 2275 
Q 1825 2550 1525 2550 
Q 1150 2550 962 2275 
Q 775 2000 775 1525 
Q 775 1050 962 787 
Q 1150 525 1525 525 
Q 1825 525 2037 787 
Q 2250 1050 2250 1525 
z
" transform="scale(0.015625)"/>
      <path id="SimHei-50" d="M 2950 3100 
Q 2950 2500 2600 2150 
Q 2250 1800 1625 1800 
L 900 1800 
L 900 125 
L 325 125 
L 325 4400 
L 1625 4400 
Q 2250 4400 2600 4050 
Q 2950 3700 2950 3100 
z
M 2375 3100 
Q 2375 3575 2150 3750 
Q 1925 3925 1475 3925 
L 900 3925 
L 900 2275 
L 1475 2275 
Q 1925 2275 2150 2450 
Q 2375 2625 2375 3100 
z
" transform="scale(0.015625)"/>
      <path id="SimHei-63" d="M 2850 1250 
Q 2850 725 2487 400 
Q 2125 75 1575 75 
Q 1025 75 625 462 
Q 225 850 225 1525 
Q 225 2200 625 2587 
Q 1025 2975 1575 2975 
Q 2125 2975 2450 2687 
Q 2775 2400 2775 2000 
L 2225 2000 
Q 2200 2300 2012 2412 
Q 1825 2525 1575 2525 
Q 1275 2525 1025 2287 
Q 775 2050 775 1525 
Q 775 1000 1025 762 
Q 1275 525 1575 525 
Q 1900 525 2100 700 
Q 2300 875 2300 1250 
L 2850 1250 
z
" transform="scale(0.015625)"/>
      <path id="SimHei-74" d="M 2750 200 
Q 2625 150 2462 112 
Q 2300 75 2025 75 
Q 1575 75 1300 325 
Q 1025 575 1025 1025 
L 1025 2525 
L 175 2525 
L 175 2925 
L 1025 2925 
L 1025 3900 
L 1525 3900 
L 1525 2925 
L 2550 2925 
L 2550 2525 
L 1525 2525 
L 1525 1000 
Q 1525 800 1625 662 
Q 1725 525 2000 525 
Q 2275 525 2450 575 
Q 2625 625 2750 700 
L 2750 200 
z
" transform="scale(0.015625)"/>
     </defs>
     <use xlink:href="#SimHei-43"/>
     <use xlink:href="#SimHei-6f" x="50"/>
     <use xlink:href="#SimHei-6d" x="100"/>
     <use xlink:href="#SimHei-70" x="150"/>
     <use xlink:href="#SimHei-61" x="200"/>
     <use xlink:href="#SimHei-72" x="250"/>
     <use xlink:href="#SimHei-69" x="300"/>
     <use xlink:href="#SimHei-73" x="350"/>
     <use xlink:href="#SimHei-6f" x="400"/>
     <use xlink:href="#SimHei-6e" x="450"/>
     <use xlink:href="#SimHei-20" x="500"/>
     <use xlink:href="#SimHei-6f" x="550"/>
     <use xlink:href="#SimHei-66" x="600"/>
     <use xlink:href="#SimHei-20" x="650"/>
     <use xlink:href="#SimHei-54" x="700"/>
     <use xlink:href="#SimHei-72" x="750"/>
     <use xlink:href="#SimHei-75" x="800"/>
     <use xlink:href="#SimHei-65" x="850"/>
     <use xlink:href="#SimHei-20" x="900"/>
     <use xlink:href="#SimHei-56" x="950"/>
     <use xlink:href="#SimHei-61" x="1000"/>
     <use xlink:href="#SimHei-6c" x="1050"/>
     <use xlink:href="#SimHei-75" x="1100"/>
     <use xlink:href="#SimHei-65" x="1150"/>
     <use xlink:href="#SimHei-73" x="1200"/>
     <use xlink:href="#SimHei-20" x="1250"/>
     <use xlink:href="#SimHei-61" x="1300"/>
     <use xlink:href="#SimHei-6e" x="1350"/>
     <use xlink:href="#SimHei-64" x="1400"/>
     <use xlink:href="#SimHei-20" x="1450"/>
     <use xlink:href="#SimHei-50" x="1500"/>
     <use xlink:href="#SimHei-72" x="1550"/>
     <use xlink:href="#SimHei-65" x="1600"/>
     <use xlink:href="#SimHei-64" x="1650"/>
     <use xlink:href="#SimHei-69" x="1700"/>
     <use xlink:href="#SimHei-63" x="1750"/>
     <use xlink:href="#SimHei-74" x="1800"/>
     <use xlink:href="#SimHei-69" x="1850"/>
     <use xlink:href="#SimHei-6f" x="1900"/>
     <use xlink:href="#SimHei-6e" x="1950"/>
     <use xlink:href="#SimHei-73" x="2000"/>
    </g>
   </g>
   <g id="legend_1">
    <g id="patch_7">
     <path d="M 171.8 505.64 
L 328.6 505.64 
Q 331.4 505.64 331.4 502.84 
L 331.4 430.04 
Q 331.4 427.24 328.6 427.24 
L 171.8 427.24 
Q 169 427.24 169 430.04 
L 169 502.84 
Q 169 505.64 171.8 505.64 
z
" style="fill: #ffffff; opacity: 0.8; stroke: #cccccc; stroke-linejoin: miter"/>
    </g>
    <g id="line2d_27">
     <path d="M 174.6 437.74 
L 188.6 437.74 
L 202.6 437.74 
" style="fill: none; stroke: #1f77b4; stroke-linecap: square"/>
    </g>
    <g id="text_14">
     <!-- Informer -->
     <g transform="translate(213.8 442.64) scale(0.14 -0.14)">
      <defs>
       <path id="SimHei-49" d="M 1850 125 
L 1275 125 
L 1275 4400 
L 1850 4400 
L 1850 125 
z
" transform="scale(0.015625)"/>
      </defs>
      <use xlink:href="#SimHei-49"/>
      <use xlink:href="#SimHei-6e" x="50"/>
      <use xlink:href="#SimHei-66" x="100"/>
      <use xlink:href="#SimHei-6f" x="150"/>
      <use xlink:href="#SimHei-72" x="200"/>
      <use xlink:href="#SimHei-6d" x="250"/>
      <use xlink:href="#SimHei-65" x="300"/>
      <use xlink:href="#SimHei-72" x="350"/>
     </g>
    </g>
    <g id="line2d_28">
     <path d="M 174.6 456.29 
L 188.6 456.29 
L 202.6 456.29 
" style="fill: none; stroke-dasharray: 6.4,1.6,1,1.6; stroke-dashoffset: 0; stroke: #ff7f0e"/>
    </g>
    <g id="text_15">
     <!-- Transformer-Lstm -->
     <g transform="translate(213.8 461.19) scale(0.14 -0.14)">
      <defs>
       <path id="SimHei-2d" d="M 2975 2125 
L 125 2125 
L 125 2525 
L 2975 2525 
L 2975 2125 
z
" transform="scale(0.015625)"/>
       <path id="SimHei-4c" d="M 2900 125 
L 300 125 
L 300 4400 
L 875 4400 
L 875 600 
L 2900 600 
L 2900 125 
z
" transform="scale(0.015625)"/>
      </defs>
      <use xlink:href="#SimHei-54"/>
      <use xlink:href="#SimHei-72" x="50"/>
      <use xlink:href="#SimHei-61" x="100"/>
      <use xlink:href="#SimHei-6e" x="150"/>
      <use xlink:href="#SimHei-73" x="200"/>
      <use xlink:href="#SimHei-66" x="250"/>
      <use xlink:href="#SimHei-6f" x="300"/>
      <use xlink:href="#SimHei-72" x="350"/>
      <use xlink:href="#SimHei-6d" x="400"/>
      <use xlink:href="#SimHei-65" x="450"/>
      <use xlink:href="#SimHei-72" x="500"/>
      <use xlink:href="#SimHei-2d" x="550"/>
      <use xlink:href="#SimHei-4c" x="600"/>
      <use xlink:href="#SimHei-73" x="650"/>
      <use xlink:href="#SimHei-74" x="700"/>
      <use xlink:href="#SimHei-6d" x="750"/>
     </g>
    </g>
    <g id="line2d_29">
     <path d="M 174.6 474.84 
L 188.6 474.84 
L 202.6 474.84 
" style="fill: none; stroke-dasharray: 6.4,1.6,1,1.6; stroke-dashoffset: 0; stroke: #2ca02c"/>
    </g>
    <g id="text_16">
     <!-- LSTM -->
     <g transform="translate(213.8 479.74) scale(0.14 -0.14)">
      <defs>
       <path id="SimHei-53" d="M 2900 1325 
Q 2900 750 2537 412 
Q 2175 75 1550 75 
Q 925 75 575 425 
Q 225 775 225 1300 
L 225 1475 
L 800 1475 
L 800 1325 
Q 800 950 1025 750 
Q 1250 550 1550 550 
Q 1950 550 2137 762 
Q 2325 975 2325 1275 
Q 2325 1525 2100 1737 
Q 1875 1950 1450 2125 
Q 850 2350 587 2625 
Q 325 2900 325 3275 
Q 325 3800 687 4125 
Q 1050 4450 1550 4450 
Q 2200 4450 2487 4062 
Q 2775 3675 2775 3225 
L 2200 3225 
Q 2225 3500 2050 3725 
Q 1875 3950 1550 3950 
Q 1250 3950 1075 3787 
Q 900 3625 900 3350 
Q 900 3125 1037 2962 
Q 1175 2800 1750 2575 
Q 2300 2350 2600 2037 
Q 2900 1725 2900 1325 
z
" transform="scale(0.015625)"/>
       <path id="SimHei-4d" d="M 2925 125 
L 2425 125 
L 2425 3175 
L 2375 3175 
L 1775 125 
L 1375 125 
L 775 3175 
L 725 3175 
L 725 125 
L 225 125 
L 225 4400 
L 1000 4400 
L 1550 1575 
L 1600 1575 
L 2150 4400 
L 2925 4400 
L 2925 125 
z
" transform="scale(0.015625)"/>
      </defs>
      <use xlink:href="#SimHei-4c"/>
      <use xlink:href="#SimHei-53" x="50"/>
      <use xlink:href="#SimHei-54" x="100"/>
      <use xlink:href="#SimHei-4d" x="150"/>
     </g>
    </g>
    <g id="line2d_30">
     <path d="M 174.6 493.39 
L 188.6 493.39 
L 202.6 493.39 
" style="fill: none; stroke: #ff0000; stroke-linecap: square"/>
     <g>
      <use xlink:href="#mccb4a50108" x="188.6" y="493.39" style="fill: #ff0000; stroke: #ff0000"/>
     </g>
    </g>
    <g id="text_17">
     <!-- True Values -->
     <g transform="translate(213.8 498.29) scale(0.14 -0.14)">
      <use xlink:href="#SimHei-54"/>
      <use xlink:href="#SimHei-72" x="50"/>
      <use xlink:href="#SimHei-75" x="100"/>
      <use xlink:href="#SimHei-65" x="150"/>
      <use xlink:href="#SimHei-20" x="200"/>
      <use xlink:href="#SimHei-56" x="250"/>
      <use xlink:href="#SimHei-61" x="300"/>
      <use xlink:href="#SimHei-6c" x="350"/>
      <use xlink:href="#SimHei-75" x="400"/>
      <use xlink:href="#SimHei-65" x="450"/>
      <use xlink:href="#SimHei-73" x="500"/>
     </g>
    </g>
   </g>
  </g>
 </g>
 <defs>
  <clipPath id="p808e4835b3">
   <rect x="162" y="69.12" width="1004.4" height="443.52"/>
  </clipPath>
 </defs>
</svg>
