<?xml version="1.0" encoding="utf-8" standalone="no"?>
<!DOCTYPE svg PUBLIC "-//W3C//DTD SVG 1.1//EN"
  "http://www.w3.org/Graphics/SVG/1.1/DTD/svg11.dtd">
<svg xmlns:xlink="http://www.w3.org/1999/xlink" width="1296pt" height="576pt" viewBox="0 0 1296 576" xmlns="http://www.w3.org/2000/svg" version="1.1">
 <metadata>
  <rdf:RDF xmlns:dc="http://purl.org/dc/elements/1.1/" xmlns:cc="http://creativecommons.org/ns#" xmlns:rdf="http://www.w3.org/1999/02/22-rdf-syntax-ns#">
   <cc:Work>
    <dc:type rdf:resource="http://purl.org/dc/dcmitype/StillImage"/>
    <dc:date>2024-06-22T10:37:15.701051</dc:date>
    <dc:format>image/svg+xml</dc:format>
    <dc:creator>
     <cc:Agent>
      <dc:title>Matplotlib v3.6.2, https://matplotlib.org/</dc:title>
     </cc:Agent>
    </dc:creator>
   </cc:Work>
  </rdf:RDF>
 </metadata>
 <defs>
  <style type="text/css">*{stroke-linejoin: round; stroke-linecap: butt}</style>
 </defs>
 <g id="figure_1">
  <g id="patch_1">
   <path d="M 0 576 
L 1296 576 
L 1296 0 
L 0 0 
z
" style="fill: #ffffff"/>
  </g>
  <g id="axes_1">
   <g id="patch_2">
    <path d="M 162 512.64 
L 1166.4 512.64 
L 1166.4 69.12 
L 162 69.12 
z
" style="fill: #ffffff"/>
   </g>
   <g id="matplotlib.axis_1">
    <g id="xtick_1">
     <g id="line2d_1">
      <path d="M 207.654545 512.64 
L 207.654545 69.12 
" clip-path="url(#p1f84bfbe81)" style="fill: none; stroke: #b0b0b0; stroke-width: 0.8; stroke-linecap: square"/>
     </g>
     <g id="line2d_2">
      <defs>
       <path id="mebc5ce3111" d="M 0 0 
L 0 3.5 
" style="stroke: #000000; stroke-width: 0.8"/>
      </defs>
      <g>
       <use xlink:href="#mebc5ce3111" x="207.654545" y="512.64" style="stroke: #000000; stroke-width: 0.8"/>
      </g>
     </g>
     <g id="text_1">
      <!-- 0 -->
      <g transform="translate(204.154545 529.265) scale(0.14 -0.14)">
       <defs>
        <path id="SimHei-30" d="M 225 2537 
Q 250 3200 412 3587 
Q 575 3975 875 4225 
Q 1175 4475 1612 4475 
Q 2050 4475 2375 4112 
Q 2700 3750 2800 3200 
Q 2900 2650 2862 1937 
Q 2825 1225 2612 775 
Q 2400 325 1975 150 
Q 1550 -25 1125 187 
Q 700 400 525 750 
Q 350 1100 275 1487 
Q 200 1875 225 2537 
z
M 750 2687 
Q 675 2000 800 1462 
Q 925 925 1212 700 
Q 1500 475 1800 612 
Q 2100 750 2237 1162 
Q 2375 1575 2375 2062 
Q 2375 2550 2337 2950 
Q 2300 3350 2112 3675 
Q 1925 4000 1612 4012 
Q 1300 4025 1062 3700 
Q 825 3375 750 2687 
z
" transform="scale(0.015625)"/>
       </defs>
       <use xlink:href="#SimHei-30"/>
      </g>
     </g>
    </g>
    <g id="xtick_2">
     <g id="line2d_3">
      <path d="M 322.943802 512.64 
L 322.943802 69.12 
" clip-path="url(#p1f84bfbe81)" style="fill: none; stroke: #b0b0b0; stroke-width: 0.8; stroke-linecap: square"/>
     </g>
     <g id="line2d_4">
      <g>
       <use xlink:href="#mebc5ce3111" x="322.943802" y="512.64" style="stroke: #000000; stroke-width: 0.8"/>
      </g>
     </g>
     <g id="text_2">
      <!-- 25 -->
      <g transform="translate(315.943802 529.265) scale(0.14 -0.14)">
       <defs>
        <path id="SimHei-32" d="M 300 250 
Q 325 625 650 925 
Q 975 1225 1475 1862 
Q 1975 2500 2125 2850 
Q 2275 3200 2237 3450 
Q 2200 3700 2000 3862 
Q 1800 4025 1537 4000 
Q 1275 3975 1037 3800 
Q 800 3625 675 3275 
L 200 3350 
Q 400 3925 712 4187 
Q 1025 4450 1450 4475 
Q 1700 4500 1900 4462 
Q 2100 4425 2312 4287 
Q 2525 4150 2662 3875 
Q 2800 3600 2762 3212 
Q 2725 2825 2375 2287 
Q 2025 1750 1025 600 
L 2825 600 
L 2825 150 
L 300 150 
L 300 250 
z
" transform="scale(0.015625)"/>
        <path id="SimHei-35" d="M 550 1325 
Q 725 650 1150 575 
Q 1575 500 1837 662 
Q 2100 825 2212 1087 
Q 2325 1350 2312 1675 
Q 2300 2000 2137 2225 
Q 1975 2450 1725 2525 
Q 1475 2600 1162 2525 
Q 850 2450 650 2175 
L 225 2225 
Q 275 2375 700 4375 
L 2675 4375 
L 2675 3925 
L 1075 3925 
Q 950 3250 825 2850 
Q 1200 3025 1525 3012 
Q 1850 3000 2150 2862 
Q 2450 2725 2587 2487 
Q 2725 2250 2787 2012 
Q 2850 1775 2837 1500 
Q 2825 1225 2725 937 
Q 2625 650 2425 462 
Q 2225 275 1937 162 
Q 1650 50 1275 75 
Q 900 100 562 350 
Q 225 600 100 1200 
L 550 1325 
z
" transform="scale(0.015625)"/>
       </defs>
       <use xlink:href="#SimHei-32"/>
       <use xlink:href="#SimHei-35" x="50"/>
      </g>
     </g>
    </g>
    <g id="xtick_3">
     <g id="line2d_5">
      <path d="M 438.233058 512.64 
L 438.233058 69.12 
" clip-path="url(#p1f84bfbe81)" style="fill: none; stroke: #b0b0b0; stroke-width: 0.8; stroke-linecap: square"/>
     </g>
     <g id="line2d_6">
      <g>
       <use xlink:href="#mebc5ce3111" x="438.233058" y="512.64" style="stroke: #000000; stroke-width: 0.8"/>
      </g>
     </g>
     <g id="text_3">
      <!-- 50 -->
      <g transform="translate(431.233058 529.265) scale(0.14 -0.14)">
       <use xlink:href="#SimHei-35"/>
       <use xlink:href="#SimHei-30" x="50"/>
      </g>
     </g>
    </g>
    <g id="xtick_4">
     <g id="line2d_7">
      <path d="M 553.522314 512.64 
L 553.522314 69.12 
" clip-path="url(#p1f84bfbe81)" style="fill: none; stroke: #b0b0b0; stroke-width: 0.8; stroke-linecap: square"/>
     </g>
     <g id="line2d_8">
      <g>
       <use xlink:href="#mebc5ce3111" x="553.522314" y="512.64" style="stroke: #000000; stroke-width: 0.8"/>
      </g>
     </g>
     <g id="text_4">
      <!-- 75 -->
      <g transform="translate(546.522314 529.265) scale(0.14 -0.14)">
       <defs>
        <path id="SimHei-37" d="M 850 150 
Q 1300 2050 2425 3925 
L 275 3925 
L 275 4375 
L 2950 4375 
L 2950 3950 
Q 1775 2050 1400 150 
L 850 150 
z
" transform="scale(0.015625)"/>
       </defs>
       <use xlink:href="#SimHei-37"/>
       <use xlink:href="#SimHei-35" x="50"/>
      </g>
     </g>
    </g>
    <g id="xtick_5">
     <g id="line2d_9">
      <path d="M 668.81157 512.64 
L 668.81157 69.12 
" clip-path="url(#p1f84bfbe81)" style="fill: none; stroke: #b0b0b0; stroke-width: 0.8; stroke-linecap: square"/>
     </g>
     <g id="line2d_10">
      <g>
       <use xlink:href="#mebc5ce3111" x="668.81157" y="512.64" style="stroke: #000000; stroke-width: 0.8"/>
      </g>
     </g>
     <g id="text_5">
      <!-- 100 -->
      <g transform="translate(658.31157 529.265) scale(0.14 -0.14)">
       <defs>
        <path id="SimHei-31" d="M 1400 3600 
Q 1075 3275 575 2975 
L 575 3450 
Q 1200 3875 1600 4450 
L 1900 4450 
L 1900 150 
L 1400 150 
L 1400 3600 
z
" transform="scale(0.015625)"/>
       </defs>
       <use xlink:href="#SimHei-31"/>
       <use xlink:href="#SimHei-30" x="50"/>
       <use xlink:href="#SimHei-30" x="100"/>
      </g>
     </g>
    </g>
    <g id="xtick_6">
     <g id="line2d_11">
      <path d="M 784.100826 512.64 
L 784.100826 69.12 
" clip-path="url(#p1f84bfbe81)" style="fill: none; stroke: #b0b0b0; stroke-width: 0.8; stroke-linecap: square"/>
     </g>
     <g id="line2d_12">
      <g>
       <use xlink:href="#mebc5ce3111" x="784.100826" y="512.64" style="stroke: #000000; stroke-width: 0.8"/>
      </g>
     </g>
     <g id="text_6">
      <!-- 125 -->
      <g transform="translate(773.600826 529.265) scale(0.14 -0.14)">
       <use xlink:href="#SimHei-31"/>
       <use xlink:href="#SimHei-32" x="50"/>
       <use xlink:href="#SimHei-35" x="100"/>
      </g>
     </g>
    </g>
    <g id="xtick_7">
     <g id="line2d_13">
      <path d="M 899.390083 512.64 
L 899.390083 69.12 
" clip-path="url(#p1f84bfbe81)" style="fill: none; stroke: #b0b0b0; stroke-width: 0.8; stroke-linecap: square"/>
     </g>
     <g id="line2d_14">
      <g>
       <use xlink:href="#mebc5ce3111" x="899.390083" y="512.64" style="stroke: #000000; stroke-width: 0.8"/>
      </g>
     </g>
     <g id="text_7">
      <!-- 150 -->
      <g transform="translate(888.890083 529.265) scale(0.14 -0.14)">
       <use xlink:href="#SimHei-31"/>
       <use xlink:href="#SimHei-35" x="50"/>
       <use xlink:href="#SimHei-30" x="100"/>
      </g>
     </g>
    </g>
    <g id="xtick_8">
     <g id="line2d_15">
      <path d="M 1014.679339 512.64 
L 1014.679339 69.12 
" clip-path="url(#p1f84bfbe81)" style="fill: none; stroke: #b0b0b0; stroke-width: 0.8; stroke-linecap: square"/>
     </g>
     <g id="line2d_16">
      <g>
       <use xlink:href="#mebc5ce3111" x="1014.679339" y="512.64" style="stroke: #000000; stroke-width: 0.8"/>
      </g>
     </g>
     <g id="text_8">
      <!-- 175 -->
      <g transform="translate(1004.179339 529.265) scale(0.14 -0.14)">
       <use xlink:href="#SimHei-31"/>
       <use xlink:href="#SimHei-37" x="50"/>
       <use xlink:href="#SimHei-35" x="100"/>
      </g>
     </g>
    </g>
    <g id="xtick_9">
     <g id="line2d_17">
      <path d="M 1129.968595 512.64 
L 1129.968595 69.12 
" clip-path="url(#p1f84bfbe81)" style="fill: none; stroke: #b0b0b0; stroke-width: 0.8; stroke-linecap: square"/>
     </g>
     <g id="line2d_18">
      <g>
       <use xlink:href="#mebc5ce3111" x="1129.968595" y="512.64" style="stroke: #000000; stroke-width: 0.8"/>
      </g>
     </g>
     <g id="text_9">
      <!-- 200 -->
      <g transform="translate(1119.468595 529.265) scale(0.14 -0.14)">
       <use xlink:href="#SimHei-32"/>
       <use xlink:href="#SimHei-30" x="50"/>
       <use xlink:href="#SimHei-30" x="100"/>
      </g>
     </g>
    </g>
   </g>
   <g id="matplotlib.axis_2">
    <g id="ytick_1">
     <g id="line2d_19">
      <path d="M 162 478.931903 
L 1166.4 478.931903 
" clip-path="url(#p1f84bfbe81)" style="fill: none; stroke: #b0b0b0; stroke-width: 0.8; stroke-linecap: square"/>
     </g>
     <g id="line2d_20">
      <defs>
       <path id="mfcac4db513" d="M 0 0 
L -3.5 0 
" style="stroke: #000000; stroke-width: 0.8"/>
      </defs>
      <g>
       <use xlink:href="#mfcac4db513" x="162" y="478.931903" style="stroke: #000000; stroke-width: 0.8"/>
      </g>
     </g>
     <g id="text_10">
      <!-- 10 -->
      <g transform="translate(141 483.744403) scale(0.14 -0.14)">
       <use xlink:href="#SimHei-31"/>
       <use xlink:href="#SimHei-30" x="50"/>
      </g>
     </g>
    </g>
    <g id="ytick_2">
     <g id="line2d_21">
      <path d="M 162 409.877102 
L 1166.4 409.877102 
" clip-path="url(#p1f84bfbe81)" style="fill: none; stroke: #b0b0b0; stroke-width: 0.8; stroke-linecap: square"/>
     </g>
     <g id="line2d_22">
      <g>
       <use xlink:href="#mfcac4db513" x="162" y="409.877102" style="stroke: #000000; stroke-width: 0.8"/>
      </g>
     </g>
     <g id="text_11">
      <!-- 20 -->
      <g transform="translate(141 414.689602) scale(0.14 -0.14)">
       <use xlink:href="#SimHei-32"/>
       <use xlink:href="#SimHei-30" x="50"/>
      </g>
     </g>
    </g>
    <g id="ytick_3">
     <g id="line2d_23">
      <path d="M 162 340.822301 
L 1166.4 340.822301 
" clip-path="url(#p1f84bfbe81)" style="fill: none; stroke: #b0b0b0; stroke-width: 0.8; stroke-linecap: square"/>
     </g>
     <g id="line2d_24">
      <g>
       <use xlink:href="#mfcac4db513" x="162" y="340.822301" style="stroke: #000000; stroke-width: 0.8"/>
      </g>
     </g>
     <g id="text_12">
      <!-- 30 -->
      <g transform="translate(141 345.634801) scale(0.14 -0.14)">
       <defs>
        <path id="SimHei-33" d="M 250 1225 
L 700 1300 
Q 800 975 1025 762 
Q 1250 550 1587 562 
Q 1925 575 2125 837 
Q 2325 1100 2300 1437 
Q 2275 1775 2037 1962 
Q 1800 2150 1275 2225 
L 1275 2550 
Q 1800 2600 2037 2825 
Q 2275 3050 2250 3412 
Q 2225 3775 1925 3937 
Q 1625 4100 1287 3975 
Q 950 3850 750 3275 
L 300 3350 
Q 450 3800 712 4100 
Q 975 4400 1425 4450 
Q 1875 4500 2212 4337 
Q 2550 4175 2687 3837 
Q 2825 3500 2725 3100 
Q 2625 2700 2150 2400 
Q 2500 2250 2687 1950 
Q 2875 1650 2812 1162 
Q 2750 675 2375 375 
Q 2000 75 1525 87 
Q 1050 100 700 387 
Q 350 675 250 1225 
z
" transform="scale(0.015625)"/>
       </defs>
       <use xlink:href="#SimHei-33"/>
       <use xlink:href="#SimHei-30" x="50"/>
      </g>
     </g>
    </g>
    <g id="ytick_4">
     <g id="line2d_25">
      <path d="M 162 271.767501 
L 1166.4 271.767501 
" clip-path="url(#p1f84bfbe81)" style="fill: none; stroke: #b0b0b0; stroke-width: 0.8; stroke-linecap: square"/>
     </g>
     <g id="line2d_26">
      <g>
       <use xlink:href="#mfcac4db513" x="162" y="271.767501" style="stroke: #000000; stroke-width: 0.8"/>
      </g>
     </g>
     <g id="text_13">
      <!-- 40 -->
      <g transform="translate(141 276.580001) scale(0.14 -0.14)">
       <defs>
        <path id="SimHei-34" d="M 2000 1100 
L 75 1100 
L 75 1525 
L 2100 4450 
L 2475 4450 
L 2475 1525 
L 3075 1525 
L 3075 1100 
L 2475 1100 
L 2475 150 
L 2000 150 
L 2000 1100 
z
M 2000 1525 
L 2000 3500 
L 600 1525 
L 2000 1525 
z
" transform="scale(0.015625)"/>
       </defs>
       <use xlink:href="#SimHei-34"/>
       <use xlink:href="#SimHei-30" x="50"/>
      </g>
     </g>
    </g>
    <g id="ytick_5">
     <g id="line2d_27">
      <path d="M 162 202.7127 
L 1166.4 202.7127 
" clip-path="url(#p1f84bfbe81)" style="fill: none; stroke: #b0b0b0; stroke-width: 0.8; stroke-linecap: square"/>
     </g>
     <g id="line2d_28">
      <g>
       <use xlink:href="#mfcac4db513" x="162" y="202.7127" style="stroke: #000000; stroke-width: 0.8"/>
      </g>
     </g>
     <g id="text_14">
      <!-- 50 -->
      <g transform="translate(141 207.5252) scale(0.14 -0.14)">
       <use xlink:href="#SimHei-35"/>
       <use xlink:href="#SimHei-30" x="50"/>
      </g>
     </g>
    </g>
    <g id="ytick_6">
     <g id="line2d_29">
      <path d="M 162 133.657899 
L 1166.4 133.657899 
" clip-path="url(#p1f84bfbe81)" style="fill: none; stroke: #b0b0b0; stroke-width: 0.8; stroke-linecap: square"/>
     </g>
     <g id="line2d_30">
      <g>
       <use xlink:href="#mfcac4db513" x="162" y="133.657899" style="stroke: #000000; stroke-width: 0.8"/>
      </g>
     </g>
     <g id="text_15">
      <!-- 60 -->
      <g transform="translate(141 138.470399) scale(0.14 -0.14)">
       <defs>
        <path id="SimHei-36" d="M 250 1612 
Q 275 1975 387 2225 
Q 500 2475 725 2850 
L 1750 4450 
L 2325 4450 
L 1275 2800 
Q 1950 2975 2350 2750 
Q 2750 2525 2887 2237 
Q 3025 1950 3037 1612 
Q 3050 1275 2937 950 
Q 2825 625 2537 362 
Q 2250 100 1737 75 
Q 1225 50 862 262 
Q 500 475 362 862 
Q 225 1250 250 1612 
z
M 1025 787 
Q 1250 550 1625 525 
Q 2000 500 2250 775 
Q 2500 1050 2500 1575 
Q 2500 2100 2187 2300 
Q 1875 2500 1487 2450 
Q 1100 2400 925 2075 
Q 750 1750 775 1387 
Q 800 1025 1025 787 
z
" transform="scale(0.015625)"/>
       </defs>
       <use xlink:href="#SimHei-36"/>
       <use xlink:href="#SimHei-30" x="50"/>
      </g>
     </g>
    </g>
    <g id="text_16">
     <!-- 充电量(Ah) -->
     <g transform="translate(135 330.88) rotate(-90) scale(0.16 -0.16)">
      <defs>
       <path id="SimHei-5145" d="M 3325 5175 
Q 3425 4825 3600 4300 
L 4900 4300 
Q 5425 4300 5775 4325 
L 5775 3825 
Q 5525 3850 4925 3850 
L 2675 3850 
Q 2850 3700 3100 3550 
Q 2775 3400 1875 2675 
L 4475 2750 
Q 4275 2975 3900 3275 
Q 4150 3450 4275 3600 
Q 5250 2775 5625 2350 
Q 5400 2200 5200 1975 
Q 5000 2225 4800 2425 
Q 4475 2400 4100 2375 
L 4100 325 
Q 4100 0 4425 0 
L 5125 0 
Q 5325 0 5375 175 
Q 5425 350 5475 800 
Q 5850 625 6075 600 
Q 5875 -250 5700 -350 
Q 5525 -450 5275 -450 
L 4225 -450 
Q 3650 -450 3650 75 
L 3650 2325 
L 2650 2250 
Q 2675 -75 800 -650 
Q 650 -375 400 -225 
Q 2225 275 2175 2200 
Q 1550 2150 1175 2050 
Q 1100 2450 1025 2725 
Q 1575 2875 1900 3200 
Q 2225 3525 2475 3850 
L 1450 3850 
Q 1025 3850 575 3825 
L 575 4325 
Q 1025 4300 1450 4300 
L 3000 4300 
Q 2875 4725 2750 5025 
Q 3075 5100 3325 5175 
z
" transform="scale(0.015625)"/>
       <path id="SimHei-7535" d="M 6150 325 
Q 5975 -250 5825 -412 
Q 5675 -575 5325 -575 
L 3375 -575 
Q 2700 -600 2675 100 
L 2675 975 
L 1225 975 
L 1225 500 
L 650 500 
Q 675 750 675 2225 
Q 675 3700 650 4150 
L 2675 4150 
Q 2675 4825 2650 5200 
L 3200 5200 
Q 3175 4875 3175 4150 
L 5200 4150 
Q 5175 3775 5175 2600 
Q 5175 1450 5200 975 
L 3175 975 
L 3175 300 
Q 3175 -150 3650 -150 
L 4975 -150 
Q 5375 -150 5450 25 
Q 5525 200 5575 575 
Q 5825 400 6150 325 
z
M 4675 1400 
L 4675 2400 
L 3175 2400 
L 3175 1400 
L 4675 1400 
z
M 2675 1400 
L 2675 2400 
L 1225 2400 
L 1225 1400 
L 2675 1400 
z
M 4675 2800 
L 4675 3725 
L 3175 3725 
L 3175 2800 
L 4675 2800 
z
M 2675 2800 
L 2675 3725 
L 1225 3725 
L 1225 2800 
L 2675 2800 
z
" transform="scale(0.015625)"/>
       <path id="SimHei-91cf" d="M 5250 2500 
Q 5225 2200 5225 1700 
Q 5225 1225 5250 950 
L 3425 950 
L 3425 625 
L 4575 625 
Q 5000 625 5375 650 
L 5375 275 
Q 5025 300 4575 300 
L 3425 300 
L 3425 -75 
L 5125 -75 
Q 5525 -75 5925 -50 
L 5925 -425 
Q 5525 -400 5125 -400 
L 1275 -400 
Q 900 -400 475 -425 
L 475 -50 
Q 925 -50 1275 -75 
L 2975 -75 
L 2975 300 
L 1725 300 
Q 1350 300 975 250 
L 975 650 
Q 1375 625 1725 625 
L 2975 625 
L 2975 950 
L 1150 950 
Q 1175 1375 1175 1775 
Q 1175 2175 1150 2500 
L 5250 2500 
z
M 5200 4950 
Q 5175 4575 5175 4250 
Q 5175 3925 5200 3400 
L 1200 3400 
Q 1225 3925 1225 4250 
Q 1225 4575 1200 4950 
L 5200 4950 
z
M 4900 3100 
Q 5500 3125 6000 3150 
L 6000 2750 
Q 5500 2775 4925 2775 
L 1650 2775 
Q 975 2775 325 2750 
L 325 3150 
Q 975 3125 1650 3100 
L 4900 3100 
z
M 4725 3700 
L 4725 4025 
L 1675 4025 
L 1675 3700 
L 4725 3700 
z
M 4725 4350 
L 4725 4650 
L 1675 4650 
L 1675 4350 
L 4725 4350 
z
M 4750 1875 
L 4750 2175 
L 3425 2175 
L 3425 1875 
L 4750 1875 
z
M 2975 1875 
L 2975 2175 
L 1650 2175 
L 1650 1875 
L 2975 1875 
z
M 2975 1275 
L 2975 1550 
L 1650 1550 
L 1650 1275 
L 2975 1275 
z
M 4750 1275 
L 4750 1550 
L 3425 1550 
L 3425 1275 
L 4750 1275 
z
" transform="scale(0.015625)"/>
       <path id="SimHei-28" d="M 2975 -200 
L 2700 -475 
Q 2075 125 1762 775 
Q 1450 1425 1450 2250 
Q 1450 3075 1762 3725 
Q 2075 4375 2700 5000 
L 2975 4725 
Q 2400 4175 2112 3587 
Q 1825 3000 1825 2250 
Q 1825 1500 2112 912 
Q 2400 325 2975 -200 
z
" transform="scale(0.015625)"/>
       <path id="SimHei-41" d="M 3075 125 
L 2475 125 
L 2125 1450 
L 1025 1450 
L 675 125 
L 75 125 
L 1325 4450 
L 1825 4450 
L 3075 125 
z
M 2000 1925 
L 1600 3450 
L 1550 3450 
L 1150 1925 
L 2000 1925 
z
" transform="scale(0.015625)"/>
       <path id="SimHei-68" d="M 2800 125 
L 2300 125 
L 2300 1925 
Q 2300 2225 2150 2400 
Q 2000 2575 1750 2575 
Q 1425 2575 1137 2237 
Q 850 1900 850 1400 
L 850 125 
L 350 125 
L 350 4400 
L 850 4400 
L 850 2400 
Q 1050 2675 1287 2825 
Q 1525 2975 1900 2975 
Q 2350 2975 2575 2725 
Q 2800 2475 2800 2100 
L 2800 125 
z
" transform="scale(0.015625)"/>
       <path id="SimHei-29" d="M 1675 2250 
Q 1675 1425 1362 775 
Q 1050 125 425 -475 
L 150 -200 
Q 725 325 1012 912 
Q 1300 1500 1300 2250 
Q 1300 3000 1012 3587 
Q 725 4175 150 4725 
L 425 5000 
Q 1050 4375 1362 3725 
Q 1675 3075 1675 2250 
z
" transform="scale(0.015625)"/>
      </defs>
      <use xlink:href="#SimHei-5145"/>
      <use xlink:href="#SimHei-7535" x="100"/>
      <use xlink:href="#SimHei-91cf" x="200"/>
      <use xlink:href="#SimHei-28" x="300"/>
      <use xlink:href="#SimHei-41" x="350"/>
      <use xlink:href="#SimHei-68" x="400"/>
      <use xlink:href="#SimHei-29" x="450"/>
     </g>
    </g>
   </g>
   <g id="line2d_31">
    <path d="M 207.654545 161.404129 
L 212.266116 106.415782 
L 216.877686 96.250914 
L 221.489256 165.630279 
L 226.100826 128.07828 
L 230.712397 147.455056 
L 235.323967 175.373907 
L 239.935537 174.013537 
L 244.547107 162.039426 
L 249.158678 128.430451 
L 253.770248 127.677745 
L 258.381818 146.191336 
L 262.993388 157.447276 
L 267.604959 139.803772 
L 272.216529 120.019586 
L 276.828099 144.934544 
L 281.439669 107.941898 
L 286.05124 116.815439 
L 290.66281 158.987195 
L 295.27438 107.147756 
L 299.88595 151.536192 
L 304.497521 156.604822 
L 309.109091 140.984619 
L 313.720661 131.040711 
L 318.332231 105.283273 
L 322.943802 157.923755 
L 327.555372 164.283712 
L 332.166942 147.890099 
L 336.778512 135.529283 
L 341.390083 163.765796 
L 346.001653 116.214649 
L 350.613223 92.680793 
L 355.224793 229.416195 
L 359.836364 176.975967 
L 364.447934 220.349302 
L 369.059504 264.779148 
L 373.671074 192.886199 
L 378.282645 122.988945 
L 382.894215 161.203848 
L 387.505785 153.345435 
L 392.117355 233.656149 
L 396.728926 352.126566 
L 401.340496 454.451976 
L 405.952066 456.599579 
L 410.563636 436.967303 
L 415.175207 422.735103 
L 419.786777 463.857243 
L 424.398347 103.529296 
L 429.009917 158.724799 
L 433.621488 106.926797 
L 438.233058 113.259121 
L 442.844628 323.84863 
L 447.456198 110.600496 
L 452.067769 160.257816 
L 456.679339 115.890086 
L 461.290909 116.442537 
L 465.902479 126.35191 
L 470.51405 183.929785 
L 475.12562 141.937578 
L 479.73719 110.420947 
L 484.34876 123.631144 
L 488.960331 181.616456 
L 493.571901 140.093801 
L 498.183471 135.253058 
L 502.795041 173.792551 
L 507.406612 107.437785 
L 512.018182 172.169759 
L 516.629752 108.660068 
L 521.241322 141.626818 
L 525.852893 120.855138 
L 530.464463 145.196966 
L 535.076033 120.779167 
L 539.687603 177.997996 
L 544.299174 110.199987 
L 548.910744 116.559918 
L 553.522314 271.705359 
L 558.133884 276.145567 
L 562.745455 441.448954 
L 567.357025 416.347539 
L 571.968595 439.909035 
L 576.580165 437.678565 
L 581.191736 453.671657 
L 585.803306 429.23316 
L 590.414876 428.604764 
L 595.026446 449.901262 
L 599.638017 432.506364 
L 604.249587 427.638001 
L 608.861157 139.140841 
L 613.472727 141.668255 
L 622.695868 117.084736 
L 627.307438 152.054108 
L 631.919008 101.664787 
L 636.530579 177.500785 
L 641.142149 137.64926 
L 645.753719 160.782634 
L 650.365289 101.333348 
L 654.97686 124.328583 
L 659.58843 159.960859 
L 664.2 184.123138 
L 668.81157 116.207748 
L 673.42314 95.836602 
L 678.034711 147.682917 
L 682.646281 151.51546 
L 687.257851 135.563818 
L 691.869421 149.298807 
L 696.480992 126.386419 
L 701.092562 147.855564 
L 705.704132 122.049788 
L 710.315702 120.544404 
L 714.927273 138.160275 
L 719.538843 179.827944 
L 724.150413 173.350606 
L 728.761983 170.767953 
L 733.373554 128.043745 
L 737.985124 113.694164 
L 742.596694 256.140396 
L 747.208264 247.784771 
L 751.819835 265.442078 
L 756.431405 203.617321 
L 761.042975 323.199529 
L 765.654545 447.042396 
L 770.266116 180.615158 
L 774.877686 454.887019 
L 779.489256 453.202086 
L 784.100826 435.717413 
L 788.712397 434.750637 
L 793.323967 445.523188 
L 797.935537 204.590986 
L 802.547107 241.528392 
L 807.158678 222.780013 
L 811.770248 193.045017 
L 816.381818 139.734729 
L 820.993388 92.432174 
L 825.604959 162.7714 
L 830.216529 128.471887 
L 834.828099 116.463242 
L 839.439669 291.869348 
L 844.05124 385.991049 
L 848.66281 264.502948 
L 853.27438 120.516771 
L 857.88595 131.372176 
L 862.497521 137.013963 
L 867.109091 203.292757 
L 871.720661 348.218065 
L 876.332231 352.969046 
L 880.943802 397.59916 
L 885.555372 245.291892 
L 890.166942 143.518934 
L 894.778512 151.605235 
L 899.390083 121.241843 
L 904.001653 125.440387 
L 908.613223 268.49431 
L 913.224793 169.870233 
L 917.836364 236.618606 
L 922.447934 177.597461 
L 927.059504 178.564224 
L 931.671074 139.4447 
L 936.282645 97.41103 
L 940.894215 138.118838 
L 945.505785 135.211621 
L 950.117355 345.186565 
L 954.728926 159.912521 
L 959.340496 163.413599 
L 963.952066 129.252199 
L 968.563636 170.236233 
L 973.175207 353.659584 
L 977.786777 486.237898 
L 982.398347 344.095505 
L 987.009917 151.791686 
L 991.621488 142.013523 
L 996.233058 131.69674 
L 1000.844628 106.070513 
L 1005.456198 120.295785 
L 1010.067769 151.674304 
L 1014.679339 261.609535 
L 1019.290909 242.218956 
L 1023.902479 247.909054 
L 1028.51405 259.945306 
L 1033.12562 248.0748 
L 1037.73719 448.748048 
L 1042.34876 412.521897 
L 1046.960331 433.473127 
L 1051.571901 433.576705 
L 1056.183471 448.361343 
L 1060.795041 445.730358 
L 1065.406612 456.647917 
L 1070.018182 446.338035 
L 1074.629752 433.272872 
L 1079.241322 143.650119 
L 1083.852893 155.230622 
L 1088.464463 123.631144 
L 1093.076033 164.891377 
L 1097.687603 142.814567 
L 1102.299174 181.126173 
L 1106.910744 166.320816 
L 1111.522314 152.799885 
L 1116.133884 92.7084 
L 1120.745455 118.617753 
L 1120.745455 118.617753 
" clip-path="url(#p1f84bfbe81)" style="fill: none; stroke: #ff0000; stroke-width: 1.5; stroke-linecap: square"/>
    <defs>
     <path id="m96be2c7349" d="M 0 2 
C 0.530406 2 1.03916 1.789267 1.414214 1.414214 
C 1.789267 1.03916 2 0.530406 2 0 
C 2 -0.530406 1.789267 -1.03916 1.414214 -1.414214 
C 1.03916 -1.789267 0.530406 -2 0 -2 
C -0.530406 -2 -1.03916 -1.789267 -1.414214 -1.414214 
C -1.789267 -1.03916 -2 -0.530406 -2 0 
C -2 0.530406 -1.789267 1.03916 -1.414214 1.414214 
C -1.03916 1.789267 -0.530406 2 0 2 
z
" style="stroke: #ff0000"/>
    </defs>
    <g clip-path="url(#p1f84bfbe81)">
     <use xlink:href="#m96be2c7349" x="207.654545" y="161.404129" style="fill: #ff0000; stroke: #ff0000"/>
     <use xlink:href="#m96be2c7349" x="212.266116" y="106.415782" style="fill: #ff0000; stroke: #ff0000"/>
     <use xlink:href="#m96be2c7349" x="216.877686" y="96.250914" style="fill: #ff0000; stroke: #ff0000"/>
     <use xlink:href="#m96be2c7349" x="221.489256" y="165.630279" style="fill: #ff0000; stroke: #ff0000"/>
     <use xlink:href="#m96be2c7349" x="226.100826" y="128.07828" style="fill: #ff0000; stroke: #ff0000"/>
     <use xlink:href="#m96be2c7349" x="230.712397" y="147.455056" style="fill: #ff0000; stroke: #ff0000"/>
     <use xlink:href="#m96be2c7349" x="235.323967" y="175.373907" style="fill: #ff0000; stroke: #ff0000"/>
     <use xlink:href="#m96be2c7349" x="239.935537" y="174.013537" style="fill: #ff0000; stroke: #ff0000"/>
     <use xlink:href="#m96be2c7349" x="244.547107" y="162.039426" style="fill: #ff0000; stroke: #ff0000"/>
     <use xlink:href="#m96be2c7349" x="249.158678" y="128.430451" style="fill: #ff0000; stroke: #ff0000"/>
     <use xlink:href="#m96be2c7349" x="253.770248" y="127.677745" style="fill: #ff0000; stroke: #ff0000"/>
     <use xlink:href="#m96be2c7349" x="258.381818" y="146.191336" style="fill: #ff0000; stroke: #ff0000"/>
     <use xlink:href="#m96be2c7349" x="262.993388" y="157.447276" style="fill: #ff0000; stroke: #ff0000"/>
     <use xlink:href="#m96be2c7349" x="267.604959" y="139.803772" style="fill: #ff0000; stroke: #ff0000"/>
     <use xlink:href="#m96be2c7349" x="272.216529" y="120.019586" style="fill: #ff0000; stroke: #ff0000"/>
     <use xlink:href="#m96be2c7349" x="276.828099" y="144.934544" style="fill: #ff0000; stroke: #ff0000"/>
     <use xlink:href="#m96be2c7349" x="281.439669" y="107.941898" style="fill: #ff0000; stroke: #ff0000"/>
     <use xlink:href="#m96be2c7349" x="286.05124" y="116.815439" style="fill: #ff0000; stroke: #ff0000"/>
     <use xlink:href="#m96be2c7349" x="290.66281" y="158.987195" style="fill: #ff0000; stroke: #ff0000"/>
     <use xlink:href="#m96be2c7349" x="295.27438" y="107.147756" style="fill: #ff0000; stroke: #ff0000"/>
     <use xlink:href="#m96be2c7349" x="299.88595" y="151.536192" style="fill: #ff0000; stroke: #ff0000"/>
     <use xlink:href="#m96be2c7349" x="304.497521" y="156.604822" style="fill: #ff0000; stroke: #ff0000"/>
     <use xlink:href="#m96be2c7349" x="309.109091" y="140.984619" style="fill: #ff0000; stroke: #ff0000"/>
     <use xlink:href="#m96be2c7349" x="313.720661" y="131.040711" style="fill: #ff0000; stroke: #ff0000"/>
     <use xlink:href="#m96be2c7349" x="318.332231" y="105.283273" style="fill: #ff0000; stroke: #ff0000"/>
     <use xlink:href="#m96be2c7349" x="322.943802" y="157.923755" style="fill: #ff0000; stroke: #ff0000"/>
     <use xlink:href="#m96be2c7349" x="327.555372" y="164.283712" style="fill: #ff0000; stroke: #ff0000"/>
     <use xlink:href="#m96be2c7349" x="332.166942" y="147.890099" style="fill: #ff0000; stroke: #ff0000"/>
     <use xlink:href="#m96be2c7349" x="336.778512" y="135.529283" style="fill: #ff0000; stroke: #ff0000"/>
     <use xlink:href="#m96be2c7349" x="341.390083" y="163.765796" style="fill: #ff0000; stroke: #ff0000"/>
     <use xlink:href="#m96be2c7349" x="346.001653" y="116.214649" style="fill: #ff0000; stroke: #ff0000"/>
     <use xlink:href="#m96be2c7349" x="350.613223" y="92.680793" style="fill: #ff0000; stroke: #ff0000"/>
     <use xlink:href="#m96be2c7349" x="355.224793" y="229.416195" style="fill: #ff0000; stroke: #ff0000"/>
     <use xlink:href="#m96be2c7349" x="359.836364" y="176.975967" style="fill: #ff0000; stroke: #ff0000"/>
     <use xlink:href="#m96be2c7349" x="364.447934" y="220.349302" style="fill: #ff0000; stroke: #ff0000"/>
     <use xlink:href="#m96be2c7349" x="369.059504" y="264.779148" style="fill: #ff0000; stroke: #ff0000"/>
     <use xlink:href="#m96be2c7349" x="373.671074" y="192.886199" style="fill: #ff0000; stroke: #ff0000"/>
     <use xlink:href="#m96be2c7349" x="378.282645" y="122.988945" style="fill: #ff0000; stroke: #ff0000"/>
     <use xlink:href="#m96be2c7349" x="382.894215" y="161.203848" style="fill: #ff0000; stroke: #ff0000"/>
     <use xlink:href="#m96be2c7349" x="387.505785" y="153.345435" style="fill: #ff0000; stroke: #ff0000"/>
     <use xlink:href="#m96be2c7349" x="392.117355" y="233.656149" style="fill: #ff0000; stroke: #ff0000"/>
     <use xlink:href="#m96be2c7349" x="396.728926" y="352.126566" style="fill: #ff0000; stroke: #ff0000"/>
     <use xlink:href="#m96be2c7349" x="401.340496" y="454.451976" style="fill: #ff0000; stroke: #ff0000"/>
     <use xlink:href="#m96be2c7349" x="405.952066" y="456.599579" style="fill: #ff0000; stroke: #ff0000"/>
     <use xlink:href="#m96be2c7349" x="410.563636" y="436.967303" style="fill: #ff0000; stroke: #ff0000"/>
     <use xlink:href="#m96be2c7349" x="415.175207" y="422.735103" style="fill: #ff0000; stroke: #ff0000"/>
     <use xlink:href="#m96be2c7349" x="419.786777" y="463.857243" style="fill: #ff0000; stroke: #ff0000"/>
     <use xlink:href="#m96be2c7349" x="424.398347" y="103.529296" style="fill: #ff0000; stroke: #ff0000"/>
     <use xlink:href="#m96be2c7349" x="429.009917" y="158.724799" style="fill: #ff0000; stroke: #ff0000"/>
     <use xlink:href="#m96be2c7349" x="433.621488" y="106.926797" style="fill: #ff0000; stroke: #ff0000"/>
     <use xlink:href="#m96be2c7349" x="438.233058" y="113.259121" style="fill: #ff0000; stroke: #ff0000"/>
     <use xlink:href="#m96be2c7349" x="442.844628" y="323.84863" style="fill: #ff0000; stroke: #ff0000"/>
     <use xlink:href="#m96be2c7349" x="447.456198" y="110.600496" style="fill: #ff0000; stroke: #ff0000"/>
     <use xlink:href="#m96be2c7349" x="452.067769" y="160.257816" style="fill: #ff0000; stroke: #ff0000"/>
     <use xlink:href="#m96be2c7349" x="456.679339" y="115.890086" style="fill: #ff0000; stroke: #ff0000"/>
     <use xlink:href="#m96be2c7349" x="461.290909" y="116.442537" style="fill: #ff0000; stroke: #ff0000"/>
     <use xlink:href="#m96be2c7349" x="465.902479" y="126.35191" style="fill: #ff0000; stroke: #ff0000"/>
     <use xlink:href="#m96be2c7349" x="470.51405" y="183.929785" style="fill: #ff0000; stroke: #ff0000"/>
     <use xlink:href="#m96be2c7349" x="475.12562" y="141.937578" style="fill: #ff0000; stroke: #ff0000"/>
     <use xlink:href="#m96be2c7349" x="479.73719" y="110.420947" style="fill: #ff0000; stroke: #ff0000"/>
     <use xlink:href="#m96be2c7349" x="484.34876" y="123.631144" style="fill: #ff0000; stroke: #ff0000"/>
     <use xlink:href="#m96be2c7349" x="488.960331" y="181.616456" style="fill: #ff0000; stroke: #ff0000"/>
     <use xlink:href="#m96be2c7349" x="493.571901" y="140.093801" style="fill: #ff0000; stroke: #ff0000"/>
     <use xlink:href="#m96be2c7349" x="498.183471" y="135.253058" style="fill: #ff0000; stroke: #ff0000"/>
     <use xlink:href="#m96be2c7349" x="502.795041" y="173.792551" style="fill: #ff0000; stroke: #ff0000"/>
     <use xlink:href="#m96be2c7349" x="507.406612" y="107.437785" style="fill: #ff0000; stroke: #ff0000"/>
     <use xlink:href="#m96be2c7349" x="512.018182" y="172.169759" style="fill: #ff0000; stroke: #ff0000"/>
     <use xlink:href="#m96be2c7349" x="516.629752" y="108.660068" style="fill: #ff0000; stroke: #ff0000"/>
     <use xlink:href="#m96be2c7349" x="521.241322" y="141.626818" style="fill: #ff0000; stroke: #ff0000"/>
     <use xlink:href="#m96be2c7349" x="525.852893" y="120.855138" style="fill: #ff0000; stroke: #ff0000"/>
     <use xlink:href="#m96be2c7349" x="530.464463" y="145.196966" style="fill: #ff0000; stroke: #ff0000"/>
     <use xlink:href="#m96be2c7349" x="535.076033" y="120.779167" style="fill: #ff0000; stroke: #ff0000"/>
     <use xlink:href="#m96be2c7349" x="539.687603" y="177.997996" style="fill: #ff0000; stroke: #ff0000"/>
     <use xlink:href="#m96be2c7349" x="544.299174" y="110.199987" style="fill: #ff0000; stroke: #ff0000"/>
     <use xlink:href="#m96be2c7349" x="548.910744" y="116.559918" style="fill: #ff0000; stroke: #ff0000"/>
     <use xlink:href="#m96be2c7349" x="553.522314" y="271.705359" style="fill: #ff0000; stroke: #ff0000"/>
     <use xlink:href="#m96be2c7349" x="558.133884" y="276.145567" style="fill: #ff0000; stroke: #ff0000"/>
     <use xlink:href="#m96be2c7349" x="562.745455" y="441.448954" style="fill: #ff0000; stroke: #ff0000"/>
     <use xlink:href="#m96be2c7349" x="567.357025" y="416.347539" style="fill: #ff0000; stroke: #ff0000"/>
     <use xlink:href="#m96be2c7349" x="571.968595" y="439.909035" style="fill: #ff0000; stroke: #ff0000"/>
     <use xlink:href="#m96be2c7349" x="576.580165" y="437.678565" style="fill: #ff0000; stroke: #ff0000"/>
     <use xlink:href="#m96be2c7349" x="581.191736" y="453.671657" style="fill: #ff0000; stroke: #ff0000"/>
     <use xlink:href="#m96be2c7349" x="585.803306" y="429.23316" style="fill: #ff0000; stroke: #ff0000"/>
     <use xlink:href="#m96be2c7349" x="590.414876" y="428.604764" style="fill: #ff0000; stroke: #ff0000"/>
     <use xlink:href="#m96be2c7349" x="595.026446" y="449.901262" style="fill: #ff0000; stroke: #ff0000"/>
     <use xlink:href="#m96be2c7349" x="599.638017" y="432.506364" style="fill: #ff0000; stroke: #ff0000"/>
     <use xlink:href="#m96be2c7349" x="604.249587" y="427.638001" style="fill: #ff0000; stroke: #ff0000"/>
     <use xlink:href="#m96be2c7349" x="608.861157" y="139.140841" style="fill: #ff0000; stroke: #ff0000"/>
     <use xlink:href="#m96be2c7349" x="613.472727" y="141.668255" style="fill: #ff0000; stroke: #ff0000"/>
     <use xlink:href="#m96be2c7349" x="618.084298" y="129.32817" style="fill: #ff0000; stroke: #ff0000"/>
     <use xlink:href="#m96be2c7349" x="622.695868" y="117.084736" style="fill: #ff0000; stroke: #ff0000"/>
     <use xlink:href="#m96be2c7349" x="627.307438" y="152.054108" style="fill: #ff0000; stroke: #ff0000"/>
     <use xlink:href="#m96be2c7349" x="631.919008" y="101.664787" style="fill: #ff0000; stroke: #ff0000"/>
     <use xlink:href="#m96be2c7349" x="636.530579" y="177.500785" style="fill: #ff0000; stroke: #ff0000"/>
     <use xlink:href="#m96be2c7349" x="641.142149" y="137.64926" style="fill: #ff0000; stroke: #ff0000"/>
     <use xlink:href="#m96be2c7349" x="645.753719" y="160.782634" style="fill: #ff0000; stroke: #ff0000"/>
     <use xlink:href="#m96be2c7349" x="650.365289" y="101.333348" style="fill: #ff0000; stroke: #ff0000"/>
     <use xlink:href="#m96be2c7349" x="654.97686" y="124.328583" style="fill: #ff0000; stroke: #ff0000"/>
     <use xlink:href="#m96be2c7349" x="659.58843" y="159.960859" style="fill: #ff0000; stroke: #ff0000"/>
     <use xlink:href="#m96be2c7349" x="664.2" y="184.123138" style="fill: #ff0000; stroke: #ff0000"/>
     <use xlink:href="#m96be2c7349" x="668.81157" y="116.207748" style="fill: #ff0000; stroke: #ff0000"/>
     <use xlink:href="#m96be2c7349" x="673.42314" y="95.836602" style="fill: #ff0000; stroke: #ff0000"/>
     <use xlink:href="#m96be2c7349" x="678.034711" y="147.682917" style="fill: #ff0000; stroke: #ff0000"/>
     <use xlink:href="#m96be2c7349" x="682.646281" y="151.51546" style="fill: #ff0000; stroke: #ff0000"/>
     <use xlink:href="#m96be2c7349" x="687.257851" y="135.563818" style="fill: #ff0000; stroke: #ff0000"/>
     <use xlink:href="#m96be2c7349" x="691.869421" y="149.298807" style="fill: #ff0000; stroke: #ff0000"/>
     <use xlink:href="#m96be2c7349" x="696.480992" y="126.386419" style="fill: #ff0000; stroke: #ff0000"/>
     <use xlink:href="#m96be2c7349" x="701.092562" y="147.855564" style="fill: #ff0000; stroke: #ff0000"/>
     <use xlink:href="#m96be2c7349" x="705.704132" y="122.049788" style="fill: #ff0000; stroke: #ff0000"/>
     <use xlink:href="#m96be2c7349" x="710.315702" y="120.544404" style="fill: #ff0000; stroke: #ff0000"/>
     <use xlink:href="#m96be2c7349" x="714.927273" y="138.160275" style="fill: #ff0000; stroke: #ff0000"/>
     <use xlink:href="#m96be2c7349" x="719.538843" y="179.827944" style="fill: #ff0000; stroke: #ff0000"/>
     <use xlink:href="#m96be2c7349" x="724.150413" y="173.350606" style="fill: #ff0000; stroke: #ff0000"/>
     <use xlink:href="#m96be2c7349" x="728.761983" y="170.767953" style="fill: #ff0000; stroke: #ff0000"/>
     <use xlink:href="#m96be2c7349" x="733.373554" y="128.043745" style="fill: #ff0000; stroke: #ff0000"/>
     <use xlink:href="#m96be2c7349" x="737.985124" y="113.694164" style="fill: #ff0000; stroke: #ff0000"/>
     <use xlink:href="#m96be2c7349" x="742.596694" y="256.140396" style="fill: #ff0000; stroke: #ff0000"/>
     <use xlink:href="#m96be2c7349" x="747.208264" y="247.784771" style="fill: #ff0000; stroke: #ff0000"/>
     <use xlink:href="#m96be2c7349" x="751.819835" y="265.442078" style="fill: #ff0000; stroke: #ff0000"/>
     <use xlink:href="#m96be2c7349" x="756.431405" y="203.617321" style="fill: #ff0000; stroke: #ff0000"/>
     <use xlink:href="#m96be2c7349" x="761.042975" y="323.199529" style="fill: #ff0000; stroke: #ff0000"/>
     <use xlink:href="#m96be2c7349" x="765.654545" y="447.042396" style="fill: #ff0000; stroke: #ff0000"/>
     <use xlink:href="#m96be2c7349" x="770.266116" y="180.615158" style="fill: #ff0000; stroke: #ff0000"/>
     <use xlink:href="#m96be2c7349" x="774.877686" y="454.887019" style="fill: #ff0000; stroke: #ff0000"/>
     <use xlink:href="#m96be2c7349" x="779.489256" y="453.202086" style="fill: #ff0000; stroke: #ff0000"/>
     <use xlink:href="#m96be2c7349" x="784.100826" y="435.717413" style="fill: #ff0000; stroke: #ff0000"/>
     <use xlink:href="#m96be2c7349" x="788.712397" y="434.750637" style="fill: #ff0000; stroke: #ff0000"/>
     <use xlink:href="#m96be2c7349" x="793.323967" y="445.523188" style="fill: #ff0000; stroke: #ff0000"/>
     <use xlink:href="#m96be2c7349" x="797.935537" y="204.590986" style="fill: #ff0000; stroke: #ff0000"/>
     <use xlink:href="#m96be2c7349" x="802.547107" y="241.528392" style="fill: #ff0000; stroke: #ff0000"/>
     <use xlink:href="#m96be2c7349" x="807.158678" y="222.780013" style="fill: #ff0000; stroke: #ff0000"/>
     <use xlink:href="#m96be2c7349" x="811.770248" y="193.045017" style="fill: #ff0000; stroke: #ff0000"/>
     <use xlink:href="#m96be2c7349" x="816.381818" y="139.734729" style="fill: #ff0000; stroke: #ff0000"/>
     <use xlink:href="#m96be2c7349" x="820.993388" y="92.432174" style="fill: #ff0000; stroke: #ff0000"/>
     <use xlink:href="#m96be2c7349" x="825.604959" y="162.7714" style="fill: #ff0000; stroke: #ff0000"/>
     <use xlink:href="#m96be2c7349" x="830.216529" y="128.471887" style="fill: #ff0000; stroke: #ff0000"/>
     <use xlink:href="#m96be2c7349" x="834.828099" y="116.463242" style="fill: #ff0000; stroke: #ff0000"/>
     <use xlink:href="#m96be2c7349" x="839.439669" y="291.869348" style="fill: #ff0000; stroke: #ff0000"/>
     <use xlink:href="#m96be2c7349" x="844.05124" y="385.991049" style="fill: #ff0000; stroke: #ff0000"/>
     <use xlink:href="#m96be2c7349" x="848.66281" y="264.502948" style="fill: #ff0000; stroke: #ff0000"/>
     <use xlink:href="#m96be2c7349" x="853.27438" y="120.516771" style="fill: #ff0000; stroke: #ff0000"/>
     <use xlink:href="#m96be2c7349" x="857.88595" y="131.372176" style="fill: #ff0000; stroke: #ff0000"/>
     <use xlink:href="#m96be2c7349" x="862.497521" y="137.013963" style="fill: #ff0000; stroke: #ff0000"/>
     <use xlink:href="#m96be2c7349" x="867.109091" y="203.292757" style="fill: #ff0000; stroke: #ff0000"/>
     <use xlink:href="#m96be2c7349" x="871.720661" y="348.218065" style="fill: #ff0000; stroke: #ff0000"/>
     <use xlink:href="#m96be2c7349" x="876.332231" y="352.969046" style="fill: #ff0000; stroke: #ff0000"/>
     <use xlink:href="#m96be2c7349" x="880.943802" y="397.59916" style="fill: #ff0000; stroke: #ff0000"/>
     <use xlink:href="#m96be2c7349" x="885.555372" y="245.291892" style="fill: #ff0000; stroke: #ff0000"/>
     <use xlink:href="#m96be2c7349" x="890.166942" y="143.518934" style="fill: #ff0000; stroke: #ff0000"/>
     <use xlink:href="#m96be2c7349" x="894.778512" y="151.605235" style="fill: #ff0000; stroke: #ff0000"/>
     <use xlink:href="#m96be2c7349" x="899.390083" y="121.241843" style="fill: #ff0000; stroke: #ff0000"/>
     <use xlink:href="#m96be2c7349" x="904.001653" y="125.440387" style="fill: #ff0000; stroke: #ff0000"/>
     <use xlink:href="#m96be2c7349" x="908.613223" y="268.49431" style="fill: #ff0000; stroke: #ff0000"/>
     <use xlink:href="#m96be2c7349" x="913.224793" y="169.870233" style="fill: #ff0000; stroke: #ff0000"/>
     <use xlink:href="#m96be2c7349" x="917.836364" y="236.618606" style="fill: #ff0000; stroke: #ff0000"/>
     <use xlink:href="#m96be2c7349" x="922.447934" y="177.597461" style="fill: #ff0000; stroke: #ff0000"/>
     <use xlink:href="#m96be2c7349" x="927.059504" y="178.564224" style="fill: #ff0000; stroke: #ff0000"/>
     <use xlink:href="#m96be2c7349" x="931.671074" y="139.4447" style="fill: #ff0000; stroke: #ff0000"/>
     <use xlink:href="#m96be2c7349" x="936.282645" y="97.41103" style="fill: #ff0000; stroke: #ff0000"/>
     <use xlink:href="#m96be2c7349" x="940.894215" y="138.118838" style="fill: #ff0000; stroke: #ff0000"/>
     <use xlink:href="#m96be2c7349" x="945.505785" y="135.211621" style="fill: #ff0000; stroke: #ff0000"/>
     <use xlink:href="#m96be2c7349" x="950.117355" y="345.186565" style="fill: #ff0000; stroke: #ff0000"/>
     <use xlink:href="#m96be2c7349" x="954.728926" y="159.912521" style="fill: #ff0000; stroke: #ff0000"/>
     <use xlink:href="#m96be2c7349" x="959.340496" y="163.413599" style="fill: #ff0000; stroke: #ff0000"/>
     <use xlink:href="#m96be2c7349" x="963.952066" y="129.252199" style="fill: #ff0000; stroke: #ff0000"/>
     <use xlink:href="#m96be2c7349" x="968.563636" y="170.236233" style="fill: #ff0000; stroke: #ff0000"/>
     <use xlink:href="#m96be2c7349" x="973.175207" y="353.659584" style="fill: #ff0000; stroke: #ff0000"/>
     <use xlink:href="#m96be2c7349" x="977.786777" y="486.237898" style="fill: #ff0000; stroke: #ff0000"/>
     <use xlink:href="#m96be2c7349" x="982.398347" y="344.095505" style="fill: #ff0000; stroke: #ff0000"/>
     <use xlink:href="#m96be2c7349" x="987.009917" y="151.791686" style="fill: #ff0000; stroke: #ff0000"/>
     <use xlink:href="#m96be2c7349" x="991.621488" y="142.013523" style="fill: #ff0000; stroke: #ff0000"/>
     <use xlink:href="#m96be2c7349" x="996.233058" y="131.69674" style="fill: #ff0000; stroke: #ff0000"/>
     <use xlink:href="#m96be2c7349" x="1000.844628" y="106.070513" style="fill: #ff0000; stroke: #ff0000"/>
     <use xlink:href="#m96be2c7349" x="1005.456198" y="120.295785" style="fill: #ff0000; stroke: #ff0000"/>
     <use xlink:href="#m96be2c7349" x="1010.067769" y="151.674304" style="fill: #ff0000; stroke: #ff0000"/>
     <use xlink:href="#m96be2c7349" x="1014.679339" y="261.609535" style="fill: #ff0000; stroke: #ff0000"/>
     <use xlink:href="#m96be2c7349" x="1019.290909" y="242.218956" style="fill: #ff0000; stroke: #ff0000"/>
     <use xlink:href="#m96be2c7349" x="1023.902479" y="247.909054" style="fill: #ff0000; stroke: #ff0000"/>
     <use xlink:href="#m96be2c7349" x="1028.51405" y="259.945306" style="fill: #ff0000; stroke: #ff0000"/>
     <use xlink:href="#m96be2c7349" x="1033.12562" y="248.0748" style="fill: #ff0000; stroke: #ff0000"/>
     <use xlink:href="#m96be2c7349" x="1037.73719" y="448.748048" style="fill: #ff0000; stroke: #ff0000"/>
     <use xlink:href="#m96be2c7349" x="1042.34876" y="412.521897" style="fill: #ff0000; stroke: #ff0000"/>
     <use xlink:href="#m96be2c7349" x="1046.960331" y="433.473127" style="fill: #ff0000; stroke: #ff0000"/>
     <use xlink:href="#m96be2c7349" x="1051.571901" y="433.576705" style="fill: #ff0000; stroke: #ff0000"/>
     <use xlink:href="#m96be2c7349" x="1056.183471" y="448.361343" style="fill: #ff0000; stroke: #ff0000"/>
     <use xlink:href="#m96be2c7349" x="1060.795041" y="445.730358" style="fill: #ff0000; stroke: #ff0000"/>
     <use xlink:href="#m96be2c7349" x="1065.406612" y="456.647917" style="fill: #ff0000; stroke: #ff0000"/>
     <use xlink:href="#m96be2c7349" x="1070.018182" y="446.338035" style="fill: #ff0000; stroke: #ff0000"/>
     <use xlink:href="#m96be2c7349" x="1074.629752" y="433.272872" style="fill: #ff0000; stroke: #ff0000"/>
     <use xlink:href="#m96be2c7349" x="1079.241322" y="143.650119" style="fill: #ff0000; stroke: #ff0000"/>
     <use xlink:href="#m96be2c7349" x="1083.852893" y="155.230622" style="fill: #ff0000; stroke: #ff0000"/>
     <use xlink:href="#m96be2c7349" x="1088.464463" y="123.631144" style="fill: #ff0000; stroke: #ff0000"/>
     <use xlink:href="#m96be2c7349" x="1093.076033" y="164.891377" style="fill: #ff0000; stroke: #ff0000"/>
     <use xlink:href="#m96be2c7349" x="1097.687603" y="142.814567" style="fill: #ff0000; stroke: #ff0000"/>
     <use xlink:href="#m96be2c7349" x="1102.299174" y="181.126173" style="fill: #ff0000; stroke: #ff0000"/>
     <use xlink:href="#m96be2c7349" x="1106.910744" y="166.320816" style="fill: #ff0000; stroke: #ff0000"/>
     <use xlink:href="#m96be2c7349" x="1111.522314" y="152.799885" style="fill: #ff0000; stroke: #ff0000"/>
     <use xlink:href="#m96be2c7349" x="1116.133884" y="92.7084" style="fill: #ff0000; stroke: #ff0000"/>
     <use xlink:href="#m96be2c7349" x="1120.745455" y="118.617753" style="fill: #ff0000; stroke: #ff0000"/>
    </g>
   </g>
   <g id="line2d_32">
    <path d="M 207.654545 156.071206 
L 212.266116 107.646837 
L 216.877686 93.315695 
L 221.489256 151.962173 
L 226.100826 126.012489 
L 230.712397 145.895775 
L 235.323967 172.131246 
L 239.935537 178.642092 
L 244.547107 164.512601 
L 249.158678 133.615988 
L 253.770248 130.976514 
L 258.381818 148.050128 
L 262.993388 125.568174 
L 267.604959 139.425048 
L 272.216529 119.135749 
L 276.828099 151.275771 
L 281.439669 114.549499 
L 286.05124 110.56907 
L 290.66281 161.266095 
L 295.27438 108.539052 
L 299.88595 148.234525 
L 304.497521 159.867634 
L 309.109091 146.395726 
L 313.720661 137.341292 
L 318.332231 103.412231 
L 322.943802 164.026743 
L 327.555372 185.882673 
L 332.166942 150.132726 
L 336.778512 150.402813 
L 341.390083 149.34488 
L 346.001653 127.257322 
L 350.613223 89.28 
L 355.224793 243.318326 
L 359.836364 193.175517 
L 369.059504 272.347242 
L 373.671074 189.862681 
L 378.282645 125.74335 
L 382.894215 164.694442 
L 387.505785 155.323637 
L 392.117355 233.22453 
L 396.728926 355.860893 
L 401.340496 450.107101 
L 405.952066 455.451337 
L 410.563636 437.599657 
L 415.175207 427.693425 
L 419.786777 465.235473 
L 424.398347 105.598696 
L 429.009917 160.701921 
L 433.621488 102.40174 
L 438.233058 141.02869 
L 442.844628 326.548243 
L 447.456198 111.834159 
L 452.067769 160.195596 
L 456.679339 123.820572 
L 461.290909 116.057754 
L 465.902479 123.831082 
L 470.51405 193.417761 
L 475.12562 144.848062 
L 479.73719 110.801804 
L 484.34876 116.486528 
L 488.960331 188.957822 
L 493.571901 143.825137 
L 498.183471 144.969184 
L 502.795041 187.30666 
L 507.406612 109.053438 
L 512.018182 176.035257 
L 521.241322 137.11812 
L 525.852893 123.164885 
L 530.464463 153.991901 
L 535.076033 128.121587 
L 539.687603 190.461705 
L 544.299174 111.46102 
L 548.910744 113.914833 
L 553.522314 275.257594 
L 558.133884 280.897932 
L 562.745455 435.63371 
L 567.357025 417.335481 
L 571.968595 441.686779 
L 576.580165 436.556771 
L 581.191736 452.974929 
L 585.803306 428.196313 
L 590.414876 424.962701 
L 595.026446 450.664846 
L 599.638017 436.241059 
L 604.249587 435.441016 
L 608.861157 141.404647 
L 613.472727 144.86342 
L 618.084298 128.39315 
L 622.695868 117.075569 
L 627.307438 153.848467 
L 631.919008 107.923537 
L 636.530579 183.227552 
L 641.142149 147.901031 
L 645.753719 163.786817 
L 650.365289 102.635712 
L 654.97686 119.33811 
L 659.58843 163.129313 
L 664.2 190.201074 
L 668.81157 117.395865 
L 673.42314 174.799881 
L 678.034711 157.041525 
L 682.646281 167.707529 
L 687.257851 134.509019 
L 691.869421 159.596045 
L 696.480992 128.952898 
L 701.092562 157.569794 
L 705.704132 122.165774 
L 710.315702 119.968008 
L 714.927273 146.1146 
L 719.538843 185.744771 
L 724.150413 175.885316 
L 728.761983 168.470323 
L 733.373554 135.798317 
L 737.985124 125.559112 
L 742.596694 255.600273 
L 747.208264 252.008156 
L 751.819835 375.528211 
L 756.431405 209.526877 
L 761.042975 318.600266 
L 765.654545 453.218378 
L 770.266116 177.365675 
L 774.877686 457.967997 
L 779.489256 450.272603 
L 784.100826 438.95844 
L 788.712397 434.663114 
L 793.323967 450.512779 
L 797.935537 201.851569 
L 802.547107 134.948936 
L 807.158678 225.69969 
L 811.770248 190.774046 
L 816.381818 142.675005 
L 820.993388 90.141078 
L 825.604959 171.134084 
L 830.216529 140.862575 
L 834.828099 116.494826 
L 839.439669 293.335351 
L 844.05124 387.94453 
L 848.66281 257.789346 
L 853.27438 122.524977 
L 857.88595 132.481951 
L 862.497521 131.781588 
L 867.109091 206.538473 
L 871.720661 349.237868 
L 876.332231 356.742702 
L 880.943802 404.578504 
L 885.555372 246.440707 
L 890.166942 139.639607 
L 894.778512 159.697278 
L 899.390083 122.971875 
L 904.001653 126.213797 
L 908.613223 272.492178 
L 913.224793 172.880764 
L 917.836364 251.176134 
L 922.447934 169.654278 
L 927.059504 195.783353 
L 931.671074 148.567966 
L 936.282645 97.749371 
L 940.894215 137.675207 
L 945.505785 136.769084 
L 950.117355 343.292407 
L 954.728926 159.840027 
L 959.340496 170.508981 
L 963.952066 122.3228 
L 968.563636 167.615936 
L 973.175207 364.027537 
L 977.786777 492.48 
L 982.398347 358.802737 
L 987.009917 143.674327 
L 991.621488 148.005057 
L 996.233058 128.470017 
L 1000.844628 108.409342 
L 1005.456198 120.708122 
L 1010.067769 142.95808 
L 1014.679339 276.920532 
L 1019.290909 252.959429 
L 1023.902479 247.687357 
L 1028.51405 260.81102 
L 1033.12562 251.183299 
L 1037.73719 451.308257 
L 1042.34876 411.705825 
L 1046.960331 432.418986 
L 1051.571901 435.589468 
L 1056.183471 450.531469 
L 1060.795041 448.867457 
L 1065.406612 457.118332 
L 1070.018182 448.872917 
L 1074.629752 441.316321 
L 1079.241322 145.984285 
L 1083.852893 153.206795 
L 1088.464463 125.854594 
L 1093.076033 168.911056 
L 1097.687603 145.628111 
L 1102.299174 180.272682 
L 1106.910744 173.490773 
L 1111.522314 165.92418 
L 1116.133884 154.802691 
L 1120.745455 118.871983 
L 1120.745455 118.871983 
" clip-path="url(#p1f84bfbe81)" style="fill: none; stroke-dasharray: 5.55,2.4; stroke-dashoffset: 0; stroke: #bfbf00; stroke-width: 1.5"/>
    <defs>
     <path id="m97e0f16cd1" d="M -2 2 
L 2 -2 
M -2 -2 
L 2 2 
" style="stroke: #bfbf00"/>
    </defs>
    <g clip-path="url(#p1f84bfbe81)">
     <use xlink:href="#m97e0f16cd1" x="207.654545" y="156.071206" style="fill: #bfbf00; stroke: #bfbf00"/>
     <use xlink:href="#m97e0f16cd1" x="212.266116" y="107.646837" style="fill: #bfbf00; stroke: #bfbf00"/>
     <use xlink:href="#m97e0f16cd1" x="216.877686" y="93.315695" style="fill: #bfbf00; stroke: #bfbf00"/>
     <use xlink:href="#m97e0f16cd1" x="221.489256" y="151.962173" style="fill: #bfbf00; stroke: #bfbf00"/>
     <use xlink:href="#m97e0f16cd1" x="226.100826" y="126.012489" style="fill: #bfbf00; stroke: #bfbf00"/>
     <use xlink:href="#m97e0f16cd1" x="230.712397" y="145.895775" style="fill: #bfbf00; stroke: #bfbf00"/>
     <use xlink:href="#m97e0f16cd1" x="235.323967" y="172.131246" style="fill: #bfbf00; stroke: #bfbf00"/>
     <use xlink:href="#m97e0f16cd1" x="239.935537" y="178.642092" style="fill: #bfbf00; stroke: #bfbf00"/>
     <use xlink:href="#m97e0f16cd1" x="244.547107" y="164.512601" style="fill: #bfbf00; stroke: #bfbf00"/>
     <use xlink:href="#m97e0f16cd1" x="249.158678" y="133.615988" style="fill: #bfbf00; stroke: #bfbf00"/>
     <use xlink:href="#m97e0f16cd1" x="253.770248" y="130.976514" style="fill: #bfbf00; stroke: #bfbf00"/>
     <use xlink:href="#m97e0f16cd1" x="258.381818" y="148.050128" style="fill: #bfbf00; stroke: #bfbf00"/>
     <use xlink:href="#m97e0f16cd1" x="262.993388" y="125.568174" style="fill: #bfbf00; stroke: #bfbf00"/>
     <use xlink:href="#m97e0f16cd1" x="267.604959" y="139.425048" style="fill: #bfbf00; stroke: #bfbf00"/>
     <use xlink:href="#m97e0f16cd1" x="272.216529" y="119.135749" style="fill: #bfbf00; stroke: #bfbf00"/>
     <use xlink:href="#m97e0f16cd1" x="276.828099" y="151.275771" style="fill: #bfbf00; stroke: #bfbf00"/>
     <use xlink:href="#m97e0f16cd1" x="281.439669" y="114.549499" style="fill: #bfbf00; stroke: #bfbf00"/>
     <use xlink:href="#m97e0f16cd1" x="286.05124" y="110.56907" style="fill: #bfbf00; stroke: #bfbf00"/>
     <use xlink:href="#m97e0f16cd1" x="290.66281" y="161.266095" style="fill: #bfbf00; stroke: #bfbf00"/>
     <use xlink:href="#m97e0f16cd1" x="295.27438" y="108.539052" style="fill: #bfbf00; stroke: #bfbf00"/>
     <use xlink:href="#m97e0f16cd1" x="299.88595" y="148.234525" style="fill: #bfbf00; stroke: #bfbf00"/>
     <use xlink:href="#m97e0f16cd1" x="304.497521" y="159.867634" style="fill: #bfbf00; stroke: #bfbf00"/>
     <use xlink:href="#m97e0f16cd1" x="309.109091" y="146.395726" style="fill: #bfbf00; stroke: #bfbf00"/>
     <use xlink:href="#m97e0f16cd1" x="313.720661" y="137.341292" style="fill: #bfbf00; stroke: #bfbf00"/>
     <use xlink:href="#m97e0f16cd1" x="318.332231" y="103.412231" style="fill: #bfbf00; stroke: #bfbf00"/>
     <use xlink:href="#m97e0f16cd1" x="322.943802" y="164.026743" style="fill: #bfbf00; stroke: #bfbf00"/>
     <use xlink:href="#m97e0f16cd1" x="327.555372" y="185.882673" style="fill: #bfbf00; stroke: #bfbf00"/>
     <use xlink:href="#m97e0f16cd1" x="332.166942" y="150.132726" style="fill: #bfbf00; stroke: #bfbf00"/>
     <use xlink:href="#m97e0f16cd1" x="336.778512" y="150.402813" style="fill: #bfbf00; stroke: #bfbf00"/>
     <use xlink:href="#m97e0f16cd1" x="341.390083" y="149.34488" style="fill: #bfbf00; stroke: #bfbf00"/>
     <use xlink:href="#m97e0f16cd1" x="346.001653" y="127.257322" style="fill: #bfbf00; stroke: #bfbf00"/>
     <use xlink:href="#m97e0f16cd1" x="350.613223" y="89.28" style="fill: #bfbf00; stroke: #bfbf00"/>
     <use xlink:href="#m97e0f16cd1" x="355.224793" y="243.318326" style="fill: #bfbf00; stroke: #bfbf00"/>
     <use xlink:href="#m97e0f16cd1" x="359.836364" y="193.175517" style="fill: #bfbf00; stroke: #bfbf00"/>
     <use xlink:href="#m97e0f16cd1" x="364.447934" y="233.122954" style="fill: #bfbf00; stroke: #bfbf00"/>
     <use xlink:href="#m97e0f16cd1" x="369.059504" y="272.347242" style="fill: #bfbf00; stroke: #bfbf00"/>
     <use xlink:href="#m97e0f16cd1" x="373.671074" y="189.862681" style="fill: #bfbf00; stroke: #bfbf00"/>
     <use xlink:href="#m97e0f16cd1" x="378.282645" y="125.74335" style="fill: #bfbf00; stroke: #bfbf00"/>
     <use xlink:href="#m97e0f16cd1" x="382.894215" y="164.694442" style="fill: #bfbf00; stroke: #bfbf00"/>
     <use xlink:href="#m97e0f16cd1" x="387.505785" y="155.323637" style="fill: #bfbf00; stroke: #bfbf00"/>
     <use xlink:href="#m97e0f16cd1" x="392.117355" y="233.22453" style="fill: #bfbf00; stroke: #bfbf00"/>
     <use xlink:href="#m97e0f16cd1" x="396.728926" y="355.860893" style="fill: #bfbf00; stroke: #bfbf00"/>
     <use xlink:href="#m97e0f16cd1" x="401.340496" y="450.107101" style="fill: #bfbf00; stroke: #bfbf00"/>
     <use xlink:href="#m97e0f16cd1" x="405.952066" y="455.451337" style="fill: #bfbf00; stroke: #bfbf00"/>
     <use xlink:href="#m97e0f16cd1" x="410.563636" y="437.599657" style="fill: #bfbf00; stroke: #bfbf00"/>
     <use xlink:href="#m97e0f16cd1" x="415.175207" y="427.693425" style="fill: #bfbf00; stroke: #bfbf00"/>
     <use xlink:href="#m97e0f16cd1" x="419.786777" y="465.235473" style="fill: #bfbf00; stroke: #bfbf00"/>
     <use xlink:href="#m97e0f16cd1" x="424.398347" y="105.598696" style="fill: #bfbf00; stroke: #bfbf00"/>
     <use xlink:href="#m97e0f16cd1" x="429.009917" y="160.701921" style="fill: #bfbf00; stroke: #bfbf00"/>
     <use xlink:href="#m97e0f16cd1" x="433.621488" y="102.40174" style="fill: #bfbf00; stroke: #bfbf00"/>
     <use xlink:href="#m97e0f16cd1" x="438.233058" y="141.02869" style="fill: #bfbf00; stroke: #bfbf00"/>
     <use xlink:href="#m97e0f16cd1" x="442.844628" y="326.548243" style="fill: #bfbf00; stroke: #bfbf00"/>
     <use xlink:href="#m97e0f16cd1" x="447.456198" y="111.834159" style="fill: #bfbf00; stroke: #bfbf00"/>
     <use xlink:href="#m97e0f16cd1" x="452.067769" y="160.195596" style="fill: #bfbf00; stroke: #bfbf00"/>
     <use xlink:href="#m97e0f16cd1" x="456.679339" y="123.820572" style="fill: #bfbf00; stroke: #bfbf00"/>
     <use xlink:href="#m97e0f16cd1" x="461.290909" y="116.057754" style="fill: #bfbf00; stroke: #bfbf00"/>
     <use xlink:href="#m97e0f16cd1" x="465.902479" y="123.831082" style="fill: #bfbf00; stroke: #bfbf00"/>
     <use xlink:href="#m97e0f16cd1" x="470.51405" y="193.417761" style="fill: #bfbf00; stroke: #bfbf00"/>
     <use xlink:href="#m97e0f16cd1" x="475.12562" y="144.848062" style="fill: #bfbf00; stroke: #bfbf00"/>
     <use xlink:href="#m97e0f16cd1" x="479.73719" y="110.801804" style="fill: #bfbf00; stroke: #bfbf00"/>
     <use xlink:href="#m97e0f16cd1" x="484.34876" y="116.486528" style="fill: #bfbf00; stroke: #bfbf00"/>
     <use xlink:href="#m97e0f16cd1" x="488.960331" y="188.957822" style="fill: #bfbf00; stroke: #bfbf00"/>
     <use xlink:href="#m97e0f16cd1" x="493.571901" y="143.825137" style="fill: #bfbf00; stroke: #bfbf00"/>
     <use xlink:href="#m97e0f16cd1" x="498.183471" y="144.969184" style="fill: #bfbf00; stroke: #bfbf00"/>
     <use xlink:href="#m97e0f16cd1" x="502.795041" y="187.30666" style="fill: #bfbf00; stroke: #bfbf00"/>
     <use xlink:href="#m97e0f16cd1" x="507.406612" y="109.053438" style="fill: #bfbf00; stroke: #bfbf00"/>
     <use xlink:href="#m97e0f16cd1" x="512.018182" y="176.035257" style="fill: #bfbf00; stroke: #bfbf00"/>
     <use xlink:href="#m97e0f16cd1" x="516.629752" y="156.465761" style="fill: #bfbf00; stroke: #bfbf00"/>
     <use xlink:href="#m97e0f16cd1" x="521.241322" y="137.11812" style="fill: #bfbf00; stroke: #bfbf00"/>
     <use xlink:href="#m97e0f16cd1" x="525.852893" y="123.164885" style="fill: #bfbf00; stroke: #bfbf00"/>
     <use xlink:href="#m97e0f16cd1" x="530.464463" y="153.991901" style="fill: #bfbf00; stroke: #bfbf00"/>
     <use xlink:href="#m97e0f16cd1" x="535.076033" y="128.121587" style="fill: #bfbf00; stroke: #bfbf00"/>
     <use xlink:href="#m97e0f16cd1" x="539.687603" y="190.461705" style="fill: #bfbf00; stroke: #bfbf00"/>
     <use xlink:href="#m97e0f16cd1" x="544.299174" y="111.46102" style="fill: #bfbf00; stroke: #bfbf00"/>
     <use xlink:href="#m97e0f16cd1" x="548.910744" y="113.914833" style="fill: #bfbf00; stroke: #bfbf00"/>
     <use xlink:href="#m97e0f16cd1" x="553.522314" y="275.257594" style="fill: #bfbf00; stroke: #bfbf00"/>
     <use xlink:href="#m97e0f16cd1" x="558.133884" y="280.897932" style="fill: #bfbf00; stroke: #bfbf00"/>
     <use xlink:href="#m97e0f16cd1" x="562.745455" y="435.63371" style="fill: #bfbf00; stroke: #bfbf00"/>
     <use xlink:href="#m97e0f16cd1" x="567.357025" y="417.335481" style="fill: #bfbf00; stroke: #bfbf00"/>
     <use xlink:href="#m97e0f16cd1" x="571.968595" y="441.686779" style="fill: #bfbf00; stroke: #bfbf00"/>
     <use xlink:href="#m97e0f16cd1" x="576.580165" y="436.556771" style="fill: #bfbf00; stroke: #bfbf00"/>
     <use xlink:href="#m97e0f16cd1" x="581.191736" y="452.974929" style="fill: #bfbf00; stroke: #bfbf00"/>
     <use xlink:href="#m97e0f16cd1" x="585.803306" y="428.196313" style="fill: #bfbf00; stroke: #bfbf00"/>
     <use xlink:href="#m97e0f16cd1" x="590.414876" y="424.962701" style="fill: #bfbf00; stroke: #bfbf00"/>
     <use xlink:href="#m97e0f16cd1" x="595.026446" y="450.664846" style="fill: #bfbf00; stroke: #bfbf00"/>
     <use xlink:href="#m97e0f16cd1" x="599.638017" y="436.241059" style="fill: #bfbf00; stroke: #bfbf00"/>
     <use xlink:href="#m97e0f16cd1" x="604.249587" y="435.441016" style="fill: #bfbf00; stroke: #bfbf00"/>
     <use xlink:href="#m97e0f16cd1" x="608.861157" y="141.404647" style="fill: #bfbf00; stroke: #bfbf00"/>
     <use xlink:href="#m97e0f16cd1" x="613.472727" y="144.86342" style="fill: #bfbf00; stroke: #bfbf00"/>
     <use xlink:href="#m97e0f16cd1" x="618.084298" y="128.39315" style="fill: #bfbf00; stroke: #bfbf00"/>
     <use xlink:href="#m97e0f16cd1" x="622.695868" y="117.075569" style="fill: #bfbf00; stroke: #bfbf00"/>
     <use xlink:href="#m97e0f16cd1" x="627.307438" y="153.848467" style="fill: #bfbf00; stroke: #bfbf00"/>
     <use xlink:href="#m97e0f16cd1" x="631.919008" y="107.923537" style="fill: #bfbf00; stroke: #bfbf00"/>
     <use xlink:href="#m97e0f16cd1" x="636.530579" y="183.227552" style="fill: #bfbf00; stroke: #bfbf00"/>
     <use xlink:href="#m97e0f16cd1" x="641.142149" y="147.901031" style="fill: #bfbf00; stroke: #bfbf00"/>
     <use xlink:href="#m97e0f16cd1" x="645.753719" y="163.786817" style="fill: #bfbf00; stroke: #bfbf00"/>
     <use xlink:href="#m97e0f16cd1" x="650.365289" y="102.635712" style="fill: #bfbf00; stroke: #bfbf00"/>
     <use xlink:href="#m97e0f16cd1" x="654.97686" y="119.33811" style="fill: #bfbf00; stroke: #bfbf00"/>
     <use xlink:href="#m97e0f16cd1" x="659.58843" y="163.129313" style="fill: #bfbf00; stroke: #bfbf00"/>
     <use xlink:href="#m97e0f16cd1" x="664.2" y="190.201074" style="fill: #bfbf00; stroke: #bfbf00"/>
     <use xlink:href="#m97e0f16cd1" x="668.81157" y="117.395865" style="fill: #bfbf00; stroke: #bfbf00"/>
     <use xlink:href="#m97e0f16cd1" x="673.42314" y="174.799881" style="fill: #bfbf00; stroke: #bfbf00"/>
     <use xlink:href="#m97e0f16cd1" x="678.034711" y="157.041525" style="fill: #bfbf00; stroke: #bfbf00"/>
     <use xlink:href="#m97e0f16cd1" x="682.646281" y="167.707529" style="fill: #bfbf00; stroke: #bfbf00"/>
     <use xlink:href="#m97e0f16cd1" x="687.257851" y="134.509019" style="fill: #bfbf00; stroke: #bfbf00"/>
     <use xlink:href="#m97e0f16cd1" x="691.869421" y="159.596045" style="fill: #bfbf00; stroke: #bfbf00"/>
     <use xlink:href="#m97e0f16cd1" x="696.480992" y="128.952898" style="fill: #bfbf00; stroke: #bfbf00"/>
     <use xlink:href="#m97e0f16cd1" x="701.092562" y="157.569794" style="fill: #bfbf00; stroke: #bfbf00"/>
     <use xlink:href="#m97e0f16cd1" x="705.704132" y="122.165774" style="fill: #bfbf00; stroke: #bfbf00"/>
     <use xlink:href="#m97e0f16cd1" x="710.315702" y="119.968008" style="fill: #bfbf00; stroke: #bfbf00"/>
     <use xlink:href="#m97e0f16cd1" x="714.927273" y="146.1146" style="fill: #bfbf00; stroke: #bfbf00"/>
     <use xlink:href="#m97e0f16cd1" x="719.538843" y="185.744771" style="fill: #bfbf00; stroke: #bfbf00"/>
     <use xlink:href="#m97e0f16cd1" x="724.150413" y="175.885316" style="fill: #bfbf00; stroke: #bfbf00"/>
     <use xlink:href="#m97e0f16cd1" x="728.761983" y="168.470323" style="fill: #bfbf00; stroke: #bfbf00"/>
     <use xlink:href="#m97e0f16cd1" x="733.373554" y="135.798317" style="fill: #bfbf00; stroke: #bfbf00"/>
     <use xlink:href="#m97e0f16cd1" x="737.985124" y="125.559112" style="fill: #bfbf00; stroke: #bfbf00"/>
     <use xlink:href="#m97e0f16cd1" x="742.596694" y="255.600273" style="fill: #bfbf00; stroke: #bfbf00"/>
     <use xlink:href="#m97e0f16cd1" x="747.208264" y="252.008156" style="fill: #bfbf00; stroke: #bfbf00"/>
     <use xlink:href="#m97e0f16cd1" x="751.819835" y="375.528211" style="fill: #bfbf00; stroke: #bfbf00"/>
     <use xlink:href="#m97e0f16cd1" x="756.431405" y="209.526877" style="fill: #bfbf00; stroke: #bfbf00"/>
     <use xlink:href="#m97e0f16cd1" x="761.042975" y="318.600266" style="fill: #bfbf00; stroke: #bfbf00"/>
     <use xlink:href="#m97e0f16cd1" x="765.654545" y="453.218378" style="fill: #bfbf00; stroke: #bfbf00"/>
     <use xlink:href="#m97e0f16cd1" x="770.266116" y="177.365675" style="fill: #bfbf00; stroke: #bfbf00"/>
     <use xlink:href="#m97e0f16cd1" x="774.877686" y="457.967997" style="fill: #bfbf00; stroke: #bfbf00"/>
     <use xlink:href="#m97e0f16cd1" x="779.489256" y="450.272603" style="fill: #bfbf00; stroke: #bfbf00"/>
     <use xlink:href="#m97e0f16cd1" x="784.100826" y="438.95844" style="fill: #bfbf00; stroke: #bfbf00"/>
     <use xlink:href="#m97e0f16cd1" x="788.712397" y="434.663114" style="fill: #bfbf00; stroke: #bfbf00"/>
     <use xlink:href="#m97e0f16cd1" x="793.323967" y="450.512779" style="fill: #bfbf00; stroke: #bfbf00"/>
     <use xlink:href="#m97e0f16cd1" x="797.935537" y="201.851569" style="fill: #bfbf00; stroke: #bfbf00"/>
     <use xlink:href="#m97e0f16cd1" x="802.547107" y="134.948936" style="fill: #bfbf00; stroke: #bfbf00"/>
     <use xlink:href="#m97e0f16cd1" x="807.158678" y="225.69969" style="fill: #bfbf00; stroke: #bfbf00"/>
     <use xlink:href="#m97e0f16cd1" x="811.770248" y="190.774046" style="fill: #bfbf00; stroke: #bfbf00"/>
     <use xlink:href="#m97e0f16cd1" x="816.381818" y="142.675005" style="fill: #bfbf00; stroke: #bfbf00"/>
     <use xlink:href="#m97e0f16cd1" x="820.993388" y="90.141078" style="fill: #bfbf00; stroke: #bfbf00"/>
     <use xlink:href="#m97e0f16cd1" x="825.604959" y="171.134084" style="fill: #bfbf00; stroke: #bfbf00"/>
     <use xlink:href="#m97e0f16cd1" x="830.216529" y="140.862575" style="fill: #bfbf00; stroke: #bfbf00"/>
     <use xlink:href="#m97e0f16cd1" x="834.828099" y="116.494826" style="fill: #bfbf00; stroke: #bfbf00"/>
     <use xlink:href="#m97e0f16cd1" x="839.439669" y="293.335351" style="fill: #bfbf00; stroke: #bfbf00"/>
     <use xlink:href="#m97e0f16cd1" x="844.05124" y="387.94453" style="fill: #bfbf00; stroke: #bfbf00"/>
     <use xlink:href="#m97e0f16cd1" x="848.66281" y="257.789346" style="fill: #bfbf00; stroke: #bfbf00"/>
     <use xlink:href="#m97e0f16cd1" x="853.27438" y="122.524977" style="fill: #bfbf00; stroke: #bfbf00"/>
     <use xlink:href="#m97e0f16cd1" x="857.88595" y="132.481951" style="fill: #bfbf00; stroke: #bfbf00"/>
     <use xlink:href="#m97e0f16cd1" x="862.497521" y="131.781588" style="fill: #bfbf00; stroke: #bfbf00"/>
     <use xlink:href="#m97e0f16cd1" x="867.109091" y="206.538473" style="fill: #bfbf00; stroke: #bfbf00"/>
     <use xlink:href="#m97e0f16cd1" x="871.720661" y="349.237868" style="fill: #bfbf00; stroke: #bfbf00"/>
     <use xlink:href="#m97e0f16cd1" x="876.332231" y="356.742702" style="fill: #bfbf00; stroke: #bfbf00"/>
     <use xlink:href="#m97e0f16cd1" x="880.943802" y="404.578504" style="fill: #bfbf00; stroke: #bfbf00"/>
     <use xlink:href="#m97e0f16cd1" x="885.555372" y="246.440707" style="fill: #bfbf00; stroke: #bfbf00"/>
     <use xlink:href="#m97e0f16cd1" x="890.166942" y="139.639607" style="fill: #bfbf00; stroke: #bfbf00"/>
     <use xlink:href="#m97e0f16cd1" x="894.778512" y="159.697278" style="fill: #bfbf00; stroke: #bfbf00"/>
     <use xlink:href="#m97e0f16cd1" x="899.390083" y="122.971875" style="fill: #bfbf00; stroke: #bfbf00"/>
     <use xlink:href="#m97e0f16cd1" x="904.001653" y="126.213797" style="fill: #bfbf00; stroke: #bfbf00"/>
     <use xlink:href="#m97e0f16cd1" x="908.613223" y="272.492178" style="fill: #bfbf00; stroke: #bfbf00"/>
     <use xlink:href="#m97e0f16cd1" x="913.224793" y="172.880764" style="fill: #bfbf00; stroke: #bfbf00"/>
     <use xlink:href="#m97e0f16cd1" x="917.836364" y="251.176134" style="fill: #bfbf00; stroke: #bfbf00"/>
     <use xlink:href="#m97e0f16cd1" x="922.447934" y="169.654278" style="fill: #bfbf00; stroke: #bfbf00"/>
     <use xlink:href="#m97e0f16cd1" x="927.059504" y="195.783353" style="fill: #bfbf00; stroke: #bfbf00"/>
     <use xlink:href="#m97e0f16cd1" x="931.671074" y="148.567966" style="fill: #bfbf00; stroke: #bfbf00"/>
     <use xlink:href="#m97e0f16cd1" x="936.282645" y="97.749371" style="fill: #bfbf00; stroke: #bfbf00"/>
     <use xlink:href="#m97e0f16cd1" x="940.894215" y="137.675207" style="fill: #bfbf00; stroke: #bfbf00"/>
     <use xlink:href="#m97e0f16cd1" x="945.505785" y="136.769084" style="fill: #bfbf00; stroke: #bfbf00"/>
     <use xlink:href="#m97e0f16cd1" x="950.117355" y="343.292407" style="fill: #bfbf00; stroke: #bfbf00"/>
     <use xlink:href="#m97e0f16cd1" x="954.728926" y="159.840027" style="fill: #bfbf00; stroke: #bfbf00"/>
     <use xlink:href="#m97e0f16cd1" x="959.340496" y="170.508981" style="fill: #bfbf00; stroke: #bfbf00"/>
     <use xlink:href="#m97e0f16cd1" x="963.952066" y="122.3228" style="fill: #bfbf00; stroke: #bfbf00"/>
     <use xlink:href="#m97e0f16cd1" x="968.563636" y="167.615936" style="fill: #bfbf00; stroke: #bfbf00"/>
     <use xlink:href="#m97e0f16cd1" x="973.175207" y="364.027537" style="fill: #bfbf00; stroke: #bfbf00"/>
     <use xlink:href="#m97e0f16cd1" x="977.786777" y="492.48" style="fill: #bfbf00; stroke: #bfbf00"/>
     <use xlink:href="#m97e0f16cd1" x="982.398347" y="358.802737" style="fill: #bfbf00; stroke: #bfbf00"/>
     <use xlink:href="#m97e0f16cd1" x="987.009917" y="143.674327" style="fill: #bfbf00; stroke: #bfbf00"/>
     <use xlink:href="#m97e0f16cd1" x="991.621488" y="148.005057" style="fill: #bfbf00; stroke: #bfbf00"/>
     <use xlink:href="#m97e0f16cd1" x="996.233058" y="128.470017" style="fill: #bfbf00; stroke: #bfbf00"/>
     <use xlink:href="#m97e0f16cd1" x="1000.844628" y="108.409342" style="fill: #bfbf00; stroke: #bfbf00"/>
     <use xlink:href="#m97e0f16cd1" x="1005.456198" y="120.708122" style="fill: #bfbf00; stroke: #bfbf00"/>
     <use xlink:href="#m97e0f16cd1" x="1010.067769" y="142.95808" style="fill: #bfbf00; stroke: #bfbf00"/>
     <use xlink:href="#m97e0f16cd1" x="1014.679339" y="276.920532" style="fill: #bfbf00; stroke: #bfbf00"/>
     <use xlink:href="#m97e0f16cd1" x="1019.290909" y="252.959429" style="fill: #bfbf00; stroke: #bfbf00"/>
     <use xlink:href="#m97e0f16cd1" x="1023.902479" y="247.687357" style="fill: #bfbf00; stroke: #bfbf00"/>
     <use xlink:href="#m97e0f16cd1" x="1028.51405" y="260.81102" style="fill: #bfbf00; stroke: #bfbf00"/>
     <use xlink:href="#m97e0f16cd1" x="1033.12562" y="251.183299" style="fill: #bfbf00; stroke: #bfbf00"/>
     <use xlink:href="#m97e0f16cd1" x="1037.73719" y="451.308257" style="fill: #bfbf00; stroke: #bfbf00"/>
     <use xlink:href="#m97e0f16cd1" x="1042.34876" y="411.705825" style="fill: #bfbf00; stroke: #bfbf00"/>
     <use xlink:href="#m97e0f16cd1" x="1046.960331" y="432.418986" style="fill: #bfbf00; stroke: #bfbf00"/>
     <use xlink:href="#m97e0f16cd1" x="1051.571901" y="435.589468" style="fill: #bfbf00; stroke: #bfbf00"/>
     <use xlink:href="#m97e0f16cd1" x="1056.183471" y="450.531469" style="fill: #bfbf00; stroke: #bfbf00"/>
     <use xlink:href="#m97e0f16cd1" x="1060.795041" y="448.867457" style="fill: #bfbf00; stroke: #bfbf00"/>
     <use xlink:href="#m97e0f16cd1" x="1065.406612" y="457.118332" style="fill: #bfbf00; stroke: #bfbf00"/>
     <use xlink:href="#m97e0f16cd1" x="1070.018182" y="448.872917" style="fill: #bfbf00; stroke: #bfbf00"/>
     <use xlink:href="#m97e0f16cd1" x="1074.629752" y="441.316321" style="fill: #bfbf00; stroke: #bfbf00"/>
     <use xlink:href="#m97e0f16cd1" x="1079.241322" y="145.984285" style="fill: #bfbf00; stroke: #bfbf00"/>
     <use xlink:href="#m97e0f16cd1" x="1083.852893" y="153.206795" style="fill: #bfbf00; stroke: #bfbf00"/>
     <use xlink:href="#m97e0f16cd1" x="1088.464463" y="125.854594" style="fill: #bfbf00; stroke: #bfbf00"/>
     <use xlink:href="#m97e0f16cd1" x="1093.076033" y="168.911056" style="fill: #bfbf00; stroke: #bfbf00"/>
     <use xlink:href="#m97e0f16cd1" x="1097.687603" y="145.628111" style="fill: #bfbf00; stroke: #bfbf00"/>
     <use xlink:href="#m97e0f16cd1" x="1102.299174" y="180.272682" style="fill: #bfbf00; stroke: #bfbf00"/>
     <use xlink:href="#m97e0f16cd1" x="1106.910744" y="173.490773" style="fill: #bfbf00; stroke: #bfbf00"/>
     <use xlink:href="#m97e0f16cd1" x="1111.522314" y="165.92418" style="fill: #bfbf00; stroke: #bfbf00"/>
     <use xlink:href="#m97e0f16cd1" x="1116.133884" y="154.802691" style="fill: #bfbf00; stroke: #bfbf00"/>
     <use xlink:href="#m97e0f16cd1" x="1120.745455" y="118.871983" style="fill: #bfbf00; stroke: #bfbf00"/>
    </g>
   </g>
   <g id="patch_3">
    <path d="M 162 512.64 
L 162 69.12 
" style="fill: none; stroke: #000000; stroke-width: 0.8; stroke-linejoin: miter; stroke-linecap: square"/>
   </g>
   <g id="patch_4">
    <path d="M 1166.4 512.64 
L 1166.4 69.12 
" style="fill: none; stroke: #000000; stroke-width: 0.8; stroke-linejoin: miter; stroke-linecap: square"/>
   </g>
   <g id="patch_5">
    <path d="M 162 512.64 
L 1166.4 512.64 
" style="fill: none; stroke: #000000; stroke-width: 0.8; stroke-linejoin: miter; stroke-linecap: square"/>
   </g>
   <g id="patch_6">
    <path d="M 162 69.12 
L 1166.4 69.12 
" style="fill: none; stroke: #000000; stroke-width: 0.8; stroke-linejoin: miter; stroke-linecap: square"/>
   </g>
   <g id="text_17">
    <!-- Transformer-Lstm Comparison of True Values and Predictions -->
    <g transform="translate(374.2 63.12) scale(0.2 -0.2)">
     <defs>
      <path id="SimHei-54" d="M 2850 3925 
L 1850 3925 
L 1850 125 
L 1275 125 
L 1275 3925 
L 275 3925 
L 275 4400 
L 2850 4400 
L 2850 3925 
z
" transform="scale(0.015625)"/>
      <path id="SimHei-72" d="M 2500 2425 
Q 2025 2500 1700 2287 
Q 1375 2075 1150 1550 
L 1150 125 
L 650 125 
L 650 2925 
L 1150 2925 
L 1150 2200 
Q 1375 2600 1712 2787 
Q 2050 2975 2500 2975 
L 2500 2425 
z
" transform="scale(0.015625)"/>
      <path id="SimHei-61" d="M 2875 125 
L 2275 125 
Q 2225 175 2200 262 
Q 2175 350 2175 475 
Q 2000 275 1750 175 
Q 1500 75 1225 75 
Q 825 75 550 275 
Q 275 475 275 850 
Q 275 1225 525 1450 
Q 775 1675 1300 1750 
Q 1650 1800 1912 1875 
Q 2175 1950 2175 2075 
Q 2175 2225 2062 2375 
Q 1950 2525 1575 2525 
Q 1275 2525 1137 2412 
Q 1000 2300 950 2100 
L 400 2100 
Q 450 2500 762 2737 
Q 1075 2975 1575 2975 
Q 2125 2975 2400 2725 
Q 2675 2475 2675 2025 
L 2675 650 
Q 2675 500 2725 375 
Q 2775 250 2875 125 
z
M 2175 1050 
L 2175 1550 
Q 2025 1500 1887 1462 
Q 1750 1425 1425 1375 
Q 1050 1325 937 1200 
Q 825 1075 825 900 
Q 825 750 937 637 
Q 1050 525 1275 525 
Q 1500 525 1762 650 
Q 2025 775 2175 1050 
z
" transform="scale(0.015625)"/>
      <path id="SimHei-6e" d="M 2800 125 
L 2300 125 
L 2300 1925 
Q 2300 2225 2150 2400 
Q 2000 2575 1750 2575 
Q 1425 2575 1137 2237 
Q 850 1900 850 1400 
L 850 125 
L 350 125 
L 350 2925 
L 850 2925 
L 850 2400 
Q 1050 2675 1287 2825 
Q 1525 2975 1900 2975 
Q 2350 2975 2575 2725 
Q 2800 2475 2800 2100 
L 2800 125 
z
" transform="scale(0.015625)"/>
      <path id="SimHei-73" d="M 2750 900 
Q 2750 500 2437 287 
Q 2125 75 1650 75 
Q 1050 75 725 312 
Q 400 550 400 1000 
L 900 1000 
Q 900 700 1112 600 
Q 1325 500 1625 500 
Q 1925 500 2075 612 
Q 2225 725 2225 900 
Q 2225 1025 2100 1150 
Q 1975 1275 1475 1350 
Q 900 1425 687 1637 
Q 475 1850 475 2200 
Q 475 2500 762 2737 
Q 1050 2975 1600 2975 
Q 2100 2975 2387 2750 
Q 2675 2525 2675 2150 
L 2175 2150 
Q 2175 2375 2012 2462 
Q 1850 2550 1600 2550 
Q 1275 2550 1137 2437 
Q 1000 2325 1000 2175 
Q 1000 2000 1125 1900 
Q 1250 1800 1650 1750 
Q 2300 1650 2525 1437 
Q 2750 1225 2750 900 
z
" transform="scale(0.015625)"/>
      <path id="SimHei-66" d="M 2850 3825 
Q 2725 3900 2550 3950 
Q 2375 4000 2100 4000 
Q 1825 4000 1725 3862 
Q 1625 3725 1625 3525 
L 1625 2925 
L 2650 2925 
L 2650 2525 
L 1625 2525 
L 1625 125 
L 1125 125 
L 1125 2525 
L 275 2525 
L 275 2925 
L 1125 2925 
L 1125 3500 
Q 1125 3950 1400 4200 
Q 1675 4450 2125 4450 
Q 2400 4450 2562 4412 
Q 2725 4375 2850 4325 
L 2850 3825 
z
" transform="scale(0.015625)"/>
      <path id="SimHei-6f" d="M 2925 1525 
Q 2925 875 2525 475 
Q 2125 75 1575 75 
Q 1025 75 625 475 
Q 225 875 225 1525 
Q 225 2175 625 2575 
Q 1025 2975 1575 2975 
Q 2125 2975 2525 2575 
Q 2925 2175 2925 1525 
z
M 2375 1525 
Q 2375 2025 2125 2275 
Q 1875 2525 1575 2525 
Q 1275 2525 1025 2275 
Q 775 2025 775 1525 
Q 775 1025 1025 775 
Q 1275 525 1575 525 
Q 1875 525 2125 775 
Q 2375 1025 2375 1525 
z
" transform="scale(0.015625)"/>
      <path id="SimHei-6d" d="M 3050 125 
L 2550 125 
L 2550 2150 
Q 2550 2300 2500 2400 
Q 2450 2500 2300 2500 
Q 2125 2500 1975 2312 
Q 1825 2125 1825 1825 
L 1825 125 
L 1325 125 
L 1325 2150 
Q 1325 2300 1275 2400 
Q 1225 2500 1075 2500 
Q 900 2500 750 2312 
Q 600 2125 600 1825 
L 600 125 
L 100 125 
L 100 2925 
L 600 2925 
L 600 2550 
Q 725 2750 900 2862 
Q 1075 2975 1275 2975 
Q 1475 2975 1612 2862 
Q 1750 2750 1800 2550 
Q 1925 2750 2087 2862 
Q 2250 2975 2450 2975 
Q 2750 2975 2900 2812 
Q 3050 2650 3050 2350 
L 3050 125 
z
" transform="scale(0.015625)"/>
      <path id="SimHei-65" d="M 2850 1075 
Q 2800 625 2450 350 
Q 2100 75 1625 75 
Q 1025 75 637 462 
Q 250 850 250 1525 
Q 250 2200 637 2587 
Q 1025 2975 1625 2975 
Q 2150 2975 2487 2637 
Q 2825 2300 2825 1525 
L 800 1525 
Q 800 975 1037 750 
Q 1275 525 1625 525 
Q 1900 525 2075 662 
Q 2250 800 2300 1075 
L 2850 1075 
z
M 2250 1925 
Q 2200 2275 2025 2412 
Q 1850 2550 1575 2550 
Q 1325 2550 1125 2412 
Q 925 2275 825 1925 
L 2250 1925 
z
" transform="scale(0.015625)"/>
      <path id="SimHei-2d" d="M 2975 2125 
L 125 2125 
L 125 2525 
L 2975 2525 
L 2975 2125 
z
" transform="scale(0.015625)"/>
      <path id="SimHei-4c" d="M 2900 125 
L 300 125 
L 300 4400 
L 875 4400 
L 875 600 
L 2900 600 
L 2900 125 
z
" transform="scale(0.015625)"/>
      <path id="SimHei-74" d="M 2750 200 
Q 2625 150 2462 112 
Q 2300 75 2025 75 
Q 1575 75 1300 325 
Q 1025 575 1025 1025 
L 1025 2525 
L 175 2525 
L 175 2925 
L 1025 2925 
L 1025 3900 
L 1525 3900 
L 1525 2925 
L 2550 2925 
L 2550 2525 
L 1525 2525 
L 1525 1000 
Q 1525 800 1625 662 
Q 1725 525 2000 525 
Q 2275 525 2450 575 
Q 2625 625 2750 700 
L 2750 200 
z
" transform="scale(0.015625)"/>
      <path id="SimHei-20" transform="scale(0.015625)"/>
      <path id="SimHei-43" d="M 2975 1825 
Q 2950 875 2575 475 
Q 2200 75 1675 75 
Q 1075 75 650 562 
Q 225 1050 225 2125 
Q 225 3300 637 3875 
Q 1050 4450 1700 4450 
Q 2250 4450 2612 4037 
Q 2975 3625 2950 2875 
L 2400 2875 
Q 2400 3425 2225 3700 
Q 2050 3975 1700 3975 
Q 1300 3975 1062 3562 
Q 825 3150 825 2175 
Q 825 1275 1062 912 
Q 1300 550 1675 550 
Q 1950 550 2175 812 
Q 2400 1075 2400 1825 
L 2975 1825 
z
" transform="scale(0.015625)"/>
      <path id="SimHei-70" d="M 2825 1525 
Q 2825 800 2475 425 
Q 2125 50 1625 50 
Q 1350 50 1150 162 
Q 950 275 800 500 
L 800 -800 
L 300 -800 
L 300 2925 
L 800 2925 
L 800 2550 
Q 950 2775 1150 2875 
Q 1350 2975 1625 2975 
Q 2125 2975 2475 2612 
Q 2825 2250 2825 1525 
z
M 2275 1525 
Q 2275 2000 2087 2262 
Q 1900 2525 1525 2525 
Q 1225 2525 1012 2262 
Q 800 2000 800 1525 
Q 800 1050 1012 775 
Q 1225 500 1525 500 
Q 1900 500 2087 775 
Q 2275 1050 2275 1525 
z
" transform="scale(0.015625)"/>
      <path id="SimHei-69" d="M 1800 3725 
L 1300 3725 
L 1300 4375 
L 1800 4375 
L 1800 3725 
z
M 1800 125 
L 1300 125 
L 1300 2925 
L 1800 2925 
L 1800 125 
z
" transform="scale(0.015625)"/>
      <path id="SimHei-75" d="M 2800 125 
L 2300 125 
L 2300 650 
Q 2100 375 1862 225 
Q 1625 75 1250 75 
Q 800 75 575 325 
Q 350 575 350 950 
L 350 2925 
L 850 2925 
L 850 1125 
Q 850 825 1000 650 
Q 1150 475 1400 475 
Q 1725 475 2012 812 
Q 2300 1150 2300 1650 
L 2300 2925 
L 2800 2925 
L 2800 125 
z
" transform="scale(0.015625)"/>
      <path id="SimHei-56" d="M 3050 4400 
L 1800 75 
L 1300 75 
L 50 4400 
L 650 4400 
L 1525 1125 
L 1575 1125 
L 2450 4400 
L 3050 4400 
z
" transform="scale(0.015625)"/>
      <path id="SimHei-6c" d="M 1825 125 
L 1325 125 
L 1325 4400 
L 1825 4400 
L 1825 125 
z
" transform="scale(0.015625)"/>
      <path id="SimHei-64" d="M 2750 125 
L 2250 125 
L 2250 500 
Q 2100 275 1900 175 
Q 1700 75 1425 75 
Q 925 75 575 437 
Q 225 800 225 1525 
Q 225 2250 575 2625 
Q 925 3000 1425 3000 
Q 1700 3000 1900 2887 
Q 2100 2775 2250 2550 
L 2250 4400 
L 2750 4400 
L 2750 125 
z
M 2250 1525 
Q 2250 2000 2037 2275 
Q 1825 2550 1525 2550 
Q 1150 2550 962 2275 
Q 775 2000 775 1525 
Q 775 1050 962 787 
Q 1150 525 1525 525 
Q 1825 525 2037 787 
Q 2250 1050 2250 1525 
z
" transform="scale(0.015625)"/>
      <path id="SimHei-50" d="M 2950 3100 
Q 2950 2500 2600 2150 
Q 2250 1800 1625 1800 
L 900 1800 
L 900 125 
L 325 125 
L 325 4400 
L 1625 4400 
Q 2250 4400 2600 4050 
Q 2950 3700 2950 3100 
z
M 2375 3100 
Q 2375 3575 2150 3750 
Q 1925 3925 1475 3925 
L 900 3925 
L 900 2275 
L 1475 2275 
Q 1925 2275 2150 2450 
Q 2375 2625 2375 3100 
z
" transform="scale(0.015625)"/>
      <path id="SimHei-63" d="M 2850 1250 
Q 2850 725 2487 400 
Q 2125 75 1575 75 
Q 1025 75 625 462 
Q 225 850 225 1525 
Q 225 2200 625 2587 
Q 1025 2975 1575 2975 
Q 2125 2975 2450 2687 
Q 2775 2400 2775 2000 
L 2225 2000 
Q 2200 2300 2012 2412 
Q 1825 2525 1575 2525 
Q 1275 2525 1025 2287 
Q 775 2050 775 1525 
Q 775 1000 1025 762 
Q 1275 525 1575 525 
Q 1900 525 2100 700 
Q 2300 875 2300 1250 
L 2850 1250 
z
" transform="scale(0.015625)"/>
     </defs>
     <use xlink:href="#SimHei-54"/>
     <use xlink:href="#SimHei-72" x="50"/>
     <use xlink:href="#SimHei-61" x="100"/>
     <use xlink:href="#SimHei-6e" x="150"/>
     <use xlink:href="#SimHei-73" x="200"/>
     <use xlink:href="#SimHei-66" x="250"/>
     <use xlink:href="#SimHei-6f" x="300"/>
     <use xlink:href="#SimHei-72" x="350"/>
     <use xlink:href="#SimHei-6d" x="400"/>
     <use xlink:href="#SimHei-65" x="450"/>
     <use xlink:href="#SimHei-72" x="500"/>
     <use xlink:href="#SimHei-2d" x="550"/>
     <use xlink:href="#SimHei-4c" x="600"/>
     <use xlink:href="#SimHei-73" x="650"/>
     <use xlink:href="#SimHei-74" x="700"/>
     <use xlink:href="#SimHei-6d" x="750"/>
     <use xlink:href="#SimHei-20" x="800"/>
     <use xlink:href="#SimHei-43" x="850"/>
     <use xlink:href="#SimHei-6f" x="900"/>
     <use xlink:href="#SimHei-6d" x="950"/>
     <use xlink:href="#SimHei-70" x="1000"/>
     <use xlink:href="#SimHei-61" x="1050"/>
     <use xlink:href="#SimHei-72" x="1100"/>
     <use xlink:href="#SimHei-69" x="1150"/>
     <use xlink:href="#SimHei-73" x="1200"/>
     <use xlink:href="#SimHei-6f" x="1250"/>
     <use xlink:href="#SimHei-6e" x="1300"/>
     <use xlink:href="#SimHei-20" x="1350"/>
     <use xlink:href="#SimHei-6f" x="1400"/>
     <use xlink:href="#SimHei-66" x="1450"/>
     <use xlink:href="#SimHei-20" x="1500"/>
     <use xlink:href="#SimHei-54" x="1550"/>
     <use xlink:href="#SimHei-72" x="1600"/>
     <use xlink:href="#SimHei-75" x="1650"/>
     <use xlink:href="#SimHei-65" x="1700"/>
     <use xlink:href="#SimHei-20" x="1750"/>
     <use xlink:href="#SimHei-56" x="1800"/>
     <use xlink:href="#SimHei-61" x="1850"/>
     <use xlink:href="#SimHei-6c" x="1900"/>
     <use xlink:href="#SimHei-75" x="1950"/>
     <use xlink:href="#SimHei-65" x="2000"/>
     <use xlink:href="#SimHei-73" x="2050"/>
     <use xlink:href="#SimHei-20" x="2100"/>
     <use xlink:href="#SimHei-61" x="2150"/>
     <use xlink:href="#SimHei-6e" x="2200"/>
     <use xlink:href="#SimHei-64" x="2250"/>
     <use xlink:href="#SimHei-20" x="2300"/>
     <use xlink:href="#SimHei-50" x="2350"/>
     <use xlink:href="#SimHei-72" x="2400"/>
     <use xlink:href="#SimHei-65" x="2450"/>
     <use xlink:href="#SimHei-64" x="2500"/>
     <use xlink:href="#SimHei-69" x="2550"/>
     <use xlink:href="#SimHei-63" x="2600"/>
     <use xlink:href="#SimHei-74" x="2650"/>
     <use xlink:href="#SimHei-69" x="2700"/>
     <use xlink:href="#SimHei-6f" x="2750"/>
     <use xlink:href="#SimHei-6e" x="2800"/>
     <use xlink:href="#SimHei-73" x="2850"/>
    </g>
   </g>
   <g id="legend_1">
    <g id="patch_7">
     <path d="M 173.2 504.64 
L 312.4 504.64 
Q 315.6 504.64 315.6 501.44 
L 315.6 460.64 
Q 315.6 457.44 312.4 457.44 
L 173.2 457.44 
Q 170 457.44 170 460.64 
L 170 501.44 
Q 170 504.64 173.2 504.64 
z
" style="fill: #ffffff; opacity: 0.8; stroke: #cccccc; stroke-linejoin: miter"/>
    </g>
    <g id="line2d_33">
     <path d="M 176.4 469.44 
L 192.4 469.44 
L 208.4 469.44 
" style="fill: none; stroke: #ff0000; stroke-width: 1.5; stroke-linecap: square"/>
     <g>
      <use xlink:href="#m96be2c7349" x="192.4" y="469.44" style="fill: #ff0000; stroke: #ff0000"/>
     </g>
    </g>
    <g id="text_18">
     <!-- True Values -->
     <g transform="translate(221.2 475.04) scale(0.16 -0.16)">
      <use xlink:href="#SimHei-54"/>
      <use xlink:href="#SimHei-72" x="50"/>
      <use xlink:href="#SimHei-75" x="100"/>
      <use xlink:href="#SimHei-65" x="150"/>
      <use xlink:href="#SimHei-20" x="200"/>
      <use xlink:href="#SimHei-56" x="250"/>
      <use xlink:href="#SimHei-61" x="300"/>
      <use xlink:href="#SimHei-6c" x="350"/>
      <use xlink:href="#SimHei-75" x="400"/>
      <use xlink:href="#SimHei-65" x="450"/>
      <use xlink:href="#SimHei-73" x="500"/>
     </g>
    </g>
    <g id="line2d_34">
     <path d="M 176.4 490.64 
L 192.4 490.64 
L 208.4 490.64 
" style="fill: none; stroke-dasharray: 5.55,2.4; stroke-dashoffset: 0; stroke: #bfbf00; stroke-width: 1.5"/>
     <g>
      <use xlink:href="#m97e0f16cd1" x="192.4" y="490.64" style="fill: #bfbf00; stroke: #bfbf00"/>
     </g>
    </g>
    <g id="text_19">
     <!-- Predictions -->
     <g transform="translate(221.2 496.24) scale(0.16 -0.16)">
      <use xlink:href="#SimHei-50"/>
      <use xlink:href="#SimHei-72" x="50"/>
      <use xlink:href="#SimHei-65" x="100"/>
      <use xlink:href="#SimHei-64" x="150"/>
      <use xlink:href="#SimHei-69" x="200"/>
      <use xlink:href="#SimHei-63" x="250"/>
      <use xlink:href="#SimHei-74" x="300"/>
      <use xlink:href="#SimHei-69" x="350"/>
      <use xlink:href="#SimHei-6f" x="400"/>
      <use xlink:href="#SimHei-6e" x="450"/>
      <use xlink:href="#SimHei-73" x="500"/>
     </g>
    </g>
   </g>
  </g>
 </g>
 <defs>
  <clipPath id="p1f84bfbe81">
   <rect x="162" y="69.12" width="1004.4" height="443.52"/>
  </clipPath>
 </defs>
</svg>
