<?xml version="1.0" encoding="utf-8" standalone="no"?>
<!DOCTYPE svg PUBLIC "-//W3C//DTD SVG 1.1//EN"
  "http://www.w3.org/Graphics/SVG/1.1/DTD/svg11.dtd">
<svg xmlns:xlink="http://www.w3.org/1999/xlink" width="1296pt" height="576pt" viewBox="0 0 1296 576" xmlns="http://www.w3.org/2000/svg" version="1.1">
 <metadata>
  <rdf:RDF xmlns:dc="http://purl.org/dc/elements/1.1/" xmlns:cc="http://creativecommons.org/ns#" xmlns:rdf="http://www.w3.org/1999/02/22-rdf-syntax-ns#">
   <cc:Work>
    <dc:type rdf:resource="http://purl.org/dc/dcmitype/StillImage"/>
    <dc:date>2024-09-24T23:28:00.287570</dc:date>
    <dc:format>image/svg+xml</dc:format>
    <dc:creator>
     <cc:Agent>
      <dc:title>Matplotlib v3.6.2, https://matplotlib.org/</dc:title>
     </cc:Agent>
    </dc:creator>
   </cc:Work>
  </rdf:RDF>
 </metadata>
 <defs>
  <style type="text/css">*{stroke-linejoin: round; stroke-linecap: butt}</style>
 </defs>
 <g id="figure_1">
  <g id="patch_1">
   <path d="M 0 576 
L 1296 576 
L 1296 0 
L 0 0 
z
" style="fill: #ffffff"/>
  </g>
  <g id="axes_1">
   <g id="patch_2">
    <path d="M 162 512.64 
L 1166.4 512.64 
L 1166.4 69.12 
L 162 69.12 
z
" style="fill: #ffffff"/>
   </g>
   <g id="matplotlib.axis_1">
    <g id="xtick_1">
     <g id="line2d_1">
      <path d="M 207.654545 512.64 
L 207.654545 69.12 
" clip-path="url(#p55ee842069)" style="fill: none; stroke: #b0b0b0; stroke-width: 0.8; stroke-linecap: square"/>
     </g>
     <g id="line2d_2">
      <defs>
       <path id="m3ba83b73d2" d="M 0 0 
L 0 3.5 
" style="stroke: #000000; stroke-width: 0.8"/>
      </defs>
      <g>
       <use xlink:href="#m3ba83b73d2" x="207.654545" y="512.64" style="stroke: #000000; stroke-width: 0.8"/>
      </g>
     </g>
     <g id="text_1">
      <!-- 0 -->
      <g transform="translate(204.154545 529.265) scale(0.14 -0.14)">
       <defs>
        <path id="SimHei-30" d="M 225 2537 
Q 250 3200 412 3587 
Q 575 3975 875 4225 
Q 1175 4475 1612 4475 
Q 2050 4475 2375 4112 
Q 2700 3750 2800 3200 
Q 2900 2650 2862 1937 
Q 2825 1225 2612 775 
Q 2400 325 1975 150 
Q 1550 -25 1125 187 
Q 700 400 525 750 
Q 350 1100 275 1487 
Q 200 1875 225 2537 
z
M 750 2687 
Q 675 2000 800 1462 
Q 925 925 1212 700 
Q 1500 475 1800 612 
Q 2100 750 2237 1162 
Q 2375 1575 2375 2062 
Q 2375 2550 2337 2950 
Q 2300 3350 2112 3675 
Q 1925 4000 1612 4012 
Q 1300 4025 1062 3700 
Q 825 3375 750 2687 
z
" transform="scale(0.015625)"/>
       </defs>
       <use xlink:href="#SimHei-30"/>
      </g>
     </g>
    </g>
    <g id="xtick_2">
     <g id="line2d_3">
      <path d="M 417.079066 512.64 
L 417.079066 69.12 
" clip-path="url(#p55ee842069)" style="fill: none; stroke: #b0b0b0; stroke-width: 0.8; stroke-linecap: square"/>
     </g>
     <g id="line2d_4">
      <g>
       <use xlink:href="#m3ba83b73d2" x="417.079066" y="512.64" style="stroke: #000000; stroke-width: 0.8"/>
      </g>
     </g>
     <g id="text_2">
      <!-- 50 -->
      <g transform="translate(410.079066 529.265) scale(0.14 -0.14)">
       <defs>
        <path id="SimHei-35" d="M 550 1325 
Q 725 650 1150 575 
Q 1575 500 1837 662 
Q 2100 825 2212 1087 
Q 2325 1350 2312 1675 
Q 2300 2000 2137 2225 
Q 1975 2450 1725 2525 
Q 1475 2600 1162 2525 
Q 850 2450 650 2175 
L 225 2225 
Q 275 2375 700 4375 
L 2675 4375 
L 2675 3925 
L 1075 3925 
Q 950 3250 825 2850 
Q 1200 3025 1525 3012 
Q 1850 3000 2150 2862 
Q 2450 2725 2587 2487 
Q 2725 2250 2787 2012 
Q 2850 1775 2837 1500 
Q 2825 1225 2725 937 
Q 2625 650 2425 462 
Q 2225 275 1937 162 
Q 1650 50 1275 75 
Q 900 100 562 350 
Q 225 600 100 1200 
L 550 1325 
z
" transform="scale(0.015625)"/>
       </defs>
       <use xlink:href="#SimHei-35"/>
       <use xlink:href="#SimHei-30" x="50"/>
      </g>
     </g>
    </g>
    <g id="xtick_3">
     <g id="line2d_5">
      <path d="M 626.503586 512.64 
L 626.503586 69.12 
" clip-path="url(#p55ee842069)" style="fill: none; stroke: #b0b0b0; stroke-width: 0.8; stroke-linecap: square"/>
     </g>
     <g id="line2d_6">
      <g>
       <use xlink:href="#m3ba83b73d2" x="626.503586" y="512.64" style="stroke: #000000; stroke-width: 0.8"/>
      </g>
     </g>
     <g id="text_3">
      <!-- 100 -->
      <g transform="translate(616.003586 529.265) scale(0.14 -0.14)">
       <defs>
        <path id="SimHei-31" d="M 1400 3600 
Q 1075 3275 575 2975 
L 575 3450 
Q 1200 3875 1600 4450 
L 1900 4450 
L 1900 150 
L 1400 150 
L 1400 3600 
z
" transform="scale(0.015625)"/>
       </defs>
       <use xlink:href="#SimHei-31"/>
       <use xlink:href="#SimHei-30" x="50"/>
       <use xlink:href="#SimHei-30" x="100"/>
      </g>
     </g>
    </g>
    <g id="xtick_4">
     <g id="line2d_7">
      <path d="M 835.928107 512.64 
L 835.928107 69.12 
" clip-path="url(#p55ee842069)" style="fill: none; stroke: #b0b0b0; stroke-width: 0.8; stroke-linecap: square"/>
     </g>
     <g id="line2d_8">
      <g>
       <use xlink:href="#m3ba83b73d2" x="835.928107" y="512.64" style="stroke: #000000; stroke-width: 0.8"/>
      </g>
     </g>
     <g id="text_4">
      <!-- 150 -->
      <g transform="translate(825.428107 529.265) scale(0.14 -0.14)">
       <use xlink:href="#SimHei-31"/>
       <use xlink:href="#SimHei-35" x="50"/>
       <use xlink:href="#SimHei-30" x="100"/>
      </g>
     </g>
    </g>
    <g id="xtick_5">
     <g id="line2d_9">
      <path d="M 1045.352627 512.64 
L 1045.352627 69.12 
" clip-path="url(#p55ee842069)" style="fill: none; stroke: #b0b0b0; stroke-width: 0.8; stroke-linecap: square"/>
     </g>
     <g id="line2d_10">
      <g>
       <use xlink:href="#m3ba83b73d2" x="1045.352627" y="512.64" style="stroke: #000000; stroke-width: 0.8"/>
      </g>
     </g>
     <g id="text_5">
      <!-- 200 -->
      <g transform="translate(1034.852627 529.265) scale(0.14 -0.14)">
       <defs>
        <path id="SimHei-32" d="M 300 250 
Q 325 625 650 925 
Q 975 1225 1475 1862 
Q 1975 2500 2125 2850 
Q 2275 3200 2237 3450 
Q 2200 3700 2000 3862 
Q 1800 4025 1537 4000 
Q 1275 3975 1037 3800 
Q 800 3625 675 3275 
L 200 3350 
Q 400 3925 712 4187 
Q 1025 4450 1450 4475 
Q 1700 4500 1900 4462 
Q 2100 4425 2312 4287 
Q 2525 4150 2662 3875 
Q 2800 3600 2762 3212 
Q 2725 2825 2375 2287 
Q 2025 1750 1025 600 
L 2825 600 
L 2825 150 
L 300 150 
L 300 250 
z
" transform="scale(0.015625)"/>
       </defs>
       <use xlink:href="#SimHei-32"/>
       <use xlink:href="#SimHei-30" x="50"/>
       <use xlink:href="#SimHei-30" x="100"/>
      </g>
     </g>
    </g>
   </g>
   <g id="matplotlib.axis_2">
    <g id="ytick_1">
     <g id="line2d_11">
      <path d="M 162 485.02439 
L 1166.4 485.02439 
" clip-path="url(#p55ee842069)" style="fill: none; stroke: #b0b0b0; stroke-width: 0.8; stroke-linecap: square"/>
     </g>
     <g id="line2d_12">
      <defs>
       <path id="mfc65745cce" d="M 0 0 
L -3.5 0 
" style="stroke: #000000; stroke-width: 0.8"/>
      </defs>
      <g>
       <use xlink:href="#mfc65745cce" x="162" y="485.02439" style="stroke: #000000; stroke-width: 0.8"/>
      </g>
     </g>
     <g id="text_6">
      <!-- 10 -->
      <g transform="translate(141 489.83689) scale(0.14 -0.14)">
       <use xlink:href="#SimHei-31"/>
       <use xlink:href="#SimHei-30" x="50"/>
      </g>
     </g>
    </g>
    <g id="ytick_2">
     <g id="line2d_13">
      <path d="M 162 414.555461 
L 1166.4 414.555461 
" clip-path="url(#p55ee842069)" style="fill: none; stroke: #b0b0b0; stroke-width: 0.8; stroke-linecap: square"/>
     </g>
     <g id="line2d_14">
      <g>
       <use xlink:href="#mfc65745cce" x="162" y="414.555461" style="stroke: #000000; stroke-width: 0.8"/>
      </g>
     </g>
     <g id="text_7">
      <!-- 20 -->
      <g transform="translate(141 419.367961) scale(0.14 -0.14)">
       <use xlink:href="#SimHei-32"/>
       <use xlink:href="#SimHei-30" x="50"/>
      </g>
     </g>
    </g>
    <g id="ytick_3">
     <g id="line2d_15">
      <path d="M 162 344.086533 
L 1166.4 344.086533 
" clip-path="url(#p55ee842069)" style="fill: none; stroke: #b0b0b0; stroke-width: 0.8; stroke-linecap: square"/>
     </g>
     <g id="line2d_16">
      <g>
       <use xlink:href="#mfc65745cce" x="162" y="344.086533" style="stroke: #000000; stroke-width: 0.8"/>
      </g>
     </g>
     <g id="text_8">
      <!-- 30 -->
      <g transform="translate(141 348.899033) scale(0.14 -0.14)">
       <defs>
        <path id="SimHei-33" d="M 250 1225 
L 700 1300 
Q 800 975 1025 762 
Q 1250 550 1587 562 
Q 1925 575 2125 837 
Q 2325 1100 2300 1437 
Q 2275 1775 2037 1962 
Q 1800 2150 1275 2225 
L 1275 2550 
Q 1800 2600 2037 2825 
Q 2275 3050 2250 3412 
Q 2225 3775 1925 3937 
Q 1625 4100 1287 3975 
Q 950 3850 750 3275 
L 300 3350 
Q 450 3800 712 4100 
Q 975 4400 1425 4450 
Q 1875 4500 2212 4337 
Q 2550 4175 2687 3837 
Q 2825 3500 2725 3100 
Q 2625 2700 2150 2400 
Q 2500 2250 2687 1950 
Q 2875 1650 2812 1162 
Q 2750 675 2375 375 
Q 2000 75 1525 87 
Q 1050 100 700 387 
Q 350 675 250 1225 
z
" transform="scale(0.015625)"/>
       </defs>
       <use xlink:href="#SimHei-33"/>
       <use xlink:href="#SimHei-30" x="50"/>
      </g>
     </g>
    </g>
    <g id="ytick_4">
     <g id="line2d_17">
      <path d="M 162 273.617604 
L 1166.4 273.617604 
" clip-path="url(#p55ee842069)" style="fill: none; stroke: #b0b0b0; stroke-width: 0.8; stroke-linecap: square"/>
     </g>
     <g id="line2d_18">
      <g>
       <use xlink:href="#mfc65745cce" x="162" y="273.617604" style="stroke: #000000; stroke-width: 0.8"/>
      </g>
     </g>
     <g id="text_9">
      <!-- 40 -->
      <g transform="translate(141 278.430104) scale(0.14 -0.14)">
       <defs>
        <path id="SimHei-34" d="M 2000 1100 
L 75 1100 
L 75 1525 
L 2100 4450 
L 2475 4450 
L 2475 1525 
L 3075 1525 
L 3075 1100 
L 2475 1100 
L 2475 150 
L 2000 150 
L 2000 1100 
z
M 2000 1525 
L 2000 3500 
L 600 1525 
L 2000 1525 
z
" transform="scale(0.015625)"/>
       </defs>
       <use xlink:href="#SimHei-34"/>
       <use xlink:href="#SimHei-30" x="50"/>
      </g>
     </g>
    </g>
    <g id="ytick_5">
     <g id="line2d_19">
      <path d="M 162 203.148675 
L 1166.4 203.148675 
" clip-path="url(#p55ee842069)" style="fill: none; stroke: #b0b0b0; stroke-width: 0.8; stroke-linecap: square"/>
     </g>
     <g id="line2d_20">
      <g>
       <use xlink:href="#mfc65745cce" x="162" y="203.148675" style="stroke: #000000; stroke-width: 0.8"/>
      </g>
     </g>
     <g id="text_10">
      <!-- 50 -->
      <g transform="translate(141 207.961175) scale(0.14 -0.14)">
       <use xlink:href="#SimHei-35"/>
       <use xlink:href="#SimHei-30" x="50"/>
      </g>
     </g>
    </g>
    <g id="ytick_6">
     <g id="line2d_21">
      <path d="M 162 132.679746 
L 1166.4 132.679746 
" clip-path="url(#p55ee842069)" style="fill: none; stroke: #b0b0b0; stroke-width: 0.8; stroke-linecap: square"/>
     </g>
     <g id="line2d_22">
      <g>
       <use xlink:href="#mfc65745cce" x="162" y="132.679746" style="stroke: #000000; stroke-width: 0.8"/>
      </g>
     </g>
     <g id="text_11">
      <!-- 60 -->
      <g transform="translate(141 137.492246) scale(0.14 -0.14)">
       <defs>
        <path id="SimHei-36" d="M 250 1612 
Q 275 1975 387 2225 
Q 500 2475 725 2850 
L 1750 4450 
L 2325 4450 
L 1275 2800 
Q 1950 2975 2350 2750 
Q 2750 2525 2887 2237 
Q 3025 1950 3037 1612 
Q 3050 1275 2937 950 
Q 2825 625 2537 362 
Q 2250 100 1737 75 
Q 1225 50 862 262 
Q 500 475 362 862 
Q 225 1250 250 1612 
z
M 1025 787 
Q 1250 550 1625 525 
Q 2000 500 2250 775 
Q 2500 1050 2500 1575 
Q 2500 2100 2187 2300 
Q 1875 2500 1487 2450 
Q 1100 2400 925 2075 
Q 750 1750 775 1387 
Q 800 1025 1025 787 
z
" transform="scale(0.015625)"/>
       </defs>
       <use xlink:href="#SimHei-36"/>
       <use xlink:href="#SimHei-30" x="50"/>
      </g>
     </g>
    </g>
    <g id="text_12">
     <!-- 充电量(Ah) -->
     <g transform="translate(135 330.88) rotate(-90) scale(0.16 -0.16)">
      <defs>
       <path id="SimHei-5145" d="M 3325 5175 
Q 3425 4825 3600 4300 
L 4900 4300 
Q 5425 4300 5775 4325 
L 5775 3825 
Q 5525 3850 4925 3850 
L 2675 3850 
Q 2850 3700 3100 3550 
Q 2775 3400 1875 2675 
L 4475 2750 
Q 4275 2975 3900 3275 
Q 4150 3450 4275 3600 
Q 5250 2775 5625 2350 
Q 5400 2200 5200 1975 
Q 5000 2225 4800 2425 
Q 4475 2400 4100 2375 
L 4100 325 
Q 4100 0 4425 0 
L 5125 0 
Q 5325 0 5375 175 
Q 5425 350 5475 800 
Q 5850 625 6075 600 
Q 5875 -250 5700 -350 
Q 5525 -450 5275 -450 
L 4225 -450 
Q 3650 -450 3650 75 
L 3650 2325 
L 2650 2250 
Q 2675 -75 800 -650 
Q 650 -375 400 -225 
Q 2225 275 2175 2200 
Q 1550 2150 1175 2050 
Q 1100 2450 1025 2725 
Q 1575 2875 1900 3200 
Q 2225 3525 2475 3850 
L 1450 3850 
Q 1025 3850 575 3825 
L 575 4325 
Q 1025 4300 1450 4300 
L 3000 4300 
Q 2875 4725 2750 5025 
Q 3075 5100 3325 5175 
z
" transform="scale(0.015625)"/>
       <path id="SimHei-7535" d="M 6150 325 
Q 5975 -250 5825 -412 
Q 5675 -575 5325 -575 
L 3375 -575 
Q 2700 -600 2675 100 
L 2675 975 
L 1225 975 
L 1225 500 
L 650 500 
Q 675 750 675 2225 
Q 675 3700 650 4150 
L 2675 4150 
Q 2675 4825 2650 5200 
L 3200 5200 
Q 3175 4875 3175 4150 
L 5200 4150 
Q 5175 3775 5175 2600 
Q 5175 1450 5200 975 
L 3175 975 
L 3175 300 
Q 3175 -150 3650 -150 
L 4975 -150 
Q 5375 -150 5450 25 
Q 5525 200 5575 575 
Q 5825 400 6150 325 
z
M 4675 1400 
L 4675 2400 
L 3175 2400 
L 3175 1400 
L 4675 1400 
z
M 2675 1400 
L 2675 2400 
L 1225 2400 
L 1225 1400 
L 2675 1400 
z
M 4675 2800 
L 4675 3725 
L 3175 3725 
L 3175 2800 
L 4675 2800 
z
M 2675 2800 
L 2675 3725 
L 1225 3725 
L 1225 2800 
L 2675 2800 
z
" transform="scale(0.015625)"/>
       <path id="SimHei-91cf" d="M 5250 2500 
Q 5225 2200 5225 1700 
Q 5225 1225 5250 950 
L 3425 950 
L 3425 625 
L 4575 625 
Q 5000 625 5375 650 
L 5375 275 
Q 5025 300 4575 300 
L 3425 300 
L 3425 -75 
L 5125 -75 
Q 5525 -75 5925 -50 
L 5925 -425 
Q 5525 -400 5125 -400 
L 1275 -400 
Q 900 -400 475 -425 
L 475 -50 
Q 925 -50 1275 -75 
L 2975 -75 
L 2975 300 
L 1725 300 
Q 1350 300 975 250 
L 975 650 
Q 1375 625 1725 625 
L 2975 625 
L 2975 950 
L 1150 950 
Q 1175 1375 1175 1775 
Q 1175 2175 1150 2500 
L 5250 2500 
z
M 5200 4950 
Q 5175 4575 5175 4250 
Q 5175 3925 5200 3400 
L 1200 3400 
Q 1225 3925 1225 4250 
Q 1225 4575 1200 4950 
L 5200 4950 
z
M 4900 3100 
Q 5500 3125 6000 3150 
L 6000 2750 
Q 5500 2775 4925 2775 
L 1650 2775 
Q 975 2775 325 2750 
L 325 3150 
Q 975 3125 1650 3100 
L 4900 3100 
z
M 4725 3700 
L 4725 4025 
L 1675 4025 
L 1675 3700 
L 4725 3700 
z
M 4725 4350 
L 4725 4650 
L 1675 4650 
L 1675 4350 
L 4725 4350 
z
M 4750 1875 
L 4750 2175 
L 3425 2175 
L 3425 1875 
L 4750 1875 
z
M 2975 1875 
L 2975 2175 
L 1650 2175 
L 1650 1875 
L 2975 1875 
z
M 2975 1275 
L 2975 1550 
L 1650 1550 
L 1650 1275 
L 2975 1275 
z
M 4750 1275 
L 4750 1550 
L 3425 1550 
L 3425 1275 
L 4750 1275 
z
" transform="scale(0.015625)"/>
       <path id="SimHei-28" d="M 2975 -200 
L 2700 -475 
Q 2075 125 1762 775 
Q 1450 1425 1450 2250 
Q 1450 3075 1762 3725 
Q 2075 4375 2700 5000 
L 2975 4725 
Q 2400 4175 2112 3587 
Q 1825 3000 1825 2250 
Q 1825 1500 2112 912 
Q 2400 325 2975 -200 
z
" transform="scale(0.015625)"/>
       <path id="SimHei-41" d="M 3075 125 
L 2475 125 
L 2125 1450 
L 1025 1450 
L 675 125 
L 75 125 
L 1325 4450 
L 1825 4450 
L 3075 125 
z
M 2000 1925 
L 1600 3450 
L 1550 3450 
L 1150 1925 
L 2000 1925 
z
" transform="scale(0.015625)"/>
       <path id="SimHei-68" d="M 2800 125 
L 2300 125 
L 2300 1925 
Q 2300 2225 2150 2400 
Q 2000 2575 1750 2575 
Q 1425 2575 1137 2237 
Q 850 1900 850 1400 
L 850 125 
L 350 125 
L 350 4400 
L 850 4400 
L 850 2400 
Q 1050 2675 1287 2825 
Q 1525 2975 1900 2975 
Q 2350 2975 2575 2725 
Q 2800 2475 2800 2100 
L 2800 125 
z
" transform="scale(0.015625)"/>
       <path id="SimHei-29" d="M 1675 2250 
Q 1675 1425 1362 775 
Q 1050 125 425 -475 
L 150 -200 
Q 725 325 1012 912 
Q 1300 1500 1300 2250 
Q 1300 3000 1012 3587 
Q 725 4175 150 4725 
L 425 5000 
Q 1050 4375 1362 3725 
Q 1675 3075 1675 2250 
z
" transform="scale(0.015625)"/>
      </defs>
      <use xlink:href="#SimHei-5145"/>
      <use xlink:href="#SimHei-7535" x="100"/>
      <use xlink:href="#SimHei-91cf" x="200"/>
      <use xlink:href="#SimHei-28" x="300"/>
      <use xlink:href="#SimHei-41" x="350"/>
      <use xlink:href="#SimHei-68" x="400"/>
      <use xlink:href="#SimHei-29" x="450"/>
     </g>
    </g>
   </g>
   <g id="line2d_23">
    <path d="M 207.654545 132.426063 
L 211.843036 162.854552 
L 216.031526 188.202227 
L 220.220017 120.432254 
L 224.408507 168.287706 
L 228.596997 161.381754 
L 232.785488 104.301906 
L 236.973978 107.036103 
L 241.162469 130.798238 
L 245.350959 121.3554 
L 249.53945 131.474717 
L 253.72794 155.413035 
L 257.91643 164.9052 
L 262.104921 117.500744 
L 266.293411 118.719858 
L 270.481902 153.01002 
L 274.670392 141.284007 
L 278.858882 166.300471 
L 283.047373 118.149051 
L 287.235863 160.994173 
L 291.424354 104.879756 
L 295.612844 94.506729 
L 299.801334 165.306868 
L 303.989825 126.985866 
L 308.178315 146.759446 
L 312.366806 175.250029 
L 316.555296 173.861801 
L 320.743786 161.64248 
L 324.932277 127.345248 
L 329.120767 126.577129 
L 333.309258 145.469847 
L 337.497748 156.95629 
L 341.686239 138.951477 
L 345.874729 118.762143 
L 350.063219 144.187318 
L 354.25171 106.437124 
L 358.4402 115.49238 
L 362.628691 158.527744 
L 366.817181 105.626719 
L 371.005671 150.924157 
L 375.194162 156.096584 
L 379.382652 140.156505 
L 383.571143 130.008962 
L 387.759633 103.724055 
L 391.948123 157.442527 
L 396.136614 163.932726 
L 400.325104 147.203398 
L 404.513595 134.589453 
L 408.702085 163.404203 
L 412.890575 114.879288 
L 417.079066 90.863497 
L 421.267556 230.399014 
L 425.456047 176.884897 
L 433.833028 266.486141 
L 438.021518 193.120944 
L 442.210008 121.79231 
L 446.398499 160.789791 
L 450.586989 152.77045 
L 454.77548 234.725795 
L 458.96397 355.62229 
L 463.15246 460.043154 
L 467.340951 462.234737 
L 471.529441 442.200424 
L 475.717932 427.676772 
L 479.906422 469.641026 
L 484.094912 101.93416 
L 488.283403 158.259975 
L 492.471893 105.401235 
L 496.660384 111.863235 
L 500.848874 326.765269 
L 505.037364 109.150166 
L 509.225855 159.824386 
L 513.414345 114.548078 
L 517.602836 115.111842 
L 521.791326 125.224143 
L 525.979817 183.981118 
L 530.168307 141.12898 
L 534.356797 108.96694 
L 538.545288 122.44766 
L 542.733778 181.620415 
L 546.922269 139.247445 
L 551.110759 134.307571 
L 555.299249 173.636289 
L 559.48774 105.922688 
L 563.67623 171.980265 
L 567.864721 107.170001 
L 572.053211 140.811856 
L 576.241701 119.614806 
L 580.430192 144.455114 
L 584.618682 119.537279 
L 588.807173 177.927855 
L 592.995663 108.741456 
L 597.184153 115.231627 
L 601.372644 273.55419 
L 605.561134 278.085326 
L 609.749625 446.773852 
L 613.938115 421.158402 
L 618.126606 445.202398 
L 622.315096 442.926252 
L 626.503586 459.246856 
L 630.692077 434.307898 
L 634.880567 433.666634 
L 639.069058 455.399249 
L 643.257548 437.648132 
L 647.446038 432.680073 
L 651.634529 138.27497 
L 655.823019 140.854141 
L 664.2 115.767192 
L 668.38849 151.452679 
L 672.576981 100.031469 
L 676.765471 177.420462 
L 680.953962 136.752844 
L 685.142452 160.359951 
L 689.330942 99.693242 
L 693.519433 123.159382 
L 697.707923 159.521348 
L 701.896414 184.17843 
L 706.084904 114.872245 
L 710.273394 94.083932 
L 714.461885 146.991973 
L 718.650375 150.903001 
L 722.838866 134.624695 
L 727.027356 148.640954 
L 731.215847 125.259358 
L 735.404337 147.168156 
L 739.592827 120.833921 
L 743.781318 119.297709 
L 747.969808 137.274323 
L 752.158299 179.795278 
L 756.346789 173.185294 
L 760.535279 170.549752 
L 764.72377 126.950624 
L 768.91226 112.307187 
L 773.100751 257.670482 
L 777.289241 249.143748 
L 781.477731 267.162647 
L 785.666222 204.071822 
L 789.854712 326.102875 
L 794.043203 452.481839 
L 798.231693 180.598612 
L 802.420183 460.487107 
L 806.608674 458.767668 
L 810.797164 440.924939 
L 814.985655 439.938364 
L 819.174145 450.93152 
L 823.362636 205.065425 
L 827.551126 242.759248 
L 831.739616 223.626933 
L 835.928107 193.283014 
L 840.116597 138.881019 
L 844.305088 90.609787 
L 848.493578 162.389444 
L 852.682068 127.387533 
L 856.870559 115.132971 
L 861.059049 294.131104 
L 865.24754 390.180261 
L 869.43603 266.204286 
L 873.62452 119.26951 
L 877.813011 130.347216 
L 882.001501 136.104537 
L 886.189992 203.740611 
L 890.378482 351.633749 
L 894.566972 356.482023 
L 898.755463 402.026087 
L 902.943953 246.599819 
L 907.132444 142.742719 
L 911.320934 150.994614 
L 915.509425 120.00943 
L 919.697915 124.293953 
L 923.886405 270.277383 
L 928.074896 169.633649 
L 932.263386 237.748918 
L 936.451877 177.519118 
L 940.640367 178.505679 
L 944.828857 138.585051 
L 949.017348 95.690602 
L 953.205838 137.232038 
L 957.394329 134.265286 
L 961.582819 348.540169 
L 965.771309 159.47202 
L 969.9598 163.044794 
L 974.14829 128.183825 
L 978.336781 170.007144 
L 982.525271 357.186701 
L 986.713761 492.48 
L 990.902252 347.426766 
L 995.090742 151.184883 
L 999.279233 141.20648 
L 1003.467723 130.678426 
L 1007.656214 104.527417 
L 1011.844704 119.043999 
L 1016.033194 151.065098 
L 1020.221685 263.25162 
L 1024.410175 243.463954 
L 1028.598666 249.270576 
L 1032.787156 261.55331 
L 1036.975646 249.439716 
L 1041.164137 454.222419 
L 1045.352627 417.254417 
L 1049.541118 438.634693 
L 1053.729608 438.740392 
L 1057.918098 453.827795 
L 1062.106589 451.142932 
L 1066.295079 462.284065 
L 1070.48357 451.763054 
L 1074.67206 438.430338 
L 1078.86055 142.87659 
L 1083.049041 154.694243 
L 1087.237531 122.44766 
L 1091.426022 164.552834 
L 1095.614512 142.023928 
L 1099.803003 181.120092 
L 1103.991493 166.011546 
L 1108.179983 152.213729 
L 1112.368474 90.891669 
L 1116.556964 117.331604 
L 1120.745455 116.126602 
L 1120.745455 116.126602 
" clip-path="url(#p55ee842069)" style="fill: none; stroke: #ff0000; stroke-width: 1.5; stroke-linecap: square"/>
    <defs>
     <path id="mf084e6e2f9" d="M 0 2 
C 0.530406 2 1.03916 1.789267 1.414214 1.414214 
C 1.789267 1.03916 2 0.530406 2 0 
C 2 -0.530406 1.789267 -1.03916 1.414214 -1.414214 
C 1.03916 -1.789267 0.530406 -2 0 -2 
C -0.530406 -2 -1.03916 -1.789267 -1.414214 -1.414214 
C -1.789267 -1.03916 -2 -0.530406 -2 0 
C -2 0.530406 -1.789267 1.03916 -1.414214 1.414214 
C -1.03916 1.789267 -0.530406 2 0 2 
z
" style="stroke: #ff0000"/>
    </defs>
    <g clip-path="url(#p55ee842069)">
     <use xlink:href="#mf084e6e2f9" x="207.654545" y="132.426063" style="fill: #ff0000; stroke: #ff0000"/>
     <use xlink:href="#mf084e6e2f9" x="211.843036" y="162.854552" style="fill: #ff0000; stroke: #ff0000"/>
     <use xlink:href="#mf084e6e2f9" x="216.031526" y="188.202227" style="fill: #ff0000; stroke: #ff0000"/>
     <use xlink:href="#mf084e6e2f9" x="220.220017" y="120.432254" style="fill: #ff0000; stroke: #ff0000"/>
     <use xlink:href="#mf084e6e2f9" x="224.408507" y="168.287706" style="fill: #ff0000; stroke: #ff0000"/>
     <use xlink:href="#mf084e6e2f9" x="228.596997" y="161.381754" style="fill: #ff0000; stroke: #ff0000"/>
     <use xlink:href="#mf084e6e2f9" x="232.785488" y="104.301906" style="fill: #ff0000; stroke: #ff0000"/>
     <use xlink:href="#mf084e6e2f9" x="236.973978" y="107.036103" style="fill: #ff0000; stroke: #ff0000"/>
     <use xlink:href="#mf084e6e2f9" x="241.162469" y="130.798238" style="fill: #ff0000; stroke: #ff0000"/>
     <use xlink:href="#mf084e6e2f9" x="245.350959" y="121.3554" style="fill: #ff0000; stroke: #ff0000"/>
     <use xlink:href="#mf084e6e2f9" x="249.53945" y="131.474717" style="fill: #ff0000; stroke: #ff0000"/>
     <use xlink:href="#mf084e6e2f9" x="253.72794" y="155.413035" style="fill: #ff0000; stroke: #ff0000"/>
     <use xlink:href="#mf084e6e2f9" x="257.91643" y="164.9052" style="fill: #ff0000; stroke: #ff0000"/>
     <use xlink:href="#mf084e6e2f9" x="262.104921" y="117.500744" style="fill: #ff0000; stroke: #ff0000"/>
     <use xlink:href="#mf084e6e2f9" x="266.293411" y="118.719858" style="fill: #ff0000; stroke: #ff0000"/>
     <use xlink:href="#mf084e6e2f9" x="270.481902" y="153.01002" style="fill: #ff0000; stroke: #ff0000"/>
     <use xlink:href="#mf084e6e2f9" x="274.670392" y="141.284007" style="fill: #ff0000; stroke: #ff0000"/>
     <use xlink:href="#mf084e6e2f9" x="278.858882" y="166.300471" style="fill: #ff0000; stroke: #ff0000"/>
     <use xlink:href="#mf084e6e2f9" x="283.047373" y="118.149051" style="fill: #ff0000; stroke: #ff0000"/>
     <use xlink:href="#mf084e6e2f9" x="287.235863" y="160.994173" style="fill: #ff0000; stroke: #ff0000"/>
     <use xlink:href="#mf084e6e2f9" x="291.424354" y="104.879756" style="fill: #ff0000; stroke: #ff0000"/>
     <use xlink:href="#mf084e6e2f9" x="295.612844" y="94.506729" style="fill: #ff0000; stroke: #ff0000"/>
     <use xlink:href="#mf084e6e2f9" x="299.801334" y="165.306868" style="fill: #ff0000; stroke: #ff0000"/>
     <use xlink:href="#mf084e6e2f9" x="303.989825" y="126.985866" style="fill: #ff0000; stroke: #ff0000"/>
     <use xlink:href="#mf084e6e2f9" x="308.178315" y="146.759446" style="fill: #ff0000; stroke: #ff0000"/>
     <use xlink:href="#mf084e6e2f9" x="312.366806" y="175.250029" style="fill: #ff0000; stroke: #ff0000"/>
     <use xlink:href="#mf084e6e2f9" x="316.555296" y="173.861801" style="fill: #ff0000; stroke: #ff0000"/>
     <use xlink:href="#mf084e6e2f9" x="320.743786" y="161.64248" style="fill: #ff0000; stroke: #ff0000"/>
     <use xlink:href="#mf084e6e2f9" x="324.932277" y="127.345248" style="fill: #ff0000; stroke: #ff0000"/>
     <use xlink:href="#mf084e6e2f9" x="329.120767" y="126.577129" style="fill: #ff0000; stroke: #ff0000"/>
     <use xlink:href="#mf084e6e2f9" x="333.309258" y="145.469847" style="fill: #ff0000; stroke: #ff0000"/>
     <use xlink:href="#mf084e6e2f9" x="337.497748" y="156.95629" style="fill: #ff0000; stroke: #ff0000"/>
     <use xlink:href="#mf084e6e2f9" x="341.686239" y="138.951477" style="fill: #ff0000; stroke: #ff0000"/>
     <use xlink:href="#mf084e6e2f9" x="345.874729" y="118.762143" style="fill: #ff0000; stroke: #ff0000"/>
     <use xlink:href="#mf084e6e2f9" x="350.063219" y="144.187318" style="fill: #ff0000; stroke: #ff0000"/>
     <use xlink:href="#mf084e6e2f9" x="354.25171" y="106.437124" style="fill: #ff0000; stroke: #ff0000"/>
     <use xlink:href="#mf084e6e2f9" x="358.4402" y="115.49238" style="fill: #ff0000; stroke: #ff0000"/>
     <use xlink:href="#mf084e6e2f9" x="362.628691" y="158.527744" style="fill: #ff0000; stroke: #ff0000"/>
     <use xlink:href="#mf084e6e2f9" x="366.817181" y="105.626719" style="fill: #ff0000; stroke: #ff0000"/>
     <use xlink:href="#mf084e6e2f9" x="371.005671" y="150.924157" style="fill: #ff0000; stroke: #ff0000"/>
     <use xlink:href="#mf084e6e2f9" x="375.194162" y="156.096584" style="fill: #ff0000; stroke: #ff0000"/>
     <use xlink:href="#mf084e6e2f9" x="379.382652" y="140.156505" style="fill: #ff0000; stroke: #ff0000"/>
     <use xlink:href="#mf084e6e2f9" x="383.571143" y="130.008962" style="fill: #ff0000; stroke: #ff0000"/>
     <use xlink:href="#mf084e6e2f9" x="387.759633" y="103.724055" style="fill: #ff0000; stroke: #ff0000"/>
     <use xlink:href="#mf084e6e2f9" x="391.948123" y="157.442527" style="fill: #ff0000; stroke: #ff0000"/>
     <use xlink:href="#mf084e6e2f9" x="396.136614" y="163.932726" style="fill: #ff0000; stroke: #ff0000"/>
     <use xlink:href="#mf084e6e2f9" x="400.325104" y="147.203398" style="fill: #ff0000; stroke: #ff0000"/>
     <use xlink:href="#mf084e6e2f9" x="404.513595" y="134.589453" style="fill: #ff0000; stroke: #ff0000"/>
     <use xlink:href="#mf084e6e2f9" x="408.702085" y="163.404203" style="fill: #ff0000; stroke: #ff0000"/>
     <use xlink:href="#mf084e6e2f9" x="412.890575" y="114.879288" style="fill: #ff0000; stroke: #ff0000"/>
     <use xlink:href="#mf084e6e2f9" x="417.079066" y="90.863497" style="fill: #ff0000; stroke: #ff0000"/>
     <use xlink:href="#mf084e6e2f9" x="421.267556" y="230.399014" style="fill: #ff0000; stroke: #ff0000"/>
     <use xlink:href="#mf084e6e2f9" x="425.456047" y="176.884897" style="fill: #ff0000; stroke: #ff0000"/>
     <use xlink:href="#mf084e6e2f9" x="429.644537" y="221.146445" style="fill: #ff0000; stroke: #ff0000"/>
     <use xlink:href="#mf084e6e2f9" x="433.833028" y="266.486141" style="fill: #ff0000; stroke: #ff0000"/>
     <use xlink:href="#mf084e6e2f9" x="438.021518" y="193.120944" style="fill: #ff0000; stroke: #ff0000"/>
     <use xlink:href="#mf084e6e2f9" x="442.210008" y="121.79231" style="fill: #ff0000; stroke: #ff0000"/>
     <use xlink:href="#mf084e6e2f9" x="446.398499" y="160.789791" style="fill: #ff0000; stroke: #ff0000"/>
     <use xlink:href="#mf084e6e2f9" x="450.586989" y="152.77045" style="fill: #ff0000; stroke: #ff0000"/>
     <use xlink:href="#mf084e6e2f9" x="454.77548" y="234.725795" style="fill: #ff0000; stroke: #ff0000"/>
     <use xlink:href="#mf084e6e2f9" x="458.96397" y="355.62229" style="fill: #ff0000; stroke: #ff0000"/>
     <use xlink:href="#mf084e6e2f9" x="463.15246" y="460.043154" style="fill: #ff0000; stroke: #ff0000"/>
     <use xlink:href="#mf084e6e2f9" x="467.340951" y="462.234737" style="fill: #ff0000; stroke: #ff0000"/>
     <use xlink:href="#mf084e6e2f9" x="471.529441" y="442.200424" style="fill: #ff0000; stroke: #ff0000"/>
     <use xlink:href="#mf084e6e2f9" x="475.717932" y="427.676772" style="fill: #ff0000; stroke: #ff0000"/>
     <use xlink:href="#mf084e6e2f9" x="479.906422" y="469.641026" style="fill: #ff0000; stroke: #ff0000"/>
     <use xlink:href="#mf084e6e2f9" x="484.094912" y="101.93416" style="fill: #ff0000; stroke: #ff0000"/>
     <use xlink:href="#mf084e6e2f9" x="488.283403" y="158.259975" style="fill: #ff0000; stroke: #ff0000"/>
     <use xlink:href="#mf084e6e2f9" x="492.471893" y="105.401235" style="fill: #ff0000; stroke: #ff0000"/>
     <use xlink:href="#mf084e6e2f9" x="496.660384" y="111.863235" style="fill: #ff0000; stroke: #ff0000"/>
     <use xlink:href="#mf084e6e2f9" x="500.848874" y="326.765269" style="fill: #ff0000; stroke: #ff0000"/>
     <use xlink:href="#mf084e6e2f9" x="505.037364" y="109.150166" style="fill: #ff0000; stroke: #ff0000"/>
     <use xlink:href="#mf084e6e2f9" x="509.225855" y="159.824386" style="fill: #ff0000; stroke: #ff0000"/>
     <use xlink:href="#mf084e6e2f9" x="513.414345" y="114.548078" style="fill: #ff0000; stroke: #ff0000"/>
     <use xlink:href="#mf084e6e2f9" x="517.602836" y="115.111842" style="fill: #ff0000; stroke: #ff0000"/>
     <use xlink:href="#mf084e6e2f9" x="521.791326" y="125.224143" style="fill: #ff0000; stroke: #ff0000"/>
     <use xlink:href="#mf084e6e2f9" x="525.979817" y="183.981118" style="fill: #ff0000; stroke: #ff0000"/>
     <use xlink:href="#mf084e6e2f9" x="530.168307" y="141.12898" style="fill: #ff0000; stroke: #ff0000"/>
     <use xlink:href="#mf084e6e2f9" x="534.356797" y="108.96694" style="fill: #ff0000; stroke: #ff0000"/>
     <use xlink:href="#mf084e6e2f9" x="538.545288" y="122.44766" style="fill: #ff0000; stroke: #ff0000"/>
     <use xlink:href="#mf084e6e2f9" x="542.733778" y="181.620415" style="fill: #ff0000; stroke: #ff0000"/>
     <use xlink:href="#mf084e6e2f9" x="546.922269" y="139.247445" style="fill: #ff0000; stroke: #ff0000"/>
     <use xlink:href="#mf084e6e2f9" x="551.110759" y="134.307571" style="fill: #ff0000; stroke: #ff0000"/>
     <use xlink:href="#mf084e6e2f9" x="555.299249" y="173.636289" style="fill: #ff0000; stroke: #ff0000"/>
     <use xlink:href="#mf084e6e2f9" x="559.48774" y="105.922688" style="fill: #ff0000; stroke: #ff0000"/>
     <use xlink:href="#mf084e6e2f9" x="563.67623" y="171.980265" style="fill: #ff0000; stroke: #ff0000"/>
     <use xlink:href="#mf084e6e2f9" x="567.864721" y="107.170001" style="fill: #ff0000; stroke: #ff0000"/>
     <use xlink:href="#mf084e6e2f9" x="572.053211" y="140.811856" style="fill: #ff0000; stroke: #ff0000"/>
     <use xlink:href="#mf084e6e2f9" x="576.241701" y="119.614806" style="fill: #ff0000; stroke: #ff0000"/>
     <use xlink:href="#mf084e6e2f9" x="580.430192" y="144.455114" style="fill: #ff0000; stroke: #ff0000"/>
     <use xlink:href="#mf084e6e2f9" x="584.618682" y="119.537279" style="fill: #ff0000; stroke: #ff0000"/>
     <use xlink:href="#mf084e6e2f9" x="588.807173" y="177.927855" style="fill: #ff0000; stroke: #ff0000"/>
     <use xlink:href="#mf084e6e2f9" x="592.995663" y="108.741456" style="fill: #ff0000; stroke: #ff0000"/>
     <use xlink:href="#mf084e6e2f9" x="597.184153" y="115.231627" style="fill: #ff0000; stroke: #ff0000"/>
     <use xlink:href="#mf084e6e2f9" x="601.372644" y="273.55419" style="fill: #ff0000; stroke: #ff0000"/>
     <use xlink:href="#mf084e6e2f9" x="605.561134" y="278.085326" style="fill: #ff0000; stroke: #ff0000"/>
     <use xlink:href="#mf084e6e2f9" x="609.749625" y="446.773852" style="fill: #ff0000; stroke: #ff0000"/>
     <use xlink:href="#mf084e6e2f9" x="613.938115" y="421.158402" style="fill: #ff0000; stroke: #ff0000"/>
     <use xlink:href="#mf084e6e2f9" x="618.126606" y="445.202398" style="fill: #ff0000; stroke: #ff0000"/>
     <use xlink:href="#mf084e6e2f9" x="622.315096" y="442.926252" style="fill: #ff0000; stroke: #ff0000"/>
     <use xlink:href="#mf084e6e2f9" x="626.503586" y="459.246856" style="fill: #ff0000; stroke: #ff0000"/>
     <use xlink:href="#mf084e6e2f9" x="630.692077" y="434.307898" style="fill: #ff0000; stroke: #ff0000"/>
     <use xlink:href="#mf084e6e2f9" x="634.880567" y="433.666634" style="fill: #ff0000; stroke: #ff0000"/>
     <use xlink:href="#mf084e6e2f9" x="639.069058" y="455.399249" style="fill: #ff0000; stroke: #ff0000"/>
     <use xlink:href="#mf084e6e2f9" x="643.257548" y="437.648132" style="fill: #ff0000; stroke: #ff0000"/>
     <use xlink:href="#mf084e6e2f9" x="647.446038" y="432.680073" style="fill: #ff0000; stroke: #ff0000"/>
     <use xlink:href="#mf084e6e2f9" x="651.634529" y="138.27497" style="fill: #ff0000; stroke: #ff0000"/>
     <use xlink:href="#mf084e6e2f9" x="655.823019" y="140.854141" style="fill: #ff0000; stroke: #ff0000"/>
     <use xlink:href="#mf084e6e2f9" x="660.01151" y="128.261352" style="fill: #ff0000; stroke: #ff0000"/>
     <use xlink:href="#mf084e6e2f9" x="664.2" y="115.767192" style="fill: #ff0000; stroke: #ff0000"/>
     <use xlink:href="#mf084e6e2f9" x="668.38849" y="151.452679" style="fill: #ff0000; stroke: #ff0000"/>
     <use xlink:href="#mf084e6e2f9" x="672.576981" y="100.031469" style="fill: #ff0000; stroke: #ff0000"/>
     <use xlink:href="#mf084e6e2f9" x="676.765471" y="177.420462" style="fill: #ff0000; stroke: #ff0000"/>
     <use xlink:href="#mf084e6e2f9" x="680.953962" y="136.752844" style="fill: #ff0000; stroke: #ff0000"/>
     <use xlink:href="#mf084e6e2f9" x="685.142452" y="160.359951" style="fill: #ff0000; stroke: #ff0000"/>
     <use xlink:href="#mf084e6e2f9" x="689.330942" y="99.693242" style="fill: #ff0000; stroke: #ff0000"/>
     <use xlink:href="#mf084e6e2f9" x="693.519433" y="123.159382" style="fill: #ff0000; stroke: #ff0000"/>
     <use xlink:href="#mf084e6e2f9" x="697.707923" y="159.521348" style="fill: #ff0000; stroke: #ff0000"/>
     <use xlink:href="#mf084e6e2f9" x="701.896414" y="184.17843" style="fill: #ff0000; stroke: #ff0000"/>
     <use xlink:href="#mf084e6e2f9" x="706.084904" y="114.872245" style="fill: #ff0000; stroke: #ff0000"/>
     <use xlink:href="#mf084e6e2f9" x="710.273394" y="94.083932" style="fill: #ff0000; stroke: #ff0000"/>
     <use xlink:href="#mf084e6e2f9" x="714.461885" y="146.991973" style="fill: #ff0000; stroke: #ff0000"/>
     <use xlink:href="#mf084e6e2f9" x="718.650375" y="150.903001" style="fill: #ff0000; stroke: #ff0000"/>
     <use xlink:href="#mf084e6e2f9" x="722.838866" y="134.624695" style="fill: #ff0000; stroke: #ff0000"/>
     <use xlink:href="#mf084e6e2f9" x="727.027356" y="148.640954" style="fill: #ff0000; stroke: #ff0000"/>
     <use xlink:href="#mf084e6e2f9" x="731.215847" y="125.259358" style="fill: #ff0000; stroke: #ff0000"/>
     <use xlink:href="#mf084e6e2f9" x="735.404337" y="147.168156" style="fill: #ff0000; stroke: #ff0000"/>
     <use xlink:href="#mf084e6e2f9" x="739.592827" y="120.833921" style="fill: #ff0000; stroke: #ff0000"/>
     <use xlink:href="#mf084e6e2f9" x="743.781318" y="119.297709" style="fill: #ff0000; stroke: #ff0000"/>
     <use xlink:href="#mf084e6e2f9" x="747.969808" y="137.274323" style="fill: #ff0000; stroke: #ff0000"/>
     <use xlink:href="#mf084e6e2f9" x="752.158299" y="179.795278" style="fill: #ff0000; stroke: #ff0000"/>
     <use xlink:href="#mf084e6e2f9" x="756.346789" y="173.185294" style="fill: #ff0000; stroke: #ff0000"/>
     <use xlink:href="#mf084e6e2f9" x="760.535279" y="170.549752" style="fill: #ff0000; stroke: #ff0000"/>
     <use xlink:href="#mf084e6e2f9" x="764.72377" y="126.950624" style="fill: #ff0000; stroke: #ff0000"/>
     <use xlink:href="#mf084e6e2f9" x="768.91226" y="112.307187" style="fill: #ff0000; stroke: #ff0000"/>
     <use xlink:href="#mf084e6e2f9" x="773.100751" y="257.670482" style="fill: #ff0000; stroke: #ff0000"/>
     <use xlink:href="#mf084e6e2f9" x="777.289241" y="249.143748" style="fill: #ff0000; stroke: #ff0000"/>
     <use xlink:href="#mf084e6e2f9" x="781.477731" y="267.162647" style="fill: #ff0000; stroke: #ff0000"/>
     <use xlink:href="#mf084e6e2f9" x="785.666222" y="204.071822" style="fill: #ff0000; stroke: #ff0000"/>
     <use xlink:href="#mf084e6e2f9" x="789.854712" y="326.102875" style="fill: #ff0000; stroke: #ff0000"/>
     <use xlink:href="#mf084e6e2f9" x="794.043203" y="452.481839" style="fill: #ff0000; stroke: #ff0000"/>
     <use xlink:href="#mf084e6e2f9" x="798.231693" y="180.598612" style="fill: #ff0000; stroke: #ff0000"/>
     <use xlink:href="#mf084e6e2f9" x="802.420183" y="460.487107" style="fill: #ff0000; stroke: #ff0000"/>
     <use xlink:href="#mf084e6e2f9" x="806.608674" y="458.767668" style="fill: #ff0000; stroke: #ff0000"/>
     <use xlink:href="#mf084e6e2f9" x="810.797164" y="440.924939" style="fill: #ff0000; stroke: #ff0000"/>
     <use xlink:href="#mf084e6e2f9" x="814.985655" y="439.938364" style="fill: #ff0000; stroke: #ff0000"/>
     <use xlink:href="#mf084e6e2f9" x="819.174145" y="450.93152" style="fill: #ff0000; stroke: #ff0000"/>
     <use xlink:href="#mf084e6e2f9" x="823.362636" y="205.065425" style="fill: #ff0000; stroke: #ff0000"/>
     <use xlink:href="#mf084e6e2f9" x="827.551126" y="242.759248" style="fill: #ff0000; stroke: #ff0000"/>
     <use xlink:href="#mf084e6e2f9" x="831.739616" y="223.626933" style="fill: #ff0000; stroke: #ff0000"/>
     <use xlink:href="#mf084e6e2f9" x="835.928107" y="193.283014" style="fill: #ff0000; stroke: #ff0000"/>
     <use xlink:href="#mf084e6e2f9" x="840.116597" y="138.881019" style="fill: #ff0000; stroke: #ff0000"/>
     <use xlink:href="#mf084e6e2f9" x="844.305088" y="90.609787" style="fill: #ff0000; stroke: #ff0000"/>
     <use xlink:href="#mf084e6e2f9" x="848.493578" y="162.389444" style="fill: #ff0000; stroke: #ff0000"/>
     <use xlink:href="#mf084e6e2f9" x="852.682068" y="127.387533" style="fill: #ff0000; stroke: #ff0000"/>
     <use xlink:href="#mf084e6e2f9" x="856.870559" y="115.132971" style="fill: #ff0000; stroke: #ff0000"/>
     <use xlink:href="#mf084e6e2f9" x="861.059049" y="294.131104" style="fill: #ff0000; stroke: #ff0000"/>
     <use xlink:href="#mf084e6e2f9" x="865.24754" y="390.180261" style="fill: #ff0000; stroke: #ff0000"/>
     <use xlink:href="#mf084e6e2f9" x="869.43603" y="266.204286" style="fill: #ff0000; stroke: #ff0000"/>
     <use xlink:href="#mf084e6e2f9" x="873.62452" y="119.26951" style="fill: #ff0000; stroke: #ff0000"/>
     <use xlink:href="#mf084e6e2f9" x="877.813011" y="130.347216" style="fill: #ff0000; stroke: #ff0000"/>
     <use xlink:href="#mf084e6e2f9" x="882.001501" y="136.104537" style="fill: #ff0000; stroke: #ff0000"/>
     <use xlink:href="#mf084e6e2f9" x="886.189992" y="203.740611" style="fill: #ff0000; stroke: #ff0000"/>
     <use xlink:href="#mf084e6e2f9" x="890.378482" y="351.633749" style="fill: #ff0000; stroke: #ff0000"/>
     <use xlink:href="#mf084e6e2f9" x="894.566972" y="356.482023" style="fill: #ff0000; stroke: #ff0000"/>
     <use xlink:href="#mf084e6e2f9" x="898.755463" y="402.026087" style="fill: #ff0000; stroke: #ff0000"/>
     <use xlink:href="#mf084e6e2f9" x="902.943953" y="246.599819" style="fill: #ff0000; stroke: #ff0000"/>
     <use xlink:href="#mf084e6e2f9" x="907.132444" y="142.742719" style="fill: #ff0000; stroke: #ff0000"/>
     <use xlink:href="#mf084e6e2f9" x="911.320934" y="150.994614" style="fill: #ff0000; stroke: #ff0000"/>
     <use xlink:href="#mf084e6e2f9" x="915.509425" y="120.00943" style="fill: #ff0000; stroke: #ff0000"/>
     <use xlink:href="#mf084e6e2f9" x="919.697915" y="124.293953" style="fill: #ff0000; stroke: #ff0000"/>
     <use xlink:href="#mf084e6e2f9" x="923.886405" y="270.277383" style="fill: #ff0000; stroke: #ff0000"/>
     <use xlink:href="#mf084e6e2f9" x="928.074896" y="169.633649" style="fill: #ff0000; stroke: #ff0000"/>
     <use xlink:href="#mf084e6e2f9" x="932.263386" y="237.748918" style="fill: #ff0000; stroke: #ff0000"/>
     <use xlink:href="#mf084e6e2f9" x="936.451877" y="177.519118" style="fill: #ff0000; stroke: #ff0000"/>
     <use xlink:href="#mf084e6e2f9" x="940.640367" y="178.505679" style="fill: #ff0000; stroke: #ff0000"/>
     <use xlink:href="#mf084e6e2f9" x="944.828857" y="138.585051" style="fill: #ff0000; stroke: #ff0000"/>
     <use xlink:href="#mf084e6e2f9" x="949.017348" y="95.690602" style="fill: #ff0000; stroke: #ff0000"/>
     <use xlink:href="#mf084e6e2f9" x="953.205838" y="137.232038" style="fill: #ff0000; stroke: #ff0000"/>
     <use xlink:href="#mf084e6e2f9" x="957.394329" y="134.265286" style="fill: #ff0000; stroke: #ff0000"/>
     <use xlink:href="#mf084e6e2f9" x="961.582819" y="348.540169" style="fill: #ff0000; stroke: #ff0000"/>
     <use xlink:href="#mf084e6e2f9" x="965.771309" y="159.47202" style="fill: #ff0000; stroke: #ff0000"/>
     <use xlink:href="#mf084e6e2f9" x="969.9598" y="163.044794" style="fill: #ff0000; stroke: #ff0000"/>
     <use xlink:href="#mf084e6e2f9" x="974.14829" y="128.183825" style="fill: #ff0000; stroke: #ff0000"/>
     <use xlink:href="#mf084e6e2f9" x="978.336781" y="170.007144" style="fill: #ff0000; stroke: #ff0000"/>
     <use xlink:href="#mf084e6e2f9" x="982.525271" y="357.186701" style="fill: #ff0000; stroke: #ff0000"/>
     <use xlink:href="#mf084e6e2f9" x="986.713761" y="492.48" style="fill: #ff0000; stroke: #ff0000"/>
     <use xlink:href="#mf084e6e2f9" x="990.902252" y="347.426766" style="fill: #ff0000; stroke: #ff0000"/>
     <use xlink:href="#mf084e6e2f9" x="995.090742" y="151.184883" style="fill: #ff0000; stroke: #ff0000"/>
     <use xlink:href="#mf084e6e2f9" x="999.279233" y="141.20648" style="fill: #ff0000; stroke: #ff0000"/>
     <use xlink:href="#mf084e6e2f9" x="1003.467723" y="130.678426" style="fill: #ff0000; stroke: #ff0000"/>
     <use xlink:href="#mf084e6e2f9" x="1007.656214" y="104.527417" style="fill: #ff0000; stroke: #ff0000"/>
     <use xlink:href="#mf084e6e2f9" x="1011.844704" y="119.043999" style="fill: #ff0000; stroke: #ff0000"/>
     <use xlink:href="#mf084e6e2f9" x="1016.033194" y="151.065098" style="fill: #ff0000; stroke: #ff0000"/>
     <use xlink:href="#mf084e6e2f9" x="1020.221685" y="263.25162" style="fill: #ff0000; stroke: #ff0000"/>
     <use xlink:href="#mf084e6e2f9" x="1024.410175" y="243.463954" style="fill: #ff0000; stroke: #ff0000"/>
     <use xlink:href="#mf084e6e2f9" x="1028.598666" y="249.270576" style="fill: #ff0000; stroke: #ff0000"/>
     <use xlink:href="#mf084e6e2f9" x="1032.787156" y="261.55331" style="fill: #ff0000; stroke: #ff0000"/>
     <use xlink:href="#mf084e6e2f9" x="1036.975646" y="249.439716" style="fill: #ff0000; stroke: #ff0000"/>
     <use xlink:href="#mf084e6e2f9" x="1041.164137" y="454.222419" style="fill: #ff0000; stroke: #ff0000"/>
     <use xlink:href="#mf084e6e2f9" x="1045.352627" y="417.254417" style="fill: #ff0000; stroke: #ff0000"/>
     <use xlink:href="#mf084e6e2f9" x="1049.541118" y="438.634693" style="fill: #ff0000; stroke: #ff0000"/>
     <use xlink:href="#mf084e6e2f9" x="1053.729608" y="438.740392" style="fill: #ff0000; stroke: #ff0000"/>
     <use xlink:href="#mf084e6e2f9" x="1057.918098" y="453.827795" style="fill: #ff0000; stroke: #ff0000"/>
     <use xlink:href="#mf084e6e2f9" x="1062.106589" y="451.142932" style="fill: #ff0000; stroke: #ff0000"/>
     <use xlink:href="#mf084e6e2f9" x="1066.295079" y="462.284065" style="fill: #ff0000; stroke: #ff0000"/>
     <use xlink:href="#mf084e6e2f9" x="1070.48357" y="451.763054" style="fill: #ff0000; stroke: #ff0000"/>
     <use xlink:href="#mf084e6e2f9" x="1074.67206" y="438.430338" style="fill: #ff0000; stroke: #ff0000"/>
     <use xlink:href="#mf084e6e2f9" x="1078.86055" y="142.87659" style="fill: #ff0000; stroke: #ff0000"/>
     <use xlink:href="#mf084e6e2f9" x="1083.049041" y="154.694243" style="fill: #ff0000; stroke: #ff0000"/>
     <use xlink:href="#mf084e6e2f9" x="1087.237531" y="122.44766" style="fill: #ff0000; stroke: #ff0000"/>
     <use xlink:href="#mf084e6e2f9" x="1091.426022" y="164.552834" style="fill: #ff0000; stroke: #ff0000"/>
     <use xlink:href="#mf084e6e2f9" x="1095.614512" y="142.023928" style="fill: #ff0000; stroke: #ff0000"/>
     <use xlink:href="#mf084e6e2f9" x="1099.803003" y="181.120092" style="fill: #ff0000; stroke: #ff0000"/>
     <use xlink:href="#mf084e6e2f9" x="1103.991493" y="166.011546" style="fill: #ff0000; stroke: #ff0000"/>
     <use xlink:href="#mf084e6e2f9" x="1108.179983" y="152.213729" style="fill: #ff0000; stroke: #ff0000"/>
     <use xlink:href="#mf084e6e2f9" x="1112.368474" y="90.891669" style="fill: #ff0000; stroke: #ff0000"/>
     <use xlink:href="#mf084e6e2f9" x="1116.556964" y="117.331604" style="fill: #ff0000; stroke: #ff0000"/>
     <use xlink:href="#mf084e6e2f9" x="1120.745455" y="116.126602" style="fill: #ff0000; stroke: #ff0000"/>
    </g>
   </g>
   <g id="line2d_24">
    <path d="M 207.654545 133.931979 
L 211.843036 162.409847 
L 216.031526 189.000722 
L 220.220017 126.673097 
L 224.408507 164.983104 
L 228.596997 168.283593 
L 232.785488 105.786666 
L 236.973978 106.588979 
L 241.162469 128.621863 
L 245.350959 126.867882 
L 249.53945 132.459961 
L 253.72794 146.186273 
L 257.91643 163.27173 
L 262.104921 120.302872 
L 266.293411 115.885741 
L 270.481902 152.794213 
L 274.670392 135.272438 
L 278.858882 170.492198 
L 283.047373 116.404935 
L 287.235863 160.752882 
L 291.424354 98.966574 
L 295.612844 89.28 
L 299.801334 160.363849 
L 303.989825 126.759334 
L 308.178315 147.124769 
L 312.366806 170.08166 
L 316.555296 165.223669 
L 320.743786 153.59029 
L 324.932277 121.864971 
L 329.120767 125.769735 
L 333.309258 152.431148 
L 337.497748 154.044511 
L 341.686239 141.62804 
L 345.874729 121.629782 
L 350.063219 138.024808 
L 354.25171 104.323572 
L 358.4402 114.414395 
L 362.628691 148.592083 
L 366.817181 108.164197 
L 371.005671 139.679703 
L 375.194162 160.630032 
L 379.382652 143.617532 
L 383.571143 121.419325 
L 387.759633 104.837121 
L 391.948123 159.766509 
L 396.136614 164.265011 
L 400.325104 143.007021 
L 404.513595 143.310354 
L 408.702085 161.486028 
L 412.890575 111.100384 
L 417.079066 91.540326 
L 421.267556 228.163177 
L 425.456047 174.170806 
L 429.644537 228.840436 
L 433.833028 263.088689 
L 438.021518 195.996325 
L 442.210008 123.940808 
L 446.398499 156.464757 
L 450.586989 147.463694 
L 454.77548 240.555831 
L 458.96397 356.03639 
L 463.15246 461.56237 
L 467.340951 463.364974 
L 471.529441 442.311029 
L 475.717932 430.669788 
L 479.906422 462.930854 
L 484.094912 99.806146 
L 488.283403 145.592347 
L 492.471893 105.362767 
L 496.660384 107.406319 
L 500.848874 325.086933 
L 505.037364 118.852251 
L 509.225855 142.852854 
L 513.414345 114.669234 
L 517.602836 115.867354 
L 521.791326 115.244557 
L 525.979817 173.888172 
L 530.168307 140.397258 
L 534.356797 103.94341 
L 538.545288 126.380811 
L 542.733778 174.222742 
L 546.922269 130.161248 
L 551.110759 140.941184 
L 555.299249 164.623963 
L 559.48774 108.280541 
L 563.67623 163.798263 
L 567.864721 112.200198 
L 572.053211 136.924135 
L 576.241701 132.263778 
L 580.430192 144.473636 
L 584.618682 122.638144 
L 588.807173 162.426057 
L 592.995663 111.338314 
L 597.184153 119.646715 
L 601.372644 275.371236 
L 605.561134 280.414469 
L 609.749625 449.861801 
L 613.938115 426.331596 
L 618.126606 442.229309 
L 622.315096 446.543046 
L 626.503586 459.142165 
L 630.692077 439.667988 
L 634.880567 438.316964 
L 639.069058 450.257406 
L 643.257548 440.56979 
L 647.446038 442.577602 
L 651.634529 121.962901 
L 655.823019 122.56051 
L 660.01151 113.552915 
L 664.2 108.311294 
L 668.38849 146.268397 
L 672.576981 102.861204 
L 676.765471 170.572682 
L 680.953962 141.480136 
L 685.142452 160.391 
L 689.330942 110.66248 
L 693.519433 125.98694 
L 697.707923 165.308346 
L 701.896414 173.122821 
L 706.084904 124.600002 
L 710.273394 105.712741 
L 714.461885 152.255691 
L 718.650375 144.426808 
L 722.838866 136.079429 
L 727.027356 146.462537 
L 731.215847 122.271504 
L 735.404337 149.650579 
L 739.592827 121.151045 
L 743.781318 119.563274 
L 747.969808 138.206744 
L 752.158299 172.1479 
L 756.346789 178.280705 
L 760.535279 168.54069 
L 764.72377 123.469597 
L 768.91226 103.60099 
L 773.100751 258.846478 
L 777.289241 246.517722 
L 781.477731 268.146143 
L 785.666222 205.027334 
L 789.854712 312.959978 
L 794.043203 456.138578 
L 798.231693 171.153329 
L 802.420183 463.163818 
L 806.608674 459.875735 
L 810.797164 441.618596 
L 814.985655 443.028658 
L 819.174145 453.259911 
L 823.362636 196.480008 
L 827.551126 237.964053 
L 831.739616 231.994473 
L 835.928107 240.484944 
L 840.116597 246.465141 
L 844.305088 187.05994 
L 848.493578 159.910408 
L 852.682068 136.923247 
L 856.870559 146.69958 
L 861.059049 162.13439 
L 865.24754 192.114518 
L 869.43603 324.048221 
L 873.62452 140.829867 
L 877.813011 142.354358 
L 882.001501 155.166287 
L 886.189992 185.661147 
L 890.378482 236.982465 
L 894.566972 153.046526 
L 898.755463 257.762579 
L 902.943953 245.472183 
L 907.132444 221.75607 
L 911.320934 338.293553 
L 915.509425 151.920529 
L 919.697915 139.631854 
L 923.886405 164.326167 
L 928.074896 228.16651 
L 932.263386 166.162702 
L 936.451877 168.813862 
L 940.640367 207.41852 
L 944.828857 189.568116 
L 949.017348 122.207015 
L 953.205838 148.425174 
L 957.394329 141.07691 
L 961.582819 139.164031 
L 965.771309 213.459901 
L 969.9598 165.366733 
L 974.14829 165.462594 
L 978.336781 118.181954 
L 982.525271 142.654009 
L 986.713761 259.007823 
L 990.902252 144.793179 
L 995.090742 370.342838 
L 999.279233 243.735164 
L 1003.467723 233.176895 
L 1007.656214 151.826336 
L 1011.844704 135.427143 
L 1016.033194 167.232328 
L 1020.221685 163.810817 
L 1024.410175 170.7265 
L 1028.598666 174.996802 
L 1032.787156 169.869456 
L 1036.975646 217.122111 
L 1041.164137 203.805235 
L 1045.352627 204.293274 
L 1049.541118 427.613573 
L 1053.729608 212.404039 
L 1057.918098 441.042009 
L 1062.106589 246.682265 
L 1066.295079 240.411073 
L 1070.48357 223.778412 
L 1074.67206 226.980218 
L 1078.86055 206.247739 
L 1083.049041 141.289706 
L 1087.237531 123.550431 
L 1091.426022 137.566313 
L 1095.614512 112.209337 
L 1099.803003 132.17289 
L 1103.991493 155.881557 
L 1108.179983 157.442312 
L 1112.368474 149.702623 
L 1116.556964 168.054802 
L 1120.745455 148.566761 
L 1120.745455 148.566761 
" clip-path="url(#p55ee842069)" style="fill: none; stroke-dasharray: 5.55,2.4; stroke-dashoffset: 0; stroke: #bfbf00; stroke-width: 1.5"/>
    <defs>
     <path id="m8e8082d5f7" d="M -2 2 
L 2 -2 
M -2 -2 
L 2 2 
" style="stroke: #bfbf00"/>
    </defs>
    <g clip-path="url(#p55ee842069)">
     <use xlink:href="#m8e8082d5f7" x="207.654545" y="133.931979" style="fill: #bfbf00; stroke: #bfbf00"/>
     <use xlink:href="#m8e8082d5f7" x="211.843036" y="162.409847" style="fill: #bfbf00; stroke: #bfbf00"/>
     <use xlink:href="#m8e8082d5f7" x="216.031526" y="189.000722" style="fill: #bfbf00; stroke: #bfbf00"/>
     <use xlink:href="#m8e8082d5f7" x="220.220017" y="126.673097" style="fill: #bfbf00; stroke: #bfbf00"/>
     <use xlink:href="#m8e8082d5f7" x="224.408507" y="164.983104" style="fill: #bfbf00; stroke: #bfbf00"/>
     <use xlink:href="#m8e8082d5f7" x="228.596997" y="168.283593" style="fill: #bfbf00; stroke: #bfbf00"/>
     <use xlink:href="#m8e8082d5f7" x="232.785488" y="105.786666" style="fill: #bfbf00; stroke: #bfbf00"/>
     <use xlink:href="#m8e8082d5f7" x="236.973978" y="106.588979" style="fill: #bfbf00; stroke: #bfbf00"/>
     <use xlink:href="#m8e8082d5f7" x="241.162469" y="128.621863" style="fill: #bfbf00; stroke: #bfbf00"/>
     <use xlink:href="#m8e8082d5f7" x="245.350959" y="126.867882" style="fill: #bfbf00; stroke: #bfbf00"/>
     <use xlink:href="#m8e8082d5f7" x="249.53945" y="132.459961" style="fill: #bfbf00; stroke: #bfbf00"/>
     <use xlink:href="#m8e8082d5f7" x="253.72794" y="146.186273" style="fill: #bfbf00; stroke: #bfbf00"/>
     <use xlink:href="#m8e8082d5f7" x="257.91643" y="163.27173" style="fill: #bfbf00; stroke: #bfbf00"/>
     <use xlink:href="#m8e8082d5f7" x="262.104921" y="120.302872" style="fill: #bfbf00; stroke: #bfbf00"/>
     <use xlink:href="#m8e8082d5f7" x="266.293411" y="115.885741" style="fill: #bfbf00; stroke: #bfbf00"/>
     <use xlink:href="#m8e8082d5f7" x="270.481902" y="152.794213" style="fill: #bfbf00; stroke: #bfbf00"/>
     <use xlink:href="#m8e8082d5f7" x="274.670392" y="135.272438" style="fill: #bfbf00; stroke: #bfbf00"/>
     <use xlink:href="#m8e8082d5f7" x="278.858882" y="170.492198" style="fill: #bfbf00; stroke: #bfbf00"/>
     <use xlink:href="#m8e8082d5f7" x="283.047373" y="116.404935" style="fill: #bfbf00; stroke: #bfbf00"/>
     <use xlink:href="#m8e8082d5f7" x="287.235863" y="160.752882" style="fill: #bfbf00; stroke: #bfbf00"/>
     <use xlink:href="#m8e8082d5f7" x="291.424354" y="98.966574" style="fill: #bfbf00; stroke: #bfbf00"/>
     <use xlink:href="#m8e8082d5f7" x="295.612844" y="89.28" style="fill: #bfbf00; stroke: #bfbf00"/>
     <use xlink:href="#m8e8082d5f7" x="299.801334" y="160.363849" style="fill: #bfbf00; stroke: #bfbf00"/>
     <use xlink:href="#m8e8082d5f7" x="303.989825" y="126.759334" style="fill: #bfbf00; stroke: #bfbf00"/>
     <use xlink:href="#m8e8082d5f7" x="308.178315" y="147.124769" style="fill: #bfbf00; stroke: #bfbf00"/>
     <use xlink:href="#m8e8082d5f7" x="312.366806" y="170.08166" style="fill: #bfbf00; stroke: #bfbf00"/>
     <use xlink:href="#m8e8082d5f7" x="316.555296" y="165.223669" style="fill: #bfbf00; stroke: #bfbf00"/>
     <use xlink:href="#m8e8082d5f7" x="320.743786" y="153.59029" style="fill: #bfbf00; stroke: #bfbf00"/>
     <use xlink:href="#m8e8082d5f7" x="324.932277" y="121.864971" style="fill: #bfbf00; stroke: #bfbf00"/>
     <use xlink:href="#m8e8082d5f7" x="329.120767" y="125.769735" style="fill: #bfbf00; stroke: #bfbf00"/>
     <use xlink:href="#m8e8082d5f7" x="333.309258" y="152.431148" style="fill: #bfbf00; stroke: #bfbf00"/>
     <use xlink:href="#m8e8082d5f7" x="337.497748" y="154.044511" style="fill: #bfbf00; stroke: #bfbf00"/>
     <use xlink:href="#m8e8082d5f7" x="341.686239" y="141.62804" style="fill: #bfbf00; stroke: #bfbf00"/>
     <use xlink:href="#m8e8082d5f7" x="345.874729" y="121.629782" style="fill: #bfbf00; stroke: #bfbf00"/>
     <use xlink:href="#m8e8082d5f7" x="350.063219" y="138.024808" style="fill: #bfbf00; stroke: #bfbf00"/>
     <use xlink:href="#m8e8082d5f7" x="354.25171" y="104.323572" style="fill: #bfbf00; stroke: #bfbf00"/>
     <use xlink:href="#m8e8082d5f7" x="358.4402" y="114.414395" style="fill: #bfbf00; stroke: #bfbf00"/>
     <use xlink:href="#m8e8082d5f7" x="362.628691" y="148.592083" style="fill: #bfbf00; stroke: #bfbf00"/>
     <use xlink:href="#m8e8082d5f7" x="366.817181" y="108.164197" style="fill: #bfbf00; stroke: #bfbf00"/>
     <use xlink:href="#m8e8082d5f7" x="371.005671" y="139.679703" style="fill: #bfbf00; stroke: #bfbf00"/>
     <use xlink:href="#m8e8082d5f7" x="375.194162" y="160.630032" style="fill: #bfbf00; stroke: #bfbf00"/>
     <use xlink:href="#m8e8082d5f7" x="379.382652" y="143.617532" style="fill: #bfbf00; stroke: #bfbf00"/>
     <use xlink:href="#m8e8082d5f7" x="383.571143" y="121.419325" style="fill: #bfbf00; stroke: #bfbf00"/>
     <use xlink:href="#m8e8082d5f7" x="387.759633" y="104.837121" style="fill: #bfbf00; stroke: #bfbf00"/>
     <use xlink:href="#m8e8082d5f7" x="391.948123" y="159.766509" style="fill: #bfbf00; stroke: #bfbf00"/>
     <use xlink:href="#m8e8082d5f7" x="396.136614" y="164.265011" style="fill: #bfbf00; stroke: #bfbf00"/>
     <use xlink:href="#m8e8082d5f7" x="400.325104" y="143.007021" style="fill: #bfbf00; stroke: #bfbf00"/>
     <use xlink:href="#m8e8082d5f7" x="404.513595" y="143.310354" style="fill: #bfbf00; stroke: #bfbf00"/>
     <use xlink:href="#m8e8082d5f7" x="408.702085" y="161.486028" style="fill: #bfbf00; stroke: #bfbf00"/>
     <use xlink:href="#m8e8082d5f7" x="412.890575" y="111.100384" style="fill: #bfbf00; stroke: #bfbf00"/>
     <use xlink:href="#m8e8082d5f7" x="417.079066" y="91.540326" style="fill: #bfbf00; stroke: #bfbf00"/>
     <use xlink:href="#m8e8082d5f7" x="421.267556" y="228.163177" style="fill: #bfbf00; stroke: #bfbf00"/>
     <use xlink:href="#m8e8082d5f7" x="425.456047" y="174.170806" style="fill: #bfbf00; stroke: #bfbf00"/>
     <use xlink:href="#m8e8082d5f7" x="429.644537" y="228.840436" style="fill: #bfbf00; stroke: #bfbf00"/>
     <use xlink:href="#m8e8082d5f7" x="433.833028" y="263.088689" style="fill: #bfbf00; stroke: #bfbf00"/>
     <use xlink:href="#m8e8082d5f7" x="438.021518" y="195.996325" style="fill: #bfbf00; stroke: #bfbf00"/>
     <use xlink:href="#m8e8082d5f7" x="442.210008" y="123.940808" style="fill: #bfbf00; stroke: #bfbf00"/>
     <use xlink:href="#m8e8082d5f7" x="446.398499" y="156.464757" style="fill: #bfbf00; stroke: #bfbf00"/>
     <use xlink:href="#m8e8082d5f7" x="450.586989" y="147.463694" style="fill: #bfbf00; stroke: #bfbf00"/>
     <use xlink:href="#m8e8082d5f7" x="454.77548" y="240.555831" style="fill: #bfbf00; stroke: #bfbf00"/>
     <use xlink:href="#m8e8082d5f7" x="458.96397" y="356.03639" style="fill: #bfbf00; stroke: #bfbf00"/>
     <use xlink:href="#m8e8082d5f7" x="463.15246" y="461.56237" style="fill: #bfbf00; stroke: #bfbf00"/>
     <use xlink:href="#m8e8082d5f7" x="467.340951" y="463.364974" style="fill: #bfbf00; stroke: #bfbf00"/>
     <use xlink:href="#m8e8082d5f7" x="471.529441" y="442.311029" style="fill: #bfbf00; stroke: #bfbf00"/>
     <use xlink:href="#m8e8082d5f7" x="475.717932" y="430.669788" style="fill: #bfbf00; stroke: #bfbf00"/>
     <use xlink:href="#m8e8082d5f7" x="479.906422" y="462.930854" style="fill: #bfbf00; stroke: #bfbf00"/>
     <use xlink:href="#m8e8082d5f7" x="484.094912" y="99.806146" style="fill: #bfbf00; stroke: #bfbf00"/>
     <use xlink:href="#m8e8082d5f7" x="488.283403" y="145.592347" style="fill: #bfbf00; stroke: #bfbf00"/>
     <use xlink:href="#m8e8082d5f7" x="492.471893" y="105.362767" style="fill: #bfbf00; stroke: #bfbf00"/>
     <use xlink:href="#m8e8082d5f7" x="496.660384" y="107.406319" style="fill: #bfbf00; stroke: #bfbf00"/>
     <use xlink:href="#m8e8082d5f7" x="500.848874" y="325.086933" style="fill: #bfbf00; stroke: #bfbf00"/>
     <use xlink:href="#m8e8082d5f7" x="505.037364" y="118.852251" style="fill: #bfbf00; stroke: #bfbf00"/>
     <use xlink:href="#m8e8082d5f7" x="509.225855" y="142.852854" style="fill: #bfbf00; stroke: #bfbf00"/>
     <use xlink:href="#m8e8082d5f7" x="513.414345" y="114.669234" style="fill: #bfbf00; stroke: #bfbf00"/>
     <use xlink:href="#m8e8082d5f7" x="517.602836" y="115.867354" style="fill: #bfbf00; stroke: #bfbf00"/>
     <use xlink:href="#m8e8082d5f7" x="521.791326" y="115.244557" style="fill: #bfbf00; stroke: #bfbf00"/>
     <use xlink:href="#m8e8082d5f7" x="525.979817" y="173.888172" style="fill: #bfbf00; stroke: #bfbf00"/>
     <use xlink:href="#m8e8082d5f7" x="530.168307" y="140.397258" style="fill: #bfbf00; stroke: #bfbf00"/>
     <use xlink:href="#m8e8082d5f7" x="534.356797" y="103.94341" style="fill: #bfbf00; stroke: #bfbf00"/>
     <use xlink:href="#m8e8082d5f7" x="538.545288" y="126.380811" style="fill: #bfbf00; stroke: #bfbf00"/>
     <use xlink:href="#m8e8082d5f7" x="542.733778" y="174.222742" style="fill: #bfbf00; stroke: #bfbf00"/>
     <use xlink:href="#m8e8082d5f7" x="546.922269" y="130.161248" style="fill: #bfbf00; stroke: #bfbf00"/>
     <use xlink:href="#m8e8082d5f7" x="551.110759" y="140.941184" style="fill: #bfbf00; stroke: #bfbf00"/>
     <use xlink:href="#m8e8082d5f7" x="555.299249" y="164.623963" style="fill: #bfbf00; stroke: #bfbf00"/>
     <use xlink:href="#m8e8082d5f7" x="559.48774" y="108.280541" style="fill: #bfbf00; stroke: #bfbf00"/>
     <use xlink:href="#m8e8082d5f7" x="563.67623" y="163.798263" style="fill: #bfbf00; stroke: #bfbf00"/>
     <use xlink:href="#m8e8082d5f7" x="567.864721" y="112.200198" style="fill: #bfbf00; stroke: #bfbf00"/>
     <use xlink:href="#m8e8082d5f7" x="572.053211" y="136.924135" style="fill: #bfbf00; stroke: #bfbf00"/>
     <use xlink:href="#m8e8082d5f7" x="576.241701" y="132.263778" style="fill: #bfbf00; stroke: #bfbf00"/>
     <use xlink:href="#m8e8082d5f7" x="580.430192" y="144.473636" style="fill: #bfbf00; stroke: #bfbf00"/>
     <use xlink:href="#m8e8082d5f7" x="584.618682" y="122.638144" style="fill: #bfbf00; stroke: #bfbf00"/>
     <use xlink:href="#m8e8082d5f7" x="588.807173" y="162.426057" style="fill: #bfbf00; stroke: #bfbf00"/>
     <use xlink:href="#m8e8082d5f7" x="592.995663" y="111.338314" style="fill: #bfbf00; stroke: #bfbf00"/>
     <use xlink:href="#m8e8082d5f7" x="597.184153" y="119.646715" style="fill: #bfbf00; stroke: #bfbf00"/>
     <use xlink:href="#m8e8082d5f7" x="601.372644" y="275.371236" style="fill: #bfbf00; stroke: #bfbf00"/>
     <use xlink:href="#m8e8082d5f7" x="605.561134" y="280.414469" style="fill: #bfbf00; stroke: #bfbf00"/>
     <use xlink:href="#m8e8082d5f7" x="609.749625" y="449.861801" style="fill: #bfbf00; stroke: #bfbf00"/>
     <use xlink:href="#m8e8082d5f7" x="613.938115" y="426.331596" style="fill: #bfbf00; stroke: #bfbf00"/>
     <use xlink:href="#m8e8082d5f7" x="618.126606" y="442.229309" style="fill: #bfbf00; stroke: #bfbf00"/>
     <use xlink:href="#m8e8082d5f7" x="622.315096" y="446.543046" style="fill: #bfbf00; stroke: #bfbf00"/>
     <use xlink:href="#m8e8082d5f7" x="626.503586" y="459.142165" style="fill: #bfbf00; stroke: #bfbf00"/>
     <use xlink:href="#m8e8082d5f7" x="630.692077" y="439.667988" style="fill: #bfbf00; stroke: #bfbf00"/>
     <use xlink:href="#m8e8082d5f7" x="634.880567" y="438.316964" style="fill: #bfbf00; stroke: #bfbf00"/>
     <use xlink:href="#m8e8082d5f7" x="639.069058" y="450.257406" style="fill: #bfbf00; stroke: #bfbf00"/>
     <use xlink:href="#m8e8082d5f7" x="643.257548" y="440.56979" style="fill: #bfbf00; stroke: #bfbf00"/>
     <use xlink:href="#m8e8082d5f7" x="647.446038" y="442.577602" style="fill: #bfbf00; stroke: #bfbf00"/>
     <use xlink:href="#m8e8082d5f7" x="651.634529" y="121.962901" style="fill: #bfbf00; stroke: #bfbf00"/>
     <use xlink:href="#m8e8082d5f7" x="655.823019" y="122.56051" style="fill: #bfbf00; stroke: #bfbf00"/>
     <use xlink:href="#m8e8082d5f7" x="660.01151" y="113.552915" style="fill: #bfbf00; stroke: #bfbf00"/>
     <use xlink:href="#m8e8082d5f7" x="664.2" y="108.311294" style="fill: #bfbf00; stroke: #bfbf00"/>
     <use xlink:href="#m8e8082d5f7" x="668.38849" y="146.268397" style="fill: #bfbf00; stroke: #bfbf00"/>
     <use xlink:href="#m8e8082d5f7" x="672.576981" y="102.861204" style="fill: #bfbf00; stroke: #bfbf00"/>
     <use xlink:href="#m8e8082d5f7" x="676.765471" y="170.572682" style="fill: #bfbf00; stroke: #bfbf00"/>
     <use xlink:href="#m8e8082d5f7" x="680.953962" y="141.480136" style="fill: #bfbf00; stroke: #bfbf00"/>
     <use xlink:href="#m8e8082d5f7" x="685.142452" y="160.391" style="fill: #bfbf00; stroke: #bfbf00"/>
     <use xlink:href="#m8e8082d5f7" x="689.330942" y="110.66248" style="fill: #bfbf00; stroke: #bfbf00"/>
     <use xlink:href="#m8e8082d5f7" x="693.519433" y="125.98694" style="fill: #bfbf00; stroke: #bfbf00"/>
     <use xlink:href="#m8e8082d5f7" x="697.707923" y="165.308346" style="fill: #bfbf00; stroke: #bfbf00"/>
     <use xlink:href="#m8e8082d5f7" x="701.896414" y="173.122821" style="fill: #bfbf00; stroke: #bfbf00"/>
     <use xlink:href="#m8e8082d5f7" x="706.084904" y="124.600002" style="fill: #bfbf00; stroke: #bfbf00"/>
     <use xlink:href="#m8e8082d5f7" x="710.273394" y="105.712741" style="fill: #bfbf00; stroke: #bfbf00"/>
     <use xlink:href="#m8e8082d5f7" x="714.461885" y="152.255691" style="fill: #bfbf00; stroke: #bfbf00"/>
     <use xlink:href="#m8e8082d5f7" x="718.650375" y="144.426808" style="fill: #bfbf00; stroke: #bfbf00"/>
     <use xlink:href="#m8e8082d5f7" x="722.838866" y="136.079429" style="fill: #bfbf00; stroke: #bfbf00"/>
     <use xlink:href="#m8e8082d5f7" x="727.027356" y="146.462537" style="fill: #bfbf00; stroke: #bfbf00"/>
     <use xlink:href="#m8e8082d5f7" x="731.215847" y="122.271504" style="fill: #bfbf00; stroke: #bfbf00"/>
     <use xlink:href="#m8e8082d5f7" x="735.404337" y="149.650579" style="fill: #bfbf00; stroke: #bfbf00"/>
     <use xlink:href="#m8e8082d5f7" x="739.592827" y="121.151045" style="fill: #bfbf00; stroke: #bfbf00"/>
     <use xlink:href="#m8e8082d5f7" x="743.781318" y="119.563274" style="fill: #bfbf00; stroke: #bfbf00"/>
     <use xlink:href="#m8e8082d5f7" x="747.969808" y="138.206744" style="fill: #bfbf00; stroke: #bfbf00"/>
     <use xlink:href="#m8e8082d5f7" x="752.158299" y="172.1479" style="fill: #bfbf00; stroke: #bfbf00"/>
     <use xlink:href="#m8e8082d5f7" x="756.346789" y="178.280705" style="fill: #bfbf00; stroke: #bfbf00"/>
     <use xlink:href="#m8e8082d5f7" x="760.535279" y="168.54069" style="fill: #bfbf00; stroke: #bfbf00"/>
     <use xlink:href="#m8e8082d5f7" x="764.72377" y="123.469597" style="fill: #bfbf00; stroke: #bfbf00"/>
     <use xlink:href="#m8e8082d5f7" x="768.91226" y="103.60099" style="fill: #bfbf00; stroke: #bfbf00"/>
     <use xlink:href="#m8e8082d5f7" x="773.100751" y="258.846478" style="fill: #bfbf00; stroke: #bfbf00"/>
     <use xlink:href="#m8e8082d5f7" x="777.289241" y="246.517722" style="fill: #bfbf00; stroke: #bfbf00"/>
     <use xlink:href="#m8e8082d5f7" x="781.477731" y="268.146143" style="fill: #bfbf00; stroke: #bfbf00"/>
     <use xlink:href="#m8e8082d5f7" x="785.666222" y="205.027334" style="fill: #bfbf00; stroke: #bfbf00"/>
     <use xlink:href="#m8e8082d5f7" x="789.854712" y="312.959978" style="fill: #bfbf00; stroke: #bfbf00"/>
     <use xlink:href="#m8e8082d5f7" x="794.043203" y="456.138578" style="fill: #bfbf00; stroke: #bfbf00"/>
     <use xlink:href="#m8e8082d5f7" x="798.231693" y="171.153329" style="fill: #bfbf00; stroke: #bfbf00"/>
     <use xlink:href="#m8e8082d5f7" x="802.420183" y="463.163818" style="fill: #bfbf00; stroke: #bfbf00"/>
     <use xlink:href="#m8e8082d5f7" x="806.608674" y="459.875735" style="fill: #bfbf00; stroke: #bfbf00"/>
     <use xlink:href="#m8e8082d5f7" x="810.797164" y="441.618596" style="fill: #bfbf00; stroke: #bfbf00"/>
     <use xlink:href="#m8e8082d5f7" x="814.985655" y="443.028658" style="fill: #bfbf00; stroke: #bfbf00"/>
     <use xlink:href="#m8e8082d5f7" x="819.174145" y="453.259911" style="fill: #bfbf00; stroke: #bfbf00"/>
     <use xlink:href="#m8e8082d5f7" x="823.362636" y="196.480008" style="fill: #bfbf00; stroke: #bfbf00"/>
     <use xlink:href="#m8e8082d5f7" x="827.551126" y="237.964053" style="fill: #bfbf00; stroke: #bfbf00"/>
     <use xlink:href="#m8e8082d5f7" x="831.739616" y="231.994473" style="fill: #bfbf00; stroke: #bfbf00"/>
     <use xlink:href="#m8e8082d5f7" x="835.928107" y="240.484944" style="fill: #bfbf00; stroke: #bfbf00"/>
     <use xlink:href="#m8e8082d5f7" x="840.116597" y="246.465141" style="fill: #bfbf00; stroke: #bfbf00"/>
     <use xlink:href="#m8e8082d5f7" x="844.305088" y="187.05994" style="fill: #bfbf00; stroke: #bfbf00"/>
     <use xlink:href="#m8e8082d5f7" x="848.493578" y="159.910408" style="fill: #bfbf00; stroke: #bfbf00"/>
     <use xlink:href="#m8e8082d5f7" x="852.682068" y="136.923247" style="fill: #bfbf00; stroke: #bfbf00"/>
     <use xlink:href="#m8e8082d5f7" x="856.870559" y="146.69958" style="fill: #bfbf00; stroke: #bfbf00"/>
     <use xlink:href="#m8e8082d5f7" x="861.059049" y="162.13439" style="fill: #bfbf00; stroke: #bfbf00"/>
     <use xlink:href="#m8e8082d5f7" x="865.24754" y="192.114518" style="fill: #bfbf00; stroke: #bfbf00"/>
     <use xlink:href="#m8e8082d5f7" x="869.43603" y="324.048221" style="fill: #bfbf00; stroke: #bfbf00"/>
     <use xlink:href="#m8e8082d5f7" x="873.62452" y="140.829867" style="fill: #bfbf00; stroke: #bfbf00"/>
     <use xlink:href="#m8e8082d5f7" x="877.813011" y="142.354358" style="fill: #bfbf00; stroke: #bfbf00"/>
     <use xlink:href="#m8e8082d5f7" x="882.001501" y="155.166287" style="fill: #bfbf00; stroke: #bfbf00"/>
     <use xlink:href="#m8e8082d5f7" x="886.189992" y="185.661147" style="fill: #bfbf00; stroke: #bfbf00"/>
     <use xlink:href="#m8e8082d5f7" x="890.378482" y="236.982465" style="fill: #bfbf00; stroke: #bfbf00"/>
     <use xlink:href="#m8e8082d5f7" x="894.566972" y="153.046526" style="fill: #bfbf00; stroke: #bfbf00"/>
     <use xlink:href="#m8e8082d5f7" x="898.755463" y="257.762579" style="fill: #bfbf00; stroke: #bfbf00"/>
     <use xlink:href="#m8e8082d5f7" x="902.943953" y="245.472183" style="fill: #bfbf00; stroke: #bfbf00"/>
     <use xlink:href="#m8e8082d5f7" x="907.132444" y="221.75607" style="fill: #bfbf00; stroke: #bfbf00"/>
     <use xlink:href="#m8e8082d5f7" x="911.320934" y="338.293553" style="fill: #bfbf00; stroke: #bfbf00"/>
     <use xlink:href="#m8e8082d5f7" x="915.509425" y="151.920529" style="fill: #bfbf00; stroke: #bfbf00"/>
     <use xlink:href="#m8e8082d5f7" x="919.697915" y="139.631854" style="fill: #bfbf00; stroke: #bfbf00"/>
     <use xlink:href="#m8e8082d5f7" x="923.886405" y="164.326167" style="fill: #bfbf00; stroke: #bfbf00"/>
     <use xlink:href="#m8e8082d5f7" x="928.074896" y="228.16651" style="fill: #bfbf00; stroke: #bfbf00"/>
     <use xlink:href="#m8e8082d5f7" x="932.263386" y="166.162702" style="fill: #bfbf00; stroke: #bfbf00"/>
     <use xlink:href="#m8e8082d5f7" x="936.451877" y="168.813862" style="fill: #bfbf00; stroke: #bfbf00"/>
     <use xlink:href="#m8e8082d5f7" x="940.640367" y="207.41852" style="fill: #bfbf00; stroke: #bfbf00"/>
     <use xlink:href="#m8e8082d5f7" x="944.828857" y="189.568116" style="fill: #bfbf00; stroke: #bfbf00"/>
     <use xlink:href="#m8e8082d5f7" x="949.017348" y="122.207015" style="fill: #bfbf00; stroke: #bfbf00"/>
     <use xlink:href="#m8e8082d5f7" x="953.205838" y="148.425174" style="fill: #bfbf00; stroke: #bfbf00"/>
     <use xlink:href="#m8e8082d5f7" x="957.394329" y="141.07691" style="fill: #bfbf00; stroke: #bfbf00"/>
     <use xlink:href="#m8e8082d5f7" x="961.582819" y="139.164031" style="fill: #bfbf00; stroke: #bfbf00"/>
     <use xlink:href="#m8e8082d5f7" x="965.771309" y="213.459901" style="fill: #bfbf00; stroke: #bfbf00"/>
     <use xlink:href="#m8e8082d5f7" x="969.9598" y="165.366733" style="fill: #bfbf00; stroke: #bfbf00"/>
     <use xlink:href="#m8e8082d5f7" x="974.14829" y="165.462594" style="fill: #bfbf00; stroke: #bfbf00"/>
     <use xlink:href="#m8e8082d5f7" x="978.336781" y="118.181954" style="fill: #bfbf00; stroke: #bfbf00"/>
     <use xlink:href="#m8e8082d5f7" x="982.525271" y="142.654009" style="fill: #bfbf00; stroke: #bfbf00"/>
     <use xlink:href="#m8e8082d5f7" x="986.713761" y="259.007823" style="fill: #bfbf00; stroke: #bfbf00"/>
     <use xlink:href="#m8e8082d5f7" x="990.902252" y="144.793179" style="fill: #bfbf00; stroke: #bfbf00"/>
     <use xlink:href="#m8e8082d5f7" x="995.090742" y="370.342838" style="fill: #bfbf00; stroke: #bfbf00"/>
     <use xlink:href="#m8e8082d5f7" x="999.279233" y="243.735164" style="fill: #bfbf00; stroke: #bfbf00"/>
     <use xlink:href="#m8e8082d5f7" x="1003.467723" y="233.176895" style="fill: #bfbf00; stroke: #bfbf00"/>
     <use xlink:href="#m8e8082d5f7" x="1007.656214" y="151.826336" style="fill: #bfbf00; stroke: #bfbf00"/>
     <use xlink:href="#m8e8082d5f7" x="1011.844704" y="135.427143" style="fill: #bfbf00; stroke: #bfbf00"/>
     <use xlink:href="#m8e8082d5f7" x="1016.033194" y="167.232328" style="fill: #bfbf00; stroke: #bfbf00"/>
     <use xlink:href="#m8e8082d5f7" x="1020.221685" y="163.810817" style="fill: #bfbf00; stroke: #bfbf00"/>
     <use xlink:href="#m8e8082d5f7" x="1024.410175" y="170.7265" style="fill: #bfbf00; stroke: #bfbf00"/>
     <use xlink:href="#m8e8082d5f7" x="1028.598666" y="174.996802" style="fill: #bfbf00; stroke: #bfbf00"/>
     <use xlink:href="#m8e8082d5f7" x="1032.787156" y="169.869456" style="fill: #bfbf00; stroke: #bfbf00"/>
     <use xlink:href="#m8e8082d5f7" x="1036.975646" y="217.122111" style="fill: #bfbf00; stroke: #bfbf00"/>
     <use xlink:href="#m8e8082d5f7" x="1041.164137" y="203.805235" style="fill: #bfbf00; stroke: #bfbf00"/>
     <use xlink:href="#m8e8082d5f7" x="1045.352627" y="204.293274" style="fill: #bfbf00; stroke: #bfbf00"/>
     <use xlink:href="#m8e8082d5f7" x="1049.541118" y="427.613573" style="fill: #bfbf00; stroke: #bfbf00"/>
     <use xlink:href="#m8e8082d5f7" x="1053.729608" y="212.404039" style="fill: #bfbf00; stroke: #bfbf00"/>
     <use xlink:href="#m8e8082d5f7" x="1057.918098" y="441.042009" style="fill: #bfbf00; stroke: #bfbf00"/>
     <use xlink:href="#m8e8082d5f7" x="1062.106589" y="246.682265" style="fill: #bfbf00; stroke: #bfbf00"/>
     <use xlink:href="#m8e8082d5f7" x="1066.295079" y="240.411073" style="fill: #bfbf00; stroke: #bfbf00"/>
     <use xlink:href="#m8e8082d5f7" x="1070.48357" y="223.778412" style="fill: #bfbf00; stroke: #bfbf00"/>
     <use xlink:href="#m8e8082d5f7" x="1074.67206" y="226.980218" style="fill: #bfbf00; stroke: #bfbf00"/>
     <use xlink:href="#m8e8082d5f7" x="1078.86055" y="206.247739" style="fill: #bfbf00; stroke: #bfbf00"/>
     <use xlink:href="#m8e8082d5f7" x="1083.049041" y="141.289706" style="fill: #bfbf00; stroke: #bfbf00"/>
     <use xlink:href="#m8e8082d5f7" x="1087.237531" y="123.550431" style="fill: #bfbf00; stroke: #bfbf00"/>
     <use xlink:href="#m8e8082d5f7" x="1091.426022" y="137.566313" style="fill: #bfbf00; stroke: #bfbf00"/>
     <use xlink:href="#m8e8082d5f7" x="1095.614512" y="112.209337" style="fill: #bfbf00; stroke: #bfbf00"/>
     <use xlink:href="#m8e8082d5f7" x="1099.803003" y="132.17289" style="fill: #bfbf00; stroke: #bfbf00"/>
     <use xlink:href="#m8e8082d5f7" x="1103.991493" y="155.881557" style="fill: #bfbf00; stroke: #bfbf00"/>
     <use xlink:href="#m8e8082d5f7" x="1108.179983" y="157.442312" style="fill: #bfbf00; stroke: #bfbf00"/>
     <use xlink:href="#m8e8082d5f7" x="1112.368474" y="149.702623" style="fill: #bfbf00; stroke: #bfbf00"/>
     <use xlink:href="#m8e8082d5f7" x="1116.556964" y="168.054802" style="fill: #bfbf00; stroke: #bfbf00"/>
     <use xlink:href="#m8e8082d5f7" x="1120.745455" y="148.566761" style="fill: #bfbf00; stroke: #bfbf00"/>
    </g>
   </g>
   <g id="patch_3">
    <path d="M 162 512.64 
L 162 69.12 
" style="fill: none; stroke: #000000; stroke-width: 0.8; stroke-linejoin: miter; stroke-linecap: square"/>
   </g>
   <g id="patch_4">
    <path d="M 1166.4 512.64 
L 1166.4 69.12 
" style="fill: none; stroke: #000000; stroke-width: 0.8; stroke-linejoin: miter; stroke-linecap: square"/>
   </g>
   <g id="patch_5">
    <path d="M 162 512.64 
L 1166.4 512.64 
" style="fill: none; stroke: #000000; stroke-width: 0.8; stroke-linejoin: miter; stroke-linecap: square"/>
   </g>
   <g id="patch_6">
    <path d="M 162 69.12 
L 1166.4 69.12 
" style="fill: none; stroke: #000000; stroke-width: 0.8; stroke-linejoin: miter; stroke-linecap: square"/>
   </g>
   <g id="text_13">
    <!-- Transformer-BiLSTM Comparison of True Values and Predictions -->
    <g transform="translate(364.2 63.12) scale(0.2 -0.2)">
     <defs>
      <path id="SimHei-54" d="M 2850 3925 
L 1850 3925 
L 1850 125 
L 1275 125 
L 1275 3925 
L 275 3925 
L 275 4400 
L 2850 4400 
L 2850 3925 
z
" transform="scale(0.015625)"/>
      <path id="SimHei-72" d="M 2500 2425 
Q 2025 2500 1700 2287 
Q 1375 2075 1150 1550 
L 1150 125 
L 650 125 
L 650 2925 
L 1150 2925 
L 1150 2200 
Q 1375 2600 1712 2787 
Q 2050 2975 2500 2975 
L 2500 2425 
z
" transform="scale(0.015625)"/>
      <path id="SimHei-61" d="M 2875 125 
L 2275 125 
Q 2225 175 2200 262 
Q 2175 350 2175 475 
Q 2000 275 1750 175 
Q 1500 75 1225 75 
Q 825 75 550 275 
Q 275 475 275 850 
Q 275 1225 525 1450 
Q 775 1675 1300 1750 
Q 1650 1800 1912 1875 
Q 2175 1950 2175 2075 
Q 2175 2225 2062 2375 
Q 1950 2525 1575 2525 
Q 1275 2525 1137 2412 
Q 1000 2300 950 2100 
L 400 2100 
Q 450 2500 762 2737 
Q 1075 2975 1575 2975 
Q 2125 2975 2400 2725 
Q 2675 2475 2675 2025 
L 2675 650 
Q 2675 500 2725 375 
Q 2775 250 2875 125 
z
M 2175 1050 
L 2175 1550 
Q 2025 1500 1887 1462 
Q 1750 1425 1425 1375 
Q 1050 1325 937 1200 
Q 825 1075 825 900 
Q 825 750 937 637 
Q 1050 525 1275 525 
Q 1500 525 1762 650 
Q 2025 775 2175 1050 
z
" transform="scale(0.015625)"/>
      <path id="SimHei-6e" d="M 2800 125 
L 2300 125 
L 2300 1925 
Q 2300 2225 2150 2400 
Q 2000 2575 1750 2575 
Q 1425 2575 1137 2237 
Q 850 1900 850 1400 
L 850 125 
L 350 125 
L 350 2925 
L 850 2925 
L 850 2400 
Q 1050 2675 1287 2825 
Q 1525 2975 1900 2975 
Q 2350 2975 2575 2725 
Q 2800 2475 2800 2100 
L 2800 125 
z
" transform="scale(0.015625)"/>
      <path id="SimHei-73" d="M 2750 900 
Q 2750 500 2437 287 
Q 2125 75 1650 75 
Q 1050 75 725 312 
Q 400 550 400 1000 
L 900 1000 
Q 900 700 1112 600 
Q 1325 500 1625 500 
Q 1925 500 2075 612 
Q 2225 725 2225 900 
Q 2225 1025 2100 1150 
Q 1975 1275 1475 1350 
Q 900 1425 687 1637 
Q 475 1850 475 2200 
Q 475 2500 762 2737 
Q 1050 2975 1600 2975 
Q 2100 2975 2387 2750 
Q 2675 2525 2675 2150 
L 2175 2150 
Q 2175 2375 2012 2462 
Q 1850 2550 1600 2550 
Q 1275 2550 1137 2437 
Q 1000 2325 1000 2175 
Q 1000 2000 1125 1900 
Q 1250 1800 1650 1750 
Q 2300 1650 2525 1437 
Q 2750 1225 2750 900 
z
" transform="scale(0.015625)"/>
      <path id="SimHei-66" d="M 2850 3825 
Q 2725 3900 2550 3950 
Q 2375 4000 2100 4000 
Q 1825 4000 1725 3862 
Q 1625 3725 1625 3525 
L 1625 2925 
L 2650 2925 
L 2650 2525 
L 1625 2525 
L 1625 125 
L 1125 125 
L 1125 2525 
L 275 2525 
L 275 2925 
L 1125 2925 
L 1125 3500 
Q 1125 3950 1400 4200 
Q 1675 4450 2125 4450 
Q 2400 4450 2562 4412 
Q 2725 4375 2850 4325 
L 2850 3825 
z
" transform="scale(0.015625)"/>
      <path id="SimHei-6f" d="M 2925 1525 
Q 2925 875 2525 475 
Q 2125 75 1575 75 
Q 1025 75 625 475 
Q 225 875 225 1525 
Q 225 2175 625 2575 
Q 1025 2975 1575 2975 
Q 2125 2975 2525 2575 
Q 2925 2175 2925 1525 
z
M 2375 1525 
Q 2375 2025 2125 2275 
Q 1875 2525 1575 2525 
Q 1275 2525 1025 2275 
Q 775 2025 775 1525 
Q 775 1025 1025 775 
Q 1275 525 1575 525 
Q 1875 525 2125 775 
Q 2375 1025 2375 1525 
z
" transform="scale(0.015625)"/>
      <path id="SimHei-6d" d="M 3050 125 
L 2550 125 
L 2550 2150 
Q 2550 2300 2500 2400 
Q 2450 2500 2300 2500 
Q 2125 2500 1975 2312 
Q 1825 2125 1825 1825 
L 1825 125 
L 1325 125 
L 1325 2150 
Q 1325 2300 1275 2400 
Q 1225 2500 1075 2500 
Q 900 2500 750 2312 
Q 600 2125 600 1825 
L 600 125 
L 100 125 
L 100 2925 
L 600 2925 
L 600 2550 
Q 725 2750 900 2862 
Q 1075 2975 1275 2975 
Q 1475 2975 1612 2862 
Q 1750 2750 1800 2550 
Q 1925 2750 2087 2862 
Q 2250 2975 2450 2975 
Q 2750 2975 2900 2812 
Q 3050 2650 3050 2350 
L 3050 125 
z
" transform="scale(0.015625)"/>
      <path id="SimHei-65" d="M 2850 1075 
Q 2800 625 2450 350 
Q 2100 75 1625 75 
Q 1025 75 637 462 
Q 250 850 250 1525 
Q 250 2200 637 2587 
Q 1025 2975 1625 2975 
Q 2150 2975 2487 2637 
Q 2825 2300 2825 1525 
L 800 1525 
Q 800 975 1037 750 
Q 1275 525 1625 525 
Q 1900 525 2075 662 
Q 2250 800 2300 1075 
L 2850 1075 
z
M 2250 1925 
Q 2200 2275 2025 2412 
Q 1850 2550 1575 2550 
Q 1325 2550 1125 2412 
Q 925 2275 825 1925 
L 2250 1925 
z
" transform="scale(0.015625)"/>
      <path id="SimHei-2d" d="M 2975 2125 
L 125 2125 
L 125 2525 
L 2975 2525 
L 2975 2125 
z
" transform="scale(0.015625)"/>
      <path id="SimHei-42" d="M 2950 1400 
Q 2950 675 2550 400 
Q 2150 125 1525 125 
L 275 125 
L 275 4400 
L 1575 4400 
Q 2200 4400 2512 4075 
Q 2825 3750 2825 3300 
Q 2825 2850 2612 2637 
Q 2400 2425 2175 2350 
Q 2475 2275 2712 2037 
Q 2950 1800 2950 1400 
z
M 2250 3300 
Q 2250 3625 2062 3775 
Q 1875 3925 1600 3925 
L 850 3925 
L 850 2600 
L 1575 2600 
Q 1850 2600 2050 2762 
Q 2250 2925 2250 3300 
z
M 2350 1400 
Q 2350 1800 2087 1962 
Q 1825 2125 1500 2125 
L 850 2125 
L 850 600 
L 1425 600 
Q 1875 600 2112 775 
Q 2350 950 2350 1400 
z
" transform="scale(0.015625)"/>
      <path id="SimHei-69" d="M 1800 3725 
L 1300 3725 
L 1300 4375 
L 1800 4375 
L 1800 3725 
z
M 1800 125 
L 1300 125 
L 1300 2925 
L 1800 2925 
L 1800 125 
z
" transform="scale(0.015625)"/>
      <path id="SimHei-4c" d="M 2900 125 
L 300 125 
L 300 4400 
L 875 4400 
L 875 600 
L 2900 600 
L 2900 125 
z
" transform="scale(0.015625)"/>
      <path id="SimHei-53" d="M 2900 1325 
Q 2900 750 2537 412 
Q 2175 75 1550 75 
Q 925 75 575 425 
Q 225 775 225 1300 
L 225 1475 
L 800 1475 
L 800 1325 
Q 800 950 1025 750 
Q 1250 550 1550 550 
Q 1950 550 2137 762 
Q 2325 975 2325 1275 
Q 2325 1525 2100 1737 
Q 1875 1950 1450 2125 
Q 850 2350 587 2625 
Q 325 2900 325 3275 
Q 325 3800 687 4125 
Q 1050 4450 1550 4450 
Q 2200 4450 2487 4062 
Q 2775 3675 2775 3225 
L 2200 3225 
Q 2225 3500 2050 3725 
Q 1875 3950 1550 3950 
Q 1250 3950 1075 3787 
Q 900 3625 900 3350 
Q 900 3125 1037 2962 
Q 1175 2800 1750 2575 
Q 2300 2350 2600 2037 
Q 2900 1725 2900 1325 
z
" transform="scale(0.015625)"/>
      <path id="SimHei-4d" d="M 2925 125 
L 2425 125 
L 2425 3175 
L 2375 3175 
L 1775 125 
L 1375 125 
L 775 3175 
L 725 3175 
L 725 125 
L 225 125 
L 225 4400 
L 1000 4400 
L 1550 1575 
L 1600 1575 
L 2150 4400 
L 2925 4400 
L 2925 125 
z
" transform="scale(0.015625)"/>
      <path id="SimHei-20" transform="scale(0.015625)"/>
      <path id="SimHei-43" d="M 2975 1825 
Q 2950 875 2575 475 
Q 2200 75 1675 75 
Q 1075 75 650 562 
Q 225 1050 225 2125 
Q 225 3300 637 3875 
Q 1050 4450 1700 4450 
Q 2250 4450 2612 4037 
Q 2975 3625 2950 2875 
L 2400 2875 
Q 2400 3425 2225 3700 
Q 2050 3975 1700 3975 
Q 1300 3975 1062 3562 
Q 825 3150 825 2175 
Q 825 1275 1062 912 
Q 1300 550 1675 550 
Q 1950 550 2175 812 
Q 2400 1075 2400 1825 
L 2975 1825 
z
" transform="scale(0.015625)"/>
      <path id="SimHei-70" d="M 2825 1525 
Q 2825 800 2475 425 
Q 2125 50 1625 50 
Q 1350 50 1150 162 
Q 950 275 800 500 
L 800 -800 
L 300 -800 
L 300 2925 
L 800 2925 
L 800 2550 
Q 950 2775 1150 2875 
Q 1350 2975 1625 2975 
Q 2125 2975 2475 2612 
Q 2825 2250 2825 1525 
z
M 2275 1525 
Q 2275 2000 2087 2262 
Q 1900 2525 1525 2525 
Q 1225 2525 1012 2262 
Q 800 2000 800 1525 
Q 800 1050 1012 775 
Q 1225 500 1525 500 
Q 1900 500 2087 775 
Q 2275 1050 2275 1525 
z
" transform="scale(0.015625)"/>
      <path id="SimHei-75" d="M 2800 125 
L 2300 125 
L 2300 650 
Q 2100 375 1862 225 
Q 1625 75 1250 75 
Q 800 75 575 325 
Q 350 575 350 950 
L 350 2925 
L 850 2925 
L 850 1125 
Q 850 825 1000 650 
Q 1150 475 1400 475 
Q 1725 475 2012 812 
Q 2300 1150 2300 1650 
L 2300 2925 
L 2800 2925 
L 2800 125 
z
" transform="scale(0.015625)"/>
      <path id="SimHei-56" d="M 3050 4400 
L 1800 75 
L 1300 75 
L 50 4400 
L 650 4400 
L 1525 1125 
L 1575 1125 
L 2450 4400 
L 3050 4400 
z
" transform="scale(0.015625)"/>
      <path id="SimHei-6c" d="M 1825 125 
L 1325 125 
L 1325 4400 
L 1825 4400 
L 1825 125 
z
" transform="scale(0.015625)"/>
      <path id="SimHei-64" d="M 2750 125 
L 2250 125 
L 2250 500 
Q 2100 275 1900 175 
Q 1700 75 1425 75 
Q 925 75 575 437 
Q 225 800 225 1525 
Q 225 2250 575 2625 
Q 925 3000 1425 3000 
Q 1700 3000 1900 2887 
Q 2100 2775 2250 2550 
L 2250 4400 
L 2750 4400 
L 2750 125 
z
M 2250 1525 
Q 2250 2000 2037 2275 
Q 1825 2550 1525 2550 
Q 1150 2550 962 2275 
Q 775 2000 775 1525 
Q 775 1050 962 787 
Q 1150 525 1525 525 
Q 1825 525 2037 787 
Q 2250 1050 2250 1525 
z
" transform="scale(0.015625)"/>
      <path id="SimHei-50" d="M 2950 3100 
Q 2950 2500 2600 2150 
Q 2250 1800 1625 1800 
L 900 1800 
L 900 125 
L 325 125 
L 325 4400 
L 1625 4400 
Q 2250 4400 2600 4050 
Q 2950 3700 2950 3100 
z
M 2375 3100 
Q 2375 3575 2150 3750 
Q 1925 3925 1475 3925 
L 900 3925 
L 900 2275 
L 1475 2275 
Q 1925 2275 2150 2450 
Q 2375 2625 2375 3100 
z
" transform="scale(0.015625)"/>
      <path id="SimHei-63" d="M 2850 1250 
Q 2850 725 2487 400 
Q 2125 75 1575 75 
Q 1025 75 625 462 
Q 225 850 225 1525 
Q 225 2200 625 2587 
Q 1025 2975 1575 2975 
Q 2125 2975 2450 2687 
Q 2775 2400 2775 2000 
L 2225 2000 
Q 2200 2300 2012 2412 
Q 1825 2525 1575 2525 
Q 1275 2525 1025 2287 
Q 775 2050 775 1525 
Q 775 1000 1025 762 
Q 1275 525 1575 525 
Q 1900 525 2100 700 
Q 2300 875 2300 1250 
L 2850 1250 
z
" transform="scale(0.015625)"/>
      <path id="SimHei-74" d="M 2750 200 
Q 2625 150 2462 112 
Q 2300 75 2025 75 
Q 1575 75 1300 325 
Q 1025 575 1025 1025 
L 1025 2525 
L 175 2525 
L 175 2925 
L 1025 2925 
L 1025 3900 
L 1525 3900 
L 1525 2925 
L 2550 2925 
L 2550 2525 
L 1525 2525 
L 1525 1000 
Q 1525 800 1625 662 
Q 1725 525 2000 525 
Q 2275 525 2450 575 
Q 2625 625 2750 700 
L 2750 200 
z
" transform="scale(0.015625)"/>
     </defs>
     <use xlink:href="#SimHei-54"/>
     <use xlink:href="#SimHei-72" x="50"/>
     <use xlink:href="#SimHei-61" x="100"/>
     <use xlink:href="#SimHei-6e" x="150"/>
     <use xlink:href="#SimHei-73" x="200"/>
     <use xlink:href="#SimHei-66" x="250"/>
     <use xlink:href="#SimHei-6f" x="300"/>
     <use xlink:href="#SimHei-72" x="350"/>
     <use xlink:href="#SimHei-6d" x="400"/>
     <use xlink:href="#SimHei-65" x="450"/>
     <use xlink:href="#SimHei-72" x="500"/>
     <use xlink:href="#SimHei-2d" x="550"/>
     <use xlink:href="#SimHei-42" x="600"/>
     <use xlink:href="#SimHei-69" x="650"/>
     <use xlink:href="#SimHei-4c" x="700"/>
     <use xlink:href="#SimHei-53" x="750"/>
     <use xlink:href="#SimHei-54" x="800"/>
     <use xlink:href="#SimHei-4d" x="850"/>
     <use xlink:href="#SimHei-20" x="900"/>
     <use xlink:href="#SimHei-43" x="950"/>
     <use xlink:href="#SimHei-6f" x="1000"/>
     <use xlink:href="#SimHei-6d" x="1050"/>
     <use xlink:href="#SimHei-70" x="1100"/>
     <use xlink:href="#SimHei-61" x="1150"/>
     <use xlink:href="#SimHei-72" x="1200"/>
     <use xlink:href="#SimHei-69" x="1250"/>
     <use xlink:href="#SimHei-73" x="1300"/>
     <use xlink:href="#SimHei-6f" x="1350"/>
     <use xlink:href="#SimHei-6e" x="1400"/>
     <use xlink:href="#SimHei-20" x="1450"/>
     <use xlink:href="#SimHei-6f" x="1500"/>
     <use xlink:href="#SimHei-66" x="1550"/>
     <use xlink:href="#SimHei-20" x="1600"/>
     <use xlink:href="#SimHei-54" x="1650"/>
     <use xlink:href="#SimHei-72" x="1700"/>
     <use xlink:href="#SimHei-75" x="1750"/>
     <use xlink:href="#SimHei-65" x="1800"/>
     <use xlink:href="#SimHei-20" x="1850"/>
     <use xlink:href="#SimHei-56" x="1900"/>
     <use xlink:href="#SimHei-61" x="1950"/>
     <use xlink:href="#SimHei-6c" x="2000"/>
     <use xlink:href="#SimHei-75" x="2050"/>
     <use xlink:href="#SimHei-65" x="2100"/>
     <use xlink:href="#SimHei-73" x="2150"/>
     <use xlink:href="#SimHei-20" x="2200"/>
     <use xlink:href="#SimHei-61" x="2250"/>
     <use xlink:href="#SimHei-6e" x="2300"/>
     <use xlink:href="#SimHei-64" x="2350"/>
     <use xlink:href="#SimHei-20" x="2400"/>
     <use xlink:href="#SimHei-50" x="2450"/>
     <use xlink:href="#SimHei-72" x="2500"/>
     <use xlink:href="#SimHei-65" x="2550"/>
     <use xlink:href="#SimHei-64" x="2600"/>
     <use xlink:href="#SimHei-69" x="2650"/>
     <use xlink:href="#SimHei-63" x="2700"/>
     <use xlink:href="#SimHei-74" x="2750"/>
     <use xlink:href="#SimHei-69" x="2800"/>
     <use xlink:href="#SimHei-6f" x="2850"/>
     <use xlink:href="#SimHei-6e" x="2900"/>
     <use xlink:href="#SimHei-73" x="2950"/>
    </g>
   </g>
   <g id="legend_1">
    <g id="patch_7">
     <path d="M 173.2 504.64 
L 312.4 504.64 
Q 315.6 504.64 315.6 501.44 
L 315.6 460.64 
Q 315.6 457.44 312.4 457.44 
L 173.2 457.44 
Q 170 457.44 170 460.64 
L 170 501.44 
Q 170 504.64 173.2 504.64 
z
" style="fill: #ffffff; opacity: 0.8; stroke: #cccccc; stroke-linejoin: miter"/>
    </g>
    <g id="line2d_25">
     <path d="M 176.4 469.44 
L 192.4 469.44 
L 208.4 469.44 
" style="fill: none; stroke: #ff0000; stroke-width: 1.5; stroke-linecap: square"/>
     <g>
      <use xlink:href="#mf084e6e2f9" x="192.4" y="469.44" style="fill: #ff0000; stroke: #ff0000"/>
     </g>
    </g>
    <g id="text_14">
     <!-- True Values -->
     <g transform="translate(221.2 475.04) scale(0.16 -0.16)">
      <use xlink:href="#SimHei-54"/>
      <use xlink:href="#SimHei-72" x="50"/>
      <use xlink:href="#SimHei-75" x="100"/>
      <use xlink:href="#SimHei-65" x="150"/>
      <use xlink:href="#SimHei-20" x="200"/>
      <use xlink:href="#SimHei-56" x="250"/>
      <use xlink:href="#SimHei-61" x="300"/>
      <use xlink:href="#SimHei-6c" x="350"/>
      <use xlink:href="#SimHei-75" x="400"/>
      <use xlink:href="#SimHei-65" x="450"/>
      <use xlink:href="#SimHei-73" x="500"/>
     </g>
    </g>
    <g id="line2d_26">
     <path d="M 176.4 490.64 
L 192.4 490.64 
L 208.4 490.64 
" style="fill: none; stroke-dasharray: 5.55,2.4; stroke-dashoffset: 0; stroke: #bfbf00; stroke-width: 1.5"/>
     <g>
      <use xlink:href="#m8e8082d5f7" x="192.4" y="490.64" style="fill: #bfbf00; stroke: #bfbf00"/>
     </g>
    </g>
    <g id="text_15">
     <!-- Predictions -->
     <g transform="translate(221.2 496.24) scale(0.16 -0.16)">
      <use xlink:href="#SimHei-50"/>
      <use xlink:href="#SimHei-72" x="50"/>
      <use xlink:href="#SimHei-65" x="100"/>
      <use xlink:href="#SimHei-64" x="150"/>
      <use xlink:href="#SimHei-69" x="200"/>
      <use xlink:href="#SimHei-63" x="250"/>
      <use xlink:href="#SimHei-74" x="300"/>
      <use xlink:href="#SimHei-69" x="350"/>
      <use xlink:href="#SimHei-6f" x="400"/>
      <use xlink:href="#SimHei-6e" x="450"/>
      <use xlink:href="#SimHei-73" x="500"/>
     </g>
    </g>
   </g>
  </g>
 </g>
 <defs>
  <clipPath id="p55ee842069">
   <rect x="162" y="69.12" width="1004.4" height="443.52"/>
  </clipPath>
 </defs>
</svg>
