<?xml version="1.0" encoding="utf-8" standalone="no"?>
<!DOCTYPE svg PUBLIC "-//W3C//DTD SVG 1.1//EN"
  "http://www.w3.org/Graphics/SVG/1.1/DTD/svg11.dtd">
<svg xmlns:xlink="http://www.w3.org/1999/xlink" width="720pt" height="432pt" viewBox="0 0 720 432" xmlns="http://www.w3.org/2000/svg" version="1.1">
 <metadata>
  <rdf:RDF xmlns:dc="http://purl.org/dc/elements/1.1/" xmlns:cc="http://creativecommons.org/ns#" xmlns:rdf="http://www.w3.org/1999/02/22-rdf-syntax-ns#">
   <cc:Work>
    <dc:type rdf:resource="http://purl.org/dc/dcmitype/StillImage"/>
    <dc:date>2024-09-24T23:28:23.973279</dc:date>
    <dc:format>image/svg+xml</dc:format>
    <dc:creator>
     <cc:Agent>
      <dc:title>Matplotlib v3.6.2, https://matplotlib.org/</dc:title>
     </cc:Agent>
    </dc:creator>
   </cc:Work>
  </rdf:RDF>
 </metadata>
 <defs>
  <style type="text/css">*{stroke-linejoin: round; stroke-linecap: butt}</style>
 </defs>
 <g id="figure_1">
  <g id="patch_1">
   <path d="M 0 432 
L 720 432 
L 720 0 
L 0 0 
z
" style="fill: #ffffff"/>
  </g>
  <g id="axes_1">
   <g id="patch_2">
    <path d="M 277 387.88 
L 705.609737 387.88 
L 705.609737 10.8 
L 277 10.8 
z
" style="fill: #ffffff"/>
   </g>
   <g id="line2d_1">
    <path d="M 277 387.88 
L 277 10.8 
" clip-path="url(#p24359026c1)" style="fill: none; stroke: #999999; stroke-width: 1.5; stroke-linecap: square"/>
   </g>
   <g id="patch_3">
    <path d="M 277 370.372714 
L 352.37193 370.372714 
L 352.37193 351.518714 
L 277 351.518714 
z
" clip-path="url(#p24359026c1)" style="fill: #008bfb"/>
   </g>
   <g id="patch_4">
    <path d="M 277 343.438429 
L 368.739252 343.438429 
L 368.739252 324.584429 
L 277 324.584429 
z
" clip-path="url(#p24359026c1)" style="fill: #008bfb"/>
   </g>
   <g id="patch_5">
    <path d="M 277 316.504143 
L 369.752328 316.504143 
L 369.752328 297.650143 
L 277 297.650143 
z
" clip-path="url(#p24359026c1)" style="fill: #008bfb"/>
   </g>
   <g id="patch_6">
    <path d="M 277 289.569857 
L 375.139042 289.569857 
L 375.139042 270.715857 
L 277 270.715857 
z
" clip-path="url(#p24359026c1)" style="fill: #008bfb"/>
   </g>
   <g id="patch_7">
    <path d="M 277 262.635571 
L 380.208449 262.635571 
L 380.208449 243.781571 
L 277 243.781571 
z
" clip-path="url(#p24359026c1)" style="fill: #008bfb"/>
   </g>
   <g id="patch_8">
    <path d="M 277 235.701286 
L 387.494579 235.701286 
L 387.494579 216.847286 
L 277 216.847286 
z
" clip-path="url(#p24359026c1)" style="fill: #008bfb"/>
   </g>
   <g id="patch_9">
    <path d="M 277 208.767 
L 399.04816 208.767 
L 399.04816 189.913 
L 277 189.913 
z
" clip-path="url(#p24359026c1)" style="fill: #008bfb"/>
   </g>
   <g id="patch_10">
    <path d="M 277 181.832714 
L 400.17363 181.832714 
L 400.17363 162.978714 
L 277 162.978714 
z
" clip-path="url(#p24359026c1)" style="fill: #008bfb"/>
   </g>
   <g id="patch_11">
    <path d="M 277 154.898429 
L 432.849006 154.898429 
L 432.849006 136.044429 
L 277 136.044429 
z
" clip-path="url(#p24359026c1)" style="fill: #008bfb"/>
   </g>
   <g id="patch_12">
    <path d="M 277 127.964143 
L 491.644664 127.964143 
L 491.644664 109.110143 
L 277 109.110143 
z
" clip-path="url(#p24359026c1)" style="fill: #008bfb"/>
   </g>
   <g id="patch_13">
    <path d="M 277 101.029857 
L 563.334526 101.029857 
L 563.334526 82.175857 
L 277 82.175857 
z
" clip-path="url(#p24359026c1)" style="fill: #008bfb"/>
   </g>
   <g id="patch_14">
    <path d="M 277 74.095571 
L 611.844563 74.095571 
L 611.844563 55.241571 
L 277 55.241571 
z
" clip-path="url(#p24359026c1)" style="fill: #008bfb"/>
   </g>
   <g id="patch_15">
    <path d="M 277 47.161286 
L 685.199749 47.161286 
L 685.199749 28.307286 
L 277 28.307286 
z
" clip-path="url(#p24359026c1)" style="fill: #008bfb"/>
   </g>
   <g id="matplotlib.axis_1">
    <g id="xtick_1">
     <g id="line2d_2">
      <defs>
       <path id="mfcc95e8cf8" d="M 0 0 
L 0 3.5 
" style="stroke: #333333; stroke-width: 0.8"/>
      </defs>
      <g>
       <use xlink:href="#mfcc95e8cf8" x="277" y="387.88" style="fill: #333333; stroke: #333333; stroke-width: 0.8"/>
      </g>
     </g>
     <g id="text_1">
      <!-- 0.0 -->
      <g style="fill: #333333" transform="translate(268.75 402.4425) scale(0.11 -0.11)">
       <defs>
        <path id="SimHei-30" d="M 225 2537 
Q 250 3200 412 3587 
Q 575 3975 875 4225 
Q 1175 4475 1612 4475 
Q 2050 4475 2375 4112 
Q 2700 3750 2800 3200 
Q 2900 2650 2862 1937 
Q 2825 1225 2612 775 
Q 2400 325 1975 150 
Q 1550 -25 1125 187 
Q 700 400 525 750 
Q 350 1100 275 1487 
Q 200 1875 225 2537 
z
M 750 2687 
Q 675 2000 800 1462 
Q 925 925 1212 700 
Q 1500 475 1800 612 
Q 2100 750 2237 1162 
Q 2375 1575 2375 2062 
Q 2375 2550 2337 2950 
Q 2300 3350 2112 3675 
Q 1925 4000 1612 4012 
Q 1300 4025 1062 3700 
Q 825 3375 750 2687 
z
" transform="scale(0.015625)"/>
        <path id="SimHei-2e" d="M 1075 125 
L 500 125 
L 500 675 
L 1075 675 
L 1075 125 
z
" transform="scale(0.015625)"/>
       </defs>
       <use xlink:href="#SimHei-30"/>
       <use xlink:href="#SimHei-2e" x="50"/>
       <use xlink:href="#SimHei-30" x="100"/>
      </g>
     </g>
    </g>
    <g id="xtick_2">
     <g id="line2d_3">
      <g>
       <use xlink:href="#mfcc95e8cf8" x="347.840339" y="387.88" style="fill: #333333; stroke: #333333; stroke-width: 0.8"/>
      </g>
     </g>
     <g id="text_2">
      <!-- 0.2 -->
      <g style="fill: #333333" transform="translate(339.590339 402.4425) scale(0.11 -0.11)">
       <defs>
        <path id="SimHei-32" d="M 300 250 
Q 325 625 650 925 
Q 975 1225 1475 1862 
Q 1975 2500 2125 2850 
Q 2275 3200 2237 3450 
Q 2200 3700 2000 3862 
Q 1800 4025 1537 4000 
Q 1275 3975 1037 3800 
Q 800 3625 675 3275 
L 200 3350 
Q 400 3925 712 4187 
Q 1025 4450 1450 4475 
Q 1700 4500 1900 4462 
Q 2100 4425 2312 4287 
Q 2525 4150 2662 3875 
Q 2800 3600 2762 3212 
Q 2725 2825 2375 2287 
Q 2025 1750 1025 600 
L 2825 600 
L 2825 150 
L 300 150 
L 300 250 
z
" transform="scale(0.015625)"/>
       </defs>
       <use xlink:href="#SimHei-30"/>
       <use xlink:href="#SimHei-2e" x="50"/>
       <use xlink:href="#SimHei-32" x="100"/>
      </g>
     </g>
    </g>
    <g id="xtick_3">
     <g id="line2d_4">
      <g>
       <use xlink:href="#mfcc95e8cf8" x="418.680677" y="387.88" style="fill: #333333; stroke: #333333; stroke-width: 0.8"/>
      </g>
     </g>
     <g id="text_3">
      <!-- 0.4 -->
      <g style="fill: #333333" transform="translate(410.430677 402.4425) scale(0.11 -0.11)">
       <defs>
        <path id="SimHei-34" d="M 2000 1100 
L 75 1100 
L 75 1525 
L 2100 4450 
L 2475 4450 
L 2475 1525 
L 3075 1525 
L 3075 1100 
L 2475 1100 
L 2475 150 
L 2000 150 
L 2000 1100 
z
M 2000 1525 
L 2000 3500 
L 600 1525 
L 2000 1525 
z
" transform="scale(0.015625)"/>
       </defs>
       <use xlink:href="#SimHei-30"/>
       <use xlink:href="#SimHei-2e" x="50"/>
       <use xlink:href="#SimHei-34" x="100"/>
      </g>
     </g>
    </g>
    <g id="xtick_4">
     <g id="line2d_5">
      <g>
       <use xlink:href="#mfcc95e8cf8" x="489.521016" y="387.88" style="fill: #333333; stroke: #333333; stroke-width: 0.8"/>
      </g>
     </g>
     <g id="text_4">
      <!-- 0.6 -->
      <g style="fill: #333333" transform="translate(481.271016 402.4425) scale(0.11 -0.11)">
       <defs>
        <path id="SimHei-36" d="M 250 1612 
Q 275 1975 387 2225 
Q 500 2475 725 2850 
L 1750 4450 
L 2325 4450 
L 1275 2800 
Q 1950 2975 2350 2750 
Q 2750 2525 2887 2237 
Q 3025 1950 3037 1612 
Q 3050 1275 2937 950 
Q 2825 625 2537 362 
Q 2250 100 1737 75 
Q 1225 50 862 262 
Q 500 475 362 862 
Q 225 1250 250 1612 
z
M 1025 787 
Q 1250 550 1625 525 
Q 2000 500 2250 775 
Q 2500 1050 2500 1575 
Q 2500 2100 2187 2300 
Q 1875 2500 1487 2450 
Q 1100 2400 925 2075 
Q 750 1750 775 1387 
Q 800 1025 1025 787 
z
" transform="scale(0.015625)"/>
       </defs>
       <use xlink:href="#SimHei-30"/>
       <use xlink:href="#SimHei-2e" x="50"/>
       <use xlink:href="#SimHei-36" x="100"/>
      </g>
     </g>
    </g>
    <g id="xtick_5">
     <g id="line2d_6">
      <g>
       <use xlink:href="#mfcc95e8cf8" x="560.361354" y="387.88" style="fill: #333333; stroke: #333333; stroke-width: 0.8"/>
      </g>
     </g>
     <g id="text_5">
      <!-- 0.8 -->
      <g style="fill: #333333" transform="translate(552.111354 402.4425) scale(0.11 -0.11)">
       <defs>
        <path id="SimHei-38" d="M 175 1375 
Q 175 1675 325 1962 
Q 475 2250 825 2425 
Q 525 2600 425 2812 
Q 325 3025 312 3300 
Q 300 3575 387 3775 
Q 475 3975 650 4150 
Q 825 4325 1037 4387 
Q 1250 4450 1500 4450 
Q 1750 4450 1950 4400 
Q 2150 4350 2375 4187 
Q 2600 4025 2700 3725 
Q 2800 3425 2687 3025 
Q 2575 2625 2100 2400 
Q 2525 2275 2700 2012 
Q 2875 1750 2875 1375 
Q 2875 1000 2762 775 
Q 2650 550 2512 400 
Q 2375 250 2137 162 
Q 1900 75 1537 75 
Q 1175 75 912 162 
Q 650 250 475 425 
Q 300 600 237 837 
Q 175 1075 175 1375 
z
M 687 1400 
Q 675 1100 787 875 
Q 900 650 1200 587 
Q 1500 525 1825 600 
Q 2150 675 2275 950 
Q 2400 1225 2362 1500 
Q 2325 1775 2050 1962 
Q 1775 2150 1450 2125 
Q 1125 2100 912 1900 
Q 700 1700 687 1400 
z
M 775 3350 
Q 775 3100 950 2875 
Q 1125 2650 1500 2650 
Q 1875 2650 2062 2875 
Q 2250 3100 2237 3412 
Q 2225 3725 2012 3875 
Q 1800 4025 1437 4000 
Q 1075 3975 925 3787 
Q 775 3600 775 3350 
z
" transform="scale(0.015625)"/>
       </defs>
       <use xlink:href="#SimHei-30"/>
       <use xlink:href="#SimHei-2e" x="50"/>
       <use xlink:href="#SimHei-38" x="100"/>
      </g>
     </g>
    </g>
    <g id="xtick_6">
     <g id="line2d_7">
      <g>
       <use xlink:href="#mfcc95e8cf8" x="631.201693" y="387.88" style="fill: #333333; stroke: #333333; stroke-width: 0.8"/>
      </g>
     </g>
     <g id="text_6">
      <!-- 1.0 -->
      <g style="fill: #333333" transform="translate(622.951693 402.4425) scale(0.11 -0.11)">
       <defs>
        <path id="SimHei-31" d="M 1400 3600 
Q 1075 3275 575 2975 
L 575 3450 
Q 1200 3875 1600 4450 
L 1900 4450 
L 1900 150 
L 1400 150 
L 1400 3600 
z
" transform="scale(0.015625)"/>
       </defs>
       <use xlink:href="#SimHei-31"/>
       <use xlink:href="#SimHei-2e" x="50"/>
       <use xlink:href="#SimHei-30" x="100"/>
      </g>
     </g>
    </g>
    <g id="xtick_7">
     <g id="line2d_8">
      <g>
       <use xlink:href="#mfcc95e8cf8" x="702.042032" y="387.88" style="fill: #333333; stroke: #333333; stroke-width: 0.8"/>
      </g>
     </g>
     <g id="text_7">
      <!-- 1.2 -->
      <g style="fill: #333333" transform="translate(693.792032 402.4425) scale(0.11 -0.11)">
       <use xlink:href="#SimHei-31"/>
       <use xlink:href="#SimHei-2e" x="50"/>
       <use xlink:href="#SimHei-32" x="100"/>
      </g>
     </g>
    </g>
    <g id="text_8">
     <!-- mean(|SHAP value|) (average impact on model output magnitude) -->
     <g transform="translate(293.054868 418.989375) scale(0.13 -0.13)">
      <defs>
       <path id="SimHei-6d" d="M 3050 125 
L 2550 125 
L 2550 2150 
Q 2550 2300 2500 2400 
Q 2450 2500 2300 2500 
Q 2125 2500 1975 2312 
Q 1825 2125 1825 1825 
L 1825 125 
L 1325 125 
L 1325 2150 
Q 1325 2300 1275 2400 
Q 1225 2500 1075 2500 
Q 900 2500 750 2312 
Q 600 2125 600 1825 
L 600 125 
L 100 125 
L 100 2925 
L 600 2925 
L 600 2550 
Q 725 2750 900 2862 
Q 1075 2975 1275 2975 
Q 1475 2975 1612 2862 
Q 1750 2750 1800 2550 
Q 1925 2750 2087 2862 
Q 2250 2975 2450 2975 
Q 2750 2975 2900 2812 
Q 3050 2650 3050 2350 
L 3050 125 
z
" transform="scale(0.015625)"/>
       <path id="SimHei-65" d="M 2850 1075 
Q 2800 625 2450 350 
Q 2100 75 1625 75 
Q 1025 75 637 462 
Q 250 850 250 1525 
Q 250 2200 637 2587 
Q 1025 2975 1625 2975 
Q 2150 2975 2487 2637 
Q 2825 2300 2825 1525 
L 800 1525 
Q 800 975 1037 750 
Q 1275 525 1625 525 
Q 1900 525 2075 662 
Q 2250 800 2300 1075 
L 2850 1075 
z
M 2250 1925 
Q 2200 2275 2025 2412 
Q 1850 2550 1575 2550 
Q 1325 2550 1125 2412 
Q 925 2275 825 1925 
L 2250 1925 
z
" transform="scale(0.015625)"/>
       <path id="SimHei-61" d="M 2875 125 
L 2275 125 
Q 2225 175 2200 262 
Q 2175 350 2175 475 
Q 2000 275 1750 175 
Q 1500 75 1225 75 
Q 825 75 550 275 
Q 275 475 275 850 
Q 275 1225 525 1450 
Q 775 1675 1300 1750 
Q 1650 1800 1912 1875 
Q 2175 1950 2175 2075 
Q 2175 2225 2062 2375 
Q 1950 2525 1575 2525 
Q 1275 2525 1137 2412 
Q 1000 2300 950 2100 
L 400 2100 
Q 450 2500 762 2737 
Q 1075 2975 1575 2975 
Q 2125 2975 2400 2725 
Q 2675 2475 2675 2025 
L 2675 650 
Q 2675 500 2725 375 
Q 2775 250 2875 125 
z
M 2175 1050 
L 2175 1550 
Q 2025 1500 1887 1462 
Q 1750 1425 1425 1375 
Q 1050 1325 937 1200 
Q 825 1075 825 900 
Q 825 750 937 637 
Q 1050 525 1275 525 
Q 1500 525 1762 650 
Q 2025 775 2175 1050 
z
" transform="scale(0.015625)"/>
       <path id="SimHei-6e" d="M 2800 125 
L 2300 125 
L 2300 1925 
Q 2300 2225 2150 2400 
Q 2000 2575 1750 2575 
Q 1425 2575 1137 2237 
Q 850 1900 850 1400 
L 850 125 
L 350 125 
L 350 2925 
L 850 2925 
L 850 2400 
Q 1050 2675 1287 2825 
Q 1525 2975 1900 2975 
Q 2350 2975 2575 2725 
Q 2800 2475 2800 2100 
L 2800 125 
z
" transform="scale(0.015625)"/>
       <path id="SimHei-28" d="M 2975 -200 
L 2700 -475 
Q 2075 125 1762 775 
Q 1450 1425 1450 2250 
Q 1450 3075 1762 3725 
Q 2075 4375 2700 5000 
L 2975 4725 
Q 2400 4175 2112 3587 
Q 1825 3000 1825 2250 
Q 1825 1500 2112 912 
Q 2400 325 2975 -200 
z
" transform="scale(0.015625)"/>
       <path id="SimHei-7c" d="M 1825 -850 
L 1325 -850 
L 1325 5500 
L 1825 5500 
L 1825 -850 
z
" transform="scale(0.015625)"/>
       <path id="SimHei-53" d="M 2900 1325 
Q 2900 750 2537 412 
Q 2175 75 1550 75 
Q 925 75 575 425 
Q 225 775 225 1300 
L 225 1475 
L 800 1475 
L 800 1325 
Q 800 950 1025 750 
Q 1250 550 1550 550 
Q 1950 550 2137 762 
Q 2325 975 2325 1275 
Q 2325 1525 2100 1737 
Q 1875 1950 1450 2125 
Q 850 2350 587 2625 
Q 325 2900 325 3275 
Q 325 3800 687 4125 
Q 1050 4450 1550 4450 
Q 2200 4450 2487 4062 
Q 2775 3675 2775 3225 
L 2200 3225 
Q 2225 3500 2050 3725 
Q 1875 3950 1550 3950 
Q 1250 3950 1075 3787 
Q 900 3625 900 3350 
Q 900 3125 1037 2962 
Q 1175 2800 1750 2575 
Q 2300 2350 2600 2037 
Q 2900 1725 2900 1325 
z
" transform="scale(0.015625)"/>
       <path id="SimHei-48" d="M 2850 125 
L 2275 125 
L 2275 2125 
L 850 2125 
L 850 125 
L 275 125 
L 275 4400 
L 850 4400 
L 850 2600 
L 2275 2600 
L 2275 4400 
L 2850 4400 
L 2850 125 
z
" transform="scale(0.015625)"/>
       <path id="SimHei-41" d="M 3075 125 
L 2475 125 
L 2125 1450 
L 1025 1450 
L 675 125 
L 75 125 
L 1325 4450 
L 1825 4450 
L 3075 125 
z
M 2000 1925 
L 1600 3450 
L 1550 3450 
L 1150 1925 
L 2000 1925 
z
" transform="scale(0.015625)"/>
       <path id="SimHei-50" d="M 2950 3100 
Q 2950 2500 2600 2150 
Q 2250 1800 1625 1800 
L 900 1800 
L 900 125 
L 325 125 
L 325 4400 
L 1625 4400 
Q 2250 4400 2600 4050 
Q 2950 3700 2950 3100 
z
M 2375 3100 
Q 2375 3575 2150 3750 
Q 1925 3925 1475 3925 
L 900 3925 
L 900 2275 
L 1475 2275 
Q 1925 2275 2150 2450 
Q 2375 2625 2375 3100 
z
" transform="scale(0.015625)"/>
       <path id="SimHei-20" transform="scale(0.015625)"/>
       <path id="SimHei-76" d="M 2875 2925 
L 1825 75 
L 1275 75 
L 225 2925 
L 750 2925 
L 1525 750 
L 1575 750 
L 2350 2925 
L 2875 2925 
z
" transform="scale(0.015625)"/>
       <path id="SimHei-6c" d="M 1825 125 
L 1325 125 
L 1325 4400 
L 1825 4400 
L 1825 125 
z
" transform="scale(0.015625)"/>
       <path id="SimHei-75" d="M 2800 125 
L 2300 125 
L 2300 650 
Q 2100 375 1862 225 
Q 1625 75 1250 75 
Q 800 75 575 325 
Q 350 575 350 950 
L 350 2925 
L 850 2925 
L 850 1125 
Q 850 825 1000 650 
Q 1150 475 1400 475 
Q 1725 475 2012 812 
Q 2300 1150 2300 1650 
L 2300 2925 
L 2800 2925 
L 2800 125 
z
" transform="scale(0.015625)"/>
       <path id="SimHei-29" d="M 1675 2250 
Q 1675 1425 1362 775 
Q 1050 125 425 -475 
L 150 -200 
Q 725 325 1012 912 
Q 1300 1500 1300 2250 
Q 1300 3000 1012 3587 
Q 725 4175 150 4725 
L 425 5000 
Q 1050 4375 1362 3725 
Q 1675 3075 1675 2250 
z
" transform="scale(0.015625)"/>
       <path id="SimHei-72" d="M 2500 2425 
Q 2025 2500 1700 2287 
Q 1375 2075 1150 1550 
L 1150 125 
L 650 125 
L 650 2925 
L 1150 2925 
L 1150 2200 
Q 1375 2600 1712 2787 
Q 2050 2975 2500 2975 
L 2500 2425 
z
" transform="scale(0.015625)"/>
       <path id="SimHei-67" d="M 2975 2500 
Q 2800 2550 2637 2562 
Q 2475 2575 2300 2525 
Q 2375 2450 2425 2337 
Q 2475 2225 2475 2000 
Q 2475 1575 2187 1300 
Q 1900 1025 1475 1025 
Q 1375 1025 1212 1062 
Q 1050 1100 950 1150 
Q 875 1100 850 1050 
Q 825 1000 825 925 
Q 825 800 1000 737 
Q 1175 675 1625 675 
Q 2350 675 2612 475 
Q 2875 275 2875 -25 
Q 2875 -425 2487 -612 
Q 2100 -800 1575 -800 
Q 900 -800 575 -625 
Q 250 -450 250 -150 
Q 250 0 375 150 
Q 500 300 700 400 
Q 550 475 462 587 
Q 375 700 375 875 
Q 375 1025 487 1137 
Q 600 1250 750 1325 
Q 625 1450 550 1625 
Q 475 1800 475 2000 
Q 475 2425 762 2700 
Q 1050 2975 1475 2975 
Q 1700 2975 1862 2912 
Q 2025 2850 2150 2725 
Q 2350 2875 2550 2937 
Q 2750 3000 2975 2975 
L 2975 2500 
z
M 1975 2000 
Q 1975 2250 1850 2400 
Q 1725 2550 1475 2550 
Q 1225 2550 1100 2400 
Q 975 2250 975 2000 
Q 975 1750 1100 1600 
Q 1225 1450 1475 1450 
Q 1725 1450 1850 1600 
Q 1975 1750 1975 2000 
z
M 2400 -75 
Q 2400 25 2287 125 
Q 2175 225 1725 225 
Q 1625 225 1450 237 
Q 1275 250 1050 275 
Q 850 200 775 100 
Q 700 0 700 -100 
Q 700 -250 900 -350 
Q 1100 -450 1600 -450 
Q 2025 -450 2212 -337 
Q 2400 -225 2400 -75 
z
" transform="scale(0.015625)"/>
       <path id="SimHei-69" d="M 1800 3725 
L 1300 3725 
L 1300 4375 
L 1800 4375 
L 1800 3725 
z
M 1800 125 
L 1300 125 
L 1300 2925 
L 1800 2925 
L 1800 125 
z
" transform="scale(0.015625)"/>
       <path id="SimHei-70" d="M 2825 1525 
Q 2825 800 2475 425 
Q 2125 50 1625 50 
Q 1350 50 1150 162 
Q 950 275 800 500 
L 800 -800 
L 300 -800 
L 300 2925 
L 800 2925 
L 800 2550 
Q 950 2775 1150 2875 
Q 1350 2975 1625 2975 
Q 2125 2975 2475 2612 
Q 2825 2250 2825 1525 
z
M 2275 1525 
Q 2275 2000 2087 2262 
Q 1900 2525 1525 2525 
Q 1225 2525 1012 2262 
Q 800 2000 800 1525 
Q 800 1050 1012 775 
Q 1225 500 1525 500 
Q 1900 500 2087 775 
Q 2275 1050 2275 1525 
z
" transform="scale(0.015625)"/>
       <path id="SimHei-63" d="M 2850 1250 
Q 2850 725 2487 400 
Q 2125 75 1575 75 
Q 1025 75 625 462 
Q 225 850 225 1525 
Q 225 2200 625 2587 
Q 1025 2975 1575 2975 
Q 2125 2975 2450 2687 
Q 2775 2400 2775 2000 
L 2225 2000 
Q 2200 2300 2012 2412 
Q 1825 2525 1575 2525 
Q 1275 2525 1025 2287 
Q 775 2050 775 1525 
Q 775 1000 1025 762 
Q 1275 525 1575 525 
Q 1900 525 2100 700 
Q 2300 875 2300 1250 
L 2850 1250 
z
" transform="scale(0.015625)"/>
       <path id="SimHei-74" d="M 2750 200 
Q 2625 150 2462 112 
Q 2300 75 2025 75 
Q 1575 75 1300 325 
Q 1025 575 1025 1025 
L 1025 2525 
L 175 2525 
L 175 2925 
L 1025 2925 
L 1025 3900 
L 1525 3900 
L 1525 2925 
L 2550 2925 
L 2550 2525 
L 1525 2525 
L 1525 1000 
Q 1525 800 1625 662 
Q 1725 525 2000 525 
Q 2275 525 2450 575 
Q 2625 625 2750 700 
L 2750 200 
z
" transform="scale(0.015625)"/>
       <path id="SimHei-6f" d="M 2925 1525 
Q 2925 875 2525 475 
Q 2125 75 1575 75 
Q 1025 75 625 475 
Q 225 875 225 1525 
Q 225 2175 625 2575 
Q 1025 2975 1575 2975 
Q 2125 2975 2525 2575 
Q 2925 2175 2925 1525 
z
M 2375 1525 
Q 2375 2025 2125 2275 
Q 1875 2525 1575 2525 
Q 1275 2525 1025 2275 
Q 775 2025 775 1525 
Q 775 1025 1025 775 
Q 1275 525 1575 525 
Q 1875 525 2125 775 
Q 2375 1025 2375 1525 
z
" transform="scale(0.015625)"/>
       <path id="SimHei-64" d="M 2750 125 
L 2250 125 
L 2250 500 
Q 2100 275 1900 175 
Q 1700 75 1425 75 
Q 925 75 575 437 
Q 225 800 225 1525 
Q 225 2250 575 2625 
Q 925 3000 1425 3000 
Q 1700 3000 1900 2887 
Q 2100 2775 2250 2550 
L 2250 4400 
L 2750 4400 
L 2750 125 
z
M 2250 1525 
Q 2250 2000 2037 2275 
Q 1825 2550 1525 2550 
Q 1150 2550 962 2275 
Q 775 2000 775 1525 
Q 775 1050 962 787 
Q 1150 525 1525 525 
Q 1825 525 2037 787 
Q 2250 1050 2250 1525 
z
" transform="scale(0.015625)"/>
      </defs>
      <use xlink:href="#SimHei-6d"/>
      <use xlink:href="#SimHei-65" x="50"/>
      <use xlink:href="#SimHei-61" x="100"/>
      <use xlink:href="#SimHei-6e" x="150"/>
      <use xlink:href="#SimHei-28" x="200"/>
      <use xlink:href="#SimHei-7c" x="250"/>
      <use xlink:href="#SimHei-53" x="300"/>
      <use xlink:href="#SimHei-48" x="350"/>
      <use xlink:href="#SimHei-41" x="400"/>
      <use xlink:href="#SimHei-50" x="450"/>
      <use xlink:href="#SimHei-20" x="500"/>
      <use xlink:href="#SimHei-76" x="550"/>
      <use xlink:href="#SimHei-61" x="600"/>
      <use xlink:href="#SimHei-6c" x="650"/>
      <use xlink:href="#SimHei-75" x="700"/>
      <use xlink:href="#SimHei-65" x="750"/>
      <use xlink:href="#SimHei-7c" x="800"/>
      <use xlink:href="#SimHei-29" x="850"/>
      <use xlink:href="#SimHei-20" x="900"/>
      <use xlink:href="#SimHei-28" x="950"/>
      <use xlink:href="#SimHei-61" x="1000"/>
      <use xlink:href="#SimHei-76" x="1050"/>
      <use xlink:href="#SimHei-65" x="1100"/>
      <use xlink:href="#SimHei-72" x="1150"/>
      <use xlink:href="#SimHei-61" x="1200"/>
      <use xlink:href="#SimHei-67" x="1250"/>
      <use xlink:href="#SimHei-65" x="1300"/>
      <use xlink:href="#SimHei-20" x="1350"/>
      <use xlink:href="#SimHei-69" x="1400"/>
      <use xlink:href="#SimHei-6d" x="1450"/>
      <use xlink:href="#SimHei-70" x="1500"/>
      <use xlink:href="#SimHei-61" x="1550"/>
      <use xlink:href="#SimHei-63" x="1600"/>
      <use xlink:href="#SimHei-74" x="1650"/>
      <use xlink:href="#SimHei-20" x="1700"/>
      <use xlink:href="#SimHei-6f" x="1750"/>
      <use xlink:href="#SimHei-6e" x="1800"/>
      <use xlink:href="#SimHei-20" x="1850"/>
      <use xlink:href="#SimHei-6d" x="1900"/>
      <use xlink:href="#SimHei-6f" x="1950"/>
      <use xlink:href="#SimHei-64" x="2000"/>
      <use xlink:href="#SimHei-65" x="2050"/>
      <use xlink:href="#SimHei-6c" x="2100"/>
      <use xlink:href="#SimHei-20" x="2150"/>
      <use xlink:href="#SimHei-6f" x="2200"/>
      <use xlink:href="#SimHei-75" x="2250"/>
      <use xlink:href="#SimHei-74" x="2300"/>
      <use xlink:href="#SimHei-70" x="2350"/>
      <use xlink:href="#SimHei-75" x="2400"/>
      <use xlink:href="#SimHei-74" x="2450"/>
      <use xlink:href="#SimHei-20" x="2500"/>
      <use xlink:href="#SimHei-6d" x="2550"/>
      <use xlink:href="#SimHei-61" x="2600"/>
      <use xlink:href="#SimHei-67" x="2650"/>
      <use xlink:href="#SimHei-6e" x="2700"/>
      <use xlink:href="#SimHei-69" x="2750"/>
      <use xlink:href="#SimHei-74" x="2800"/>
      <use xlink:href="#SimHei-75" x="2850"/>
      <use xlink:href="#SimHei-64" x="2900"/>
      <use xlink:href="#SimHei-65" x="2950"/>
      <use xlink:href="#SimHei-29" x="3000"/>
     </g>
    </g>
   </g>
   <g id="matplotlib.axis_2">
    <g id="ytick_1">
     <g id="text_9">
      <!-- 可充电储能装置电流 -->
      <g style="fill: #333333" transform="translate(153 366.176183) scale(0.13 -0.13)">
       <defs>
        <path id="SimHei-53ef" d="M 3600 3500 
Q 3575 3175 3575 2775 
L 3575 1550 
Q 3575 1125 3600 825 
L 3075 825 
L 3075 1275 
L 1650 1275 
L 1650 600 
L 1150 600 
Q 1175 775 1175 1175 
L 1175 2775 
Q 1175 3175 1150 3500 
L 3600 3500 
z
M 5200 4675 
Q 5600 4675 6050 4700 
L 6050 4225 
Q 5650 4250 5225 4250 
L 5075 4250 
L 5075 125 
Q 5075 -325 4812 -462 
Q 4550 -600 3750 -675 
Q 3700 -350 3550 -75 
Q 4075 -100 4300 -50 
Q 4525 0 4525 225 
L 4525 4250 
L 1525 4250 
Q 875 4250 350 4225 
L 350 4700 
Q 875 4675 1500 4675 
L 5200 4675 
z
M 3075 1700 
L 3075 3075 
L 1650 3075 
L 1650 1700 
L 3075 1700 
z
" transform="scale(0.015625)"/>
        <path id="SimHei-5145" d="M 3325 5175 
Q 3425 4825 3600 4300 
L 4900 4300 
Q 5425 4300 5775 4325 
L 5775 3825 
Q 5525 3850 4925 3850 
L 2675 3850 
Q 2850 3700 3100 3550 
Q 2775 3400 1875 2675 
L 4475 2750 
Q 4275 2975 3900 3275 
Q 4150 3450 4275 3600 
Q 5250 2775 5625 2350 
Q 5400 2200 5200 1975 
Q 5000 2225 4800 2425 
Q 4475 2400 4100 2375 
L 4100 325 
Q 4100 0 4425 0 
L 5125 0 
Q 5325 0 5375 175 
Q 5425 350 5475 800 
Q 5850 625 6075 600 
Q 5875 -250 5700 -350 
Q 5525 -450 5275 -450 
L 4225 -450 
Q 3650 -450 3650 75 
L 3650 2325 
L 2650 2250 
Q 2675 -75 800 -650 
Q 650 -375 400 -225 
Q 2225 275 2175 2200 
Q 1550 2150 1175 2050 
Q 1100 2450 1025 2725 
Q 1575 2875 1900 3200 
Q 2225 3525 2475 3850 
L 1450 3850 
Q 1025 3850 575 3825 
L 575 4325 
Q 1025 4300 1450 4300 
L 3000 4300 
Q 2875 4725 2750 5025 
Q 3075 5100 3325 5175 
z
" transform="scale(0.015625)"/>
        <path id="SimHei-7535" d="M 6150 325 
Q 5975 -250 5825 -412 
Q 5675 -575 5325 -575 
L 3375 -575 
Q 2700 -600 2675 100 
L 2675 975 
L 1225 975 
L 1225 500 
L 650 500 
Q 675 750 675 2225 
Q 675 3700 650 4150 
L 2675 4150 
Q 2675 4825 2650 5200 
L 3200 5200 
Q 3175 4875 3175 4150 
L 5200 4150 
Q 5175 3775 5175 2600 
Q 5175 1450 5200 975 
L 3175 975 
L 3175 300 
Q 3175 -150 3650 -150 
L 4975 -150 
Q 5375 -150 5450 25 
Q 5525 200 5575 575 
Q 5825 400 6150 325 
z
M 4675 1400 
L 4675 2400 
L 3175 2400 
L 3175 1400 
L 4675 1400 
z
M 2675 1400 
L 2675 2400 
L 1225 2400 
L 1225 1400 
L 2675 1400 
z
M 4675 2800 
L 4675 3725 
L 3175 3725 
L 3175 2800 
L 4675 2800 
z
M 2675 2800 
L 2675 3725 
L 1225 3725 
L 1225 2800 
L 2675 2800 
z
" transform="scale(0.015625)"/>
        <path id="SimHei-50a8" d="M 4125 4425 
Q 4125 4875 4100 5175 
L 4575 5175 
Q 4550 4900 4550 4425 
Q 4775 4425 5075 4450 
L 5075 4025 
Q 4800 4050 4550 4050 
L 4550 3150 
L 4725 3150 
Q 5275 4100 5400 4625 
L 5950 4375 
Q 5775 4250 5575 3825 
Q 5375 3400 5225 3150 
L 5500 3150 
Q 5850 3150 6150 3175 
L 6150 2725 
Q 5850 2775 5425 2775 
L 5000 2775 
Q 4800 2525 4575 2225 
L 5700 2225 
Q 5675 1850 5675 825 
Q 5675 -200 5725 -475 
L 5250 -475 
L 5250 -125 
L 4075 -125 
L 4075 -575 
L 3600 -575 
Q 3650 -275 3650 1450 
Q 3450 1300 3225 1100 
Q 3050 1325 2875 1500 
Q 3275 1675 3650 1950 
Q 3625 2125 3600 2225 
L 3975 2225 
Q 4325 2550 4475 2775 
L 3850 2775 
Q 3375 2775 3075 2725 
L 3075 3175 
Q 3375 3150 3725 3150 
L 4125 3150 
L 4125 4050 
Q 3725 4050 3400 4025 
L 3400 4450 
Q 3725 4425 4125 4425 
z
M 1875 4925 
Q 1700 4725 1425 3825 
L 1425 475 
Q 1425 -150 1450 -575 
L 950 -575 
Q 1000 -75 1000 425 
L 1000 3050 
Q 825 2725 525 2250 
Q 375 2500 200 2625 
Q 375 2875 762 3612 
Q 1150 4350 1275 5150 
Q 1525 5025 1875 4925 
z
M 2700 3150 
Q 2650 2850 2650 2250 
L 2650 700 
Q 2875 850 3050 1025 
Q 3100 775 3200 575 
Q 2550 125 2350 -100 
Q 2200 125 2050 275 
Q 2250 450 2225 775 
L 2225 2750 
Q 1950 2750 1700 2725 
L 1700 3175 
Q 2025 3150 2300 3150 
L 2700 3150 
z
M 5250 250 
L 5250 900 
L 4075 900 
L 4075 250 
L 5250 250 
z
M 5250 1275 
L 5250 1850 
L 4075 1850 
L 4075 1275 
L 5250 1275 
z
M 2600 4750 
Q 2675 4525 2775 4237 
Q 2875 3950 2950 3700 
Q 2725 3625 2500 3525 
Q 2425 3900 2175 4600 
Q 2350 4650 2600 4750 
z
" transform="scale(0.015625)"/>
        <path id="SimHei-80fd" d="M 2025 -150 
Q 2475 -150 2525 -62 
Q 2575 25 2575 200 
L 2575 550 
L 1225 550 
L 1225 -625 
L 750 -625 
Q 775 -125 775 275 
L 775 1950 
Q 775 2400 750 2750 
L 3050 2750 
Q 3025 2375 3025 1925 
L 3025 -175 
Q 3000 -450 2800 -525 
Q 2600 -600 2225 -650 
Q 2175 -425 2025 -150 
z
M 5800 1625 
Q 5700 1600 5212 1375 
Q 4725 1150 4100 950 
L 4100 250 
Q 4100 -50 4375 -50 
L 5275 -50 
Q 5475 0 5550 575 
Q 5750 475 6050 375 
Q 5875 -425 5475 -425 
L 4125 -425 
Q 3650 -425 3650 50 
L 3650 1675 
Q 3650 2050 3625 2350 
L 4125 2350 
Q 4100 2050 4100 1700 
L 4100 1375 
Q 4350 1450 4762 1650 
Q 5175 1850 5425 2075 
Q 5650 1775 5800 1625 
z
M 4100 4100 
Q 4450 4250 4775 4412 
Q 5100 4575 5425 4825 
Q 5625 4575 5775 4400 
Q 5625 4350 5137 4112 
Q 4650 3875 4100 3700 
L 4100 3325 
Q 4100 3025 4450 3025 
L 5175 3025 
Q 5425 3025 5500 3675 
Q 5750 3550 6000 3450 
Q 5825 2650 5375 2650 
L 4250 2650 
Q 3650 2650 3650 3200 
L 3650 4475 
Q 3650 4775 3625 5125 
L 4125 5125 
Q 4100 4950 4100 4400 
L 4100 4100 
z
M 3025 3075 
Q 2950 3200 2825 3350 
Q 2000 3300 1450 3250 
Q 900 3200 625 3125 
Q 550 3425 450 3650 
Q 625 3725 987 4187 
Q 1350 4650 1575 5175 
Q 1700 5075 1850 5025 
Q 2000 4975 2175 4900 
Q 1975 4750 1762 4450 
Q 1550 4150 1075 3600 
Q 2125 3650 2625 3675 
Q 2325 4075 2200 4200 
Q 2375 4300 2600 4475 
Q 2800 4200 2987 3975 
Q 3175 3750 3475 3400 
Q 3200 3200 3025 3075 
z
M 2575 950 
L 2575 1475 
L 1225 1475 
L 1225 950 
L 2575 950 
z
M 2575 1875 
L 2575 2350 
L 1225 2350 
L 1225 1875 
L 2575 1875 
z
" transform="scale(0.015625)"/>
        <path id="SimHei-88c5" d="M 1900 -175 
Q 2050 -50 2075 175 
L 2075 600 
Q 1450 225 825 -50 
Q 700 150 450 350 
Q 825 425 1300 637 
Q 1775 850 2125 1087 
Q 2475 1325 2675 1550 
L 1450 1550 
Q 1050 1550 625 1525 
L 625 1975 
Q 1050 1925 1450 1925 
L 3150 1925 
Q 3000 2275 2775 2525 
Q 2975 2625 3150 2750 
Q 3400 2425 3575 2125 
Q 3350 2025 3250 1925 
L 5100 1925 
Q 5475 1925 5950 1950 
L 5950 1525 
Q 5500 1550 5100 1550 
L 3450 1550 
Q 3900 875 4250 625 
Q 4500 800 4712 987 
Q 4925 1175 5075 1375 
Q 5250 1125 5475 950 
Q 5225 875 4500 350 
Q 4700 225 5037 112 
Q 5375 0 5975 -50 
Q 5750 -300 5700 -525 
Q 5125 -400 4712 -225 
Q 4300 -50 3937 300 
Q 3575 650 3100 1400 
Q 2875 1175 2500 875 
L 2500 75 
Q 2900 225 3275 450 
Q 3300 250 3400 50 
Q 2950 -175 2712 -287 
Q 2475 -400 2175 -575 
Q 2025 -350 1900 -175 
z
M 4075 4400 
Q 4075 4825 4050 5150 
L 4550 5150 
Q 4525 5000 4525 4400 
L 5175 4400 
Q 5400 4400 5775 4425 
L 5775 4000 
Q 5400 4025 5175 4025 
L 4525 4025 
L 4525 3250 
L 5000 3250 
Q 5175 3250 5550 3275 
L 5550 2850 
Q 5175 2875 5000 2875 
L 3850 2875 
Q 3550 2875 3225 2850 
L 3225 3275 
Q 3475 3250 3800 3250 
L 4075 3250 
L 4075 4025 
L 3725 4025 
Q 3400 4025 2975 4000 
L 2975 4425 
Q 3400 4400 3725 4400 
L 4075 4400 
z
M 525 2950 
Q 1000 3125 1450 3312 
Q 1900 3500 2200 3650 
L 2200 4375 
Q 2200 4750 2175 5075 
L 2650 5075 
Q 2625 4800 2625 4375 
L 2625 3200 
Q 2625 2875 2650 2475 
L 2175 2475 
Q 2200 2900 2200 3225 
Q 1875 3100 1487 2900 
Q 1100 2700 800 2550 
Q 700 2775 525 2950 
z
M 1475 3725 
Q 1150 4100 750 4375 
Q 950 4550 1025 4700 
Q 1400 4450 1800 4075 
Q 1625 3900 1475 3725 
z
" transform="scale(0.015625)"/>
        <path id="SimHei-7f6e" d="M 3600 3650 
Q 3525 3475 3475 3325 
L 4750 3325 
Q 5100 3325 5675 3350 
L 5675 2925 
Q 5125 2950 4750 2950 
L 3400 2950 
L 3350 2600 
L 5000 2600 
Q 4975 1975 4975 1550 
L 4975 -50 
Q 5575 -50 6025 -25 
L 6025 -400 
Q 5475 -375 5000 -375 
L 1400 -375 
Q 900 -375 400 -400 
L 400 -25 
Q 925 -50 1450 -50 
L 1450 1550 
Q 1450 1975 1425 2600 
L 2875 2600 
L 2925 2950 
L 1600 2950 
Q 1150 2950 650 2925 
L 650 3350 
Q 1150 3325 1600 3325 
L 2975 3325 
Q 3000 3525 3000 3700 
Q 3250 3650 3600 3650 
z
M 5575 4950 
Q 5550 4600 5550 4300 
Q 5550 4000 5575 3775 
L 900 3775 
Q 925 4075 925 4325 
Q 925 4600 900 4950 
L 5575 4950 
z
M 4575 1900 
L 4575 2250 
L 1850 2250 
L 1850 1900 
L 4575 1900 
z
M 4575 1250 
L 4575 1575 
L 1850 1575 
L 1850 1250 
L 4575 1250 
z
M 4575 -50 
L 4575 275 
L 1850 275 
L 1850 -50 
L 4575 -50 
z
M 4575 625 
L 4575 875 
L 1850 875 
L 1850 625 
L 4575 625 
z
M 3700 4100 
L 3700 4625 
L 2700 4625 
L 2700 4100 
L 3700 4100 
z
M 5075 4100 
L 5075 4625 
L 4100 4625 
L 4100 4100 
L 5075 4100 
z
M 2350 4100 
L 2350 4625 
L 1400 4625 
L 1400 4100 
L 2350 4100 
z
" transform="scale(0.015625)"/>
        <path id="SimHei-6d41" d="M 3725 5250 
Q 3975 4875 4225 4450 
L 5025 4450 
Q 5425 4450 5925 4475 
L 5925 4025 
Q 5325 4050 5025 4050 
L 3425 4050 
Q 3625 3900 3775 3825 
Q 3650 3725 3450 3475 
Q 3250 3225 2850 2775 
Q 3750 2800 4775 2850 
Q 4525 3150 4275 3375 
Q 4525 3550 4625 3675 
Q 5325 2950 5800 2375 
Q 5575 2200 5400 2050 
Q 5200 2325 5050 2525 
Q 4500 2475 3562 2412 
Q 2625 2350 2300 2250 
Q 2225 2475 2075 2675 
Q 2325 2750 2675 3175 
Q 3025 3600 3250 4050 
L 2975 4050 
Q 2525 4050 2050 4000 
L 2050 4475 
Q 2525 4450 2975 4450 
L 3675 4450 
Q 3475 4800 3325 5000 
Q 3575 5125 3725 5250 
z
M 5025 2025 
Q 5000 1700 5000 1375 
L 5000 150 
Q 5000 -75 5225 -75 
L 5475 -75 
Q 5675 -75 5700 500 
Q 5900 350 6200 275 
Q 6050 -350 5887 -425 
Q 5725 -500 5500 -500 
L 5025 -500 
Q 4550 -500 4550 -25 
L 4550 1425 
Q 4550 1725 4525 2025 
L 5025 2025 
z
M 3125 1975 
Q 3075 1725 3037 1212 
Q 3000 700 2812 225 
Q 2625 -250 1950 -700 
Q 1775 -475 1575 -325 
Q 2075 -100 2312 287 
Q 2550 675 2575 1162 
Q 2600 1650 2575 2025 
Q 2825 1975 3125 1975 
z
M 4000 2025 
Q 3975 1875 3975 1400 
L 3975 300 
Q 3975 -25 4000 -500 
L 3475 -500 
Q 3500 -50 3500 300 
L 3500 1400 
Q 3500 1825 3475 2025 
L 4000 2025 
z
M 1900 1625 
Q 1650 1200 1350 562 
Q 1050 -75 850 -425 
Q 625 -250 325 -125 
Q 575 175 900 750 
Q 1225 1325 1450 1950 
Q 1650 1775 1900 1625 
z
M 625 3450 
Q 1200 3100 1725 2725 
Q 1525 2525 1375 2275 
Q 925 2700 325 3000 
Q 475 3200 625 3450 
z
M 925 4975 
Q 1500 4625 1900 4300 
Q 1725 4075 1550 3875 
Q 1150 4275 625 4575 
Q 800 4800 925 4975 
z
" transform="scale(0.015625)"/>
       </defs>
       <use xlink:href="#SimHei-53ef"/>
       <use xlink:href="#SimHei-5145" x="100"/>
       <use xlink:href="#SimHei-7535" x="200"/>
       <use xlink:href="#SimHei-50a8" x="300"/>
       <use xlink:href="#SimHei-80fd" x="400"/>
       <use xlink:href="#SimHei-88c5" x="500"/>
       <use xlink:href="#SimHei-7f6e" x="600"/>
       <use xlink:href="#SimHei-7535" x="700"/>
       <use xlink:href="#SimHei-6d41" x="800"/>
      </g>
     </g>
    </g>
    <g id="ytick_2">
     <g id="text_10">
      <!-- 总电流 -->
      <g style="fill: #333333" transform="translate(231 339.241897) scale(0.13 -0.13)">
       <defs>
        <path id="SimHei-603b" d="M 4550 4850 
Q 4375 4650 4025 3900 
L 5100 3900 
Q 5075 3425 5075 2950 
Q 5075 2500 5100 2025 
L 1175 2025 
Q 1200 2550 1200 3000 
Q 1200 3475 1175 3900 
L 2175 3900 
Q 1900 4350 1525 4750 
Q 1700 4850 1875 5050 
Q 2350 4550 2575 4200 
Q 2400 4075 2250 3900 
L 3550 3900 
Q 3875 4700 3950 5100 
Q 4300 4925 4550 4850 
z
M 4600 2450 
L 4600 3525 
L 1650 3525 
L 1650 2450 
L 4600 2450 
z
M 2275 1450 
Q 2250 1050 2250 675 
Q 2250 300 2262 112 
Q 2275 -75 2675 -75 
L 4000 -75 
Q 4325 -75 4400 550 
Q 4650 400 4925 325 
Q 4775 -200 4562 -337 
Q 4350 -475 4000 -450 
L 2325 -450 
Q 1850 -450 1825 -175 
Q 1800 100 1800 525 
Q 1800 975 1775 1450 
L 2275 1450 
z
M 1350 1325 
Q 1050 300 825 -250 
Q 625 -150 375 -50 
Q 675 525 900 1500 
Q 1100 1425 1350 1325 
z
M 4950 1575 
Q 5700 825 6000 450 
Q 5825 275 5625 100 
Q 5375 450 4600 1275 
Q 4750 1375 4950 1575 
z
M 3350 575 
Q 2975 1175 2675 1500 
Q 2825 1650 3000 1800 
Q 3225 1575 3750 875 
Q 3525 775 3350 575 
z
" transform="scale(0.015625)"/>
       </defs>
       <use xlink:href="#SimHei-603b"/>
       <use xlink:href="#SimHei-7535" x="100"/>
       <use xlink:href="#SimHei-6d41" x="200"/>
      </g>
     </g>
    </g>
    <g id="ytick_3">
     <g id="text_11">
      <!-- 电池单体电压最高值 -->
      <g style="fill: #333333" transform="translate(153 312.25683) scale(0.13 -0.13)">
       <defs>
        <path id="SimHei-6c60" d="M 2525 3425 
Q 2525 3850 2500 4250 
L 3025 4250 
Q 3000 3750 3000 3450 
L 3000 2975 
L 3800 3225 
L 3800 4250 
Q 3800 4675 3775 5075 
L 4275 5075 
Q 4250 4725 4250 4225 
L 4250 3375 
L 5700 3850 
L 5575 1750 
Q 5550 1350 5375 1237 
Q 5200 1125 4725 1025 
Q 4675 1275 4475 1550 
Q 4850 1575 4975 1625 
Q 5100 1675 5125 2025 
L 5175 3200 
L 4250 2925 
L 4250 1425 
Q 4250 1125 4275 600 
L 3775 600 
Q 3800 1075 3800 1425 
L 3800 2775 
L 3000 2525 
L 3000 400 
Q 3000 -25 3450 25 
L 5125 25 
Q 5375 25 5462 175 
Q 5550 325 5625 850 
Q 5850 675 6175 575 
Q 6050 25 5900 -200 
Q 5750 -425 5225 -425 
L 3200 -425 
Q 2500 -425 2525 325 
L 2525 2350 
L 1975 2150 
L 1850 2625 
L 2525 2825 
L 2525 3425 
z
M 1825 1525 
Q 1675 1300 1375 600 
Q 1075 -100 875 -525 
Q 550 -350 300 -225 
Q 550 75 875 750 
Q 1200 1425 1300 1800 
Q 1525 1650 1825 1525 
z
M 550 3400 
Q 1000 3175 1600 2775 
Q 1425 2575 1275 2300 
Q 825 2675 250 2975 
Q 400 3175 550 3400 
z
M 1050 4950 
Q 1500 4625 2000 4200 
Q 1800 4000 1625 3775 
Q 1200 4200 725 4575 
Q 875 4750 1050 4950 
z
" transform="scale(0.015625)"/>
        <path id="SimHei-5355" d="M 5275 4075 
L 5275 1525 
L 3400 1525 
L 3400 925 
L 5050 925 
Q 5600 925 6000 950 
L 6000 450 
Q 5575 475 5050 475 
L 3400 475 
Q 3400 -300 3425 -625 
L 2875 -625 
Q 2925 -300 2925 475 
L 1300 475 
Q 700 475 425 450 
L 425 950 
Q 675 925 1250 925 
L 2925 925 
L 2925 1525 
L 1125 1525 
Q 1150 1950 1150 2750 
Q 1150 3550 1125 4075 
L 3600 4075 
Q 3875 4650 4075 5250 
Q 4325 5125 4650 4975 
Q 4550 4850 4400 4587 
Q 4250 4325 4100 4075 
L 5275 4075 
z
M 4775 1925 
L 4775 2600 
L 3400 2600 
L 3400 1925 
L 4775 1925 
z
M 4775 3000 
L 4775 3650 
L 3400 3650 
L 3400 3000 
L 4775 3000 
z
M 2925 1925 
L 2925 2600 
L 1625 2600 
L 1625 1925 
L 2925 1925 
z
M 2925 3000 
L 2925 3650 
L 1625 3650 
L 1625 3000 
L 2925 3000 
z
M 2100 5225 
Q 2350 4950 2675 4350 
Q 2400 4225 2225 4125 
Q 1975 4675 1725 4975 
Q 1900 5075 2100 5225 
z
" transform="scale(0.015625)"/>
        <path id="SimHei-4f53" d="M 3650 3850 
Q 3650 4750 3625 5125 
L 4125 5125 
Q 4100 4775 4100 3850 
L 5200 3850 
Q 5700 3850 5925 3875 
L 5925 3425 
Q 5700 3450 5200 3450 
L 4525 3450 
Q 4925 1850 6200 1200 
Q 5925 1050 5775 775 
Q 4425 1800 4100 3425 
L 4100 1025 
Q 4825 1025 5050 1050 
L 5050 600 
Q 4825 625 4100 625 
Q 4100 75 4125 -575 
L 3625 -575 
Q 3650 100 3650 625 
Q 3200 625 2700 600 
L 2700 1050 
Q 3200 1025 3650 1025 
L 3650 3450 
Q 3375 1800 2000 650 
Q 1850 875 1550 1025 
Q 2850 1875 3200 3450 
L 2675 3450 
Q 2275 3450 1975 3425 
L 1975 3875 
Q 2275 3850 2675 3850 
L 3650 3850 
z
M 2000 4900 
Q 1825 4675 1525 3775 
L 1525 575 
Q 1525 -200 1550 -550 
L 1050 -550 
Q 1075 -225 1075 550 
L 1075 2900 
Q 950 2625 575 2050 
Q 450 2275 225 2425 
Q 525 2725 925 3612 
Q 1325 4500 1425 5125 
Q 1700 5000 2000 4900 
z
" transform="scale(0.015625)"/>
        <path id="SimHei-538b" d="M 3300 2725 
L 3300 3475 
Q 3300 3875 3275 4150 
L 3850 4150 
Q 3800 3950 3800 3450 
L 3800 2725 
L 4700 2725 
Q 5225 2725 5475 2750 
L 5475 2200 
Q 5225 2225 4700 2225 
L 3800 2225 
L 3800 175 
L 4900 175 
Q 5525 175 5850 200 
L 5850 -325 
Q 5525 -300 4925 -300 
L 2375 -300 
Q 1725 -300 1450 -325 
L 1450 200 
Q 1825 175 2375 175 
L 3300 175 
L 3300 2225 
L 2725 2225 
Q 2075 2225 1850 2200 
L 1850 2750 
Q 2250 2725 2725 2725 
L 3300 2725 
z
M 4900 4950 
Q 5450 4950 5750 4975 
L 5750 4475 
Q 5500 4500 4900 4500 
L 1450 4500 
L 1450 2275 
Q 1450 1425 1262 725 
Q 1075 25 725 -650 
Q 525 -450 200 -325 
Q 625 300 775 862 
Q 925 1425 950 2125 
L 950 4000 
Q 925 4525 900 4950 
L 4900 4950 
z
M 4625 1850 
Q 5025 1325 5275 925 
Q 5000 775 4775 625 
Q 4525 1150 4225 1575 
Q 4450 1700 4625 1850 
z
" transform="scale(0.015625)"/>
        <path id="SimHei-6700" d="M 475 275 
Q 675 300 1100 350 
L 1100 2450 
Q 775 2450 425 2425 
L 425 2850 
Q 775 2825 1125 2825 
L 5025 2825 
Q 5475 2825 5900 2850 
L 5900 2425 
Q 5475 2450 5025 2450 
L 3050 2450 
L 3050 675 
L 3400 775 
Q 3400 550 3425 400 
Q 3225 350 3050 325 
Q 3050 -125 3075 -550 
L 2600 -550 
Q 2625 -125 2625 250 
Q 2350 200 1812 87 
Q 1275 -25 650 -175 
Q 575 100 475 275 
z
M 5100 4925 
Q 5075 4600 5075 4325 
L 5075 3875 
Q 5075 3600 5100 3250 
L 1275 3250 
Q 1300 3600 1300 3875 
L 1300 4325 
Q 1300 4600 1275 4925 
L 5100 4925 
z
M 3300 2050 
Q 3750 2025 4125 2025 
L 5375 2025 
Q 5100 975 4725 400 
Q 5350 0 5925 -100 
Q 5700 -275 5650 -500 
Q 5025 -300 4475 150 
Q 4150 -200 3600 -575 
Q 3500 -425 3250 -275 
Q 3775 -100 4150 350 
Q 3725 775 3500 1675 
L 3300 1675 
L 3300 2050 
z
M 4600 4250 
L 4600 4600 
L 1750 4600 
L 1750 4250 
L 4600 4250 
z
M 4600 3575 
L 4600 3900 
L 1750 3900 
L 1750 3575 
L 4600 3575 
z
M 3900 1675 
Q 4000 1075 4400 625 
Q 4700 1050 4850 1675 
L 3900 1675 
z
M 2625 1250 
L 2625 1675 
L 1525 1675 
L 1525 1250 
L 2625 1250 
z
M 2625 575 
L 2625 925 
L 1525 925 
L 1525 425 
L 2625 575 
z
M 2625 2025 
L 2625 2450 
L 1525 2450 
L 1525 2025 
L 2625 2025 
z
" transform="scale(0.015625)"/>
        <path id="SimHei-9ad8" d="M 5825 -25 
Q 5850 -400 5550 -500 
Q 5250 -600 4975 -625 
Q 4875 -325 4725 -100 
Q 4975 -100 5175 -87 
Q 5375 -75 5350 250 
L 5350 1825 
L 1100 1825 
L 1100 -575 
L 600 -575 
Q 625 -225 625 850 
Q 625 1950 600 2200 
L 5850 2200 
Q 5825 1850 5825 1425 
L 5825 -25 
z
M 4925 3800 
Q 4900 3475 4900 3175 
Q 4900 2900 4925 2600 
L 1400 2600 
Q 1425 2825 1425 3175 
Q 1425 3525 1400 3800 
L 4925 3800 
z
M 4500 1400 
Q 4475 1125 4475 800 
Q 4475 500 4500 200 
L 1950 200 
Q 2000 500 2000 800 
Q 2000 1125 1950 1400 
L 4500 1400 
z
M 425 4600 
Q 750 4575 1125 4575 
L 2925 4575 
Q 2850 4875 2750 5100 
Q 3050 5125 3350 5200 
Q 3400 4950 3525 4575 
L 5250 4575 
Q 5600 4575 5975 4600 
L 5975 4150 
Q 5600 4175 5050 4175 
L 1150 4175 
Q 750 4175 425 4150 
L 425 4600 
z
M 4450 2975 
L 4450 3425 
L 1900 3425 
L 1900 2975 
L 4450 2975 
z
M 4025 550 
L 4025 1050 
L 2400 1050 
L 2400 550 
L 4025 550 
z
" transform="scale(0.015625)"/>
        <path id="SimHei-503c" d="M 3675 4450 
L 3675 5100 
Q 3975 5075 4350 5050 
Q 4225 4875 4200 4450 
L 5125 4450 
Q 5550 4450 5875 4475 
L 5875 4025 
Q 5525 4050 5125 4050 
L 4175 4050 
L 4125 3500 
L 5400 3500 
Q 5375 3200 5375 2700 
L 5375 150 
Q 5875 150 6100 175 
L 6100 -275 
Q 5775 -250 5200 -250 
L 2850 -250 
Q 2275 -250 1900 -275 
L 1900 175 
Q 2125 150 2600 150 
L 2600 2700 
Q 2600 3175 2575 3500 
L 3600 3500 
L 3650 4050 
L 3200 4050 
Q 2575 4050 2225 4025 
L 2225 4475 
Q 2550 4450 3200 4450 
L 3675 4450 
z
M 2225 4900 
Q 2025 4675 1650 3750 
L 1650 450 
Q 1650 -75 1675 -550 
L 1150 -550 
Q 1175 -125 1175 375 
L 1175 2950 
Q 875 2450 625 2150 
Q 425 2425 250 2575 
Q 500 2825 937 3537 
Q 1375 4250 1625 5150 
Q 1975 4975 2225 4900 
z
M 4925 2650 
L 4925 3150 
L 3075 3150 
L 3075 2650 
L 4925 2650 
z
M 4925 150 
L 4925 625 
L 3075 625 
L 3075 150 
L 4925 150 
z
M 4925 1000 
L 4925 1450 
L 3075 1450 
L 3075 1000 
L 4925 1000 
z
M 4925 1825 
L 4925 2275 
L 3075 2275 
L 3075 1825 
L 4925 1825 
z
" transform="scale(0.015625)"/>
       </defs>
       <use xlink:href="#SimHei-7535"/>
       <use xlink:href="#SimHei-6c60" x="100"/>
       <use xlink:href="#SimHei-5355" x="200"/>
       <use xlink:href="#SimHei-4f53" x="300"/>
       <use xlink:href="#SimHei-7535" x="400"/>
       <use xlink:href="#SimHei-538b" x="500"/>
       <use xlink:href="#SimHei-6700" x="600"/>
       <use xlink:href="#SimHei-9ad8" x="700"/>
       <use xlink:href="#SimHei-503c" x="800"/>
      </g>
     </g>
    </g>
    <g id="ytick_4">
     <g id="text_12">
      <!-- 可充电储能装置电压 -->
      <g style="fill: #333333" transform="translate(153 285.297154) scale(0.13 -0.13)">
       <use xlink:href="#SimHei-53ef"/>
       <use xlink:href="#SimHei-5145" x="100"/>
       <use xlink:href="#SimHei-7535" x="200"/>
       <use xlink:href="#SimHei-50a8" x="300"/>
       <use xlink:href="#SimHei-80fd" x="400"/>
       <use xlink:href="#SimHei-88c5" x="500"/>
       <use xlink:href="#SimHei-7f6e" x="600"/>
       <use xlink:href="#SimHei-7535" x="700"/>
       <use xlink:href="#SimHei-538b" x="800"/>
      </g>
     </g>
    </g>
    <g id="ytick_5">
     <g id="text_13">
      <!-- 单体电池电压 -->
      <g style="fill: #333333" transform="translate(192 258.388259) scale(0.13 -0.13)">
       <use xlink:href="#SimHei-5355"/>
       <use xlink:href="#SimHei-4f53" x="100"/>
       <use xlink:href="#SimHei-7535" x="200"/>
       <use xlink:href="#SimHei-6c60" x="300"/>
       <use xlink:href="#SimHei-7535" x="400"/>
       <use xlink:href="#SimHei-538b" x="500"/>
      </g>
     </g>
    </g>
    <g id="ytick_6">
     <g id="text_14">
      <!-- 可充电储能子系统各温度探针检测到的温度值 -->
      <g style="fill: #333333" transform="translate(10 231.530145) scale(0.13 -0.13)">
       <defs>
        <path id="SimHei-5b50" d="M 2075 25 
Q 2650 0 2800 62 
Q 2950 125 2950 375 
L 2950 2200 
L 1175 2200 
Q 825 2200 350 2175 
L 350 2625 
Q 825 2600 1175 2600 
L 2950 2600 
Q 2950 3000 2925 3500 
Q 3275 3650 3637 3875 
Q 4000 4100 4475 4400 
L 1925 4400 
Q 1400 4400 1000 4375 
L 1000 4825 
Q 1525 4800 1875 4800 
L 5400 4800 
L 5400 4350 
Q 5025 4200 4575 3950 
Q 4125 3700 3450 3250 
L 3450 2600 
L 5125 2600 
Q 5550 2600 6075 2650 
L 6075 2200 
Q 5550 2225 5125 2200 
L 3450 2200 
L 3450 200 
Q 3450 -300 3162 -400 
Q 2875 -500 2300 -550 
Q 2250 -275 2075 25 
z
" transform="scale(0.015625)"/>
        <path id="SimHei-7cfb" d="M 5300 5200 
Q 5450 4950 5725 4675 
Q 4975 4650 4437 4587 
Q 3900 4525 3125 4450 
Q 3250 4325 3475 4225 
Q 3150 4025 2837 3762 
Q 2525 3500 2225 3275 
L 3475 3275 
Q 4100 3700 4525 4050 
Q 4775 3850 5125 3700 
Q 4775 3550 4450 3375 
Q 4125 3200 3387 2737 
Q 2650 2275 2125 1975 
Q 3600 2050 4875 2100 
Q 4750 2225 4225 2625 
Q 4475 2725 4650 2875 
Q 4950 2650 5337 2312 
Q 5725 1975 6075 1650 
Q 5775 1475 5600 1325 
Q 5400 1575 5225 1725 
Q 4550 1700 3625 1650 
L 3625 150 
Q 3625 -325 3387 -412 
Q 3150 -500 2525 -600 
Q 2475 -300 2300 -25 
Q 2875 -25 3012 12 
Q 3150 50 3150 300 
L 3150 1650 
Q 1625 1625 1075 1525 
Q 1000 1775 900 2050 
Q 1450 2100 1875 2300 
Q 2300 2500 2900 2900 
Q 2325 2900 2037 2875 
Q 1750 2850 1400 2800 
Q 1325 3075 1250 3325 
Q 1675 3325 2100 3662 
Q 2525 4000 2750 4400 
Q 1350 4350 925 4300 
Q 850 4550 750 4750 
Q 2150 4750 3250 4850 
Q 4350 4950 5300 5200 
z
M 4625 1250 
Q 4925 1025 5325 737 
Q 5725 450 6000 175 
Q 5800 0 5600 -225 
Q 5275 125 4925 400 
Q 4575 675 4275 875 
Q 4500 1050 4625 1250 
z
M 2200 875 
Q 1900 725 1537 375 
Q 1175 25 800 -300 
Q 575 -75 375 25 
Q 1075 450 1675 1225 
Q 1900 1050 2200 875 
z
" transform="scale(0.015625)"/>
        <path id="SimHei-7edf" d="M 5150 4300 
Q 5525 4300 5950 4325 
L 5950 3875 
Q 5550 3900 5175 3900 
L 3775 3900 
Q 3975 3750 4250 3600 
Q 4050 3450 3837 3162 
Q 3625 2875 3225 2375 
Q 3800 2375 5025 2500 
Q 4925 2625 4625 2975 
Q 4850 3100 5025 3250 
Q 5450 2800 5950 2100 
Q 5700 1950 5525 1775 
Q 5375 1975 5275 2125 
Q 4925 2100 4825 2075 
L 4825 200 
Q 4825 -100 5075 -100 
L 5325 -100 
Q 5550 -100 5625 575 
Q 5850 400 6150 325 
Q 5925 -525 5525 -525 
L 4850 -525 
Q 4350 -525 4350 0 
L 4350 2025 
Q 4000 2000 3875 1975 
Q 3900 1050 3637 462 
Q 3375 -125 2625 -700 
Q 2500 -500 2175 -375 
Q 2575 -125 2850 175 
Q 3125 475 3275 850 
Q 3425 1225 3400 1925 
Q 3025 1900 2725 1825 
Q 2650 2200 2525 2475 
Q 2825 2500 3187 2975 
Q 3550 3450 3675 3900 
L 3275 3900 
Q 2950 3900 2475 3875 
L 2475 4325 
Q 2875 4300 3250 4300 
L 5150 4300 
z
M 1875 4825 
Q 1700 4600 1500 4250 
Q 1300 3900 900 3250 
Q 1375 3275 1650 3275 
Q 1850 3625 1975 3975 
Q 2250 3800 2550 3675 
Q 2375 3500 2075 3037 
Q 1775 2575 1225 1725 
Q 1950 1800 2500 1900 
Q 2375 1600 2375 1425 
Q 2150 1400 1587 1325 
Q 1025 1250 600 1125 
Q 525 1375 425 1625 
Q 700 1700 950 2075 
Q 1200 2450 1450 2900 
Q 1225 2875 925 2837 
Q 625 2800 425 2750 
Q 325 3000 200 3225 
Q 500 3300 862 4025 
Q 1225 4750 1275 5075 
Q 1575 4925 1875 4825 
z
M 2550 825 
Q 2525 575 2550 350 
Q 1975 200 1412 37 
Q 850 -125 550 -250 
Q 450 0 275 275 
Q 900 375 1450 500 
Q 2000 625 2550 825 
z
M 4100 5275 
Q 4375 4825 4500 4575 
Q 4325 4500 4025 4350 
Q 3825 4825 3650 5075 
Q 3950 5175 4100 5275 
z
" transform="scale(0.015625)"/>
        <path id="SimHei-5404" d="M 5100 4425 
Q 4850 4000 4525 3600 
Q 4200 3200 3675 2750 
Q 4050 2500 4750 2325 
Q 5450 2150 6050 2125 
Q 5825 1825 5775 1600 
Q 5050 1750 4412 1962 
Q 3775 2175 3300 2475 
Q 2750 2150 2000 1875 
Q 1250 1600 550 1425 
Q 475 1625 275 1850 
Q 900 1950 1662 2200 
Q 2425 2450 2950 2750 
Q 2525 3150 2100 3900 
Q 1900 3575 1675 3300 
Q 1450 3025 1250 2800 
Q 1050 3000 850 3100 
Q 1200 3400 1587 3950 
Q 1975 4500 2175 5225 
Q 2450 5075 2725 5000 
Q 2600 4850 2375 4425 
L 5100 4425 
z
M 4975 1675 
Q 4950 1125 4950 400 
Q 4950 -325 4975 -575 
L 4475 -575 
L 4475 -225 
L 2050 -225 
L 2050 -625 
L 1550 -625 
Q 1575 -275 1575 400 
Q 1575 1075 1550 1675 
L 4975 1675 
z
M 4475 200 
L 4475 1250 
L 2050 1250 
L 2050 200 
L 4475 200 
z
M 3325 3000 
Q 3875 3450 4300 4025 
L 2500 4025 
Q 2975 3275 3325 3000 
z
" transform="scale(0.015625)"/>
        <path id="SimHei-6e29" d="M 5625 1925 
Q 5600 1475 5600 0 
Q 5875 0 6125 25 
L 6125 -425 
Q 5725 -400 5325 -400 
L 2275 -400 
Q 1825 -400 1400 -425 
L 1400 25 
Q 1725 0 2000 0 
Q 2000 1425 1975 1925 
L 5625 1925 
z
M 5325 2525 
L 2250 2525 
Q 2275 2950 2275 3675 
Q 2275 4400 2250 4925 
L 5325 4925 
L 5325 2525 
z
M 4875 2950 
L 4875 3500 
L 2725 3500 
L 2725 2950 
L 4875 2950 
z
M 1550 1775 
Q 1375 1300 1162 600 
Q 950 -100 800 -500 
Q 550 -275 275 -175 
Q 525 250 787 950 
Q 1050 1650 1100 2075 
Q 1300 1875 1550 1775 
z
M 4875 3925 
L 4875 4450 
L 2725 4450 
L 2725 3925 
L 4875 3925 
z
M 5150 0 
L 5150 1500 
L 4525 1500 
L 4525 0 
L 5150 0 
z
M 4075 0 
L 4075 1500 
L 3475 1500 
L 3475 0 
L 4075 0 
z
M 3075 0 
L 3075 1500 
L 2475 1500 
L 2475 0 
L 3075 0 
z
M 875 5050 
Q 1475 4600 1825 4325 
Q 1675 4100 1525 3925 
Q 1300 4200 575 4700 
Q 750 4875 875 5050 
z
M 575 3625 
Q 1000 3400 1550 2900 
Q 1350 2750 1225 2550 
Q 975 2825 325 3300 
Q 425 3400 575 3625 
z
" transform="scale(0.015625)"/>
        <path id="SimHei-5ea6" d="M 1750 1675 
Q 2450 1650 2875 1650 
L 5200 1650 
Q 4975 1250 4650 850 
Q 4325 450 4025 200 
Q 4350 50 4950 -50 
Q 5550 -150 6100 -150 
Q 5950 -300 5825 -650 
Q 5100 -550 4550 -412 
Q 4000 -275 3625 -100 
Q 3100 -325 2587 -462 
Q 2075 -600 1525 -675 
Q 1450 -475 1225 -250 
Q 1675 -250 2250 -125 
Q 2825 0 3250 200 
Q 2825 550 2400 1275 
L 1750 1250 
L 1750 1675 
z
M 2975 5075 
Q 3250 5150 3475 5250 
Q 3625 4975 3775 4525 
L 4700 4525 
Q 4975 4525 5700 4550 
L 5700 4100 
Q 5000 4125 4650 4125 
L 1375 4125 
Q 1375 3000 1350 2312 
Q 1325 1625 1212 950 
Q 1100 275 725 -525 
Q 500 -375 250 -300 
Q 650 400 762 1075 
Q 875 1750 887 2800 
Q 900 3850 875 4525 
L 3200 4525 
Q 3100 4850 2975 5075 
z
M 2475 3300 
Q 2475 3700 2450 3925 
L 2975 3925 
Q 2950 3725 2950 3300 
L 4300 3300 
Q 4300 3700 4275 3950 
L 4800 3950 
Q 4775 3650 4775 3300 
Q 5325 3300 5725 3325 
L 5725 2900 
Q 5350 2925 4775 2925 
Q 4775 2250 4800 1950 
L 2450 1950 
Q 2475 2350 2475 2925 
Q 2175 2925 1600 2900 
L 1600 3325 
Q 2175 3300 2475 3300 
z
M 4300 2350 
L 4300 2925 
L 2950 2925 
L 2950 2350 
L 4300 2350 
z
M 2875 1275 
Q 3200 775 3650 425 
Q 4025 700 4425 1275 
L 2900 1275 
L 2875 1275 
z
" transform="scale(0.015625)"/>
        <path id="SimHei-63a2" d="M 3800 2300 
Q 3800 2900 3775 3125 
L 4275 3125 
Q 4250 2875 4250 2300 
L 5275 2300 
Q 5700 2300 5975 2325 
L 5975 1900 
Q 5750 1925 5425 1925 
L 4650 1925 
Q 4775 1475 5100 1025 
Q 5425 575 6175 275 
Q 5900 150 5750 -150 
Q 5100 225 4775 650 
Q 4450 1075 4250 1875 
L 4250 75 
Q 4250 -275 4275 -625 
L 3775 -625 
Q 3800 -250 3800 75 
L 3800 1725 
Q 3650 1325 3400 912 
Q 3150 500 2850 187 
Q 2550 -125 2300 -325 
Q 2125 -100 1875 25 
Q 2400 350 2775 825 
Q 3150 1300 3400 1925 
L 2850 1925 
Q 2575 1925 2275 1900 
L 2275 2325 
Q 2575 2300 2825 2300 
L 3800 2300 
z
M 1075 3850 
Q 1075 4900 1050 5225 
L 1575 5225 
Q 1525 4950 1525 3850 
Q 1750 3850 2125 3875 
L 2125 3425 
Q 1750 3450 1525 3450 
L 1525 2375 
Q 1850 2550 2000 2675 
Q 2000 2350 2025 2200 
Q 1825 2100 1525 1900 
L 1525 0 
Q 1500 -275 1300 -387 
Q 1100 -500 600 -600 
Q 550 -250 425 0 
Q 800 -50 937 -12 
Q 1075 25 1075 175 
L 1075 1675 
Q 825 1525 450 1250 
Q 350 1700 225 1850 
Q 800 2025 1075 2175 
L 1075 3450 
Q 600 3450 325 3425 
L 325 3875 
Q 575 3850 1075 3850 
z
M 5925 4900 
Q 5900 4675 5900 4375 
Q 5900 4075 5925 3800 
L 5450 3800 
L 5450 4500 
L 2700 4500 
L 2700 3775 
L 2225 3775 
Q 2250 4050 2250 4350 
Q 2250 4650 2225 4900 
L 5925 4900 
z
M 4625 4125 
Q 5375 3500 5725 3225 
Q 5500 3000 5350 2825 
Q 5100 3100 4300 3725 
Q 4450 3925 4625 4125 
z
M 3725 3775 
Q 3100 3150 2750 2750 
Q 2575 2950 2325 3050 
Q 3050 3700 3275 4075 
Q 3450 3900 3725 3775 
z
" transform="scale(0.015625)"/>
        <path id="SimHei-9488" d="M 1250 -100 
Q 1425 200 1425 550 
L 1425 1600 
L 1075 1600 
Q 850 1600 475 1575 
L 475 2050 
Q 850 2025 1050 2025 
L 1425 2025 
L 1425 2725 
Q 1250 2725 850 2700 
L 850 3125 
L 575 2775 
Q 425 2950 200 3050 
Q 850 3850 1100 4375 
Q 1350 4900 1450 5200 
Q 1625 5075 1950 4975 
Q 1825 4850 1575 4400 
L 2150 4400 
Q 2550 4400 2925 4425 
L 2925 3950 
Q 2550 3975 2150 3975 
L 1375 3975 
Q 1200 3650 850 3175 
Q 1225 3150 1575 3150 
L 1975 3150 
Q 2300 3150 2675 3175 
L 2675 2700 
Q 2200 2725 1875 2725 
L 1875 2025 
L 2275 2025 
Q 2550 2025 2875 2050 
L 2875 1575 
Q 2475 1600 2300 1600 
L 1875 1600 
L 1875 350 
Q 2625 875 2900 1100 
Q 2950 875 3025 600 
Q 2750 400 2350 125 
Q 1950 -150 1600 -525 
Q 1400 -300 1250 -100 
z
M 4225 3150 
L 4225 4375 
Q 4225 4575 4200 5050 
L 4725 5050 
Q 4700 4725 4700 4375 
L 4700 3150 
L 5425 3150 
Q 5725 3150 6075 3175 
L 6075 2700 
Q 5700 2725 5450 2725 
L 4700 2725 
L 4700 275 
Q 4700 100 4725 -525 
L 4200 -525 
Q 4225 -100 4225 250 
L 4225 2725 
L 3525 2725 
Q 3375 2725 2900 2700 
L 2900 3175 
Q 3200 3150 3450 3150 
L 4225 3150 
z
" transform="scale(0.015625)"/>
        <path id="SimHei-68c0" d="M 1250 4575 
Q 1250 4850 1225 5150 
L 1750 5150 
Q 1700 4850 1700 4575 
L 1700 3900 
L 1950 3900 
Q 2100 3900 2475 3925 
L 2475 3450 
Q 2050 3475 1875 3475 
L 1700 3475 
L 1700 2325 
Q 1900 2400 2050 2525 
Q 2125 2400 2250 2187 
Q 2375 1975 2500 1750 
Q 2325 1675 2075 1500 
Q 2000 1625 1912 1837 
Q 1825 2050 1700 2175 
L 1700 300 
Q 1700 -175 1725 -625 
L 1225 -625 
Q 1250 -225 1250 300 
L 1250 2300 
Q 1150 2050 950 1637 
Q 750 1225 575 950 
Q 400 1200 175 1325 
Q 400 1575 550 1862 
Q 700 2150 837 2437 
Q 975 2725 1062 2987 
Q 1150 3250 1200 3475 
L 950 3475 
Q 825 3475 425 3450 
L 425 3925 
Q 800 3900 950 3900 
L 1250 3900 
L 1250 4575 
z
M 4912 3225 
Q 4675 3425 4462 3712 
Q 4250 4000 3975 4450 
Q 3775 4025 3600 3737 
Q 3425 3450 3225 3200 
L 4850 3200 
L 4850 2750 
Q 4675 2775 4500 2775 
L 3750 2775 
Q 3450 2775 3150 2750 
L 3150 3075 
L 2875 2800 
Q 2700 2600 2550 2450 
Q 2400 2675 2100 2825 
Q 2475 3075 2750 3387 
Q 3025 3700 3212 3987 
Q 3400 4275 3537 4587 
Q 3675 4900 3725 5175 
Q 4050 5100 4325 5025 
Q 4225 4900 4200 4825 
Q 4675 3975 5200 3637 
Q 5725 3300 6150 3150 
Q 5900 2925 5850 2625 
Q 5600 2750 5375 2887 
Q 5150 3025 4912 3225 
z
M 5675 2225 
Q 5400 1650 5225 1187 
Q 5050 725 4800 175 
L 5225 175 
Q 5600 175 5975 200 
L 5975 -250 
Q 5675 -225 5225 -225 
L 3125 -225 
Q 2425 -225 2200 -250 
L 2200 200 
Q 2450 175 3150 175 
L 4325 175 
Q 4500 525 4662 987 
Q 4825 1450 4912 1737 
Q 5000 2025 5075 2425 
Q 5400 2300 5675 2225 
z
M 3000 2200 
Q 3150 1850 3312 1462 
Q 3475 1075 3600 725 
Q 3400 650 3100 500 
Q 2975 950 2875 1200 
Q 2775 1450 2525 1950 
Q 2825 2100 3000 2200 
z
M 4000 2425 
Q 4125 2075 4275 1650 
Q 4425 1225 4500 1025 
Q 4225 975 4000 850 
Q 3900 1250 3787 1575 
Q 3675 1900 3500 2225 
Q 3800 2350 4000 2425 
z
" transform="scale(0.015625)"/>
        <path id="SimHei-6d4b" d="M 4025 4725 
Q 4000 4475 4000 4000 
L 4000 2225 
Q 4000 1775 4025 1350 
L 3550 1350 
L 3550 4325 
L 2350 4325 
L 2350 1325 
L 1900 1325 
Q 1925 1775 1925 2225 
L 1925 4000 
Q 1925 4200 1900 4725 
L 4025 4725 
z
M 5900 5075 
Q 5875 4800 5875 4375 
L 5875 0 
Q 5875 -325 5650 -425 
Q 5425 -525 4975 -600 
Q 4925 -325 4775 -50 
Q 5125 -50 5262 -25 
Q 5400 0 5400 250 
L 5400 4375 
Q 5400 4775 5375 5075 
L 5900 5075 
z
M 3275 3725 
Q 3225 3400 3200 2325 
Q 3175 1250 2837 550 
Q 2500 -150 2075 -600 
Q 1850 -400 1600 -325 
Q 2200 250 2475 962 
Q 2750 1675 2762 2475 
Q 2775 3275 2725 3800 
Q 3000 3750 3275 3725 
z
M 4950 4275 
Q 4925 4000 4925 3575 
L 4925 1825 
Q 4925 1300 4950 850 
L 4450 850 
Q 4475 1150 4475 1825 
L 4475 3575 
Q 4475 4000 4450 4275 
L 4950 4275 
z
M 1700 1675 
Q 1375 1075 1112 487 
Q 850 -100 725 -400 
Q 500 -200 200 -25 
Q 475 300 762 850 
Q 1050 1400 1250 2000 
Q 1475 1825 1700 1675 
z
M 3400 1050 
Q 3800 650 4300 -125 
Q 4100 -225 3875 -450 
Q 3475 275 3025 750 
Q 3225 875 3400 1050 
z
M 600 3525 
Q 1125 3125 1500 2775 
Q 1300 2575 1150 2375 
Q 825 2775 300 3150 
Q 450 3300 600 3525 
z
M 1350 4000 
Q 950 4375 475 4675 
Q 625 4850 775 5050 
Q 1300 4700 1675 4375 
Q 1500 4250 1350 4000 
z
" transform="scale(0.015625)"/>
        <path id="SimHei-5230" d="M 3675 150 
Q 2275 -50 1537 -175 
Q 800 -300 500 -400 
Q 425 -75 325 225 
Q 775 250 1062 275 
Q 1350 300 1750 350 
L 1750 1325 
L 1400 1325 
Q 900 1325 550 1275 
L 550 1750 
Q 975 1725 1325 1725 
L 1750 1725 
L 1750 2550 
Q 1250 2525 1037 2500 
Q 825 2475 575 2425 
Q 525 2750 425 3000 
Q 825 3100 1137 3500 
Q 1450 3900 1625 4400 
L 1250 4400 
Q 825 4400 450 4375 
L 450 4850 
Q 850 4825 1225 4825 
L 2825 4825 
Q 3275 4825 3625 4850 
L 3625 4375 
Q 3250 4400 2825 4400 
L 1800 4400 
L 2250 4100 
Q 2000 3900 1775 3600 
Q 1550 3300 1250 2950 
Q 2150 3000 2925 3050 
Q 2725 3375 2475 3700 
Q 2725 3825 2925 3975 
Q 3175 3625 3400 3300 
Q 3625 2975 3825 2700 
Q 3600 2525 3325 2375 
Q 3225 2550 3150 2675 
Q 2625 2600 2275 2575 
L 2275 1725 
L 2750 1725 
Q 3175 1725 3475 1750 
L 3475 1275 
Q 3150 1325 2775 1325 
L 2275 1325 
L 2275 400 
Q 2975 500 3750 625 
Q 3700 375 3675 150 
z
M 5875 5175 
Q 5825 4800 5825 4325 
L 5825 225 
Q 5825 -350 5612 -450 
Q 5400 -550 4700 -675 
Q 4625 -350 4475 -75 
Q 5000 -75 5162 -37 
Q 5325 0 5325 375 
L 5325 4325 
Q 5325 4875 5300 5175 
L 5875 5175 
z
M 4600 4375 
Q 4550 4050 4550 3475 
L 4550 1600 
Q 4550 1075 4575 725 
L 4050 725 
Q 4075 1075 4075 1600 
L 4075 3575 
Q 4075 4075 4050 4375 
L 4600 4375 
z
" transform="scale(0.015625)"/>
        <path id="SimHei-7684" d="M 2100 4975 
Q 1975 4750 1750 3950 
L 2875 3950 
Q 2850 3525 2850 2875 
L 2850 675 
Q 2850 300 2875 -400 
L 2375 -400 
L 2375 100 
L 1100 100 
L 1100 -450 
L 600 -450 
Q 625 350 625 550 
L 625 2850 
Q 625 3525 600 3950 
L 1325 3950 
Q 1450 4525 1525 5150 
Q 1875 5025 2100 4975 
z
M 5825 3075 
Q 5800 1550 5700 175 
Q 5650 -275 5225 -425 
Q 4800 -575 4275 -625 
Q 4250 -350 4050 -50 
Q 4550 -75 4837 -25 
Q 5125 25 5200 200 
Q 5275 375 5312 1225 
Q 5350 2075 5375 3600 
L 3925 3600 
Q 3725 3125 3350 2475 
Q 3175 2650 2925 2750 
Q 3150 3050 3350 3475 
Q 3550 3900 3700 4400 
Q 3850 4900 3875 5175 
Q 4225 5025 4475 4950 
Q 4350 4750 4262 4512 
Q 4175 4275 4075 4050 
L 5850 4050 
Q 5825 3525 5825 3075 
z
M 2375 525 
L 2375 1850 
L 1100 1850 
L 1100 525 
L 2375 525 
z
M 2375 2275 
L 2375 3525 
L 1100 3525 
L 1100 2275 
L 2375 2275 
z
M 4350 2050 
Q 4500 1750 4700 1275 
Q 4525 1200 4225 1025 
Q 4050 1500 3900 1837 
Q 3750 2175 3600 2400 
Q 3775 2500 4050 2650 
L 4350 2050 
z
" transform="scale(0.015625)"/>
       </defs>
       <use xlink:href="#SimHei-53ef"/>
       <use xlink:href="#SimHei-5145" x="100"/>
       <use xlink:href="#SimHei-7535" x="200"/>
       <use xlink:href="#SimHei-50a8" x="300"/>
       <use xlink:href="#SimHei-80fd" x="400"/>
       <use xlink:href="#SimHei-5b50" x="500"/>
       <use xlink:href="#SimHei-7cfb" x="600"/>
       <use xlink:href="#SimHei-7edf" x="700"/>
       <use xlink:href="#SimHei-5404" x="800"/>
       <use xlink:href="#SimHei-6e29" x="900"/>
       <use xlink:href="#SimHei-5ea6" x="1000"/>
       <use xlink:href="#SimHei-63a2" x="1100"/>
       <use xlink:href="#SimHei-9488" x="1200"/>
       <use xlink:href="#SimHei-68c0" x="1300"/>
       <use xlink:href="#SimHei-6d4b" x="1400"/>
       <use xlink:href="#SimHei-5230" x="1500"/>
       <use xlink:href="#SimHei-7684" x="1600"/>
       <use xlink:href="#SimHei-6e29" x="1700"/>
       <use xlink:href="#SimHei-5ea6" x="1800"/>
       <use xlink:href="#SimHei-503c" x="1900"/>
      </g>
     </g>
    </g>
    <g id="ytick_7">
     <g id="text_15">
      <!-- 最高温度值 -->
      <g style="fill: #333333" transform="translate(205 204.545078) scale(0.13 -0.13)">
       <use xlink:href="#SimHei-6700"/>
       <use xlink:href="#SimHei-9ad8" x="100"/>
       <use xlink:href="#SimHei-6e29" x="200"/>
       <use xlink:href="#SimHei-5ea6" x="300"/>
       <use xlink:href="#SimHei-503c" x="400"/>
      </g>
     </g>
    </g>
    <g id="ytick_8">
     <g id="text_16">
      <!-- 最低温度值 -->
      <g style="fill: #333333" transform="translate(205 177.636183) scale(0.13 -0.13)">
       <defs>
        <path id="SimHei-4f4e" d="M 2300 4550 
Q 2750 4525 3750 4637 
Q 4750 4750 5275 5000 
Q 5425 4725 5600 4475 
Q 5125 4400 4350 4300 
Q 4350 3825 4400 2850 
L 5000 2850 
Q 5425 2850 5850 2875 
L 5850 2425 
Q 5425 2450 5025 2450 
L 4450 2450 
Q 4575 1325 4862 762 
Q 5150 200 5325 75 
Q 5500 -50 5562 125 
Q 5625 300 5675 775 
Q 5925 575 6150 525 
Q 6000 -100 5850 -337 
Q 5700 -575 5350 -500 
Q 5000 -425 4587 262 
Q 4175 950 4000 2450 
L 2775 2450 
L 2775 500 
Q 3275 950 3575 1275 
Q 3675 975 3775 800 
Q 2775 -50 2500 -350 
Q 2325 -175 2175 25 
Q 2300 150 2325 500 
L 2325 3725 
Q 2325 4075 2300 4550 
z
M 2050 5075 
Q 1900 4900 1600 3950 
L 1600 425 
Q 1600 -75 1625 -625 
L 1100 -625 
Q 1125 -75 1125 450 
L 1125 3025 
Q 875 2500 625 2125 
Q 400 2350 225 2425 
Q 600 2900 962 3687 
Q 1325 4475 1500 5275 
Q 1575 5200 2050 5075 
z
M 3950 2850 
Q 3900 3775 3900 4225 
Q 3125 4175 2775 4150 
L 2775 2850 
L 3950 2850 
z
M 3850 -625 
Q 3450 -75 3250 100 
Q 3450 275 3575 425 
Q 3925 50 4225 -300 
Q 4025 -450 3850 -625 
z
" transform="scale(0.015625)"/>
       </defs>
       <use xlink:href="#SimHei-6700"/>
       <use xlink:href="#SimHei-4f4e" x="100"/>
       <use xlink:href="#SimHei-6e29" x="200"/>
       <use xlink:href="#SimHei-5ea6" x="300"/>
       <use xlink:href="#SimHei-503c" x="400"/>
      </g>
     </g>
    </g>
    <g id="ytick_9">
     <g id="text_17">
      <!-- 总电压 -->
      <g style="fill: #333333" transform="translate(231 150.600335) scale(0.13 -0.13)">
       <use xlink:href="#SimHei-603b"/>
       <use xlink:href="#SimHei-7535" x="100"/>
       <use xlink:href="#SimHei-538b" x="200"/>
      </g>
     </g>
    </g>
    <g id="ytick_10">
     <g id="text_18">
      <!-- 累计里程 -->
      <g style="fill: #333333" transform="translate(218 123.767612) scale(0.13 -0.13)">
       <defs>
        <path id="SimHei-7d2f" d="M 5475 5000 
Q 5450 4600 5450 3975 
Q 5450 3350 5475 2950 
L 4675 2950 
Q 4850 2775 5075 2600 
Q 4800 2525 4237 2275 
Q 3675 2025 3262 1837 
Q 2850 1650 2400 1425 
Q 3850 1525 4650 1575 
Q 4425 1725 4200 1850 
Q 4375 2000 4500 2175 
Q 5125 1800 5900 1300 
Q 5750 1125 5575 900 
Q 5375 1075 5100 1250 
Q 4250 1175 3475 1125 
L 3475 50 
Q 3475 -350 3212 -462 
Q 2950 -575 2600 -600 
Q 2575 -375 2375 -50 
Q 2800 -75 2900 -25 
Q 3000 25 3000 125 
L 3000 1075 
Q 2400 1050 1987 1012 
Q 1575 975 850 875 
Q 775 1125 700 1350 
Q 1150 1400 1575 1512 
Q 2000 1625 3025 2125 
Q 1775 2025 1250 1925 
Q 1200 2200 1100 2375 
Q 1325 2375 1737 2537 
Q 2150 2700 2475 2950 
L 950 2950 
Q 975 3375 975 3975 
Q 975 4600 950 5000 
L 5475 5000 
z
M 2425 525 
Q 2200 400 1762 137 
Q 1325 -125 850 -425 
Q 700 -225 500 -25 
Q 850 125 1250 362 
Q 1650 600 2025 900 
Q 2150 725 2425 525 
z
M 2975 4100 
L 2975 4650 
L 1450 4650 
L 1450 4100 
L 2975 4100 
z
M 4975 4100 
L 4975 4650 
L 3450 4650 
L 3450 4100 
L 4975 4100 
z
M 4275 850 
Q 4750 650 5050 500 
L 5850 100 
Q 5675 -125 5575 -375 
Q 5150 -100 4775 100 
Q 4400 300 4050 450 
Q 4200 675 4275 850 
z
M 2975 3275 
L 2975 3750 
L 1450 3750 
L 1450 3275 
L 2975 3275 
z
M 4975 3275 
L 4975 3750 
L 3450 3750 
L 3450 3275 
L 4975 3275 
z
M 3700 2475 
Q 4200 2700 4575 2950 
L 3225 2950 
Q 2900 2750 2300 2425 
Q 3075 2450 3700 2475 
z
" transform="scale(0.015625)"/>
        <path id="SimHei-8ba1" d="M 3925 3100 
L 3925 4350 
Q 3925 4850 3900 5125 
L 4425 5125 
Q 4400 4800 4400 4550 
L 4400 3100 
L 5425 3100 
Q 5725 3100 6075 3125 
L 6075 2650 
Q 5700 2675 5450 2675 
L 4400 2675 
L 4400 175 
Q 4400 -125 4425 -550 
L 3900 -550 
Q 3925 -125 3925 150 
L 3925 2675 
L 2950 2675 
Q 2575 2675 2200 2650 
L 2200 3125 
Q 2575 3100 2900 3100 
L 3925 3100 
z
M 1775 3150 
Q 1750 2675 1750 2150 
L 1750 625 
Q 2175 1050 2425 1400 
Q 2575 1200 2775 1000 
L 2075 300 
Q 1750 -25 1450 -350 
Q 1275 -125 1125 50 
Q 1300 250 1275 650 
L 1275 2725 
Q 600 2725 275 2700 
L 275 3175 
Q 675 3150 825 3150 
L 1775 3150 
z
M 1150 5050 
Q 1475 4725 2175 4000 
Q 1950 3800 1750 3625 
Q 1425 4100 775 4750 
Q 950 4875 1150 5050 
z
" transform="scale(0.015625)"/>
        <path id="SimHei-91cc" d="M 5325 4925 
Q 5300 4400 5300 3500 
Q 5300 2600 5325 2075 
L 3400 2075 
L 3400 1400 
L 4575 1400 
Q 4900 1400 5425 1450 
L 5425 950 
Q 4900 975 4575 975 
L 3400 975 
L 3400 125 
L 5125 125 
Q 5500 125 6000 150 
L 6000 -350 
Q 5500 -325 5125 -325 
L 1450 -325 
Q 1000 -325 425 -375 
L 425 150 
Q 850 125 1450 125 
L 2925 125 
L 2925 975 
L 1825 975 
Q 1500 975 975 950 
L 975 1450 
Q 1350 1400 1825 1400 
L 2925 1400 
L 2925 2075 
L 1075 2075 
Q 1100 2600 1112 3337 
Q 1125 4075 1075 4925 
L 5325 4925 
z
M 4825 3675 
L 4825 4500 
L 3400 4500 
L 3400 3675 
L 4825 3675 
z
M 4825 2500 
L 4825 3275 
L 3400 3275 
L 3400 2500 
L 4825 2500 
z
M 2925 3675 
L 2925 4500 
L 1600 4500 
L 1600 3675 
L 2925 3675 
z
M 2925 2500 
L 2925 3275 
L 1600 3275 
L 1600 2500 
L 2925 2500 
z
" transform="scale(0.015625)"/>
        <path id="SimHei-7a0b" d="M 5825 4975 
Q 5800 4425 5800 3975 
Q 5800 3550 5825 3125 
L 3025 3125 
Q 3050 3600 3050 4025 
Q 3050 4450 3025 4975 
L 5825 4975 
z
M 400 4825 
Q 825 4875 1362 4987 
Q 1900 5100 2275 5275 
Q 2450 4950 2625 4725 
Q 2450 4750 2262 4712 
Q 2075 4675 1850 4650 
L 1850 3425 
Q 2200 3425 2600 3450 
L 2600 2975 
Q 2200 3000 1850 3000 
L 1850 800 
Q 1850 250 1875 -675 
L 1375 -675 
Q 1400 250 1400 775 
L 1400 1925 
Q 1050 1225 625 600 
Q 450 850 225 1050 
Q 575 1400 850 1850 
Q 1125 2300 1350 3000 
Q 725 3000 425 2975 
L 425 3450 
Q 850 3425 1050 3425 
L 1400 3425 
L 1400 4550 
Q 1075 4475 575 4400 
Q 500 4625 400 4825 
z
M 5100 2500 
Q 5500 2500 5950 2525 
L 5950 2075 
Q 5500 2100 5100 2100 
L 4625 2100 
L 4625 1300 
L 4900 1300 
Q 5275 1300 5775 1325 
L 5775 850 
Q 5275 875 4975 875 
L 4625 875 
L 4625 0 
L 5225 0 
Q 5675 0 6175 25 
L 6175 -450 
Q 5775 -425 5225 -425 
L 3550 -425 
Q 3000 -425 2600 -475 
L 2600 25 
Q 3000 0 3550 0 
L 4150 0 
L 4150 875 
L 3800 875 
Q 3400 875 3050 825 
L 3050 1325 
Q 3400 1300 3800 1300 
L 4150 1300 
L 4150 2100 
L 3750 2100 
Q 3300 2100 2900 2075 
L 2900 2525 
Q 3300 2500 3750 2500 
L 5100 2500 
z
M 5275 3575 
L 5275 4550 
L 3500 4550 
L 3500 3575 
L 5275 3575 
z
M 2300 2400 
Q 2550 2025 2825 1525 
Q 2675 1425 2425 1225 
Q 2175 1775 1925 2125 
Q 2075 2250 2300 2400 
z
" transform="scale(0.015625)"/>
       </defs>
       <use xlink:href="#SimHei-7d2f"/>
       <use xlink:href="#SimHei-8ba1" x="100"/>
       <use xlink:href="#SimHei-91cc" x="200"/>
       <use xlink:href="#SimHei-7a0b" x="300"/>
      </g>
     </g>
    </g>
    <g id="ytick_11">
     <g id="text_19">
      <!-- 电池单体电压最低值 -->
      <g style="fill: #333333" transform="translate(153 96.807935) scale(0.13 -0.13)">
       <use xlink:href="#SimHei-7535"/>
       <use xlink:href="#SimHei-6c60" x="100"/>
       <use xlink:href="#SimHei-5355" x="200"/>
       <use xlink:href="#SimHei-4f53" x="300"/>
       <use xlink:href="#SimHei-7535" x="400"/>
       <use xlink:href="#SimHei-538b" x="500"/>
       <use xlink:href="#SimHei-6700" x="600"/>
       <use xlink:href="#SimHei-4f4e" x="700"/>
       <use xlink:href="#SimHei-503c" x="800"/>
      </g>
     </g>
    </g>
    <g id="ytick_12">
     <g id="text_20">
      <!-- 驾驶习惯 -->
      <g style="fill: #333333" transform="translate(218 69.87365) scale(0.13 -0.13)">
       <defs>
        <path id="SimHei-9a7e" d="M 5775 1400 
Q 5700 1025 5650 587 
Q 5600 150 5562 -150 
Q 5525 -450 5312 -525 
Q 5100 -600 4575 -675 
Q 4525 -350 4375 -125 
Q 4925 -150 5025 -100 
Q 5125 -50 5150 225 
L 5225 1050 
L 1525 1050 
Q 1575 1475 1600 1950 
L 2125 1925 
Q 2075 1700 2050 1400 
L 4275 1400 
L 4450 2250 
L 2050 2250 
Q 1475 2250 1050 2200 
L 1050 2650 
Q 1475 2625 2000 2625 
L 5000 2625 
Q 4925 2350 4775 1400 
L 5775 1400 
z
M 5800 4700 
Q 5775 4475 5775 3925 
Q 5775 3375 5800 3100 
L 3600 3100 
Q 3625 3425 3625 3850 
Q 3625 4300 3600 4700 
L 5800 4700 
z
M 1500 4600 
Q 1525 4875 1550 5225 
Q 1825 5175 2100 5150 
Q 2000 4925 1950 4600 
L 3200 4600 
Q 3150 4350 3137 4075 
Q 3125 3800 3062 3475 
Q 3000 3150 2775 3050 
Q 2550 2950 2100 2875 
Q 2050 3175 1900 3400 
Q 2425 3400 2512 3437 
Q 2600 3475 2625 4225 
L 1900 4225 
Q 1800 3675 1512 3375 
Q 1225 3075 675 2775 
Q 550 3000 325 3175 
Q 800 3300 1062 3537 
Q 1325 3775 1450 4225 
L 1125 4225 
Q 975 4225 525 4175 
L 525 4625 
Q 975 4600 1125 4600 
L 1500 4600 
z
M 3650 550 
Q 4050 550 4525 575 
L 4525 150 
Q 4075 175 3650 175 
L 1400 175 
Q 975 175 450 150 
L 450 575 
Q 975 550 1400 550 
L 3650 550 
z
M 5275 3450 
L 5275 4325 
L 4100 4325 
L 4100 3450 
L 5275 3450 
z
" transform="scale(0.015625)"/>
        <path id="SimHei-9a76" d="M 4275 4200 
Q 4250 4750 4225 5200 
Q 4500 5150 4750 5125 
Q 4700 4800 4700 4200 
L 5950 4200 
Q 5900 3775 5900 3200 
Q 5900 2625 5950 2250 
L 4700 2250 
Q 4675 1850 4637 1487 
Q 4600 1125 4400 575 
Q 4725 350 5200 187 
Q 5675 25 6200 0 
Q 5975 -250 5875 -525 
Q 5400 -400 4975 -225 
Q 4550 -50 4175 225 
Q 3975 -25 3712 -225 
Q 3450 -425 3100 -650 
Q 2950 -450 2625 -275 
Q 3050 -125 3312 50 
Q 3575 225 3825 500 
Q 3525 775 3387 1050 
Q 3250 1325 3100 1650 
Q 3350 1725 3550 1825 
Q 3625 1550 3762 1300 
Q 3900 1050 4075 875 
Q 4175 1225 4212 1537 
Q 4250 1850 4250 2250 
L 3100 2250 
Q 3125 2625 3125 3200 
Q 3125 3800 3100 4200 
L 4275 4200 
z
M 2450 4825 
Q 2400 4475 2375 4175 
L 2250 2375 
L 2800 2375 
Q 2725 2050 2637 1112 
Q 2550 175 2487 -75 
Q 2425 -325 2137 -400 
Q 1850 -475 1375 -525 
Q 1350 -250 1225 25 
Q 1750 0 1912 37 
Q 2075 75 2100 375 
L 2250 2000 
L 650 2000 
Q 700 2450 725 2975 
Q 750 3500 775 3975 
L 1275 3950 
Q 1225 3725 1150 2375 
L 1800 2375 
L 1950 4450 
L 1100 4450 
Q 750 4450 350 4425 
L 350 4850 
Q 750 4825 1100 4825 
L 2450 4825 
z
M 5450 2625 
L 5450 3825 
L 4700 3825 
L 4700 2625 
L 5450 2625 
z
M 4275 2625 
L 4275 3825 
L 3575 3825 
L 3575 2625 
L 4275 2625 
z
M 1825 950 
Q 1550 900 1062 825 
Q 575 750 400 700 
Q 325 950 200 1200 
Q 425 1200 887 1237 
Q 1350 1275 1875 1350 
L 1825 950 
z
" transform="scale(0.015625)"/>
        <path id="SimHei-4e60" d="M 2500 4325 
Q 1775 4325 1125 4300 
L 1125 4800 
Q 1950 4775 2375 4775 
L 5500 4775 
Q 5450 4425 5425 3700 
L 5325 375 
Q 5275 -300 4925 -425 
Q 4575 -550 3775 -600 
Q 3700 -300 3500 0 
Q 4225 -50 4500 12 
Q 4775 75 4825 475 
L 4925 4325 
L 2500 4325 
z
M 4200 2075 
Q 4200 1800 4250 1550 
Q 2825 1025 1275 250 
Q 1150 550 925 825 
Q 1250 900 2212 1250 
Q 3175 1600 4200 2075 
z
M 1800 3825 
Q 2875 3200 3400 2800 
Q 3300 2650 3050 2325 
Q 2600 2750 1500 3400 
Q 1675 3625 1800 3825 
z
" transform="scale(0.015625)"/>
        <path id="SimHei-60ef" d="M 2625 3650 
Q 2400 3650 2175 3625 
L 2175 4050 
Q 2375 4025 2650 4025 
Q 2675 4550 2700 4950 
L 5700 4950 
Q 5650 4550 5625 4025 
Q 5875 4025 6175 4050 
L 6175 3625 
Q 5875 3650 5600 3650 
Q 5550 3150 5500 2675 
L 2550 2675 
Q 2600 3150 2625 3650 
z
M 1525 5250 
Q 1500 4925 1500 4450 
L 1500 700 
Q 1500 100 1525 -500 
L 1050 -500 
Q 1075 100 1075 700 
L 1075 4475 
Q 1075 4875 1050 5250 
L 1525 5250 
z
M 5650 2275 
Q 5625 1825 5625 1425 
Q 5625 1050 5675 575 
L 5150 575 
L 5150 1950 
L 3150 1950 
L 3150 525 
L 2650 525 
Q 2675 1000 2675 1425 
Q 2675 1850 2650 2275 
L 5650 2275 
z
M 2050 -125 
Q 3000 -50 3400 312 
Q 3800 675 3850 1625 
Q 4125 1575 4425 1550 
Q 4325 1225 4175 700 
Q 4025 175 3587 -150 
Q 3150 -475 2400 -650 
Q 2275 -350 2050 -125 
z
M 4675 700 
Q 5675 125 6125 -200 
Q 5925 -350 5775 -575 
Q 5350 -225 4425 350 
Q 4550 500 4675 700 
z
M 200 2375 
Q 325 2750 475 3750 
Q 700 3700 925 3675 
Q 750 2700 650 2300 
Q 425 2350 200 2375 
z
M 5100 3025 
L 5150 3650 
L 4275 3650 
L 4225 3025 
L 5100 3025 
z
M 5175 4025 
L 5225 4625 
L 4350 4625 
L 4300 4025 
L 5175 4025 
z
M 3800 3025 
L 3850 3650 
L 3050 3650 
L 3000 3025 
L 3800 3025 
z
M 3875 4025 
L 3925 4625 
L 3125 4625 
L 3075 4025 
L 3875 4025 
z
M 1925 2625 
Q 1875 2875 1650 3650 
Q 1850 3725 2050 3775 
Q 2250 3075 2350 2750 
Q 2100 2700 1925 2625 
z
" transform="scale(0.015625)"/>
       </defs>
       <use xlink:href="#SimHei-9a7e"/>
       <use xlink:href="#SimHei-9a76" x="100"/>
       <use xlink:href="#SimHei-4e60" x="200"/>
       <use xlink:href="#SimHei-60ef" x="300"/>
      </g>
     </g>
    </g>
    <g id="ytick_13">
     <g id="text_21">
      <!-- 充电量 -->
      <g style="fill: #333333" transform="translate(231 42.863192) scale(0.13 -0.13)">
       <defs>
        <path id="SimHei-91cf" d="M 5250 2500 
Q 5225 2200 5225 1700 
Q 5225 1225 5250 950 
L 3425 950 
L 3425 625 
L 4575 625 
Q 5000 625 5375 650 
L 5375 275 
Q 5025 300 4575 300 
L 3425 300 
L 3425 -75 
L 5125 -75 
Q 5525 -75 5925 -50 
L 5925 -425 
Q 5525 -400 5125 -400 
L 1275 -400 
Q 900 -400 475 -425 
L 475 -50 
Q 925 -50 1275 -75 
L 2975 -75 
L 2975 300 
L 1725 300 
Q 1350 300 975 250 
L 975 650 
Q 1375 625 1725 625 
L 2975 625 
L 2975 950 
L 1150 950 
Q 1175 1375 1175 1775 
Q 1175 2175 1150 2500 
L 5250 2500 
z
M 5200 4950 
Q 5175 4575 5175 4250 
Q 5175 3925 5200 3400 
L 1200 3400 
Q 1225 3925 1225 4250 
Q 1225 4575 1200 4950 
L 5200 4950 
z
M 4900 3100 
Q 5500 3125 6000 3150 
L 6000 2750 
Q 5500 2775 4925 2775 
L 1650 2775 
Q 975 2775 325 2750 
L 325 3150 
Q 975 3125 1650 3100 
L 4900 3100 
z
M 4725 3700 
L 4725 4025 
L 1675 4025 
L 1675 3700 
L 4725 3700 
z
M 4725 4350 
L 4725 4650 
L 1675 4650 
L 1675 4350 
L 4725 4350 
z
M 4750 1875 
L 4750 2175 
L 3425 2175 
L 3425 1875 
L 4750 1875 
z
M 2975 1875 
L 2975 2175 
L 1650 2175 
L 1650 1875 
L 2975 1875 
z
M 2975 1275 
L 2975 1550 
L 1650 1550 
L 1650 1275 
L 2975 1275 
z
M 4750 1275 
L 4750 1550 
L 3425 1550 
L 3425 1275 
L 4750 1275 
z
" transform="scale(0.015625)"/>
       </defs>
       <use xlink:href="#SimHei-5145"/>
       <use xlink:href="#SimHei-7535" x="100"/>
       <use xlink:href="#SimHei-91cf" x="200"/>
      </g>
     </g>
    </g>
   </g>
   <g id="patch_16">
    <path d="M 277 387.88 
L 705.609737 387.88 
" style="fill: none; stroke: #000000; stroke-width: 0.8; stroke-linejoin: miter; stroke-linecap: square"/>
   </g>
  </g>
 </g>
 <defs>
  <clipPath id="p24359026c1">
   <rect x="277" y="10.8" width="428.609737" height="377.08"/>
  </clipPath>
 </defs>
</svg>
