<?xml version="1.0" encoding="utf-8" standalone="no"?>
<!DOCTYPE svg PUBLIC "-//W3C//DTD SVG 1.1//EN"
  "http://www.w3.org/Graphics/SVG/1.1/DTD/svg11.dtd">
<svg xmlns:xlink="http://www.w3.org/1999/xlink" width="1080pt" height="360pt" viewBox="0 0 1080 360" xmlns="http://www.w3.org/2000/svg" version="1.1">
 <metadata>
  <rdf:RDF xmlns:dc="http://purl.org/dc/elements/1.1/" xmlns:cc="http://creativecommons.org/ns#" xmlns:rdf="http://www.w3.org/1999/02/22-rdf-syntax-ns#">
   <cc:Work>
    <dc:type rdf:resource="http://purl.org/dc/dcmitype/StillImage"/>
    <dc:date>2024-06-16T23:03:22.174366</dc:date>
    <dc:format>image/svg+xml</dc:format>
    <dc:creator>
     <cc:Agent>
      <dc:title>Matplotlib v3.6.2, https://matplotlib.org/</dc:title>
     </cc:Agent>
    </dc:creator>
   </cc:Work>
  </rdf:RDF>
 </metadata>
 <defs>
  <style type="text/css">*{stroke-linejoin: round; stroke-linecap: butt}</style>
 </defs>
 <g id="figure_1">
  <g id="patch_1">
   <path d="M 0 360 
L 1080 360 
L 1080 0 
L 0 0 
z
" style="fill: #ffffff"/>
  </g>
  <g id="axes_1">
   <g id="patch_2">
    <path d="M 135 320.4 
L 972 320.4 
L 972 43.2 
L 135 43.2 
z
" style="fill: #ffffff"/>
   </g>
   <g id="matplotlib.axis_1">
    <g id="xtick_1">
     <g id="line2d_1">
      <defs>
       <path id="m5bda5059a1" d="M 0 0 
L 0 3.5 
" style="stroke: #000000; stroke-width: 0.8"/>
      </defs>
      <g>
       <use xlink:href="#m5bda5059a1" x="173.045455" y="320.4" style="stroke: #000000; stroke-width: 0.8"/>
      </g>
     </g>
     <g id="text_1">
      <!-- 0 -->
      <g transform="translate(169.864205 334.998438) scale(0.1 -0.1)">
       <defs>
        <path id="DejaVuSans-30" d="M 2034 4250 
Q 1547 4250 1301 3770 
Q 1056 3291 1056 2328 
Q 1056 1369 1301 889 
Q 1547 409 2034 409 
Q 2525 409 2770 889 
Q 3016 1369 3016 2328 
Q 3016 3291 2770 3770 
Q 2525 4250 2034 4250 
z
M 2034 4750 
Q 2819 4750 3233 4129 
Q 3647 3509 3647 2328 
Q 3647 1150 3233 529 
Q 2819 -91 2034 -91 
Q 1250 -91 836 529 
Q 422 1150 422 2328 
Q 422 3509 836 4129 
Q 1250 4750 2034 4750 
z
" transform="scale(0.015625)"/>
       </defs>
       <use xlink:href="#DejaVuSans-30"/>
      </g>
     </g>
    </g>
    <g id="xtick_2">
     <g id="line2d_2">
      <g>
       <use xlink:href="#m5bda5059a1" x="347.166528" y="320.4" style="stroke: #000000; stroke-width: 0.8"/>
      </g>
     </g>
     <g id="text_2">
      <!-- 100 -->
      <g transform="translate(337.622778 334.998438) scale(0.1 -0.1)">
       <defs>
        <path id="DejaVuSans-31" d="M 794 531 
L 1825 531 
L 1825 4091 
L 703 3866 
L 703 4441 
L 1819 4666 
L 2450 4666 
L 2450 531 
L 3481 531 
L 3481 0 
L 794 0 
L 794 531 
z
" transform="scale(0.015625)"/>
       </defs>
       <use xlink:href="#DejaVuSans-31"/>
       <use xlink:href="#DejaVuSans-30" x="63.623047"/>
       <use xlink:href="#DejaVuSans-30" x="127.246094"/>
      </g>
     </g>
    </g>
    <g id="xtick_3">
     <g id="line2d_3">
      <g>
       <use xlink:href="#m5bda5059a1" x="521.287601" y="320.4" style="stroke: #000000; stroke-width: 0.8"/>
      </g>
     </g>
     <g id="text_3">
      <!-- 200 -->
      <g transform="translate(511.743851 334.998438) scale(0.1 -0.1)">
       <defs>
        <path id="DejaVuSans-32" d="M 1228 531 
L 3431 531 
L 3431 0 
L 469 0 
L 469 531 
Q 828 903 1448 1529 
Q 2069 2156 2228 2338 
Q 2531 2678 2651 2914 
Q 2772 3150 2772 3378 
Q 2772 3750 2511 3984 
Q 2250 4219 1831 4219 
Q 1534 4219 1204 4116 
Q 875 4013 500 3803 
L 500 4441 
Q 881 4594 1212 4672 
Q 1544 4750 1819 4750 
Q 2544 4750 2975 4387 
Q 3406 4025 3406 3419 
Q 3406 3131 3298 2873 
Q 3191 2616 2906 2266 
Q 2828 2175 2409 1742 
Q 1991 1309 1228 531 
z
" transform="scale(0.015625)"/>
       </defs>
       <use xlink:href="#DejaVuSans-32"/>
       <use xlink:href="#DejaVuSans-30" x="63.623047"/>
       <use xlink:href="#DejaVuSans-30" x="127.246094"/>
      </g>
     </g>
    </g>
    <g id="xtick_4">
     <g id="line2d_4">
      <g>
       <use xlink:href="#m5bda5059a1" x="695.408675" y="320.4" style="stroke: #000000; stroke-width: 0.8"/>
      </g>
     </g>
     <g id="text_4">
      <!-- 300 -->
      <g transform="translate(685.864925 334.998438) scale(0.1 -0.1)">
       <defs>
        <path id="DejaVuSans-33" d="M 2597 2516 
Q 3050 2419 3304 2112 
Q 3559 1806 3559 1356 
Q 3559 666 3084 287 
Q 2609 -91 1734 -91 
Q 1441 -91 1130 -33 
Q 819 25 488 141 
L 488 750 
Q 750 597 1062 519 
Q 1375 441 1716 441 
Q 2309 441 2620 675 
Q 2931 909 2931 1356 
Q 2931 1769 2642 2001 
Q 2353 2234 1838 2234 
L 1294 2234 
L 1294 2753 
L 1863 2753 
Q 2328 2753 2575 2939 
Q 2822 3125 2822 3475 
Q 2822 3834 2567 4026 
Q 2313 4219 1838 4219 
Q 1578 4219 1281 4162 
Q 984 4106 628 3988 
L 628 4550 
Q 988 4650 1302 4700 
Q 1616 4750 1894 4750 
Q 2613 4750 3031 4423 
Q 3450 4097 3450 3541 
Q 3450 3153 3228 2886 
Q 3006 2619 2597 2516 
z
" transform="scale(0.015625)"/>
       </defs>
       <use xlink:href="#DejaVuSans-33"/>
       <use xlink:href="#DejaVuSans-30" x="63.623047"/>
       <use xlink:href="#DejaVuSans-30" x="127.246094"/>
      </g>
     </g>
    </g>
    <g id="xtick_5">
     <g id="line2d_5">
      <g>
       <use xlink:href="#m5bda5059a1" x="869.529748" y="320.4" style="stroke: #000000; stroke-width: 0.8"/>
      </g>
     </g>
     <g id="text_5">
      <!-- 400 -->
      <g transform="translate(859.985998 334.998438) scale(0.1 -0.1)">
       <defs>
        <path id="DejaVuSans-34" d="M 2419 4116 
L 825 1625 
L 2419 1625 
L 2419 4116 
z
M 2253 4666 
L 3047 4666 
L 3047 1625 
L 3713 1625 
L 3713 1100 
L 3047 1100 
L 3047 0 
L 2419 0 
L 2419 1100 
L 313 1100 
L 313 1709 
L 2253 4666 
z
" transform="scale(0.015625)"/>
       </defs>
       <use xlink:href="#DejaVuSans-34"/>
       <use xlink:href="#DejaVuSans-30" x="63.623047"/>
       <use xlink:href="#DejaVuSans-30" x="127.246094"/>
      </g>
     </g>
    </g>
    <g id="text_6">
     <!-- Sample Index -->
     <g transform="translate(519.396094 348.676562) scale(0.1 -0.1)">
      <defs>
       <path id="DejaVuSans-53" d="M 3425 4513 
L 3425 3897 
Q 3066 4069 2747 4153 
Q 2428 4238 2131 4238 
Q 1616 4238 1336 4038 
Q 1056 3838 1056 3469 
Q 1056 3159 1242 3001 
Q 1428 2844 1947 2747 
L 2328 2669 
Q 3034 2534 3370 2195 
Q 3706 1856 3706 1288 
Q 3706 609 3251 259 
Q 2797 -91 1919 -91 
Q 1588 -91 1214 -16 
Q 841 59 441 206 
L 441 856 
Q 825 641 1194 531 
Q 1563 422 1919 422 
Q 2459 422 2753 634 
Q 3047 847 3047 1241 
Q 3047 1584 2836 1778 
Q 2625 1972 2144 2069 
L 1759 2144 
Q 1053 2284 737 2584 
Q 422 2884 422 3419 
Q 422 4038 858 4394 
Q 1294 4750 2059 4750 
Q 2388 4750 2728 4690 
Q 3069 4631 3425 4513 
z
" transform="scale(0.015625)"/>
       <path id="DejaVuSans-61" d="M 2194 1759 
Q 1497 1759 1228 1600 
Q 959 1441 959 1056 
Q 959 750 1161 570 
Q 1363 391 1709 391 
Q 2188 391 2477 730 
Q 2766 1069 2766 1631 
L 2766 1759 
L 2194 1759 
z
M 3341 1997 
L 3341 0 
L 2766 0 
L 2766 531 
Q 2569 213 2275 61 
Q 1981 -91 1556 -91 
Q 1019 -91 701 211 
Q 384 513 384 1019 
Q 384 1609 779 1909 
Q 1175 2209 1959 2209 
L 2766 2209 
L 2766 2266 
Q 2766 2663 2505 2880 
Q 2244 3097 1772 3097 
Q 1472 3097 1187 3025 
Q 903 2953 641 2809 
L 641 3341 
Q 956 3463 1253 3523 
Q 1550 3584 1831 3584 
Q 2591 3584 2966 3190 
Q 3341 2797 3341 1997 
z
" transform="scale(0.015625)"/>
       <path id="DejaVuSans-6d" d="M 3328 2828 
Q 3544 3216 3844 3400 
Q 4144 3584 4550 3584 
Q 5097 3584 5394 3201 
Q 5691 2819 5691 2113 
L 5691 0 
L 5113 0 
L 5113 2094 
Q 5113 2597 4934 2840 
Q 4756 3084 4391 3084 
Q 3944 3084 3684 2787 
Q 3425 2491 3425 1978 
L 3425 0 
L 2847 0 
L 2847 2094 
Q 2847 2600 2669 2842 
Q 2491 3084 2119 3084 
Q 1678 3084 1418 2786 
Q 1159 2488 1159 1978 
L 1159 0 
L 581 0 
L 581 3500 
L 1159 3500 
L 1159 2956 
Q 1356 3278 1631 3431 
Q 1906 3584 2284 3584 
Q 2666 3584 2933 3390 
Q 3200 3197 3328 2828 
z
" transform="scale(0.015625)"/>
       <path id="DejaVuSans-70" d="M 1159 525 
L 1159 -1331 
L 581 -1331 
L 581 3500 
L 1159 3500 
L 1159 2969 
Q 1341 3281 1617 3432 
Q 1894 3584 2278 3584 
Q 2916 3584 3314 3078 
Q 3713 2572 3713 1747 
Q 3713 922 3314 415 
Q 2916 -91 2278 -91 
Q 1894 -91 1617 61 
Q 1341 213 1159 525 
z
M 3116 1747 
Q 3116 2381 2855 2742 
Q 2594 3103 2138 3103 
Q 1681 3103 1420 2742 
Q 1159 2381 1159 1747 
Q 1159 1113 1420 752 
Q 1681 391 2138 391 
Q 2594 391 2855 752 
Q 3116 1113 3116 1747 
z
" transform="scale(0.015625)"/>
       <path id="DejaVuSans-6c" d="M 603 4863 
L 1178 4863 
L 1178 0 
L 603 0 
L 603 4863 
z
" transform="scale(0.015625)"/>
       <path id="DejaVuSans-65" d="M 3597 1894 
L 3597 1613 
L 953 1613 
Q 991 1019 1311 708 
Q 1631 397 2203 397 
Q 2534 397 2845 478 
Q 3156 559 3463 722 
L 3463 178 
Q 3153 47 2828 -22 
Q 2503 -91 2169 -91 
Q 1331 -91 842 396 
Q 353 884 353 1716 
Q 353 2575 817 3079 
Q 1281 3584 2069 3584 
Q 2775 3584 3186 3129 
Q 3597 2675 3597 1894 
z
M 3022 2063 
Q 3016 2534 2758 2815 
Q 2500 3097 2075 3097 
Q 1594 3097 1305 2825 
Q 1016 2553 972 2059 
L 3022 2063 
z
" transform="scale(0.015625)"/>
       <path id="DejaVuSans-20" transform="scale(0.015625)"/>
       <path id="DejaVuSans-49" d="M 628 4666 
L 1259 4666 
L 1259 0 
L 628 0 
L 628 4666 
z
" transform="scale(0.015625)"/>
       <path id="DejaVuSans-6e" d="M 3513 2113 
L 3513 0 
L 2938 0 
L 2938 2094 
Q 2938 2591 2744 2837 
Q 2550 3084 2163 3084 
Q 1697 3084 1428 2787 
Q 1159 2491 1159 1978 
L 1159 0 
L 581 0 
L 581 3500 
L 1159 3500 
L 1159 2956 
Q 1366 3272 1645 3428 
Q 1925 3584 2291 3584 
Q 2894 3584 3203 3211 
Q 3513 2838 3513 2113 
z
" transform="scale(0.015625)"/>
       <path id="DejaVuSans-64" d="M 2906 2969 
L 2906 4863 
L 3481 4863 
L 3481 0 
L 2906 0 
L 2906 525 
Q 2725 213 2448 61 
Q 2172 -91 1784 -91 
Q 1150 -91 751 415 
Q 353 922 353 1747 
Q 353 2572 751 3078 
Q 1150 3584 1784 3584 
Q 2172 3584 2448 3432 
Q 2725 3281 2906 2969 
z
M 947 1747 
Q 947 1113 1208 752 
Q 1469 391 1925 391 
Q 2381 391 2643 752 
Q 2906 1113 2906 1747 
Q 2906 2381 2643 2742 
Q 2381 3103 1925 3103 
Q 1469 3103 1208 2742 
Q 947 2381 947 1747 
z
" transform="scale(0.015625)"/>
       <path id="DejaVuSans-78" d="M 3513 3500 
L 2247 1797 
L 3578 0 
L 2900 0 
L 1881 1375 
L 863 0 
L 184 0 
L 1544 1831 
L 300 3500 
L 978 3500 
L 1906 2253 
L 2834 3500 
L 3513 3500 
z
" transform="scale(0.015625)"/>
      </defs>
      <use xlink:href="#DejaVuSans-53"/>
      <use xlink:href="#DejaVuSans-61" x="63.476562"/>
      <use xlink:href="#DejaVuSans-6d" x="124.755859"/>
      <use xlink:href="#DejaVuSans-70" x="222.167969"/>
      <use xlink:href="#DejaVuSans-6c" x="285.644531"/>
      <use xlink:href="#DejaVuSans-65" x="313.427734"/>
      <use xlink:href="#DejaVuSans-20" x="374.951172"/>
      <use xlink:href="#DejaVuSans-49" x="406.738281"/>
      <use xlink:href="#DejaVuSans-6e" x="436.230469"/>
      <use xlink:href="#DejaVuSans-64" x="499.609375"/>
      <use xlink:href="#DejaVuSans-65" x="563.085938"/>
      <use xlink:href="#DejaVuSans-78" x="622.859375"/>
     </g>
    </g>
   </g>
   <g id="matplotlib.axis_2">
    <g id="ytick_1">
     <g id="line2d_6">
      <defs>
       <path id="m2395a1f091" d="M 0 0 
L -3.5 0 
" style="stroke: #000000; stroke-width: 0.8"/>
      </defs>
      <g>
       <use xlink:href="#m2395a1f091" x="135" y="320.251625" style="stroke: #000000; stroke-width: 0.8"/>
      </g>
     </g>
     <g id="text_7">
      <!-- 10 -->
      <g transform="translate(115.275 324.050844) scale(0.1 -0.1)">
       <use xlink:href="#DejaVuSans-31"/>
       <use xlink:href="#DejaVuSans-30" x="63.623047"/>
      </g>
     </g>
    </g>
    <g id="ytick_2">
     <g id="line2d_7">
      <g>
       <use xlink:href="#m2395a1f091" x="135" y="275.153376" style="stroke: #000000; stroke-width: 0.8"/>
      </g>
     </g>
     <g id="text_8">
      <!-- 20 -->
      <g transform="translate(115.275 278.952594) scale(0.1 -0.1)">
       <use xlink:href="#DejaVuSans-32"/>
       <use xlink:href="#DejaVuSans-30" x="63.623047"/>
      </g>
     </g>
    </g>
    <g id="ytick_3">
     <g id="line2d_8">
      <g>
       <use xlink:href="#m2395a1f091" x="135" y="230.055126" style="stroke: #000000; stroke-width: 0.8"/>
      </g>
     </g>
     <g id="text_9">
      <!-- 30 -->
      <g transform="translate(115.275 233.854345) scale(0.1 -0.1)">
       <use xlink:href="#DejaVuSans-33"/>
       <use xlink:href="#DejaVuSans-30" x="63.623047"/>
      </g>
     </g>
    </g>
    <g id="ytick_4">
     <g id="line2d_9">
      <g>
       <use xlink:href="#m2395a1f091" x="135" y="184.956877" style="stroke: #000000; stroke-width: 0.8"/>
      </g>
     </g>
     <g id="text_10">
      <!-- 40 -->
      <g transform="translate(115.275 188.756095) scale(0.1 -0.1)">
       <use xlink:href="#DejaVuSans-34"/>
       <use xlink:href="#DejaVuSans-30" x="63.623047"/>
      </g>
     </g>
    </g>
    <g id="ytick_5">
     <g id="line2d_10">
      <g>
       <use xlink:href="#m2395a1f091" x="135" y="139.858627" style="stroke: #000000; stroke-width: 0.8"/>
      </g>
     </g>
     <g id="text_11">
      <!-- 50 -->
      <g transform="translate(115.275 143.657846) scale(0.1 -0.1)">
       <defs>
        <path id="DejaVuSans-35" d="M 691 4666 
L 3169 4666 
L 3169 4134 
L 1269 4134 
L 1269 2991 
Q 1406 3038 1543 3061 
Q 1681 3084 1819 3084 
Q 2600 3084 3056 2656 
Q 3513 2228 3513 1497 
Q 3513 744 3044 326 
Q 2575 -91 1722 -91 
Q 1428 -91 1123 -41 
Q 819 9 494 109 
L 494 744 
Q 775 591 1075 516 
Q 1375 441 1709 441 
Q 2250 441 2565 725 
Q 2881 1009 2881 1497 
Q 2881 1984 2565 2268 
Q 2250 2553 1709 2553 
Q 1456 2553 1204 2497 
Q 953 2441 691 2322 
L 691 4666 
z
" transform="scale(0.015625)"/>
       </defs>
       <use xlink:href="#DejaVuSans-35"/>
       <use xlink:href="#DejaVuSans-30" x="63.623047"/>
      </g>
     </g>
    </g>
    <g id="ytick_6">
     <g id="line2d_11">
      <g>
       <use xlink:href="#m2395a1f091" x="135" y="94.760378" style="stroke: #000000; stroke-width: 0.8"/>
      </g>
     </g>
     <g id="text_12">
      <!-- 60 -->
      <g transform="translate(115.275 98.559596) scale(0.1 -0.1)">
       <defs>
        <path id="DejaVuSans-36" d="M 2113 2584 
Q 1688 2584 1439 2293 
Q 1191 2003 1191 1497 
Q 1191 994 1439 701 
Q 1688 409 2113 409 
Q 2538 409 2786 701 
Q 3034 994 3034 1497 
Q 3034 2003 2786 2293 
Q 2538 2584 2113 2584 
z
M 3366 4563 
L 3366 3988 
Q 3128 4100 2886 4159 
Q 2644 4219 2406 4219 
Q 1781 4219 1451 3797 
Q 1122 3375 1075 2522 
Q 1259 2794 1537 2939 
Q 1816 3084 2150 3084 
Q 2853 3084 3261 2657 
Q 3669 2231 3669 1497 
Q 3669 778 3244 343 
Q 2819 -91 2113 -91 
Q 1303 -91 875 529 
Q 447 1150 447 2328 
Q 447 3434 972 4092 
Q 1497 4750 2381 4750 
Q 2619 4750 2861 4703 
Q 3103 4656 3366 4563 
z
" transform="scale(0.015625)"/>
       </defs>
       <use xlink:href="#DejaVuSans-36"/>
       <use xlink:href="#DejaVuSans-30" x="63.623047"/>
      </g>
     </g>
    </g>
    <g id="ytick_7">
     <g id="line2d_12">
      <g>
       <use xlink:href="#m2395a1f091" x="135" y="49.662128" style="stroke: #000000; stroke-width: 0.8"/>
      </g>
     </g>
     <g id="text_13">
      <!-- 70 -->
      <g transform="translate(115.275 53.461347) scale(0.1 -0.1)">
       <defs>
        <path id="DejaVuSans-37" d="M 525 4666 
L 3525 4666 
L 3525 4397 
L 1831 0 
L 1172 0 
L 2766 4134 
L 525 4134 
L 525 4666 
z
" transform="scale(0.015625)"/>
       </defs>
       <use xlink:href="#DejaVuSans-37"/>
       <use xlink:href="#DejaVuSans-30" x="63.623047"/>
      </g>
     </g>
    </g>
    <g id="text_14">
     <!-- Target Value -->
     <g transform="translate(109.195312 212.592187) rotate(-90) scale(0.1 -0.1)">
      <defs>
       <path id="DejaVuSans-54" d="M -19 4666 
L 3928 4666 
L 3928 4134 
L 2272 4134 
L 2272 0 
L 1638 0 
L 1638 4134 
L -19 4134 
L -19 4666 
z
" transform="scale(0.015625)"/>
       <path id="DejaVuSans-72" d="M 2631 2963 
Q 2534 3019 2420 3045 
Q 2306 3072 2169 3072 
Q 1681 3072 1420 2755 
Q 1159 2438 1159 1844 
L 1159 0 
L 581 0 
L 581 3500 
L 1159 3500 
L 1159 2956 
Q 1341 3275 1631 3429 
Q 1922 3584 2338 3584 
Q 2397 3584 2469 3576 
Q 2541 3569 2628 3553 
L 2631 2963 
z
" transform="scale(0.015625)"/>
       <path id="DejaVuSans-67" d="M 2906 1791 
Q 2906 2416 2648 2759 
Q 2391 3103 1925 3103 
Q 1463 3103 1205 2759 
Q 947 2416 947 1791 
Q 947 1169 1205 825 
Q 1463 481 1925 481 
Q 2391 481 2648 825 
Q 2906 1169 2906 1791 
z
M 3481 434 
Q 3481 -459 3084 -895 
Q 2688 -1331 1869 -1331 
Q 1566 -1331 1297 -1286 
Q 1028 -1241 775 -1147 
L 775 -588 
Q 1028 -725 1275 -790 
Q 1522 -856 1778 -856 
Q 2344 -856 2625 -561 
Q 2906 -266 2906 331 
L 2906 616 
Q 2728 306 2450 153 
Q 2172 0 1784 0 
Q 1141 0 747 490 
Q 353 981 353 1791 
Q 353 2603 747 3093 
Q 1141 3584 1784 3584 
Q 2172 3584 2450 3431 
Q 2728 3278 2906 2969 
L 2906 3500 
L 3481 3500 
L 3481 434 
z
" transform="scale(0.015625)"/>
       <path id="DejaVuSans-74" d="M 1172 4494 
L 1172 3500 
L 2356 3500 
L 2356 3053 
L 1172 3053 
L 1172 1153 
Q 1172 725 1289 603 
Q 1406 481 1766 481 
L 2356 481 
L 2356 0 
L 1766 0 
Q 1100 0 847 248 
Q 594 497 594 1153 
L 594 3053 
L 172 3053 
L 172 3500 
L 594 3500 
L 594 4494 
L 1172 4494 
z
" transform="scale(0.015625)"/>
       <path id="DejaVuSans-56" d="M 1831 0 
L 50 4666 
L 709 4666 
L 2188 738 
L 3669 4666 
L 4325 4666 
L 2547 0 
L 1831 0 
z
" transform="scale(0.015625)"/>
       <path id="DejaVuSans-75" d="M 544 1381 
L 544 3500 
L 1119 3500 
L 1119 1403 
Q 1119 906 1312 657 
Q 1506 409 1894 409 
Q 2359 409 2629 706 
Q 2900 1003 2900 1516 
L 2900 3500 
L 3475 3500 
L 3475 0 
L 2900 0 
L 2900 538 
Q 2691 219 2414 64 
Q 2138 -91 1772 -91 
Q 1169 -91 856 284 
Q 544 659 544 1381 
z
M 1991 3584 
L 1991 3584 
z
" transform="scale(0.015625)"/>
      </defs>
      <use xlink:href="#DejaVuSans-54"/>
      <use xlink:href="#DejaVuSans-61" x="44.583984"/>
      <use xlink:href="#DejaVuSans-72" x="105.863281"/>
      <use xlink:href="#DejaVuSans-67" x="145.226562"/>
      <use xlink:href="#DejaVuSans-65" x="208.703125"/>
      <use xlink:href="#DejaVuSans-74" x="270.226562"/>
      <use xlink:href="#DejaVuSans-20" x="309.435547"/>
      <use xlink:href="#DejaVuSans-56" x="341.222656"/>
      <use xlink:href="#DejaVuSans-61" x="401.880859"/>
      <use xlink:href="#DejaVuSans-6c" x="463.160156"/>
      <use xlink:href="#DejaVuSans-75" x="490.943359"/>
      <use xlink:href="#DejaVuSans-65" x="554.322266"/>
     </g>
    </g>
   </g>
   <g id="line2d_13">
    <path d="M 173.045455 113.408496 
L 174.786665 100.226293 
L 176.527876 76.590296 
L 178.269087 107.532205 
L 180.010297 92.789583 
L 181.751508 108.222208 
L 183.492719 68.941637 
L 185.23393 85.57387 
L 186.97514 107.0226 
L 188.716351 106.810634 
L 190.457562 108.492786 
L 192.198773 162.470889 
L 193.939983 101.678451 
L 195.681194 87.107211 
L 197.422405 70.632821 
L 199.163616 97.137057 
L 202.646037 65.302211 
L 204.387248 81.29404 
L 206.128458 114.517923 
L 207.869669 95.423319 
L 209.61088 115.938512 
L 211.352091 107.432992 
L 213.093301 64.959447 
L 214.834512 104.082192 
L 216.575723 87.788182 
L 218.316934 84.694455 
L 220.058144 67.944962 
L 221.799355 93.105269 
L 223.540566 115.257524 
L 225.281777 286.752648 
L 227.022987 64.206307 
L 228.764198 92.640754 
L 230.505409 89.601133 
L 232.24662 105.34043 
L 233.98783 106.594161 
L 235.729041 116.073818 
L 237.470252 70.447916 
L 239.211462 111.839079 
L 240.952673 117.674804 
L 242.693884 102.120412 
L 244.435095 81.203841 
L 246.176305 77.257745 
L 247.917516 92.57311 
L 249.658727 89.190741 
L 251.399938 102.86003 
L 253.141148 105.574932 
L 254.882359 116.060279 
L 256.62357 116.908125 
L 258.364781 84.554641 
L 260.105991 75.602636 
L 261.847202 86.200735 
L 263.588413 55.8 
L 265.329623 84.590717 
L 267.070834 69.960848 
L 268.812045 193.110634 
L 270.553256 98.196869 
L 272.294466 114.549492 
L 274.035677 103.77552 
L 275.776888 116.006156 
L 277.518099 100.735899 
L 279.259309 230.212969 
L 281.00052 117.458331 
L 282.741731 80.337949 
L 284.482942 89.456829 
L 286.224152 102.147473 
L 287.965363 179.982537 
L 289.706574 92.857227 
L 291.447784 75.778526 
L 293.188995 105.908665 
L 294.930206 78.349125 
L 296.671417 93.524693 
L 298.412627 118.040088 
L 300.153838 89.808592 
L 301.895049 90.173893 
L 303.63626 99.531766 
L 305.37747 97.948827 
L 307.118681 94.02076 
L 308.859892 91.143506 
L 310.601103 113.142425 
L 312.342313 108.894164 
L 314.083524 114.296943 
L 315.824735 118.648924 
L 317.565945 75.886771 
L 319.307156 77.176578 
L 321.048367 102.72923 
L 322.789578 99.919622 
L 324.530788 172.807407 
L 326.271999 95.775081 
L 328.01321 78.385201 
L 329.754421 67.570646 
L 331.495631 99.811377 
L 333.236842 113.169486 
L 334.978053 80.567961 
L 336.719264 81.181287 
L 338.460474 91.977813 
L 340.201685 113.602433 
L 341.942896 75.868707 
L 343.684107 93.763703 
L 345.425317 107.36533 
L 347.166528 112.285564 
L 348.907739 155.891056 
L 350.648949 108.109455 
L 352.39016 107.112781 
L 354.131371 126.157787 
L 355.872582 88.460155 
L 357.613792 115.559688 
L 359.355003 77.226176 
L 361.096214 119.546368 
L 362.837425 85.321321 
L 364.578635 115.915975 
L 366.319846 107.18495 
L 368.061057 116.583424 
L 369.802268 75.868707 
L 371.543478 98.160793 
L 373.284689 107.685541 
L 375.0259 114.824595 
L 376.76711 95.802143 
L 378.508321 141.085297 
L 380.249532 94.706255 
L 381.990743 92.45585 
L 383.731953 108.781429 
L 385.473164 95.928417 
L 387.214375 65.040648 
L 388.955586 112.79517 
L 390.696796 100.48335 
L 392.438007 67.133192 
L 394.179218 109.714966 
L 395.920429 103.617677 
L 397.661639 109.985544 
L 399.40285 70.042014 
L 401.144061 80.595023 
L 402.885271 94.724302 
L 404.626482 83.467769 
L 406.367693 84.514058 
L 408.108904 88.35191 
L 409.850114 123.456389 
L 411.591325 96.37941 
L 413.332536 143.353748 
L 415.073747 88.676628 
L 416.814957 97.903719 
L 418.556168 113.742229 
L 420.297379 126.026988 
L 422.03859 95.98254 
L 423.7798 82.525217 
L 425.521011 83.341494 
L 427.262222 117.070475 
L 429.003432 105.565918 
L 430.744643 117.029892 
L 432.485854 84.117188 
L 434.227065 101.836294 
L 435.968275 84.369737 
L 437.709486 91.932722 
L 439.450697 82.394435 
L 441.191908 92.43782 
L 442.933118 95.143709 
L 444.674329 109.363186 
L 446.41554 84.712485 
L 448.156751 77.965794 
L 449.897961 117.002831 
L 451.639172 105.520827 
L 453.380383 85.655036 
L 455.121594 116.583424 
L 456.862804 94.625088 
L 460.345226 72.549476 
L 462.086436 96.117829 
L 463.827647 95.188816 
L 465.568858 72.030856 
L 467.310069 127.718172 
L 469.051279 70.930478 
L 470.79249 113.7242 
L 472.533701 89.073481 
L 474.274912 88.076824 
L 476.016122 91.738803 
L 477.757333 305.698419 
L 479.498544 87.634846 
L 481.239755 69.875174 
L 482.980965 102.724723 
L 484.722176 91.68468 
L 486.463387 113.823413 
L 488.204597 71.728691 
L 489.945808 113.259685 
L 491.687019 86.899752 
L 493.42823 86.520929 
L 495.16944 80.153062 
L 496.910651 113.376927 
L 498.651862 73.99716 
L 500.393073 79.855405 
L 502.134283 112.763601 
L 503.875494 117.87323 
L 505.616705 238.438887 
L 507.357916 111.816542 
L 509.099126 111.9834 
L 510.840337 91.93723 
L 512.581548 98.255499 
L 514.322758 83.467769 
L 516.063969 78.642257 
L 517.80518 126.829743 
L 519.546391 102.810414 
L 521.287601 89.22231 
L 523.028812 99.37843 
L 524.770023 90.584286 
L 526.511234 84.70347 
L 528.252444 112.668895 
L 529.993655 78.750502 
L 531.734866 107.297685 
L 533.476077 76.563217 
L 535.217287 80.964832 
L 536.958498 98.882364 
L 538.699709 70.456931 
L 540.440919 57.928638 
L 542.18213 72.486339 
L 543.923341 123.934443 
L 545.664552 87.607802 
L 547.405762 96.609405 
L 549.146973 100.844127 
L 550.888184 81.506006 
L 552.629395 88.514278 
L 554.370605 86.597588 
L 556.111816 85.316796 
L 557.853027 99.477661 
L 559.594238 84.775622 
L 561.335448 83.346019 
L 563.076659 109.015931 
L 564.81787 110.896527 
L 566.559081 84.302092 
L 568.300291 83.693274 
L 570.041502 114.856163 
L 571.782713 78.461877 
L 573.523923 112.939474 
L 575.265134 100.749421 
L 577.006345 97.705293 
L 578.747556 103.198253 
L 580.488766 91.490761 
L 582.229977 101.759617 
L 583.971188 103.608662 
L 585.712399 76.982641 
L 587.453609 101.791186 
L 589.19482 76.206965 
L 590.936031 86.115044 
L 592.677242 121.968156 
L 594.418452 78.425784 
L 596.159663 106.09357 
L 597.900874 84.126203 
L 599.642084 100.920803 
L 601.383295 99.342354 
L 603.124506 76.234009 
L 604.865717 90.908987 
L 606.606927 74.53381 
L 608.348138 125.04836 
L 610.089349 70.993615 
L 611.83056 120.231863 
L 613.57177 86.800539 
L 615.312981 86.245826 
L 617.054192 113.322822 
L 618.795403 87.427405 
L 620.536613 101.804725 
L 622.277824 108.032796 
L 624.019035 113.110856 
L 625.760245 92.888796 
L 627.501456 136.458212 
L 629.242667 89.168187 
L 630.983878 76.91049 
L 632.725088 77.420095 
L 634.466299 76.743632 
L 636.20751 218.546061 
L 637.948721 115.929497 
L 639.689931 108.073379 
L 641.431142 74.93517 
L 643.172353 95.45038 
L 644.913564 88.383478 
L 646.654774 74.605962 
L 648.395985 73.483013 
L 650.137196 113.381452 
L 651.878406 103.392189 
L 653.619617 81.397761 
L 655.360828 124.493647 
L 657.102039 106.972984 
L 658.843249 94.043314 
L 660.58446 89.398199 
L 662.325671 85.10034 
L 664.066882 118.12578 
L 665.808092 71.28673 
L 667.549303 82.475619 
L 669.290514 127.06877 
L 671.031725 58.564518 
L 672.772935 68.716132 
L 674.514146 100.230801 
L 676.255357 92.117627 
L 677.996568 83.318957 
L 679.737778 91.093891 
L 681.478989 111.667714 
L 683.2202 96.640974 
L 684.96141 96.149398 
L 686.702621 87.179363 
L 688.443832 88.69015 
L 690.185043 74.790866 
L 691.926253 81.501498 
L 693.667464 99.55432 
L 695.408675 97.272346 
L 697.149886 72.788503 
L 698.891096 111.600069 
L 700.632307 102.296301 
L 702.373518 103.924349 
L 704.114729 98.282543 
L 707.59715 73.023023 
L 709.338361 82.791305 
L 711.079571 81.961489 
L 712.820782 84.437382 
L 714.561993 113.083795 
L 716.303204 99.865499 
L 718.044414 112.673403 
L 719.785625 85.208568 
L 721.526836 118.630878 
L 723.268047 95.220385 
L 725.009257 75.620666 
L 726.750468 86.196228 
L 728.491679 111.915755 
L 730.23289 113.381452 
L 731.9741 95.815682 
L 733.715311 81.560128 
L 735.456522 91.941737 
L 737.197732 109.020438 
L 738.938943 64.657282 
L 740.680154 88.157991 
L 742.421365 77.537355 
L 744.162575 97.303915 
L 745.903786 86.88623 
L 747.644997 124.209529 
L 749.386208 96.776263 
L 751.127418 80.31992 
L 752.868629 82.259146 
L 754.60984 104.848854 
L 756.351051 74.587932 
L 758.092261 93.628414 
L 759.833472 107.617896 
L 761.574683 94.097436 
L 763.315893 114.52243 
L 765.057104 98.052548 
L 766.798315 72.928299 
L 768.539526 95.937449 
L 770.280736 101.380794 
L 772.021947 81.185812 
L 773.763158 77.298328 
L 775.504369 113.566339 
L 777.245579 92.329575 
L 778.98679 68.756732 
L 780.728001 113.187516 
L 782.469212 74.763822 
L 784.210422 101.597267 
L 785.951633 103.392189 
L 787.692844 61.193747 
L 789.434055 101.461978 
L 791.175265 106.580621 
L 792.916476 104.970621 
L 794.657687 117.093029 
L 796.398897 72.355557 
L 798.140108 82.926594 
L 799.881319 83.215219 
L 801.62253 84.816205 
L 803.36374 81.902859 
L 805.104951 120.358138 
L 806.846162 104.80827 
L 808.587373 83.048362 
L 810.328583 80.410118 
L 812.069794 82.457572 
L 815.552216 91.887614 
L 817.293426 108.646122 
L 819.034637 91.535852 
L 820.775848 92.834691 
L 822.517058 99.581381 
L 824.258269 113.282222 
L 825.99948 110.815361 
L 827.740691 73.555165 
L 829.481901 269.813743 
L 831.223112 79.269123 
L 832.964323 110.463581 
L 834.705534 92.839198 
L 836.446744 114.63969 
L 838.187955 123.61874 
L 839.929166 91.116445 
L 841.670377 64.58513 
L 843.411587 84.874835 
L 845.152798 71.8144 
L 846.894009 111.302412 
L 848.635219 85.11837 
L 850.37643 90.31369 
L 852.117641 89.961927 
L 853.858852 79.665993 
L 855.600062 113.169486 
L 857.341273 78.137159 
L 859.082484 106.851217 
L 860.823695 81.925413 
L 862.564905 107.054168 
L 864.306116 85.28072 
L 866.047327 87.233485 
L 867.788538 103.910809 
L 869.529748 110.531243 
L 871.270959 81.812677 
L 873.01217 90.178401 
L 874.75338 307.8 
L 876.494591 78.971483 
L 878.235802 72.107515 
L 879.977013 78.322063 
L 881.718223 114.130067 
L 883.459434 282.24733 
L 885.200645 88.342895 
L 886.941856 107.789262 
L 888.683066 118.996179 
L 890.424277 77.122455 
L 892.165488 100.830605 
L 893.906699 105.881604 
L 895.647909 106.711421 
L 897.38912 69.708299 
L 899.130331 112.402807 
L 900.871542 71.661047 
L 902.612752 85.479164 
L 904.353963 105.358459 
L 906.095174 88.915638 
L 907.836384 94.359 
L 909.577595 98.088624 
L 911.318806 107.577296 
L 913.060017 66.713768 
L 914.801227 100.808051 
L 916.542438 98.499016 
L 918.283649 82.768751 
L 920.02486 93.817826 
L 921.76607 114.324004 
L 923.507281 74.064805 
L 925.248492 113.354391 
L 926.989703 90.322705 
L 928.730913 85.375426 
L 930.472124 91.468207 
L 932.213335 113.169486 
L 933.954545 80.337949 
L 933.954545 80.337949 
" clip-path="url(#p0554bdf1e7)" style="fill: none; stroke: #0000ff; stroke-width: 1.5; stroke-linecap: square"/>
   </g>
   <g id="line2d_14">
    <path d="M 173.045455 88.653197 
L 174.786665 81.070427 
L 176.527876 79.280529 
L 178.269087 70.269687 
L 180.010297 80.886177 
L 181.751508 85.65077 
L 183.492719 88.863631 
L 185.23393 75.486236 
L 186.97514 80.726028 
L 188.716351 75.483277 
L 190.457562 91.98306 
L 192.198773 133.674925 
L 193.939983 95.835518 
L 195.681194 105.101816 
L 197.422405 88.376167 
L 199.163616 96.540229 
L 200.904826 87.664832 
L 202.646037 85.621472 
L 204.387248 100.586176 
L 206.128458 74.432618 
L 207.869669 97.182819 
L 209.61088 90.786101 
L 211.352091 86.105221 
L 213.093301 85.741657 
L 214.834512 90.965277 
L 216.575723 88.580271 
L 218.316934 93.997844 
L 220.058144 94.622405 
L 221.799355 80.967859 
L 223.540566 97.88858 
L 225.281777 273.329491 
L 227.022987 80.095326 
L 228.764198 105.421769 
L 230.505409 77.618212 
L 232.24662 91.911975 
L 233.98783 85.832905 
L 235.729041 114.885754 
L 237.470252 89.704234 
L 239.211462 91.65048 
L 242.693884 78.378887 
L 244.435095 92.246034 
L 246.176305 84.580395 
L 247.917516 106.300529 
L 249.658727 81.947485 
L 251.399938 104.844106 
L 253.141148 83.270839 
L 254.882359 96.006694 
L 256.62357 114.256789 
L 258.364781 80.96607 
L 260.105991 84.615147 
L 261.847202 76.672254 
L 263.588413 86.03343 
L 265.329623 77.136975 
L 267.070834 88.282872 
L 268.812045 170.889341 
L 270.553256 95.717294 
L 272.294466 82.817678 
L 274.035677 94.006033 
L 275.776888 127.643921 
L 277.518099 77.771995 
L 279.259309 135.998239 
L 282.741731 71.532914 
L 284.482942 103.556638 
L 286.224152 73.228159 
L 287.965363 199.055103 
L 289.706574 76.974693 
L 291.447784 91.165871 
L 293.188995 93.444438 
L 294.930206 79.501285 
L 296.671417 73.372703 
L 298.412627 90.610951 
L 300.153838 85.184156 
L 301.895049 101.646022 
L 303.63626 97.860211 
L 305.37747 73.30327 
L 307.118681 83.380804 
L 308.859892 86.629828 
L 310.601103 77.416844 
L 312.342313 105.241113 
L 314.083524 95.915497 
L 315.824735 75.395333 
L 317.565945 97.537248 
L 319.307156 81.649639 
L 321.048367 77.33332 
L 322.789578 87.067161 
L 324.530788 208.442549 
L 326.271999 108.128276 
L 328.01321 99.218488 
L 329.754421 84.051969 
L 331.495631 91.378594 
L 333.236842 88.375943 
L 334.978053 77.103514 
L 336.719264 76.323537 
L 338.460474 83.074666 
L 340.201685 91.48622 
L 341.942896 90.501347 
L 343.684107 113.625107 
L 345.425317 85.129414 
L 347.166528 85.496677 
L 348.907739 153.855627 
L 350.648949 96.909436 
L 352.39016 93.580691 
L 354.131371 105.844806 
L 355.872582 120.552728 
L 357.613792 110.11495 
L 359.355003 95.017124 
L 361.096214 86.122682 
L 362.837425 85.985363 
L 364.578635 107.87583 
L 366.319846 90.708014 
L 368.061057 90.943445 
L 369.802268 81.121505 
L 371.543478 95.81126 
L 373.284689 84.386769 
L 375.0259 105.361831 
L 376.76711 86.824659 
L 378.508321 263.905926 
L 380.249532 80.899062 
L 381.990743 83.290795 
L 383.731953 81.642241 
L 385.473164 86.390715 
L 387.214375 98.214416 
L 388.955586 115.803601 
L 390.696796 78.98153 
L 392.438007 100.773523 
L 394.179218 94.21258 
L 395.920429 89.254498 
L 397.661639 101.632913 
L 399.40285 78.606852 
L 401.144061 82.841436 
L 402.885271 93.867475 
L 404.626482 82.055248 
L 406.367693 91.057609 
L 408.108904 77.960822 
L 409.850114 102.760507 
L 411.591325 104.354955 
L 413.332536 117.126043 
L 415.073747 91.482951 
L 416.814957 104.130465 
L 418.556168 107.364607 
L 420.297379 93.181361 
L 422.03859 94.871014 
L 423.7798 98.540459 
L 427.262222 76.967881 
L 429.003432 83.953065 
L 430.744643 103.324562 
L 432.485854 87.588826 
L 434.227065 97.585383 
L 435.968275 86.192133 
L 437.709486 80.386635 
L 439.450697 87.101981 
L 441.191908 83.158637 
L 442.933118 91.677919 
L 444.674329 98.989732 
L 446.41554 94.92696 
L 448.156751 83.988281 
L 449.897961 102.465035 
L 451.639172 92.378674 
L 453.380383 84.521679 
L 455.121594 91.349726 
L 456.862804 109.632079 
L 460.345226 89.087072 
L 462.086436 77.45292 
L 463.827647 102.277377 
L 465.568858 89.409571 
L 467.310069 95.246311 
L 469.051279 78.695726 
L 470.79249 92.717138 
L 472.533701 98.518611 
L 474.274912 91.454789 
L 476.016122 82.064022 
L 477.757333 300.904455 
L 479.498544 86.273747 
L 481.239755 99.345055 
L 482.980965 87.618588 
L 484.722176 78.374965 
L 486.463387 79.525938 
L 488.204597 94.276268 
L 489.945808 123.219392 
L 491.687019 95.38277 
L 493.42823 75.44309 
L 495.16944 83.048258 
L 496.910651 93.292427 
L 498.651862 83.315757 
L 500.393073 75.864028 
L 502.134283 90.179106 
L 503.875494 98.638038 
L 505.616705 80.984478 
L 509.099126 97.915968 
L 510.840337 83.3529 
L 512.581548 78.285712 
L 514.322758 91.99032 
L 516.063969 83.058064 
L 517.80518 248.803464 
L 519.546391 101.201377 
L 521.287601 93.726285 
L 523.028812 98.105414 
L 524.770023 84.470791 
L 526.511234 82.851879 
L 528.252444 102.48315 
L 529.993655 76.027772 
L 531.734866 95.806564 
L 533.476077 97.987724 
L 535.217287 88.938157 
L 536.958498 104.367066 
L 538.699709 88.019278 
L 540.440919 69.462596 
L 542.18213 98.039697 
L 543.923341 92.971649 
L 545.664552 88.803006 
L 547.405762 72.370799 
L 549.146973 85.498604 
L 550.888184 88.186187 
L 552.629395 95.722146 
L 554.370605 104.234151 
L 556.111816 118.131594 
L 557.853027 75.065436 
L 559.594238 92.980629 
L 561.335448 90.905597 
L 563.076659 83.475183 
L 564.81787 104.245316 
L 566.559081 79.360973 
L 568.300291 94.658308 
L 571.782713 83.984514 
L 573.523923 77.763479 
L 575.265134 113.299322 
L 577.006345 86.117934 
L 578.747556 99.612726 
L 580.488766 85.639278 
L 582.229977 87.262147 
L 583.971188 94.003487 
L 585.712399 80.303559 
L 587.453609 100.61267 
L 589.19482 99.54663 
L 590.936031 90.723686 
L 592.677242 104.66794 
L 594.418452 82.090705 
L 596.159663 100.923573 
L 597.900874 78.304963 
L 599.642084 95.406511 
L 601.383295 82.850451 
L 603.124506 73.236829 
L 604.865717 103.592422 
L 606.606927 86.087277 
L 608.348138 72.846066 
L 610.089349 79.528949 
L 611.83056 81.18927 
L 613.57177 103.759108 
L 615.312981 89.587818 
L 617.054192 98.601257 
L 618.795403 79.686568 
L 620.536613 139.9293 
L 622.277824 232.58238 
L 624.019035 86.49084 
L 625.760245 92.604936 
L 627.501456 102.05041 
L 629.242667 85.80543 
L 630.983878 108.718463 
L 632.725088 107.179118 
L 634.466299 77.652241 
L 636.20751 76.666921 
L 637.948721 106.123263 
L 639.689931 107.273428 
L 641.431142 87.951891 
L 643.172353 89.043633 
L 644.913564 77.14439 
L 646.654774 85.009815 
L 648.395985 79.998573 
L 650.137196 74.200645 
L 651.878406 95.35865 
L 653.619617 71.328294 
L 655.360828 87.880513 
L 657.102039 108.054386 
L 658.843249 91.602447 
L 660.58446 84.011971 
L 662.325671 86.55365 
L 664.066882 88.474572 
L 665.808092 78.507639 
L 667.549303 76.904451 
L 669.290514 87.100157 
L 671.031725 81.987655 
L 672.772935 78.33199 
L 674.514146 106.270733 
L 676.255357 80.431399 
L 677.996568 85.226907 
L 679.737778 79.777679 
L 681.478989 110.762924 
L 683.2202 81.750676 
L 684.96141 71.5047 
L 686.702621 99.943208 
L 688.443832 82.478354 
L 690.185043 104.192725 
L 691.926253 88.93408 
L 693.667464 101.591848 
L 695.408675 87.274998 
L 697.149886 80.898615 
L 698.891096 113.140481 
L 700.632307 91.940292 
L 702.373518 98.403071 
L 704.114729 89.675986 
L 705.855939 70.919502 
L 707.59715 78.588083 
L 709.338361 85.113725 
L 711.079571 93.998051 
L 712.820782 87.517827 
L 714.561993 97.777617 
L 716.303204 87.542015 
L 718.044414 100.955606 
L 719.785625 87.910585 
L 721.526836 96.702184 
L 723.268047 95.087246 
L 725.009257 81.498109 
L 726.750468 96.462658 
L 728.491679 88.264773 
L 730.23289 85.518663 
L 731.9741 91.753306 
L 733.715311 114.873969 
L 735.456522 105.064346 
L 737.197732 76.576602 
L 738.938943 82.256118 
L 740.680154 106.854073 
L 742.421365 106.635742 
L 744.162575 111.101973 
L 745.903786 70.966502 
L 747.644997 81.752757 
L 749.386208 84.384756 
L 751.127418 92.915737 
L 752.868629 85.915998 
L 754.60984 85.587633 
L 756.351051 94.754064 
L 758.092261 84.221321 
L 759.833472 75.43029 
L 761.574683 81.193726 
L 763.315893 94.644012 
L 765.057104 96.151806 
L 766.798315 81.504715 
L 768.539526 94.233465 
L 770.280736 88.746647 
L 772.021947 91.33918 
L 773.763158 104.472937 
L 775.504369 134.17266 
L 777.245579 99.421852 
L 778.98679 86.1617 
L 780.728001 98.403725 
L 782.469212 80.942295 
L 784.210422 83.430884 
L 785.951633 98.450657 
L 787.692844 71.233984 
L 789.434055 95.405444 
L 791.175265 84.161848 
L 792.916476 76.751769 
L 794.657687 83.57696 
L 796.398897 87.903119 
L 798.140108 77.109983 
L 799.881319 92.730247 
L 801.62253 80.553596 
L 803.36374 97.876469 
L 805.104951 79.635904 
L 806.846162 73.055641 
L 808.587373 90.345379 
L 810.328583 72.084944 
L 812.069794 92.391233 
L 813.811005 77.043353 
L 815.552216 105.379172 
L 817.293426 94.304791 
L 819.034637 101.968641 
L 820.775848 91.362302 
L 822.517058 79.04711 
L 824.258269 104.17867 
L 827.740691 85.475379 
L 829.481901 86.10338 
L 831.223112 109.512101 
L 832.964323 92.936708 
L 834.705534 81.620238 
L 836.446744 94.064698 
L 838.187955 101.869084 
L 839.929166 82.412103 
L 843.411587 101.864577 
L 845.152798 92.132921 
L 846.894009 83.808486 
L 848.635219 101.151968 
L 850.37643 82.363486 
L 852.117641 104.761115 
L 853.858852 82.642976 
L 855.600062 97.673879 
L 857.341273 76.74143 
L 859.082484 109.034287 
L 860.823695 92.401177 
L 862.564905 114.135727 
L 864.306116 87.628601 
L 866.047327 99.701205 
L 867.788538 80.715276 
L 869.529748 141.273212 
L 871.270959 87.274224 
L 873.01217 77.006761 
L 874.75338 166.531717 
L 876.494591 107.90893 
L 878.235802 86.959741 
L 879.977013 89.270875 
L 881.718223 96.054812 
L 883.459434 95.033089 
L 885.200645 78.721136 
L 886.941856 95.443189 
L 888.683066 83.435426 
L 890.424277 85.301863 
L 892.165488 82.076804 
L 893.906699 98.225427 
L 895.647909 80.240387 
L 897.38912 87.935978 
L 899.130331 89.229552 
L 900.871542 102.243985 
L 902.612752 104.797501 
L 904.353963 86.910763 
L 906.095174 74.842408 
L 907.836384 80.3241 
L 909.577595 78.867521 
L 911.318806 97.087631 
L 913.060017 100.363613 
L 914.801227 100.996792 
L 916.542438 89.324602 
L 918.283649 73.521755 
L 920.02486 76.398716 
L 921.76607 89.932217 
L 923.507281 75.534819 
L 925.248492 99.134535 
L 926.989703 83.106733 
L 928.730913 93.435355 
L 930.472124 79.179733 
L 933.954545 96.137888 
L 933.954545 96.137888 
" clip-path="url(#p0554bdf1e7)" style="fill: none; stroke-dasharray: 5.55,2.4; stroke-dashoffset: 0; stroke: #ff0000; stroke-width: 1.5"/>
   </g>
   <g id="patch_3">
    <path d="M 135 320.4 
L 135 43.2 
" style="fill: none; stroke: #000000; stroke-width: 0.8; stroke-linejoin: miter; stroke-linecap: square"/>
   </g>
   <g id="patch_4">
    <path d="M 972 320.4 
L 972 43.2 
" style="fill: none; stroke: #000000; stroke-width: 0.8; stroke-linejoin: miter; stroke-linecap: square"/>
   </g>
   <g id="patch_5">
    <path d="M 135 320.4 
L 972 320.4 
" style="fill: none; stroke: #000000; stroke-width: 0.8; stroke-linejoin: miter; stroke-linecap: square"/>
   </g>
   <g id="patch_6">
    <path d="M 135 43.2 
L 972 43.2 
" style="fill: none; stroke: #000000; stroke-width: 0.8; stroke-linejoin: miter; stroke-linecap: square"/>
   </g>
   <g id="text_15">
    <!-- Comparison of True Values and Predictions -->
    <g transform="translate(425.69625 37.2) scale(0.12 -0.12)">
     <defs>
      <path id="DejaVuSans-43" d="M 4122 4306 
L 4122 3641 
Q 3803 3938 3442 4084 
Q 3081 4231 2675 4231 
Q 1875 4231 1450 3742 
Q 1025 3253 1025 2328 
Q 1025 1406 1450 917 
Q 1875 428 2675 428 
Q 3081 428 3442 575 
Q 3803 722 4122 1019 
L 4122 359 
Q 3791 134 3420 21 
Q 3050 -91 2638 -91 
Q 1578 -91 968 557 
Q 359 1206 359 2328 
Q 359 3453 968 4101 
Q 1578 4750 2638 4750 
Q 3056 4750 3426 4639 
Q 3797 4528 4122 4306 
z
" transform="scale(0.015625)"/>
      <path id="DejaVuSans-6f" d="M 1959 3097 
Q 1497 3097 1228 2736 
Q 959 2375 959 1747 
Q 959 1119 1226 758 
Q 1494 397 1959 397 
Q 2419 397 2687 759 
Q 2956 1122 2956 1747 
Q 2956 2369 2687 2733 
Q 2419 3097 1959 3097 
z
M 1959 3584 
Q 2709 3584 3137 3096 
Q 3566 2609 3566 1747 
Q 3566 888 3137 398 
Q 2709 -91 1959 -91 
Q 1206 -91 779 398 
Q 353 888 353 1747 
Q 353 2609 779 3096 
Q 1206 3584 1959 3584 
z
" transform="scale(0.015625)"/>
      <path id="DejaVuSans-69" d="M 603 3500 
L 1178 3500 
L 1178 0 
L 603 0 
L 603 3500 
z
M 603 4863 
L 1178 4863 
L 1178 4134 
L 603 4134 
L 603 4863 
z
" transform="scale(0.015625)"/>
      <path id="DejaVuSans-73" d="M 2834 3397 
L 2834 2853 
Q 2591 2978 2328 3040 
Q 2066 3103 1784 3103 
Q 1356 3103 1142 2972 
Q 928 2841 928 2578 
Q 928 2378 1081 2264 
Q 1234 2150 1697 2047 
L 1894 2003 
Q 2506 1872 2764 1633 
Q 3022 1394 3022 966 
Q 3022 478 2636 193 
Q 2250 -91 1575 -91 
Q 1294 -91 989 -36 
Q 684 19 347 128 
L 347 722 
Q 666 556 975 473 
Q 1284 391 1588 391 
Q 1994 391 2212 530 
Q 2431 669 2431 922 
Q 2431 1156 2273 1281 
Q 2116 1406 1581 1522 
L 1381 1569 
Q 847 1681 609 1914 
Q 372 2147 372 2553 
Q 372 3047 722 3315 
Q 1072 3584 1716 3584 
Q 2034 3584 2315 3537 
Q 2597 3491 2834 3397 
z
" transform="scale(0.015625)"/>
      <path id="DejaVuSans-66" d="M 2375 4863 
L 2375 4384 
L 1825 4384 
Q 1516 4384 1395 4259 
Q 1275 4134 1275 3809 
L 1275 3500 
L 2222 3500 
L 2222 3053 
L 1275 3053 
L 1275 0 
L 697 0 
L 697 3053 
L 147 3053 
L 147 3500 
L 697 3500 
L 697 3744 
Q 697 4328 969 4595 
Q 1241 4863 1831 4863 
L 2375 4863 
z
" transform="scale(0.015625)"/>
      <path id="DejaVuSans-50" d="M 1259 4147 
L 1259 2394 
L 2053 2394 
Q 2494 2394 2734 2622 
Q 2975 2850 2975 3272 
Q 2975 3691 2734 3919 
Q 2494 4147 2053 4147 
L 1259 4147 
z
M 628 4666 
L 2053 4666 
Q 2838 4666 3239 4311 
Q 3641 3956 3641 3272 
Q 3641 2581 3239 2228 
Q 2838 1875 2053 1875 
L 1259 1875 
L 1259 0 
L 628 0 
L 628 4666 
z
" transform="scale(0.015625)"/>
      <path id="DejaVuSans-63" d="M 3122 3366 
L 3122 2828 
Q 2878 2963 2633 3030 
Q 2388 3097 2138 3097 
Q 1578 3097 1268 2742 
Q 959 2388 959 1747 
Q 959 1106 1268 751 
Q 1578 397 2138 397 
Q 2388 397 2633 464 
Q 2878 531 3122 666 
L 3122 134 
Q 2881 22 2623 -34 
Q 2366 -91 2075 -91 
Q 1284 -91 818 406 
Q 353 903 353 1747 
Q 353 2603 823 3093 
Q 1294 3584 2113 3584 
Q 2378 3584 2631 3529 
Q 2884 3475 3122 3366 
z
" transform="scale(0.015625)"/>
     </defs>
     <use xlink:href="#DejaVuSans-43"/>
     <use xlink:href="#DejaVuSans-6f" x="69.824219"/>
     <use xlink:href="#DejaVuSans-6d" x="131.005859"/>
     <use xlink:href="#DejaVuSans-70" x="228.417969"/>
     <use xlink:href="#DejaVuSans-61" x="291.894531"/>
     <use xlink:href="#DejaVuSans-72" x="353.173828"/>
     <use xlink:href="#DejaVuSans-69" x="394.287109"/>
     <use xlink:href="#DejaVuSans-73" x="422.070312"/>
     <use xlink:href="#DejaVuSans-6f" x="474.169922"/>
     <use xlink:href="#DejaVuSans-6e" x="535.351562"/>
     <use xlink:href="#DejaVuSans-20" x="598.730469"/>
     <use xlink:href="#DejaVuSans-6f" x="630.517578"/>
     <use xlink:href="#DejaVuSans-66" x="691.699219"/>
     <use xlink:href="#DejaVuSans-20" x="726.904297"/>
     <use xlink:href="#DejaVuSans-54" x="758.691406"/>
     <use xlink:href="#DejaVuSans-72" x="805.025391"/>
     <use xlink:href="#DejaVuSans-75" x="846.138672"/>
     <use xlink:href="#DejaVuSans-65" x="909.517578"/>
     <use xlink:href="#DejaVuSans-20" x="971.041016"/>
     <use xlink:href="#DejaVuSans-56" x="1002.828125"/>
     <use xlink:href="#DejaVuSans-61" x="1063.486328"/>
     <use xlink:href="#DejaVuSans-6c" x="1124.765625"/>
     <use xlink:href="#DejaVuSans-75" x="1152.548828"/>
     <use xlink:href="#DejaVuSans-65" x="1215.927734"/>
     <use xlink:href="#DejaVuSans-73" x="1277.451172"/>
     <use xlink:href="#DejaVuSans-20" x="1329.550781"/>
     <use xlink:href="#DejaVuSans-61" x="1361.337891"/>
     <use xlink:href="#DejaVuSans-6e" x="1422.617188"/>
     <use xlink:href="#DejaVuSans-64" x="1485.996094"/>
     <use xlink:href="#DejaVuSans-20" x="1549.472656"/>
     <use xlink:href="#DejaVuSans-50" x="1581.259766"/>
     <use xlink:href="#DejaVuSans-72" x="1639.8125"/>
     <use xlink:href="#DejaVuSans-65" x="1678.675781"/>
     <use xlink:href="#DejaVuSans-64" x="1740.199219"/>
     <use xlink:href="#DejaVuSans-69" x="1803.675781"/>
     <use xlink:href="#DejaVuSans-63" x="1831.458984"/>
     <use xlink:href="#DejaVuSans-74" x="1886.439453"/>
     <use xlink:href="#DejaVuSans-69" x="1925.648438"/>
     <use xlink:href="#DejaVuSans-6f" x="1953.431641"/>
     <use xlink:href="#DejaVuSans-6e" x="2014.613281"/>
     <use xlink:href="#DejaVuSans-73" x="2077.992188"/>
    </g>
   </g>
   <g id="legend_1">
    <g id="patch_7">
     <path d="M 508.957812 315.4 
L 598.042187 315.4 
Q 600.042187 315.4 600.042187 313.4 
L 600.042187 285.04375 
Q 600.042187 283.04375 598.042187 283.04375 
L 508.957812 283.04375 
Q 506.957812 283.04375 506.957812 285.04375 
L 506.957812 313.4 
Q 506.957812 315.4 508.957812 315.4 
z
" style="fill: #ffffff; opacity: 0.8; stroke: #cccccc; stroke-linejoin: miter"/>
    </g>
    <g id="line2d_15">
     <path d="M 510.957812 291.142187 
L 520.957813 291.142187 
L 530.957813 291.142187 
" style="fill: none; stroke: #0000ff; stroke-width: 1.5; stroke-linecap: square"/>
    </g>
    <g id="text_16">
     <!-- True Values -->
     <g transform="translate(538.957813 294.642187) scale(0.1 -0.1)">
      <use xlink:href="#DejaVuSans-54"/>
      <use xlink:href="#DejaVuSans-72" x="46.333984"/>
      <use xlink:href="#DejaVuSans-75" x="87.447266"/>
      <use xlink:href="#DejaVuSans-65" x="150.826172"/>
      <use xlink:href="#DejaVuSans-20" x="212.349609"/>
      <use xlink:href="#DejaVuSans-56" x="244.136719"/>
      <use xlink:href="#DejaVuSans-61" x="304.794922"/>
      <use xlink:href="#DejaVuSans-6c" x="366.074219"/>
      <use xlink:href="#DejaVuSans-75" x="393.857422"/>
      <use xlink:href="#DejaVuSans-65" x="457.236328"/>
      <use xlink:href="#DejaVuSans-73" x="518.759766"/>
     </g>
    </g>
    <g id="line2d_16">
     <path d="M 510.957812 305.820312 
L 520.957813 305.820312 
L 530.957813 305.820312 
" style="fill: none; stroke-dasharray: 5.55,2.4; stroke-dashoffset: 0; stroke: #ff0000; stroke-width: 1.5"/>
    </g>
    <g id="text_17">
     <!-- Predictions -->
     <g transform="translate(538.957813 309.320312) scale(0.1 -0.1)">
      <use xlink:href="#DejaVuSans-50"/>
      <use xlink:href="#DejaVuSans-72" x="58.552734"/>
      <use xlink:href="#DejaVuSans-65" x="97.416016"/>
      <use xlink:href="#DejaVuSans-64" x="158.939453"/>
      <use xlink:href="#DejaVuSans-69" x="222.416016"/>
      <use xlink:href="#DejaVuSans-63" x="250.199219"/>
      <use xlink:href="#DejaVuSans-74" x="305.179688"/>
      <use xlink:href="#DejaVuSans-69" x="344.388672"/>
      <use xlink:href="#DejaVuSans-6f" x="372.171875"/>
      <use xlink:href="#DejaVuSans-6e" x="433.353516"/>
      <use xlink:href="#DejaVuSans-73" x="496.732422"/>
     </g>
    </g>
   </g>
  </g>
 </g>
 <defs>
  <clipPath id="p0554bdf1e7">
   <rect x="135" y="43.2" width="837" height="277.2"/>
  </clipPath>
 </defs>
</svg>
