<?xml version="1.0" encoding="utf-8" standalone="no"?>
<!DOCTYPE svg PUBLIC "-//W3C//DTD SVG 1.1//EN"
  "http://www.w3.org/Graphics/SVG/1.1/DTD/svg11.dtd">
<svg xmlns:xlink="http://www.w3.org/1999/xlink" width="1296pt" height="576pt" viewBox="0 0 1296 576" xmlns="http://www.w3.org/2000/svg" version="1.1">
 <metadata>
  <rdf:RDF xmlns:dc="http://purl.org/dc/elements/1.1/" xmlns:cc="http://creativecommons.org/ns#" xmlns:rdf="http://www.w3.org/1999/02/22-rdf-syntax-ns#">
   <cc:Work>
    <dc:type rdf:resource="http://purl.org/dc/dcmitype/StillImage"/>
    <dc:date>2024-06-22T13:27:04.384808</dc:date>
    <dc:format>image/svg+xml</dc:format>
    <dc:creator>
     <cc:Agent>
      <dc:title>Matplotlib v3.6.2, https://matplotlib.org/</dc:title>
     </cc:Agent>
    </dc:creator>
   </cc:Work>
  </rdf:RDF>
 </metadata>
 <defs>
  <style type="text/css">*{stroke-linejoin: round; stroke-linecap: butt}</style>
 </defs>
 <g id="figure_1">
  <g id="patch_1">
   <path d="M 0 576 
L 1296 576 
L 1296 0 
L 0 0 
z
" style="fill: #ffffff"/>
  </g>
  <g id="axes_1">
   <g id="patch_2">
    <path d="M 162 512.64 
L 1166.4 512.64 
L 1166.4 69.12 
L 162 69.12 
z
" style="fill: #ffffff"/>
   </g>
   <g id="matplotlib.axis_1">
    <g id="xtick_1">
     <g id="line2d_1">
      <path d="M 207.654545 512.64 
L 207.654545 69.12 
" clip-path="url(#pcb08d68217)" style="fill: none; stroke: #b0b0b0; stroke-width: 0.8; stroke-linecap: square"/>
     </g>
     <g id="line2d_2">
      <defs>
       <path id="m7d4ffcb6ef" d="M 0 0 
L 0 3.5 
" style="stroke: #000000; stroke-width: 0.8"/>
      </defs>
      <g>
       <use xlink:href="#m7d4ffcb6ef" x="207.654545" y="512.64" style="stroke: #000000; stroke-width: 0.8"/>
      </g>
     </g>
     <g id="text_1">
      <!-- 0 -->
      <g transform="translate(204.154545 529.265) scale(0.14 -0.14)">
       <defs>
        <path id="SimHei-30" d="M 225 2537 
Q 250 3200 412 3587 
Q 575 3975 875 4225 
Q 1175 4475 1612 4475 
Q 2050 4475 2375 4112 
Q 2700 3750 2800 3200 
Q 2900 2650 2862 1937 
Q 2825 1225 2612 775 
Q 2400 325 1975 150 
Q 1550 -25 1125 187 
Q 700 400 525 750 
Q 350 1100 275 1487 
Q 200 1875 225 2537 
z
M 750 2687 
Q 675 2000 800 1462 
Q 925 925 1212 700 
Q 1500 475 1800 612 
Q 2100 750 2237 1162 
Q 2375 1575 2375 2062 
Q 2375 2550 2337 2950 
Q 2300 3350 2112 3675 
Q 1925 4000 1612 4012 
Q 1300 4025 1062 3700 
Q 825 3375 750 2687 
z
" transform="scale(0.015625)"/>
       </defs>
       <use xlink:href="#SimHei-30"/>
      </g>
     </g>
    </g>
    <g id="xtick_2">
     <g id="line2d_3">
      <path d="M 417.079066 512.64 
L 417.079066 69.12 
" clip-path="url(#pcb08d68217)" style="fill: none; stroke: #b0b0b0; stroke-width: 0.8; stroke-linecap: square"/>
     </g>
     <g id="line2d_4">
      <g>
       <use xlink:href="#m7d4ffcb6ef" x="417.079066" y="512.64" style="stroke: #000000; stroke-width: 0.8"/>
      </g>
     </g>
     <g id="text_2">
      <!-- 50 -->
      <g transform="translate(410.079066 529.265) scale(0.14 -0.14)">
       <defs>
        <path id="SimHei-35" d="M 550 1325 
Q 725 650 1150 575 
Q 1575 500 1837 662 
Q 2100 825 2212 1087 
Q 2325 1350 2312 1675 
Q 2300 2000 2137 2225 
Q 1975 2450 1725 2525 
Q 1475 2600 1162 2525 
Q 850 2450 650 2175 
L 225 2225 
Q 275 2375 700 4375 
L 2675 4375 
L 2675 3925 
L 1075 3925 
Q 950 3250 825 2850 
Q 1200 3025 1525 3012 
Q 1850 3000 2150 2862 
Q 2450 2725 2587 2487 
Q 2725 2250 2787 2012 
Q 2850 1775 2837 1500 
Q 2825 1225 2725 937 
Q 2625 650 2425 462 
Q 2225 275 1937 162 
Q 1650 50 1275 75 
Q 900 100 562 350 
Q 225 600 100 1200 
L 550 1325 
z
" transform="scale(0.015625)"/>
       </defs>
       <use xlink:href="#SimHei-35"/>
       <use xlink:href="#SimHei-30" x="50"/>
      </g>
     </g>
    </g>
    <g id="xtick_3">
     <g id="line2d_5">
      <path d="M 626.503586 512.64 
L 626.503586 69.12 
" clip-path="url(#pcb08d68217)" style="fill: none; stroke: #b0b0b0; stroke-width: 0.8; stroke-linecap: square"/>
     </g>
     <g id="line2d_6">
      <g>
       <use xlink:href="#m7d4ffcb6ef" x="626.503586" y="512.64" style="stroke: #000000; stroke-width: 0.8"/>
      </g>
     </g>
     <g id="text_3">
      <!-- 100 -->
      <g transform="translate(616.003586 529.265) scale(0.14 -0.14)">
       <defs>
        <path id="SimHei-31" d="M 1400 3600 
Q 1075 3275 575 2975 
L 575 3450 
Q 1200 3875 1600 4450 
L 1900 4450 
L 1900 150 
L 1400 150 
L 1400 3600 
z
" transform="scale(0.015625)"/>
       </defs>
       <use xlink:href="#SimHei-31"/>
       <use xlink:href="#SimHei-30" x="50"/>
       <use xlink:href="#SimHei-30" x="100"/>
      </g>
     </g>
    </g>
    <g id="xtick_4">
     <g id="line2d_7">
      <path d="M 835.928107 512.64 
L 835.928107 69.12 
" clip-path="url(#pcb08d68217)" style="fill: none; stroke: #b0b0b0; stroke-width: 0.8; stroke-linecap: square"/>
     </g>
     <g id="line2d_8">
      <g>
       <use xlink:href="#m7d4ffcb6ef" x="835.928107" y="512.64" style="stroke: #000000; stroke-width: 0.8"/>
      </g>
     </g>
     <g id="text_4">
      <!-- 150 -->
      <g transform="translate(825.428107 529.265) scale(0.14 -0.14)">
       <use xlink:href="#SimHei-31"/>
       <use xlink:href="#SimHei-35" x="50"/>
       <use xlink:href="#SimHei-30" x="100"/>
      </g>
     </g>
    </g>
    <g id="xtick_5">
     <g id="line2d_9">
      <path d="M 1045.352627 512.64 
L 1045.352627 69.12 
" clip-path="url(#pcb08d68217)" style="fill: none; stroke: #b0b0b0; stroke-width: 0.8; stroke-linecap: square"/>
     </g>
     <g id="line2d_10">
      <g>
       <use xlink:href="#m7d4ffcb6ef" x="1045.352627" y="512.64" style="stroke: #000000; stroke-width: 0.8"/>
      </g>
     </g>
     <g id="text_5">
      <!-- 200 -->
      <g transform="translate(1034.852627 529.265) scale(0.14 -0.14)">
       <defs>
        <path id="SimHei-32" d="M 300 250 
Q 325 625 650 925 
Q 975 1225 1475 1862 
Q 1975 2500 2125 2850 
Q 2275 3200 2237 3450 
Q 2200 3700 2000 3862 
Q 1800 4025 1537 4000 
Q 1275 3975 1037 3800 
Q 800 3625 675 3275 
L 200 3350 
Q 400 3925 712 4187 
Q 1025 4450 1450 4475 
Q 1700 4500 1900 4462 
Q 2100 4425 2312 4287 
Q 2525 4150 2662 3875 
Q 2800 3600 2762 3212 
Q 2725 2825 2375 2287 
Q 2025 1750 1025 600 
L 2825 600 
L 2825 150 
L 300 150 
L 300 250 
z
" transform="scale(0.015625)"/>
       </defs>
       <use xlink:href="#SimHei-32"/>
       <use xlink:href="#SimHei-30" x="50"/>
       <use xlink:href="#SimHei-30" x="100"/>
      </g>
     </g>
    </g>
   </g>
   <g id="matplotlib.axis_2">
    <g id="ytick_1">
     <g id="line2d_11">
      <path d="M 162 484.999719 
L 1166.4 484.999719 
" clip-path="url(#pcb08d68217)" style="fill: none; stroke: #b0b0b0; stroke-width: 0.8; stroke-linecap: square"/>
     </g>
     <g id="line2d_12">
      <defs>
       <path id="mcafff999b9" d="M 0 0 
L -3.5 0 
" style="stroke: #000000; stroke-width: 0.8"/>
      </defs>
      <g>
       <use xlink:href="#mcafff999b9" x="162" y="484.999719" style="stroke: #000000; stroke-width: 0.8"/>
      </g>
     </g>
     <g id="text_6">
      <!-- 10 -->
      <g transform="translate(141 489.812219) scale(0.14 -0.14)">
       <use xlink:href="#SimHei-31"/>
       <use xlink:href="#SimHei-30" x="50"/>
      </g>
     </g>
    </g>
    <g id="ytick_2">
     <g id="line2d_13">
      <path d="M 162 414.297609 
L 1166.4 414.297609 
" clip-path="url(#pcb08d68217)" style="fill: none; stroke: #b0b0b0; stroke-width: 0.8; stroke-linecap: square"/>
     </g>
     <g id="line2d_14">
      <g>
       <use xlink:href="#mcafff999b9" x="162" y="414.297609" style="stroke: #000000; stroke-width: 0.8"/>
      </g>
     </g>
     <g id="text_7">
      <!-- 20 -->
      <g transform="translate(141 419.110109) scale(0.14 -0.14)">
       <use xlink:href="#SimHei-32"/>
       <use xlink:href="#SimHei-30" x="50"/>
      </g>
     </g>
    </g>
    <g id="ytick_3">
     <g id="line2d_15">
      <path d="M 162 343.595499 
L 1166.4 343.595499 
" clip-path="url(#pcb08d68217)" style="fill: none; stroke: #b0b0b0; stroke-width: 0.8; stroke-linecap: square"/>
     </g>
     <g id="line2d_16">
      <g>
       <use xlink:href="#mcafff999b9" x="162" y="343.595499" style="stroke: #000000; stroke-width: 0.8"/>
      </g>
     </g>
     <g id="text_8">
      <!-- 30 -->
      <g transform="translate(141 348.407999) scale(0.14 -0.14)">
       <defs>
        <path id="SimHei-33" d="M 250 1225 
L 700 1300 
Q 800 975 1025 762 
Q 1250 550 1587 562 
Q 1925 575 2125 837 
Q 2325 1100 2300 1437 
Q 2275 1775 2037 1962 
Q 1800 2150 1275 2225 
L 1275 2550 
Q 1800 2600 2037 2825 
Q 2275 3050 2250 3412 
Q 2225 3775 1925 3937 
Q 1625 4100 1287 3975 
Q 950 3850 750 3275 
L 300 3350 
Q 450 3800 712 4100 
Q 975 4400 1425 4450 
Q 1875 4500 2212 4337 
Q 2550 4175 2687 3837 
Q 2825 3500 2725 3100 
Q 2625 2700 2150 2400 
Q 2500 2250 2687 1950 
Q 2875 1650 2812 1162 
Q 2750 675 2375 375 
Q 2000 75 1525 87 
Q 1050 100 700 387 
Q 350 675 250 1225 
z
" transform="scale(0.015625)"/>
       </defs>
       <use xlink:href="#SimHei-33"/>
       <use xlink:href="#SimHei-30" x="50"/>
      </g>
     </g>
    </g>
    <g id="ytick_4">
     <g id="line2d_17">
      <path d="M 162 272.893389 
L 1166.4 272.893389 
" clip-path="url(#pcb08d68217)" style="fill: none; stroke: #b0b0b0; stroke-width: 0.8; stroke-linecap: square"/>
     </g>
     <g id="line2d_18">
      <g>
       <use xlink:href="#mcafff999b9" x="162" y="272.893389" style="stroke: #000000; stroke-width: 0.8"/>
      </g>
     </g>
     <g id="text_9">
      <!-- 40 -->
      <g transform="translate(141 277.705889) scale(0.14 -0.14)">
       <defs>
        <path id="SimHei-34" d="M 2000 1100 
L 75 1100 
L 75 1525 
L 2100 4450 
L 2475 4450 
L 2475 1525 
L 3075 1525 
L 3075 1100 
L 2475 1100 
L 2475 150 
L 2000 150 
L 2000 1100 
z
M 2000 1525 
L 2000 3500 
L 600 1525 
L 2000 1525 
z
" transform="scale(0.015625)"/>
       </defs>
       <use xlink:href="#SimHei-34"/>
       <use xlink:href="#SimHei-30" x="50"/>
      </g>
     </g>
    </g>
    <g id="ytick_5">
     <g id="line2d_19">
      <path d="M 162 202.191279 
L 1166.4 202.191279 
" clip-path="url(#pcb08d68217)" style="fill: none; stroke: #b0b0b0; stroke-width: 0.8; stroke-linecap: square"/>
     </g>
     <g id="line2d_20">
      <g>
       <use xlink:href="#mcafff999b9" x="162" y="202.191279" style="stroke: #000000; stroke-width: 0.8"/>
      </g>
     </g>
     <g id="text_10">
      <!-- 50 -->
      <g transform="translate(141 207.003779) scale(0.14 -0.14)">
       <use xlink:href="#SimHei-35"/>
       <use xlink:href="#SimHei-30" x="50"/>
      </g>
     </g>
    </g>
    <g id="ytick_6">
     <g id="line2d_21">
      <path d="M 162 131.489168 
L 1166.4 131.489168 
" clip-path="url(#pcb08d68217)" style="fill: none; stroke: #b0b0b0; stroke-width: 0.8; stroke-linecap: square"/>
     </g>
     <g id="line2d_22">
      <g>
       <use xlink:href="#mcafff999b9" x="162" y="131.489168" style="stroke: #000000; stroke-width: 0.8"/>
      </g>
     </g>
     <g id="text_11">
      <!-- 60 -->
      <g transform="translate(141 136.301668) scale(0.14 -0.14)">
       <defs>
        <path id="SimHei-36" d="M 250 1612 
Q 275 1975 387 2225 
Q 500 2475 725 2850 
L 1750 4450 
L 2325 4450 
L 1275 2800 
Q 1950 2975 2350 2750 
Q 2750 2525 2887 2237 
Q 3025 1950 3037 1612 
Q 3050 1275 2937 950 
Q 2825 625 2537 362 
Q 2250 100 1737 75 
Q 1225 50 862 262 
Q 500 475 362 862 
Q 225 1250 250 1612 
z
M 1025 787 
Q 1250 550 1625 525 
Q 2000 500 2250 775 
Q 2500 1050 2500 1575 
Q 2500 2100 2187 2300 
Q 1875 2500 1487 2450 
Q 1100 2400 925 2075 
Q 750 1750 775 1387 
Q 800 1025 1025 787 
z
" transform="scale(0.015625)"/>
       </defs>
       <use xlink:href="#SimHei-36"/>
       <use xlink:href="#SimHei-30" x="50"/>
      </g>
     </g>
    </g>
    <g id="text_12">
     <!-- 充电量(Ah) -->
     <g transform="translate(135 330.88) rotate(-90) scale(0.16 -0.16)">
      <defs>
       <path id="SimHei-5145" d="M 3325 5175 
Q 3425 4825 3600 4300 
L 4900 4300 
Q 5425 4300 5775 4325 
L 5775 3825 
Q 5525 3850 4925 3850 
L 2675 3850 
Q 2850 3700 3100 3550 
Q 2775 3400 1875 2675 
L 4475 2750 
Q 4275 2975 3900 3275 
Q 4150 3450 4275 3600 
Q 5250 2775 5625 2350 
Q 5400 2200 5200 1975 
Q 5000 2225 4800 2425 
Q 4475 2400 4100 2375 
L 4100 325 
Q 4100 0 4425 0 
L 5125 0 
Q 5325 0 5375 175 
Q 5425 350 5475 800 
Q 5850 625 6075 600 
Q 5875 -250 5700 -350 
Q 5525 -450 5275 -450 
L 4225 -450 
Q 3650 -450 3650 75 
L 3650 2325 
L 2650 2250 
Q 2675 -75 800 -650 
Q 650 -375 400 -225 
Q 2225 275 2175 2200 
Q 1550 2150 1175 2050 
Q 1100 2450 1025 2725 
Q 1575 2875 1900 3200 
Q 2225 3525 2475 3850 
L 1450 3850 
Q 1025 3850 575 3825 
L 575 4325 
Q 1025 4300 1450 4300 
L 3000 4300 
Q 2875 4725 2750 5025 
Q 3075 5100 3325 5175 
z
" transform="scale(0.015625)"/>
       <path id="SimHei-7535" d="M 6150 325 
Q 5975 -250 5825 -412 
Q 5675 -575 5325 -575 
L 3375 -575 
Q 2700 -600 2675 100 
L 2675 975 
L 1225 975 
L 1225 500 
L 650 500 
Q 675 750 675 2225 
Q 675 3700 650 4150 
L 2675 4150 
Q 2675 4825 2650 5200 
L 3200 5200 
Q 3175 4875 3175 4150 
L 5200 4150 
Q 5175 3775 5175 2600 
Q 5175 1450 5200 975 
L 3175 975 
L 3175 300 
Q 3175 -150 3650 -150 
L 4975 -150 
Q 5375 -150 5450 25 
Q 5525 200 5575 575 
Q 5825 400 6150 325 
z
M 4675 1400 
L 4675 2400 
L 3175 2400 
L 3175 1400 
L 4675 1400 
z
M 2675 1400 
L 2675 2400 
L 1225 2400 
L 1225 1400 
L 2675 1400 
z
M 4675 2800 
L 4675 3725 
L 3175 3725 
L 3175 2800 
L 4675 2800 
z
M 2675 2800 
L 2675 3725 
L 1225 3725 
L 1225 2800 
L 2675 2800 
z
" transform="scale(0.015625)"/>
       <path id="SimHei-91cf" d="M 5250 2500 
Q 5225 2200 5225 1700 
Q 5225 1225 5250 950 
L 3425 950 
L 3425 625 
L 4575 625 
Q 5000 625 5375 650 
L 5375 275 
Q 5025 300 4575 300 
L 3425 300 
L 3425 -75 
L 5125 -75 
Q 5525 -75 5925 -50 
L 5925 -425 
Q 5525 -400 5125 -400 
L 1275 -400 
Q 900 -400 475 -425 
L 475 -50 
Q 925 -50 1275 -75 
L 2975 -75 
L 2975 300 
L 1725 300 
Q 1350 300 975 250 
L 975 650 
Q 1375 625 1725 625 
L 2975 625 
L 2975 950 
L 1150 950 
Q 1175 1375 1175 1775 
Q 1175 2175 1150 2500 
L 5250 2500 
z
M 5200 4950 
Q 5175 4575 5175 4250 
Q 5175 3925 5200 3400 
L 1200 3400 
Q 1225 3925 1225 4250 
Q 1225 4575 1200 4950 
L 5200 4950 
z
M 4900 3100 
Q 5500 3125 6000 3150 
L 6000 2750 
Q 5500 2775 4925 2775 
L 1650 2775 
Q 975 2775 325 2750 
L 325 3150 
Q 975 3125 1650 3100 
L 4900 3100 
z
M 4725 3700 
L 4725 4025 
L 1675 4025 
L 1675 3700 
L 4725 3700 
z
M 4725 4350 
L 4725 4650 
L 1675 4650 
L 1675 4350 
L 4725 4350 
z
M 4750 1875 
L 4750 2175 
L 3425 2175 
L 3425 1875 
L 4750 1875 
z
M 2975 1875 
L 2975 2175 
L 1650 2175 
L 1650 1875 
L 2975 1875 
z
M 2975 1275 
L 2975 1550 
L 1650 1550 
L 1650 1275 
L 2975 1275 
z
M 4750 1275 
L 4750 1550 
L 3425 1550 
L 3425 1275 
L 4750 1275 
z
" transform="scale(0.015625)"/>
       <path id="SimHei-28" d="M 2975 -200 
L 2700 -475 
Q 2075 125 1762 775 
Q 1450 1425 1450 2250 
Q 1450 3075 1762 3725 
Q 2075 4375 2700 5000 
L 2975 4725 
Q 2400 4175 2112 3587 
Q 1825 3000 1825 2250 
Q 1825 1500 2112 912 
Q 2400 325 2975 -200 
z
" transform="scale(0.015625)"/>
       <path id="SimHei-41" d="M 3075 125 
L 2475 125 
L 2125 1450 
L 1025 1450 
L 675 125 
L 75 125 
L 1325 4450 
L 1825 4450 
L 3075 125 
z
M 2000 1925 
L 1600 3450 
L 1550 3450 
L 1150 1925 
L 2000 1925 
z
" transform="scale(0.015625)"/>
       <path id="SimHei-68" d="M 2800 125 
L 2300 125 
L 2300 1925 
Q 2300 2225 2150 2400 
Q 2000 2575 1750 2575 
Q 1425 2575 1137 2237 
Q 850 1900 850 1400 
L 850 125 
L 350 125 
L 350 4400 
L 850 4400 
L 850 2400 
Q 1050 2675 1287 2825 
Q 1525 2975 1900 2975 
Q 2350 2975 2575 2725 
Q 2800 2475 2800 2100 
L 2800 125 
z
" transform="scale(0.015625)"/>
       <path id="SimHei-29" d="M 1675 2250 
Q 1675 1425 1362 775 
Q 1050 125 425 -475 
L 150 -200 
Q 725 325 1012 912 
Q 1300 1500 1300 2250 
Q 1300 3000 1012 3587 
Q 725 4175 150 4725 
L 425 5000 
Q 1050 4375 1362 3725 
Q 1675 3075 1675 2250 
z
" transform="scale(0.015625)"/>
      </defs>
      <use xlink:href="#SimHei-5145"/>
      <use xlink:href="#SimHei-7535" x="100"/>
      <use xlink:href="#SimHei-91cf" x="200"/>
      <use xlink:href="#SimHei-28" x="300"/>
      <use xlink:href="#SimHei-41" x="350"/>
      <use xlink:href="#SimHei-68" x="400"/>
      <use xlink:href="#SimHei-29" x="450"/>
     </g>
    </g>
   </g>
   <g id="line2d_23">
    <path d="M 207.654545 131.234646 
L 211.843036 161.763823 
L 216.031526 187.195372 
L 220.220017 119.201149 
L 224.408507 167.214955 
L 228.596997 160.286151 
L 232.785488 103.017426 
L 236.973978 105.760671 
L 241.162469 129.601434 
L 245.350959 120.12735 
L 249.53945 130.280152 
L 253.72794 154.297681 
L 257.91643 163.821257 
L 262.104921 116.259939 
L 266.293411 117.483088 
L 270.481902 151.886715 
L 274.670392 140.121901 
L 278.858882 165.221145 
L 283.047373 116.910391 
L 287.235863 159.897287 
L 291.424354 103.597188 
L 295.612844 93.189837 
L 299.801334 164.224253 
L 303.989825 125.776447 
L 308.178315 145.615458 
L 312.366806 174.200316 
L 316.555296 172.807494 
L 320.743786 160.54774 
L 324.932277 126.137019 
L 329.120767 125.366358 
L 333.309258 144.321592 
L 337.497748 155.846043 
L 341.686239 137.781652 
L 345.874729 117.525512 
L 350.063219 143.034819 
L 354.25171 105.159709 
L 358.4402 114.24493 
L 362.628691 157.422697 
L 366.817181 104.346623 
L 371.005671 149.79395 
L 375.194162 154.983493 
L 379.382652 138.990668 
L 383.571143 128.809547 
L 387.759633 102.437663 
L 391.948123 156.33389 
L 396.136614 162.845564 
L 400.325104 146.060879 
L 404.513595 133.405195 
L 408.702085 162.315293 
L 412.890575 113.629808 
L 417.079066 89.53455 
L 421.267556 229.531789 
L 425.456047 175.840594 
L 433.833028 265.738328 
L 438.021518 192.130366 
L 442.210008 120.565705 
L 446.398499 159.692229 
L 450.586989 151.646352 
L 454.77548 233.872887 
L 458.96397 355.169428 
L 463.15246 459.935821 
L 467.340951 462.134656 
L 471.529441 442.034049 
L 475.717932 427.462339 
L 479.906422 469.565452 
L 484.094912 100.641845 
L 488.283403 157.154042 
L 492.471893 104.120393 
L 496.660384 110.603775 
L 500.848874 326.216919 
L 505.037364 107.881729 
L 509.225855 158.72363 
L 513.414345 113.297502 
L 517.602836 113.863132 
L 521.791326 124.008895 
L 525.979817 182.960296 
L 530.168307 139.966361 
L 534.356797 107.697896 
L 538.545288 121.223224 
L 542.733778 180.591782 
L 546.922269 138.078599 
L 551.110759 133.12238 
L 555.299249 172.581237 
L 559.48774 104.643571 
L 563.67623 170.919733 
L 567.864721 105.895012 
L 572.053211 139.648187 
L 576.241701 118.380997 
L 580.430192 143.303501 
L 584.618682 118.303213 
L 588.807173 176.887004 
L 592.995663 107.471666 
L 597.184153 113.983314 
L 601.372644 272.829765 
L 605.561134 277.375895 
L 609.749625 446.622611 
L 613.938115 420.922399 
L 618.126606 445.045957 
L 622.315096 442.762279 
L 626.503586 459.136888 
L 630.692077 434.115407 
L 634.880567 433.472021 
L 639.069058 455.276549 
L 643.257548 437.466694 
L 647.446038 432.482196 
L 651.634529 137.102907 
L 655.823019 139.690612 
L 664.2 114.520651 
L 668.38849 150.324221 
L 672.576981 98.732858 
L 676.765471 176.377931 
L 680.953962 135.575744 
L 685.142452 159.260967 
L 689.330942 98.393512 
L 693.519433 121.937301 
L 697.707923 158.419589 
L 701.896414 183.158261 
L 706.084904 113.622742 
L 710.273394 92.765641 
L 714.461885 145.848754 
L 718.650375 149.772724 
L 722.838866 133.440554 
L 727.027356 147.503192 
L 731.215847 124.044226 
L 735.404337 146.025521 
L 739.592827 119.604145 
L 743.781318 118.06285 
L 747.969808 136.098949 
L 752.158299 178.760605 
L 756.346789 172.128749 
L 760.535279 169.484486 
L 764.72377 125.741089 
L 768.91226 111.049197 
L 773.100751 256.893498 
L 777.289241 248.338549 
L 781.477731 266.417073 
L 785.666222 203.11748 
L 789.854712 325.552334 
L 794.043203 452.349485 
L 798.231693 179.566598 
L 802.420183 460.381242 
L 806.608674 458.656114 
L 810.797164 440.754343 
L 814.985655 439.764504 
L 819.174145 450.794036 
L 823.362636 204.114372 
L 827.551126 241.932923 
L 831.739616 222.737299 
L 835.928107 192.292972 
L 840.116597 137.710962 
L 844.305088 89.28 
L 848.493578 161.297175 
L 852.682068 126.179444 
L 856.870559 113.884331 
L 861.059049 293.474768 
L 865.24754 389.841752 
L 869.43603 265.45554 
L 873.62452 118.034558 
L 877.813011 129.14892 
L 882.001501 134.925291 
L 886.189992 202.785174 
L 890.378482 351.167689 
L 894.566972 356.032006 
L 898.755463 401.726775 
L 902.943953 245.786202 
L 907.132444 141.58544 
L 911.320934 149.86464 
L 915.509425 118.776927 
L 919.697915 123.075627 
L 923.886405 269.542116 
L 928.074896 168.565351 
L 932.263386 236.906014 
L 936.451877 176.476914 
L 940.640367 177.466739 
L 944.828857 137.414014 
L 949.017348 94.377627 
L 953.205838 136.056524 
L 957.394329 133.079955 
L 961.582819 348.063872 
L 965.771309 158.370098 
L 969.9598 161.954694 
L 974.14829 126.97837 
L 978.336781 168.940082 
L 982.525271 356.739016 
L 986.713761 492.48 
L 990.902252 346.946786 
L 995.090742 150.055539 
L 999.279233 140.044117 
L 1003.467723 129.481226 
L 1007.656214 103.243683 
L 1011.844704 117.8083 
L 1016.033194 149.935357 
L 1020.221685 262.493104 
L 1024.410175 242.639961 
L 1028.598666 248.465797 
L 1032.787156 260.789175 
L 1036.975646 248.635497 
L 1041.164137 454.095825 
L 1045.352627 417.005496 
L 1049.541118 438.456519 
L 1053.729608 438.562568 
L 1057.918098 453.699895 
L 1062.106589 451.006148 
L 1066.295079 462.184147 
L 1070.48357 451.628322 
L 1074.67206 438.251488 
L 1078.86055 141.719754 
L 1083.049041 153.576512 
L 1087.237531 121.223224 
L 1091.426022 163.467724 
L 1095.614512 140.86427 
L 1099.803003 180.089803 
L 1103.991493 164.931263 
L 1108.179983 151.087789 
L 1112.368474 89.562815 
L 1116.556964 116.090239 
L 1120.745455 114.88125 
L 1120.745455 114.88125 
" clip-path="url(#pcb08d68217)" style="fill: none; stroke: #ff0000; stroke-width: 1.5; stroke-linecap: square"/>
    <defs>
     <path id="m174474ea19" d="M 0 2 
C 0.530406 2 1.03916 1.789267 1.414214 1.414214 
C 1.789267 1.03916 2 0.530406 2 0 
C 2 -0.530406 1.789267 -1.03916 1.414214 -1.414214 
C 1.03916 -1.789267 0.530406 -2 0 -2 
C -0.530406 -2 -1.03916 -1.789267 -1.414214 -1.414214 
C -1.789267 -1.03916 -2 -0.530406 -2 0 
C -2 0.530406 -1.789267 1.03916 -1.414214 1.414214 
C -1.03916 1.789267 -0.530406 2 0 2 
z
" style="stroke: #ff0000"/>
    </defs>
    <g clip-path="url(#pcb08d68217)">
     <use xlink:href="#m174474ea19" x="207.654545" y="131.234646" style="fill: #ff0000; stroke: #ff0000"/>
     <use xlink:href="#m174474ea19" x="211.843036" y="161.763823" style="fill: #ff0000; stroke: #ff0000"/>
     <use xlink:href="#m174474ea19" x="216.031526" y="187.195372" style="fill: #ff0000; stroke: #ff0000"/>
     <use xlink:href="#m174474ea19" x="220.220017" y="119.201149" style="fill: #ff0000; stroke: #ff0000"/>
     <use xlink:href="#m174474ea19" x="224.408507" y="167.214955" style="fill: #ff0000; stroke: #ff0000"/>
     <use xlink:href="#m174474ea19" x="228.596997" y="160.286151" style="fill: #ff0000; stroke: #ff0000"/>
     <use xlink:href="#m174474ea19" x="232.785488" y="103.017426" style="fill: #ff0000; stroke: #ff0000"/>
     <use xlink:href="#m174474ea19" x="236.973978" y="105.760671" style="fill: #ff0000; stroke: #ff0000"/>
     <use xlink:href="#m174474ea19" x="241.162469" y="129.601434" style="fill: #ff0000; stroke: #ff0000"/>
     <use xlink:href="#m174474ea19" x="245.350959" y="120.12735" style="fill: #ff0000; stroke: #ff0000"/>
     <use xlink:href="#m174474ea19" x="249.53945" y="130.280152" style="fill: #ff0000; stroke: #ff0000"/>
     <use xlink:href="#m174474ea19" x="253.72794" y="154.297681" style="fill: #ff0000; stroke: #ff0000"/>
     <use xlink:href="#m174474ea19" x="257.91643" y="163.821257" style="fill: #ff0000; stroke: #ff0000"/>
     <use xlink:href="#m174474ea19" x="262.104921" y="116.259939" style="fill: #ff0000; stroke: #ff0000"/>
     <use xlink:href="#m174474ea19" x="266.293411" y="117.483088" style="fill: #ff0000; stroke: #ff0000"/>
     <use xlink:href="#m174474ea19" x="270.481902" y="151.886715" style="fill: #ff0000; stroke: #ff0000"/>
     <use xlink:href="#m174474ea19" x="274.670392" y="140.121901" style="fill: #ff0000; stroke: #ff0000"/>
     <use xlink:href="#m174474ea19" x="278.858882" y="165.221145" style="fill: #ff0000; stroke: #ff0000"/>
     <use xlink:href="#m174474ea19" x="283.047373" y="116.910391" style="fill: #ff0000; stroke: #ff0000"/>
     <use xlink:href="#m174474ea19" x="287.235863" y="159.897287" style="fill: #ff0000; stroke: #ff0000"/>
     <use xlink:href="#m174474ea19" x="291.424354" y="103.597188" style="fill: #ff0000; stroke: #ff0000"/>
     <use xlink:href="#m174474ea19" x="295.612844" y="93.189837" style="fill: #ff0000; stroke: #ff0000"/>
     <use xlink:href="#m174474ea19" x="299.801334" y="164.224253" style="fill: #ff0000; stroke: #ff0000"/>
     <use xlink:href="#m174474ea19" x="303.989825" y="125.776447" style="fill: #ff0000; stroke: #ff0000"/>
     <use xlink:href="#m174474ea19" x="308.178315" y="145.615458" style="fill: #ff0000; stroke: #ff0000"/>
     <use xlink:href="#m174474ea19" x="312.366806" y="174.200316" style="fill: #ff0000; stroke: #ff0000"/>
     <use xlink:href="#m174474ea19" x="316.555296" y="172.807494" style="fill: #ff0000; stroke: #ff0000"/>
     <use xlink:href="#m174474ea19" x="320.743786" y="160.54774" style="fill: #ff0000; stroke: #ff0000"/>
     <use xlink:href="#m174474ea19" x="324.932277" y="126.137019" style="fill: #ff0000; stroke: #ff0000"/>
     <use xlink:href="#m174474ea19" x="329.120767" y="125.366358" style="fill: #ff0000; stroke: #ff0000"/>
     <use xlink:href="#m174474ea19" x="333.309258" y="144.321592" style="fill: #ff0000; stroke: #ff0000"/>
     <use xlink:href="#m174474ea19" x="337.497748" y="155.846043" style="fill: #ff0000; stroke: #ff0000"/>
     <use xlink:href="#m174474ea19" x="341.686239" y="137.781652" style="fill: #ff0000; stroke: #ff0000"/>
     <use xlink:href="#m174474ea19" x="345.874729" y="117.525512" style="fill: #ff0000; stroke: #ff0000"/>
     <use xlink:href="#m174474ea19" x="350.063219" y="143.034819" style="fill: #ff0000; stroke: #ff0000"/>
     <use xlink:href="#m174474ea19" x="354.25171" y="105.159709" style="fill: #ff0000; stroke: #ff0000"/>
     <use xlink:href="#m174474ea19" x="358.4402" y="114.24493" style="fill: #ff0000; stroke: #ff0000"/>
     <use xlink:href="#m174474ea19" x="362.628691" y="157.422697" style="fill: #ff0000; stroke: #ff0000"/>
     <use xlink:href="#m174474ea19" x="366.817181" y="104.346623" style="fill: #ff0000; stroke: #ff0000"/>
     <use xlink:href="#m174474ea19" x="371.005671" y="149.79395" style="fill: #ff0000; stroke: #ff0000"/>
     <use xlink:href="#m174474ea19" x="375.194162" y="154.983493" style="fill: #ff0000; stroke: #ff0000"/>
     <use xlink:href="#m174474ea19" x="379.382652" y="138.990668" style="fill: #ff0000; stroke: #ff0000"/>
     <use xlink:href="#m174474ea19" x="383.571143" y="128.809547" style="fill: #ff0000; stroke: #ff0000"/>
     <use xlink:href="#m174474ea19" x="387.759633" y="102.437663" style="fill: #ff0000; stroke: #ff0000"/>
     <use xlink:href="#m174474ea19" x="391.948123" y="156.33389" style="fill: #ff0000; stroke: #ff0000"/>
     <use xlink:href="#m174474ea19" x="396.136614" y="162.845564" style="fill: #ff0000; stroke: #ff0000"/>
     <use xlink:href="#m174474ea19" x="400.325104" y="146.060879" style="fill: #ff0000; stroke: #ff0000"/>
     <use xlink:href="#m174474ea19" x="404.513595" y="133.405195" style="fill: #ff0000; stroke: #ff0000"/>
     <use xlink:href="#m174474ea19" x="408.702085" y="162.315293" style="fill: #ff0000; stroke: #ff0000"/>
     <use xlink:href="#m174474ea19" x="412.890575" y="113.629808" style="fill: #ff0000; stroke: #ff0000"/>
     <use xlink:href="#m174474ea19" x="417.079066" y="89.53455" style="fill: #ff0000; stroke: #ff0000"/>
     <use xlink:href="#m174474ea19" x="421.267556" y="229.531789" style="fill: #ff0000; stroke: #ff0000"/>
     <use xlink:href="#m174474ea19" x="425.456047" y="175.840594" style="fill: #ff0000; stroke: #ff0000"/>
     <use xlink:href="#m174474ea19" x="429.644537" y="220.248604" style="fill: #ff0000; stroke: #ff0000"/>
     <use xlink:href="#m174474ea19" x="433.833028" y="265.738328" style="fill: #ff0000; stroke: #ff0000"/>
     <use xlink:href="#m174474ea19" x="438.021518" y="192.130366" style="fill: #ff0000; stroke: #ff0000"/>
     <use xlink:href="#m174474ea19" x="442.210008" y="120.565705" style="fill: #ff0000; stroke: #ff0000"/>
     <use xlink:href="#m174474ea19" x="446.398499" y="159.692229" style="fill: #ff0000; stroke: #ff0000"/>
     <use xlink:href="#m174474ea19" x="450.586989" y="151.646352" style="fill: #ff0000; stroke: #ff0000"/>
     <use xlink:href="#m174474ea19" x="454.77548" y="233.872887" style="fill: #ff0000; stroke: #ff0000"/>
     <use xlink:href="#m174474ea19" x="458.96397" y="355.169428" style="fill: #ff0000; stroke: #ff0000"/>
     <use xlink:href="#m174474ea19" x="463.15246" y="459.935821" style="fill: #ff0000; stroke: #ff0000"/>
     <use xlink:href="#m174474ea19" x="467.340951" y="462.134656" style="fill: #ff0000; stroke: #ff0000"/>
     <use xlink:href="#m174474ea19" x="471.529441" y="442.034049" style="fill: #ff0000; stroke: #ff0000"/>
     <use xlink:href="#m174474ea19" x="475.717932" y="427.462339" style="fill: #ff0000; stroke: #ff0000"/>
     <use xlink:href="#m174474ea19" x="479.906422" y="469.565452" style="fill: #ff0000; stroke: #ff0000"/>
     <use xlink:href="#m174474ea19" x="484.094912" y="100.641845" style="fill: #ff0000; stroke: #ff0000"/>
     <use xlink:href="#m174474ea19" x="488.283403" y="157.154042" style="fill: #ff0000; stroke: #ff0000"/>
     <use xlink:href="#m174474ea19" x="492.471893" y="104.120393" style="fill: #ff0000; stroke: #ff0000"/>
     <use xlink:href="#m174474ea19" x="496.660384" y="110.603775" style="fill: #ff0000; stroke: #ff0000"/>
     <use xlink:href="#m174474ea19" x="500.848874" y="326.216919" style="fill: #ff0000; stroke: #ff0000"/>
     <use xlink:href="#m174474ea19" x="505.037364" y="107.881729" style="fill: #ff0000; stroke: #ff0000"/>
     <use xlink:href="#m174474ea19" x="509.225855" y="158.72363" style="fill: #ff0000; stroke: #ff0000"/>
     <use xlink:href="#m174474ea19" x="513.414345" y="113.297502" style="fill: #ff0000; stroke: #ff0000"/>
     <use xlink:href="#m174474ea19" x="517.602836" y="113.863132" style="fill: #ff0000; stroke: #ff0000"/>
     <use xlink:href="#m174474ea19" x="521.791326" y="124.008895" style="fill: #ff0000; stroke: #ff0000"/>
     <use xlink:href="#m174474ea19" x="525.979817" y="182.960296" style="fill: #ff0000; stroke: #ff0000"/>
     <use xlink:href="#m174474ea19" x="530.168307" y="139.966361" style="fill: #ff0000; stroke: #ff0000"/>
     <use xlink:href="#m174474ea19" x="534.356797" y="107.697896" style="fill: #ff0000; stroke: #ff0000"/>
     <use xlink:href="#m174474ea19" x="538.545288" y="121.223224" style="fill: #ff0000; stroke: #ff0000"/>
     <use xlink:href="#m174474ea19" x="542.733778" y="180.591782" style="fill: #ff0000; stroke: #ff0000"/>
     <use xlink:href="#m174474ea19" x="546.922269" y="138.078599" style="fill: #ff0000; stroke: #ff0000"/>
     <use xlink:href="#m174474ea19" x="551.110759" y="133.12238" style="fill: #ff0000; stroke: #ff0000"/>
     <use xlink:href="#m174474ea19" x="555.299249" y="172.581237" style="fill: #ff0000; stroke: #ff0000"/>
     <use xlink:href="#m174474ea19" x="559.48774" y="104.643571" style="fill: #ff0000; stroke: #ff0000"/>
     <use xlink:href="#m174474ea19" x="563.67623" y="170.919733" style="fill: #ff0000; stroke: #ff0000"/>
     <use xlink:href="#m174474ea19" x="567.864721" y="105.895012" style="fill: #ff0000; stroke: #ff0000"/>
     <use xlink:href="#m174474ea19" x="572.053211" y="139.648187" style="fill: #ff0000; stroke: #ff0000"/>
     <use xlink:href="#m174474ea19" x="576.241701" y="118.380997" style="fill: #ff0000; stroke: #ff0000"/>
     <use xlink:href="#m174474ea19" x="580.430192" y="143.303501" style="fill: #ff0000; stroke: #ff0000"/>
     <use xlink:href="#m174474ea19" x="584.618682" y="118.303213" style="fill: #ff0000; stroke: #ff0000"/>
     <use xlink:href="#m174474ea19" x="588.807173" y="176.887004" style="fill: #ff0000; stroke: #ff0000"/>
     <use xlink:href="#m174474ea19" x="592.995663" y="107.471666" style="fill: #ff0000; stroke: #ff0000"/>
     <use xlink:href="#m174474ea19" x="597.184153" y="113.983314" style="fill: #ff0000; stroke: #ff0000"/>
     <use xlink:href="#m174474ea19" x="601.372644" y="272.829765" style="fill: #ff0000; stroke: #ff0000"/>
     <use xlink:href="#m174474ea19" x="605.561134" y="277.375895" style="fill: #ff0000; stroke: #ff0000"/>
     <use xlink:href="#m174474ea19" x="609.749625" y="446.622611" style="fill: #ff0000; stroke: #ff0000"/>
     <use xlink:href="#m174474ea19" x="613.938115" y="420.922399" style="fill: #ff0000; stroke: #ff0000"/>
     <use xlink:href="#m174474ea19" x="618.126606" y="445.045957" style="fill: #ff0000; stroke: #ff0000"/>
     <use xlink:href="#m174474ea19" x="622.315096" y="442.762279" style="fill: #ff0000; stroke: #ff0000"/>
     <use xlink:href="#m174474ea19" x="626.503586" y="459.136888" style="fill: #ff0000; stroke: #ff0000"/>
     <use xlink:href="#m174474ea19" x="630.692077" y="434.115407" style="fill: #ff0000; stroke: #ff0000"/>
     <use xlink:href="#m174474ea19" x="634.880567" y="433.472021" style="fill: #ff0000; stroke: #ff0000"/>
     <use xlink:href="#m174474ea19" x="639.069058" y="455.276549" style="fill: #ff0000; stroke: #ff0000"/>
     <use xlink:href="#m174474ea19" x="643.257548" y="437.466694" style="fill: #ff0000; stroke: #ff0000"/>
     <use xlink:href="#m174474ea19" x="647.446038" y="432.482196" style="fill: #ff0000; stroke: #ff0000"/>
     <use xlink:href="#m174474ea19" x="651.634529" y="137.102907" style="fill: #ff0000; stroke: #ff0000"/>
     <use xlink:href="#m174474ea19" x="655.823019" y="139.690612" style="fill: #ff0000; stroke: #ff0000"/>
     <use xlink:href="#m174474ea19" x="660.01151" y="127.056154" style="fill: #ff0000; stroke: #ff0000"/>
     <use xlink:href="#m174474ea19" x="664.2" y="114.520651" style="fill: #ff0000; stroke: #ff0000"/>
     <use xlink:href="#m174474ea19" x="668.38849" y="150.324221" style="fill: #ff0000; stroke: #ff0000"/>
     <use xlink:href="#m174474ea19" x="672.576981" y="98.732858" style="fill: #ff0000; stroke: #ff0000"/>
     <use xlink:href="#m174474ea19" x="676.765471" y="176.377931" style="fill: #ff0000; stroke: #ff0000"/>
     <use xlink:href="#m174474ea19" x="680.953962" y="135.575744" style="fill: #ff0000; stroke: #ff0000"/>
     <use xlink:href="#m174474ea19" x="685.142452" y="159.260967" style="fill: #ff0000; stroke: #ff0000"/>
     <use xlink:href="#m174474ea19" x="689.330942" y="98.393512" style="fill: #ff0000; stroke: #ff0000"/>
     <use xlink:href="#m174474ea19" x="693.519433" y="121.937301" style="fill: #ff0000; stroke: #ff0000"/>
     <use xlink:href="#m174474ea19" x="697.707923" y="158.419589" style="fill: #ff0000; stroke: #ff0000"/>
     <use xlink:href="#m174474ea19" x="701.896414" y="183.158261" style="fill: #ff0000; stroke: #ff0000"/>
     <use xlink:href="#m174474ea19" x="706.084904" y="113.622742" style="fill: #ff0000; stroke: #ff0000"/>
     <use xlink:href="#m174474ea19" x="710.273394" y="92.765641" style="fill: #ff0000; stroke: #ff0000"/>
     <use xlink:href="#m174474ea19" x="714.461885" y="145.848754" style="fill: #ff0000; stroke: #ff0000"/>
     <use xlink:href="#m174474ea19" x="718.650375" y="149.772724" style="fill: #ff0000; stroke: #ff0000"/>
     <use xlink:href="#m174474ea19" x="722.838866" y="133.440554" style="fill: #ff0000; stroke: #ff0000"/>
     <use xlink:href="#m174474ea19" x="727.027356" y="147.503192" style="fill: #ff0000; stroke: #ff0000"/>
     <use xlink:href="#m174474ea19" x="731.215847" y="124.044226" style="fill: #ff0000; stroke: #ff0000"/>
     <use xlink:href="#m174474ea19" x="735.404337" y="146.025521" style="fill: #ff0000; stroke: #ff0000"/>
     <use xlink:href="#m174474ea19" x="739.592827" y="119.604145" style="fill: #ff0000; stroke: #ff0000"/>
     <use xlink:href="#m174474ea19" x="743.781318" y="118.06285" style="fill: #ff0000; stroke: #ff0000"/>
     <use xlink:href="#m174474ea19" x="747.969808" y="136.098949" style="fill: #ff0000; stroke: #ff0000"/>
     <use xlink:href="#m174474ea19" x="752.158299" y="178.760605" style="fill: #ff0000; stroke: #ff0000"/>
     <use xlink:href="#m174474ea19" x="756.346789" y="172.128749" style="fill: #ff0000; stroke: #ff0000"/>
     <use xlink:href="#m174474ea19" x="760.535279" y="169.484486" style="fill: #ff0000; stroke: #ff0000"/>
     <use xlink:href="#m174474ea19" x="764.72377" y="125.741089" style="fill: #ff0000; stroke: #ff0000"/>
     <use xlink:href="#m174474ea19" x="768.91226" y="111.049197" style="fill: #ff0000; stroke: #ff0000"/>
     <use xlink:href="#m174474ea19" x="773.100751" y="256.893498" style="fill: #ff0000; stroke: #ff0000"/>
     <use xlink:href="#m174474ea19" x="777.289241" y="248.338549" style="fill: #ff0000; stroke: #ff0000"/>
     <use xlink:href="#m174474ea19" x="781.477731" y="266.417073" style="fill: #ff0000; stroke: #ff0000"/>
     <use xlink:href="#m174474ea19" x="785.666222" y="203.11748" style="fill: #ff0000; stroke: #ff0000"/>
     <use xlink:href="#m174474ea19" x="789.854712" y="325.552334" style="fill: #ff0000; stroke: #ff0000"/>
     <use xlink:href="#m174474ea19" x="794.043203" y="452.349485" style="fill: #ff0000; stroke: #ff0000"/>
     <use xlink:href="#m174474ea19" x="798.231693" y="179.566598" style="fill: #ff0000; stroke: #ff0000"/>
     <use xlink:href="#m174474ea19" x="802.420183" y="460.381242" style="fill: #ff0000; stroke: #ff0000"/>
     <use xlink:href="#m174474ea19" x="806.608674" y="458.656114" style="fill: #ff0000; stroke: #ff0000"/>
     <use xlink:href="#m174474ea19" x="810.797164" y="440.754343" style="fill: #ff0000; stroke: #ff0000"/>
     <use xlink:href="#m174474ea19" x="814.985655" y="439.764504" style="fill: #ff0000; stroke: #ff0000"/>
     <use xlink:href="#m174474ea19" x="819.174145" y="450.794036" style="fill: #ff0000; stroke: #ff0000"/>
     <use xlink:href="#m174474ea19" x="823.362636" y="204.114372" style="fill: #ff0000; stroke: #ff0000"/>
     <use xlink:href="#m174474ea19" x="827.551126" y="241.932923" style="fill: #ff0000; stroke: #ff0000"/>
     <use xlink:href="#m174474ea19" x="831.739616" y="222.737299" style="fill: #ff0000; stroke: #ff0000"/>
     <use xlink:href="#m174474ea19" x="835.928107" y="192.292972" style="fill: #ff0000; stroke: #ff0000"/>
     <use xlink:href="#m174474ea19" x="840.116597" y="137.710962" style="fill: #ff0000; stroke: #ff0000"/>
     <use xlink:href="#m174474ea19" x="844.305088" y="89.28" style="fill: #ff0000; stroke: #ff0000"/>
     <use xlink:href="#m174474ea19" x="848.493578" y="161.297175" style="fill: #ff0000; stroke: #ff0000"/>
     <use xlink:href="#m174474ea19" x="852.682068" y="126.179444" style="fill: #ff0000; stroke: #ff0000"/>
     <use xlink:href="#m174474ea19" x="856.870559" y="113.884331" style="fill: #ff0000; stroke: #ff0000"/>
     <use xlink:href="#m174474ea19" x="861.059049" y="293.474768" style="fill: #ff0000; stroke: #ff0000"/>
     <use xlink:href="#m174474ea19" x="865.24754" y="389.841752" style="fill: #ff0000; stroke: #ff0000"/>
     <use xlink:href="#m174474ea19" x="869.43603" y="265.45554" style="fill: #ff0000; stroke: #ff0000"/>
     <use xlink:href="#m174474ea19" x="873.62452" y="118.034558" style="fill: #ff0000; stroke: #ff0000"/>
     <use xlink:href="#m174474ea19" x="877.813011" y="129.14892" style="fill: #ff0000; stroke: #ff0000"/>
     <use xlink:href="#m174474ea19" x="882.001501" y="134.925291" style="fill: #ff0000; stroke: #ff0000"/>
     <use xlink:href="#m174474ea19" x="886.189992" y="202.785174" style="fill: #ff0000; stroke: #ff0000"/>
     <use xlink:href="#m174474ea19" x="890.378482" y="351.167689" style="fill: #ff0000; stroke: #ff0000"/>
     <use xlink:href="#m174474ea19" x="894.566972" y="356.032006" style="fill: #ff0000; stroke: #ff0000"/>
     <use xlink:href="#m174474ea19" x="898.755463" y="401.726775" style="fill: #ff0000; stroke: #ff0000"/>
     <use xlink:href="#m174474ea19" x="902.943953" y="245.786202" style="fill: #ff0000; stroke: #ff0000"/>
     <use xlink:href="#m174474ea19" x="907.132444" y="141.58544" style="fill: #ff0000; stroke: #ff0000"/>
     <use xlink:href="#m174474ea19" x="911.320934" y="149.86464" style="fill: #ff0000; stroke: #ff0000"/>
     <use xlink:href="#m174474ea19" x="915.509425" y="118.776927" style="fill: #ff0000; stroke: #ff0000"/>
     <use xlink:href="#m174474ea19" x="919.697915" y="123.075627" style="fill: #ff0000; stroke: #ff0000"/>
     <use xlink:href="#m174474ea19" x="923.886405" y="269.542116" style="fill: #ff0000; stroke: #ff0000"/>
     <use xlink:href="#m174474ea19" x="928.074896" y="168.565351" style="fill: #ff0000; stroke: #ff0000"/>
     <use xlink:href="#m174474ea19" x="932.263386" y="236.906014" style="fill: #ff0000; stroke: #ff0000"/>
     <use xlink:href="#m174474ea19" x="936.451877" y="176.476914" style="fill: #ff0000; stroke: #ff0000"/>
     <use xlink:href="#m174474ea19" x="940.640367" y="177.466739" style="fill: #ff0000; stroke: #ff0000"/>
     <use xlink:href="#m174474ea19" x="944.828857" y="137.414014" style="fill: #ff0000; stroke: #ff0000"/>
     <use xlink:href="#m174474ea19" x="949.017348" y="94.377627" style="fill: #ff0000; stroke: #ff0000"/>
     <use xlink:href="#m174474ea19" x="953.205838" y="136.056524" style="fill: #ff0000; stroke: #ff0000"/>
     <use xlink:href="#m174474ea19" x="957.394329" y="133.079955" style="fill: #ff0000; stroke: #ff0000"/>
     <use xlink:href="#m174474ea19" x="961.582819" y="348.063872" style="fill: #ff0000; stroke: #ff0000"/>
     <use xlink:href="#m174474ea19" x="965.771309" y="158.370098" style="fill: #ff0000; stroke: #ff0000"/>
     <use xlink:href="#m174474ea19" x="969.9598" y="161.954694" style="fill: #ff0000; stroke: #ff0000"/>
     <use xlink:href="#m174474ea19" x="974.14829" y="126.97837" style="fill: #ff0000; stroke: #ff0000"/>
     <use xlink:href="#m174474ea19" x="978.336781" y="168.940082" style="fill: #ff0000; stroke: #ff0000"/>
     <use xlink:href="#m174474ea19" x="982.525271" y="356.739016" style="fill: #ff0000; stroke: #ff0000"/>
     <use xlink:href="#m174474ea19" x="986.713761" y="492.48" style="fill: #ff0000; stroke: #ff0000"/>
     <use xlink:href="#m174474ea19" x="990.902252" y="346.946786" style="fill: #ff0000; stroke: #ff0000"/>
     <use xlink:href="#m174474ea19" x="995.090742" y="150.055539" style="fill: #ff0000; stroke: #ff0000"/>
     <use xlink:href="#m174474ea19" x="999.279233" y="140.044117" style="fill: #ff0000; stroke: #ff0000"/>
     <use xlink:href="#m174474ea19" x="1003.467723" y="129.481226" style="fill: #ff0000; stroke: #ff0000"/>
     <use xlink:href="#m174474ea19" x="1007.656214" y="103.243683" style="fill: #ff0000; stroke: #ff0000"/>
     <use xlink:href="#m174474ea19" x="1011.844704" y="117.8083" style="fill: #ff0000; stroke: #ff0000"/>
     <use xlink:href="#m174474ea19" x="1016.033194" y="149.935357" style="fill: #ff0000; stroke: #ff0000"/>
     <use xlink:href="#m174474ea19" x="1020.221685" y="262.493104" style="fill: #ff0000; stroke: #ff0000"/>
     <use xlink:href="#m174474ea19" x="1024.410175" y="242.639961" style="fill: #ff0000; stroke: #ff0000"/>
     <use xlink:href="#m174474ea19" x="1028.598666" y="248.465797" style="fill: #ff0000; stroke: #ff0000"/>
     <use xlink:href="#m174474ea19" x="1032.787156" y="260.789175" style="fill: #ff0000; stroke: #ff0000"/>
     <use xlink:href="#m174474ea19" x="1036.975646" y="248.635497" style="fill: #ff0000; stroke: #ff0000"/>
     <use xlink:href="#m174474ea19" x="1041.164137" y="454.095825" style="fill: #ff0000; stroke: #ff0000"/>
     <use xlink:href="#m174474ea19" x="1045.352627" y="417.005496" style="fill: #ff0000; stroke: #ff0000"/>
     <use xlink:href="#m174474ea19" x="1049.541118" y="438.456519" style="fill: #ff0000; stroke: #ff0000"/>
     <use xlink:href="#m174474ea19" x="1053.729608" y="438.562568" style="fill: #ff0000; stroke: #ff0000"/>
     <use xlink:href="#m174474ea19" x="1057.918098" y="453.699895" style="fill: #ff0000; stroke: #ff0000"/>
     <use xlink:href="#m174474ea19" x="1062.106589" y="451.006148" style="fill: #ff0000; stroke: #ff0000"/>
     <use xlink:href="#m174474ea19" x="1066.295079" y="462.184147" style="fill: #ff0000; stroke: #ff0000"/>
     <use xlink:href="#m174474ea19" x="1070.48357" y="451.628322" style="fill: #ff0000; stroke: #ff0000"/>
     <use xlink:href="#m174474ea19" x="1074.67206" y="438.251488" style="fill: #ff0000; stroke: #ff0000"/>
     <use xlink:href="#m174474ea19" x="1078.86055" y="141.719754" style="fill: #ff0000; stroke: #ff0000"/>
     <use xlink:href="#m174474ea19" x="1083.049041" y="153.576512" style="fill: #ff0000; stroke: #ff0000"/>
     <use xlink:href="#m174474ea19" x="1087.237531" y="121.223224" style="fill: #ff0000; stroke: #ff0000"/>
     <use xlink:href="#m174474ea19" x="1091.426022" y="163.467724" style="fill: #ff0000; stroke: #ff0000"/>
     <use xlink:href="#m174474ea19" x="1095.614512" y="140.86427" style="fill: #ff0000; stroke: #ff0000"/>
     <use xlink:href="#m174474ea19" x="1099.803003" y="180.089803" style="fill: #ff0000; stroke: #ff0000"/>
     <use xlink:href="#m174474ea19" x="1103.991493" y="164.931263" style="fill: #ff0000; stroke: #ff0000"/>
     <use xlink:href="#m174474ea19" x="1108.179983" y="151.087789" style="fill: #ff0000; stroke: #ff0000"/>
     <use xlink:href="#m174474ea19" x="1112.368474" y="89.562815" style="fill: #ff0000; stroke: #ff0000"/>
     <use xlink:href="#m174474ea19" x="1116.556964" y="116.090239" style="fill: #ff0000; stroke: #ff0000"/>
     <use xlink:href="#m174474ea19" x="1120.745455" y="114.88125" style="fill: #ff0000; stroke: #ff0000"/>
    </g>
   </g>
   <g id="line2d_24">
    <path d="M 207.654545 131.353479 
L 211.843036 163.26388 
L 216.031526 183.887199 
L 220.220017 117.045676 
L 224.408507 165.939213 
L 228.596997 145.352251 
L 232.785488 94.874481 
L 236.973978 108.099949 
L 241.162469 130.366593 
L 245.350959 134.270631 
L 249.53945 135.049519 
L 253.72794 159.908103 
L 257.91643 160.556452 
L 262.104921 121.388096 
L 266.293411 124.220264 
L 270.481902 152.55238 
L 274.670392 148.467071 
L 278.858882 155.773735 
L 283.047373 124.650069 
L 287.235863 150.253045 
L 291.424354 105.868014 
L 295.612844 99.779106 
L 299.801334 147.740103 
L 303.989825 117.006731 
L 308.178315 146.488904 
L 312.366806 167.602227 
L 316.555296 162.508322 
L 320.743786 153.53851 
L 324.932277 123.960482 
L 329.120767 122.76158 
L 333.309258 147.580166 
L 337.497748 154.857863 
L 341.686239 141.111052 
L 345.874729 120.143074 
L 350.063219 134.971762 
L 354.25171 114.969741 
L 358.4402 128.331114 
L 362.628691 163.724054 
L 366.817181 101.286337 
L 371.005671 149.295774 
L 375.194162 147.108961 
L 379.382652 138.199105 
L 383.571143 132.194426 
L 387.759633 97.727336 
L 391.948123 157.491095 
L 396.136614 160.97795 
L 400.325104 146.287946 
L 404.513595 142.621007 
L 408.702085 163.134097 
L 412.890575 112.692279 
L 417.079066 104.214467 
L 421.267556 223.435328 
L 425.456047 167.093775 
L 429.644537 215.140998 
L 433.833028 256.189859 
L 438.021518 186.036441 
L 442.210008 124.212146 
L 446.398499 152.98178 
L 450.586989 150.467193 
L 454.77548 217.484132 
L 458.96397 355.614122 
L 463.15246 451.141352 
L 467.340951 448.022526 
L 471.529441 437.353349 
L 475.717932 434.17032 
L 479.906422 455.442277 
L 484.094912 90.798289 
L 488.283403 155.911285 
L 492.471893 106.937241 
L 496.660384 112.173767 
L 500.848874 312.058184 
L 505.037364 104.401671 
L 509.225855 156.767983 
L 513.414345 105.010804 
L 517.602836 120.184906 
L 521.791326 122.368994 
L 525.979817 179.037082 
L 530.168307 135.18564 
L 534.356797 102.141579 
L 538.545288 124.888275 
L 542.733778 166.613535 
L 546.922269 141.513185 
L 551.110759 132.235502 
L 555.299249 167.810927 
L 559.48774 101.980348 
L 563.67623 156.038965 
L 567.864721 100.636613 
L 572.053211 128.286693 
L 576.241701 106.516013 
L 580.430192 139.563202 
L 584.618682 120.119151 
L 588.807173 166.650862 
L 592.995663 93.246475 
L 597.184153 109.186707 
L 601.372644 275.462295 
L 605.561134 274.646782 
L 609.749625 445.662467 
L 613.938115 435.723455 
L 618.126606 444.280643 
L 622.315096 447.947244 
L 626.503586 447.856926 
L 630.692077 427.463674 
L 634.880567 422.699621 
L 639.069058 438.762273 
L 643.257548 426.069962 
L 647.446038 423.704725 
L 651.634529 117.48627 
L 655.823019 132.284939 
L 660.01151 123.22963 
L 664.2 110.606337 
L 668.38849 139.320682 
L 672.576981 103.214689 
L 676.765471 161.772777 
L 680.953962 133.410535 
L 685.142452 159.016855 
L 689.330942 104.083173 
L 693.519433 123.226258 
L 697.707923 151.655199 
L 701.896414 163.125655 
L 706.084904 120.305141 
L 710.273394 94.029597 
L 714.461885 140.912898 
L 718.650375 148.931372 
L 722.838866 140.489053 
L 727.027356 138.193684 
L 731.215847 115.866031 
L 735.404337 144.549252 
L 739.592827 109.609823 
L 743.781318 117.340493 
L 747.969808 144.545287 
L 752.158299 165.119114 
L 756.346789 167.126113 
L 760.535279 152.095819 
L 764.72377 107.645897 
L 768.91226 109.07022 
L 773.100751 247.561604 
L 777.289241 245.383017 
L 781.477731 259.90494 
L 785.666222 187.503378 
L 789.854712 333.692891 
L 794.043203 447.860816 
L 798.231693 171.273912 
L 802.420183 457.066966 
L 806.608674 448.066434 
L 810.797164 437.111557 
L 814.985655 432.710314 
L 819.174145 446.0634 
L 823.362636 224.1247 
L 827.551126 224.13155 
L 831.739616 187.696165 
L 835.928107 113.171037 
L 840.116597 167.635617 
L 844.305088 156.661988 
L 848.493578 149.376039 
L 852.682068 157.473699 
L 856.870559 158.234705 
L 861.059049 173.789471 
L 865.24754 251.056954 
L 869.43603 238.273968 
L 873.62452 137.839639 
L 877.813011 145.56033 
L 882.001501 130.932763 
L 886.189992 136.311289 
L 890.378482 168.064991 
L 894.566972 301.874689 
L 898.755463 278.142861 
L 902.943953 157.678757 
L 907.132444 133.464935 
L 911.320934 121.002172 
L 915.509425 107.087927 
L 919.697915 134.682744 
L 923.886405 164.230564 
L 928.074896 157.554746 
L 932.263386 196.578484 
L 936.451877 194.646788 
L 940.640367 190.390377 
L 944.828857 128.593943 
L 949.017348 106.688706 
L 953.205838 148.177972 
L 957.394329 154.170811 
L 961.582819 149.794516 
L 965.771309 146.397582 
L 969.9598 157.247469 
L 974.14829 112.687317 
L 978.336781 112.258698 
L 982.525271 127.089625 
L 986.713761 193.252887 
L 990.902252 140.033841 
L 995.090742 265.061633 
L 999.279233 173.352383 
L 1003.467723 145.866906 
L 1007.656214 113.354518 
L 1011.844704 145.338442 
L 1016.033194 169.285254 
L 1020.221685 159.797981 
L 1024.410175 152.5051 
L 1028.598666 161.539777 
L 1032.787156 142.503442 
L 1036.975646 113.981102 
L 1041.164137 155.640338 
L 1045.352627 434.352884 
L 1049.541118 442.78281 
L 1053.729608 306.038833 
L 1057.918098 159.129269 
L 1062.106589 220.102207 
L 1066.295079 415.535147 
L 1070.48357 344.484171 
L 1074.67206 387.911755 
L 1078.86055 195.38832 
L 1083.049041 197.756187 
L 1087.237531 132.332758 
L 1091.426022 124.998531 
L 1095.614512 107.181192 
L 1103.991493 138.860507 
L 1108.179983 137.266592 
L 1112.368474 128.524925 
L 1116.556964 153.784645 
L 1120.745455 155.093992 
L 1120.745455 155.093992 
" clip-path="url(#pcb08d68217)" style="fill: none; stroke-dasharray: 5.55,2.4; stroke-dashoffset: 0; stroke: #bfbf00; stroke-width: 1.5"/>
    <defs>
     <path id="m9a81736300" d="M -2 2 
L 2 -2 
M -2 -2 
L 2 2 
" style="stroke: #bfbf00"/>
    </defs>
    <g clip-path="url(#pcb08d68217)">
     <use xlink:href="#m9a81736300" x="207.654545" y="131.353479" style="fill: #bfbf00; stroke: #bfbf00"/>
     <use xlink:href="#m9a81736300" x="211.843036" y="163.26388" style="fill: #bfbf00; stroke: #bfbf00"/>
     <use xlink:href="#m9a81736300" x="216.031526" y="183.887199" style="fill: #bfbf00; stroke: #bfbf00"/>
     <use xlink:href="#m9a81736300" x="220.220017" y="117.045676" style="fill: #bfbf00; stroke: #bfbf00"/>
     <use xlink:href="#m9a81736300" x="224.408507" y="165.939213" style="fill: #bfbf00; stroke: #bfbf00"/>
     <use xlink:href="#m9a81736300" x="228.596997" y="145.352251" style="fill: #bfbf00; stroke: #bfbf00"/>
     <use xlink:href="#m9a81736300" x="232.785488" y="94.874481" style="fill: #bfbf00; stroke: #bfbf00"/>
     <use xlink:href="#m9a81736300" x="236.973978" y="108.099949" style="fill: #bfbf00; stroke: #bfbf00"/>
     <use xlink:href="#m9a81736300" x="241.162469" y="130.366593" style="fill: #bfbf00; stroke: #bfbf00"/>
     <use xlink:href="#m9a81736300" x="245.350959" y="134.270631" style="fill: #bfbf00; stroke: #bfbf00"/>
     <use xlink:href="#m9a81736300" x="249.53945" y="135.049519" style="fill: #bfbf00; stroke: #bfbf00"/>
     <use xlink:href="#m9a81736300" x="253.72794" y="159.908103" style="fill: #bfbf00; stroke: #bfbf00"/>
     <use xlink:href="#m9a81736300" x="257.91643" y="160.556452" style="fill: #bfbf00; stroke: #bfbf00"/>
     <use xlink:href="#m9a81736300" x="262.104921" y="121.388096" style="fill: #bfbf00; stroke: #bfbf00"/>
     <use xlink:href="#m9a81736300" x="266.293411" y="124.220264" style="fill: #bfbf00; stroke: #bfbf00"/>
     <use xlink:href="#m9a81736300" x="270.481902" y="152.55238" style="fill: #bfbf00; stroke: #bfbf00"/>
     <use xlink:href="#m9a81736300" x="274.670392" y="148.467071" style="fill: #bfbf00; stroke: #bfbf00"/>
     <use xlink:href="#m9a81736300" x="278.858882" y="155.773735" style="fill: #bfbf00; stroke: #bfbf00"/>
     <use xlink:href="#m9a81736300" x="283.047373" y="124.650069" style="fill: #bfbf00; stroke: #bfbf00"/>
     <use xlink:href="#m9a81736300" x="287.235863" y="150.253045" style="fill: #bfbf00; stroke: #bfbf00"/>
     <use xlink:href="#m9a81736300" x="291.424354" y="105.868014" style="fill: #bfbf00; stroke: #bfbf00"/>
     <use xlink:href="#m9a81736300" x="295.612844" y="99.779106" style="fill: #bfbf00; stroke: #bfbf00"/>
     <use xlink:href="#m9a81736300" x="299.801334" y="147.740103" style="fill: #bfbf00; stroke: #bfbf00"/>
     <use xlink:href="#m9a81736300" x="303.989825" y="117.006731" style="fill: #bfbf00; stroke: #bfbf00"/>
     <use xlink:href="#m9a81736300" x="308.178315" y="146.488904" style="fill: #bfbf00; stroke: #bfbf00"/>
     <use xlink:href="#m9a81736300" x="312.366806" y="167.602227" style="fill: #bfbf00; stroke: #bfbf00"/>
     <use xlink:href="#m9a81736300" x="316.555296" y="162.508322" style="fill: #bfbf00; stroke: #bfbf00"/>
     <use xlink:href="#m9a81736300" x="320.743786" y="153.53851" style="fill: #bfbf00; stroke: #bfbf00"/>
     <use xlink:href="#m9a81736300" x="324.932277" y="123.960482" style="fill: #bfbf00; stroke: #bfbf00"/>
     <use xlink:href="#m9a81736300" x="329.120767" y="122.76158" style="fill: #bfbf00; stroke: #bfbf00"/>
     <use xlink:href="#m9a81736300" x="333.309258" y="147.580166" style="fill: #bfbf00; stroke: #bfbf00"/>
     <use xlink:href="#m9a81736300" x="337.497748" y="154.857863" style="fill: #bfbf00; stroke: #bfbf00"/>
     <use xlink:href="#m9a81736300" x="341.686239" y="141.111052" style="fill: #bfbf00; stroke: #bfbf00"/>
     <use xlink:href="#m9a81736300" x="345.874729" y="120.143074" style="fill: #bfbf00; stroke: #bfbf00"/>
     <use xlink:href="#m9a81736300" x="350.063219" y="134.971762" style="fill: #bfbf00; stroke: #bfbf00"/>
     <use xlink:href="#m9a81736300" x="354.25171" y="114.969741" style="fill: #bfbf00; stroke: #bfbf00"/>
     <use xlink:href="#m9a81736300" x="358.4402" y="128.331114" style="fill: #bfbf00; stroke: #bfbf00"/>
     <use xlink:href="#m9a81736300" x="362.628691" y="163.724054" style="fill: #bfbf00; stroke: #bfbf00"/>
     <use xlink:href="#m9a81736300" x="366.817181" y="101.286337" style="fill: #bfbf00; stroke: #bfbf00"/>
     <use xlink:href="#m9a81736300" x="371.005671" y="149.295774" style="fill: #bfbf00; stroke: #bfbf00"/>
     <use xlink:href="#m9a81736300" x="375.194162" y="147.108961" style="fill: #bfbf00; stroke: #bfbf00"/>
     <use xlink:href="#m9a81736300" x="379.382652" y="138.199105" style="fill: #bfbf00; stroke: #bfbf00"/>
     <use xlink:href="#m9a81736300" x="383.571143" y="132.194426" style="fill: #bfbf00; stroke: #bfbf00"/>
     <use xlink:href="#m9a81736300" x="387.759633" y="97.727336" style="fill: #bfbf00; stroke: #bfbf00"/>
     <use xlink:href="#m9a81736300" x="391.948123" y="157.491095" style="fill: #bfbf00; stroke: #bfbf00"/>
     <use xlink:href="#m9a81736300" x="396.136614" y="160.97795" style="fill: #bfbf00; stroke: #bfbf00"/>
     <use xlink:href="#m9a81736300" x="400.325104" y="146.287946" style="fill: #bfbf00; stroke: #bfbf00"/>
     <use xlink:href="#m9a81736300" x="404.513595" y="142.621007" style="fill: #bfbf00; stroke: #bfbf00"/>
     <use xlink:href="#m9a81736300" x="408.702085" y="163.134097" style="fill: #bfbf00; stroke: #bfbf00"/>
     <use xlink:href="#m9a81736300" x="412.890575" y="112.692279" style="fill: #bfbf00; stroke: #bfbf00"/>
     <use xlink:href="#m9a81736300" x="417.079066" y="104.214467" style="fill: #bfbf00; stroke: #bfbf00"/>
     <use xlink:href="#m9a81736300" x="421.267556" y="223.435328" style="fill: #bfbf00; stroke: #bfbf00"/>
     <use xlink:href="#m9a81736300" x="425.456047" y="167.093775" style="fill: #bfbf00; stroke: #bfbf00"/>
     <use xlink:href="#m9a81736300" x="429.644537" y="215.140998" style="fill: #bfbf00; stroke: #bfbf00"/>
     <use xlink:href="#m9a81736300" x="433.833028" y="256.189859" style="fill: #bfbf00; stroke: #bfbf00"/>
     <use xlink:href="#m9a81736300" x="438.021518" y="186.036441" style="fill: #bfbf00; stroke: #bfbf00"/>
     <use xlink:href="#m9a81736300" x="442.210008" y="124.212146" style="fill: #bfbf00; stroke: #bfbf00"/>
     <use xlink:href="#m9a81736300" x="446.398499" y="152.98178" style="fill: #bfbf00; stroke: #bfbf00"/>
     <use xlink:href="#m9a81736300" x="450.586989" y="150.467193" style="fill: #bfbf00; stroke: #bfbf00"/>
     <use xlink:href="#m9a81736300" x="454.77548" y="217.484132" style="fill: #bfbf00; stroke: #bfbf00"/>
     <use xlink:href="#m9a81736300" x="458.96397" y="355.614122" style="fill: #bfbf00; stroke: #bfbf00"/>
     <use xlink:href="#m9a81736300" x="463.15246" y="451.141352" style="fill: #bfbf00; stroke: #bfbf00"/>
     <use xlink:href="#m9a81736300" x="467.340951" y="448.022526" style="fill: #bfbf00; stroke: #bfbf00"/>
     <use xlink:href="#m9a81736300" x="471.529441" y="437.353349" style="fill: #bfbf00; stroke: #bfbf00"/>
     <use xlink:href="#m9a81736300" x="475.717932" y="434.17032" style="fill: #bfbf00; stroke: #bfbf00"/>
     <use xlink:href="#m9a81736300" x="479.906422" y="455.442277" style="fill: #bfbf00; stroke: #bfbf00"/>
     <use xlink:href="#m9a81736300" x="484.094912" y="90.798289" style="fill: #bfbf00; stroke: #bfbf00"/>
     <use xlink:href="#m9a81736300" x="488.283403" y="155.911285" style="fill: #bfbf00; stroke: #bfbf00"/>
     <use xlink:href="#m9a81736300" x="492.471893" y="106.937241" style="fill: #bfbf00; stroke: #bfbf00"/>
     <use xlink:href="#m9a81736300" x="496.660384" y="112.173767" style="fill: #bfbf00; stroke: #bfbf00"/>
     <use xlink:href="#m9a81736300" x="500.848874" y="312.058184" style="fill: #bfbf00; stroke: #bfbf00"/>
     <use xlink:href="#m9a81736300" x="505.037364" y="104.401671" style="fill: #bfbf00; stroke: #bfbf00"/>
     <use xlink:href="#m9a81736300" x="509.225855" y="156.767983" style="fill: #bfbf00; stroke: #bfbf00"/>
     <use xlink:href="#m9a81736300" x="513.414345" y="105.010804" style="fill: #bfbf00; stroke: #bfbf00"/>
     <use xlink:href="#m9a81736300" x="517.602836" y="120.184906" style="fill: #bfbf00; stroke: #bfbf00"/>
     <use xlink:href="#m9a81736300" x="521.791326" y="122.368994" style="fill: #bfbf00; stroke: #bfbf00"/>
     <use xlink:href="#m9a81736300" x="525.979817" y="179.037082" style="fill: #bfbf00; stroke: #bfbf00"/>
     <use xlink:href="#m9a81736300" x="530.168307" y="135.18564" style="fill: #bfbf00; stroke: #bfbf00"/>
     <use xlink:href="#m9a81736300" x="534.356797" y="102.141579" style="fill: #bfbf00; stroke: #bfbf00"/>
     <use xlink:href="#m9a81736300" x="538.545288" y="124.888275" style="fill: #bfbf00; stroke: #bfbf00"/>
     <use xlink:href="#m9a81736300" x="542.733778" y="166.613535" style="fill: #bfbf00; stroke: #bfbf00"/>
     <use xlink:href="#m9a81736300" x="546.922269" y="141.513185" style="fill: #bfbf00; stroke: #bfbf00"/>
     <use xlink:href="#m9a81736300" x="551.110759" y="132.235502" style="fill: #bfbf00; stroke: #bfbf00"/>
     <use xlink:href="#m9a81736300" x="555.299249" y="167.810927" style="fill: #bfbf00; stroke: #bfbf00"/>
     <use xlink:href="#m9a81736300" x="559.48774" y="101.980348" style="fill: #bfbf00; stroke: #bfbf00"/>
     <use xlink:href="#m9a81736300" x="563.67623" y="156.038965" style="fill: #bfbf00; stroke: #bfbf00"/>
     <use xlink:href="#m9a81736300" x="567.864721" y="100.636613" style="fill: #bfbf00; stroke: #bfbf00"/>
     <use xlink:href="#m9a81736300" x="572.053211" y="128.286693" style="fill: #bfbf00; stroke: #bfbf00"/>
     <use xlink:href="#m9a81736300" x="576.241701" y="106.516013" style="fill: #bfbf00; stroke: #bfbf00"/>
     <use xlink:href="#m9a81736300" x="580.430192" y="139.563202" style="fill: #bfbf00; stroke: #bfbf00"/>
     <use xlink:href="#m9a81736300" x="584.618682" y="120.119151" style="fill: #bfbf00; stroke: #bfbf00"/>
     <use xlink:href="#m9a81736300" x="588.807173" y="166.650862" style="fill: #bfbf00; stroke: #bfbf00"/>
     <use xlink:href="#m9a81736300" x="592.995663" y="93.246475" style="fill: #bfbf00; stroke: #bfbf00"/>
     <use xlink:href="#m9a81736300" x="597.184153" y="109.186707" style="fill: #bfbf00; stroke: #bfbf00"/>
     <use xlink:href="#m9a81736300" x="601.372644" y="275.462295" style="fill: #bfbf00; stroke: #bfbf00"/>
     <use xlink:href="#m9a81736300" x="605.561134" y="274.646782" style="fill: #bfbf00; stroke: #bfbf00"/>
     <use xlink:href="#m9a81736300" x="609.749625" y="445.662467" style="fill: #bfbf00; stroke: #bfbf00"/>
     <use xlink:href="#m9a81736300" x="613.938115" y="435.723455" style="fill: #bfbf00; stroke: #bfbf00"/>
     <use xlink:href="#m9a81736300" x="618.126606" y="444.280643" style="fill: #bfbf00; stroke: #bfbf00"/>
     <use xlink:href="#m9a81736300" x="622.315096" y="447.947244" style="fill: #bfbf00; stroke: #bfbf00"/>
     <use xlink:href="#m9a81736300" x="626.503586" y="447.856926" style="fill: #bfbf00; stroke: #bfbf00"/>
     <use xlink:href="#m9a81736300" x="630.692077" y="427.463674" style="fill: #bfbf00; stroke: #bfbf00"/>
     <use xlink:href="#m9a81736300" x="634.880567" y="422.699621" style="fill: #bfbf00; stroke: #bfbf00"/>
     <use xlink:href="#m9a81736300" x="639.069058" y="438.762273" style="fill: #bfbf00; stroke: #bfbf00"/>
     <use xlink:href="#m9a81736300" x="643.257548" y="426.069962" style="fill: #bfbf00; stroke: #bfbf00"/>
     <use xlink:href="#m9a81736300" x="647.446038" y="423.704725" style="fill: #bfbf00; stroke: #bfbf00"/>
     <use xlink:href="#m9a81736300" x="651.634529" y="117.48627" style="fill: #bfbf00; stroke: #bfbf00"/>
     <use xlink:href="#m9a81736300" x="655.823019" y="132.284939" style="fill: #bfbf00; stroke: #bfbf00"/>
     <use xlink:href="#m9a81736300" x="660.01151" y="123.22963" style="fill: #bfbf00; stroke: #bfbf00"/>
     <use xlink:href="#m9a81736300" x="664.2" y="110.606337" style="fill: #bfbf00; stroke: #bfbf00"/>
     <use xlink:href="#m9a81736300" x="668.38849" y="139.320682" style="fill: #bfbf00; stroke: #bfbf00"/>
     <use xlink:href="#m9a81736300" x="672.576981" y="103.214689" style="fill: #bfbf00; stroke: #bfbf00"/>
     <use xlink:href="#m9a81736300" x="676.765471" y="161.772777" style="fill: #bfbf00; stroke: #bfbf00"/>
     <use xlink:href="#m9a81736300" x="680.953962" y="133.410535" style="fill: #bfbf00; stroke: #bfbf00"/>
     <use xlink:href="#m9a81736300" x="685.142452" y="159.016855" style="fill: #bfbf00; stroke: #bfbf00"/>
     <use xlink:href="#m9a81736300" x="689.330942" y="104.083173" style="fill: #bfbf00; stroke: #bfbf00"/>
     <use xlink:href="#m9a81736300" x="693.519433" y="123.226258" style="fill: #bfbf00; stroke: #bfbf00"/>
     <use xlink:href="#m9a81736300" x="697.707923" y="151.655199" style="fill: #bfbf00; stroke: #bfbf00"/>
     <use xlink:href="#m9a81736300" x="701.896414" y="163.125655" style="fill: #bfbf00; stroke: #bfbf00"/>
     <use xlink:href="#m9a81736300" x="706.084904" y="120.305141" style="fill: #bfbf00; stroke: #bfbf00"/>
     <use xlink:href="#m9a81736300" x="710.273394" y="94.029597" style="fill: #bfbf00; stroke: #bfbf00"/>
     <use xlink:href="#m9a81736300" x="714.461885" y="140.912898" style="fill: #bfbf00; stroke: #bfbf00"/>
     <use xlink:href="#m9a81736300" x="718.650375" y="148.931372" style="fill: #bfbf00; stroke: #bfbf00"/>
     <use xlink:href="#m9a81736300" x="722.838866" y="140.489053" style="fill: #bfbf00; stroke: #bfbf00"/>
     <use xlink:href="#m9a81736300" x="727.027356" y="138.193684" style="fill: #bfbf00; stroke: #bfbf00"/>
     <use xlink:href="#m9a81736300" x="731.215847" y="115.866031" style="fill: #bfbf00; stroke: #bfbf00"/>
     <use xlink:href="#m9a81736300" x="735.404337" y="144.549252" style="fill: #bfbf00; stroke: #bfbf00"/>
     <use xlink:href="#m9a81736300" x="739.592827" y="109.609823" style="fill: #bfbf00; stroke: #bfbf00"/>
     <use xlink:href="#m9a81736300" x="743.781318" y="117.340493" style="fill: #bfbf00; stroke: #bfbf00"/>
     <use xlink:href="#m9a81736300" x="747.969808" y="144.545287" style="fill: #bfbf00; stroke: #bfbf00"/>
     <use xlink:href="#m9a81736300" x="752.158299" y="165.119114" style="fill: #bfbf00; stroke: #bfbf00"/>
     <use xlink:href="#m9a81736300" x="756.346789" y="167.126113" style="fill: #bfbf00; stroke: #bfbf00"/>
     <use xlink:href="#m9a81736300" x="760.535279" y="152.095819" style="fill: #bfbf00; stroke: #bfbf00"/>
     <use xlink:href="#m9a81736300" x="764.72377" y="107.645897" style="fill: #bfbf00; stroke: #bfbf00"/>
     <use xlink:href="#m9a81736300" x="768.91226" y="109.07022" style="fill: #bfbf00; stroke: #bfbf00"/>
     <use xlink:href="#m9a81736300" x="773.100751" y="247.561604" style="fill: #bfbf00; stroke: #bfbf00"/>
     <use xlink:href="#m9a81736300" x="777.289241" y="245.383017" style="fill: #bfbf00; stroke: #bfbf00"/>
     <use xlink:href="#m9a81736300" x="781.477731" y="259.90494" style="fill: #bfbf00; stroke: #bfbf00"/>
     <use xlink:href="#m9a81736300" x="785.666222" y="187.503378" style="fill: #bfbf00; stroke: #bfbf00"/>
     <use xlink:href="#m9a81736300" x="789.854712" y="333.692891" style="fill: #bfbf00; stroke: #bfbf00"/>
     <use xlink:href="#m9a81736300" x="794.043203" y="447.860816" style="fill: #bfbf00; stroke: #bfbf00"/>
     <use xlink:href="#m9a81736300" x="798.231693" y="171.273912" style="fill: #bfbf00; stroke: #bfbf00"/>
     <use xlink:href="#m9a81736300" x="802.420183" y="457.066966" style="fill: #bfbf00; stroke: #bfbf00"/>
     <use xlink:href="#m9a81736300" x="806.608674" y="448.066434" style="fill: #bfbf00; stroke: #bfbf00"/>
     <use xlink:href="#m9a81736300" x="810.797164" y="437.111557" style="fill: #bfbf00; stroke: #bfbf00"/>
     <use xlink:href="#m9a81736300" x="814.985655" y="432.710314" style="fill: #bfbf00; stroke: #bfbf00"/>
     <use xlink:href="#m9a81736300" x="819.174145" y="446.0634" style="fill: #bfbf00; stroke: #bfbf00"/>
     <use xlink:href="#m9a81736300" x="823.362636" y="224.1247" style="fill: #bfbf00; stroke: #bfbf00"/>
     <use xlink:href="#m9a81736300" x="827.551126" y="224.13155" style="fill: #bfbf00; stroke: #bfbf00"/>
     <use xlink:href="#m9a81736300" x="831.739616" y="187.696165" style="fill: #bfbf00; stroke: #bfbf00"/>
     <use xlink:href="#m9a81736300" x="835.928107" y="113.171037" style="fill: #bfbf00; stroke: #bfbf00"/>
     <use xlink:href="#m9a81736300" x="840.116597" y="167.635617" style="fill: #bfbf00; stroke: #bfbf00"/>
     <use xlink:href="#m9a81736300" x="844.305088" y="156.661988" style="fill: #bfbf00; stroke: #bfbf00"/>
     <use xlink:href="#m9a81736300" x="848.493578" y="149.376039" style="fill: #bfbf00; stroke: #bfbf00"/>
     <use xlink:href="#m9a81736300" x="852.682068" y="157.473699" style="fill: #bfbf00; stroke: #bfbf00"/>
     <use xlink:href="#m9a81736300" x="856.870559" y="158.234705" style="fill: #bfbf00; stroke: #bfbf00"/>
     <use xlink:href="#m9a81736300" x="861.059049" y="173.789471" style="fill: #bfbf00; stroke: #bfbf00"/>
     <use xlink:href="#m9a81736300" x="865.24754" y="251.056954" style="fill: #bfbf00; stroke: #bfbf00"/>
     <use xlink:href="#m9a81736300" x="869.43603" y="238.273968" style="fill: #bfbf00; stroke: #bfbf00"/>
     <use xlink:href="#m9a81736300" x="873.62452" y="137.839639" style="fill: #bfbf00; stroke: #bfbf00"/>
     <use xlink:href="#m9a81736300" x="877.813011" y="145.56033" style="fill: #bfbf00; stroke: #bfbf00"/>
     <use xlink:href="#m9a81736300" x="882.001501" y="130.932763" style="fill: #bfbf00; stroke: #bfbf00"/>
     <use xlink:href="#m9a81736300" x="886.189992" y="136.311289" style="fill: #bfbf00; stroke: #bfbf00"/>
     <use xlink:href="#m9a81736300" x="890.378482" y="168.064991" style="fill: #bfbf00; stroke: #bfbf00"/>
     <use xlink:href="#m9a81736300" x="894.566972" y="301.874689" style="fill: #bfbf00; stroke: #bfbf00"/>
     <use xlink:href="#m9a81736300" x="898.755463" y="278.142861" style="fill: #bfbf00; stroke: #bfbf00"/>
     <use xlink:href="#m9a81736300" x="902.943953" y="157.678757" style="fill: #bfbf00; stroke: #bfbf00"/>
     <use xlink:href="#m9a81736300" x="907.132444" y="133.464935" style="fill: #bfbf00; stroke: #bfbf00"/>
     <use xlink:href="#m9a81736300" x="911.320934" y="121.002172" style="fill: #bfbf00; stroke: #bfbf00"/>
     <use xlink:href="#m9a81736300" x="915.509425" y="107.087927" style="fill: #bfbf00; stroke: #bfbf00"/>
     <use xlink:href="#m9a81736300" x="919.697915" y="134.682744" style="fill: #bfbf00; stroke: #bfbf00"/>
     <use xlink:href="#m9a81736300" x="923.886405" y="164.230564" style="fill: #bfbf00; stroke: #bfbf00"/>
     <use xlink:href="#m9a81736300" x="928.074896" y="157.554746" style="fill: #bfbf00; stroke: #bfbf00"/>
     <use xlink:href="#m9a81736300" x="932.263386" y="196.578484" style="fill: #bfbf00; stroke: #bfbf00"/>
     <use xlink:href="#m9a81736300" x="936.451877" y="194.646788" style="fill: #bfbf00; stroke: #bfbf00"/>
     <use xlink:href="#m9a81736300" x="940.640367" y="190.390377" style="fill: #bfbf00; stroke: #bfbf00"/>
     <use xlink:href="#m9a81736300" x="944.828857" y="128.593943" style="fill: #bfbf00; stroke: #bfbf00"/>
     <use xlink:href="#m9a81736300" x="949.017348" y="106.688706" style="fill: #bfbf00; stroke: #bfbf00"/>
     <use xlink:href="#m9a81736300" x="953.205838" y="148.177972" style="fill: #bfbf00; stroke: #bfbf00"/>
     <use xlink:href="#m9a81736300" x="957.394329" y="154.170811" style="fill: #bfbf00; stroke: #bfbf00"/>
     <use xlink:href="#m9a81736300" x="961.582819" y="149.794516" style="fill: #bfbf00; stroke: #bfbf00"/>
     <use xlink:href="#m9a81736300" x="965.771309" y="146.397582" style="fill: #bfbf00; stroke: #bfbf00"/>
     <use xlink:href="#m9a81736300" x="969.9598" y="157.247469" style="fill: #bfbf00; stroke: #bfbf00"/>
     <use xlink:href="#m9a81736300" x="974.14829" y="112.687317" style="fill: #bfbf00; stroke: #bfbf00"/>
     <use xlink:href="#m9a81736300" x="978.336781" y="112.258698" style="fill: #bfbf00; stroke: #bfbf00"/>
     <use xlink:href="#m9a81736300" x="982.525271" y="127.089625" style="fill: #bfbf00; stroke: #bfbf00"/>
     <use xlink:href="#m9a81736300" x="986.713761" y="193.252887" style="fill: #bfbf00; stroke: #bfbf00"/>
     <use xlink:href="#m9a81736300" x="990.902252" y="140.033841" style="fill: #bfbf00; stroke: #bfbf00"/>
     <use xlink:href="#m9a81736300" x="995.090742" y="265.061633" style="fill: #bfbf00; stroke: #bfbf00"/>
     <use xlink:href="#m9a81736300" x="999.279233" y="173.352383" style="fill: #bfbf00; stroke: #bfbf00"/>
     <use xlink:href="#m9a81736300" x="1003.467723" y="145.866906" style="fill: #bfbf00; stroke: #bfbf00"/>
     <use xlink:href="#m9a81736300" x="1007.656214" y="113.354518" style="fill: #bfbf00; stroke: #bfbf00"/>
     <use xlink:href="#m9a81736300" x="1011.844704" y="145.338442" style="fill: #bfbf00; stroke: #bfbf00"/>
     <use xlink:href="#m9a81736300" x="1016.033194" y="169.285254" style="fill: #bfbf00; stroke: #bfbf00"/>
     <use xlink:href="#m9a81736300" x="1020.221685" y="159.797981" style="fill: #bfbf00; stroke: #bfbf00"/>
     <use xlink:href="#m9a81736300" x="1024.410175" y="152.5051" style="fill: #bfbf00; stroke: #bfbf00"/>
     <use xlink:href="#m9a81736300" x="1028.598666" y="161.539777" style="fill: #bfbf00; stroke: #bfbf00"/>
     <use xlink:href="#m9a81736300" x="1032.787156" y="142.503442" style="fill: #bfbf00; stroke: #bfbf00"/>
     <use xlink:href="#m9a81736300" x="1036.975646" y="113.981102" style="fill: #bfbf00; stroke: #bfbf00"/>
     <use xlink:href="#m9a81736300" x="1041.164137" y="155.640338" style="fill: #bfbf00; stroke: #bfbf00"/>
     <use xlink:href="#m9a81736300" x="1045.352627" y="434.352884" style="fill: #bfbf00; stroke: #bfbf00"/>
     <use xlink:href="#m9a81736300" x="1049.541118" y="442.78281" style="fill: #bfbf00; stroke: #bfbf00"/>
     <use xlink:href="#m9a81736300" x="1053.729608" y="306.038833" style="fill: #bfbf00; stroke: #bfbf00"/>
     <use xlink:href="#m9a81736300" x="1057.918098" y="159.129269" style="fill: #bfbf00; stroke: #bfbf00"/>
     <use xlink:href="#m9a81736300" x="1062.106589" y="220.102207" style="fill: #bfbf00; stroke: #bfbf00"/>
     <use xlink:href="#m9a81736300" x="1066.295079" y="415.535147" style="fill: #bfbf00; stroke: #bfbf00"/>
     <use xlink:href="#m9a81736300" x="1070.48357" y="344.484171" style="fill: #bfbf00; stroke: #bfbf00"/>
     <use xlink:href="#m9a81736300" x="1074.67206" y="387.911755" style="fill: #bfbf00; stroke: #bfbf00"/>
     <use xlink:href="#m9a81736300" x="1078.86055" y="195.38832" style="fill: #bfbf00; stroke: #bfbf00"/>
     <use xlink:href="#m9a81736300" x="1083.049041" y="197.756187" style="fill: #bfbf00; stroke: #bfbf00"/>
     <use xlink:href="#m9a81736300" x="1087.237531" y="132.332758" style="fill: #bfbf00; stroke: #bfbf00"/>
     <use xlink:href="#m9a81736300" x="1091.426022" y="124.998531" style="fill: #bfbf00; stroke: #bfbf00"/>
     <use xlink:href="#m9a81736300" x="1095.614512" y="107.181192" style="fill: #bfbf00; stroke: #bfbf00"/>
     <use xlink:href="#m9a81736300" x="1099.803003" y="123.09332" style="fill: #bfbf00; stroke: #bfbf00"/>
     <use xlink:href="#m9a81736300" x="1103.991493" y="138.860507" style="fill: #bfbf00; stroke: #bfbf00"/>
     <use xlink:href="#m9a81736300" x="1108.179983" y="137.266592" style="fill: #bfbf00; stroke: #bfbf00"/>
     <use xlink:href="#m9a81736300" x="1112.368474" y="128.524925" style="fill: #bfbf00; stroke: #bfbf00"/>
     <use xlink:href="#m9a81736300" x="1116.556964" y="153.784645" style="fill: #bfbf00; stroke: #bfbf00"/>
     <use xlink:href="#m9a81736300" x="1120.745455" y="155.093992" style="fill: #bfbf00; stroke: #bfbf00"/>
    </g>
   </g>
   <g id="patch_3">
    <path d="M 162 512.64 
L 162 69.12 
" style="fill: none; stroke: #000000; stroke-width: 0.8; stroke-linejoin: miter; stroke-linecap: square"/>
   </g>
   <g id="patch_4">
    <path d="M 1166.4 512.64 
L 1166.4 69.12 
" style="fill: none; stroke: #000000; stroke-width: 0.8; stroke-linejoin: miter; stroke-linecap: square"/>
   </g>
   <g id="patch_5">
    <path d="M 162 512.64 
L 1166.4 512.64 
" style="fill: none; stroke: #000000; stroke-width: 0.8; stroke-linejoin: miter; stroke-linecap: square"/>
   </g>
   <g id="patch_6">
    <path d="M 162 69.12 
L 1166.4 69.12 
" style="fill: none; stroke: #000000; stroke-width: 0.8; stroke-linejoin: miter; stroke-linecap: square"/>
   </g>
   <g id="text_13">
    <!-- Informer Comparison of True Values and Predictions -->
    <g transform="translate(414.2 63.12) scale(0.2 -0.2)">
     <defs>
      <path id="SimHei-49" d="M 1850 125 
L 1275 125 
L 1275 4400 
L 1850 4400 
L 1850 125 
z
" transform="scale(0.015625)"/>
      <path id="SimHei-6e" d="M 2800 125 
L 2300 125 
L 2300 1925 
Q 2300 2225 2150 2400 
Q 2000 2575 1750 2575 
Q 1425 2575 1137 2237 
Q 850 1900 850 1400 
L 850 125 
L 350 125 
L 350 2925 
L 850 2925 
L 850 2400 
Q 1050 2675 1287 2825 
Q 1525 2975 1900 2975 
Q 2350 2975 2575 2725 
Q 2800 2475 2800 2100 
L 2800 125 
z
" transform="scale(0.015625)"/>
      <path id="SimHei-66" d="M 2850 3825 
Q 2725 3900 2550 3950 
Q 2375 4000 2100 4000 
Q 1825 4000 1725 3862 
Q 1625 3725 1625 3525 
L 1625 2925 
L 2650 2925 
L 2650 2525 
L 1625 2525 
L 1625 125 
L 1125 125 
L 1125 2525 
L 275 2525 
L 275 2925 
L 1125 2925 
L 1125 3500 
Q 1125 3950 1400 4200 
Q 1675 4450 2125 4450 
Q 2400 4450 2562 4412 
Q 2725 4375 2850 4325 
L 2850 3825 
z
" transform="scale(0.015625)"/>
      <path id="SimHei-6f" d="M 2925 1525 
Q 2925 875 2525 475 
Q 2125 75 1575 75 
Q 1025 75 625 475 
Q 225 875 225 1525 
Q 225 2175 625 2575 
Q 1025 2975 1575 2975 
Q 2125 2975 2525 2575 
Q 2925 2175 2925 1525 
z
M 2375 1525 
Q 2375 2025 2125 2275 
Q 1875 2525 1575 2525 
Q 1275 2525 1025 2275 
Q 775 2025 775 1525 
Q 775 1025 1025 775 
Q 1275 525 1575 525 
Q 1875 525 2125 775 
Q 2375 1025 2375 1525 
z
" transform="scale(0.015625)"/>
      <path id="SimHei-72" d="M 2500 2425 
Q 2025 2500 1700 2287 
Q 1375 2075 1150 1550 
L 1150 125 
L 650 125 
L 650 2925 
L 1150 2925 
L 1150 2200 
Q 1375 2600 1712 2787 
Q 2050 2975 2500 2975 
L 2500 2425 
z
" transform="scale(0.015625)"/>
      <path id="SimHei-6d" d="M 3050 125 
L 2550 125 
L 2550 2150 
Q 2550 2300 2500 2400 
Q 2450 2500 2300 2500 
Q 2125 2500 1975 2312 
Q 1825 2125 1825 1825 
L 1825 125 
L 1325 125 
L 1325 2150 
Q 1325 2300 1275 2400 
Q 1225 2500 1075 2500 
Q 900 2500 750 2312 
Q 600 2125 600 1825 
L 600 125 
L 100 125 
L 100 2925 
L 600 2925 
L 600 2550 
Q 725 2750 900 2862 
Q 1075 2975 1275 2975 
Q 1475 2975 1612 2862 
Q 1750 2750 1800 2550 
Q 1925 2750 2087 2862 
Q 2250 2975 2450 2975 
Q 2750 2975 2900 2812 
Q 3050 2650 3050 2350 
L 3050 125 
z
" transform="scale(0.015625)"/>
      <path id="SimHei-65" d="M 2850 1075 
Q 2800 625 2450 350 
Q 2100 75 1625 75 
Q 1025 75 637 462 
Q 250 850 250 1525 
Q 250 2200 637 2587 
Q 1025 2975 1625 2975 
Q 2150 2975 2487 2637 
Q 2825 2300 2825 1525 
L 800 1525 
Q 800 975 1037 750 
Q 1275 525 1625 525 
Q 1900 525 2075 662 
Q 2250 800 2300 1075 
L 2850 1075 
z
M 2250 1925 
Q 2200 2275 2025 2412 
Q 1850 2550 1575 2550 
Q 1325 2550 1125 2412 
Q 925 2275 825 1925 
L 2250 1925 
z
" transform="scale(0.015625)"/>
      <path id="SimHei-20" transform="scale(0.015625)"/>
      <path id="SimHei-43" d="M 2975 1825 
Q 2950 875 2575 475 
Q 2200 75 1675 75 
Q 1075 75 650 562 
Q 225 1050 225 2125 
Q 225 3300 637 3875 
Q 1050 4450 1700 4450 
Q 2250 4450 2612 4037 
Q 2975 3625 2950 2875 
L 2400 2875 
Q 2400 3425 2225 3700 
Q 2050 3975 1700 3975 
Q 1300 3975 1062 3562 
Q 825 3150 825 2175 
Q 825 1275 1062 912 
Q 1300 550 1675 550 
Q 1950 550 2175 812 
Q 2400 1075 2400 1825 
L 2975 1825 
z
" transform="scale(0.015625)"/>
      <path id="SimHei-70" d="M 2825 1525 
Q 2825 800 2475 425 
Q 2125 50 1625 50 
Q 1350 50 1150 162 
Q 950 275 800 500 
L 800 -800 
L 300 -800 
L 300 2925 
L 800 2925 
L 800 2550 
Q 950 2775 1150 2875 
Q 1350 2975 1625 2975 
Q 2125 2975 2475 2612 
Q 2825 2250 2825 1525 
z
M 2275 1525 
Q 2275 2000 2087 2262 
Q 1900 2525 1525 2525 
Q 1225 2525 1012 2262 
Q 800 2000 800 1525 
Q 800 1050 1012 775 
Q 1225 500 1525 500 
Q 1900 500 2087 775 
Q 2275 1050 2275 1525 
z
" transform="scale(0.015625)"/>
      <path id="SimHei-61" d="M 2875 125 
L 2275 125 
Q 2225 175 2200 262 
Q 2175 350 2175 475 
Q 2000 275 1750 175 
Q 1500 75 1225 75 
Q 825 75 550 275 
Q 275 475 275 850 
Q 275 1225 525 1450 
Q 775 1675 1300 1750 
Q 1650 1800 1912 1875 
Q 2175 1950 2175 2075 
Q 2175 2225 2062 2375 
Q 1950 2525 1575 2525 
Q 1275 2525 1137 2412 
Q 1000 2300 950 2100 
L 400 2100 
Q 450 2500 762 2737 
Q 1075 2975 1575 2975 
Q 2125 2975 2400 2725 
Q 2675 2475 2675 2025 
L 2675 650 
Q 2675 500 2725 375 
Q 2775 250 2875 125 
z
M 2175 1050 
L 2175 1550 
Q 2025 1500 1887 1462 
Q 1750 1425 1425 1375 
Q 1050 1325 937 1200 
Q 825 1075 825 900 
Q 825 750 937 637 
Q 1050 525 1275 525 
Q 1500 525 1762 650 
Q 2025 775 2175 1050 
z
" transform="scale(0.015625)"/>
      <path id="SimHei-69" d="M 1800 3725 
L 1300 3725 
L 1300 4375 
L 1800 4375 
L 1800 3725 
z
M 1800 125 
L 1300 125 
L 1300 2925 
L 1800 2925 
L 1800 125 
z
" transform="scale(0.015625)"/>
      <path id="SimHei-73" d="M 2750 900 
Q 2750 500 2437 287 
Q 2125 75 1650 75 
Q 1050 75 725 312 
Q 400 550 400 1000 
L 900 1000 
Q 900 700 1112 600 
Q 1325 500 1625 500 
Q 1925 500 2075 612 
Q 2225 725 2225 900 
Q 2225 1025 2100 1150 
Q 1975 1275 1475 1350 
Q 900 1425 687 1637 
Q 475 1850 475 2200 
Q 475 2500 762 2737 
Q 1050 2975 1600 2975 
Q 2100 2975 2387 2750 
Q 2675 2525 2675 2150 
L 2175 2150 
Q 2175 2375 2012 2462 
Q 1850 2550 1600 2550 
Q 1275 2550 1137 2437 
Q 1000 2325 1000 2175 
Q 1000 2000 1125 1900 
Q 1250 1800 1650 1750 
Q 2300 1650 2525 1437 
Q 2750 1225 2750 900 
z
" transform="scale(0.015625)"/>
      <path id="SimHei-54" d="M 2850 3925 
L 1850 3925 
L 1850 125 
L 1275 125 
L 1275 3925 
L 275 3925 
L 275 4400 
L 2850 4400 
L 2850 3925 
z
" transform="scale(0.015625)"/>
      <path id="SimHei-75" d="M 2800 125 
L 2300 125 
L 2300 650 
Q 2100 375 1862 225 
Q 1625 75 1250 75 
Q 800 75 575 325 
Q 350 575 350 950 
L 350 2925 
L 850 2925 
L 850 1125 
Q 850 825 1000 650 
Q 1150 475 1400 475 
Q 1725 475 2012 812 
Q 2300 1150 2300 1650 
L 2300 2925 
L 2800 2925 
L 2800 125 
z
" transform="scale(0.015625)"/>
      <path id="SimHei-56" d="M 3050 4400 
L 1800 75 
L 1300 75 
L 50 4400 
L 650 4400 
L 1525 1125 
L 1575 1125 
L 2450 4400 
L 3050 4400 
z
" transform="scale(0.015625)"/>
      <path id="SimHei-6c" d="M 1825 125 
L 1325 125 
L 1325 4400 
L 1825 4400 
L 1825 125 
z
" transform="scale(0.015625)"/>
      <path id="SimHei-64" d="M 2750 125 
L 2250 125 
L 2250 500 
Q 2100 275 1900 175 
Q 1700 75 1425 75 
Q 925 75 575 437 
Q 225 800 225 1525 
Q 225 2250 575 2625 
Q 925 3000 1425 3000 
Q 1700 3000 1900 2887 
Q 2100 2775 2250 2550 
L 2250 4400 
L 2750 4400 
L 2750 125 
z
M 2250 1525 
Q 2250 2000 2037 2275 
Q 1825 2550 1525 2550 
Q 1150 2550 962 2275 
Q 775 2000 775 1525 
Q 775 1050 962 787 
Q 1150 525 1525 525 
Q 1825 525 2037 787 
Q 2250 1050 2250 1525 
z
" transform="scale(0.015625)"/>
      <path id="SimHei-50" d="M 2950 3100 
Q 2950 2500 2600 2150 
Q 2250 1800 1625 1800 
L 900 1800 
L 900 125 
L 325 125 
L 325 4400 
L 1625 4400 
Q 2250 4400 2600 4050 
Q 2950 3700 2950 3100 
z
M 2375 3100 
Q 2375 3575 2150 3750 
Q 1925 3925 1475 3925 
L 900 3925 
L 900 2275 
L 1475 2275 
Q 1925 2275 2150 2450 
Q 2375 2625 2375 3100 
z
" transform="scale(0.015625)"/>
      <path id="SimHei-63" d="M 2850 1250 
Q 2850 725 2487 400 
Q 2125 75 1575 75 
Q 1025 75 625 462 
Q 225 850 225 1525 
Q 225 2200 625 2587 
Q 1025 2975 1575 2975 
Q 2125 2975 2450 2687 
Q 2775 2400 2775 2000 
L 2225 2000 
Q 2200 2300 2012 2412 
Q 1825 2525 1575 2525 
Q 1275 2525 1025 2287 
Q 775 2050 775 1525 
Q 775 1000 1025 762 
Q 1275 525 1575 525 
Q 1900 525 2100 700 
Q 2300 875 2300 1250 
L 2850 1250 
z
" transform="scale(0.015625)"/>
      <path id="SimHei-74" d="M 2750 200 
Q 2625 150 2462 112 
Q 2300 75 2025 75 
Q 1575 75 1300 325 
Q 1025 575 1025 1025 
L 1025 2525 
L 175 2525 
L 175 2925 
L 1025 2925 
L 1025 3900 
L 1525 3900 
L 1525 2925 
L 2550 2925 
L 2550 2525 
L 1525 2525 
L 1525 1000 
Q 1525 800 1625 662 
Q 1725 525 2000 525 
Q 2275 525 2450 575 
Q 2625 625 2750 700 
L 2750 200 
z
" transform="scale(0.015625)"/>
     </defs>
     <use xlink:href="#SimHei-49"/>
     <use xlink:href="#SimHei-6e" x="50"/>
     <use xlink:href="#SimHei-66" x="100"/>
     <use xlink:href="#SimHei-6f" x="150"/>
     <use xlink:href="#SimHei-72" x="200"/>
     <use xlink:href="#SimHei-6d" x="250"/>
     <use xlink:href="#SimHei-65" x="300"/>
     <use xlink:href="#SimHei-72" x="350"/>
     <use xlink:href="#SimHei-20" x="400"/>
     <use xlink:href="#SimHei-43" x="450"/>
     <use xlink:href="#SimHei-6f" x="500"/>
     <use xlink:href="#SimHei-6d" x="550"/>
     <use xlink:href="#SimHei-70" x="600"/>
     <use xlink:href="#SimHei-61" x="650"/>
     <use xlink:href="#SimHei-72" x="700"/>
     <use xlink:href="#SimHei-69" x="750"/>
     <use xlink:href="#SimHei-73" x="800"/>
     <use xlink:href="#SimHei-6f" x="850"/>
     <use xlink:href="#SimHei-6e" x="900"/>
     <use xlink:href="#SimHei-20" x="950"/>
     <use xlink:href="#SimHei-6f" x="1000"/>
     <use xlink:href="#SimHei-66" x="1050"/>
     <use xlink:href="#SimHei-20" x="1100"/>
     <use xlink:href="#SimHei-54" x="1150"/>
     <use xlink:href="#SimHei-72" x="1200"/>
     <use xlink:href="#SimHei-75" x="1250"/>
     <use xlink:href="#SimHei-65" x="1300"/>
     <use xlink:href="#SimHei-20" x="1350"/>
     <use xlink:href="#SimHei-56" x="1400"/>
     <use xlink:href="#SimHei-61" x="1450"/>
     <use xlink:href="#SimHei-6c" x="1500"/>
     <use xlink:href="#SimHei-75" x="1550"/>
     <use xlink:href="#SimHei-65" x="1600"/>
     <use xlink:href="#SimHei-73" x="1650"/>
     <use xlink:href="#SimHei-20" x="1700"/>
     <use xlink:href="#SimHei-61" x="1750"/>
     <use xlink:href="#SimHei-6e" x="1800"/>
     <use xlink:href="#SimHei-64" x="1850"/>
     <use xlink:href="#SimHei-20" x="1900"/>
     <use xlink:href="#SimHei-50" x="1950"/>
     <use xlink:href="#SimHei-72" x="2000"/>
     <use xlink:href="#SimHei-65" x="2050"/>
     <use xlink:href="#SimHei-64" x="2100"/>
     <use xlink:href="#SimHei-69" x="2150"/>
     <use xlink:href="#SimHei-63" x="2200"/>
     <use xlink:href="#SimHei-74" x="2250"/>
     <use xlink:href="#SimHei-69" x="2300"/>
     <use xlink:href="#SimHei-6f" x="2350"/>
     <use xlink:href="#SimHei-6e" x="2400"/>
     <use xlink:href="#SimHei-73" x="2450"/>
    </g>
   </g>
   <g id="legend_1">
    <g id="patch_7">
     <path d="M 169 507.64 
L 256 507.64 
Q 258 507.64 258 505.64 
L 258 480.14 
Q 258 478.14 256 478.14 
L 169 478.14 
Q 167 478.14 167 480.14 
L 167 505.64 
Q 167 507.64 169 507.64 
z
" style="fill: #ffffff; opacity: 0.8; stroke: #cccccc; stroke-linejoin: miter"/>
    </g>
    <g id="line2d_25">
     <path d="M 171 485.64 
L 181 485.64 
L 191 485.64 
" style="fill: none; stroke: #ff0000; stroke-width: 1.5; stroke-linecap: square"/>
     <g>
      <use xlink:href="#m174474ea19" x="181" y="485.64" style="fill: #ff0000; stroke: #ff0000"/>
     </g>
    </g>
    <g id="text_14">
     <!-- True Values -->
     <g transform="translate(199 489.14) scale(0.1 -0.1)">
      <use xlink:href="#SimHei-54"/>
      <use xlink:href="#SimHei-72" x="50"/>
      <use xlink:href="#SimHei-75" x="100"/>
      <use xlink:href="#SimHei-65" x="150"/>
      <use xlink:href="#SimHei-20" x="200"/>
      <use xlink:href="#SimHei-56" x="250"/>
      <use xlink:href="#SimHei-61" x="300"/>
      <use xlink:href="#SimHei-6c" x="350"/>
      <use xlink:href="#SimHei-75" x="400"/>
      <use xlink:href="#SimHei-65" x="450"/>
      <use xlink:href="#SimHei-73" x="500"/>
     </g>
    </g>
    <g id="line2d_26">
     <path d="M 171 498.89 
L 181 498.89 
L 191 498.89 
" style="fill: none; stroke-dasharray: 5.55,2.4; stroke-dashoffset: 0; stroke: #bfbf00; stroke-width: 1.5"/>
     <g>
      <use xlink:href="#m9a81736300" x="181" y="498.89" style="fill: #bfbf00; stroke: #bfbf00"/>
     </g>
    </g>
    <g id="text_15">
     <!-- Predictions -->
     <g transform="translate(199 502.39) scale(0.1 -0.1)">
      <use xlink:href="#SimHei-50"/>
      <use xlink:href="#SimHei-72" x="50"/>
      <use xlink:href="#SimHei-65" x="100"/>
      <use xlink:href="#SimHei-64" x="150"/>
      <use xlink:href="#SimHei-69" x="200"/>
      <use xlink:href="#SimHei-63" x="250"/>
      <use xlink:href="#SimHei-74" x="300"/>
      <use xlink:href="#SimHei-69" x="350"/>
      <use xlink:href="#SimHei-6f" x="400"/>
      <use xlink:href="#SimHei-6e" x="450"/>
      <use xlink:href="#SimHei-73" x="500"/>
     </g>
    </g>
   </g>
  </g>
 </g>
 <defs>
  <clipPath id="pcb08d68217">
   <rect x="162" y="69.12" width="1004.4" height="443.52"/>
  </clipPath>
 </defs>
</svg>
